%TF.GenerationSoftware,KiCad,Pcbnew,(6.0.10-0)*%
%TF.CreationDate,2023-01-31T00:07:47+01:00*%
%TF.ProjectId,breast-module-proto-v1,62726561-7374-42d6-9d6f-64756c652d70,Proto V1*%
%TF.SameCoordinates,Original*%
%TF.FileFunction,Drillmap*%
%TF.FilePolarity,Positive*%
%FSLAX45Y45*%
G04 Gerber Fmt 4.5, Leading zero omitted, Abs format (unit mm)*
G04 Created by KiCad (PCBNEW (6.0.10-0)) date 2023-01-31 00:07:47*
%MOMM*%
%LPD*%
G01*
G04 APERTURE LIST*
%ADD10C,0.100000*%
%ADD11C,0.200000*%
%ADD12C,0.020000*%
%ADD13C,0.040000*%
%ADD14C,0.060000*%
G04 APERTURE END LIST*
D10*
X19750000Y-5650000D02*
G75*
G03*
X19750000Y-5650000I-200000J0D01*
G01*
X9050000Y-14150000D02*
X20050000Y-14150000D01*
X20050000Y-14150000D02*
X20050000Y-5150000D01*
X20050000Y-5150000D02*
X9050000Y-5150000D01*
X9050000Y-5150000D02*
X9050000Y-14150000D01*
X9750000Y-13650000D02*
G75*
G03*
X9750000Y-13650000I-200000J0D01*
G01*
X19750000Y-13650000D02*
G75*
G03*
X19750000Y-13650000I-200000J0D01*
G01*
X9750000Y-5650000D02*
G75*
G03*
X9750000Y-5650000I-200000J0D01*
G01*
D11*
D12*
X10396500Y-9631750D02*
X10416500Y-9651750D01*
X10416500Y-9631750D02*
X10396500Y-9651750D01*
X10396500Y-9784250D02*
X10416500Y-9804250D01*
X10416500Y-9784250D02*
X10396500Y-9804250D01*
X10472750Y-9555500D02*
X10492750Y-9575500D01*
X10492750Y-9555500D02*
X10472750Y-9575500D01*
X10472750Y-9708000D02*
X10492750Y-9728000D01*
X10492750Y-9708000D02*
X10472750Y-9728000D01*
X10472750Y-9860500D02*
X10492750Y-9880500D01*
X10492750Y-9860500D02*
X10472750Y-9880500D01*
X10549000Y-9631750D02*
X10569000Y-9651750D01*
X10569000Y-9631750D02*
X10549000Y-9651750D01*
X10549000Y-9784250D02*
X10569000Y-9804250D01*
X10569000Y-9784250D02*
X10549000Y-9804250D01*
X10625250Y-9555500D02*
X10645250Y-9575500D01*
X10645250Y-9555500D02*
X10625250Y-9575500D01*
X10625250Y-9708000D02*
X10645250Y-9728000D01*
X10645250Y-9708000D02*
X10625250Y-9728000D01*
X10625250Y-9860500D02*
X10645250Y-9880500D01*
X10645250Y-9860500D02*
X10625250Y-9880500D01*
X10701500Y-9631750D02*
X10721500Y-9651750D01*
X10721500Y-9631750D02*
X10701500Y-9651750D01*
X10701500Y-9784250D02*
X10721500Y-9804250D01*
X10721500Y-9784250D02*
X10701500Y-9804250D01*
D13*
X9770000Y-8950000D02*
G75*
G03*
X9770000Y-8950000I-20000J0D01*
G01*
X9770000Y-11200000D02*
G75*
G03*
X9770000Y-11200000I-20000J0D01*
G01*
X9770000Y-11300000D02*
G75*
G03*
X9770000Y-11300000I-20000J0D01*
G01*
X9820000Y-9300000D02*
G75*
G03*
X9820000Y-9300000I-20000J0D01*
G01*
X9820000Y-9600000D02*
G75*
G03*
X9820000Y-9600000I-20000J0D01*
G01*
X9820000Y-9900000D02*
G75*
G03*
X9820000Y-9900000I-20000J0D01*
G01*
X9820000Y-12000000D02*
G75*
G03*
X9820000Y-12000000I-20000J0D01*
G01*
X9820000Y-12300000D02*
G75*
G03*
X9820000Y-12300000I-20000J0D01*
G01*
X9820000Y-12600000D02*
G75*
G03*
X9820000Y-12600000I-20000J0D01*
G01*
X9845000Y-10375000D02*
G75*
G03*
X9845000Y-10375000I-20000J0D01*
G01*
X9870000Y-11200000D02*
G75*
G03*
X9870000Y-11200000I-20000J0D01*
G01*
X9870000Y-11300000D02*
G75*
G03*
X9870000Y-11300000I-20000J0D01*
G01*
X9895000Y-8275000D02*
G75*
G03*
X9895000Y-8275000I-20000J0D01*
G01*
X10020000Y-9000000D02*
G75*
G03*
X10020000Y-9000000I-20000J0D01*
G01*
X10057500Y-11187500D02*
G75*
G03*
X10057500Y-11187500I-20000J0D01*
G01*
X10099000Y-8596000D02*
G75*
G03*
X10099000Y-8596000I-20000J0D01*
G01*
X10220000Y-12000000D02*
G75*
G03*
X10220000Y-12000000I-20000J0D01*
G01*
X10220000Y-12300000D02*
G75*
G03*
X10220000Y-12300000I-20000J0D01*
G01*
X10220000Y-12600000D02*
G75*
G03*
X10220000Y-12600000I-20000J0D01*
G01*
X10320000Y-6200000D02*
G75*
G03*
X10320000Y-6200000I-20000J0D01*
G01*
X10370000Y-8925000D02*
G75*
G03*
X10370000Y-8925000I-20000J0D01*
G01*
X10370000Y-9125000D02*
G75*
G03*
X10370000Y-9125000I-20000J0D01*
G01*
X10445000Y-10900000D02*
G75*
G03*
X10445000Y-10900000I-20000J0D01*
G01*
X10480000Y-8590000D02*
G75*
G03*
X10480000Y-8590000I-20000J0D01*
G01*
X10520000Y-13300000D02*
G75*
G03*
X10520000Y-13300000I-20000J0D01*
G01*
X10620000Y-6200000D02*
G75*
G03*
X10620000Y-6200000I-20000J0D01*
G01*
X10620000Y-11200000D02*
G75*
G03*
X10620000Y-11200000I-20000J0D01*
G01*
X10670000Y-10825000D02*
G75*
G03*
X10670000Y-10825000I-20000J0D01*
G01*
X10720000Y-13800000D02*
G75*
G03*
X10720000Y-13800000I-20000J0D01*
G01*
X10920000Y-6200000D02*
G75*
G03*
X10920000Y-6200000I-20000J0D01*
G01*
X10920000Y-11200000D02*
G75*
G03*
X10920000Y-11200000I-20000J0D01*
G01*
X10920000Y-13800000D02*
G75*
G03*
X10920000Y-13800000I-20000J0D01*
G01*
X10945000Y-12000000D02*
G75*
G03*
X10945000Y-12000000I-20000J0D01*
G01*
X10970000Y-9100000D02*
G75*
G03*
X10970000Y-9100000I-20000J0D01*
G01*
X11120000Y-13800000D02*
G75*
G03*
X11120000Y-13800000I-20000J0D01*
G01*
X11145000Y-10725000D02*
G75*
G03*
X11145000Y-10725000I-20000J0D01*
G01*
X11195000Y-9325000D02*
G75*
G03*
X11195000Y-9325000I-20000J0D01*
G01*
X11220000Y-11200000D02*
G75*
G03*
X11220000Y-11200000I-20000J0D01*
G01*
X11320000Y-6800000D02*
G75*
G03*
X11320000Y-6800000I-20000J0D01*
G01*
X11320000Y-11800000D02*
G75*
G03*
X11320000Y-11800000I-20000J0D01*
G01*
X11320000Y-13600000D02*
G75*
G03*
X11320000Y-13600000I-20000J0D01*
G01*
X11370000Y-10775000D02*
G75*
G03*
X11370000Y-10775000I-20000J0D01*
G01*
X11445000Y-9775000D02*
G75*
G03*
X11445000Y-9775000I-20000J0D01*
G01*
X11520000Y-11200000D02*
G75*
G03*
X11520000Y-11200000I-20000J0D01*
G01*
X11620000Y-8900000D02*
G75*
G03*
X11620000Y-8900000I-20000J0D01*
G01*
X11620000Y-10900000D02*
G75*
G03*
X11620000Y-10900000I-20000J0D01*
G01*
X11720000Y-10775000D02*
G75*
G03*
X11720000Y-10775000I-20000J0D01*
G01*
X11770000Y-10225000D02*
G75*
G03*
X11770000Y-10225000I-20000J0D01*
G01*
X11820000Y-10900000D02*
G75*
G03*
X11820000Y-10900000I-20000J0D01*
G01*
X11820000Y-12480000D02*
G75*
G03*
X11820000Y-12480000I-20000J0D01*
G01*
X11821371Y-10643050D02*
G75*
G03*
X11821371Y-10643050I-20000J0D01*
G01*
X11920000Y-7500000D02*
G75*
G03*
X11920000Y-7500000I-20000J0D01*
G01*
X11970000Y-10400000D02*
G75*
G03*
X11970000Y-10400000I-20000J0D01*
G01*
X11970000Y-10688450D02*
G75*
G03*
X11970000Y-10688450I-20000J0D01*
G01*
X12095000Y-10375000D02*
G75*
G03*
X12095000Y-10375000I-20000J0D01*
G01*
X12095000Y-10850000D02*
G75*
G03*
X12095000Y-10850000I-20000J0D01*
G01*
X12195000Y-7325000D02*
G75*
G03*
X12195000Y-7325000I-20000J0D01*
G01*
X12220000Y-10400000D02*
G75*
G03*
X12220000Y-10400000I-20000J0D01*
G01*
X12220000Y-10800000D02*
G75*
G03*
X12220000Y-10800000I-20000J0D01*
G01*
X12220000Y-13700000D02*
G75*
G03*
X12220000Y-13700000I-20000J0D01*
G01*
X12320000Y-6800000D02*
G75*
G03*
X12320000Y-6800000I-20000J0D01*
G01*
X12345000Y-9125000D02*
G75*
G03*
X12345000Y-9125000I-20000J0D01*
G01*
X12420000Y-10800000D02*
G75*
G03*
X12420000Y-10800000I-20000J0D01*
G01*
X12420000Y-13500000D02*
G75*
G03*
X12420000Y-13500000I-20000J0D01*
G01*
X12420000Y-13700000D02*
G75*
G03*
X12420000Y-13700000I-20000J0D01*
G01*
X12520000Y-10400000D02*
G75*
G03*
X12520000Y-10400000I-20000J0D01*
G01*
X12595000Y-9125000D02*
G75*
G03*
X12595000Y-9125000I-20000J0D01*
G01*
X12720000Y-12500000D02*
G75*
G03*
X12720000Y-12500000I-20000J0D01*
G01*
X12820000Y-10400000D02*
G75*
G03*
X12820000Y-10400000I-20000J0D01*
G01*
X12820000Y-10800000D02*
G75*
G03*
X12820000Y-10800000I-20000J0D01*
G01*
X12870000Y-9575000D02*
G75*
G03*
X12870000Y-9575000I-20000J0D01*
G01*
X12920000Y-12000000D02*
G75*
G03*
X12920000Y-12000000I-20000J0D01*
G01*
X13020000Y-10800000D02*
G75*
G03*
X13020000Y-10800000I-20000J0D01*
G01*
X13060000Y-12990000D02*
G75*
G03*
X13060000Y-12990000I-20000J0D01*
G01*
X13120000Y-13200000D02*
G75*
G03*
X13120000Y-13200000I-20000J0D01*
G01*
X13120000Y-13300000D02*
G75*
G03*
X13120000Y-13300000I-20000J0D01*
G01*
X13157500Y-10287500D02*
G75*
G03*
X13157500Y-10287500I-20000J0D01*
G01*
X13320000Y-6800000D02*
G75*
G03*
X13320000Y-6800000I-20000J0D01*
G01*
X13320000Y-10400000D02*
G75*
G03*
X13320000Y-10400000I-20000J0D01*
G01*
X13320000Y-10800000D02*
G75*
G03*
X13320000Y-10800000I-20000J0D01*
G01*
X13320000Y-11800000D02*
G75*
G03*
X13320000Y-11800000I-20000J0D01*
G01*
X13420000Y-13200000D02*
G75*
G03*
X13420000Y-13200000I-20000J0D01*
G01*
X13420000Y-13300000D02*
G75*
G03*
X13420000Y-13300000I-20000J0D01*
G01*
X13620000Y-9300000D02*
G75*
G03*
X13620000Y-9300000I-20000J0D01*
G01*
X13620000Y-9500000D02*
G75*
G03*
X13620000Y-9500000I-20000J0D01*
G01*
X13620000Y-10400000D02*
G75*
G03*
X13620000Y-10400000I-20000J0D01*
G01*
X13620000Y-10800000D02*
G75*
G03*
X13620000Y-10800000I-20000J0D01*
G01*
X13720000Y-9400000D02*
G75*
G03*
X13720000Y-9400000I-20000J0D01*
G01*
X13720000Y-13200000D02*
G75*
G03*
X13720000Y-13200000I-20000J0D01*
G01*
X13720000Y-13300000D02*
G75*
G03*
X13720000Y-13300000I-20000J0D01*
G01*
X13820000Y-12480000D02*
G75*
G03*
X13820000Y-12480000I-20000J0D01*
G01*
X13845000Y-9125000D02*
G75*
G03*
X13845000Y-9125000I-20000J0D01*
G01*
X13920000Y-7500000D02*
G75*
G03*
X13920000Y-7500000I-20000J0D01*
G01*
X13920000Y-10400000D02*
G75*
G03*
X13920000Y-10400000I-20000J0D01*
G01*
X13920000Y-10800000D02*
G75*
G03*
X13920000Y-10800000I-20000J0D01*
G01*
X13945000Y-9125000D02*
G75*
G03*
X13945000Y-9125000I-20000J0D01*
G01*
X14020000Y-13400000D02*
G75*
G03*
X14020000Y-13400000I-20000J0D01*
G01*
X14020000Y-13500000D02*
G75*
G03*
X14020000Y-13500000I-20000J0D01*
G01*
X14020000Y-13600000D02*
G75*
G03*
X14020000Y-13600000I-20000J0D01*
G01*
X14084000Y-9914000D02*
G75*
G03*
X14084000Y-9914000I-20000J0D01*
G01*
X14095000Y-9600000D02*
G75*
G03*
X14095000Y-9600000I-20000J0D01*
G01*
X14195000Y-7325000D02*
G75*
G03*
X14195000Y-7325000I-20000J0D01*
G01*
X14220000Y-9900000D02*
G75*
G03*
X14220000Y-9900000I-20000J0D01*
G01*
X14220000Y-10400000D02*
G75*
G03*
X14220000Y-10400000I-20000J0D01*
G01*
X14220000Y-10800000D02*
G75*
G03*
X14220000Y-10800000I-20000J0D01*
G01*
X14290000Y-12790000D02*
G75*
G03*
X14290000Y-12790000I-20000J0D01*
G01*
X14290000Y-13047650D02*
G75*
G03*
X14290000Y-13047650I-20000J0D01*
G01*
X14320000Y-6800000D02*
G75*
G03*
X14320000Y-6800000I-20000J0D01*
G01*
X14320000Y-9125000D02*
G75*
G03*
X14320000Y-9125000I-20000J0D01*
G01*
X14420000Y-9125000D02*
G75*
G03*
X14420000Y-9125000I-20000J0D01*
G01*
X14430000Y-13660000D02*
G75*
G03*
X14430000Y-13660000I-20000J0D01*
G01*
X14520000Y-9125000D02*
G75*
G03*
X14520000Y-9125000I-20000J0D01*
G01*
X14520000Y-10400000D02*
G75*
G03*
X14520000Y-10400000I-20000J0D01*
G01*
X14520000Y-10800000D02*
G75*
G03*
X14520000Y-10800000I-20000J0D01*
G01*
X14620000Y-12500000D02*
G75*
G03*
X14620000Y-12500000I-20000J0D01*
G01*
X14620000Y-13200000D02*
G75*
G03*
X14620000Y-13200000I-20000J0D01*
G01*
X14695000Y-9125000D02*
G75*
G03*
X14695000Y-9125000I-20000J0D01*
G01*
X14820000Y-10400000D02*
G75*
G03*
X14820000Y-10400000I-20000J0D01*
G01*
X14820000Y-10800000D02*
G75*
G03*
X14820000Y-10800000I-20000J0D01*
G01*
X14820000Y-12500000D02*
G75*
G03*
X14820000Y-12500000I-20000J0D01*
G01*
X14820000Y-13200000D02*
G75*
G03*
X14820000Y-13200000I-20000J0D01*
G01*
X14920000Y-12000000D02*
G75*
G03*
X14920000Y-12000000I-20000J0D01*
G01*
X15030000Y-13700000D02*
G75*
G03*
X15030000Y-13700000I-20000J0D01*
G01*
X15030000Y-13960000D02*
G75*
G03*
X15030000Y-13960000I-20000J0D01*
G01*
X15120000Y-9375000D02*
G75*
G03*
X15120000Y-9375000I-20000J0D01*
G01*
X15120000Y-9500000D02*
G75*
G03*
X15120000Y-9500000I-20000J0D01*
G01*
X15120000Y-10400000D02*
G75*
G03*
X15120000Y-10400000I-20000J0D01*
G01*
X15120000Y-10800000D02*
G75*
G03*
X15120000Y-10800000I-20000J0D01*
G01*
X15130000Y-13700000D02*
G75*
G03*
X15130000Y-13700000I-20000J0D01*
G01*
X15130000Y-13960000D02*
G75*
G03*
X15130000Y-13960000I-20000J0D01*
G01*
X15220000Y-9825000D02*
G75*
G03*
X15220000Y-9825000I-20000J0D01*
G01*
X15230000Y-13700000D02*
G75*
G03*
X15230000Y-13700000I-20000J0D01*
G01*
X15230000Y-13960000D02*
G75*
G03*
X15230000Y-13960000I-20000J0D01*
G01*
X15320000Y-6800000D02*
G75*
G03*
X15320000Y-6800000I-20000J0D01*
G01*
X15320000Y-11800000D02*
G75*
G03*
X15320000Y-11800000I-20000J0D01*
G01*
X15320000Y-12920000D02*
G75*
G03*
X15320000Y-12920000I-20000J0D01*
G01*
X15320000Y-13320000D02*
G75*
G03*
X15320000Y-13320000I-20000J0D01*
G01*
X15330000Y-13700000D02*
G75*
G03*
X15330000Y-13700000I-20000J0D01*
G01*
X15330000Y-13960000D02*
G75*
G03*
X15330000Y-13960000I-20000J0D01*
G01*
X15345000Y-9475000D02*
G75*
G03*
X15345000Y-9475000I-20000J0D01*
G01*
X15370000Y-9725000D02*
G75*
G03*
X15370000Y-9725000I-20000J0D01*
G01*
X15420000Y-10400000D02*
G75*
G03*
X15420000Y-10400000I-20000J0D01*
G01*
X15420000Y-10800000D02*
G75*
G03*
X15420000Y-10800000I-20000J0D01*
G01*
X15470000Y-13700000D02*
G75*
G03*
X15470000Y-13700000I-20000J0D01*
G01*
X15530000Y-12740000D02*
G75*
G03*
X15530000Y-12740000I-20000J0D01*
G01*
X15620000Y-13000000D02*
G75*
G03*
X15620000Y-13000000I-20000J0D01*
G01*
X15720000Y-9975000D02*
G75*
G03*
X15720000Y-9975000I-20000J0D01*
G01*
X15720000Y-10400000D02*
G75*
G03*
X15720000Y-10400000I-20000J0D01*
G01*
X15720000Y-10800000D02*
G75*
G03*
X15720000Y-10800000I-20000J0D01*
G01*
X15720000Y-13000000D02*
G75*
G03*
X15720000Y-13000000I-20000J0D01*
G01*
X15720000Y-13700000D02*
G75*
G03*
X15720000Y-13700000I-20000J0D01*
G01*
X15830000Y-13010000D02*
G75*
G03*
X15830000Y-13010000I-20000J0D01*
G01*
X15920000Y-7500000D02*
G75*
G03*
X15920000Y-7500000I-20000J0D01*
G01*
X15920000Y-13250000D02*
G75*
G03*
X15920000Y-13250000I-20000J0D01*
G01*
X15920000Y-13350000D02*
G75*
G03*
X15920000Y-13350000I-20000J0D01*
G01*
X15920000Y-13450000D02*
G75*
G03*
X15920000Y-13450000I-20000J0D01*
G01*
X15950000Y-12740000D02*
G75*
G03*
X15950000Y-12740000I-20000J0D01*
G01*
X16000000Y-12320000D02*
G75*
G03*
X16000000Y-12320000I-20000J0D01*
G01*
X16020000Y-10400000D02*
G75*
G03*
X16020000Y-10400000I-20000J0D01*
G01*
X16020000Y-10800000D02*
G75*
G03*
X16020000Y-10800000I-20000J0D01*
G01*
X16020000Y-13250000D02*
G75*
G03*
X16020000Y-13250000I-20000J0D01*
G01*
X16020000Y-13350000D02*
G75*
G03*
X16020000Y-13350000I-20000J0D01*
G01*
X16020000Y-13450000D02*
G75*
G03*
X16020000Y-13450000I-20000J0D01*
G01*
X16195000Y-7325000D02*
G75*
G03*
X16195000Y-7325000I-20000J0D01*
G01*
X16320000Y-10400000D02*
G75*
G03*
X16320000Y-10400000I-20000J0D01*
G01*
X16320000Y-10800000D02*
G75*
G03*
X16320000Y-10800000I-20000J0D01*
G01*
X16340000Y-13000000D02*
G75*
G03*
X16340000Y-13000000I-20000J0D01*
G01*
X16345000Y-9125000D02*
G75*
G03*
X16345000Y-9125000I-20000J0D01*
G01*
X16380000Y-13280000D02*
G75*
G03*
X16380000Y-13280000I-20000J0D01*
G01*
X16420000Y-6800000D02*
G75*
G03*
X16420000Y-6800000I-20000J0D01*
G01*
X16595000Y-9125000D02*
G75*
G03*
X16595000Y-9125000I-20000J0D01*
G01*
X16620000Y-10400000D02*
G75*
G03*
X16620000Y-10400000I-20000J0D01*
G01*
X16620000Y-10800000D02*
G75*
G03*
X16620000Y-10800000I-20000J0D01*
G01*
X16620000Y-12800000D02*
G75*
G03*
X16620000Y-12800000I-20000J0D01*
G01*
X16720000Y-10225000D02*
G75*
G03*
X16720000Y-10225000I-20000J0D01*
G01*
X16720000Y-14000000D02*
G75*
G03*
X16720000Y-14000000I-20000J0D01*
G01*
X16795000Y-13625000D02*
G75*
G03*
X16795000Y-13625000I-20000J0D01*
G01*
X16795000Y-13725000D02*
G75*
G03*
X16795000Y-13725000I-20000J0D01*
G01*
X16820000Y-12500000D02*
G75*
G03*
X16820000Y-12500000I-20000J0D01*
G01*
X16820000Y-12800000D02*
G75*
G03*
X16820000Y-12800000I-20000J0D01*
G01*
X16820000Y-13200000D02*
G75*
G03*
X16820000Y-13200000I-20000J0D01*
G01*
X16820000Y-13475000D02*
G75*
G03*
X16820000Y-13475000I-20000J0D01*
G01*
X16920000Y-10400000D02*
G75*
G03*
X16920000Y-10400000I-20000J0D01*
G01*
X16920000Y-10800000D02*
G75*
G03*
X16920000Y-10800000I-20000J0D01*
G01*
X16920000Y-12000000D02*
G75*
G03*
X16920000Y-12000000I-20000J0D01*
G01*
X16920000Y-14000000D02*
G75*
G03*
X16920000Y-14000000I-20000J0D01*
G01*
X17045000Y-13275000D02*
G75*
G03*
X17045000Y-13275000I-20000J0D01*
G01*
X17070000Y-13475000D02*
G75*
G03*
X17070000Y-13475000I-20000J0D01*
G01*
X17120000Y-13625000D02*
G75*
G03*
X17120000Y-13625000I-20000J0D01*
G01*
X17120000Y-13725000D02*
G75*
G03*
X17120000Y-13725000I-20000J0D01*
G01*
X17120000Y-14000000D02*
G75*
G03*
X17120000Y-14000000I-20000J0D01*
G01*
X17220000Y-9850000D02*
G75*
G03*
X17220000Y-9850000I-20000J0D01*
G01*
X17220000Y-10800000D02*
G75*
G03*
X17220000Y-10800000I-20000J0D01*
G01*
X17245000Y-10000000D02*
G75*
G03*
X17245000Y-10000000I-20000J0D01*
G01*
X17320000Y-6800000D02*
G75*
G03*
X17320000Y-6800000I-20000J0D01*
G01*
X17320000Y-11800000D02*
G75*
G03*
X17320000Y-11800000I-20000J0D01*
G01*
X17320000Y-14000000D02*
G75*
G03*
X17320000Y-14000000I-20000J0D01*
G01*
X17495000Y-10000000D02*
G75*
G03*
X17495000Y-10000000I-20000J0D01*
G01*
X17495000Y-10450000D02*
G75*
G03*
X17495000Y-10450000I-20000J0D01*
G01*
X17520000Y-9575000D02*
G75*
G03*
X17520000Y-9575000I-20000J0D01*
G01*
X17645000Y-13100000D02*
G75*
G03*
X17645000Y-13100000I-20000J0D01*
G01*
X17645000Y-13200000D02*
G75*
G03*
X17645000Y-13200000I-20000J0D01*
G01*
X17720000Y-7625000D02*
G75*
G03*
X17720000Y-7625000I-20000J0D01*
G01*
X17720000Y-14000000D02*
G75*
G03*
X17720000Y-14000000I-20000J0D01*
G01*
X17740000Y-5980000D02*
G75*
G03*
X17740000Y-5980000I-20000J0D01*
G01*
X17740000Y-6100000D02*
G75*
G03*
X17740000Y-6100000I-20000J0D01*
G01*
X17740000Y-6220000D02*
G75*
G03*
X17740000Y-6220000I-20000J0D01*
G01*
X17770000Y-13525000D02*
G75*
G03*
X17770000Y-13525000I-20000J0D01*
G01*
X17820000Y-12480000D02*
G75*
G03*
X17820000Y-12480000I-20000J0D01*
G01*
X17845000Y-11850000D02*
G75*
G03*
X17845000Y-11850000I-20000J0D01*
G01*
X17861837Y-9840338D02*
G75*
G03*
X17861837Y-9840338I-20000J0D01*
G01*
X17869520Y-9157828D02*
G75*
G03*
X17869520Y-9157828I-20000J0D01*
G01*
X17895000Y-8950000D02*
G75*
G03*
X17895000Y-8950000I-20000J0D01*
G01*
X17920000Y-7500000D02*
G75*
G03*
X17920000Y-7500000I-20000J0D01*
G01*
X17970000Y-11325000D02*
G75*
G03*
X17970000Y-11325000I-20000J0D01*
G01*
X18020000Y-14000000D02*
G75*
G03*
X18020000Y-14000000I-20000J0D01*
G01*
X18042650Y-10300000D02*
G75*
G03*
X18042650Y-10300000I-20000J0D01*
G01*
X18045000Y-6450000D02*
G75*
G03*
X18045000Y-6450000I-20000J0D01*
G01*
X18054000Y-5834000D02*
G75*
G03*
X18054000Y-5834000I-20000J0D01*
G01*
X18070000Y-9450000D02*
G75*
G03*
X18070000Y-9450000I-20000J0D01*
G01*
X18070000Y-9650000D02*
G75*
G03*
X18070000Y-9650000I-20000J0D01*
G01*
X18070000Y-9900000D02*
G75*
G03*
X18070000Y-9900000I-20000J0D01*
G01*
X18070000Y-11500000D02*
G75*
G03*
X18070000Y-11500000I-20000J0D01*
G01*
X18095000Y-13525000D02*
G75*
G03*
X18095000Y-13525000I-20000J0D01*
G01*
X18120000Y-8825000D02*
G75*
G03*
X18120000Y-8825000I-20000J0D01*
G01*
X18181250Y-9538750D02*
G75*
G03*
X18181250Y-9538750I-20000J0D01*
G01*
X18195000Y-7325000D02*
G75*
G03*
X18195000Y-7325000I-20000J0D01*
G01*
X18220000Y-10900000D02*
G75*
G03*
X18220000Y-10900000I-20000J0D01*
G01*
X18270000Y-9450000D02*
G75*
G03*
X18270000Y-9450000I-20000J0D01*
G01*
X18270000Y-9650000D02*
G75*
G03*
X18270000Y-9650000I-20000J0D01*
G01*
X18295000Y-6075000D02*
G75*
G03*
X18295000Y-6075000I-20000J0D01*
G01*
X18295000Y-10150000D02*
G75*
G03*
X18295000Y-10150000I-20000J0D01*
G01*
X18295000Y-10450000D02*
G75*
G03*
X18295000Y-10450000I-20000J0D01*
G01*
X18308000Y-5788000D02*
G75*
G03*
X18308000Y-5788000I-20000J0D01*
G01*
X18320000Y-8825000D02*
G75*
G03*
X18320000Y-8825000I-20000J0D01*
G01*
X18320000Y-14000000D02*
G75*
G03*
X18320000Y-14000000I-20000J0D01*
G01*
X18370000Y-10250000D02*
G75*
G03*
X18370000Y-10250000I-20000J0D01*
G01*
X18370000Y-11475000D02*
G75*
G03*
X18370000Y-11475000I-20000J0D01*
G01*
X18395000Y-11325000D02*
G75*
G03*
X18395000Y-11325000I-20000J0D01*
G01*
X18395000Y-11800000D02*
G75*
G03*
X18395000Y-11800000I-20000J0D01*
G01*
X18395000Y-12850000D02*
G75*
G03*
X18395000Y-12850000I-20000J0D01*
G01*
X18520000Y-6200000D02*
G75*
G03*
X18520000Y-6200000I-20000J0D01*
G01*
X18520000Y-6500000D02*
G75*
G03*
X18520000Y-6500000I-20000J0D01*
G01*
X18520000Y-6800000D02*
G75*
G03*
X18520000Y-6800000I-20000J0D01*
G01*
X18520000Y-9900000D02*
G75*
G03*
X18520000Y-9900000I-20000J0D01*
G01*
X18520000Y-11200000D02*
G75*
G03*
X18520000Y-11200000I-20000J0D01*
G01*
X18520000Y-11925000D02*
G75*
G03*
X18520000Y-11925000I-20000J0D01*
G01*
X18560000Y-10420000D02*
G75*
G03*
X18560000Y-10420000I-20000J0D01*
G01*
X18620000Y-10000000D02*
G75*
G03*
X18620000Y-10000000I-20000J0D01*
G01*
X18620000Y-13600000D02*
G75*
G03*
X18620000Y-13600000I-20000J0D01*
G01*
X18620000Y-14000000D02*
G75*
G03*
X18620000Y-14000000I-20000J0D01*
G01*
X18670000Y-9275000D02*
G75*
G03*
X18670000Y-9275000I-20000J0D01*
G01*
X18895000Y-11000000D02*
G75*
G03*
X18895000Y-11000000I-20000J0D01*
G01*
X18920000Y-10000000D02*
G75*
G03*
X18920000Y-10000000I-20000J0D01*
G01*
X18920000Y-10150000D02*
G75*
G03*
X18920000Y-10150000I-20000J0D01*
G01*
X18920000Y-10600000D02*
G75*
G03*
X18920000Y-10600000I-20000J0D01*
G01*
X18920000Y-10800000D02*
G75*
G03*
X18920000Y-10800000I-20000J0D01*
G01*
X18920000Y-13600000D02*
G75*
G03*
X18920000Y-13600000I-20000J0D01*
G01*
X18920000Y-14000000D02*
G75*
G03*
X18920000Y-14000000I-20000J0D01*
G01*
X18945000Y-11550000D02*
G75*
G03*
X18945000Y-11550000I-20000J0D01*
G01*
X18945000Y-11750000D02*
G75*
G03*
X18945000Y-11750000I-20000J0D01*
G01*
X18970000Y-9200000D02*
G75*
G03*
X18970000Y-9200000I-20000J0D01*
G01*
X18970000Y-9300000D02*
G75*
G03*
X18970000Y-9300000I-20000J0D01*
G01*
X18970000Y-9400000D02*
G75*
G03*
X18970000Y-9400000I-20000J0D01*
G01*
X19020000Y-6200000D02*
G75*
G03*
X19020000Y-6200000I-20000J0D01*
G01*
X19020000Y-6500000D02*
G75*
G03*
X19020000Y-6500000I-20000J0D01*
G01*
X19020000Y-6800000D02*
G75*
G03*
X19020000Y-6800000I-20000J0D01*
G01*
X19020000Y-9650000D02*
G75*
G03*
X19020000Y-9650000I-20000J0D01*
G01*
X19020000Y-12500000D02*
G75*
G03*
X19020000Y-12500000I-20000J0D01*
G01*
X19120000Y-9400000D02*
G75*
G03*
X19120000Y-9400000I-20000J0D01*
G01*
X19120000Y-9900000D02*
G75*
G03*
X19120000Y-9900000I-20000J0D01*
G01*
X19120000Y-12800000D02*
G75*
G03*
X19120000Y-12800000I-20000J0D01*
G01*
X19120000Y-13000000D02*
G75*
G03*
X19120000Y-13000000I-20000J0D01*
G01*
X19195000Y-8850000D02*
G75*
G03*
X19195000Y-8850000I-20000J0D01*
G01*
X19220000Y-10475000D02*
G75*
G03*
X19220000Y-10475000I-20000J0D01*
G01*
X19418629Y-9547650D02*
G75*
G03*
X19418629Y-9547650I-20000J0D01*
G01*
X19470000Y-13050000D02*
G75*
G03*
X19470000Y-13050000I-20000J0D01*
G01*
X19545000Y-9675000D02*
G75*
G03*
X19545000Y-9675000I-20000J0D01*
G01*
X19710000Y-12820000D02*
G75*
G03*
X19710000Y-12820000I-20000J0D01*
G01*
X19820000Y-9500000D02*
G75*
G03*
X19820000Y-9500000I-20000J0D01*
G01*
X19820000Y-9700000D02*
G75*
G03*
X19820000Y-9700000I-20000J0D01*
G01*
X19820000Y-9900000D02*
G75*
G03*
X19820000Y-9900000I-20000J0D01*
G01*
X19920000Y-9400000D02*
G75*
G03*
X19920000Y-9400000I-20000J0D01*
G01*
X19920000Y-9600000D02*
G75*
G03*
X19920000Y-9600000I-20000J0D01*
G01*
X19920000Y-9800000D02*
G75*
G03*
X19920000Y-9800000I-20000J0D01*
G01*
X19920000Y-10000000D02*
G75*
G03*
X19920000Y-10000000I-20000J0D01*
G01*
X19970000Y-11175000D02*
G75*
G03*
X19970000Y-11175000I-20000J0D01*
G01*
X19970000Y-11575000D02*
G75*
G03*
X19970000Y-11575000I-20000J0D01*
G01*
X19970000Y-12025000D02*
G75*
G03*
X19970000Y-12025000I-20000J0D01*
G01*
D14*
X19337000Y-9188000D02*
X19337000Y-9248000D01*
X19307000Y-9218000D02*
X19367000Y-9218000D01*
D11*
X19282000Y-9248000D02*
X19392000Y-9248000D01*
X19282000Y-9188000D02*
X19392000Y-9188000D01*
X19392000Y-9248000D02*
G75*
G03*
X19392000Y-9188000I0J30000D01*
G01*
X19282000Y-9188000D02*
G75*
G03*
X19282000Y-9248000I0J-30000D01*
G01*
D14*
X19337000Y-10052000D02*
X19337000Y-10112000D01*
X19307000Y-10082000D02*
X19367000Y-10082000D01*
D11*
X19282000Y-10112000D02*
X19392000Y-10112000D01*
X19282000Y-10052000D02*
X19392000Y-10052000D01*
X19392000Y-10112000D02*
G75*
G03*
X19392000Y-10052000I0J30000D01*
G01*
X19282000Y-10052000D02*
G75*
G03*
X19282000Y-10112000I0J-30000D01*
G01*
D14*
X19755000Y-9188000D02*
X19755000Y-9248000D01*
X19725000Y-9218000D02*
X19785000Y-9218000D01*
D11*
X19725000Y-9248000D02*
X19785000Y-9248000D01*
X19725000Y-9188000D02*
X19785000Y-9188000D01*
X19785000Y-9248000D02*
G75*
G03*
X19785000Y-9188000I0J30000D01*
G01*
X19725000Y-9188000D02*
G75*
G03*
X19725000Y-9248000I0J-30000D01*
G01*
D14*
X19755000Y-10052000D02*
X19755000Y-10112000D01*
X19725000Y-10082000D02*
X19785000Y-10082000D01*
D11*
X19725000Y-10112000D02*
X19785000Y-10112000D01*
X19725000Y-10052000D02*
X19785000Y-10052000D01*
X19785000Y-10112000D02*
G75*
G03*
X19785000Y-10052000I0J30000D01*
G01*
X19725000Y-10052000D02*
G75*
G03*
X19725000Y-10112000I0J-30000D01*
G01*
D10*
X10085356Y-5435356D02*
X10085356Y-5364644D01*
X10014644Y-5364644D01*
X10014644Y-5435356D01*
X10085356Y-5435356D01*
X10339356Y-5435356D02*
X10339356Y-5364644D01*
X10268644Y-5364644D01*
X10268644Y-5435356D01*
X10339356Y-5435356D01*
X10593356Y-5435356D02*
X10593356Y-5364644D01*
X10522644Y-5364644D01*
X10522644Y-5435356D01*
X10593356Y-5435356D01*
X10847356Y-5435356D02*
X10847356Y-5364644D01*
X10776644Y-5364644D01*
X10776644Y-5435356D01*
X10847356Y-5435356D01*
X11101356Y-5435356D02*
X11101356Y-5364644D01*
X11030644Y-5364644D01*
X11030644Y-5435356D01*
X11101356Y-5435356D01*
X11355356Y-5435356D02*
X11355356Y-5364644D01*
X11284644Y-5364644D01*
X11284644Y-5435356D01*
X11355356Y-5435356D01*
X14873356Y-8817856D02*
X14873356Y-8747144D01*
X14802644Y-8747144D01*
X14802644Y-8817856D01*
X14873356Y-8817856D01*
X15127356Y-8817856D02*
X15127356Y-8747144D01*
X15056644Y-8747144D01*
X15056644Y-8817856D01*
X15127356Y-8817856D01*
X15381356Y-8817856D02*
X15381356Y-8747144D01*
X15310644Y-8747144D01*
X15310644Y-8817856D01*
X15381356Y-8817856D01*
X15635356Y-8817856D02*
X15635356Y-8747144D01*
X15564644Y-8747144D01*
X15564644Y-8817856D01*
X15635356Y-8817856D01*
X17815356Y-5435356D02*
X17815356Y-5364644D01*
X17744644Y-5364644D01*
X17744644Y-5435356D01*
X17815356Y-5435356D01*
X18069356Y-5435356D02*
X18069356Y-5364644D01*
X17998644Y-5364644D01*
X17998644Y-5435356D01*
X18069356Y-5435356D01*
X18135356Y-13010356D02*
X18135356Y-12939644D01*
X18064644Y-12939644D01*
X18064644Y-13010356D01*
X18135356Y-13010356D01*
X18135356Y-13260356D02*
X18135356Y-13189644D01*
X18064644Y-13189644D01*
X18064644Y-13260356D01*
X18135356Y-13260356D01*
X18323356Y-5435356D02*
X18323356Y-5364644D01*
X18252644Y-5364644D01*
X18252644Y-5435356D01*
X18323356Y-5435356D01*
X18577356Y-5435356D02*
X18577356Y-5364644D01*
X18506644Y-5364644D01*
X18506644Y-5435356D01*
X18577356Y-5435356D01*
X18831356Y-5435356D02*
X18831356Y-5364644D01*
X18760644Y-5364644D01*
X18760644Y-5435356D01*
X18831356Y-5435356D01*
X19085356Y-5435356D02*
X19085356Y-5364644D01*
X19014644Y-5364644D01*
X19014644Y-5435356D01*
X19085356Y-5435356D01*
D11*
X9302619Y-14465476D02*
X9302619Y-14265476D01*
X9350238Y-14265476D01*
X9378810Y-14275000D01*
X9397857Y-14294048D01*
X9407381Y-14313095D01*
X9416905Y-14351190D01*
X9416905Y-14379762D01*
X9407381Y-14417857D01*
X9397857Y-14436905D01*
X9378810Y-14455952D01*
X9350238Y-14465476D01*
X9302619Y-14465476D01*
X9502619Y-14465476D02*
X9502619Y-14332143D01*
X9502619Y-14370238D02*
X9512143Y-14351190D01*
X9521667Y-14341667D01*
X9540714Y-14332143D01*
X9559762Y-14332143D01*
X9626429Y-14465476D02*
X9626429Y-14332143D01*
X9626429Y-14265476D02*
X9616905Y-14275000D01*
X9626429Y-14284524D01*
X9635952Y-14275000D01*
X9626429Y-14265476D01*
X9626429Y-14284524D01*
X9750238Y-14465476D02*
X9731190Y-14455952D01*
X9721667Y-14436905D01*
X9721667Y-14265476D01*
X9855000Y-14465476D02*
X9835952Y-14455952D01*
X9826429Y-14436905D01*
X9826429Y-14265476D01*
X10083571Y-14465476D02*
X10083571Y-14265476D01*
X10150238Y-14408333D01*
X10216905Y-14265476D01*
X10216905Y-14465476D01*
X10397857Y-14465476D02*
X10397857Y-14360714D01*
X10388333Y-14341667D01*
X10369286Y-14332143D01*
X10331190Y-14332143D01*
X10312143Y-14341667D01*
X10397857Y-14455952D02*
X10378810Y-14465476D01*
X10331190Y-14465476D01*
X10312143Y-14455952D01*
X10302619Y-14436905D01*
X10302619Y-14417857D01*
X10312143Y-14398809D01*
X10331190Y-14389286D01*
X10378810Y-14389286D01*
X10397857Y-14379762D01*
X10493095Y-14332143D02*
X10493095Y-14532143D01*
X10493095Y-14341667D02*
X10512143Y-14332143D01*
X10550238Y-14332143D01*
X10569286Y-14341667D01*
X10578810Y-14351190D01*
X10588333Y-14370238D01*
X10588333Y-14427381D01*
X10578810Y-14446428D01*
X10569286Y-14455952D01*
X10550238Y-14465476D01*
X10512143Y-14465476D01*
X10493095Y-14455952D01*
X10674048Y-14446428D02*
X10683571Y-14455952D01*
X10674048Y-14465476D01*
X10664524Y-14455952D01*
X10674048Y-14446428D01*
X10674048Y-14465476D01*
X10674048Y-14341667D02*
X10683571Y-14351190D01*
X10674048Y-14360714D01*
X10664524Y-14351190D01*
X10674048Y-14341667D01*
X10674048Y-14360714D01*
D12*
X9025000Y-14785000D02*
X9045000Y-14805000D01*
X9045000Y-14785000D02*
X9025000Y-14805000D01*
D11*
X9340714Y-14685476D02*
X9359762Y-14685476D01*
X9378810Y-14695000D01*
X9388333Y-14704524D01*
X9397857Y-14723571D01*
X9407381Y-14761667D01*
X9407381Y-14809286D01*
X9397857Y-14847381D01*
X9388333Y-14866428D01*
X9378810Y-14875952D01*
X9359762Y-14885476D01*
X9340714Y-14885476D01*
X9321667Y-14875952D01*
X9312143Y-14866428D01*
X9302619Y-14847381D01*
X9293095Y-14809286D01*
X9293095Y-14761667D01*
X9302619Y-14723571D01*
X9312143Y-14704524D01*
X9321667Y-14695000D01*
X9340714Y-14685476D01*
X9493095Y-14866428D02*
X9502619Y-14875952D01*
X9493095Y-14885476D01*
X9483571Y-14875952D01*
X9493095Y-14866428D01*
X9493095Y-14885476D01*
X9578810Y-14704524D02*
X9588333Y-14695000D01*
X9607381Y-14685476D01*
X9655000Y-14685476D01*
X9674048Y-14695000D01*
X9683571Y-14704524D01*
X9693095Y-14723571D01*
X9693095Y-14742619D01*
X9683571Y-14771190D01*
X9569286Y-14885476D01*
X9693095Y-14885476D01*
X9816905Y-14685476D02*
X9835952Y-14685476D01*
X9855000Y-14695000D01*
X9864524Y-14704524D01*
X9874048Y-14723571D01*
X9883571Y-14761667D01*
X9883571Y-14809286D01*
X9874048Y-14847381D01*
X9864524Y-14866428D01*
X9855000Y-14875952D01*
X9835952Y-14885476D01*
X9816905Y-14885476D01*
X9797857Y-14875952D01*
X9788333Y-14866428D01*
X9778810Y-14847381D01*
X9769286Y-14809286D01*
X9769286Y-14761667D01*
X9778810Y-14723571D01*
X9788333Y-14704524D01*
X9797857Y-14695000D01*
X9816905Y-14685476D01*
X10007381Y-14685476D02*
X10026429Y-14685476D01*
X10045476Y-14695000D01*
X10055000Y-14704524D01*
X10064524Y-14723571D01*
X10074048Y-14761667D01*
X10074048Y-14809286D01*
X10064524Y-14847381D01*
X10055000Y-14866428D01*
X10045476Y-14875952D01*
X10026429Y-14885476D01*
X10007381Y-14885476D01*
X9988333Y-14875952D01*
X9978810Y-14866428D01*
X9969286Y-14847381D01*
X9959762Y-14809286D01*
X9959762Y-14761667D01*
X9969286Y-14723571D01*
X9978810Y-14704524D01*
X9988333Y-14695000D01*
X10007381Y-14685476D01*
X10159762Y-14885476D02*
X10159762Y-14752143D01*
X10159762Y-14771190D02*
X10169286Y-14761667D01*
X10188333Y-14752143D01*
X10216905Y-14752143D01*
X10235952Y-14761667D01*
X10245476Y-14780714D01*
X10245476Y-14885476D01*
X10245476Y-14780714D02*
X10255000Y-14761667D01*
X10274048Y-14752143D01*
X10302619Y-14752143D01*
X10321667Y-14761667D01*
X10331190Y-14780714D01*
X10331190Y-14885476D01*
X10426429Y-14885476D02*
X10426429Y-14752143D01*
X10426429Y-14771190D02*
X10435952Y-14761667D01*
X10455000Y-14752143D01*
X10483571Y-14752143D01*
X10502619Y-14761667D01*
X10512143Y-14780714D01*
X10512143Y-14885476D01*
X10512143Y-14780714D02*
X10521667Y-14761667D01*
X10540714Y-14752143D01*
X10569286Y-14752143D01*
X10588333Y-14761667D01*
X10597857Y-14780714D01*
X10597857Y-14885476D01*
X10988333Y-14675952D02*
X10816905Y-14933095D01*
X11245476Y-14685476D02*
X11264524Y-14685476D01*
X11283571Y-14695000D01*
X11293095Y-14704524D01*
X11302619Y-14723571D01*
X11312143Y-14761667D01*
X11312143Y-14809286D01*
X11302619Y-14847381D01*
X11293095Y-14866428D01*
X11283571Y-14875952D01*
X11264524Y-14885476D01*
X11245476Y-14885476D01*
X11226428Y-14875952D01*
X11216905Y-14866428D01*
X11207381Y-14847381D01*
X11197857Y-14809286D01*
X11197857Y-14761667D01*
X11207381Y-14723571D01*
X11216905Y-14704524D01*
X11226428Y-14695000D01*
X11245476Y-14685476D01*
X11397857Y-14866428D02*
X11407381Y-14875952D01*
X11397857Y-14885476D01*
X11388333Y-14875952D01*
X11397857Y-14866428D01*
X11397857Y-14885476D01*
X11531190Y-14685476D02*
X11550238Y-14685476D01*
X11569286Y-14695000D01*
X11578809Y-14704524D01*
X11588333Y-14723571D01*
X11597857Y-14761667D01*
X11597857Y-14809286D01*
X11588333Y-14847381D01*
X11578809Y-14866428D01*
X11569286Y-14875952D01*
X11550238Y-14885476D01*
X11531190Y-14885476D01*
X11512143Y-14875952D01*
X11502619Y-14866428D01*
X11493095Y-14847381D01*
X11483571Y-14809286D01*
X11483571Y-14761667D01*
X11493095Y-14723571D01*
X11502619Y-14704524D01*
X11512143Y-14695000D01*
X11531190Y-14685476D01*
X11721667Y-14685476D02*
X11740714Y-14685476D01*
X11759762Y-14695000D01*
X11769286Y-14704524D01*
X11778809Y-14723571D01*
X11788333Y-14761667D01*
X11788333Y-14809286D01*
X11778809Y-14847381D01*
X11769286Y-14866428D01*
X11759762Y-14875952D01*
X11740714Y-14885476D01*
X11721667Y-14885476D01*
X11702619Y-14875952D01*
X11693095Y-14866428D01*
X11683571Y-14847381D01*
X11674048Y-14809286D01*
X11674048Y-14761667D01*
X11683571Y-14723571D01*
X11693095Y-14704524D01*
X11702619Y-14695000D01*
X11721667Y-14685476D01*
X11855000Y-14685476D02*
X11988333Y-14685476D01*
X11902619Y-14885476D01*
X12074048Y-14885476D02*
X12112143Y-14885476D01*
X12131190Y-14875952D01*
X12140714Y-14866428D01*
X12159762Y-14837857D01*
X12169286Y-14799762D01*
X12169286Y-14723571D01*
X12159762Y-14704524D01*
X12150238Y-14695000D01*
X12131190Y-14685476D01*
X12093095Y-14685476D01*
X12074048Y-14695000D01*
X12064524Y-14704524D01*
X12055000Y-14723571D01*
X12055000Y-14771190D01*
X12064524Y-14790238D01*
X12074048Y-14799762D01*
X12093095Y-14809286D01*
X12131190Y-14809286D01*
X12150238Y-14799762D01*
X12159762Y-14790238D01*
X12169286Y-14771190D01*
X12245476Y-14685476D02*
X12245476Y-14723571D01*
X12321667Y-14685476D02*
X12321667Y-14723571D01*
X12616905Y-14961667D02*
X12607381Y-14952143D01*
X12588333Y-14923571D01*
X12578809Y-14904524D01*
X12569286Y-14875952D01*
X12559762Y-14828333D01*
X12559762Y-14790238D01*
X12569286Y-14742619D01*
X12578809Y-14714048D01*
X12588333Y-14695000D01*
X12607381Y-14666428D01*
X12616905Y-14656905D01*
X12797857Y-14885476D02*
X12683571Y-14885476D01*
X12740714Y-14885476D02*
X12740714Y-14685476D01*
X12721667Y-14714048D01*
X12702619Y-14733095D01*
X12683571Y-14742619D01*
X12874048Y-14704524D02*
X12883571Y-14695000D01*
X12902619Y-14685476D01*
X12950238Y-14685476D01*
X12969286Y-14695000D01*
X12978809Y-14704524D01*
X12988333Y-14723571D01*
X12988333Y-14742619D01*
X12978809Y-14771190D01*
X12864524Y-14885476D01*
X12988333Y-14885476D01*
X13226428Y-14885476D02*
X13226428Y-14685476D01*
X13312143Y-14885476D02*
X13312143Y-14780714D01*
X13302619Y-14761667D01*
X13283571Y-14752143D01*
X13255000Y-14752143D01*
X13235952Y-14761667D01*
X13226428Y-14771190D01*
X13435952Y-14885476D02*
X13416905Y-14875952D01*
X13407381Y-14866428D01*
X13397857Y-14847381D01*
X13397857Y-14790238D01*
X13407381Y-14771190D01*
X13416905Y-14761667D01*
X13435952Y-14752143D01*
X13464524Y-14752143D01*
X13483571Y-14761667D01*
X13493095Y-14771190D01*
X13502619Y-14790238D01*
X13502619Y-14847381D01*
X13493095Y-14866428D01*
X13483571Y-14875952D01*
X13464524Y-14885476D01*
X13435952Y-14885476D01*
X13616905Y-14885476D02*
X13597857Y-14875952D01*
X13588333Y-14856905D01*
X13588333Y-14685476D01*
X13769286Y-14875952D02*
X13750238Y-14885476D01*
X13712143Y-14885476D01*
X13693095Y-14875952D01*
X13683571Y-14856905D01*
X13683571Y-14780714D01*
X13693095Y-14761667D01*
X13712143Y-14752143D01*
X13750238Y-14752143D01*
X13769286Y-14761667D01*
X13778809Y-14780714D01*
X13778809Y-14799762D01*
X13683571Y-14818809D01*
X13855000Y-14875952D02*
X13874048Y-14885476D01*
X13912143Y-14885476D01*
X13931190Y-14875952D01*
X13940714Y-14856905D01*
X13940714Y-14847381D01*
X13931190Y-14828333D01*
X13912143Y-14818809D01*
X13883571Y-14818809D01*
X13864524Y-14809286D01*
X13855000Y-14790238D01*
X13855000Y-14780714D01*
X13864524Y-14761667D01*
X13883571Y-14752143D01*
X13912143Y-14752143D01*
X13931190Y-14761667D01*
X14007381Y-14961667D02*
X14016905Y-14952143D01*
X14035952Y-14923571D01*
X14045476Y-14904524D01*
X14055000Y-14875952D01*
X14064524Y-14828333D01*
X14064524Y-14790238D01*
X14055000Y-14742619D01*
X14045476Y-14714048D01*
X14035952Y-14695000D01*
X14016905Y-14666428D01*
X14007381Y-14656905D01*
D13*
X9045000Y-15059000D02*
G75*
G03*
X9045000Y-15059000I-20000J0D01*
G01*
D11*
X9340714Y-14949476D02*
X9359762Y-14949476D01*
X9378810Y-14959000D01*
X9388333Y-14968524D01*
X9397857Y-14987571D01*
X9407381Y-15025667D01*
X9407381Y-15073286D01*
X9397857Y-15111381D01*
X9388333Y-15130428D01*
X9378810Y-15139952D01*
X9359762Y-15149476D01*
X9340714Y-15149476D01*
X9321667Y-15139952D01*
X9312143Y-15130428D01*
X9302619Y-15111381D01*
X9293095Y-15073286D01*
X9293095Y-15025667D01*
X9302619Y-14987571D01*
X9312143Y-14968524D01*
X9321667Y-14959000D01*
X9340714Y-14949476D01*
X9493095Y-15130428D02*
X9502619Y-15139952D01*
X9493095Y-15149476D01*
X9483571Y-15139952D01*
X9493095Y-15130428D01*
X9493095Y-15149476D01*
X9674048Y-15016143D02*
X9674048Y-15149476D01*
X9626429Y-14939952D02*
X9578810Y-15082809D01*
X9702619Y-15082809D01*
X9816905Y-14949476D02*
X9835952Y-14949476D01*
X9855000Y-14959000D01*
X9864524Y-14968524D01*
X9874048Y-14987571D01*
X9883571Y-15025667D01*
X9883571Y-15073286D01*
X9874048Y-15111381D01*
X9864524Y-15130428D01*
X9855000Y-15139952D01*
X9835952Y-15149476D01*
X9816905Y-15149476D01*
X9797857Y-15139952D01*
X9788333Y-15130428D01*
X9778810Y-15111381D01*
X9769286Y-15073286D01*
X9769286Y-15025667D01*
X9778810Y-14987571D01*
X9788333Y-14968524D01*
X9797857Y-14959000D01*
X9816905Y-14949476D01*
X10007381Y-14949476D02*
X10026429Y-14949476D01*
X10045476Y-14959000D01*
X10055000Y-14968524D01*
X10064524Y-14987571D01*
X10074048Y-15025667D01*
X10074048Y-15073286D01*
X10064524Y-15111381D01*
X10055000Y-15130428D01*
X10045476Y-15139952D01*
X10026429Y-15149476D01*
X10007381Y-15149476D01*
X9988333Y-15139952D01*
X9978810Y-15130428D01*
X9969286Y-15111381D01*
X9959762Y-15073286D01*
X9959762Y-15025667D01*
X9969286Y-14987571D01*
X9978810Y-14968524D01*
X9988333Y-14959000D01*
X10007381Y-14949476D01*
X10159762Y-15149476D02*
X10159762Y-15016143D01*
X10159762Y-15035190D02*
X10169286Y-15025667D01*
X10188333Y-15016143D01*
X10216905Y-15016143D01*
X10235952Y-15025667D01*
X10245476Y-15044714D01*
X10245476Y-15149476D01*
X10245476Y-15044714D02*
X10255000Y-15025667D01*
X10274048Y-15016143D01*
X10302619Y-15016143D01*
X10321667Y-15025667D01*
X10331190Y-15044714D01*
X10331190Y-15149476D01*
X10426429Y-15149476D02*
X10426429Y-15016143D01*
X10426429Y-15035190D02*
X10435952Y-15025667D01*
X10455000Y-15016143D01*
X10483571Y-15016143D01*
X10502619Y-15025667D01*
X10512143Y-15044714D01*
X10512143Y-15149476D01*
X10512143Y-15044714D02*
X10521667Y-15025667D01*
X10540714Y-15016143D01*
X10569286Y-15016143D01*
X10588333Y-15025667D01*
X10597857Y-15044714D01*
X10597857Y-15149476D01*
X10988333Y-14939952D02*
X10816905Y-15197095D01*
X11245476Y-14949476D02*
X11264524Y-14949476D01*
X11283571Y-14959000D01*
X11293095Y-14968524D01*
X11302619Y-14987571D01*
X11312143Y-15025667D01*
X11312143Y-15073286D01*
X11302619Y-15111381D01*
X11293095Y-15130428D01*
X11283571Y-15139952D01*
X11264524Y-15149476D01*
X11245476Y-15149476D01*
X11226428Y-15139952D01*
X11216905Y-15130428D01*
X11207381Y-15111381D01*
X11197857Y-15073286D01*
X11197857Y-15025667D01*
X11207381Y-14987571D01*
X11216905Y-14968524D01*
X11226428Y-14959000D01*
X11245476Y-14949476D01*
X11397857Y-15130428D02*
X11407381Y-15139952D01*
X11397857Y-15149476D01*
X11388333Y-15139952D01*
X11397857Y-15130428D01*
X11397857Y-15149476D01*
X11531190Y-14949476D02*
X11550238Y-14949476D01*
X11569286Y-14959000D01*
X11578809Y-14968524D01*
X11588333Y-14987571D01*
X11597857Y-15025667D01*
X11597857Y-15073286D01*
X11588333Y-15111381D01*
X11578809Y-15130428D01*
X11569286Y-15139952D01*
X11550238Y-15149476D01*
X11531190Y-15149476D01*
X11512143Y-15139952D01*
X11502619Y-15130428D01*
X11493095Y-15111381D01*
X11483571Y-15073286D01*
X11483571Y-15025667D01*
X11493095Y-14987571D01*
X11502619Y-14968524D01*
X11512143Y-14959000D01*
X11531190Y-14949476D01*
X11788333Y-15149476D02*
X11674048Y-15149476D01*
X11731190Y-15149476D02*
X11731190Y-14949476D01*
X11712143Y-14978048D01*
X11693095Y-14997095D01*
X11674048Y-15006619D01*
X11969286Y-14949476D02*
X11874048Y-14949476D01*
X11864524Y-15044714D01*
X11874048Y-15035190D01*
X11893095Y-15025667D01*
X11940714Y-15025667D01*
X11959762Y-15035190D01*
X11969286Y-15044714D01*
X11978809Y-15063762D01*
X11978809Y-15111381D01*
X11969286Y-15130428D01*
X11959762Y-15139952D01*
X11940714Y-15149476D01*
X11893095Y-15149476D01*
X11874048Y-15139952D01*
X11864524Y-15130428D01*
X12045476Y-14949476D02*
X12178809Y-14949476D01*
X12093095Y-15149476D01*
X12245476Y-14949476D02*
X12245476Y-14987571D01*
X12321667Y-14949476D02*
X12321667Y-14987571D01*
X12616905Y-15225667D02*
X12607381Y-15216143D01*
X12588333Y-15187571D01*
X12578809Y-15168524D01*
X12569286Y-15139952D01*
X12559762Y-15092333D01*
X12559762Y-15054238D01*
X12569286Y-15006619D01*
X12578809Y-14978048D01*
X12588333Y-14959000D01*
X12607381Y-14930428D01*
X12616905Y-14920905D01*
X12683571Y-14968524D02*
X12693095Y-14959000D01*
X12712143Y-14949476D01*
X12759762Y-14949476D01*
X12778809Y-14959000D01*
X12788333Y-14968524D01*
X12797857Y-14987571D01*
X12797857Y-15006619D01*
X12788333Y-15035190D01*
X12674048Y-15149476D01*
X12797857Y-15149476D01*
X12912143Y-15035190D02*
X12893095Y-15025667D01*
X12883571Y-15016143D01*
X12874048Y-14997095D01*
X12874048Y-14987571D01*
X12883571Y-14968524D01*
X12893095Y-14959000D01*
X12912143Y-14949476D01*
X12950238Y-14949476D01*
X12969286Y-14959000D01*
X12978809Y-14968524D01*
X12988333Y-14987571D01*
X12988333Y-14997095D01*
X12978809Y-15016143D01*
X12969286Y-15025667D01*
X12950238Y-15035190D01*
X12912143Y-15035190D01*
X12893095Y-15044714D01*
X12883571Y-15054238D01*
X12874048Y-15073286D01*
X12874048Y-15111381D01*
X12883571Y-15130428D01*
X12893095Y-15139952D01*
X12912143Y-15149476D01*
X12950238Y-15149476D01*
X12969286Y-15139952D01*
X12978809Y-15130428D01*
X12988333Y-15111381D01*
X12988333Y-15073286D01*
X12978809Y-15054238D01*
X12969286Y-15044714D01*
X12950238Y-15035190D01*
X13083571Y-15149476D02*
X13121667Y-15149476D01*
X13140714Y-15139952D01*
X13150238Y-15130428D01*
X13169286Y-15101857D01*
X13178809Y-15063762D01*
X13178809Y-14987571D01*
X13169286Y-14968524D01*
X13159762Y-14959000D01*
X13140714Y-14949476D01*
X13102619Y-14949476D01*
X13083571Y-14959000D01*
X13074048Y-14968524D01*
X13064524Y-14987571D01*
X13064524Y-15035190D01*
X13074048Y-15054238D01*
X13083571Y-15063762D01*
X13102619Y-15073286D01*
X13140714Y-15073286D01*
X13159762Y-15063762D01*
X13169286Y-15054238D01*
X13178809Y-15035190D01*
X13416905Y-15149476D02*
X13416905Y-14949476D01*
X13502619Y-15149476D02*
X13502619Y-15044714D01*
X13493095Y-15025667D01*
X13474048Y-15016143D01*
X13445476Y-15016143D01*
X13426428Y-15025667D01*
X13416905Y-15035190D01*
X13626428Y-15149476D02*
X13607381Y-15139952D01*
X13597857Y-15130428D01*
X13588333Y-15111381D01*
X13588333Y-15054238D01*
X13597857Y-15035190D01*
X13607381Y-15025667D01*
X13626428Y-15016143D01*
X13655000Y-15016143D01*
X13674048Y-15025667D01*
X13683571Y-15035190D01*
X13693095Y-15054238D01*
X13693095Y-15111381D01*
X13683571Y-15130428D01*
X13674048Y-15139952D01*
X13655000Y-15149476D01*
X13626428Y-15149476D01*
X13807381Y-15149476D02*
X13788333Y-15139952D01*
X13778809Y-15120905D01*
X13778809Y-14949476D01*
X13959762Y-15139952D02*
X13940714Y-15149476D01*
X13902619Y-15149476D01*
X13883571Y-15139952D01*
X13874048Y-15120905D01*
X13874048Y-15044714D01*
X13883571Y-15025667D01*
X13902619Y-15016143D01*
X13940714Y-15016143D01*
X13959762Y-15025667D01*
X13969286Y-15044714D01*
X13969286Y-15063762D01*
X13874048Y-15082809D01*
X14045476Y-15139952D02*
X14064524Y-15149476D01*
X14102619Y-15149476D01*
X14121667Y-15139952D01*
X14131190Y-15120905D01*
X14131190Y-15111381D01*
X14121667Y-15092333D01*
X14102619Y-15082809D01*
X14074048Y-15082809D01*
X14055000Y-15073286D01*
X14045476Y-15054238D01*
X14045476Y-15044714D01*
X14055000Y-15025667D01*
X14074048Y-15016143D01*
X14102619Y-15016143D01*
X14121667Y-15025667D01*
X14197857Y-15225667D02*
X14207381Y-15216143D01*
X14226428Y-15187571D01*
X14235952Y-15168524D01*
X14245476Y-15139952D01*
X14255000Y-15092333D01*
X14255000Y-15054238D01*
X14245476Y-15006619D01*
X14235952Y-14978048D01*
X14226428Y-14959000D01*
X14207381Y-14930428D01*
X14197857Y-14920905D01*
D14*
X9015000Y-15293000D02*
X9015000Y-15353000D01*
X8985000Y-15323000D02*
X9045000Y-15323000D01*
D11*
X9340714Y-15213476D02*
X9359762Y-15213476D01*
X9378810Y-15223000D01*
X9388333Y-15232524D01*
X9397857Y-15251571D01*
X9407381Y-15289667D01*
X9407381Y-15337286D01*
X9397857Y-15375381D01*
X9388333Y-15394428D01*
X9378810Y-15403952D01*
X9359762Y-15413476D01*
X9340714Y-15413476D01*
X9321667Y-15403952D01*
X9312143Y-15394428D01*
X9302619Y-15375381D01*
X9293095Y-15337286D01*
X9293095Y-15289667D01*
X9302619Y-15251571D01*
X9312143Y-15232524D01*
X9321667Y-15223000D01*
X9340714Y-15213476D01*
X9493095Y-15394428D02*
X9502619Y-15403952D01*
X9493095Y-15413476D01*
X9483571Y-15403952D01*
X9493095Y-15394428D01*
X9493095Y-15413476D01*
X9674048Y-15213476D02*
X9635952Y-15213476D01*
X9616905Y-15223000D01*
X9607381Y-15232524D01*
X9588333Y-15261095D01*
X9578810Y-15299190D01*
X9578810Y-15375381D01*
X9588333Y-15394428D01*
X9597857Y-15403952D01*
X9616905Y-15413476D01*
X9655000Y-15413476D01*
X9674048Y-15403952D01*
X9683571Y-15394428D01*
X9693095Y-15375381D01*
X9693095Y-15327762D01*
X9683571Y-15308714D01*
X9674048Y-15299190D01*
X9655000Y-15289667D01*
X9616905Y-15289667D01*
X9597857Y-15299190D01*
X9588333Y-15308714D01*
X9578810Y-15327762D01*
X9816905Y-15213476D02*
X9835952Y-15213476D01*
X9855000Y-15223000D01*
X9864524Y-15232524D01*
X9874048Y-15251571D01*
X9883571Y-15289667D01*
X9883571Y-15337286D01*
X9874048Y-15375381D01*
X9864524Y-15394428D01*
X9855000Y-15403952D01*
X9835952Y-15413476D01*
X9816905Y-15413476D01*
X9797857Y-15403952D01*
X9788333Y-15394428D01*
X9778810Y-15375381D01*
X9769286Y-15337286D01*
X9769286Y-15289667D01*
X9778810Y-15251571D01*
X9788333Y-15232524D01*
X9797857Y-15223000D01*
X9816905Y-15213476D01*
X10007381Y-15213476D02*
X10026429Y-15213476D01*
X10045476Y-15223000D01*
X10055000Y-15232524D01*
X10064524Y-15251571D01*
X10074048Y-15289667D01*
X10074048Y-15337286D01*
X10064524Y-15375381D01*
X10055000Y-15394428D01*
X10045476Y-15403952D01*
X10026429Y-15413476D01*
X10007381Y-15413476D01*
X9988333Y-15403952D01*
X9978810Y-15394428D01*
X9969286Y-15375381D01*
X9959762Y-15337286D01*
X9959762Y-15289667D01*
X9969286Y-15251571D01*
X9978810Y-15232524D01*
X9988333Y-15223000D01*
X10007381Y-15213476D01*
X10159762Y-15413476D02*
X10159762Y-15280143D01*
X10159762Y-15299190D02*
X10169286Y-15289667D01*
X10188333Y-15280143D01*
X10216905Y-15280143D01*
X10235952Y-15289667D01*
X10245476Y-15308714D01*
X10245476Y-15413476D01*
X10245476Y-15308714D02*
X10255000Y-15289667D01*
X10274048Y-15280143D01*
X10302619Y-15280143D01*
X10321667Y-15289667D01*
X10331190Y-15308714D01*
X10331190Y-15413476D01*
X10426429Y-15413476D02*
X10426429Y-15280143D01*
X10426429Y-15299190D02*
X10435952Y-15289667D01*
X10455000Y-15280143D01*
X10483571Y-15280143D01*
X10502619Y-15289667D01*
X10512143Y-15308714D01*
X10512143Y-15413476D01*
X10512143Y-15308714D02*
X10521667Y-15289667D01*
X10540714Y-15280143D01*
X10569286Y-15280143D01*
X10588333Y-15289667D01*
X10597857Y-15308714D01*
X10597857Y-15413476D01*
X10988333Y-15203952D02*
X10816905Y-15461095D01*
X11245476Y-15213476D02*
X11264524Y-15213476D01*
X11283571Y-15223000D01*
X11293095Y-15232524D01*
X11302619Y-15251571D01*
X11312143Y-15289667D01*
X11312143Y-15337286D01*
X11302619Y-15375381D01*
X11293095Y-15394428D01*
X11283571Y-15403952D01*
X11264524Y-15413476D01*
X11245476Y-15413476D01*
X11226428Y-15403952D01*
X11216905Y-15394428D01*
X11207381Y-15375381D01*
X11197857Y-15337286D01*
X11197857Y-15289667D01*
X11207381Y-15251571D01*
X11216905Y-15232524D01*
X11226428Y-15223000D01*
X11245476Y-15213476D01*
X11397857Y-15394428D02*
X11407381Y-15403952D01*
X11397857Y-15413476D01*
X11388333Y-15403952D01*
X11397857Y-15394428D01*
X11397857Y-15413476D01*
X11531190Y-15213476D02*
X11550238Y-15213476D01*
X11569286Y-15223000D01*
X11578809Y-15232524D01*
X11588333Y-15251571D01*
X11597857Y-15289667D01*
X11597857Y-15337286D01*
X11588333Y-15375381D01*
X11578809Y-15394428D01*
X11569286Y-15403952D01*
X11550238Y-15413476D01*
X11531190Y-15413476D01*
X11512143Y-15403952D01*
X11502619Y-15394428D01*
X11493095Y-15375381D01*
X11483571Y-15337286D01*
X11483571Y-15289667D01*
X11493095Y-15251571D01*
X11502619Y-15232524D01*
X11512143Y-15223000D01*
X11531190Y-15213476D01*
X11674048Y-15232524D02*
X11683571Y-15223000D01*
X11702619Y-15213476D01*
X11750238Y-15213476D01*
X11769286Y-15223000D01*
X11778809Y-15232524D01*
X11788333Y-15251571D01*
X11788333Y-15270619D01*
X11778809Y-15299190D01*
X11664524Y-15413476D01*
X11788333Y-15413476D01*
X11855000Y-15213476D02*
X11978809Y-15213476D01*
X11912143Y-15289667D01*
X11940714Y-15289667D01*
X11959762Y-15299190D01*
X11969286Y-15308714D01*
X11978809Y-15327762D01*
X11978809Y-15375381D01*
X11969286Y-15394428D01*
X11959762Y-15403952D01*
X11940714Y-15413476D01*
X11883571Y-15413476D01*
X11864524Y-15403952D01*
X11855000Y-15394428D01*
X12150238Y-15213476D02*
X12112143Y-15213476D01*
X12093095Y-15223000D01*
X12083571Y-15232524D01*
X12064524Y-15261095D01*
X12055000Y-15299190D01*
X12055000Y-15375381D01*
X12064524Y-15394428D01*
X12074048Y-15403952D01*
X12093095Y-15413476D01*
X12131190Y-15413476D01*
X12150238Y-15403952D01*
X12159762Y-15394428D01*
X12169286Y-15375381D01*
X12169286Y-15327762D01*
X12159762Y-15308714D01*
X12150238Y-15299190D01*
X12131190Y-15289667D01*
X12093095Y-15289667D01*
X12074048Y-15299190D01*
X12064524Y-15308714D01*
X12055000Y-15327762D01*
X12245476Y-15213476D02*
X12245476Y-15251571D01*
X12321667Y-15213476D02*
X12321667Y-15251571D01*
X12616905Y-15489667D02*
X12607381Y-15480143D01*
X12588333Y-15451571D01*
X12578809Y-15432524D01*
X12569286Y-15403952D01*
X12559762Y-15356333D01*
X12559762Y-15318238D01*
X12569286Y-15270619D01*
X12578809Y-15242048D01*
X12588333Y-15223000D01*
X12607381Y-15194428D01*
X12616905Y-15184905D01*
X12731190Y-15213476D02*
X12750238Y-15213476D01*
X12769286Y-15223000D01*
X12778809Y-15232524D01*
X12788333Y-15251571D01*
X12797857Y-15289667D01*
X12797857Y-15337286D01*
X12788333Y-15375381D01*
X12778809Y-15394428D01*
X12769286Y-15403952D01*
X12750238Y-15413476D01*
X12731190Y-15413476D01*
X12712143Y-15403952D01*
X12702619Y-15394428D01*
X12693095Y-15375381D01*
X12683571Y-15337286D01*
X12683571Y-15289667D01*
X12693095Y-15251571D01*
X12702619Y-15232524D01*
X12712143Y-15223000D01*
X12731190Y-15213476D01*
X13035952Y-15413476D02*
X13035952Y-15213476D01*
X13121667Y-15413476D02*
X13121667Y-15308714D01*
X13112143Y-15289667D01*
X13093095Y-15280143D01*
X13064524Y-15280143D01*
X13045476Y-15289667D01*
X13035952Y-15299190D01*
X13245476Y-15413476D02*
X13226428Y-15403952D01*
X13216905Y-15394428D01*
X13207381Y-15375381D01*
X13207381Y-15318238D01*
X13216905Y-15299190D01*
X13226428Y-15289667D01*
X13245476Y-15280143D01*
X13274048Y-15280143D01*
X13293095Y-15289667D01*
X13302619Y-15299190D01*
X13312143Y-15318238D01*
X13312143Y-15375381D01*
X13302619Y-15394428D01*
X13293095Y-15403952D01*
X13274048Y-15413476D01*
X13245476Y-15413476D01*
X13426428Y-15413476D02*
X13407381Y-15403952D01*
X13397857Y-15384905D01*
X13397857Y-15213476D01*
X13578809Y-15403952D02*
X13559762Y-15413476D01*
X13521667Y-15413476D01*
X13502619Y-15403952D01*
X13493095Y-15384905D01*
X13493095Y-15308714D01*
X13502619Y-15289667D01*
X13521667Y-15280143D01*
X13559762Y-15280143D01*
X13578809Y-15289667D01*
X13588333Y-15308714D01*
X13588333Y-15327762D01*
X13493095Y-15346809D01*
X13664524Y-15403952D02*
X13683571Y-15413476D01*
X13721667Y-15413476D01*
X13740714Y-15403952D01*
X13750238Y-15384905D01*
X13750238Y-15375381D01*
X13740714Y-15356333D01*
X13721667Y-15346809D01*
X13693095Y-15346809D01*
X13674048Y-15337286D01*
X13664524Y-15318238D01*
X13664524Y-15308714D01*
X13674048Y-15289667D01*
X13693095Y-15280143D01*
X13721667Y-15280143D01*
X13740714Y-15289667D01*
X13988333Y-15337286D02*
X14140714Y-15337286D01*
X14064524Y-15413476D02*
X14064524Y-15261095D01*
X14474048Y-15280143D02*
X14474048Y-15413476D01*
X14426428Y-15203952D02*
X14378809Y-15346809D01*
X14502619Y-15346809D01*
X14721667Y-15403952D02*
X14740714Y-15413476D01*
X14778809Y-15413476D01*
X14797857Y-15403952D01*
X14807381Y-15384905D01*
X14807381Y-15375381D01*
X14797857Y-15356333D01*
X14778809Y-15346809D01*
X14750238Y-15346809D01*
X14731190Y-15337286D01*
X14721667Y-15318238D01*
X14721667Y-15308714D01*
X14731190Y-15289667D01*
X14750238Y-15280143D01*
X14778809Y-15280143D01*
X14797857Y-15289667D01*
X14921667Y-15413476D02*
X14902619Y-15403952D01*
X14893095Y-15384905D01*
X14893095Y-15213476D01*
X15026428Y-15413476D02*
X15007381Y-15403952D01*
X14997857Y-15394428D01*
X14988333Y-15375381D01*
X14988333Y-15318238D01*
X14997857Y-15299190D01*
X15007381Y-15289667D01*
X15026428Y-15280143D01*
X15055000Y-15280143D01*
X15074048Y-15289667D01*
X15083571Y-15299190D01*
X15093095Y-15318238D01*
X15093095Y-15375381D01*
X15083571Y-15394428D01*
X15074048Y-15403952D01*
X15055000Y-15413476D01*
X15026428Y-15413476D01*
X15150238Y-15280143D02*
X15226428Y-15280143D01*
X15178809Y-15213476D02*
X15178809Y-15384905D01*
X15188333Y-15403952D01*
X15207381Y-15413476D01*
X15226428Y-15413476D01*
X15283571Y-15403952D02*
X15302619Y-15413476D01*
X15340714Y-15413476D01*
X15359762Y-15403952D01*
X15369286Y-15384905D01*
X15369286Y-15375381D01*
X15359762Y-15356333D01*
X15340714Y-15346809D01*
X15312143Y-15346809D01*
X15293095Y-15337286D01*
X15283571Y-15318238D01*
X15283571Y-15308714D01*
X15293095Y-15289667D01*
X15312143Y-15280143D01*
X15340714Y-15280143D01*
X15359762Y-15289667D01*
X15435952Y-15489667D02*
X15445476Y-15480143D01*
X15464524Y-15451571D01*
X15474048Y-15432524D01*
X15483571Y-15403952D01*
X15493095Y-15356333D01*
X15493095Y-15318238D01*
X15483571Y-15270619D01*
X15474048Y-15242048D01*
X15464524Y-15223000D01*
X15445476Y-15194428D01*
X15435952Y-15184905D01*
D10*
X9030356Y-15622356D02*
X9030356Y-15551644D01*
X8959644Y-15551644D01*
X8959644Y-15622356D01*
X9030356Y-15622356D01*
D11*
X9407381Y-15677476D02*
X9293095Y-15677476D01*
X9350238Y-15677476D02*
X9350238Y-15477476D01*
X9331190Y-15506048D01*
X9312143Y-15525095D01*
X9293095Y-15534619D01*
X9493095Y-15658428D02*
X9502619Y-15667952D01*
X9493095Y-15677476D01*
X9483571Y-15667952D01*
X9493095Y-15658428D01*
X9493095Y-15677476D01*
X9626429Y-15477476D02*
X9645476Y-15477476D01*
X9664524Y-15487000D01*
X9674048Y-15496524D01*
X9683571Y-15515571D01*
X9693095Y-15553667D01*
X9693095Y-15601286D01*
X9683571Y-15639381D01*
X9674048Y-15658428D01*
X9664524Y-15667952D01*
X9645476Y-15677476D01*
X9626429Y-15677476D01*
X9607381Y-15667952D01*
X9597857Y-15658428D01*
X9588333Y-15639381D01*
X9578810Y-15601286D01*
X9578810Y-15553667D01*
X9588333Y-15515571D01*
X9597857Y-15496524D01*
X9607381Y-15487000D01*
X9626429Y-15477476D01*
X9816905Y-15477476D02*
X9835952Y-15477476D01*
X9855000Y-15487000D01*
X9864524Y-15496524D01*
X9874048Y-15515571D01*
X9883571Y-15553667D01*
X9883571Y-15601286D01*
X9874048Y-15639381D01*
X9864524Y-15658428D01*
X9855000Y-15667952D01*
X9835952Y-15677476D01*
X9816905Y-15677476D01*
X9797857Y-15667952D01*
X9788333Y-15658428D01*
X9778810Y-15639381D01*
X9769286Y-15601286D01*
X9769286Y-15553667D01*
X9778810Y-15515571D01*
X9788333Y-15496524D01*
X9797857Y-15487000D01*
X9816905Y-15477476D01*
X10007381Y-15477476D02*
X10026429Y-15477476D01*
X10045476Y-15487000D01*
X10055000Y-15496524D01*
X10064524Y-15515571D01*
X10074048Y-15553667D01*
X10074048Y-15601286D01*
X10064524Y-15639381D01*
X10055000Y-15658428D01*
X10045476Y-15667952D01*
X10026429Y-15677476D01*
X10007381Y-15677476D01*
X9988333Y-15667952D01*
X9978810Y-15658428D01*
X9969286Y-15639381D01*
X9959762Y-15601286D01*
X9959762Y-15553667D01*
X9969286Y-15515571D01*
X9978810Y-15496524D01*
X9988333Y-15487000D01*
X10007381Y-15477476D01*
X10159762Y-15677476D02*
X10159762Y-15544143D01*
X10159762Y-15563190D02*
X10169286Y-15553667D01*
X10188333Y-15544143D01*
X10216905Y-15544143D01*
X10235952Y-15553667D01*
X10245476Y-15572714D01*
X10245476Y-15677476D01*
X10245476Y-15572714D02*
X10255000Y-15553667D01*
X10274048Y-15544143D01*
X10302619Y-15544143D01*
X10321667Y-15553667D01*
X10331190Y-15572714D01*
X10331190Y-15677476D01*
X10426429Y-15677476D02*
X10426429Y-15544143D01*
X10426429Y-15563190D02*
X10435952Y-15553667D01*
X10455000Y-15544143D01*
X10483571Y-15544143D01*
X10502619Y-15553667D01*
X10512143Y-15572714D01*
X10512143Y-15677476D01*
X10512143Y-15572714D02*
X10521667Y-15553667D01*
X10540714Y-15544143D01*
X10569286Y-15544143D01*
X10588333Y-15553667D01*
X10597857Y-15572714D01*
X10597857Y-15677476D01*
X10988333Y-15467952D02*
X10816905Y-15725095D01*
X11245476Y-15477476D02*
X11264524Y-15477476D01*
X11283571Y-15487000D01*
X11293095Y-15496524D01*
X11302619Y-15515571D01*
X11312143Y-15553667D01*
X11312143Y-15601286D01*
X11302619Y-15639381D01*
X11293095Y-15658428D01*
X11283571Y-15667952D01*
X11264524Y-15677476D01*
X11245476Y-15677476D01*
X11226428Y-15667952D01*
X11216905Y-15658428D01*
X11207381Y-15639381D01*
X11197857Y-15601286D01*
X11197857Y-15553667D01*
X11207381Y-15515571D01*
X11216905Y-15496524D01*
X11226428Y-15487000D01*
X11245476Y-15477476D01*
X11397857Y-15658428D02*
X11407381Y-15667952D01*
X11397857Y-15677476D01*
X11388333Y-15667952D01*
X11397857Y-15658428D01*
X11397857Y-15677476D01*
X11531190Y-15477476D02*
X11550238Y-15477476D01*
X11569286Y-15487000D01*
X11578809Y-15496524D01*
X11588333Y-15515571D01*
X11597857Y-15553667D01*
X11597857Y-15601286D01*
X11588333Y-15639381D01*
X11578809Y-15658428D01*
X11569286Y-15667952D01*
X11550238Y-15677476D01*
X11531190Y-15677476D01*
X11512143Y-15667952D01*
X11502619Y-15658428D01*
X11493095Y-15639381D01*
X11483571Y-15601286D01*
X11483571Y-15553667D01*
X11493095Y-15515571D01*
X11502619Y-15496524D01*
X11512143Y-15487000D01*
X11531190Y-15477476D01*
X11664524Y-15477476D02*
X11788333Y-15477476D01*
X11721667Y-15553667D01*
X11750238Y-15553667D01*
X11769286Y-15563190D01*
X11778809Y-15572714D01*
X11788333Y-15591762D01*
X11788333Y-15639381D01*
X11778809Y-15658428D01*
X11769286Y-15667952D01*
X11750238Y-15677476D01*
X11693095Y-15677476D01*
X11674048Y-15667952D01*
X11664524Y-15658428D01*
X11883571Y-15677476D02*
X11921667Y-15677476D01*
X11940714Y-15667952D01*
X11950238Y-15658428D01*
X11969286Y-15629857D01*
X11978809Y-15591762D01*
X11978809Y-15515571D01*
X11969286Y-15496524D01*
X11959762Y-15487000D01*
X11940714Y-15477476D01*
X11902619Y-15477476D01*
X11883571Y-15487000D01*
X11874048Y-15496524D01*
X11864524Y-15515571D01*
X11864524Y-15563190D01*
X11874048Y-15582238D01*
X11883571Y-15591762D01*
X11902619Y-15601286D01*
X11940714Y-15601286D01*
X11959762Y-15591762D01*
X11969286Y-15582238D01*
X11978809Y-15563190D01*
X12150238Y-15544143D02*
X12150238Y-15677476D01*
X12102619Y-15467952D02*
X12055000Y-15610809D01*
X12178809Y-15610809D01*
X12245476Y-15477476D02*
X12245476Y-15515571D01*
X12321667Y-15477476D02*
X12321667Y-15515571D01*
X12616905Y-15753667D02*
X12607381Y-15744143D01*
X12588333Y-15715571D01*
X12578809Y-15696524D01*
X12569286Y-15667952D01*
X12559762Y-15620333D01*
X12559762Y-15582238D01*
X12569286Y-15534619D01*
X12578809Y-15506048D01*
X12588333Y-15487000D01*
X12607381Y-15458428D01*
X12616905Y-15448905D01*
X12797857Y-15677476D02*
X12683571Y-15677476D01*
X12740714Y-15677476D02*
X12740714Y-15477476D01*
X12721667Y-15506048D01*
X12702619Y-15525095D01*
X12683571Y-15534619D01*
X12912143Y-15563190D02*
X12893095Y-15553667D01*
X12883571Y-15544143D01*
X12874048Y-15525095D01*
X12874048Y-15515571D01*
X12883571Y-15496524D01*
X12893095Y-15487000D01*
X12912143Y-15477476D01*
X12950238Y-15477476D01*
X12969286Y-15487000D01*
X12978809Y-15496524D01*
X12988333Y-15515571D01*
X12988333Y-15525095D01*
X12978809Y-15544143D01*
X12969286Y-15553667D01*
X12950238Y-15563190D01*
X12912143Y-15563190D01*
X12893095Y-15572714D01*
X12883571Y-15582238D01*
X12874048Y-15601286D01*
X12874048Y-15639381D01*
X12883571Y-15658428D01*
X12893095Y-15667952D01*
X12912143Y-15677476D01*
X12950238Y-15677476D01*
X12969286Y-15667952D01*
X12978809Y-15658428D01*
X12988333Y-15639381D01*
X12988333Y-15601286D01*
X12978809Y-15582238D01*
X12969286Y-15572714D01*
X12950238Y-15563190D01*
X13226428Y-15677476D02*
X13226428Y-15477476D01*
X13312143Y-15677476D02*
X13312143Y-15572714D01*
X13302619Y-15553667D01*
X13283571Y-15544143D01*
X13255000Y-15544143D01*
X13235952Y-15553667D01*
X13226428Y-15563190D01*
X13435952Y-15677476D02*
X13416905Y-15667952D01*
X13407381Y-15658428D01*
X13397857Y-15639381D01*
X13397857Y-15582238D01*
X13407381Y-15563190D01*
X13416905Y-15553667D01*
X13435952Y-15544143D01*
X13464524Y-15544143D01*
X13483571Y-15553667D01*
X13493095Y-15563190D01*
X13502619Y-15582238D01*
X13502619Y-15639381D01*
X13493095Y-15658428D01*
X13483571Y-15667952D01*
X13464524Y-15677476D01*
X13435952Y-15677476D01*
X13616905Y-15677476D02*
X13597857Y-15667952D01*
X13588333Y-15648905D01*
X13588333Y-15477476D01*
X13769286Y-15667952D02*
X13750238Y-15677476D01*
X13712143Y-15677476D01*
X13693095Y-15667952D01*
X13683571Y-15648905D01*
X13683571Y-15572714D01*
X13693095Y-15553667D01*
X13712143Y-15544143D01*
X13750238Y-15544143D01*
X13769286Y-15553667D01*
X13778809Y-15572714D01*
X13778809Y-15591762D01*
X13683571Y-15610809D01*
X13855000Y-15667952D02*
X13874048Y-15677476D01*
X13912143Y-15677476D01*
X13931190Y-15667952D01*
X13940714Y-15648905D01*
X13940714Y-15639381D01*
X13931190Y-15620333D01*
X13912143Y-15610809D01*
X13883571Y-15610809D01*
X13864524Y-15601286D01*
X13855000Y-15582238D01*
X13855000Y-15572714D01*
X13864524Y-15553667D01*
X13883571Y-15544143D01*
X13912143Y-15544143D01*
X13931190Y-15553667D01*
X14007381Y-15753667D02*
X14016905Y-15744143D01*
X14035952Y-15715571D01*
X14045476Y-15696524D01*
X14055000Y-15667952D01*
X14064524Y-15620333D01*
X14064524Y-15582238D01*
X14055000Y-15534619D01*
X14045476Y-15506048D01*
X14035952Y-15487000D01*
X14016905Y-15458428D01*
X14007381Y-15448905D01*
M02*
