G04 #@! TF.GenerationSoftware,KiCad,Pcbnew,(6.0.10-0)*
G04 #@! TF.CreationDate,2023-01-31T00:07:50+01:00*
G04 #@! TF.ProjectId,breast-module-proto-v1,62726561-7374-42d6-9d6f-64756c652d70,Proto V1*
G04 #@! TF.SameCoordinates,Original*
G04 #@! TF.FileFunction,Paste,Top*
G04 #@! TF.FilePolarity,Positive*
%FSLAX46Y46*%
G04 Gerber Fmt 4.6, Leading zero omitted, Abs format (unit mm)*
G04 Created by KiCad (PCBNEW (6.0.10-0)) date 2023-01-31 00:07:50*
%MOMM*%
%LPD*%
G01*
G04 APERTURE LIST*
G04 Aperture macros list*
%AMRoundRect*
0 Rectangle with rounded corners*
0 $1 Rounding radius*
0 $2 $3 $4 $5 $6 $7 $8 $9 X,Y pos of 4 corners*
0 Add a 4 corners polygon primitive as box body*
4,1,4,$2,$3,$4,$5,$6,$7,$8,$9,$2,$3,0*
0 Add four circle primitives for the rounded corners*
1,1,$1+$1,$2,$3*
1,1,$1+$1,$4,$5*
1,1,$1+$1,$6,$7*
1,1,$1+$1,$8,$9*
0 Add four rect primitives between the rounded corners*
20,1,$1+$1,$2,$3,$4,$5,0*
20,1,$1+$1,$4,$5,$6,$7,0*
20,1,$1+$1,$6,$7,$8,$9,0*
20,1,$1+$1,$8,$9,$2,$3,0*%
G04 Aperture macros list end*
%ADD10C,0.010000*%
%ADD11RoundRect,0.225000X0.250000X-0.225000X0.250000X0.225000X-0.250000X0.225000X-0.250000X-0.225000X0*%
%ADD12RoundRect,0.225000X-0.250000X0.225000X-0.250000X-0.225000X0.250000X-0.225000X0.250000X0.225000X0*%
%ADD13RoundRect,0.100000X-0.637500X-0.100000X0.637500X-0.100000X0.637500X0.100000X-0.637500X0.100000X0*%
%ADD14RoundRect,0.218750X0.256250X-0.218750X0.256250X0.218750X-0.256250X0.218750X-0.256250X-0.218750X0*%
%ADD15RoundRect,0.250000X0.250000X0.475000X-0.250000X0.475000X-0.250000X-0.475000X0.250000X-0.475000X0*%
%ADD16R,1.500000X0.900000*%
%ADD17RoundRect,0.150000X-0.825000X-0.150000X0.825000X-0.150000X0.825000X0.150000X-0.825000X0.150000X0*%
%ADD18RoundRect,0.250000X-0.475000X0.250000X-0.475000X-0.250000X0.475000X-0.250000X0.475000X0.250000X0*%
%ADD19R,1.550000X1.300000*%
%ADD20RoundRect,0.200000X-0.275000X0.200000X-0.275000X-0.200000X0.275000X-0.200000X0.275000X0.200000X0*%
%ADD21R,2.000000X1.500000*%
%ADD22R,2.000000X3.800000*%
%ADD23R,0.900000X1.500000*%
%ADD24R,1.050000X1.050000*%
%ADD25RoundRect,0.225000X-0.225000X-0.250000X0.225000X-0.250000X0.225000X0.250000X-0.225000X0.250000X0*%
%ADD26RoundRect,0.200000X0.275000X-0.200000X0.275000X0.200000X-0.275000X0.200000X-0.275000X-0.200000X0*%
%ADD27RoundRect,0.230000X-0.230000X-0.375000X0.230000X-0.375000X0.230000X0.375000X-0.230000X0.375000X0*%
%ADD28RoundRect,0.187500X0.187500X-0.937500X0.187500X0.937500X-0.187500X0.937500X-0.187500X-0.937500X0*%
%ADD29RoundRect,0.225000X0.225000X0.250000X-0.225000X0.250000X-0.225000X-0.250000X0.225000X-0.250000X0*%
%ADD30RoundRect,0.150000X-0.587500X-0.150000X0.587500X-0.150000X0.587500X0.150000X-0.587500X0.150000X0*%
%ADD31R,2.500000X1.900000*%
%ADD32R,1.450000X0.600000*%
%ADD33R,1.450000X0.300000*%
%ADD34RoundRect,0.250000X-0.650000X0.325000X-0.650000X-0.325000X0.650000X-0.325000X0.650000X0.325000X0*%
%ADD35RoundRect,0.200000X-0.200000X-0.275000X0.200000X-0.275000X0.200000X0.275000X-0.200000X0.275000X0*%
%ADD36RoundRect,0.200000X0.200000X0.275000X-0.200000X0.275000X-0.200000X-0.275000X0.200000X-0.275000X0*%
%ADD37RoundRect,0.250000X0.650000X-0.325000X0.650000X0.325000X-0.650000X0.325000X-0.650000X-0.325000X0*%
%ADD38RoundRect,0.225000X0.225000X0.225000X-0.225000X0.225000X-0.225000X-0.225000X0.225000X-0.225000X0*%
%ADD39RoundRect,0.062500X0.337500X0.062500X-0.337500X0.062500X-0.337500X-0.062500X0.337500X-0.062500X0*%
%ADD40RoundRect,0.062500X0.062500X0.337500X-0.062500X0.337500X-0.062500X-0.337500X0.062500X-0.337500X0*%
%ADD41RoundRect,0.150000X0.512500X0.150000X-0.512500X0.150000X-0.512500X-0.150000X0.512500X-0.150000X0*%
%ADD42RoundRect,0.150000X0.825000X0.150000X-0.825000X0.150000X-0.825000X-0.150000X0.825000X-0.150000X0*%
%ADD43RoundRect,0.100000X0.637500X0.100000X-0.637500X0.100000X-0.637500X-0.100000X0.637500X-0.100000X0*%
%ADD44RoundRect,0.030000X-0.270000X0.095000X-0.270000X-0.095000X0.270000X-0.095000X0.270000X0.095000X0*%
%ADD45RoundRect,0.150000X-0.512500X-0.150000X0.512500X-0.150000X0.512500X0.150000X-0.512500X0.150000X0*%
G04 APERTURE END LIST*
G36*
X140818000Y-128310999D02*
G01*
X140820000Y-128310999D01*
X140823000Y-128311999D01*
X140825000Y-128311999D01*
X140828000Y-128312999D01*
X140830000Y-128313999D01*
X140833000Y-128314999D01*
X140835000Y-128316999D01*
X140837000Y-128317999D01*
X140839000Y-128319999D01*
X140841000Y-128320999D01*
X140849000Y-128328999D01*
X140850000Y-128330999D01*
X140852000Y-128332999D01*
X140853000Y-128334999D01*
X140855000Y-128336999D01*
X140856000Y-128339999D01*
X140857000Y-128341999D01*
X140858000Y-128344999D01*
X140858000Y-128346999D01*
X140859000Y-128349999D01*
X140859000Y-128351999D01*
X140860000Y-128354999D01*
X140860000Y-128924999D01*
X140859000Y-128927999D01*
X140859000Y-128929999D01*
X140858000Y-128932999D01*
X140858000Y-128934999D01*
X140857000Y-128937999D01*
X140856000Y-128939999D01*
X140855000Y-128942999D01*
X140853000Y-128944999D01*
X140852000Y-128946999D01*
X140850000Y-128948999D01*
X140849000Y-128950999D01*
X140841000Y-128958999D01*
X140839000Y-128959999D01*
X140837000Y-128961999D01*
X140835000Y-128962999D01*
X140833000Y-128964999D01*
X140830000Y-128965999D01*
X140828000Y-128966999D01*
X140825000Y-128967999D01*
X140823000Y-128967999D01*
X140820000Y-128968999D01*
X140818000Y-128968999D01*
X140815000Y-128969999D01*
X140655000Y-128969999D01*
X140652000Y-128968999D01*
X140650000Y-128968999D01*
X140647000Y-128967999D01*
X140645000Y-128967999D01*
X140642000Y-128966999D01*
X140640000Y-128965999D01*
X140637000Y-128964999D01*
X140635000Y-128962999D01*
X140633000Y-128961999D01*
X140631000Y-128959999D01*
X140629000Y-128958999D01*
X140621000Y-128950999D01*
X140620000Y-128948999D01*
X140618000Y-128946999D01*
X140617000Y-128944999D01*
X140615000Y-128942999D01*
X140614000Y-128939999D01*
X140613000Y-128937999D01*
X140612000Y-128934999D01*
X140612000Y-128932999D01*
X140611000Y-128929999D01*
X140611000Y-128927999D01*
X140610000Y-128924999D01*
X140610000Y-128354999D01*
X140611000Y-128351999D01*
X140611000Y-128349999D01*
X140612000Y-128346999D01*
X140612000Y-128344999D01*
X140613000Y-128341999D01*
X140614000Y-128339999D01*
X140615000Y-128336999D01*
X140617000Y-128334999D01*
X140618000Y-128332999D01*
X140620000Y-128330999D01*
X140621000Y-128328999D01*
X140629000Y-128320999D01*
X140631000Y-128319999D01*
X140633000Y-128317999D01*
X140635000Y-128316999D01*
X140637000Y-128314999D01*
X140640000Y-128313999D01*
X140642000Y-128312999D01*
X140645000Y-128311999D01*
X140647000Y-128311999D01*
X140650000Y-128310999D01*
X140652000Y-128310999D01*
X140655000Y-128309999D01*
X140815000Y-128309999D01*
X140818000Y-128310999D01*
G37*
D10*
X140818000Y-128310999D02*
X140820000Y-128310999D01*
X140823000Y-128311999D01*
X140825000Y-128311999D01*
X140828000Y-128312999D01*
X140830000Y-128313999D01*
X140833000Y-128314999D01*
X140835000Y-128316999D01*
X140837000Y-128317999D01*
X140839000Y-128319999D01*
X140841000Y-128320999D01*
X140849000Y-128328999D01*
X140850000Y-128330999D01*
X140852000Y-128332999D01*
X140853000Y-128334999D01*
X140855000Y-128336999D01*
X140856000Y-128339999D01*
X140857000Y-128341999D01*
X140858000Y-128344999D01*
X140858000Y-128346999D01*
X140859000Y-128349999D01*
X140859000Y-128351999D01*
X140860000Y-128354999D01*
X140860000Y-128924999D01*
X140859000Y-128927999D01*
X140859000Y-128929999D01*
X140858000Y-128932999D01*
X140858000Y-128934999D01*
X140857000Y-128937999D01*
X140856000Y-128939999D01*
X140855000Y-128942999D01*
X140853000Y-128944999D01*
X140852000Y-128946999D01*
X140850000Y-128948999D01*
X140849000Y-128950999D01*
X140841000Y-128958999D01*
X140839000Y-128959999D01*
X140837000Y-128961999D01*
X140835000Y-128962999D01*
X140833000Y-128964999D01*
X140830000Y-128965999D01*
X140828000Y-128966999D01*
X140825000Y-128967999D01*
X140823000Y-128967999D01*
X140820000Y-128968999D01*
X140818000Y-128968999D01*
X140815000Y-128969999D01*
X140655000Y-128969999D01*
X140652000Y-128968999D01*
X140650000Y-128968999D01*
X140647000Y-128967999D01*
X140645000Y-128967999D01*
X140642000Y-128966999D01*
X140640000Y-128965999D01*
X140637000Y-128964999D01*
X140635000Y-128962999D01*
X140633000Y-128961999D01*
X140631000Y-128959999D01*
X140629000Y-128958999D01*
X140621000Y-128950999D01*
X140620000Y-128948999D01*
X140618000Y-128946999D01*
X140617000Y-128944999D01*
X140615000Y-128942999D01*
X140614000Y-128939999D01*
X140613000Y-128937999D01*
X140612000Y-128934999D01*
X140612000Y-128932999D01*
X140611000Y-128929999D01*
X140611000Y-128927999D01*
X140610000Y-128924999D01*
X140610000Y-128354999D01*
X140611000Y-128351999D01*
X140611000Y-128349999D01*
X140612000Y-128346999D01*
X140612000Y-128344999D01*
X140613000Y-128341999D01*
X140614000Y-128339999D01*
X140615000Y-128336999D01*
X140617000Y-128334999D01*
X140618000Y-128332999D01*
X140620000Y-128330999D01*
X140621000Y-128328999D01*
X140629000Y-128320999D01*
X140631000Y-128319999D01*
X140633000Y-128317999D01*
X140635000Y-128316999D01*
X140637000Y-128314999D01*
X140640000Y-128313999D01*
X140642000Y-128312999D01*
X140645000Y-128311999D01*
X140647000Y-128311999D01*
X140650000Y-128310999D01*
X140652000Y-128310999D01*
X140655000Y-128309999D01*
X140815000Y-128309999D01*
X140818000Y-128310999D01*
G36*
X140318000Y-129900999D02*
G01*
X140320000Y-129900999D01*
X140323000Y-129901999D01*
X140325000Y-129901999D01*
X140328000Y-129902999D01*
X140330000Y-129903999D01*
X140333000Y-129904999D01*
X140335000Y-129906999D01*
X140337000Y-129907999D01*
X140339000Y-129909999D01*
X140341000Y-129910999D01*
X140349000Y-129918999D01*
X140350000Y-129920999D01*
X140352000Y-129922999D01*
X140353000Y-129924999D01*
X140355000Y-129926999D01*
X140356000Y-129929999D01*
X140357000Y-129931999D01*
X140358000Y-129934999D01*
X140358000Y-129936999D01*
X140359000Y-129939999D01*
X140359000Y-129941999D01*
X140360000Y-129944999D01*
X140360000Y-130654999D01*
X140359000Y-130657999D01*
X140359000Y-130659999D01*
X140358000Y-130662999D01*
X140358000Y-130664999D01*
X140357000Y-130667999D01*
X140356000Y-130669999D01*
X140355000Y-130672999D01*
X140353000Y-130674999D01*
X140352000Y-130676999D01*
X140350000Y-130678999D01*
X140349000Y-130680999D01*
X140341000Y-130688999D01*
X140339000Y-130689999D01*
X140337000Y-130691999D01*
X140335000Y-130692999D01*
X140333000Y-130694999D01*
X140330000Y-130695999D01*
X140328000Y-130696999D01*
X140325000Y-130697999D01*
X140323000Y-130697999D01*
X140320000Y-130698999D01*
X140318000Y-130698999D01*
X140315000Y-130699999D01*
X140105000Y-130699999D01*
X140102000Y-130698999D01*
X140100000Y-130698999D01*
X140097000Y-130697999D01*
X140095000Y-130697999D01*
X140092000Y-130696999D01*
X140090000Y-130695999D01*
X140087000Y-130694999D01*
X140085000Y-130692999D01*
X140083000Y-130691999D01*
X140081000Y-130689999D01*
X140079000Y-130688999D01*
X140071000Y-130680999D01*
X140070000Y-130678999D01*
X140068000Y-130676999D01*
X140067000Y-130674999D01*
X140065000Y-130672999D01*
X140064000Y-130669999D01*
X140063000Y-130667999D01*
X140062000Y-130664999D01*
X140062000Y-130662999D01*
X140061000Y-130659999D01*
X140061000Y-130657999D01*
X140060000Y-130654999D01*
X140060000Y-129944999D01*
X140061000Y-129941999D01*
X140061000Y-129939999D01*
X140062000Y-129936999D01*
X140062000Y-129934999D01*
X140063000Y-129931999D01*
X140064000Y-129929999D01*
X140065000Y-129926999D01*
X140067000Y-129924999D01*
X140068000Y-129922999D01*
X140070000Y-129920999D01*
X140071000Y-129918999D01*
X140079000Y-129910999D01*
X140081000Y-129909999D01*
X140083000Y-129907999D01*
X140085000Y-129906999D01*
X140087000Y-129904999D01*
X140090000Y-129903999D01*
X140092000Y-129902999D01*
X140095000Y-129901999D01*
X140097000Y-129901999D01*
X140100000Y-129900999D01*
X140102000Y-129900999D01*
X140105000Y-129899999D01*
X140315000Y-129899999D01*
X140318000Y-129900999D01*
G37*
X140318000Y-129900999D02*
X140320000Y-129900999D01*
X140323000Y-129901999D01*
X140325000Y-129901999D01*
X140328000Y-129902999D01*
X140330000Y-129903999D01*
X140333000Y-129904999D01*
X140335000Y-129906999D01*
X140337000Y-129907999D01*
X140339000Y-129909999D01*
X140341000Y-129910999D01*
X140349000Y-129918999D01*
X140350000Y-129920999D01*
X140352000Y-129922999D01*
X140353000Y-129924999D01*
X140355000Y-129926999D01*
X140356000Y-129929999D01*
X140357000Y-129931999D01*
X140358000Y-129934999D01*
X140358000Y-129936999D01*
X140359000Y-129939999D01*
X140359000Y-129941999D01*
X140360000Y-129944999D01*
X140360000Y-130654999D01*
X140359000Y-130657999D01*
X140359000Y-130659999D01*
X140358000Y-130662999D01*
X140358000Y-130664999D01*
X140357000Y-130667999D01*
X140356000Y-130669999D01*
X140355000Y-130672999D01*
X140353000Y-130674999D01*
X140352000Y-130676999D01*
X140350000Y-130678999D01*
X140349000Y-130680999D01*
X140341000Y-130688999D01*
X140339000Y-130689999D01*
X140337000Y-130691999D01*
X140335000Y-130692999D01*
X140333000Y-130694999D01*
X140330000Y-130695999D01*
X140328000Y-130696999D01*
X140325000Y-130697999D01*
X140323000Y-130697999D01*
X140320000Y-130698999D01*
X140318000Y-130698999D01*
X140315000Y-130699999D01*
X140105000Y-130699999D01*
X140102000Y-130698999D01*
X140100000Y-130698999D01*
X140097000Y-130697999D01*
X140095000Y-130697999D01*
X140092000Y-130696999D01*
X140090000Y-130695999D01*
X140087000Y-130694999D01*
X140085000Y-130692999D01*
X140083000Y-130691999D01*
X140081000Y-130689999D01*
X140079000Y-130688999D01*
X140071000Y-130680999D01*
X140070000Y-130678999D01*
X140068000Y-130676999D01*
X140067000Y-130674999D01*
X140065000Y-130672999D01*
X140064000Y-130669999D01*
X140063000Y-130667999D01*
X140062000Y-130664999D01*
X140062000Y-130662999D01*
X140061000Y-130659999D01*
X140061000Y-130657999D01*
X140060000Y-130654999D01*
X140060000Y-129944999D01*
X140061000Y-129941999D01*
X140061000Y-129939999D01*
X140062000Y-129936999D01*
X140062000Y-129934999D01*
X140063000Y-129931999D01*
X140064000Y-129929999D01*
X140065000Y-129926999D01*
X140067000Y-129924999D01*
X140068000Y-129922999D01*
X140070000Y-129920999D01*
X140071000Y-129918999D01*
X140079000Y-129910999D01*
X140081000Y-129909999D01*
X140083000Y-129907999D01*
X140085000Y-129906999D01*
X140087000Y-129904999D01*
X140090000Y-129903999D01*
X140092000Y-129902999D01*
X140095000Y-129901999D01*
X140097000Y-129901999D01*
X140100000Y-129900999D01*
X140102000Y-129900999D01*
X140105000Y-129899999D01*
X140315000Y-129899999D01*
X140318000Y-129900999D01*
G36*
X140320000Y-128300999D02*
G01*
X140323000Y-128300999D01*
X140325000Y-128301999D01*
X140328000Y-128302999D01*
X140330000Y-128303999D01*
X140333000Y-128304999D01*
X140335000Y-128305999D01*
X140337000Y-128307999D01*
X140339000Y-128308999D01*
X140341000Y-128310999D01*
X140343000Y-128311999D01*
X140349000Y-128317999D01*
X140350000Y-128319999D01*
X140352000Y-128321999D01*
X140353000Y-128324999D01*
X140355000Y-128326999D01*
X140356000Y-128328999D01*
X140357000Y-128331999D01*
X140358000Y-128333999D01*
X140358000Y-128336999D01*
X140359000Y-128338999D01*
X140359000Y-128341999D01*
X140360000Y-128343999D01*
X140360000Y-128779999D01*
X140359000Y-128781999D01*
X140359000Y-128784999D01*
X140358000Y-128786999D01*
X140358000Y-128789999D01*
X140357000Y-128791999D01*
X140356000Y-128794999D01*
X140355000Y-128796999D01*
X140353000Y-128798999D01*
X140352000Y-128801999D01*
X140350000Y-128803999D01*
X140349000Y-128805999D01*
X140343000Y-128811999D01*
X140341000Y-128812999D01*
X140339000Y-128814999D01*
X140337000Y-128815999D01*
X140335000Y-128817999D01*
X140333000Y-128818999D01*
X140330000Y-128819999D01*
X140328000Y-128820999D01*
X140325000Y-128821999D01*
X140323000Y-128822999D01*
X140320000Y-128822999D01*
X140318000Y-128823999D01*
X140313000Y-128823999D01*
X140310000Y-128824999D01*
X140110000Y-128824999D01*
X140107000Y-128823999D01*
X140102000Y-128823999D01*
X140100000Y-128822999D01*
X140097000Y-128822999D01*
X140095000Y-128821999D01*
X140092000Y-128820999D01*
X140090000Y-128819999D01*
X140087000Y-128818999D01*
X140085000Y-128817999D01*
X140083000Y-128815999D01*
X140081000Y-128814999D01*
X140079000Y-128812999D01*
X140077000Y-128811999D01*
X140071000Y-128805999D01*
X140070000Y-128803999D01*
X140068000Y-128801999D01*
X140067000Y-128798999D01*
X140065000Y-128796999D01*
X140064000Y-128794999D01*
X140063000Y-128791999D01*
X140062000Y-128789999D01*
X140062000Y-128786999D01*
X140061000Y-128784999D01*
X140061000Y-128781999D01*
X140060000Y-128779999D01*
X140060000Y-128343999D01*
X140061000Y-128341999D01*
X140061000Y-128338999D01*
X140062000Y-128336999D01*
X140062000Y-128333999D01*
X140063000Y-128331999D01*
X140064000Y-128328999D01*
X140065000Y-128326999D01*
X140067000Y-128324999D01*
X140068000Y-128321999D01*
X140070000Y-128319999D01*
X140071000Y-128317999D01*
X140077000Y-128311999D01*
X140079000Y-128310999D01*
X140081000Y-128308999D01*
X140083000Y-128307999D01*
X140085000Y-128305999D01*
X140087000Y-128304999D01*
X140090000Y-128303999D01*
X140092000Y-128302999D01*
X140095000Y-128301999D01*
X140097000Y-128300999D01*
X140100000Y-128300999D01*
X140102000Y-128299999D01*
X140318000Y-128299999D01*
X140320000Y-128300999D01*
G37*
X140320000Y-128300999D02*
X140323000Y-128300999D01*
X140325000Y-128301999D01*
X140328000Y-128302999D01*
X140330000Y-128303999D01*
X140333000Y-128304999D01*
X140335000Y-128305999D01*
X140337000Y-128307999D01*
X140339000Y-128308999D01*
X140341000Y-128310999D01*
X140343000Y-128311999D01*
X140349000Y-128317999D01*
X140350000Y-128319999D01*
X140352000Y-128321999D01*
X140353000Y-128324999D01*
X140355000Y-128326999D01*
X140356000Y-128328999D01*
X140357000Y-128331999D01*
X140358000Y-128333999D01*
X140358000Y-128336999D01*
X140359000Y-128338999D01*
X140359000Y-128341999D01*
X140360000Y-128343999D01*
X140360000Y-128779999D01*
X140359000Y-128781999D01*
X140359000Y-128784999D01*
X140358000Y-128786999D01*
X140358000Y-128789999D01*
X140357000Y-128791999D01*
X140356000Y-128794999D01*
X140355000Y-128796999D01*
X140353000Y-128798999D01*
X140352000Y-128801999D01*
X140350000Y-128803999D01*
X140349000Y-128805999D01*
X140343000Y-128811999D01*
X140341000Y-128812999D01*
X140339000Y-128814999D01*
X140337000Y-128815999D01*
X140335000Y-128817999D01*
X140333000Y-128818999D01*
X140330000Y-128819999D01*
X140328000Y-128820999D01*
X140325000Y-128821999D01*
X140323000Y-128822999D01*
X140320000Y-128822999D01*
X140318000Y-128823999D01*
X140313000Y-128823999D01*
X140310000Y-128824999D01*
X140110000Y-128824999D01*
X140107000Y-128823999D01*
X140102000Y-128823999D01*
X140100000Y-128822999D01*
X140097000Y-128822999D01*
X140095000Y-128821999D01*
X140092000Y-128820999D01*
X140090000Y-128819999D01*
X140087000Y-128818999D01*
X140085000Y-128817999D01*
X140083000Y-128815999D01*
X140081000Y-128814999D01*
X140079000Y-128812999D01*
X140077000Y-128811999D01*
X140071000Y-128805999D01*
X140070000Y-128803999D01*
X140068000Y-128801999D01*
X140067000Y-128798999D01*
X140065000Y-128796999D01*
X140064000Y-128794999D01*
X140063000Y-128791999D01*
X140062000Y-128789999D01*
X140062000Y-128786999D01*
X140061000Y-128784999D01*
X140061000Y-128781999D01*
X140060000Y-128779999D01*
X140060000Y-128343999D01*
X140061000Y-128341999D01*
X140061000Y-128338999D01*
X140062000Y-128336999D01*
X140062000Y-128333999D01*
X140063000Y-128331999D01*
X140064000Y-128328999D01*
X140065000Y-128326999D01*
X140067000Y-128324999D01*
X140068000Y-128321999D01*
X140070000Y-128319999D01*
X140071000Y-128317999D01*
X140077000Y-128311999D01*
X140079000Y-128310999D01*
X140081000Y-128308999D01*
X140083000Y-128307999D01*
X140085000Y-128305999D01*
X140087000Y-128304999D01*
X140090000Y-128303999D01*
X140092000Y-128302999D01*
X140095000Y-128301999D01*
X140097000Y-128300999D01*
X140100000Y-128300999D01*
X140102000Y-128299999D01*
X140318000Y-128299999D01*
X140320000Y-128300999D01*
G36*
X140818000Y-130030999D02*
G01*
X140820000Y-130030999D01*
X140823000Y-130031999D01*
X140825000Y-130031999D01*
X140828000Y-130032999D01*
X140830000Y-130033999D01*
X140833000Y-130034999D01*
X140835000Y-130036999D01*
X140837000Y-130037999D01*
X140839000Y-130039999D01*
X140841000Y-130040999D01*
X140849000Y-130048999D01*
X140850000Y-130050999D01*
X140852000Y-130052999D01*
X140853000Y-130054999D01*
X140855000Y-130056999D01*
X140856000Y-130059999D01*
X140857000Y-130061999D01*
X140858000Y-130064999D01*
X140858000Y-130066999D01*
X140859000Y-130069999D01*
X140859000Y-130071999D01*
X140860000Y-130074999D01*
X140860000Y-130644999D01*
X140859000Y-130647999D01*
X140859000Y-130649999D01*
X140858000Y-130652999D01*
X140858000Y-130654999D01*
X140857000Y-130657999D01*
X140856000Y-130659999D01*
X140855000Y-130662999D01*
X140853000Y-130664999D01*
X140852000Y-130666999D01*
X140850000Y-130668999D01*
X140849000Y-130670999D01*
X140841000Y-130678999D01*
X140839000Y-130679999D01*
X140837000Y-130681999D01*
X140835000Y-130682999D01*
X140833000Y-130684999D01*
X140830000Y-130685999D01*
X140828000Y-130686999D01*
X140825000Y-130687999D01*
X140823000Y-130687999D01*
X140820000Y-130688999D01*
X140818000Y-130688999D01*
X140815000Y-130689999D01*
X140655000Y-130689999D01*
X140652000Y-130688999D01*
X140650000Y-130688999D01*
X140647000Y-130687999D01*
X140645000Y-130687999D01*
X140642000Y-130686999D01*
X140640000Y-130685999D01*
X140637000Y-130684999D01*
X140635000Y-130682999D01*
X140633000Y-130681999D01*
X140631000Y-130679999D01*
X140629000Y-130678999D01*
X140621000Y-130670999D01*
X140620000Y-130668999D01*
X140618000Y-130666999D01*
X140617000Y-130664999D01*
X140615000Y-130662999D01*
X140614000Y-130659999D01*
X140613000Y-130657999D01*
X140612000Y-130654999D01*
X140612000Y-130652999D01*
X140611000Y-130649999D01*
X140611000Y-130647999D01*
X140610000Y-130644999D01*
X140610000Y-130074999D01*
X140611000Y-130071999D01*
X140611000Y-130069999D01*
X140612000Y-130066999D01*
X140612000Y-130064999D01*
X140613000Y-130061999D01*
X140614000Y-130059999D01*
X140615000Y-130056999D01*
X140617000Y-130054999D01*
X140618000Y-130052999D01*
X140620000Y-130050999D01*
X140621000Y-130048999D01*
X140629000Y-130040999D01*
X140631000Y-130039999D01*
X140633000Y-130037999D01*
X140635000Y-130036999D01*
X140637000Y-130034999D01*
X140640000Y-130033999D01*
X140642000Y-130032999D01*
X140645000Y-130031999D01*
X140647000Y-130031999D01*
X140650000Y-130030999D01*
X140652000Y-130030999D01*
X140655000Y-130029999D01*
X140815000Y-130029999D01*
X140818000Y-130030999D01*
G37*
X140818000Y-130030999D02*
X140820000Y-130030999D01*
X140823000Y-130031999D01*
X140825000Y-130031999D01*
X140828000Y-130032999D01*
X140830000Y-130033999D01*
X140833000Y-130034999D01*
X140835000Y-130036999D01*
X140837000Y-130037999D01*
X140839000Y-130039999D01*
X140841000Y-130040999D01*
X140849000Y-130048999D01*
X140850000Y-130050999D01*
X140852000Y-130052999D01*
X140853000Y-130054999D01*
X140855000Y-130056999D01*
X140856000Y-130059999D01*
X140857000Y-130061999D01*
X140858000Y-130064999D01*
X140858000Y-130066999D01*
X140859000Y-130069999D01*
X140859000Y-130071999D01*
X140860000Y-130074999D01*
X140860000Y-130644999D01*
X140859000Y-130647999D01*
X140859000Y-130649999D01*
X140858000Y-130652999D01*
X140858000Y-130654999D01*
X140857000Y-130657999D01*
X140856000Y-130659999D01*
X140855000Y-130662999D01*
X140853000Y-130664999D01*
X140852000Y-130666999D01*
X140850000Y-130668999D01*
X140849000Y-130670999D01*
X140841000Y-130678999D01*
X140839000Y-130679999D01*
X140837000Y-130681999D01*
X140835000Y-130682999D01*
X140833000Y-130684999D01*
X140830000Y-130685999D01*
X140828000Y-130686999D01*
X140825000Y-130687999D01*
X140823000Y-130687999D01*
X140820000Y-130688999D01*
X140818000Y-130688999D01*
X140815000Y-130689999D01*
X140655000Y-130689999D01*
X140652000Y-130688999D01*
X140650000Y-130688999D01*
X140647000Y-130687999D01*
X140645000Y-130687999D01*
X140642000Y-130686999D01*
X140640000Y-130685999D01*
X140637000Y-130684999D01*
X140635000Y-130682999D01*
X140633000Y-130681999D01*
X140631000Y-130679999D01*
X140629000Y-130678999D01*
X140621000Y-130670999D01*
X140620000Y-130668999D01*
X140618000Y-130666999D01*
X140617000Y-130664999D01*
X140615000Y-130662999D01*
X140614000Y-130659999D01*
X140613000Y-130657999D01*
X140612000Y-130654999D01*
X140612000Y-130652999D01*
X140611000Y-130649999D01*
X140611000Y-130647999D01*
X140610000Y-130644999D01*
X140610000Y-130074999D01*
X140611000Y-130071999D01*
X140611000Y-130069999D01*
X140612000Y-130066999D01*
X140612000Y-130064999D01*
X140613000Y-130061999D01*
X140614000Y-130059999D01*
X140615000Y-130056999D01*
X140617000Y-130054999D01*
X140618000Y-130052999D01*
X140620000Y-130050999D01*
X140621000Y-130048999D01*
X140629000Y-130040999D01*
X140631000Y-130039999D01*
X140633000Y-130037999D01*
X140635000Y-130036999D01*
X140637000Y-130034999D01*
X140640000Y-130033999D01*
X140642000Y-130032999D01*
X140645000Y-130031999D01*
X140647000Y-130031999D01*
X140650000Y-130030999D01*
X140652000Y-130030999D01*
X140655000Y-130029999D01*
X140815000Y-130029999D01*
X140818000Y-130030999D01*
G36*
X140818000Y-129170999D02*
G01*
X140820000Y-129170999D01*
X140823000Y-129171999D01*
X140825000Y-129171999D01*
X140828000Y-129172999D01*
X140830000Y-129173999D01*
X140833000Y-129174999D01*
X140835000Y-129176999D01*
X140837000Y-129177999D01*
X140839000Y-129179999D01*
X140841000Y-129180999D01*
X140849000Y-129188999D01*
X140850000Y-129190999D01*
X140852000Y-129192999D01*
X140853000Y-129194999D01*
X140855000Y-129196999D01*
X140856000Y-129199999D01*
X140857000Y-129201999D01*
X140858000Y-129204999D01*
X140858000Y-129206999D01*
X140859000Y-129209999D01*
X140859000Y-129211999D01*
X140860000Y-129214999D01*
X140860000Y-129784999D01*
X140859000Y-129787999D01*
X140859000Y-129789999D01*
X140858000Y-129792999D01*
X140858000Y-129794999D01*
X140857000Y-129797999D01*
X140856000Y-129799999D01*
X140855000Y-129802999D01*
X140853000Y-129804999D01*
X140852000Y-129806999D01*
X140850000Y-129808999D01*
X140849000Y-129810999D01*
X140841000Y-129818999D01*
X140839000Y-129819999D01*
X140837000Y-129821999D01*
X140835000Y-129822999D01*
X140833000Y-129824999D01*
X140830000Y-129825999D01*
X140828000Y-129826999D01*
X140825000Y-129827999D01*
X140823000Y-129827999D01*
X140820000Y-129828999D01*
X140818000Y-129828999D01*
X140815000Y-129829999D01*
X140655000Y-129829999D01*
X140652000Y-129828999D01*
X140650000Y-129828999D01*
X140647000Y-129827999D01*
X140645000Y-129827999D01*
X140642000Y-129826999D01*
X140640000Y-129825999D01*
X140637000Y-129824999D01*
X140635000Y-129822999D01*
X140633000Y-129821999D01*
X140631000Y-129819999D01*
X140629000Y-129818999D01*
X140621000Y-129810999D01*
X140620000Y-129808999D01*
X140618000Y-129806999D01*
X140617000Y-129804999D01*
X140615000Y-129802999D01*
X140614000Y-129799999D01*
X140613000Y-129797999D01*
X140612000Y-129794999D01*
X140612000Y-129792999D01*
X140611000Y-129789999D01*
X140611000Y-129787999D01*
X140610000Y-129784999D01*
X140610000Y-129214999D01*
X140611000Y-129211999D01*
X140611000Y-129209999D01*
X140612000Y-129206999D01*
X140612000Y-129204999D01*
X140613000Y-129201999D01*
X140614000Y-129199999D01*
X140615000Y-129196999D01*
X140617000Y-129194999D01*
X140618000Y-129192999D01*
X140620000Y-129190999D01*
X140621000Y-129188999D01*
X140629000Y-129180999D01*
X140631000Y-129179999D01*
X140633000Y-129177999D01*
X140635000Y-129176999D01*
X140637000Y-129174999D01*
X140640000Y-129173999D01*
X140642000Y-129172999D01*
X140645000Y-129171999D01*
X140647000Y-129171999D01*
X140650000Y-129170999D01*
X140652000Y-129170999D01*
X140655000Y-129169999D01*
X140815000Y-129169999D01*
X140818000Y-129170999D01*
G37*
X140818000Y-129170999D02*
X140820000Y-129170999D01*
X140823000Y-129171999D01*
X140825000Y-129171999D01*
X140828000Y-129172999D01*
X140830000Y-129173999D01*
X140833000Y-129174999D01*
X140835000Y-129176999D01*
X140837000Y-129177999D01*
X140839000Y-129179999D01*
X140841000Y-129180999D01*
X140849000Y-129188999D01*
X140850000Y-129190999D01*
X140852000Y-129192999D01*
X140853000Y-129194999D01*
X140855000Y-129196999D01*
X140856000Y-129199999D01*
X140857000Y-129201999D01*
X140858000Y-129204999D01*
X140858000Y-129206999D01*
X140859000Y-129209999D01*
X140859000Y-129211999D01*
X140860000Y-129214999D01*
X140860000Y-129784999D01*
X140859000Y-129787999D01*
X140859000Y-129789999D01*
X140858000Y-129792999D01*
X140858000Y-129794999D01*
X140857000Y-129797999D01*
X140856000Y-129799999D01*
X140855000Y-129802999D01*
X140853000Y-129804999D01*
X140852000Y-129806999D01*
X140850000Y-129808999D01*
X140849000Y-129810999D01*
X140841000Y-129818999D01*
X140839000Y-129819999D01*
X140837000Y-129821999D01*
X140835000Y-129822999D01*
X140833000Y-129824999D01*
X140830000Y-129825999D01*
X140828000Y-129826999D01*
X140825000Y-129827999D01*
X140823000Y-129827999D01*
X140820000Y-129828999D01*
X140818000Y-129828999D01*
X140815000Y-129829999D01*
X140655000Y-129829999D01*
X140652000Y-129828999D01*
X140650000Y-129828999D01*
X140647000Y-129827999D01*
X140645000Y-129827999D01*
X140642000Y-129826999D01*
X140640000Y-129825999D01*
X140637000Y-129824999D01*
X140635000Y-129822999D01*
X140633000Y-129821999D01*
X140631000Y-129819999D01*
X140629000Y-129818999D01*
X140621000Y-129810999D01*
X140620000Y-129808999D01*
X140618000Y-129806999D01*
X140617000Y-129804999D01*
X140615000Y-129802999D01*
X140614000Y-129799999D01*
X140613000Y-129797999D01*
X140612000Y-129794999D01*
X140612000Y-129792999D01*
X140611000Y-129789999D01*
X140611000Y-129787999D01*
X140610000Y-129784999D01*
X140610000Y-129214999D01*
X140611000Y-129211999D01*
X140611000Y-129209999D01*
X140612000Y-129206999D01*
X140612000Y-129204999D01*
X140613000Y-129201999D01*
X140614000Y-129199999D01*
X140615000Y-129196999D01*
X140617000Y-129194999D01*
X140618000Y-129192999D01*
X140620000Y-129190999D01*
X140621000Y-129188999D01*
X140629000Y-129180999D01*
X140631000Y-129179999D01*
X140633000Y-129177999D01*
X140635000Y-129176999D01*
X140637000Y-129174999D01*
X140640000Y-129173999D01*
X140642000Y-129172999D01*
X140645000Y-129171999D01*
X140647000Y-129171999D01*
X140650000Y-129170999D01*
X140652000Y-129170999D01*
X140655000Y-129169999D01*
X140815000Y-129169999D01*
X140818000Y-129170999D01*
G36*
X140318000Y-128975999D02*
G01*
X140320000Y-128975999D01*
X140323000Y-128976999D01*
X140325000Y-128976999D01*
X140328000Y-128977999D01*
X140330000Y-128978999D01*
X140333000Y-128979999D01*
X140335000Y-128981999D01*
X140337000Y-128982999D01*
X140339000Y-128984999D01*
X140341000Y-128985999D01*
X140349000Y-128993999D01*
X140350000Y-128995999D01*
X140352000Y-128997999D01*
X140353000Y-128999999D01*
X140355000Y-129001999D01*
X140356000Y-129004999D01*
X140357000Y-129006999D01*
X140358000Y-129009999D01*
X140358000Y-129011999D01*
X140359000Y-129014999D01*
X140359000Y-129016999D01*
X140360000Y-129019999D01*
X140360000Y-129454999D01*
X140359000Y-129457999D01*
X140359000Y-129459999D01*
X140358000Y-129462999D01*
X140358000Y-129464999D01*
X140357000Y-129467999D01*
X140356000Y-129469999D01*
X140355000Y-129472999D01*
X140353000Y-129474999D01*
X140352000Y-129476999D01*
X140350000Y-129478999D01*
X140349000Y-129480999D01*
X140341000Y-129488999D01*
X140339000Y-129489999D01*
X140337000Y-129491999D01*
X140335000Y-129492999D01*
X140333000Y-129494999D01*
X140330000Y-129495999D01*
X140328000Y-129496999D01*
X140325000Y-129497999D01*
X140323000Y-129497999D01*
X140320000Y-129498999D01*
X140318000Y-129498999D01*
X140315000Y-129499999D01*
X140105000Y-129499999D01*
X140102000Y-129498999D01*
X140100000Y-129498999D01*
X140097000Y-129497999D01*
X140095000Y-129497999D01*
X140092000Y-129496999D01*
X140090000Y-129495999D01*
X140087000Y-129494999D01*
X140085000Y-129492999D01*
X140083000Y-129491999D01*
X140081000Y-129489999D01*
X140079000Y-129488999D01*
X140071000Y-129480999D01*
X140070000Y-129478999D01*
X140068000Y-129476999D01*
X140067000Y-129474999D01*
X140065000Y-129472999D01*
X140064000Y-129469999D01*
X140063000Y-129467999D01*
X140062000Y-129464999D01*
X140062000Y-129462999D01*
X140061000Y-129459999D01*
X140061000Y-129457999D01*
X140060000Y-129454999D01*
X140060000Y-129019999D01*
X140061000Y-129016999D01*
X140061000Y-129014999D01*
X140062000Y-129011999D01*
X140062000Y-129009999D01*
X140063000Y-129006999D01*
X140064000Y-129004999D01*
X140065000Y-129001999D01*
X140067000Y-128999999D01*
X140068000Y-128997999D01*
X140070000Y-128995999D01*
X140071000Y-128993999D01*
X140079000Y-128985999D01*
X140081000Y-128984999D01*
X140083000Y-128982999D01*
X140085000Y-128981999D01*
X140087000Y-128979999D01*
X140090000Y-128978999D01*
X140092000Y-128977999D01*
X140095000Y-128976999D01*
X140097000Y-128976999D01*
X140100000Y-128975999D01*
X140102000Y-128975999D01*
X140105000Y-128974999D01*
X140315000Y-128974999D01*
X140318000Y-128975999D01*
G37*
X140318000Y-128975999D02*
X140320000Y-128975999D01*
X140323000Y-128976999D01*
X140325000Y-128976999D01*
X140328000Y-128977999D01*
X140330000Y-128978999D01*
X140333000Y-128979999D01*
X140335000Y-128981999D01*
X140337000Y-128982999D01*
X140339000Y-128984999D01*
X140341000Y-128985999D01*
X140349000Y-128993999D01*
X140350000Y-128995999D01*
X140352000Y-128997999D01*
X140353000Y-128999999D01*
X140355000Y-129001999D01*
X140356000Y-129004999D01*
X140357000Y-129006999D01*
X140358000Y-129009999D01*
X140358000Y-129011999D01*
X140359000Y-129014999D01*
X140359000Y-129016999D01*
X140360000Y-129019999D01*
X140360000Y-129454999D01*
X140359000Y-129457999D01*
X140359000Y-129459999D01*
X140358000Y-129462999D01*
X140358000Y-129464999D01*
X140357000Y-129467999D01*
X140356000Y-129469999D01*
X140355000Y-129472999D01*
X140353000Y-129474999D01*
X140352000Y-129476999D01*
X140350000Y-129478999D01*
X140349000Y-129480999D01*
X140341000Y-129488999D01*
X140339000Y-129489999D01*
X140337000Y-129491999D01*
X140335000Y-129492999D01*
X140333000Y-129494999D01*
X140330000Y-129495999D01*
X140328000Y-129496999D01*
X140325000Y-129497999D01*
X140323000Y-129497999D01*
X140320000Y-129498999D01*
X140318000Y-129498999D01*
X140315000Y-129499999D01*
X140105000Y-129499999D01*
X140102000Y-129498999D01*
X140100000Y-129498999D01*
X140097000Y-129497999D01*
X140095000Y-129497999D01*
X140092000Y-129496999D01*
X140090000Y-129495999D01*
X140087000Y-129494999D01*
X140085000Y-129492999D01*
X140083000Y-129491999D01*
X140081000Y-129489999D01*
X140079000Y-129488999D01*
X140071000Y-129480999D01*
X140070000Y-129478999D01*
X140068000Y-129476999D01*
X140067000Y-129474999D01*
X140065000Y-129472999D01*
X140064000Y-129469999D01*
X140063000Y-129467999D01*
X140062000Y-129464999D01*
X140062000Y-129462999D01*
X140061000Y-129459999D01*
X140061000Y-129457999D01*
X140060000Y-129454999D01*
X140060000Y-129019999D01*
X140061000Y-129016999D01*
X140061000Y-129014999D01*
X140062000Y-129011999D01*
X140062000Y-129009999D01*
X140063000Y-129006999D01*
X140064000Y-129004999D01*
X140065000Y-129001999D01*
X140067000Y-128999999D01*
X140068000Y-128997999D01*
X140070000Y-128995999D01*
X140071000Y-128993999D01*
X140079000Y-128985999D01*
X140081000Y-128984999D01*
X140083000Y-128982999D01*
X140085000Y-128981999D01*
X140087000Y-128979999D01*
X140090000Y-128978999D01*
X140092000Y-128977999D01*
X140095000Y-128976999D01*
X140097000Y-128976999D01*
X140100000Y-128975999D01*
X140102000Y-128975999D01*
X140105000Y-128974999D01*
X140315000Y-128974999D01*
X140318000Y-128975999D01*
D11*
X130500000Y-119775000D03*
X130500000Y-118225000D03*
D12*
X160500000Y-73225000D03*
X160500000Y-74775000D03*
D13*
X149337500Y-93275000D03*
X149337500Y-93925000D03*
X149337500Y-94575000D03*
X149337500Y-95225000D03*
X149337500Y-95875000D03*
X149337500Y-96525000D03*
X149337500Y-97175000D03*
X149337500Y-97825000D03*
X149337500Y-98475000D03*
X149337500Y-99125000D03*
X155062500Y-99125000D03*
X155062500Y-98475000D03*
X155062500Y-97825000D03*
X155062500Y-97175000D03*
X155062500Y-96525000D03*
X155062500Y-95875000D03*
X155062500Y-95225000D03*
X155062500Y-94575000D03*
X155062500Y-93925000D03*
X155062500Y-93275000D03*
D14*
X158000000Y-127287499D03*
X158000000Y-125712499D03*
D15*
X103900000Y-107500000D03*
X102000000Y-107500000D03*
D16*
X133050000Y-119850000D03*
X133050000Y-123150000D03*
X137950000Y-123150000D03*
X137950000Y-119850000D03*
D12*
X185600000Y-92000000D03*
X185600000Y-93550000D03*
D17*
X181925000Y-111790000D03*
X181925000Y-113060000D03*
X181925000Y-114330000D03*
X181925000Y-115600000D03*
X181925000Y-116870000D03*
X181925000Y-118140000D03*
X181925000Y-119410000D03*
X186875000Y-119410000D03*
X186875000Y-118140000D03*
X186875000Y-116870000D03*
X186875000Y-115600000D03*
X186875000Y-114330000D03*
X186875000Y-113060000D03*
X186875000Y-111790000D03*
D16*
X173050000Y-119850000D03*
X173050000Y-123150000D03*
X177950000Y-123150000D03*
X177950000Y-119850000D03*
D18*
X164750000Y-135300000D03*
X164750000Y-137200000D03*
D19*
X191425000Y-117750000D03*
X199375000Y-117750000D03*
X191425000Y-122250000D03*
X199375000Y-122250000D03*
D20*
X104500000Y-83175000D03*
X104500000Y-84825000D03*
D21*
X121600000Y-135275000D03*
X121600000Y-132975000D03*
D22*
X115300000Y-132975000D03*
D21*
X121600000Y-130675000D03*
D12*
X173500000Y-128999999D03*
X173500000Y-130549999D03*
D20*
X100500000Y-83175000D03*
X100500000Y-84825000D03*
D18*
X128500000Y-97499999D03*
X128500000Y-99399999D03*
D23*
X98250000Y-105250000D03*
X99520000Y-105250000D03*
X100790000Y-105250000D03*
X102060000Y-105250000D03*
X103330000Y-105250000D03*
X104600000Y-105250000D03*
X105870000Y-105250000D03*
X107140000Y-105250000D03*
X108410000Y-105250000D03*
X109680000Y-105250000D03*
X110950000Y-105250000D03*
X112220000Y-105250000D03*
X113490000Y-105250000D03*
X114760000Y-105250000D03*
D16*
X116010000Y-102210000D03*
X116010000Y-100940000D03*
X116010000Y-99670000D03*
X116010000Y-98400000D03*
X116010000Y-97130000D03*
X116010000Y-95860000D03*
X116010000Y-94590000D03*
X116010000Y-93320000D03*
X116010000Y-92050000D03*
X116010000Y-90780000D03*
D23*
X114760000Y-87750000D03*
X113490000Y-87750000D03*
X112220000Y-87750000D03*
X110950000Y-87750000D03*
X109680000Y-87750000D03*
X108410000Y-87750000D03*
X107140000Y-87750000D03*
X105870000Y-87750000D03*
X104600000Y-87750000D03*
X103330000Y-87750000D03*
X102060000Y-87750000D03*
X100790000Y-87750000D03*
X99520000Y-87750000D03*
X98250000Y-87750000D03*
D24*
X107115000Y-98705000D03*
X105590000Y-95655000D03*
X107115000Y-95655000D03*
X107115000Y-97180000D03*
X105590000Y-98705000D03*
X104065000Y-97180000D03*
X104065000Y-95655000D03*
X104065000Y-98705000D03*
X105590000Y-97180000D03*
D25*
X133825000Y-102400000D03*
X135375000Y-102400000D03*
D20*
X128500000Y-101175000D03*
X128500000Y-102825000D03*
D26*
X194400000Y-126225000D03*
X194400000Y-124575000D03*
X178500000Y-103325000D03*
X178500000Y-101675000D03*
D16*
X153050000Y-119850000D03*
X153050000Y-123150000D03*
X157950000Y-123150000D03*
X157950000Y-119850000D03*
D27*
X158930000Y-132750000D03*
X160070000Y-134250000D03*
X158930000Y-134250000D03*
X160070000Y-132750000D03*
D17*
X157025000Y-131595000D03*
X157025000Y-132865000D03*
X157025000Y-134135000D03*
X157025000Y-135405000D03*
X161975000Y-135405000D03*
X161975000Y-134135000D03*
X161975000Y-132865000D03*
X161975000Y-131595000D03*
D28*
X125770000Y-93500000D03*
X123230000Y-93500000D03*
X123230000Y-99500000D03*
X125770000Y-99500000D03*
D25*
X107450000Y-107500000D03*
X109000000Y-107500000D03*
D20*
X192600000Y-124575000D03*
X192600000Y-126225000D03*
D29*
X146775000Y-95200000D03*
X145225000Y-95200000D03*
D30*
X180562500Y-101550000D03*
X180562500Y-103450000D03*
X182437500Y-102500000D03*
D31*
X142250000Y-136599999D03*
X142250000Y-132499999D03*
D32*
X192455000Y-99750000D03*
X192455000Y-98950000D03*
D33*
X192455000Y-97750000D03*
X192455000Y-96750000D03*
X192455000Y-96250000D03*
X192455000Y-95250000D03*
D32*
X192455000Y-94050000D03*
X192455000Y-93250000D03*
X192455000Y-93250000D03*
X192455000Y-94050000D03*
D33*
X192455000Y-94750000D03*
X192455000Y-95750000D03*
X192455000Y-97250000D03*
X192455000Y-98250000D03*
D32*
X192455000Y-98950000D03*
X192455000Y-99750000D03*
D26*
X160000000Y-127324999D03*
X160000000Y-125674999D03*
D12*
X124200000Y-130600000D03*
X124200000Y-132150000D03*
D34*
X135499999Y-128024999D03*
X135499999Y-130974999D03*
D29*
X187375000Y-110000000D03*
X185825000Y-110000000D03*
X145524999Y-130249999D03*
X143974999Y-130249999D03*
D12*
X138250000Y-128724999D03*
X138250000Y-130274999D03*
D20*
X184500000Y-101675000D03*
X184500000Y-103325000D03*
D26*
X156000000Y-127324999D03*
X156000000Y-125674999D03*
D29*
X142025000Y-126499999D03*
X140475000Y-126499999D03*
D35*
X186250000Y-125500000D03*
X187900000Y-125500000D03*
D20*
X182000000Y-89500000D03*
X182000000Y-91150000D03*
D36*
X193325000Y-103000000D03*
X191675000Y-103000000D03*
D26*
X102000000Y-111325000D03*
X102000000Y-109675000D03*
D16*
X113050000Y-119850000D03*
X113050000Y-123150000D03*
X117950000Y-123150000D03*
X117950000Y-119850000D03*
D35*
X143925000Y-126749999D03*
X145575000Y-126749999D03*
D20*
X196200000Y-124575000D03*
X196200000Y-126225000D03*
D37*
X146500000Y-136474999D03*
X146500000Y-133524999D03*
D34*
X126500000Y-130600000D03*
X126500000Y-133550000D03*
D38*
X180380000Y-95275000D03*
X182620000Y-96395000D03*
X180380000Y-94155000D03*
X182620000Y-95275000D03*
X181500000Y-96395000D03*
X181500000Y-95275000D03*
X180380000Y-96395000D03*
X182620000Y-94155000D03*
X181500000Y-94155000D03*
D39*
X183950000Y-96775000D03*
X183950000Y-96275000D03*
X183950000Y-95775000D03*
X183950000Y-95275000D03*
X183950000Y-94775000D03*
X183950000Y-94275000D03*
X183950000Y-93775000D03*
D40*
X183000000Y-92825000D03*
X182500000Y-92825000D03*
X182000000Y-92825000D03*
X181500000Y-92825000D03*
X181000000Y-92825000D03*
X180500000Y-92825000D03*
X180000000Y-92825000D03*
D39*
X179050000Y-93775000D03*
X179050000Y-94275000D03*
X179050000Y-94775000D03*
X179050000Y-95275000D03*
X179050000Y-95775000D03*
X179050000Y-96275000D03*
X179050000Y-96775000D03*
D40*
X180000000Y-97725000D03*
X180500000Y-97725000D03*
X181000000Y-97725000D03*
X181500000Y-97725000D03*
X182000000Y-97725000D03*
X182500000Y-97725000D03*
X183000000Y-97725000D03*
D12*
X140500000Y-73225000D03*
X140500000Y-74775000D03*
D11*
X154500000Y-135675000D03*
X154500000Y-134125000D03*
D12*
X187500000Y-92000000D03*
X187500000Y-93550000D03*
X120500000Y-73225000D03*
X120500000Y-74775000D03*
D26*
X173500000Y-133824999D03*
X173500000Y-132174999D03*
X166750000Y-130750000D03*
X166750000Y-129100000D03*
D30*
X186624999Y-101550000D03*
X186624999Y-103450000D03*
X188499999Y-102500000D03*
D41*
X188637500Y-97450000D03*
X188637500Y-96500000D03*
X188637500Y-95550000D03*
X186362500Y-95550000D03*
X186362500Y-96500000D03*
X186362500Y-97450000D03*
D36*
X193325000Y-90000000D03*
X191675000Y-90000000D03*
D12*
X112800000Y-133000000D03*
X112800000Y-134550000D03*
D19*
X191425000Y-109550000D03*
X199375000Y-109550000D03*
X191425000Y-114050000D03*
X199375000Y-114050000D03*
D15*
X146750000Y-93200000D03*
X144850000Y-93200000D03*
D16*
X137950000Y-73150000D03*
X137950000Y-69850000D03*
X133050000Y-69850000D03*
X133050000Y-73150000D03*
D42*
X138875000Y-100410000D03*
X138875000Y-99140000D03*
X138875000Y-97870000D03*
X138875000Y-96600000D03*
X138875000Y-95330000D03*
X138875000Y-94060000D03*
X138875000Y-92790000D03*
X133925000Y-92790000D03*
X133925000Y-94060000D03*
X133925000Y-95330000D03*
X133925000Y-96600000D03*
X133925000Y-97870000D03*
X133925000Y-99140000D03*
X133925000Y-100410000D03*
D20*
X168500000Y-101175000D03*
X168500000Y-102825000D03*
D35*
X182850000Y-125500000D03*
X184500000Y-125500000D03*
D26*
X184000000Y-91150000D03*
X184000000Y-89500000D03*
X154500000Y-132324999D03*
X154500000Y-130674999D03*
D11*
X150500000Y-119775000D03*
X150500000Y-118225000D03*
X110500000Y-119775000D03*
X110500000Y-118225000D03*
D15*
X99950000Y-110000000D03*
X98050000Y-110000000D03*
D16*
X157950000Y-73150000D03*
X157950000Y-69850000D03*
X153050000Y-69850000D03*
X153050000Y-73150000D03*
X177950000Y-73150000D03*
X177950000Y-69850000D03*
X173050000Y-69850000D03*
X173050000Y-73150000D03*
D20*
X180000000Y-89500000D03*
X180000000Y-91150000D03*
D34*
X132750000Y-128024999D03*
X132750000Y-130974999D03*
D14*
X162000000Y-127287499D03*
X162000000Y-125712499D03*
D35*
X145175000Y-97000000D03*
X146825000Y-97000000D03*
D43*
X175112500Y-137475000D03*
X175112500Y-136825000D03*
X175112500Y-136175000D03*
X175112500Y-135525000D03*
X169387500Y-135525000D03*
X169387500Y-136175000D03*
X169387500Y-136825000D03*
X169387500Y-137475000D03*
D26*
X198000000Y-126225000D03*
X198000000Y-124575000D03*
D34*
X107600000Y-133125000D03*
X107600000Y-136075000D03*
D28*
X165770000Y-93500000D03*
X163230000Y-93500000D03*
X163230000Y-99500000D03*
X165770000Y-99500000D03*
D11*
X170600000Y-119775000D03*
X170600000Y-118225000D03*
D36*
X145575000Y-128499999D03*
X143925000Y-128499999D03*
D12*
X180500000Y-73225000D03*
X180500000Y-74775000D03*
D34*
X110400000Y-133125000D03*
X110400000Y-136075000D03*
D44*
X141650000Y-128749999D03*
X141650000Y-129249999D03*
X141650000Y-129749999D03*
X141650000Y-130249999D03*
D16*
X117950000Y-73150000D03*
X117950000Y-69850000D03*
X113050000Y-69850000D03*
X113050000Y-73150000D03*
D18*
X168500000Y-97550000D03*
X168500000Y-99450000D03*
D45*
X169162500Y-130049999D03*
X169162500Y-130999999D03*
X169162500Y-131949999D03*
X171437500Y-131949999D03*
X171437500Y-130999999D03*
X171437500Y-130049999D03*
D29*
X99775000Y-107500000D03*
X98225000Y-107500000D03*
M02*
