G04 #@! TF.GenerationSoftware,KiCad,Pcbnew,(6.0.10-0)*
G04 #@! TF.CreationDate,2023-01-31T00:07:50+01:00*
G04 #@! TF.ProjectId,breast-module-proto-v1,62726561-7374-42d6-9d6f-64756c652d70,Proto V1*
G04 #@! TF.SameCoordinates,Original*
G04 #@! TF.FileFunction,Legend,Top*
G04 #@! TF.FilePolarity,Positive*
%FSLAX46Y46*%
G04 Gerber Fmt 4.6, Leading zero omitted, Abs format (unit mm)*
G04 Created by KiCad (PCBNEW (6.0.10-0)) date 2023-01-31 00:07:50*
%MOMM*%
%LPD*%
G01*
G04 APERTURE LIST*
G04 Aperture macros list*
%AMRoundRect*
0 Rectangle with rounded corners*
0 $1 Rounding radius*
0 $2 $3 $4 $5 $6 $7 $8 $9 X,Y pos of 4 corners*
0 Add a 4 corners polygon primitive as box body*
4,1,4,$2,$3,$4,$5,$6,$7,$8,$9,$2,$3,0*
0 Add four circle primitives for the rounded corners*
1,1,$1+$1,$2,$3*
1,1,$1+$1,$4,$5*
1,1,$1+$1,$6,$7*
1,1,$1+$1,$8,$9*
0 Add four rect primitives between the rounded corners*
20,1,$1+$1,$2,$3,$4,$5,0*
20,1,$1+$1,$4,$5,$6,$7,0*
20,1,$1+$1,$6,$7,$8,$9,0*
20,1,$1+$1,$8,$9,$2,$3,0*%
%AMFreePoly0*
4,1,6,1.000000,0.000000,0.500000,-0.750000,-0.500000,-0.750000,-0.500000,0.750000,0.500000,0.750000,1.000000,0.000000,1.000000,0.000000,$1*%
%AMFreePoly1*
4,1,6,0.500000,-0.750000,-0.650000,-0.750000,-0.150000,0.000000,-0.650000,0.750000,0.500000,0.750000,0.500000,-0.750000,0.500000,-0.750000,$1*%
G04 Aperture macros list end*
%ADD10C,0.400000*%
%ADD11C,0.150000*%
%ADD12C,0.250000*%
%ADD13C,0.500000*%
%ADD14C,0.120000*%
%ADD15C,0.200000*%
%ADD16C,0.010000*%
%ADD17RoundRect,0.225000X0.250000X-0.225000X0.250000X0.225000X-0.250000X0.225000X-0.250000X-0.225000X0*%
%ADD18RoundRect,0.225000X-0.250000X0.225000X-0.250000X-0.225000X0.250000X-0.225000X0.250000X0.225000X0*%
%ADD19RoundRect,0.100000X-0.637500X-0.100000X0.637500X-0.100000X0.637500X0.100000X-0.637500X0.100000X0*%
%ADD20FreePoly0,270.000000*%
%ADD21FreePoly1,270.000000*%
%ADD22R,1.700000X1.700000*%
%ADD23O,1.700000X1.700000*%
%ADD24RoundRect,0.218750X0.256250X-0.218750X0.256250X0.218750X-0.256250X0.218750X-0.256250X-0.218750X0*%
%ADD25RoundRect,0.250000X0.250000X0.475000X-0.250000X0.475000X-0.250000X-0.475000X0.250000X-0.475000X0*%
%ADD26R,1.500000X0.900000*%
%ADD27RoundRect,0.150000X-0.825000X-0.150000X0.825000X-0.150000X0.825000X0.150000X-0.825000X0.150000X0*%
%ADD28RoundRect,0.250000X-0.475000X0.250000X-0.475000X-0.250000X0.475000X-0.250000X0.475000X0.250000X0*%
%ADD29R,1.550000X1.300000*%
%ADD30RoundRect,0.200000X-0.275000X0.200000X-0.275000X-0.200000X0.275000X-0.200000X0.275000X0.200000X0*%
%ADD31R,2.000000X1.500000*%
%ADD32R,2.000000X3.800000*%
%ADD33R,0.900000X1.500000*%
%ADD34C,0.475000*%
%ADD35R,4.200000X4.200000*%
%ADD36RoundRect,0.225000X-0.225000X-0.250000X0.225000X-0.250000X0.225000X0.250000X-0.225000X0.250000X0*%
%ADD37RoundRect,0.200000X0.275000X-0.200000X0.275000X0.200000X-0.275000X0.200000X-0.275000X-0.200000X0*%
%ADD38R,2.290000X3.000000*%
%ADD39RoundRect,0.187500X0.187500X-0.937500X0.187500X0.937500X-0.187500X0.937500X-0.187500X-0.937500X0*%
%ADD40RoundRect,0.225000X0.225000X0.250000X-0.225000X0.250000X-0.225000X-0.250000X0.225000X-0.250000X0*%
%ADD41RoundRect,0.150000X-0.587500X-0.150000X0.587500X-0.150000X0.587500X0.150000X-0.587500X0.150000X0*%
%ADD42R,2.500000X1.900000*%
%ADD43C,0.650000*%
%ADD44R,1.450000X0.600000*%
%ADD45R,1.450000X0.300000*%
%ADD46O,2.100000X1.000000*%
%ADD47O,1.600000X1.000000*%
%ADD48RoundRect,0.250000X-0.650000X0.325000X-0.650000X-0.325000X0.650000X-0.325000X0.650000X0.325000X0*%
%ADD49RoundRect,0.200000X-0.200000X-0.275000X0.200000X-0.275000X0.200000X0.275000X-0.200000X0.275000X0*%
%ADD50RoundRect,0.200000X0.200000X0.275000X-0.200000X0.275000X-0.200000X-0.275000X0.200000X-0.275000X0*%
%ADD51RoundRect,0.250000X0.650000X-0.325000X0.650000X0.325000X-0.650000X0.325000X-0.650000X-0.325000X0*%
%ADD52RoundRect,0.062500X0.337500X0.062500X-0.337500X0.062500X-0.337500X-0.062500X0.337500X-0.062500X0*%
%ADD53RoundRect,0.062500X0.062500X0.337500X-0.062500X0.337500X-0.062500X-0.337500X0.062500X-0.337500X0*%
%ADD54R,3.350000X3.350000*%
%ADD55RoundRect,0.150000X0.512500X0.150000X-0.512500X0.150000X-0.512500X-0.150000X0.512500X-0.150000X0*%
%ADD56RoundRect,0.150000X0.825000X0.150000X-0.825000X0.150000X-0.825000X-0.150000X0.825000X-0.150000X0*%
%ADD57RoundRect,0.100000X0.637500X0.100000X-0.637500X0.100000X-0.637500X-0.100000X0.637500X-0.100000X0*%
%ADD58RoundRect,0.150000X-0.512500X-0.150000X0.512500X-0.150000X0.512500X0.150000X-0.512500X0.150000X0*%
%ADD59RoundRect,0.250000X-0.750000X0.600000X-0.750000X-0.600000X0.750000X-0.600000X0.750000X0.600000X0*%
%ADD60O,2.000000X1.700000*%
G04 APERTURE END LIST*
D10*
X119309523Y-79949523D02*
X119595238Y-80044761D01*
X120071428Y-80044761D01*
X120261904Y-79949523D01*
X120357142Y-79854285D01*
X120452380Y-79663809D01*
X120452380Y-79473333D01*
X120357142Y-79282857D01*
X120261904Y-79187619D01*
X120071428Y-79092380D01*
X119690476Y-78997142D01*
X119499999Y-78901904D01*
X119404761Y-78806666D01*
X119309523Y-78616190D01*
X119309523Y-78425714D01*
X119404761Y-78235238D01*
X119499999Y-78140000D01*
X119690476Y-78044761D01*
X120166666Y-78044761D01*
X120452380Y-78140000D01*
X121309523Y-80044761D02*
X121309523Y-78044761D01*
X121499999Y-79282857D02*
X122071428Y-80044761D01*
X122071428Y-78711428D02*
X121309523Y-79473333D01*
X122928571Y-80044761D02*
X122928571Y-78711428D01*
X122928571Y-78044761D02*
X122833333Y-78140000D01*
X122928571Y-78235238D01*
X123023809Y-78140000D01*
X122928571Y-78044761D01*
X122928571Y-78235238D01*
X123880952Y-80044761D02*
X123880952Y-78711428D01*
X123880952Y-79092380D02*
X123976190Y-78901904D01*
X124071428Y-78806666D01*
X124261904Y-78711428D01*
X124452380Y-78711428D01*
X125119047Y-80044761D02*
X125119047Y-78711428D01*
X125119047Y-78901904D02*
X125214285Y-78806666D01*
X125404761Y-78711428D01*
X125690476Y-78711428D01*
X125880952Y-78806666D01*
X125976190Y-78997142D01*
X125976190Y-80044761D01*
X125976190Y-78997142D02*
X126071428Y-78806666D01*
X126261904Y-78711428D01*
X126547619Y-78711428D01*
X126738095Y-78806666D01*
X126833333Y-78997142D01*
X126833333Y-80044761D01*
X127785714Y-80044761D02*
X127785714Y-78711428D01*
X127785714Y-78044761D02*
X127690476Y-78140000D01*
X127785714Y-78235238D01*
X127880952Y-78140000D01*
X127785714Y-78044761D01*
X127785714Y-78235238D01*
X128642857Y-79949523D02*
X128833333Y-80044761D01*
X129214285Y-80044761D01*
X129404761Y-79949523D01*
X129499999Y-79759047D01*
X129499999Y-79663809D01*
X129404761Y-79473333D01*
X129214285Y-79378095D01*
X128928571Y-79378095D01*
X128738095Y-79282857D01*
X128642857Y-79092380D01*
X128642857Y-78997142D01*
X128738095Y-78806666D01*
X128928571Y-78711428D01*
X129214285Y-78711428D01*
X129404761Y-78806666D01*
X130357142Y-80044761D02*
X130357142Y-78044761D01*
X131214285Y-80044761D02*
X131214285Y-78997142D01*
X131119047Y-78806666D01*
X130928571Y-78711428D01*
X130642857Y-78711428D01*
X130452380Y-78806666D01*
X130357142Y-78901904D01*
X134357142Y-78997142D02*
X134642857Y-79092380D01*
X134738095Y-79187619D01*
X134833333Y-79378095D01*
X134833333Y-79663809D01*
X134738095Y-79854285D01*
X134642857Y-79949523D01*
X134452380Y-80044761D01*
X133690476Y-80044761D01*
X133690476Y-78044761D01*
X134357142Y-78044761D01*
X134547619Y-78140000D01*
X134642857Y-78235238D01*
X134738095Y-78425714D01*
X134738095Y-78616190D01*
X134642857Y-78806666D01*
X134547619Y-78901904D01*
X134357142Y-78997142D01*
X133690476Y-78997142D01*
X135690476Y-80044761D02*
X135690476Y-78711428D01*
X135690476Y-79092380D02*
X135785714Y-78901904D01*
X135880952Y-78806666D01*
X136071428Y-78711428D01*
X136261904Y-78711428D01*
X137690476Y-79949523D02*
X137500000Y-80044761D01*
X137119047Y-80044761D01*
X136928571Y-79949523D01*
X136833333Y-79759047D01*
X136833333Y-78997142D01*
X136928571Y-78806666D01*
X137119047Y-78711428D01*
X137500000Y-78711428D01*
X137690476Y-78806666D01*
X137785714Y-78997142D01*
X137785714Y-79187619D01*
X136833333Y-79378095D01*
X139500000Y-80044761D02*
X139500000Y-78997142D01*
X139404761Y-78806666D01*
X139214285Y-78711428D01*
X138833333Y-78711428D01*
X138642857Y-78806666D01*
X139500000Y-79949523D02*
X139309523Y-80044761D01*
X138833333Y-80044761D01*
X138642857Y-79949523D01*
X138547619Y-79759047D01*
X138547619Y-79568571D01*
X138642857Y-79378095D01*
X138833333Y-79282857D01*
X139309523Y-79282857D01*
X139500000Y-79187619D01*
X140357142Y-79949523D02*
X140547619Y-80044761D01*
X140928571Y-80044761D01*
X141119047Y-79949523D01*
X141214285Y-79759047D01*
X141214285Y-79663809D01*
X141119047Y-79473333D01*
X140928571Y-79378095D01*
X140642857Y-79378095D01*
X140452380Y-79282857D01*
X140357142Y-79092380D01*
X140357142Y-78997142D01*
X140452380Y-78806666D01*
X140642857Y-78711428D01*
X140928571Y-78711428D01*
X141119047Y-78806666D01*
X141785714Y-78711428D02*
X142547619Y-78711428D01*
X142071428Y-78044761D02*
X142071428Y-79759047D01*
X142166666Y-79949523D01*
X142357142Y-80044761D01*
X142547619Y-80044761D01*
X144738095Y-80044761D02*
X144738095Y-78044761D01*
X145404761Y-79473333D01*
X146071428Y-78044761D01*
X146071428Y-80044761D01*
X147309523Y-80044761D02*
X147119047Y-79949523D01*
X147023809Y-79854285D01*
X146928571Y-79663809D01*
X146928571Y-79092380D01*
X147023809Y-78901904D01*
X147119047Y-78806666D01*
X147309523Y-78711428D01*
X147595238Y-78711428D01*
X147785714Y-78806666D01*
X147880952Y-78901904D01*
X147976190Y-79092380D01*
X147976190Y-79663809D01*
X147880952Y-79854285D01*
X147785714Y-79949523D01*
X147595238Y-80044761D01*
X147309523Y-80044761D01*
X149690476Y-80044761D02*
X149690476Y-78044761D01*
X149690476Y-79949523D02*
X149499999Y-80044761D01*
X149119047Y-80044761D01*
X148928571Y-79949523D01*
X148833333Y-79854285D01*
X148738095Y-79663809D01*
X148738095Y-79092380D01*
X148833333Y-78901904D01*
X148928571Y-78806666D01*
X149119047Y-78711428D01*
X149499999Y-78711428D01*
X149690476Y-78806666D01*
X151499999Y-78711428D02*
X151499999Y-80044761D01*
X150642857Y-78711428D02*
X150642857Y-79759047D01*
X150738095Y-79949523D01*
X150928571Y-80044761D01*
X151214285Y-80044761D01*
X151404761Y-79949523D01*
X151499999Y-79854285D01*
X152738095Y-80044761D02*
X152547619Y-79949523D01*
X152452380Y-79759047D01*
X152452380Y-78044761D01*
X154261904Y-79949523D02*
X154071428Y-80044761D01*
X153690476Y-80044761D01*
X153500000Y-79949523D01*
X153404761Y-79759047D01*
X153404761Y-78997142D01*
X153500000Y-78806666D01*
X153690476Y-78711428D01*
X154071428Y-78711428D01*
X154261904Y-78806666D01*
X154357142Y-78997142D01*
X154357142Y-79187619D01*
X153404761Y-79378095D01*
X157309523Y-80806666D02*
X157214285Y-80711428D01*
X157023809Y-80425714D01*
X156928571Y-80235238D01*
X156833333Y-79949523D01*
X156738095Y-79473333D01*
X156738095Y-79092380D01*
X156833333Y-78616190D01*
X156928571Y-78330476D01*
X157023809Y-78140000D01*
X157214285Y-77854285D01*
X157309523Y-77759047D01*
X158071428Y-80044761D02*
X158071428Y-78044761D01*
X158833333Y-78044761D01*
X159023809Y-78140000D01*
X159119047Y-78235238D01*
X159214285Y-78425714D01*
X159214285Y-78711428D01*
X159119047Y-78901904D01*
X159023809Y-78997142D01*
X158833333Y-79092380D01*
X158071428Y-79092380D01*
X160071428Y-80044761D02*
X160071428Y-78711428D01*
X160071428Y-79092380D02*
X160166666Y-78901904D01*
X160261904Y-78806666D01*
X160452380Y-78711428D01*
X160642857Y-78711428D01*
X161595238Y-80044761D02*
X161404761Y-79949523D01*
X161309523Y-79854285D01*
X161214285Y-79663809D01*
X161214285Y-79092380D01*
X161309523Y-78901904D01*
X161404761Y-78806666D01*
X161595238Y-78711428D01*
X161880952Y-78711428D01*
X162071428Y-78806666D01*
X162166666Y-78901904D01*
X162261904Y-79092380D01*
X162261904Y-79663809D01*
X162166666Y-79854285D01*
X162071428Y-79949523D01*
X161880952Y-80044761D01*
X161595238Y-80044761D01*
X162833333Y-78711428D02*
X163595238Y-78711428D01*
X163119047Y-78044761D02*
X163119047Y-79759047D01*
X163214285Y-79949523D01*
X163404761Y-80044761D01*
X163595238Y-80044761D01*
X164547619Y-80044761D02*
X164357142Y-79949523D01*
X164261904Y-79854285D01*
X164166666Y-79663809D01*
X164166666Y-79092380D01*
X164261904Y-78901904D01*
X164357142Y-78806666D01*
X164547619Y-78711428D01*
X164833333Y-78711428D01*
X165023809Y-78806666D01*
X165119047Y-78901904D01*
X165214285Y-79092380D01*
X165214285Y-79663809D01*
X165119047Y-79854285D01*
X165023809Y-79949523D01*
X164833333Y-80044761D01*
X164547619Y-80044761D01*
X167309523Y-78044761D02*
X167976190Y-80044761D01*
X168642857Y-78044761D01*
X170357142Y-80044761D02*
X169214285Y-80044761D01*
X169785714Y-80044761D02*
X169785714Y-78044761D01*
X169595238Y-78330476D01*
X169404761Y-78520952D01*
X169214285Y-78616190D01*
X171023809Y-80806666D02*
X171119047Y-80711428D01*
X171309523Y-80425714D01*
X171404761Y-80235238D01*
X171499999Y-79949523D01*
X171595238Y-79473333D01*
X171595238Y-79092380D01*
X171499999Y-78616190D01*
X171404761Y-78330476D01*
X171309523Y-78140000D01*
X171119047Y-77854285D01*
X171023809Y-77759047D01*
X123214285Y-83264761D02*
X123214285Y-81264761D01*
X123690476Y-81264761D01*
X123976190Y-81360000D01*
X124166666Y-81550476D01*
X124261904Y-81740952D01*
X124357142Y-82121904D01*
X124357142Y-82407619D01*
X124261904Y-82788571D01*
X124166666Y-82979047D01*
X123976190Y-83169523D01*
X123690476Y-83264761D01*
X123214285Y-83264761D01*
X125976190Y-83169523D02*
X125785714Y-83264761D01*
X125404761Y-83264761D01*
X125214285Y-83169523D01*
X125119047Y-82979047D01*
X125119047Y-82217142D01*
X125214285Y-82026666D01*
X125404761Y-81931428D01*
X125785714Y-81931428D01*
X125976190Y-82026666D01*
X126071428Y-82217142D01*
X126071428Y-82407619D01*
X125119047Y-82598095D01*
X126833333Y-83169523D02*
X127023809Y-83264761D01*
X127404761Y-83264761D01*
X127595238Y-83169523D01*
X127690476Y-82979047D01*
X127690476Y-82883809D01*
X127595238Y-82693333D01*
X127404761Y-82598095D01*
X127119047Y-82598095D01*
X126928571Y-82502857D01*
X126833333Y-82312380D01*
X126833333Y-82217142D01*
X126928571Y-82026666D01*
X127119047Y-81931428D01*
X127404761Y-81931428D01*
X127595238Y-82026666D01*
X128547619Y-83264761D02*
X128547619Y-81931428D01*
X128547619Y-81264761D02*
X128452380Y-81360000D01*
X128547619Y-81455238D01*
X128642857Y-81360000D01*
X128547619Y-81264761D01*
X128547619Y-81455238D01*
X130357142Y-81931428D02*
X130357142Y-83550476D01*
X130261904Y-83740952D01*
X130166666Y-83836190D01*
X129976190Y-83931428D01*
X129690476Y-83931428D01*
X129500000Y-83836190D01*
X130357142Y-83169523D02*
X130166666Y-83264761D01*
X129785714Y-83264761D01*
X129595238Y-83169523D01*
X129500000Y-83074285D01*
X129404761Y-82883809D01*
X129404761Y-82312380D01*
X129500000Y-82121904D01*
X129595238Y-82026666D01*
X129785714Y-81931428D01*
X130166666Y-81931428D01*
X130357142Y-82026666D01*
X131309523Y-81931428D02*
X131309523Y-83264761D01*
X131309523Y-82121904D02*
X131404761Y-82026666D01*
X131595238Y-81931428D01*
X131880952Y-81931428D01*
X132071428Y-82026666D01*
X132166666Y-82217142D01*
X132166666Y-83264761D01*
X136071428Y-81169523D02*
X134357142Y-83740952D01*
X138833333Y-84026666D02*
X138738095Y-83931428D01*
X138547619Y-83645714D01*
X138452380Y-83455238D01*
X138357142Y-83169523D01*
X138261904Y-82693333D01*
X138261904Y-82312380D01*
X138357142Y-81836190D01*
X138452380Y-81550476D01*
X138547619Y-81360000D01*
X138738095Y-81074285D01*
X138833333Y-80979047D01*
X140738095Y-83074285D02*
X140642857Y-83169523D01*
X140357142Y-83264761D01*
X140166666Y-83264761D01*
X139880952Y-83169523D01*
X139690476Y-82979047D01*
X139595238Y-82788571D01*
X139500000Y-82407619D01*
X139500000Y-82121904D01*
X139595238Y-81740952D01*
X139690476Y-81550476D01*
X139880952Y-81360000D01*
X140166666Y-81264761D01*
X140357142Y-81264761D01*
X140642857Y-81360000D01*
X140738095Y-81455238D01*
X141404761Y-84026666D02*
X141500000Y-83931428D01*
X141690476Y-83645714D01*
X141785714Y-83455238D01*
X141880952Y-83169523D01*
X141976190Y-82693333D01*
X141976190Y-82312380D01*
X141880952Y-81836190D01*
X141785714Y-81550476D01*
X141690476Y-81360000D01*
X141500000Y-81074285D01*
X141404761Y-80979047D01*
X144357142Y-81455238D02*
X144452380Y-81360000D01*
X144642857Y-81264761D01*
X145119047Y-81264761D01*
X145309523Y-81360000D01*
X145404761Y-81455238D01*
X145500000Y-81645714D01*
X145500000Y-81836190D01*
X145404761Y-82121904D01*
X144261904Y-83264761D01*
X145500000Y-83264761D01*
X146738095Y-81264761D02*
X146928571Y-81264761D01*
X147119047Y-81360000D01*
X147214285Y-81455238D01*
X147309523Y-81645714D01*
X147404761Y-82026666D01*
X147404761Y-82502857D01*
X147309523Y-82883809D01*
X147214285Y-83074285D01*
X147119047Y-83169523D01*
X146928571Y-83264761D01*
X146738095Y-83264761D01*
X146547619Y-83169523D01*
X146452380Y-83074285D01*
X146357142Y-82883809D01*
X146261904Y-82502857D01*
X146261904Y-82026666D01*
X146357142Y-81645714D01*
X146452380Y-81455238D01*
X146547619Y-81360000D01*
X146738095Y-81264761D01*
X148166666Y-81455238D02*
X148261904Y-81360000D01*
X148452380Y-81264761D01*
X148928571Y-81264761D01*
X149119047Y-81360000D01*
X149214285Y-81455238D01*
X149309523Y-81645714D01*
X149309523Y-81836190D01*
X149214285Y-82121904D01*
X148071428Y-83264761D01*
X149309523Y-83264761D01*
X149976190Y-81264761D02*
X151214285Y-81264761D01*
X150547619Y-82026666D01*
X150833333Y-82026666D01*
X151023809Y-82121904D01*
X151119047Y-82217142D01*
X151214285Y-82407619D01*
X151214285Y-82883809D01*
X151119047Y-83074285D01*
X151023809Y-83169523D01*
X150833333Y-83264761D01*
X150261904Y-83264761D01*
X150071428Y-83169523D01*
X149976190Y-83074285D01*
X153976190Y-81264761D02*
X154357142Y-81264761D01*
X154547619Y-81360000D01*
X154738095Y-81550476D01*
X154833333Y-81931428D01*
X154833333Y-82598095D01*
X154738095Y-82979047D01*
X154547619Y-83169523D01*
X154357142Y-83264761D01*
X153976190Y-83264761D01*
X153785714Y-83169523D01*
X153595238Y-82979047D01*
X153500000Y-82598095D01*
X153500000Y-81931428D01*
X153595238Y-81550476D01*
X153785714Y-81360000D01*
X153976190Y-81264761D01*
X155976190Y-83264761D02*
X155785714Y-83169523D01*
X155690476Y-82979047D01*
X155690476Y-81264761D01*
X157500000Y-83169523D02*
X157309523Y-83264761D01*
X156928571Y-83264761D01*
X156738095Y-83169523D01*
X156642857Y-82979047D01*
X156642857Y-82217142D01*
X156738095Y-82026666D01*
X156928571Y-81931428D01*
X157309523Y-81931428D01*
X157500000Y-82026666D01*
X157595238Y-82217142D01*
X157595238Y-82407619D01*
X156642857Y-82598095D01*
X160928571Y-83264761D02*
X159976190Y-83264761D01*
X159976190Y-81264761D01*
X162452380Y-83264761D02*
X162452380Y-82217142D01*
X162357142Y-82026666D01*
X162166666Y-81931428D01*
X161785714Y-81931428D01*
X161595238Y-82026666D01*
X162452380Y-83169523D02*
X162261904Y-83264761D01*
X161785714Y-83264761D01*
X161595238Y-83169523D01*
X161500000Y-82979047D01*
X161500000Y-82788571D01*
X161595238Y-82598095D01*
X161785714Y-82502857D01*
X162261904Y-82502857D01*
X162452380Y-82407619D01*
X163404761Y-81931428D02*
X163404761Y-83264761D01*
X163404761Y-82121904D02*
X163500000Y-82026666D01*
X163690476Y-81931428D01*
X163976190Y-81931428D01*
X164166666Y-82026666D01*
X164261904Y-82217142D01*
X164261904Y-83264761D01*
X166071428Y-81931428D02*
X166071428Y-83550476D01*
X165976190Y-83740952D01*
X165880952Y-83836190D01*
X165690476Y-83931428D01*
X165404761Y-83931428D01*
X165214285Y-83836190D01*
X166071428Y-83169523D02*
X165880952Y-83264761D01*
X165499999Y-83264761D01*
X165309523Y-83169523D01*
X165214285Y-83074285D01*
X165119047Y-82883809D01*
X165119047Y-82312380D01*
X165214285Y-82121904D01*
X165309523Y-82026666D01*
X165499999Y-81931428D01*
X165880952Y-81931428D01*
X166071428Y-82026666D01*
X167785714Y-83169523D02*
X167595238Y-83264761D01*
X167214285Y-83264761D01*
X167023809Y-83169523D01*
X166928571Y-82979047D01*
X166928571Y-82217142D01*
X167023809Y-82026666D01*
X167214285Y-81931428D01*
X167595238Y-81931428D01*
X167785714Y-82026666D01*
X167880952Y-82217142D01*
X167880952Y-82407619D01*
X166928571Y-82598095D01*
D11*
X99000000Y-56000000D02*
X102000000Y-56000000D01*
X141750000Y-54000000D02*
X174250000Y-54000000D01*
X174250000Y-54000000D02*
X174250000Y-64000000D01*
X174250000Y-64000000D02*
X141750000Y-64000000D01*
X141750000Y-64000000D02*
X141750000Y-54000000D01*
G36*
X141750000Y-54000000D02*
G01*
X174250000Y-54000000D01*
X174250000Y-64000000D01*
X141750000Y-64000000D01*
X141750000Y-54000000D01*
G37*
X139250001Y-127499999D02*
X139750000Y-127999999D01*
X176500000Y-56000000D02*
X179500000Y-56000000D01*
D12*
X120714285Y-56178571D02*
X120714285Y-54678571D01*
X121071428Y-54678571D01*
X121285714Y-54750000D01*
X121428571Y-54892857D01*
X121500000Y-55035714D01*
X121571428Y-55321428D01*
X121571428Y-55535714D01*
X121500000Y-55821428D01*
X121428571Y-55964285D01*
X121285714Y-56107142D01*
X121071428Y-56178571D01*
X120714285Y-56178571D01*
X122785714Y-56107142D02*
X122642857Y-56178571D01*
X122357142Y-56178571D01*
X122214285Y-56107142D01*
X122142857Y-55964285D01*
X122142857Y-55392857D01*
X122214285Y-55250000D01*
X122357142Y-55178571D01*
X122642857Y-55178571D01*
X122785714Y-55250000D01*
X122857142Y-55392857D01*
X122857142Y-55535714D01*
X122142857Y-55678571D01*
X123357142Y-55178571D02*
X123714285Y-56178571D01*
X124071428Y-55178571D01*
X124642857Y-56178571D02*
X124642857Y-55178571D01*
X124642857Y-54678571D02*
X124571428Y-54750000D01*
X124642857Y-54821428D01*
X124714285Y-54750000D01*
X124642857Y-54678571D01*
X124642857Y-54821428D01*
X126000000Y-56107142D02*
X125857142Y-56178571D01*
X125571428Y-56178571D01*
X125428571Y-56107142D01*
X125357142Y-56035714D01*
X125285714Y-55892857D01*
X125285714Y-55464285D01*
X125357142Y-55321428D01*
X125428571Y-55250000D01*
X125571428Y-55178571D01*
X125857142Y-55178571D01*
X126000000Y-55250000D01*
X127214285Y-56107142D02*
X127071428Y-56178571D01*
X126785714Y-56178571D01*
X126642857Y-56107142D01*
X126571428Y-55964285D01*
X126571428Y-55392857D01*
X126642857Y-55250000D01*
X126785714Y-55178571D01*
X127071428Y-55178571D01*
X127214285Y-55250000D01*
X127285714Y-55392857D01*
X127285714Y-55535714D01*
X126571428Y-55678571D01*
X129071428Y-56178571D02*
X129071428Y-54678571D01*
X129928571Y-56178571D01*
X129928571Y-54678571D01*
X131285714Y-56178571D02*
X131285714Y-55392857D01*
X131214285Y-55250000D01*
X131071428Y-55178571D01*
X130785714Y-55178571D01*
X130642857Y-55250000D01*
X131285714Y-56107142D02*
X131142857Y-56178571D01*
X130785714Y-56178571D01*
X130642857Y-56107142D01*
X130571428Y-55964285D01*
X130571428Y-55821428D01*
X130642857Y-55678571D01*
X130785714Y-55607142D01*
X131142857Y-55607142D01*
X131285714Y-55535714D01*
X131999999Y-56178571D02*
X131999999Y-55178571D01*
X131999999Y-55321428D02*
X132071428Y-55250000D01*
X132214285Y-55178571D01*
X132428571Y-55178571D01*
X132571428Y-55250000D01*
X132642857Y-55392857D01*
X132642857Y-56178571D01*
X132642857Y-55392857D02*
X132714285Y-55250000D01*
X132857142Y-55178571D01*
X133071428Y-55178571D01*
X133214285Y-55250000D01*
X133285714Y-55392857D01*
X133285714Y-56178571D01*
X134571428Y-56107142D02*
X134428571Y-56178571D01*
X134142857Y-56178571D01*
X133999999Y-56107142D01*
X133928571Y-55964285D01*
X133928571Y-55392857D01*
X133999999Y-55250000D01*
X134142857Y-55178571D01*
X134428571Y-55178571D01*
X134571428Y-55250000D01*
X134642857Y-55392857D01*
X134642857Y-55535714D01*
X133928571Y-55678571D01*
X135285714Y-56035714D02*
X135357142Y-56107142D01*
X135285714Y-56178571D01*
X135214285Y-56107142D01*
X135285714Y-56035714D01*
X135285714Y-56178571D01*
X135285714Y-55250000D02*
X135357142Y-55321428D01*
X135285714Y-55392857D01*
X135214285Y-55321428D01*
X135285714Y-55250000D01*
X135285714Y-55392857D01*
D13*
X121357142Y-60214285D02*
X121642857Y-60357142D01*
X122214285Y-60357142D01*
X122500000Y-60214285D01*
X122642857Y-59928571D01*
X122642857Y-59785714D01*
X122500000Y-59500000D01*
X122214285Y-59357142D01*
X121785714Y-59357142D01*
X121500000Y-59214285D01*
X121357142Y-58928571D01*
X121357142Y-58785714D01*
X121500000Y-58500000D01*
X121785714Y-58357142D01*
X122214285Y-58357142D01*
X122500000Y-58500000D01*
X123928571Y-60357142D02*
X123928571Y-57357142D01*
X124214285Y-59214285D02*
X125071428Y-60357142D01*
X125071428Y-58357142D02*
X123928571Y-59500000D01*
X126357142Y-60357142D02*
X126357142Y-58357142D01*
X126357142Y-58928571D02*
X126500000Y-58642857D01*
X126642857Y-58500000D01*
X126928571Y-58357142D01*
X127214285Y-58357142D01*
X128214285Y-60357142D02*
X128214285Y-58357142D01*
X128214285Y-58642857D02*
X128357142Y-58500000D01*
X128642857Y-58357142D01*
X129071428Y-58357142D01*
X129357142Y-58500000D01*
X129500000Y-58785714D01*
X129500000Y-60357142D01*
X129500000Y-58785714D02*
X129642857Y-58500000D01*
X129928571Y-58357142D01*
X130357142Y-58357142D01*
X130642857Y-58500000D01*
X130785714Y-58785714D01*
X130785714Y-60357142D01*
X132214285Y-60357142D02*
X132214285Y-57357142D01*
X132214285Y-58500000D02*
X132500000Y-58357142D01*
X133071428Y-58357142D01*
X133357142Y-58500000D01*
X133500000Y-58642857D01*
X133642857Y-58928571D01*
X133642857Y-59785714D01*
X133500000Y-60071428D01*
X133357142Y-60214285D01*
X133071428Y-60357142D01*
X132500000Y-60357142D01*
X132214285Y-60214285D01*
X134928571Y-60357142D02*
X134928571Y-58357142D01*
X134928571Y-58928571D02*
X135071428Y-58642857D01*
X135214285Y-58500000D01*
X135500000Y-58357142D01*
X135785714Y-58357142D01*
X136642857Y-60214285D02*
X136928571Y-60357142D01*
X137500000Y-60357142D01*
X137785714Y-60214285D01*
X137928571Y-59928571D01*
X137928571Y-59785714D01*
X137785714Y-59500000D01*
X137500000Y-59357142D01*
X137071428Y-59357142D01*
X136785714Y-59214285D01*
X136642857Y-58928571D01*
X136642857Y-58785714D01*
X136785714Y-58500000D01*
X137071428Y-58357142D01*
X137500000Y-58357142D01*
X137785714Y-58500000D01*
X138785714Y-58357142D02*
X139928571Y-58357142D01*
X139214285Y-57357142D02*
X139214285Y-59928571D01*
X139357142Y-60214285D01*
X139642857Y-60357142D01*
X139928571Y-60357142D01*
D11*
X129427142Y-119642857D02*
X129474761Y-119690476D01*
X129522380Y-119833333D01*
X129522380Y-119928571D01*
X129474761Y-120071428D01*
X129379523Y-120166666D01*
X129284285Y-120214285D01*
X129093809Y-120261904D01*
X128950952Y-120261904D01*
X128760476Y-120214285D01*
X128665238Y-120166666D01*
X128570000Y-120071428D01*
X128522380Y-119928571D01*
X128522380Y-119833333D01*
X128570000Y-119690476D01*
X128617619Y-119642857D01*
X128617619Y-119261904D02*
X128570000Y-119214285D01*
X128522380Y-119119047D01*
X128522380Y-118880952D01*
X128570000Y-118785714D01*
X128617619Y-118738095D01*
X128712857Y-118690476D01*
X128808095Y-118690476D01*
X128950952Y-118738095D01*
X129522380Y-119309523D01*
X129522380Y-118690476D01*
X129522380Y-118214285D02*
X129522380Y-118023809D01*
X129474761Y-117928571D01*
X129427142Y-117880952D01*
X129284285Y-117785714D01*
X129093809Y-117738095D01*
X128712857Y-117738095D01*
X128617619Y-117785714D01*
X128570000Y-117833333D01*
X128522380Y-117928571D01*
X128522380Y-118119047D01*
X128570000Y-118214285D01*
X128617619Y-118261904D01*
X128712857Y-118309523D01*
X128950952Y-118309523D01*
X129046190Y-118261904D01*
X129093809Y-118214285D01*
X129141428Y-118119047D01*
X129141428Y-117928571D01*
X129093809Y-117833333D01*
X129046190Y-117785714D01*
X128950952Y-117738095D01*
X162287142Y-74642857D02*
X162334761Y-74690476D01*
X162382380Y-74833333D01*
X162382380Y-74928571D01*
X162334761Y-75071428D01*
X162239523Y-75166666D01*
X162144285Y-75214285D01*
X161953809Y-75261904D01*
X161810952Y-75261904D01*
X161620476Y-75214285D01*
X161525238Y-75166666D01*
X161430000Y-75071428D01*
X161382380Y-74928571D01*
X161382380Y-74833333D01*
X161430000Y-74690476D01*
X161477619Y-74642857D01*
X161382380Y-74309523D02*
X161382380Y-73690476D01*
X161763333Y-74023809D01*
X161763333Y-73880952D01*
X161810952Y-73785714D01*
X161858571Y-73738095D01*
X161953809Y-73690476D01*
X162191904Y-73690476D01*
X162287142Y-73738095D01*
X162334761Y-73785714D01*
X162382380Y-73880952D01*
X162382380Y-74166666D01*
X162334761Y-74261904D01*
X162287142Y-74309523D01*
X161382380Y-73357142D02*
X161382380Y-72738095D01*
X161763333Y-73071428D01*
X161763333Y-72928571D01*
X161810952Y-72833333D01*
X161858571Y-72785714D01*
X161953809Y-72738095D01*
X162191904Y-72738095D01*
X162287142Y-72785714D01*
X162334761Y-72833333D01*
X162382380Y-72928571D01*
X162382380Y-73214285D01*
X162334761Y-73309523D01*
X162287142Y-73357142D01*
X150961904Y-91452380D02*
X150961904Y-92261904D01*
X151009523Y-92357142D01*
X151057142Y-92404761D01*
X151152380Y-92452380D01*
X151342857Y-92452380D01*
X151438095Y-92404761D01*
X151485714Y-92357142D01*
X151533333Y-92261904D01*
X151533333Y-91452380D01*
X152533333Y-92452380D02*
X151961904Y-92452380D01*
X152247619Y-92452380D02*
X152247619Y-91452380D01*
X152152380Y-91595238D01*
X152057142Y-91690476D01*
X151961904Y-91738095D01*
X152866666Y-91452380D02*
X153485714Y-91452380D01*
X153152380Y-91833333D01*
X153295238Y-91833333D01*
X153390476Y-91880952D01*
X153438095Y-91928571D01*
X153485714Y-92023809D01*
X153485714Y-92261904D01*
X153438095Y-92357142D01*
X153390476Y-92404761D01*
X153295238Y-92452380D01*
X153009523Y-92452380D01*
X152914285Y-92404761D01*
X152866666Y-92357142D01*
X155252380Y-108963095D02*
X154252380Y-108963095D01*
X154966666Y-108629761D01*
X154252380Y-108296428D01*
X155252380Y-108296428D01*
X155157142Y-107248809D02*
X155204761Y-107296428D01*
X155252380Y-107439285D01*
X155252380Y-107534523D01*
X155204761Y-107677380D01*
X155109523Y-107772619D01*
X155014285Y-107820238D01*
X154823809Y-107867857D01*
X154680952Y-107867857D01*
X154490476Y-107820238D01*
X154395238Y-107772619D01*
X154300000Y-107677380D01*
X154252380Y-107534523D01*
X154252380Y-107439285D01*
X154300000Y-107296428D01*
X154347619Y-107248809D01*
X154728571Y-106486904D02*
X154728571Y-106820238D01*
X155252380Y-106820238D02*
X154252380Y-106820238D01*
X154252380Y-106344047D01*
X154300000Y-105439285D02*
X154252380Y-105534523D01*
X154252380Y-105677380D01*
X154300000Y-105820238D01*
X154395238Y-105915476D01*
X154490476Y-105963095D01*
X154680952Y-106010714D01*
X154823809Y-106010714D01*
X155014285Y-105963095D01*
X155109523Y-105915476D01*
X155204761Y-105820238D01*
X155252380Y-105677380D01*
X155252380Y-105582142D01*
X155204761Y-105439285D01*
X155157142Y-105391666D01*
X154823809Y-105391666D01*
X154823809Y-105582142D01*
X154252380Y-104772619D02*
X154252380Y-104677380D01*
X154300000Y-104582142D01*
X154347619Y-104534523D01*
X154442857Y-104486904D01*
X154633333Y-104439285D01*
X154871428Y-104439285D01*
X155061904Y-104486904D01*
X155157142Y-104534523D01*
X155204761Y-104582142D01*
X155252380Y-104677380D01*
X155252380Y-104772619D01*
X155204761Y-104867857D01*
X155157142Y-104915476D01*
X155061904Y-104963095D01*
X154871428Y-105010714D01*
X154633333Y-105010714D01*
X154442857Y-104963095D01*
X154347619Y-104915476D01*
X154300000Y-104867857D01*
X154252380Y-104772619D01*
X114982380Y-54333333D02*
X115696666Y-54333333D01*
X115839523Y-54380952D01*
X115934761Y-54476190D01*
X115982380Y-54619047D01*
X115982380Y-54714285D01*
X114982380Y-53952380D02*
X114982380Y-53333333D01*
X115363333Y-53666666D01*
X115363333Y-53523809D01*
X115410952Y-53428571D01*
X115458571Y-53380952D01*
X115553809Y-53333333D01*
X115791904Y-53333333D01*
X115887142Y-53380952D01*
X115934761Y-53428571D01*
X115982380Y-53523809D01*
X115982380Y-53809523D01*
X115934761Y-53904761D01*
X115887142Y-53952380D01*
X157261904Y-129452379D02*
X157261904Y-128452379D01*
X157500000Y-128452379D01*
X157642857Y-128499999D01*
X157738095Y-128595237D01*
X157785714Y-128690475D01*
X157833333Y-128880951D01*
X157833333Y-129023808D01*
X157785714Y-129214284D01*
X157738095Y-129309522D01*
X157642857Y-129404760D01*
X157500000Y-129452379D01*
X157261904Y-129452379D01*
X158785714Y-129452379D02*
X158214285Y-129452379D01*
X158500000Y-129452379D02*
X158500000Y-128452379D01*
X158404761Y-128595237D01*
X158309523Y-128690475D01*
X158214285Y-128738094D01*
X105857142Y-108642857D02*
X105904761Y-108690476D01*
X105952380Y-108833333D01*
X105952380Y-108928571D01*
X105904761Y-109071428D01*
X105809523Y-109166666D01*
X105714285Y-109214285D01*
X105523809Y-109261904D01*
X105380952Y-109261904D01*
X105190476Y-109214285D01*
X105095238Y-109166666D01*
X105000000Y-109071428D01*
X104952380Y-108928571D01*
X104952380Y-108833333D01*
X105000000Y-108690476D01*
X105047619Y-108642857D01*
X105952380Y-107690476D02*
X105952380Y-108261904D01*
X105952380Y-107976190D02*
X104952380Y-107976190D01*
X105095238Y-108071428D01*
X105190476Y-108166666D01*
X105238095Y-108261904D01*
X104952380Y-107357142D02*
X104952380Y-106690476D01*
X105952380Y-107119047D01*
X192282380Y-54333333D02*
X192996666Y-54333333D01*
X193139523Y-54380952D01*
X193234761Y-54476190D01*
X193282380Y-54619047D01*
X193282380Y-54714285D01*
X192377619Y-53904761D02*
X192330000Y-53857142D01*
X192282380Y-53761904D01*
X192282380Y-53523809D01*
X192330000Y-53428571D01*
X192377619Y-53380952D01*
X192472857Y-53333333D01*
X192568095Y-53333333D01*
X192710952Y-53380952D01*
X193282380Y-53952380D01*
X193282380Y-53333333D01*
X134761904Y-118452380D02*
X134761904Y-117452380D01*
X135000000Y-117452380D01*
X135142857Y-117500000D01*
X135238095Y-117595238D01*
X135285714Y-117690476D01*
X135333333Y-117880952D01*
X135333333Y-118023809D01*
X135285714Y-118214285D01*
X135238095Y-118309523D01*
X135142857Y-118404761D01*
X135000000Y-118452380D01*
X134761904Y-118452380D01*
X136238095Y-117452380D02*
X135761904Y-117452380D01*
X135714285Y-117928571D01*
X135761904Y-117880952D01*
X135857142Y-117833333D01*
X136095238Y-117833333D01*
X136190476Y-117880952D01*
X136238095Y-117928571D01*
X136285714Y-118023809D01*
X136285714Y-118261904D01*
X136238095Y-118357142D01*
X136190476Y-118404761D01*
X136095238Y-118452380D01*
X135857142Y-118452380D01*
X135761904Y-118404761D01*
X135714285Y-118357142D01*
X185957142Y-90417857D02*
X186004761Y-90465476D01*
X186052380Y-90608333D01*
X186052380Y-90703571D01*
X186004761Y-90846428D01*
X185909523Y-90941666D01*
X185814285Y-90989285D01*
X185623809Y-91036904D01*
X185480952Y-91036904D01*
X185290476Y-90989285D01*
X185195238Y-90941666D01*
X185100000Y-90846428D01*
X185052380Y-90703571D01*
X185052380Y-90608333D01*
X185100000Y-90465476D01*
X185147619Y-90417857D01*
X185147619Y-90036904D02*
X185100000Y-89989285D01*
X185052380Y-89894047D01*
X185052380Y-89655952D01*
X185100000Y-89560714D01*
X185147619Y-89513095D01*
X185242857Y-89465476D01*
X185338095Y-89465476D01*
X185480952Y-89513095D01*
X186052380Y-90084523D01*
X186052380Y-89465476D01*
X185052380Y-88846428D02*
X185052380Y-88751190D01*
X185100000Y-88655952D01*
X185147619Y-88608333D01*
X185242857Y-88560714D01*
X185433333Y-88513095D01*
X185671428Y-88513095D01*
X185861904Y-88560714D01*
X185957142Y-88608333D01*
X186004761Y-88655952D01*
X186052380Y-88751190D01*
X186052380Y-88846428D01*
X186004761Y-88941666D01*
X185957142Y-88989285D01*
X185861904Y-89036904D01*
X185671428Y-89084523D01*
X185433333Y-89084523D01*
X185242857Y-89036904D01*
X185147619Y-88989285D01*
X185100000Y-88941666D01*
X185052380Y-88846428D01*
X183638095Y-120452380D02*
X183638095Y-121261904D01*
X183685714Y-121357142D01*
X183733333Y-121404761D01*
X183828571Y-121452380D01*
X184019047Y-121452380D01*
X184114285Y-121404761D01*
X184161904Y-121357142D01*
X184209523Y-121261904D01*
X184209523Y-120452380D01*
X185114285Y-120452380D02*
X184923809Y-120452380D01*
X184828571Y-120500000D01*
X184780952Y-120547619D01*
X184685714Y-120690476D01*
X184638095Y-120880952D01*
X184638095Y-121261904D01*
X184685714Y-121357142D01*
X184733333Y-121404761D01*
X184828571Y-121452380D01*
X185019047Y-121452380D01*
X185114285Y-121404761D01*
X185161904Y-121357142D01*
X185209523Y-121261904D01*
X185209523Y-121023809D01*
X185161904Y-120928571D01*
X185114285Y-120880952D01*
X185019047Y-120833333D01*
X184828571Y-120833333D01*
X184733333Y-120880952D01*
X184685714Y-120928571D01*
X184638095Y-121023809D01*
X174761904Y-118452380D02*
X174761904Y-117452380D01*
X175000000Y-117452380D01*
X175142857Y-117500000D01*
X175238095Y-117595238D01*
X175285714Y-117690476D01*
X175333333Y-117880952D01*
X175333333Y-118023809D01*
X175285714Y-118214285D01*
X175238095Y-118309523D01*
X175142857Y-118404761D01*
X175000000Y-118452380D01*
X174761904Y-118452380D01*
X175666666Y-117452380D02*
X176285714Y-117452380D01*
X175952380Y-117833333D01*
X176095238Y-117833333D01*
X176190476Y-117880952D01*
X176238095Y-117928571D01*
X176285714Y-118023809D01*
X176285714Y-118261904D01*
X176238095Y-118357142D01*
X176190476Y-118404761D01*
X176095238Y-118452380D01*
X175809523Y-118452380D01*
X175714285Y-118404761D01*
X175666666Y-118357142D01*
X165107142Y-133642857D02*
X165154761Y-133690476D01*
X165202380Y-133833333D01*
X165202380Y-133928571D01*
X165154761Y-134071428D01*
X165059523Y-134166666D01*
X164964285Y-134214285D01*
X164773809Y-134261904D01*
X164630952Y-134261904D01*
X164440476Y-134214285D01*
X164345238Y-134166666D01*
X164250000Y-134071428D01*
X164202380Y-133928571D01*
X164202380Y-133833333D01*
X164250000Y-133690476D01*
X164297619Y-133642857D01*
X165202380Y-132690476D02*
X165202380Y-133261904D01*
X165202380Y-132976190D02*
X164202380Y-132976190D01*
X164345238Y-133071428D01*
X164440476Y-133166666D01*
X164488095Y-133261904D01*
X164535714Y-131833333D02*
X165202380Y-131833333D01*
X164154761Y-132071428D02*
X164869047Y-132309523D01*
X164869047Y-131690476D01*
X194780952Y-115402380D02*
X194971428Y-115402380D01*
X195066666Y-115450000D01*
X195161904Y-115545238D01*
X195209523Y-115735714D01*
X195209523Y-116069047D01*
X195161904Y-116259523D01*
X195066666Y-116354761D01*
X194971428Y-116402380D01*
X194780952Y-116402380D01*
X194685714Y-116354761D01*
X194590476Y-116259523D01*
X194542857Y-116069047D01*
X194542857Y-115735714D01*
X194590476Y-115545238D01*
X194685714Y-115450000D01*
X194780952Y-115402380D01*
X195638095Y-116402380D02*
X195638095Y-115402380D01*
X196209523Y-116402380D01*
X196209523Y-115402380D01*
X106382380Y-84642857D02*
X105906190Y-84976190D01*
X106382380Y-85214285D02*
X105382380Y-85214285D01*
X105382380Y-84833333D01*
X105430000Y-84738095D01*
X105477619Y-84690476D01*
X105572857Y-84642857D01*
X105715714Y-84642857D01*
X105810952Y-84690476D01*
X105858571Y-84738095D01*
X105906190Y-84833333D01*
X105906190Y-85214285D01*
X106382380Y-83690476D02*
X106382380Y-84261904D01*
X106382380Y-83976190D02*
X105382380Y-83976190D01*
X105525238Y-84071428D01*
X105620476Y-84166666D01*
X105668095Y-84261904D01*
X105810952Y-83119047D02*
X105763333Y-83214285D01*
X105715714Y-83261904D01*
X105620476Y-83309523D01*
X105572857Y-83309523D01*
X105477619Y-83261904D01*
X105430000Y-83214285D01*
X105382380Y-83119047D01*
X105382380Y-82928571D01*
X105430000Y-82833333D01*
X105477619Y-82785714D01*
X105572857Y-82738095D01*
X105620476Y-82738095D01*
X105715714Y-82785714D01*
X105763333Y-82833333D01*
X105810952Y-82928571D01*
X105810952Y-83119047D01*
X105858571Y-83214285D01*
X105906190Y-83261904D01*
X106001428Y-83309523D01*
X106191904Y-83309523D01*
X106287142Y-83261904D01*
X106334761Y-83214285D01*
X106382380Y-83119047D01*
X106382380Y-82928571D01*
X106334761Y-82833333D01*
X106287142Y-82785714D01*
X106191904Y-82738095D01*
X106001428Y-82738095D01*
X105906190Y-82785714D01*
X105858571Y-82833333D01*
X105810952Y-82928571D01*
X117688095Y-136927380D02*
X117688095Y-137736904D01*
X117735714Y-137832142D01*
X117783333Y-137879761D01*
X117878571Y-137927380D01*
X118069047Y-137927380D01*
X118164285Y-137879761D01*
X118211904Y-137832142D01*
X118259523Y-137736904D01*
X118259523Y-136927380D01*
X119259523Y-137927380D02*
X118688095Y-137927380D01*
X118973809Y-137927380D02*
X118973809Y-136927380D01*
X118878571Y-137070238D01*
X118783333Y-137165476D01*
X118688095Y-137213095D01*
X175357142Y-130642856D02*
X175404761Y-130690475D01*
X175452380Y-130833332D01*
X175452380Y-130928570D01*
X175404761Y-131071427D01*
X175309523Y-131166665D01*
X175214285Y-131214284D01*
X175023809Y-131261903D01*
X174880952Y-131261903D01*
X174690476Y-131214284D01*
X174595238Y-131166665D01*
X174500000Y-131071427D01*
X174452380Y-130928570D01*
X174452380Y-130833332D01*
X174500000Y-130690475D01*
X174547619Y-130642856D01*
X175452380Y-129690475D02*
X175452380Y-130261903D01*
X175452380Y-129976189D02*
X174452380Y-129976189D01*
X174595238Y-130071427D01*
X174690476Y-130166665D01*
X174738095Y-130261903D01*
X174452380Y-129071427D02*
X174452380Y-128976189D01*
X174500000Y-128880951D01*
X174547619Y-128833332D01*
X174642857Y-128785713D01*
X174833333Y-128738094D01*
X175071428Y-128738094D01*
X175261904Y-128785713D01*
X175357142Y-128833332D01*
X175404761Y-128880951D01*
X175452380Y-128976189D01*
X175452380Y-129071427D01*
X175404761Y-129166665D01*
X175357142Y-129214284D01*
X175261904Y-129261903D01*
X175071428Y-129309522D01*
X174833333Y-129309522D01*
X174642857Y-129261903D01*
X174547619Y-129214284D01*
X174500000Y-129166665D01*
X174452380Y-129071427D01*
X102382380Y-84642857D02*
X101906190Y-84976190D01*
X102382380Y-85214285D02*
X101382380Y-85214285D01*
X101382380Y-84833333D01*
X101430000Y-84738095D01*
X101477619Y-84690476D01*
X101572857Y-84642857D01*
X101715714Y-84642857D01*
X101810952Y-84690476D01*
X101858571Y-84738095D01*
X101906190Y-84833333D01*
X101906190Y-85214285D01*
X102382380Y-83690476D02*
X102382380Y-84261904D01*
X102382380Y-83976190D02*
X101382380Y-83976190D01*
X101525238Y-84071428D01*
X101620476Y-84166666D01*
X101668095Y-84261904D01*
X101382380Y-83357142D02*
X101382380Y-82690476D01*
X102382380Y-83119047D01*
X130857142Y-99092856D02*
X130904761Y-99140475D01*
X130952380Y-99283332D01*
X130952380Y-99378570D01*
X130904761Y-99521427D01*
X130809523Y-99616665D01*
X130714285Y-99664284D01*
X130523809Y-99711903D01*
X130380952Y-99711903D01*
X130190476Y-99664284D01*
X130095238Y-99616665D01*
X130000000Y-99521427D01*
X129952380Y-99378570D01*
X129952380Y-99283332D01*
X130000000Y-99140475D01*
X130047619Y-99092856D01*
X130047619Y-98711903D02*
X130000000Y-98664284D01*
X129952380Y-98569046D01*
X129952380Y-98330951D01*
X130000000Y-98235713D01*
X130047619Y-98188094D01*
X130142857Y-98140475D01*
X130238095Y-98140475D01*
X130380952Y-98188094D01*
X130952380Y-98759522D01*
X130952380Y-98140475D01*
X130047619Y-97759522D02*
X130000000Y-97711903D01*
X129952380Y-97616665D01*
X129952380Y-97378570D01*
X130000000Y-97283332D01*
X130047619Y-97235713D01*
X130142857Y-97188094D01*
X130238095Y-97188094D01*
X130380952Y-97235713D01*
X130952380Y-97807141D01*
X130952380Y-97188094D01*
X114168095Y-106562380D02*
X114168095Y-107371904D01*
X114215714Y-107467142D01*
X114263333Y-107514761D01*
X114358571Y-107562380D01*
X114549047Y-107562380D01*
X114644285Y-107514761D01*
X114691904Y-107467142D01*
X114739523Y-107371904D01*
X114739523Y-106562380D01*
X115120476Y-106562380D02*
X115787142Y-106562380D01*
X115358571Y-107562380D01*
X136957142Y-102757142D02*
X136909523Y-102804761D01*
X136766666Y-102852380D01*
X136671428Y-102852380D01*
X136528571Y-102804761D01*
X136433333Y-102709523D01*
X136385714Y-102614285D01*
X136338095Y-102423809D01*
X136338095Y-102280952D01*
X136385714Y-102090476D01*
X136433333Y-101995238D01*
X136528571Y-101900000D01*
X136671428Y-101852380D01*
X136766666Y-101852380D01*
X136909523Y-101900000D01*
X136957142Y-101947619D01*
X137338095Y-101947619D02*
X137385714Y-101900000D01*
X137480952Y-101852380D01*
X137719047Y-101852380D01*
X137814285Y-101900000D01*
X137861904Y-101947619D01*
X137909523Y-102042857D01*
X137909523Y-102138095D01*
X137861904Y-102280952D01*
X137290476Y-102852380D01*
X137909523Y-102852380D01*
X138766666Y-102185714D02*
X138766666Y-102852380D01*
X138528571Y-101804761D02*
X138290476Y-102519047D01*
X138909523Y-102519047D01*
X130952380Y-102642857D02*
X130476190Y-102976190D01*
X130952380Y-103214285D02*
X129952380Y-103214285D01*
X129952380Y-102833333D01*
X130000000Y-102738095D01*
X130047619Y-102690476D01*
X130142857Y-102642857D01*
X130285714Y-102642857D01*
X130380952Y-102690476D01*
X130428571Y-102738095D01*
X130476190Y-102833333D01*
X130476190Y-103214285D01*
X130047619Y-102261904D02*
X130000000Y-102214285D01*
X129952380Y-102119047D01*
X129952380Y-101880952D01*
X130000000Y-101785714D01*
X130047619Y-101738095D01*
X130142857Y-101690476D01*
X130238095Y-101690476D01*
X130380952Y-101738095D01*
X130952380Y-102309523D01*
X130952380Y-101690476D01*
X130285714Y-100833333D02*
X130952380Y-100833333D01*
X129904761Y-101071428D02*
X130619047Y-101309523D01*
X130619047Y-100690476D01*
X152702380Y-108963095D02*
X151702380Y-108963095D01*
X152416666Y-108629761D01*
X151702380Y-108296428D01*
X152702380Y-108296428D01*
X152607142Y-107248809D02*
X152654761Y-107296428D01*
X152702380Y-107439285D01*
X152702380Y-107534523D01*
X152654761Y-107677380D01*
X152559523Y-107772619D01*
X152464285Y-107820238D01*
X152273809Y-107867857D01*
X152130952Y-107867857D01*
X151940476Y-107820238D01*
X151845238Y-107772619D01*
X151750000Y-107677380D01*
X151702380Y-107534523D01*
X151702380Y-107439285D01*
X151750000Y-107296428D01*
X151797619Y-107248809D01*
X152178571Y-106486904D02*
X152178571Y-106820238D01*
X152702380Y-106820238D02*
X151702380Y-106820238D01*
X151702380Y-106344047D01*
X151750000Y-105439285D02*
X151702380Y-105534523D01*
X151702380Y-105677380D01*
X151750000Y-105820238D01*
X151845238Y-105915476D01*
X151940476Y-105963095D01*
X152130952Y-106010714D01*
X152273809Y-106010714D01*
X152464285Y-105963095D01*
X152559523Y-105915476D01*
X152654761Y-105820238D01*
X152702380Y-105677380D01*
X152702380Y-105582142D01*
X152654761Y-105439285D01*
X152607142Y-105391666D01*
X152273809Y-105391666D01*
X152273809Y-105582142D01*
X152702380Y-104439285D02*
X152702380Y-105010714D01*
X152702380Y-104725000D02*
X151702380Y-104725000D01*
X151845238Y-104820238D01*
X151940476Y-104915476D01*
X151988095Y-105010714D01*
X149952380Y-108963095D02*
X148952380Y-108963095D01*
X149666666Y-108629761D01*
X148952380Y-108296428D01*
X149952380Y-108296428D01*
X149857142Y-107248809D02*
X149904761Y-107296428D01*
X149952380Y-107439285D01*
X149952380Y-107534523D01*
X149904761Y-107677380D01*
X149809523Y-107772619D01*
X149714285Y-107820238D01*
X149523809Y-107867857D01*
X149380952Y-107867857D01*
X149190476Y-107820238D01*
X149095238Y-107772619D01*
X149000000Y-107677380D01*
X148952380Y-107534523D01*
X148952380Y-107439285D01*
X149000000Y-107296428D01*
X149047619Y-107248809D01*
X149428571Y-106486904D02*
X149428571Y-106820238D01*
X149952380Y-106820238D02*
X148952380Y-106820238D01*
X148952380Y-106344047D01*
X149000000Y-105439285D02*
X148952380Y-105534523D01*
X148952380Y-105677380D01*
X149000000Y-105820238D01*
X149095238Y-105915476D01*
X149190476Y-105963095D01*
X149380952Y-106010714D01*
X149523809Y-106010714D01*
X149714285Y-105963095D01*
X149809523Y-105915476D01*
X149904761Y-105820238D01*
X149952380Y-105677380D01*
X149952380Y-105582142D01*
X149904761Y-105439285D01*
X149857142Y-105391666D01*
X149523809Y-105391666D01*
X149523809Y-105582142D01*
X149047619Y-105010714D02*
X149000000Y-104963095D01*
X148952380Y-104867857D01*
X148952380Y-104629761D01*
X149000000Y-104534523D01*
X149047619Y-104486904D01*
X149142857Y-104439285D01*
X149238095Y-104439285D01*
X149380952Y-104486904D01*
X149952380Y-105058333D01*
X149952380Y-104439285D01*
X194852380Y-129242857D02*
X194376190Y-129576190D01*
X194852380Y-129814285D02*
X193852380Y-129814285D01*
X193852380Y-129433333D01*
X193900000Y-129338095D01*
X193947619Y-129290476D01*
X194042857Y-129242857D01*
X194185714Y-129242857D01*
X194280952Y-129290476D01*
X194328571Y-129338095D01*
X194376190Y-129433333D01*
X194376190Y-129814285D01*
X194852380Y-128290476D02*
X194852380Y-128861904D01*
X194852380Y-128576190D02*
X193852380Y-128576190D01*
X193995238Y-128671428D01*
X194090476Y-128766666D01*
X194138095Y-128861904D01*
X193852380Y-127671428D02*
X193852380Y-127576190D01*
X193900000Y-127480952D01*
X193947619Y-127433333D01*
X194042857Y-127385714D01*
X194233333Y-127338095D01*
X194471428Y-127338095D01*
X194661904Y-127385714D01*
X194757142Y-127433333D01*
X194804761Y-127480952D01*
X194852380Y-127576190D01*
X194852380Y-127671428D01*
X194804761Y-127766666D01*
X194757142Y-127814285D01*
X194661904Y-127861904D01*
X194471428Y-127909523D01*
X194233333Y-127909523D01*
X194042857Y-127861904D01*
X193947619Y-127814285D01*
X193900000Y-127766666D01*
X193852380Y-127671428D01*
X177857142Y-105452380D02*
X177523809Y-104976190D01*
X177285714Y-105452380D02*
X177285714Y-104452380D01*
X177666666Y-104452380D01*
X177761904Y-104500000D01*
X177809523Y-104547619D01*
X177857142Y-104642857D01*
X177857142Y-104785714D01*
X177809523Y-104880952D01*
X177761904Y-104928571D01*
X177666666Y-104976190D01*
X177285714Y-104976190D01*
X178238095Y-104547619D02*
X178285714Y-104500000D01*
X178380952Y-104452380D01*
X178619047Y-104452380D01*
X178714285Y-104500000D01*
X178761904Y-104547619D01*
X178809523Y-104642857D01*
X178809523Y-104738095D01*
X178761904Y-104880952D01*
X178190476Y-105452380D01*
X178809523Y-105452380D01*
X179142857Y-104452380D02*
X179761904Y-104452380D01*
X179428571Y-104833333D01*
X179571428Y-104833333D01*
X179666666Y-104880952D01*
X179714285Y-104928571D01*
X179761904Y-105023809D01*
X179761904Y-105261904D01*
X179714285Y-105357142D01*
X179666666Y-105404761D01*
X179571428Y-105452380D01*
X179285714Y-105452380D01*
X179190476Y-105404761D01*
X179142857Y-105357142D01*
X154761904Y-118452380D02*
X154761904Y-117452380D01*
X155000000Y-117452380D01*
X155142857Y-117500000D01*
X155238095Y-117595238D01*
X155285714Y-117690476D01*
X155333333Y-117880952D01*
X155333333Y-118023809D01*
X155285714Y-118214285D01*
X155238095Y-118309523D01*
X155142857Y-118404761D01*
X155000000Y-118452380D01*
X154761904Y-118452380D01*
X156190476Y-117785714D02*
X156190476Y-118452380D01*
X155952380Y-117404761D02*
X155714285Y-118119047D01*
X156333333Y-118119047D01*
X158738095Y-136452380D02*
X158738095Y-137261904D01*
X158785714Y-137357142D01*
X158833333Y-137404761D01*
X158928571Y-137452380D01*
X159119047Y-137452380D01*
X159214285Y-137404761D01*
X159261904Y-137357142D01*
X159309523Y-137261904D01*
X159309523Y-136452380D01*
X159738095Y-136547619D02*
X159785714Y-136500000D01*
X159880952Y-136452380D01*
X160119047Y-136452380D01*
X160214285Y-136500000D01*
X160261904Y-136547619D01*
X160309523Y-136642857D01*
X160309523Y-136738095D01*
X160261904Y-136880952D01*
X159690476Y-137452380D01*
X160309523Y-137452380D01*
X123261904Y-101952380D02*
X123261904Y-102761904D01*
X123309523Y-102857142D01*
X123357142Y-102904761D01*
X123452380Y-102952380D01*
X123642857Y-102952380D01*
X123738095Y-102904761D01*
X123785714Y-102857142D01*
X123833333Y-102761904D01*
X123833333Y-101952380D01*
X124833333Y-102952380D02*
X124261904Y-102952380D01*
X124547619Y-102952380D02*
X124547619Y-101952380D01*
X124452380Y-102095238D01*
X124357142Y-102190476D01*
X124261904Y-102238095D01*
X125785714Y-102952380D02*
X125214285Y-102952380D01*
X125500000Y-102952380D02*
X125500000Y-101952380D01*
X125404761Y-102095238D01*
X125309523Y-102190476D01*
X125214285Y-102238095D01*
X107441562Y-109357142D02*
X107393943Y-109404761D01*
X107251086Y-109452380D01*
X107155848Y-109452380D01*
X107012991Y-109404761D01*
X106917753Y-109309523D01*
X106870134Y-109214285D01*
X106822515Y-109023809D01*
X106822515Y-108880952D01*
X106870134Y-108690476D01*
X106917753Y-108595238D01*
X107012991Y-108500000D01*
X107155848Y-108452380D01*
X107251086Y-108452380D01*
X107393943Y-108500000D01*
X107441562Y-108547619D01*
X108393943Y-109452380D02*
X107822515Y-109452380D01*
X108108229Y-109452380D02*
X108108229Y-108452380D01*
X108012991Y-108595238D01*
X107917753Y-108690476D01*
X107822515Y-108738095D01*
X108727277Y-108452380D02*
X109346324Y-108452380D01*
X109012991Y-108833333D01*
X109155848Y-108833333D01*
X109251086Y-108880952D01*
X109298705Y-108928571D01*
X109346324Y-109023809D01*
X109346324Y-109261904D01*
X109298705Y-109357142D01*
X109251086Y-109404761D01*
X109155848Y-109452380D01*
X108870134Y-109452380D01*
X108774896Y-109404761D01*
X108727277Y-109357142D01*
X193052380Y-129242857D02*
X192576190Y-129576190D01*
X193052380Y-129814285D02*
X192052380Y-129814285D01*
X192052380Y-129433333D01*
X192100000Y-129338095D01*
X192147619Y-129290476D01*
X192242857Y-129242857D01*
X192385714Y-129242857D01*
X192480952Y-129290476D01*
X192528571Y-129338095D01*
X192576190Y-129433333D01*
X192576190Y-129814285D01*
X193052380Y-128290476D02*
X193052380Y-128861904D01*
X193052380Y-128576190D02*
X192052380Y-128576190D01*
X192195238Y-128671428D01*
X192290476Y-128766666D01*
X192338095Y-128861904D01*
X192147619Y-127909523D02*
X192100000Y-127861904D01*
X192052380Y-127766666D01*
X192052380Y-127528571D01*
X192100000Y-127433333D01*
X192147619Y-127385714D01*
X192242857Y-127338095D01*
X192338095Y-127338095D01*
X192480952Y-127385714D01*
X193052380Y-127957142D01*
X193052380Y-127338095D01*
X141782142Y-95557142D02*
X141734523Y-95604761D01*
X141591666Y-95652380D01*
X141496428Y-95652380D01*
X141353571Y-95604761D01*
X141258333Y-95509523D01*
X141210714Y-95414285D01*
X141163095Y-95223809D01*
X141163095Y-95080952D01*
X141210714Y-94890476D01*
X141258333Y-94795238D01*
X141353571Y-94700000D01*
X141496428Y-94652380D01*
X141591666Y-94652380D01*
X141734523Y-94700000D01*
X141782142Y-94747619D01*
X142163095Y-94747619D02*
X142210714Y-94700000D01*
X142305952Y-94652380D01*
X142544047Y-94652380D01*
X142639285Y-94700000D01*
X142686904Y-94747619D01*
X142734523Y-94842857D01*
X142734523Y-94938095D01*
X142686904Y-95080952D01*
X142115476Y-95652380D01*
X142734523Y-95652380D01*
X143639285Y-94652380D02*
X143163095Y-94652380D01*
X143115476Y-95128571D01*
X143163095Y-95080952D01*
X143258333Y-95033333D01*
X143496428Y-95033333D01*
X143591666Y-95080952D01*
X143639285Y-95128571D01*
X143686904Y-95223809D01*
X143686904Y-95461904D01*
X143639285Y-95557142D01*
X143591666Y-95604761D01*
X143496428Y-95652380D01*
X143258333Y-95652380D01*
X143163095Y-95604761D01*
X143115476Y-95557142D01*
X181404761Y-105547619D02*
X181309523Y-105500000D01*
X181214285Y-105404761D01*
X181071428Y-105261904D01*
X180976190Y-105214285D01*
X180880952Y-105214285D01*
X180928571Y-105452380D02*
X180833333Y-105404761D01*
X180738095Y-105309523D01*
X180690476Y-105119047D01*
X180690476Y-104785714D01*
X180738095Y-104595238D01*
X180833333Y-104500000D01*
X180928571Y-104452380D01*
X181119047Y-104452380D01*
X181214285Y-104500000D01*
X181309523Y-104595238D01*
X181357142Y-104785714D01*
X181357142Y-105119047D01*
X181309523Y-105309523D01*
X181214285Y-105404761D01*
X181119047Y-105452380D01*
X180928571Y-105452380D01*
X182309523Y-105452380D02*
X181738095Y-105452380D01*
X182023809Y-105452380D02*
X182023809Y-104452380D01*
X181928571Y-104595238D01*
X181833333Y-104690476D01*
X181738095Y-104738095D01*
X142083333Y-138952379D02*
X141607142Y-138952379D01*
X141607142Y-137952379D01*
X142940476Y-138952379D02*
X142369047Y-138952379D01*
X142654761Y-138952379D02*
X142654761Y-137952379D01*
X142559523Y-138095237D01*
X142464285Y-138190475D01*
X142369047Y-138238094D01*
X159833333Y-129452379D02*
X159500000Y-128976189D01*
X159261904Y-129452379D02*
X159261904Y-128452379D01*
X159642857Y-128452379D01*
X159738095Y-128499999D01*
X159785714Y-128547618D01*
X159833333Y-128642856D01*
X159833333Y-128785713D01*
X159785714Y-128880951D01*
X159738095Y-128928570D01*
X159642857Y-128976189D01*
X159261904Y-128976189D01*
X160690476Y-128785713D02*
X160690476Y-129452379D01*
X160452380Y-128404760D02*
X160214285Y-129119046D01*
X160833333Y-129119046D01*
X124557142Y-128741666D02*
X124604761Y-128789285D01*
X124652380Y-128932142D01*
X124652380Y-129027380D01*
X124604761Y-129170238D01*
X124509523Y-129265476D01*
X124414285Y-129313095D01*
X124223809Y-129360714D01*
X124080952Y-129360714D01*
X123890476Y-129313095D01*
X123795238Y-129265476D01*
X123700000Y-129170238D01*
X123652380Y-129027380D01*
X123652380Y-128932142D01*
X123700000Y-128789285D01*
X123747619Y-128741666D01*
X123985714Y-127884523D02*
X124652380Y-127884523D01*
X123604761Y-128122619D02*
X124319047Y-128360714D01*
X124319047Y-127741666D01*
X135857141Y-133892856D02*
X135904760Y-133940475D01*
X135952379Y-134083332D01*
X135952379Y-134178570D01*
X135904760Y-134321427D01*
X135809522Y-134416665D01*
X135714284Y-134464284D01*
X135523808Y-134511903D01*
X135380951Y-134511903D01*
X135190475Y-134464284D01*
X135095237Y-134416665D01*
X134999999Y-134321427D01*
X134952379Y-134178570D01*
X134952379Y-134083332D01*
X134999999Y-133940475D01*
X135047618Y-133892856D01*
X135952379Y-132940475D02*
X135952379Y-133511903D01*
X135952379Y-133226189D02*
X134952379Y-133226189D01*
X135095237Y-133321427D01*
X135190475Y-133416665D01*
X135238094Y-133511903D01*
X135952379Y-131988094D02*
X135952379Y-132559522D01*
X135952379Y-132273808D02*
X134952379Y-132273808D01*
X135095237Y-132369046D01*
X135190475Y-132464284D01*
X135238094Y-132559522D01*
X185957142Y-108957142D02*
X185909523Y-109004761D01*
X185766666Y-109052380D01*
X185671428Y-109052380D01*
X185528571Y-109004761D01*
X185433333Y-108909523D01*
X185385714Y-108814285D01*
X185338095Y-108623809D01*
X185338095Y-108480952D01*
X185385714Y-108290476D01*
X185433333Y-108195238D01*
X185528571Y-108100000D01*
X185671428Y-108052380D01*
X185766666Y-108052380D01*
X185909523Y-108100000D01*
X185957142Y-108147619D01*
X186909523Y-109052380D02*
X186338095Y-109052380D01*
X186623809Y-109052380D02*
X186623809Y-108052380D01*
X186528571Y-108195238D01*
X186433333Y-108290476D01*
X186338095Y-108338095D01*
X187766666Y-108052380D02*
X187576190Y-108052380D01*
X187480952Y-108100000D01*
X187433333Y-108147619D01*
X187338095Y-108290476D01*
X187290476Y-108480952D01*
X187290476Y-108861904D01*
X187338095Y-108957142D01*
X187385714Y-109004761D01*
X187480952Y-109052380D01*
X187671428Y-109052380D01*
X187766666Y-109004761D01*
X187814285Y-108957142D01*
X187861904Y-108861904D01*
X187861904Y-108623809D01*
X187814285Y-108528571D01*
X187766666Y-108480952D01*
X187671428Y-108433333D01*
X187480952Y-108433333D01*
X187385714Y-108480952D01*
X187338095Y-108528571D01*
X187290476Y-108623809D01*
X147083332Y-130607141D02*
X147035713Y-130654760D01*
X146892856Y-130702379D01*
X146797618Y-130702379D01*
X146654760Y-130654760D01*
X146559522Y-130559522D01*
X146511903Y-130464284D01*
X146464284Y-130273808D01*
X146464284Y-130130951D01*
X146511903Y-129940475D01*
X146559522Y-129845237D01*
X146654760Y-129749999D01*
X146797618Y-129702379D01*
X146892856Y-129702379D01*
X147035713Y-129749999D01*
X147083332Y-129797618D01*
X147559522Y-130702379D02*
X147749999Y-130702379D01*
X147845237Y-130654760D01*
X147892856Y-130607141D01*
X147988094Y-130464284D01*
X148035713Y-130273808D01*
X148035713Y-129892856D01*
X147988094Y-129797618D01*
X147940475Y-129749999D01*
X147845237Y-129702379D01*
X147654760Y-129702379D01*
X147559522Y-129749999D01*
X147511903Y-129797618D01*
X147464284Y-129892856D01*
X147464284Y-130130951D01*
X147511903Y-130226189D01*
X147559522Y-130273808D01*
X147654760Y-130321427D01*
X147845237Y-130321427D01*
X147940475Y-130273808D01*
X147988094Y-130226189D01*
X148035713Y-130130951D01*
X138607142Y-133142856D02*
X138654761Y-133190475D01*
X138702380Y-133333332D01*
X138702380Y-133428570D01*
X138654761Y-133571427D01*
X138559523Y-133666665D01*
X138464285Y-133714284D01*
X138273809Y-133761903D01*
X138130952Y-133761903D01*
X137940476Y-133714284D01*
X137845238Y-133666665D01*
X137750000Y-133571427D01*
X137702380Y-133428570D01*
X137702380Y-133333332D01*
X137750000Y-133190475D01*
X137797619Y-133142856D01*
X138702380Y-132190475D02*
X138702380Y-132761903D01*
X138702380Y-132476189D02*
X137702380Y-132476189D01*
X137845238Y-132571427D01*
X137940476Y-132666665D01*
X137988095Y-132761903D01*
X137702380Y-131285713D02*
X137702380Y-131761903D01*
X138178571Y-131809522D01*
X138130952Y-131761903D01*
X138083333Y-131666665D01*
X138083333Y-131428570D01*
X138130952Y-131333332D01*
X138178571Y-131285713D01*
X138273809Y-131238094D01*
X138511904Y-131238094D01*
X138607142Y-131285713D01*
X138654761Y-131333332D01*
X138702380Y-131428570D01*
X138702380Y-131666665D01*
X138654761Y-131761903D01*
X138607142Y-131809522D01*
X183857142Y-105452380D02*
X183523809Y-104976190D01*
X183285714Y-105452380D02*
X183285714Y-104452380D01*
X183666666Y-104452380D01*
X183761904Y-104500000D01*
X183809523Y-104547619D01*
X183857142Y-104642857D01*
X183857142Y-104785714D01*
X183809523Y-104880952D01*
X183761904Y-104928571D01*
X183666666Y-104976190D01*
X183285714Y-104976190D01*
X184238095Y-104547619D02*
X184285714Y-104500000D01*
X184380952Y-104452380D01*
X184619047Y-104452380D01*
X184714285Y-104500000D01*
X184761904Y-104547619D01*
X184809523Y-104642857D01*
X184809523Y-104738095D01*
X184761904Y-104880952D01*
X184190476Y-105452380D01*
X184809523Y-105452380D01*
X185190476Y-104547619D02*
X185238095Y-104500000D01*
X185333333Y-104452380D01*
X185571428Y-104452380D01*
X185666666Y-104500000D01*
X185714285Y-104547619D01*
X185761904Y-104642857D01*
X185761904Y-104738095D01*
X185714285Y-104880952D01*
X185142857Y-105452380D01*
X185761904Y-105452380D01*
X155833333Y-129452379D02*
X155500000Y-128976189D01*
X155261904Y-129452379D02*
X155261904Y-128452379D01*
X155642857Y-128452379D01*
X155738095Y-128499999D01*
X155785714Y-128547618D01*
X155833333Y-128642856D01*
X155833333Y-128785713D01*
X155785714Y-128880951D01*
X155738095Y-128928570D01*
X155642857Y-128976189D01*
X155261904Y-128976189D01*
X156166666Y-128452379D02*
X156785714Y-128452379D01*
X156452380Y-128833332D01*
X156595238Y-128833332D01*
X156690476Y-128880951D01*
X156738095Y-128928570D01*
X156785714Y-129023808D01*
X156785714Y-129261903D01*
X156738095Y-129357141D01*
X156690476Y-129404760D01*
X156595238Y-129452379D01*
X156309523Y-129452379D01*
X156214285Y-129404760D01*
X156166666Y-129357141D01*
X141083333Y-125357141D02*
X141035714Y-125404760D01*
X140892857Y-125452379D01*
X140797619Y-125452379D01*
X140654761Y-125404760D01*
X140559523Y-125309522D01*
X140511904Y-125214284D01*
X140464285Y-125023808D01*
X140464285Y-124880951D01*
X140511904Y-124690475D01*
X140559523Y-124595237D01*
X140654761Y-124499999D01*
X140797619Y-124452379D01*
X140892857Y-124452379D01*
X141035714Y-124499999D01*
X141083333Y-124547618D01*
X141654761Y-124880951D02*
X141559523Y-124833332D01*
X141511904Y-124785713D01*
X141464285Y-124690475D01*
X141464285Y-124642856D01*
X141511904Y-124547618D01*
X141559523Y-124499999D01*
X141654761Y-124452379D01*
X141845238Y-124452379D01*
X141940476Y-124499999D01*
X141988095Y-124547618D01*
X142035714Y-124642856D01*
X142035714Y-124690475D01*
X141988095Y-124785713D01*
X141940476Y-124833332D01*
X141845238Y-124880951D01*
X141654761Y-124880951D01*
X141559523Y-124928570D01*
X141511904Y-124976189D01*
X141464285Y-125071427D01*
X141464285Y-125261903D01*
X141511904Y-125357141D01*
X141559523Y-125404760D01*
X141654761Y-125452379D01*
X141845238Y-125452379D01*
X141940476Y-125404760D01*
X141988095Y-125357141D01*
X142035714Y-125261903D01*
X142035714Y-125071427D01*
X141988095Y-124976189D01*
X141940476Y-124928570D01*
X141845238Y-124880951D01*
X186908333Y-127552380D02*
X186575000Y-127076190D01*
X186336904Y-127552380D02*
X186336904Y-126552380D01*
X186717857Y-126552380D01*
X186813095Y-126600000D01*
X186860714Y-126647619D01*
X186908333Y-126742857D01*
X186908333Y-126885714D01*
X186860714Y-126980952D01*
X186813095Y-127028571D01*
X186717857Y-127076190D01*
X186336904Y-127076190D01*
X187479761Y-126980952D02*
X187384523Y-126933333D01*
X187336904Y-126885714D01*
X187289285Y-126790476D01*
X187289285Y-126742857D01*
X187336904Y-126647619D01*
X187384523Y-126600000D01*
X187479761Y-126552380D01*
X187670238Y-126552380D01*
X187765476Y-126600000D01*
X187813095Y-126647619D01*
X187860714Y-126742857D01*
X187860714Y-126790476D01*
X187813095Y-126885714D01*
X187765476Y-126933333D01*
X187670238Y-126980952D01*
X187479761Y-126980952D01*
X187384523Y-127028571D01*
X187336904Y-127076190D01*
X187289285Y-127171428D01*
X187289285Y-127361904D01*
X187336904Y-127457142D01*
X187384523Y-127504761D01*
X187479761Y-127552380D01*
X187670238Y-127552380D01*
X187765476Y-127504761D01*
X187813095Y-127457142D01*
X187860714Y-127361904D01*
X187860714Y-127171428D01*
X187813095Y-127076190D01*
X187765476Y-127028571D01*
X187670238Y-126980952D01*
X182452380Y-87967857D02*
X181976190Y-88301190D01*
X182452380Y-88539285D02*
X181452380Y-88539285D01*
X181452380Y-88158333D01*
X181500000Y-88063095D01*
X181547619Y-88015476D01*
X181642857Y-87967857D01*
X181785714Y-87967857D01*
X181880952Y-88015476D01*
X181928571Y-88063095D01*
X181976190Y-88158333D01*
X181976190Y-88539285D01*
X182452380Y-87015476D02*
X182452380Y-87586904D01*
X182452380Y-87301190D02*
X181452380Y-87301190D01*
X181595238Y-87396428D01*
X181690476Y-87491666D01*
X181738095Y-87586904D01*
X182452380Y-86539285D02*
X182452380Y-86348809D01*
X182404761Y-86253571D01*
X182357142Y-86205952D01*
X182214285Y-86110714D01*
X182023809Y-86063095D01*
X181642857Y-86063095D01*
X181547619Y-86110714D01*
X181500000Y-86158333D01*
X181452380Y-86253571D01*
X181452380Y-86444047D01*
X181500000Y-86539285D01*
X181547619Y-86586904D01*
X181642857Y-86634523D01*
X181880952Y-86634523D01*
X181976190Y-86586904D01*
X182023809Y-86539285D01*
X182071428Y-86444047D01*
X182071428Y-86253571D01*
X182023809Y-86158333D01*
X181976190Y-86110714D01*
X181880952Y-86063095D01*
X194857142Y-103452380D02*
X194523809Y-102976190D01*
X194285714Y-103452380D02*
X194285714Y-102452380D01*
X194666666Y-102452380D01*
X194761904Y-102500000D01*
X194809523Y-102547619D01*
X194857142Y-102642857D01*
X194857142Y-102785714D01*
X194809523Y-102880952D01*
X194761904Y-102928571D01*
X194666666Y-102976190D01*
X194285714Y-102976190D01*
X195809523Y-103452380D02*
X195238095Y-103452380D01*
X195523809Y-103452380D02*
X195523809Y-102452380D01*
X195428571Y-102595238D01*
X195333333Y-102690476D01*
X195238095Y-102738095D01*
X196714285Y-102452380D02*
X196238095Y-102452380D01*
X196190476Y-102928571D01*
X196238095Y-102880952D01*
X196333333Y-102833333D01*
X196571428Y-102833333D01*
X196666666Y-102880952D01*
X196714285Y-102928571D01*
X196761904Y-103023809D01*
X196761904Y-103261904D01*
X196714285Y-103357142D01*
X196666666Y-103404761D01*
X196571428Y-103452380D01*
X196333333Y-103452380D01*
X196238095Y-103404761D01*
X196190476Y-103357142D01*
X158222380Y-88158333D02*
X158936666Y-88158333D01*
X159079523Y-88205952D01*
X159174761Y-88301190D01*
X159222380Y-88444047D01*
X159222380Y-88539285D01*
X158555714Y-87253571D02*
X159222380Y-87253571D01*
X158174761Y-87491666D02*
X158889047Y-87729761D01*
X158889047Y-87110714D01*
X103952380Y-111142857D02*
X103476190Y-111476190D01*
X103952380Y-111714285D02*
X102952380Y-111714285D01*
X102952380Y-111333333D01*
X103000000Y-111238095D01*
X103047619Y-111190476D01*
X103142857Y-111142857D01*
X103285714Y-111142857D01*
X103380952Y-111190476D01*
X103428571Y-111238095D01*
X103476190Y-111333333D01*
X103476190Y-111714285D01*
X103952380Y-110190476D02*
X103952380Y-110761904D01*
X103952380Y-110476190D02*
X102952380Y-110476190D01*
X103095238Y-110571428D01*
X103190476Y-110666666D01*
X103238095Y-110761904D01*
X103285714Y-109333333D02*
X103952380Y-109333333D01*
X102904761Y-109571428D02*
X103619047Y-109809523D01*
X103619047Y-109190476D01*
X114761904Y-118452380D02*
X114761904Y-117452380D01*
X115000000Y-117452380D01*
X115142857Y-117500000D01*
X115238095Y-117595238D01*
X115285714Y-117690476D01*
X115333333Y-117880952D01*
X115333333Y-118023809D01*
X115285714Y-118214285D01*
X115238095Y-118309523D01*
X115142857Y-118404761D01*
X115000000Y-118452380D01*
X114761904Y-118452380D01*
X116190476Y-117452380D02*
X116000000Y-117452380D01*
X115904761Y-117500000D01*
X115857142Y-117547619D01*
X115761904Y-117690476D01*
X115714285Y-117880952D01*
X115714285Y-118261904D01*
X115761904Y-118357142D01*
X115809523Y-118404761D01*
X115904761Y-118452380D01*
X116095238Y-118452380D01*
X116190476Y-118404761D01*
X116238095Y-118357142D01*
X116285714Y-118261904D01*
X116285714Y-118023809D01*
X116238095Y-117928571D01*
X116190476Y-117880952D01*
X116095238Y-117833333D01*
X115904761Y-117833333D01*
X115809523Y-117880952D01*
X115761904Y-117928571D01*
X115714285Y-118023809D01*
X147083333Y-127202379D02*
X146750000Y-126726189D01*
X146511904Y-127202379D02*
X146511904Y-126202379D01*
X146892857Y-126202379D01*
X146988095Y-126249999D01*
X147035714Y-126297618D01*
X147083333Y-126392856D01*
X147083333Y-126535713D01*
X147035714Y-126630951D01*
X146988095Y-126678570D01*
X146892857Y-126726189D01*
X146511904Y-126726189D01*
X147940476Y-126202379D02*
X147750000Y-126202379D01*
X147654761Y-126249999D01*
X147607142Y-126297618D01*
X147511904Y-126440475D01*
X147464285Y-126630951D01*
X147464285Y-127011903D01*
X147511904Y-127107141D01*
X147559523Y-127154760D01*
X147654761Y-127202379D01*
X147845238Y-127202379D01*
X147940476Y-127154760D01*
X147988095Y-127107141D01*
X148035714Y-127011903D01*
X148035714Y-126773808D01*
X147988095Y-126678570D01*
X147940476Y-126630951D01*
X147845238Y-126583332D01*
X147654761Y-126583332D01*
X147559523Y-126630951D01*
X147511904Y-126678570D01*
X147464285Y-126773808D01*
X196652380Y-129242857D02*
X196176190Y-129576190D01*
X196652380Y-129814285D02*
X195652380Y-129814285D01*
X195652380Y-129433333D01*
X195700000Y-129338095D01*
X195747619Y-129290476D01*
X195842857Y-129242857D01*
X195985714Y-129242857D01*
X196080952Y-129290476D01*
X196128571Y-129338095D01*
X196176190Y-129433333D01*
X196176190Y-129814285D01*
X196652380Y-128290476D02*
X196652380Y-128861904D01*
X196652380Y-128576190D02*
X195652380Y-128576190D01*
X195795238Y-128671428D01*
X195890476Y-128766666D01*
X195938095Y-128861904D01*
X195652380Y-127957142D02*
X195652380Y-127338095D01*
X196033333Y-127671428D01*
X196033333Y-127528571D01*
X196080952Y-127433333D01*
X196128571Y-127385714D01*
X196223809Y-127338095D01*
X196461904Y-127338095D01*
X196557142Y-127385714D01*
X196604761Y-127433333D01*
X196652380Y-127528571D01*
X196652380Y-127814285D01*
X196604761Y-127909523D01*
X196557142Y-127957142D01*
X148857142Y-135166665D02*
X148904761Y-135214284D01*
X148952380Y-135357141D01*
X148952380Y-135452379D01*
X148904761Y-135595237D01*
X148809523Y-135690475D01*
X148714285Y-135738094D01*
X148523809Y-135785713D01*
X148380952Y-135785713D01*
X148190476Y-135738094D01*
X148095238Y-135690475D01*
X148000000Y-135595237D01*
X147952380Y-135452379D01*
X147952380Y-135357141D01*
X148000000Y-135214284D01*
X148047619Y-135166665D01*
X147952380Y-134833332D02*
X147952380Y-134214284D01*
X148333333Y-134547618D01*
X148333333Y-134404760D01*
X148380952Y-134309522D01*
X148428571Y-134261903D01*
X148523809Y-134214284D01*
X148761904Y-134214284D01*
X148857142Y-134261903D01*
X148904761Y-134309522D01*
X148952380Y-134404760D01*
X148952380Y-134690475D01*
X148904761Y-134785713D01*
X148857142Y-134833332D01*
X126957142Y-128741666D02*
X127004761Y-128789285D01*
X127052380Y-128932142D01*
X127052380Y-129027380D01*
X127004761Y-129170238D01*
X126909523Y-129265476D01*
X126814285Y-129313095D01*
X126623809Y-129360714D01*
X126480952Y-129360714D01*
X126290476Y-129313095D01*
X126195238Y-129265476D01*
X126100000Y-129170238D01*
X126052380Y-129027380D01*
X126052380Y-128932142D01*
X126100000Y-128789285D01*
X126147619Y-128741666D01*
X126147619Y-128360714D02*
X126100000Y-128313095D01*
X126052380Y-128217857D01*
X126052380Y-127979761D01*
X126100000Y-127884523D01*
X126147619Y-127836904D01*
X126242857Y-127789285D01*
X126338095Y-127789285D01*
X126480952Y-127836904D01*
X127052380Y-128408333D01*
X127052380Y-127789285D01*
X180738095Y-98452380D02*
X180738095Y-99261904D01*
X180785714Y-99357142D01*
X180833333Y-99404761D01*
X180928571Y-99452380D01*
X181119047Y-99452380D01*
X181214285Y-99404761D01*
X181261904Y-99357142D01*
X181309523Y-99261904D01*
X181309523Y-98452380D01*
X181833333Y-99452380D02*
X182023809Y-99452380D01*
X182119047Y-99404761D01*
X182166666Y-99357142D01*
X182261904Y-99214285D01*
X182309523Y-99023809D01*
X182309523Y-98642857D01*
X182261904Y-98547619D01*
X182214285Y-98500000D01*
X182119047Y-98452380D01*
X181928571Y-98452380D01*
X181833333Y-98500000D01*
X181785714Y-98547619D01*
X181738095Y-98642857D01*
X181738095Y-98880952D01*
X181785714Y-98976190D01*
X181833333Y-99023809D01*
X181928571Y-99071428D01*
X182119047Y-99071428D01*
X182214285Y-99023809D01*
X182261904Y-98976190D01*
X182309523Y-98880952D01*
X142287142Y-74642857D02*
X142334761Y-74690476D01*
X142382380Y-74833333D01*
X142382380Y-74928571D01*
X142334761Y-75071428D01*
X142239523Y-75166666D01*
X142144285Y-75214285D01*
X141953809Y-75261904D01*
X141810952Y-75261904D01*
X141620476Y-75214285D01*
X141525238Y-75166666D01*
X141430000Y-75071428D01*
X141382380Y-74928571D01*
X141382380Y-74833333D01*
X141430000Y-74690476D01*
X141477619Y-74642857D01*
X141382380Y-74309523D02*
X141382380Y-73690476D01*
X141763333Y-74023809D01*
X141763333Y-73880952D01*
X141810952Y-73785714D01*
X141858571Y-73738095D01*
X141953809Y-73690476D01*
X142191904Y-73690476D01*
X142287142Y-73738095D01*
X142334761Y-73785714D01*
X142382380Y-73880952D01*
X142382380Y-74166666D01*
X142334761Y-74261904D01*
X142287142Y-74309523D01*
X141477619Y-73309523D02*
X141430000Y-73261904D01*
X141382380Y-73166666D01*
X141382380Y-72928571D01*
X141430000Y-72833333D01*
X141477619Y-72785714D01*
X141572857Y-72738095D01*
X141668095Y-72738095D01*
X141810952Y-72785714D01*
X142382380Y-73357142D01*
X142382380Y-72738095D01*
X153427142Y-135066666D02*
X153474761Y-135114285D01*
X153522380Y-135257142D01*
X153522380Y-135352380D01*
X153474761Y-135495238D01*
X153379523Y-135590476D01*
X153284285Y-135638095D01*
X153093809Y-135685714D01*
X152950952Y-135685714D01*
X152760476Y-135638095D01*
X152665238Y-135590476D01*
X152570000Y-135495238D01*
X152522380Y-135352380D01*
X152522380Y-135257142D01*
X152570000Y-135114285D01*
X152617619Y-135066666D01*
X153522380Y-134114285D02*
X153522380Y-134685714D01*
X153522380Y-134400000D02*
X152522380Y-134400000D01*
X152665238Y-134495238D01*
X152760476Y-134590476D01*
X152808095Y-134685714D01*
X187857142Y-90417857D02*
X187904761Y-90465476D01*
X187952380Y-90608333D01*
X187952380Y-90703571D01*
X187904761Y-90846428D01*
X187809523Y-90941666D01*
X187714285Y-90989285D01*
X187523809Y-91036904D01*
X187380952Y-91036904D01*
X187190476Y-90989285D01*
X187095238Y-90941666D01*
X187000000Y-90846428D01*
X186952380Y-90703571D01*
X186952380Y-90608333D01*
X187000000Y-90465476D01*
X187047619Y-90417857D01*
X187047619Y-90036904D02*
X187000000Y-89989285D01*
X186952380Y-89894047D01*
X186952380Y-89655952D01*
X187000000Y-89560714D01*
X187047619Y-89513095D01*
X187142857Y-89465476D01*
X187238095Y-89465476D01*
X187380952Y-89513095D01*
X187952380Y-90084523D01*
X187952380Y-89465476D01*
X187952380Y-88513095D02*
X187952380Y-89084523D01*
X187952380Y-88798809D02*
X186952380Y-88798809D01*
X187095238Y-88894047D01*
X187190476Y-88989285D01*
X187238095Y-89084523D01*
X122287142Y-74642857D02*
X122334761Y-74690476D01*
X122382380Y-74833333D01*
X122382380Y-74928571D01*
X122334761Y-75071428D01*
X122239523Y-75166666D01*
X122144285Y-75214285D01*
X121953809Y-75261904D01*
X121810952Y-75261904D01*
X121620476Y-75214285D01*
X121525238Y-75166666D01*
X121430000Y-75071428D01*
X121382380Y-74928571D01*
X121382380Y-74833333D01*
X121430000Y-74690476D01*
X121477619Y-74642857D01*
X121382380Y-74309523D02*
X121382380Y-73690476D01*
X121763333Y-74023809D01*
X121763333Y-73880952D01*
X121810952Y-73785714D01*
X121858571Y-73738095D01*
X121953809Y-73690476D01*
X122191904Y-73690476D01*
X122287142Y-73738095D01*
X122334761Y-73785714D01*
X122382380Y-73880952D01*
X122382380Y-74166666D01*
X122334761Y-74261904D01*
X122287142Y-74309523D01*
X122382380Y-72738095D02*
X122382380Y-73309523D01*
X122382380Y-73023809D02*
X121382380Y-73023809D01*
X121525238Y-73119047D01*
X121620476Y-73214285D01*
X121668095Y-73309523D01*
X175452380Y-133341665D02*
X174976190Y-133674999D01*
X175452380Y-133913094D02*
X174452380Y-133913094D01*
X174452380Y-133532141D01*
X174500000Y-133436903D01*
X174547619Y-133389284D01*
X174642857Y-133341665D01*
X174785714Y-133341665D01*
X174880952Y-133389284D01*
X174928571Y-133436903D01*
X174976190Y-133532141D01*
X174976190Y-133913094D01*
X175452380Y-132865475D02*
X175452380Y-132674999D01*
X175404761Y-132579760D01*
X175357142Y-132532141D01*
X175214285Y-132436903D01*
X175023809Y-132389284D01*
X174642857Y-132389284D01*
X174547619Y-132436903D01*
X174500000Y-132484522D01*
X174452380Y-132579760D01*
X174452380Y-132770237D01*
X174500000Y-132865475D01*
X174547619Y-132913094D01*
X174642857Y-132960713D01*
X174880952Y-132960713D01*
X174976190Y-132913094D01*
X175023809Y-132865475D01*
X175071428Y-132770237D01*
X175071428Y-132579760D01*
X175023809Y-132484522D01*
X174976190Y-132436903D01*
X174880952Y-132389284D01*
X165614880Y-130091666D02*
X165138690Y-130425000D01*
X165614880Y-130663095D02*
X164614880Y-130663095D01*
X164614880Y-130282142D01*
X164662500Y-130186904D01*
X164710119Y-130139285D01*
X164805357Y-130091666D01*
X164948214Y-130091666D01*
X165043452Y-130139285D01*
X165091071Y-130186904D01*
X165138690Y-130282142D01*
X165138690Y-130663095D01*
X164710119Y-129710714D02*
X164662500Y-129663095D01*
X164614880Y-129567857D01*
X164614880Y-129329761D01*
X164662500Y-129234523D01*
X164710119Y-129186904D01*
X164805357Y-129139285D01*
X164900595Y-129139285D01*
X165043452Y-129186904D01*
X165614880Y-129758333D01*
X165614880Y-129139285D01*
X187467260Y-105547619D02*
X187372022Y-105500000D01*
X187276784Y-105404761D01*
X187133927Y-105261904D01*
X187038689Y-105214285D01*
X186943451Y-105214285D01*
X186991070Y-105452380D02*
X186895832Y-105404761D01*
X186800594Y-105309523D01*
X186752975Y-105119047D01*
X186752975Y-104785714D01*
X186800594Y-104595238D01*
X186895832Y-104500000D01*
X186991070Y-104452380D01*
X187181546Y-104452380D01*
X187276784Y-104500000D01*
X187372022Y-104595238D01*
X187419641Y-104785714D01*
X187419641Y-105119047D01*
X187372022Y-105309523D01*
X187276784Y-105404761D01*
X187181546Y-105452380D01*
X186991070Y-105452380D01*
X187800594Y-104547619D02*
X187848213Y-104500000D01*
X187943451Y-104452380D01*
X188181546Y-104452380D01*
X188276784Y-104500000D01*
X188324403Y-104547619D01*
X188372022Y-104642857D01*
X188372022Y-104738095D01*
X188324403Y-104880952D01*
X187752975Y-105452380D01*
X188372022Y-105452380D01*
X186738095Y-98452380D02*
X186738095Y-99261904D01*
X186785714Y-99357142D01*
X186833333Y-99404761D01*
X186928571Y-99452380D01*
X187119047Y-99452380D01*
X187214285Y-99404761D01*
X187261904Y-99357142D01*
X187309523Y-99261904D01*
X187309523Y-98452380D01*
X187928571Y-98880952D02*
X187833333Y-98833333D01*
X187785714Y-98785714D01*
X187738095Y-98690476D01*
X187738095Y-98642857D01*
X187785714Y-98547619D01*
X187833333Y-98500000D01*
X187928571Y-98452380D01*
X188119047Y-98452380D01*
X188214285Y-98500000D01*
X188261904Y-98547619D01*
X188309523Y-98642857D01*
X188309523Y-98690476D01*
X188261904Y-98785714D01*
X188214285Y-98833333D01*
X188119047Y-98880952D01*
X187928571Y-98880952D01*
X187833333Y-98928571D01*
X187785714Y-98976190D01*
X187738095Y-99071428D01*
X187738095Y-99261904D01*
X187785714Y-99357142D01*
X187833333Y-99404761D01*
X187928571Y-99452380D01*
X188119047Y-99452380D01*
X188214285Y-99404761D01*
X188261904Y-99357142D01*
X188309523Y-99261904D01*
X188309523Y-99071428D01*
X188261904Y-98976190D01*
X188214285Y-98928571D01*
X188119047Y-98880952D01*
X194857142Y-90452380D02*
X194523809Y-89976190D01*
X194285714Y-90452380D02*
X194285714Y-89452380D01*
X194666666Y-89452380D01*
X194761904Y-89500000D01*
X194809523Y-89547619D01*
X194857142Y-89642857D01*
X194857142Y-89785714D01*
X194809523Y-89880952D01*
X194761904Y-89928571D01*
X194666666Y-89976190D01*
X194285714Y-89976190D01*
X195809523Y-90452380D02*
X195238095Y-90452380D01*
X195523809Y-90452380D02*
X195523809Y-89452380D01*
X195428571Y-89595238D01*
X195333333Y-89690476D01*
X195238095Y-89738095D01*
X196666666Y-89452380D02*
X196476190Y-89452380D01*
X196380952Y-89500000D01*
X196333333Y-89547619D01*
X196238095Y-89690476D01*
X196190476Y-89880952D01*
X196190476Y-90261904D01*
X196238095Y-90357142D01*
X196285714Y-90404761D01*
X196380952Y-90452380D01*
X196571428Y-90452380D01*
X196666666Y-90404761D01*
X196714285Y-90357142D01*
X196761904Y-90261904D01*
X196761904Y-90023809D01*
X196714285Y-89928571D01*
X196666666Y-89880952D01*
X196571428Y-89833333D01*
X196380952Y-89833333D01*
X196285714Y-89880952D01*
X196238095Y-89928571D01*
X196190476Y-90023809D01*
X113157142Y-131366666D02*
X113204761Y-131414285D01*
X113252380Y-131557142D01*
X113252380Y-131652380D01*
X113204761Y-131795238D01*
X113109523Y-131890476D01*
X113014285Y-131938095D01*
X112823809Y-131985714D01*
X112680952Y-131985714D01*
X112490476Y-131938095D01*
X112395238Y-131890476D01*
X112300000Y-131795238D01*
X112252380Y-131652380D01*
X112252380Y-131557142D01*
X112300000Y-131414285D01*
X112347619Y-131366666D01*
X112252380Y-130461904D02*
X112252380Y-130938095D01*
X112728571Y-130985714D01*
X112680952Y-130938095D01*
X112633333Y-130842857D01*
X112633333Y-130604761D01*
X112680952Y-130509523D01*
X112728571Y-130461904D01*
X112823809Y-130414285D01*
X113061904Y-130414285D01*
X113157142Y-130461904D01*
X113204761Y-130509523D01*
X113252380Y-130604761D01*
X113252380Y-130842857D01*
X113204761Y-130938095D01*
X113157142Y-130985714D01*
X194447619Y-107202380D02*
X194638095Y-107202380D01*
X194733333Y-107250000D01*
X194828571Y-107345238D01*
X194876190Y-107535714D01*
X194876190Y-107869047D01*
X194828571Y-108059523D01*
X194733333Y-108154761D01*
X194638095Y-108202380D01*
X194447619Y-108202380D01*
X194352380Y-108154761D01*
X194257142Y-108059523D01*
X194209523Y-107869047D01*
X194209523Y-107535714D01*
X194257142Y-107345238D01*
X194352380Y-107250000D01*
X194447619Y-107202380D01*
X195638095Y-107678571D02*
X195304761Y-107678571D01*
X195304761Y-108202380D02*
X195304761Y-107202380D01*
X195780952Y-107202380D01*
X196495238Y-107678571D02*
X196161904Y-107678571D01*
X196161904Y-108202380D02*
X196161904Y-107202380D01*
X196638095Y-107202380D01*
X141757142Y-93557142D02*
X141709523Y-93604761D01*
X141566666Y-93652380D01*
X141471428Y-93652380D01*
X141328571Y-93604761D01*
X141233333Y-93509523D01*
X141185714Y-93414285D01*
X141138095Y-93223809D01*
X141138095Y-93080952D01*
X141185714Y-92890476D01*
X141233333Y-92795238D01*
X141328571Y-92700000D01*
X141471428Y-92652380D01*
X141566666Y-92652380D01*
X141709523Y-92700000D01*
X141757142Y-92747619D01*
X142138095Y-92747619D02*
X142185714Y-92700000D01*
X142280952Y-92652380D01*
X142519047Y-92652380D01*
X142614285Y-92700000D01*
X142661904Y-92747619D01*
X142709523Y-92842857D01*
X142709523Y-92938095D01*
X142661904Y-93080952D01*
X142090476Y-93652380D01*
X142709523Y-93652380D01*
X143566666Y-92652380D02*
X143376190Y-92652380D01*
X143280952Y-92700000D01*
X143233333Y-92747619D01*
X143138095Y-92890476D01*
X143090476Y-93080952D01*
X143090476Y-93461904D01*
X143138095Y-93557142D01*
X143185714Y-93604761D01*
X143280952Y-93652380D01*
X143471428Y-93652380D01*
X143566666Y-93604761D01*
X143614285Y-93557142D01*
X143661904Y-93461904D01*
X143661904Y-93223809D01*
X143614285Y-93128571D01*
X143566666Y-93080952D01*
X143471428Y-93033333D01*
X143280952Y-93033333D01*
X143185714Y-93080952D01*
X143138095Y-93128571D01*
X143090476Y-93223809D01*
X134761904Y-75452380D02*
X134761904Y-74452380D01*
X135000000Y-74452380D01*
X135142857Y-74500000D01*
X135238095Y-74595238D01*
X135285714Y-74690476D01*
X135333333Y-74880952D01*
X135333333Y-75023809D01*
X135285714Y-75214285D01*
X135238095Y-75309523D01*
X135142857Y-75404761D01*
X135000000Y-75452380D01*
X134761904Y-75452380D01*
X135904761Y-74880952D02*
X135809523Y-74833333D01*
X135761904Y-74785714D01*
X135714285Y-74690476D01*
X135714285Y-74642857D01*
X135761904Y-74547619D01*
X135809523Y-74500000D01*
X135904761Y-74452380D01*
X136095238Y-74452380D01*
X136190476Y-74500000D01*
X136238095Y-74547619D01*
X136285714Y-74642857D01*
X136285714Y-74690476D01*
X136238095Y-74785714D01*
X136190476Y-74833333D01*
X136095238Y-74880952D01*
X135904761Y-74880952D01*
X135809523Y-74928571D01*
X135761904Y-74976190D01*
X135714285Y-75071428D01*
X135714285Y-75261904D01*
X135761904Y-75357142D01*
X135809523Y-75404761D01*
X135904761Y-75452380D01*
X136095238Y-75452380D01*
X136190476Y-75404761D01*
X136238095Y-75357142D01*
X136285714Y-75261904D01*
X136285714Y-75071428D01*
X136238095Y-74976190D01*
X136190476Y-74928571D01*
X136095238Y-74880952D01*
X135161904Y-90652380D02*
X135161904Y-91461904D01*
X135209523Y-91557142D01*
X135257142Y-91604761D01*
X135352380Y-91652380D01*
X135542857Y-91652380D01*
X135638095Y-91604761D01*
X135685714Y-91557142D01*
X135733333Y-91461904D01*
X135733333Y-90652380D01*
X136733333Y-91652380D02*
X136161904Y-91652380D01*
X136447619Y-91652380D02*
X136447619Y-90652380D01*
X136352380Y-90795238D01*
X136257142Y-90890476D01*
X136161904Y-90938095D01*
X137352380Y-90652380D02*
X137447619Y-90652380D01*
X137542857Y-90700000D01*
X137590476Y-90747619D01*
X137638095Y-90842857D01*
X137685714Y-91033333D01*
X137685714Y-91271428D01*
X137638095Y-91461904D01*
X137590476Y-91557142D01*
X137542857Y-91604761D01*
X137447619Y-91652380D01*
X137352380Y-91652380D01*
X137257142Y-91604761D01*
X137209523Y-91557142D01*
X137161904Y-91461904D01*
X137114285Y-91271428D01*
X137114285Y-91033333D01*
X137161904Y-90842857D01*
X137209523Y-90747619D01*
X137257142Y-90700000D01*
X137352380Y-90652380D01*
X170952380Y-102642857D02*
X170476190Y-102976190D01*
X170952380Y-103214285D02*
X169952380Y-103214285D01*
X169952380Y-102833333D01*
X170000000Y-102738095D01*
X170047619Y-102690476D01*
X170142857Y-102642857D01*
X170285714Y-102642857D01*
X170380952Y-102690476D01*
X170428571Y-102738095D01*
X170476190Y-102833333D01*
X170476190Y-103214285D01*
X170047619Y-102261904D02*
X170000000Y-102214285D01*
X169952380Y-102119047D01*
X169952380Y-101880952D01*
X170000000Y-101785714D01*
X170047619Y-101738095D01*
X170142857Y-101690476D01*
X170238095Y-101690476D01*
X170380952Y-101738095D01*
X170952380Y-102309523D01*
X170952380Y-101690476D01*
X169952380Y-100785714D02*
X169952380Y-101261904D01*
X170428571Y-101309523D01*
X170380952Y-101261904D01*
X170333333Y-101166666D01*
X170333333Y-100928571D01*
X170380952Y-100833333D01*
X170428571Y-100785714D01*
X170523809Y-100738095D01*
X170761904Y-100738095D01*
X170857142Y-100785714D01*
X170904761Y-100833333D01*
X170952380Y-100928571D01*
X170952380Y-101166666D01*
X170904761Y-101261904D01*
X170857142Y-101309523D01*
X183508333Y-127552380D02*
X183175000Y-127076190D01*
X182936904Y-127552380D02*
X182936904Y-126552380D01*
X183317857Y-126552380D01*
X183413095Y-126600000D01*
X183460714Y-126647619D01*
X183508333Y-126742857D01*
X183508333Y-126885714D01*
X183460714Y-126980952D01*
X183413095Y-127028571D01*
X183317857Y-127076190D01*
X182936904Y-127076190D01*
X183841666Y-126552380D02*
X184508333Y-126552380D01*
X184079761Y-127552380D01*
X184452380Y-87967857D02*
X183976190Y-88301190D01*
X184452380Y-88539285D02*
X183452380Y-88539285D01*
X183452380Y-88158333D01*
X183500000Y-88063095D01*
X183547619Y-88015476D01*
X183642857Y-87967857D01*
X183785714Y-87967857D01*
X183880952Y-88015476D01*
X183928571Y-88063095D01*
X183976190Y-88158333D01*
X183976190Y-88539285D01*
X183547619Y-87586904D02*
X183500000Y-87539285D01*
X183452380Y-87444047D01*
X183452380Y-87205952D01*
X183500000Y-87110714D01*
X183547619Y-87063095D01*
X183642857Y-87015476D01*
X183738095Y-87015476D01*
X183880952Y-87063095D01*
X184452380Y-87634523D01*
X184452380Y-87015476D01*
X183452380Y-86396428D02*
X183452380Y-86301190D01*
X183500000Y-86205952D01*
X183547619Y-86158333D01*
X183642857Y-86110714D01*
X183833333Y-86063095D01*
X184071428Y-86063095D01*
X184261904Y-86110714D01*
X184357142Y-86158333D01*
X184404761Y-86205952D01*
X184452380Y-86301190D01*
X184452380Y-86396428D01*
X184404761Y-86491666D01*
X184357142Y-86539285D01*
X184261904Y-86586904D01*
X184071428Y-86634523D01*
X183833333Y-86634523D01*
X183642857Y-86586904D01*
X183547619Y-86539285D01*
X183500000Y-86491666D01*
X183452380Y-86396428D01*
X153522380Y-131666665D02*
X153046190Y-131999999D01*
X153522380Y-132238094D02*
X152522380Y-132238094D01*
X152522380Y-131857141D01*
X152570000Y-131761903D01*
X152617619Y-131714284D01*
X152712857Y-131666665D01*
X152855714Y-131666665D01*
X152950952Y-131714284D01*
X152998571Y-131761903D01*
X153046190Y-131857141D01*
X153046190Y-132238094D01*
X153522380Y-130714284D02*
X153522380Y-131285713D01*
X153522380Y-130999999D02*
X152522380Y-130999999D01*
X152665238Y-131095237D01*
X152760476Y-131190475D01*
X152808095Y-131285713D01*
X149427142Y-119642857D02*
X149474761Y-119690476D01*
X149522380Y-119833333D01*
X149522380Y-119928571D01*
X149474761Y-120071428D01*
X149379523Y-120166666D01*
X149284285Y-120214285D01*
X149093809Y-120261904D01*
X148950952Y-120261904D01*
X148760476Y-120214285D01*
X148665238Y-120166666D01*
X148570000Y-120071428D01*
X148522380Y-119928571D01*
X148522380Y-119833333D01*
X148570000Y-119690476D01*
X148617619Y-119642857D01*
X148617619Y-119261904D02*
X148570000Y-119214285D01*
X148522380Y-119119047D01*
X148522380Y-118880952D01*
X148570000Y-118785714D01*
X148617619Y-118738095D01*
X148712857Y-118690476D01*
X148808095Y-118690476D01*
X148950952Y-118738095D01*
X149522380Y-119309523D01*
X149522380Y-118690476D01*
X148950952Y-118119047D02*
X148903333Y-118214285D01*
X148855714Y-118261904D01*
X148760476Y-118309523D01*
X148712857Y-118309523D01*
X148617619Y-118261904D01*
X148570000Y-118214285D01*
X148522380Y-118119047D01*
X148522380Y-117928571D01*
X148570000Y-117833333D01*
X148617619Y-117785714D01*
X148712857Y-117738095D01*
X148760476Y-117738095D01*
X148855714Y-117785714D01*
X148903333Y-117833333D01*
X148950952Y-117928571D01*
X148950952Y-118119047D01*
X148998571Y-118214285D01*
X149046190Y-118261904D01*
X149141428Y-118309523D01*
X149331904Y-118309523D01*
X149427142Y-118261904D01*
X149474761Y-118214285D01*
X149522380Y-118119047D01*
X149522380Y-117928571D01*
X149474761Y-117833333D01*
X149427142Y-117785714D01*
X149331904Y-117738095D01*
X149141428Y-117738095D01*
X149046190Y-117785714D01*
X148998571Y-117833333D01*
X148950952Y-117928571D01*
X109427142Y-119642857D02*
X109474761Y-119690476D01*
X109522380Y-119833333D01*
X109522380Y-119928571D01*
X109474761Y-120071428D01*
X109379523Y-120166666D01*
X109284285Y-120214285D01*
X109093809Y-120261904D01*
X108950952Y-120261904D01*
X108760476Y-120214285D01*
X108665238Y-120166666D01*
X108570000Y-120071428D01*
X108522380Y-119928571D01*
X108522380Y-119833333D01*
X108570000Y-119690476D01*
X108617619Y-119642857D01*
X108522380Y-119309523D02*
X108522380Y-118690476D01*
X108903333Y-119023809D01*
X108903333Y-118880952D01*
X108950952Y-118785714D01*
X108998571Y-118738095D01*
X109093809Y-118690476D01*
X109331904Y-118690476D01*
X109427142Y-118738095D01*
X109474761Y-118785714D01*
X109522380Y-118880952D01*
X109522380Y-119166666D01*
X109474761Y-119261904D01*
X109427142Y-119309523D01*
X108522380Y-118071428D02*
X108522380Y-117976190D01*
X108570000Y-117880952D01*
X108617619Y-117833333D01*
X108712857Y-117785714D01*
X108903333Y-117738095D01*
X109141428Y-117738095D01*
X109331904Y-117785714D01*
X109427142Y-117833333D01*
X109474761Y-117880952D01*
X109522380Y-117976190D01*
X109522380Y-118071428D01*
X109474761Y-118166666D01*
X109427142Y-118214285D01*
X109331904Y-118261904D01*
X109141428Y-118309523D01*
X108903333Y-118309523D01*
X108712857Y-118261904D01*
X108617619Y-118214285D01*
X108570000Y-118166666D01*
X108522380Y-118071428D01*
X94857142Y-110357142D02*
X94809523Y-110404761D01*
X94666666Y-110452380D01*
X94571428Y-110452380D01*
X94428571Y-110404761D01*
X94333333Y-110309523D01*
X94285714Y-110214285D01*
X94238095Y-110023809D01*
X94238095Y-109880952D01*
X94285714Y-109690476D01*
X94333333Y-109595238D01*
X94428571Y-109500000D01*
X94571428Y-109452380D01*
X94666666Y-109452380D01*
X94809523Y-109500000D01*
X94857142Y-109547619D01*
X95809523Y-110452380D02*
X95238095Y-110452380D01*
X95523809Y-110452380D02*
X95523809Y-109452380D01*
X95428571Y-109595238D01*
X95333333Y-109690476D01*
X95238095Y-109738095D01*
X96285714Y-110452380D02*
X96476190Y-110452380D01*
X96571428Y-110404761D01*
X96619047Y-110357142D01*
X96714285Y-110214285D01*
X96761904Y-110023809D01*
X96761904Y-109642857D01*
X96714285Y-109547619D01*
X96666666Y-109500000D01*
X96571428Y-109452380D01*
X96380952Y-109452380D01*
X96285714Y-109500000D01*
X96238095Y-109547619D01*
X96190476Y-109642857D01*
X96190476Y-109880952D01*
X96238095Y-109976190D01*
X96285714Y-110023809D01*
X96380952Y-110071428D01*
X96571428Y-110071428D01*
X96666666Y-110023809D01*
X96714285Y-109976190D01*
X96761904Y-109880952D01*
X154761904Y-75452380D02*
X154761904Y-74452380D01*
X155000000Y-74452380D01*
X155142857Y-74500000D01*
X155238095Y-74595238D01*
X155285714Y-74690476D01*
X155333333Y-74880952D01*
X155333333Y-75023809D01*
X155285714Y-75214285D01*
X155238095Y-75309523D01*
X155142857Y-75404761D01*
X155000000Y-75452380D01*
X154761904Y-75452380D01*
X155809523Y-75452380D02*
X156000000Y-75452380D01*
X156095238Y-75404761D01*
X156142857Y-75357142D01*
X156238095Y-75214285D01*
X156285714Y-75023809D01*
X156285714Y-74642857D01*
X156238095Y-74547619D01*
X156190476Y-74500000D01*
X156095238Y-74452380D01*
X155904761Y-74452380D01*
X155809523Y-74500000D01*
X155761904Y-74547619D01*
X155714285Y-74642857D01*
X155714285Y-74880952D01*
X155761904Y-74976190D01*
X155809523Y-75023809D01*
X155904761Y-75071428D01*
X156095238Y-75071428D01*
X156190476Y-75023809D01*
X156238095Y-74976190D01*
X156285714Y-74880952D01*
X174285714Y-75452380D02*
X174285714Y-74452380D01*
X174523809Y-74452380D01*
X174666666Y-74500000D01*
X174761904Y-74595238D01*
X174809523Y-74690476D01*
X174857142Y-74880952D01*
X174857142Y-75023809D01*
X174809523Y-75214285D01*
X174761904Y-75309523D01*
X174666666Y-75404761D01*
X174523809Y-75452380D01*
X174285714Y-75452380D01*
X175809523Y-75452380D02*
X175238095Y-75452380D01*
X175523809Y-75452380D02*
X175523809Y-74452380D01*
X175428571Y-74595238D01*
X175333333Y-74690476D01*
X175238095Y-74738095D01*
X176428571Y-74452380D02*
X176523809Y-74452380D01*
X176619047Y-74500000D01*
X176666666Y-74547619D01*
X176714285Y-74642857D01*
X176761904Y-74833333D01*
X176761904Y-75071428D01*
X176714285Y-75261904D01*
X176666666Y-75357142D01*
X176619047Y-75404761D01*
X176523809Y-75452380D01*
X176428571Y-75452380D01*
X176333333Y-75404761D01*
X176285714Y-75357142D01*
X176238095Y-75261904D01*
X176190476Y-75071428D01*
X176190476Y-74833333D01*
X176238095Y-74642857D01*
X176285714Y-74547619D01*
X176333333Y-74500000D01*
X176428571Y-74452380D01*
X180452380Y-87967857D02*
X179976190Y-88301190D01*
X180452380Y-88539285D02*
X179452380Y-88539285D01*
X179452380Y-88158333D01*
X179500000Y-88063095D01*
X179547619Y-88015476D01*
X179642857Y-87967857D01*
X179785714Y-87967857D01*
X179880952Y-88015476D01*
X179928571Y-88063095D01*
X179976190Y-88158333D01*
X179976190Y-88539285D01*
X179547619Y-87586904D02*
X179500000Y-87539285D01*
X179452380Y-87444047D01*
X179452380Y-87205952D01*
X179500000Y-87110714D01*
X179547619Y-87063095D01*
X179642857Y-87015476D01*
X179738095Y-87015476D01*
X179880952Y-87063095D01*
X180452380Y-87634523D01*
X180452380Y-87015476D01*
X180452380Y-86063095D02*
X180452380Y-86634523D01*
X180452380Y-86348809D02*
X179452380Y-86348809D01*
X179595238Y-86444047D01*
X179690476Y-86539285D01*
X179738095Y-86634523D01*
X133107142Y-133892856D02*
X133154761Y-133940475D01*
X133202380Y-134083332D01*
X133202380Y-134178570D01*
X133154761Y-134321427D01*
X133059523Y-134416665D01*
X132964285Y-134464284D01*
X132773809Y-134511903D01*
X132630952Y-134511903D01*
X132440476Y-134464284D01*
X132345238Y-134416665D01*
X132250000Y-134321427D01*
X132202380Y-134178570D01*
X132202380Y-134083332D01*
X132250000Y-133940475D01*
X132297619Y-133892856D01*
X133202380Y-132940475D02*
X133202380Y-133511903D01*
X133202380Y-133226189D02*
X132202380Y-133226189D01*
X132345238Y-133321427D01*
X132440476Y-133416665D01*
X132488095Y-133511903D01*
X132297619Y-132559522D02*
X132250000Y-132511903D01*
X132202380Y-132416665D01*
X132202380Y-132178570D01*
X132250000Y-132083332D01*
X132297619Y-132035713D01*
X132392857Y-131988094D01*
X132488095Y-131988094D01*
X132630952Y-132035713D01*
X133202380Y-132607141D01*
X133202380Y-131988094D01*
X161261904Y-129452379D02*
X161261904Y-128452379D01*
X161500000Y-128452379D01*
X161642857Y-128499999D01*
X161738095Y-128595237D01*
X161785714Y-128690475D01*
X161833333Y-128880951D01*
X161833333Y-129023808D01*
X161785714Y-129214284D01*
X161738095Y-129309522D01*
X161642857Y-129404760D01*
X161500000Y-129452379D01*
X161261904Y-129452379D01*
X162214285Y-128547618D02*
X162261904Y-128499999D01*
X162357142Y-128452379D01*
X162595238Y-128452379D01*
X162690476Y-128499999D01*
X162738095Y-128547618D01*
X162785714Y-128642856D01*
X162785714Y-128738094D01*
X162738095Y-128880951D01*
X162166666Y-129452379D01*
X162785714Y-129452379D01*
X141932142Y-97452380D02*
X141598809Y-96976190D01*
X141360714Y-97452380D02*
X141360714Y-96452380D01*
X141741666Y-96452380D01*
X141836904Y-96500000D01*
X141884523Y-96547619D01*
X141932142Y-96642857D01*
X141932142Y-96785714D01*
X141884523Y-96880952D01*
X141836904Y-96928571D01*
X141741666Y-96976190D01*
X141360714Y-96976190D01*
X142313095Y-96547619D02*
X142360714Y-96500000D01*
X142455952Y-96452380D01*
X142694047Y-96452380D01*
X142789285Y-96500000D01*
X142836904Y-96547619D01*
X142884523Y-96642857D01*
X142884523Y-96738095D01*
X142836904Y-96880952D01*
X142265476Y-97452380D01*
X142884523Y-97452380D01*
X143741666Y-96452380D02*
X143551190Y-96452380D01*
X143455952Y-96500000D01*
X143408333Y-96547619D01*
X143313095Y-96690476D01*
X143265476Y-96880952D01*
X143265476Y-97261904D01*
X143313095Y-97357142D01*
X143360714Y-97404761D01*
X143455952Y-97452380D01*
X143646428Y-97452380D01*
X143741666Y-97404761D01*
X143789285Y-97357142D01*
X143836904Y-97261904D01*
X143836904Y-97023809D01*
X143789285Y-96928571D01*
X143741666Y-96880952D01*
X143646428Y-96833333D01*
X143455952Y-96833333D01*
X143360714Y-96880952D01*
X143313095Y-96928571D01*
X143265476Y-97023809D01*
X171488095Y-138402380D02*
X171488095Y-139211904D01*
X171535714Y-139307142D01*
X171583333Y-139354761D01*
X171678571Y-139402380D01*
X171869047Y-139402380D01*
X171964285Y-139354761D01*
X172011904Y-139307142D01*
X172059523Y-139211904D01*
X172059523Y-138402380D01*
X173011904Y-138402380D02*
X172535714Y-138402380D01*
X172488095Y-138878571D01*
X172535714Y-138830952D01*
X172630952Y-138783333D01*
X172869047Y-138783333D01*
X172964285Y-138830952D01*
X173011904Y-138878571D01*
X173059523Y-138973809D01*
X173059523Y-139211904D01*
X173011904Y-139307142D01*
X172964285Y-139354761D01*
X172869047Y-139402380D01*
X172630952Y-139402380D01*
X172535714Y-139354761D01*
X172488095Y-139307142D01*
X198452380Y-129242857D02*
X197976190Y-129576190D01*
X198452380Y-129814285D02*
X197452380Y-129814285D01*
X197452380Y-129433333D01*
X197500000Y-129338095D01*
X197547619Y-129290476D01*
X197642857Y-129242857D01*
X197785714Y-129242857D01*
X197880952Y-129290476D01*
X197928571Y-129338095D01*
X197976190Y-129433333D01*
X197976190Y-129814285D01*
X198452380Y-128290476D02*
X198452380Y-128861904D01*
X198452380Y-128576190D02*
X197452380Y-128576190D01*
X197595238Y-128671428D01*
X197690476Y-128766666D01*
X197738095Y-128861904D01*
X198452380Y-127338095D02*
X198452380Y-127909523D01*
X198452380Y-127623809D02*
X197452380Y-127623809D01*
X197595238Y-127719047D01*
X197690476Y-127814285D01*
X197738095Y-127909523D01*
X107957142Y-131366666D02*
X108004761Y-131414285D01*
X108052380Y-131557142D01*
X108052380Y-131652380D01*
X108004761Y-131795238D01*
X107909523Y-131890476D01*
X107814285Y-131938095D01*
X107623809Y-131985714D01*
X107480952Y-131985714D01*
X107290476Y-131938095D01*
X107195238Y-131890476D01*
X107100000Y-131795238D01*
X107052380Y-131652380D01*
X107052380Y-131557142D01*
X107100000Y-131414285D01*
X107147619Y-131366666D01*
X107052380Y-131033333D02*
X107052380Y-130366666D01*
X108052380Y-130795238D01*
X163261904Y-101952380D02*
X163261904Y-102761904D01*
X163309523Y-102857142D01*
X163357142Y-102904761D01*
X163452380Y-102952380D01*
X163642857Y-102952380D01*
X163738095Y-102904761D01*
X163785714Y-102857142D01*
X163833333Y-102761904D01*
X163833333Y-101952380D01*
X164833333Y-102952380D02*
X164261904Y-102952380D01*
X164547619Y-102952380D02*
X164547619Y-101952380D01*
X164452380Y-102095238D01*
X164357142Y-102190476D01*
X164261904Y-102238095D01*
X165214285Y-102047619D02*
X165261904Y-102000000D01*
X165357142Y-101952380D01*
X165595238Y-101952380D01*
X165690476Y-102000000D01*
X165738095Y-102047619D01*
X165785714Y-102142857D01*
X165785714Y-102238095D01*
X165738095Y-102380952D01*
X165166666Y-102952380D01*
X165785714Y-102952380D01*
X169527142Y-119642857D02*
X169574761Y-119690476D01*
X169622380Y-119833333D01*
X169622380Y-119928571D01*
X169574761Y-120071428D01*
X169479523Y-120166666D01*
X169384285Y-120214285D01*
X169193809Y-120261904D01*
X169050952Y-120261904D01*
X168860476Y-120214285D01*
X168765238Y-120166666D01*
X168670000Y-120071428D01*
X168622380Y-119928571D01*
X168622380Y-119833333D01*
X168670000Y-119690476D01*
X168717619Y-119642857D01*
X168717619Y-119261904D02*
X168670000Y-119214285D01*
X168622380Y-119119047D01*
X168622380Y-118880952D01*
X168670000Y-118785714D01*
X168717619Y-118738095D01*
X168812857Y-118690476D01*
X168908095Y-118690476D01*
X169050952Y-118738095D01*
X169622380Y-119309523D01*
X169622380Y-118690476D01*
X168622380Y-118357142D02*
X168622380Y-117690476D01*
X169622380Y-118119047D01*
X147083333Y-128952379D02*
X146750000Y-128476189D01*
X146511904Y-128952379D02*
X146511904Y-127952379D01*
X146892857Y-127952379D01*
X146988095Y-127999999D01*
X147035714Y-128047618D01*
X147083333Y-128142856D01*
X147083333Y-128285713D01*
X147035714Y-128380951D01*
X146988095Y-128428570D01*
X146892857Y-128476189D01*
X146511904Y-128476189D01*
X147988095Y-127952379D02*
X147511904Y-127952379D01*
X147464285Y-128428570D01*
X147511904Y-128380951D01*
X147607142Y-128333332D01*
X147845238Y-128333332D01*
X147940476Y-128380951D01*
X147988095Y-128428570D01*
X148035714Y-128523808D01*
X148035714Y-128761903D01*
X147988095Y-128857141D01*
X147940476Y-128904760D01*
X147845238Y-128952379D01*
X147607142Y-128952379D01*
X147511904Y-128904760D01*
X147464285Y-128857141D01*
X182287142Y-74642857D02*
X182334761Y-74690476D01*
X182382380Y-74833333D01*
X182382380Y-74928571D01*
X182334761Y-75071428D01*
X182239523Y-75166666D01*
X182144285Y-75214285D01*
X181953809Y-75261904D01*
X181810952Y-75261904D01*
X181620476Y-75214285D01*
X181525238Y-75166666D01*
X181430000Y-75071428D01*
X181382380Y-74928571D01*
X181382380Y-74833333D01*
X181430000Y-74690476D01*
X181477619Y-74642857D01*
X181382380Y-74309523D02*
X181382380Y-73690476D01*
X181763333Y-74023809D01*
X181763333Y-73880952D01*
X181810952Y-73785714D01*
X181858571Y-73738095D01*
X181953809Y-73690476D01*
X182191904Y-73690476D01*
X182287142Y-73738095D01*
X182334761Y-73785714D01*
X182382380Y-73880952D01*
X182382380Y-74166666D01*
X182334761Y-74261904D01*
X182287142Y-74309523D01*
X181715714Y-72833333D02*
X182382380Y-72833333D01*
X181334761Y-73071428D02*
X182049047Y-73309523D01*
X182049047Y-72690476D01*
X110757142Y-131366666D02*
X110804761Y-131414285D01*
X110852380Y-131557142D01*
X110852380Y-131652380D01*
X110804761Y-131795238D01*
X110709523Y-131890476D01*
X110614285Y-131938095D01*
X110423809Y-131985714D01*
X110280952Y-131985714D01*
X110090476Y-131938095D01*
X109995238Y-131890476D01*
X109900000Y-131795238D01*
X109852380Y-131652380D01*
X109852380Y-131557142D01*
X109900000Y-131414285D01*
X109947619Y-131366666D01*
X109852380Y-130509523D02*
X109852380Y-130700000D01*
X109900000Y-130795238D01*
X109947619Y-130842857D01*
X110090476Y-130938095D01*
X110280952Y-130985714D01*
X110661904Y-130985714D01*
X110757142Y-130938095D01*
X110804761Y-130890476D01*
X110852380Y-130795238D01*
X110852380Y-130604761D01*
X110804761Y-130509523D01*
X110757142Y-130461904D01*
X110661904Y-130414285D01*
X110423809Y-130414285D01*
X110328571Y-130461904D01*
X110280952Y-130509523D01*
X110233333Y-130604761D01*
X110233333Y-130795238D01*
X110280952Y-130890476D01*
X110328571Y-130938095D01*
X110423809Y-130985714D01*
X137488095Y-126452379D02*
X137488095Y-127261903D01*
X137535714Y-127357141D01*
X137583333Y-127404760D01*
X137678571Y-127452379D01*
X137869047Y-127452379D01*
X137964285Y-127404760D01*
X138011904Y-127357141D01*
X138059523Y-127261903D01*
X138059523Y-126452379D01*
X138440476Y-126452379D02*
X139059523Y-126452379D01*
X138726190Y-126833332D01*
X138869047Y-126833332D01*
X138964285Y-126880951D01*
X139011904Y-126928570D01*
X139059523Y-127023808D01*
X139059523Y-127261903D01*
X139011904Y-127357141D01*
X138964285Y-127404760D01*
X138869047Y-127452379D01*
X138583333Y-127452379D01*
X138488095Y-127404760D01*
X138440476Y-127357141D01*
X114761904Y-75452380D02*
X114761904Y-74452380D01*
X115000000Y-74452380D01*
X115142857Y-74500000D01*
X115238095Y-74595238D01*
X115285714Y-74690476D01*
X115333333Y-74880952D01*
X115333333Y-75023809D01*
X115285714Y-75214285D01*
X115238095Y-75309523D01*
X115142857Y-75404761D01*
X115000000Y-75452380D01*
X114761904Y-75452380D01*
X115666666Y-74452380D02*
X116333333Y-74452380D01*
X115904761Y-75452380D01*
X170857142Y-99142857D02*
X170904761Y-99190476D01*
X170952380Y-99333333D01*
X170952380Y-99428571D01*
X170904761Y-99571428D01*
X170809523Y-99666666D01*
X170714285Y-99714285D01*
X170523809Y-99761904D01*
X170380952Y-99761904D01*
X170190476Y-99714285D01*
X170095238Y-99666666D01*
X170000000Y-99571428D01*
X169952380Y-99428571D01*
X169952380Y-99333333D01*
X170000000Y-99190476D01*
X170047619Y-99142857D01*
X170047619Y-98761904D02*
X170000000Y-98714285D01*
X169952380Y-98619047D01*
X169952380Y-98380952D01*
X170000000Y-98285714D01*
X170047619Y-98238095D01*
X170142857Y-98190476D01*
X170238095Y-98190476D01*
X170380952Y-98238095D01*
X170952380Y-98809523D01*
X170952380Y-98190476D01*
X169952380Y-97857142D02*
X169952380Y-97238095D01*
X170333333Y-97571428D01*
X170333333Y-97428571D01*
X170380952Y-97333333D01*
X170428571Y-97285714D01*
X170523809Y-97238095D01*
X170761904Y-97238095D01*
X170857142Y-97285714D01*
X170904761Y-97333333D01*
X170952380Y-97428571D01*
X170952380Y-97714285D01*
X170904761Y-97809523D01*
X170857142Y-97857142D01*
X169738095Y-132952379D02*
X169738095Y-133761903D01*
X169785714Y-133857141D01*
X169833333Y-133904760D01*
X169928571Y-133952379D01*
X170119047Y-133952379D01*
X170214285Y-133904760D01*
X170261904Y-133857141D01*
X170309523Y-133761903D01*
X170309523Y-132952379D01*
X171214285Y-133285713D02*
X171214285Y-133952379D01*
X170976190Y-132904760D02*
X170738095Y-133619046D01*
X171357142Y-133619046D01*
X94857142Y-107857142D02*
X94809523Y-107904761D01*
X94666666Y-107952380D01*
X94571428Y-107952380D01*
X94428571Y-107904761D01*
X94333333Y-107809523D01*
X94285714Y-107714285D01*
X94238095Y-107523809D01*
X94238095Y-107380952D01*
X94285714Y-107190476D01*
X94333333Y-107095238D01*
X94428571Y-107000000D01*
X94571428Y-106952380D01*
X94666666Y-106952380D01*
X94809523Y-107000000D01*
X94857142Y-107047619D01*
X95809523Y-107952380D02*
X95238095Y-107952380D01*
X95523809Y-107952380D02*
X95523809Y-106952380D01*
X95428571Y-107095238D01*
X95333333Y-107190476D01*
X95238095Y-107238095D01*
X96380952Y-107380952D02*
X96285714Y-107333333D01*
X96238095Y-107285714D01*
X96190476Y-107190476D01*
X96190476Y-107142857D01*
X96238095Y-107047619D01*
X96285714Y-107000000D01*
X96380952Y-106952380D01*
X96571428Y-106952380D01*
X96666666Y-107000000D01*
X96714285Y-107047619D01*
X96761904Y-107142857D01*
X96761904Y-107190476D01*
X96714285Y-107285714D01*
X96666666Y-107333333D01*
X96571428Y-107380952D01*
X96380952Y-107380952D01*
X96285714Y-107428571D01*
X96238095Y-107476190D01*
X96190476Y-107571428D01*
X96190476Y-107761904D01*
X96238095Y-107857142D01*
X96285714Y-107904761D01*
X96380952Y-107952380D01*
X96571428Y-107952380D01*
X96666666Y-107904761D01*
X96714285Y-107857142D01*
X96761904Y-107761904D01*
X96761904Y-107571428D01*
X96714285Y-107476190D01*
X96666666Y-107428571D01*
X96571428Y-107380952D01*
D14*
X131010000Y-119140580D02*
X131010000Y-118859420D01*
X129990000Y-119140580D02*
X129990000Y-118859420D01*
X159990000Y-73859420D02*
X159990000Y-74140580D01*
X161010000Y-73859420D02*
X161010000Y-74140580D01*
X152200000Y-99585000D02*
X154400000Y-99585000D01*
X152200000Y-99585000D02*
X150000000Y-99585000D01*
X152200000Y-92815000D02*
X154400000Y-92815000D01*
X152200000Y-92815000D02*
X148600000Y-92815000D01*
X154000000Y-101125000D02*
X156000000Y-101125000D01*
X156000000Y-101125000D02*
X156000000Y-103925000D01*
X154000000Y-103925000D02*
X154000000Y-101125000D01*
X156000000Y-103925000D02*
X154000000Y-103925000D01*
X99170000Y-52670000D02*
X99170000Y-55330000D01*
X114530000Y-52670000D02*
X114530000Y-54000000D01*
X111930000Y-52670000D02*
X111930000Y-55330000D01*
X111930000Y-52670000D02*
X99170000Y-52670000D01*
X113200000Y-52670000D02*
X114530000Y-52670000D01*
X111930000Y-55330000D02*
X99170000Y-55330000D01*
X157265000Y-125699999D02*
X157265000Y-127984999D01*
X157265000Y-127984999D02*
X158735000Y-127984999D01*
X158735000Y-127984999D02*
X158735000Y-125699999D01*
X103211252Y-108235000D02*
X102688748Y-108235000D01*
X103211252Y-106765000D02*
X102688748Y-106765000D01*
X176470000Y-52670000D02*
X176470000Y-55330000D01*
X190500000Y-52670000D02*
X191830000Y-52670000D01*
X189230000Y-52670000D02*
X189230000Y-55330000D01*
X189230000Y-52670000D02*
X176470000Y-52670000D01*
X191830000Y-52670000D02*
X191830000Y-54000000D01*
X189230000Y-55330000D02*
X176470000Y-55330000D01*
X131850000Y-118750000D02*
X139150000Y-118750000D01*
X139150000Y-124250000D02*
X139150000Y-123100000D01*
X131850000Y-124250000D02*
X139150000Y-124250000D01*
X186110000Y-92634420D02*
X186110000Y-92915580D01*
X185090000Y-92634420D02*
X185090000Y-92915580D01*
X184400000Y-111165000D02*
X186350000Y-111165000D01*
X184400000Y-111165000D02*
X180950000Y-111165000D01*
X184400000Y-120035000D02*
X182450000Y-120035000D01*
X184400000Y-120035000D02*
X186350000Y-120035000D01*
X179150000Y-124250000D02*
X179150000Y-123100000D01*
X171850000Y-118750000D02*
X179150000Y-118750000D01*
X171850000Y-124250000D02*
X179150000Y-124250000D01*
X165485000Y-135988748D02*
X165485000Y-136511252D01*
X164015000Y-135988748D02*
X164015000Y-136511252D01*
X198630000Y-118700000D02*
X198630000Y-121300000D01*
X198630000Y-123230000D02*
X198630000Y-123200000D01*
X198630000Y-116770000D02*
X198630000Y-116800000D01*
X192170000Y-116800000D02*
X192170000Y-116770000D01*
X192170000Y-123230000D02*
X192170000Y-123200000D01*
X192170000Y-118700000D02*
X192170000Y-121300000D01*
X192170000Y-123230000D02*
X198630000Y-123230000D01*
X192170000Y-116770000D02*
X198630000Y-116770000D01*
X103977500Y-83762742D02*
X103977500Y-84237258D01*
X105022500Y-83762742D02*
X105022500Y-84237258D01*
X116540000Y-129565000D02*
X116540000Y-130825000D01*
X122550000Y-136385000D02*
X116540000Y-136385000D01*
X120300000Y-129565000D02*
X116540000Y-129565000D01*
X116540000Y-136385000D02*
X116540000Y-135125000D01*
X174010000Y-129634419D02*
X174010000Y-129915579D01*
X172990000Y-129634419D02*
X172990000Y-129915579D01*
X101022500Y-83762742D02*
X101022500Y-84237258D01*
X99977500Y-83762742D02*
X99977500Y-84237258D01*
X127765000Y-98188747D02*
X127765000Y-98711251D01*
X129235000Y-98188747D02*
X129235000Y-98711251D01*
X116380000Y-87380000D02*
X116380000Y-88380000D01*
X97055000Y-105620000D02*
X97055000Y-106000000D01*
X90640000Y-87380000D02*
X97055000Y-87380000D01*
X116380000Y-105620000D02*
X116380000Y-104620000D01*
X90640000Y-105620000D02*
X90640000Y-87380000D01*
X90640000Y-105620000D02*
X97055000Y-105620000D01*
X115600000Y-87380000D02*
X116380000Y-87380000D01*
X115600000Y-105620000D02*
X116380000Y-105620000D01*
X134459420Y-101890000D02*
X134740580Y-101890000D01*
X134459420Y-102910000D02*
X134740580Y-102910000D01*
X129022500Y-101762742D02*
X129022500Y-102237258D01*
X127977500Y-101762742D02*
X127977500Y-102237258D01*
X151250000Y-101125000D02*
X153250000Y-101125000D01*
X153250000Y-103925000D02*
X151250000Y-103925000D01*
X153250000Y-101125000D02*
X153250000Y-103925000D01*
X151250000Y-103925000D02*
X151250000Y-101125000D01*
X148500000Y-103925000D02*
X148500000Y-101125000D01*
X148500000Y-101125000D02*
X150500000Y-101125000D01*
X150500000Y-101125000D02*
X150500000Y-103925000D01*
X150500000Y-103925000D02*
X148500000Y-103925000D01*
X194922500Y-125637258D02*
X194922500Y-125162742D01*
X193877500Y-125637258D02*
X193877500Y-125162742D01*
X179022500Y-102737258D02*
X179022500Y-102262742D01*
X177977500Y-102737258D02*
X177977500Y-102262742D01*
X151850000Y-118750000D02*
X159150000Y-118750000D01*
X159150000Y-124250000D02*
X159150000Y-123100000D01*
X151850000Y-124250000D02*
X159150000Y-124250000D01*
X159500000Y-130940000D02*
X161450000Y-130940000D01*
X159500000Y-136060000D02*
X157550000Y-136060000D01*
X159500000Y-130940000D02*
X156050000Y-130940000D01*
X159500000Y-136060000D02*
X161450000Y-136060000D01*
X127000000Y-94500000D02*
X122000000Y-94500000D01*
X122000000Y-94500000D02*
X122000000Y-98500000D01*
X122000000Y-98500000D02*
X127000000Y-98500000D01*
X127000000Y-98500000D02*
X127000000Y-94500000D01*
X127000000Y-96500000D02*
G75*
G03*
X127000000Y-96500000I-1500000J0D01*
G01*
X108084420Y-108010000D02*
X108365580Y-108010000D01*
X108084420Y-106990000D02*
X108365580Y-106990000D01*
X192077500Y-125162742D02*
X192077500Y-125637258D01*
X193122500Y-125162742D02*
X193122500Y-125637258D01*
X146140580Y-95710000D02*
X145859420Y-95710000D01*
X146140580Y-94690000D02*
X145859420Y-94690000D01*
X181500000Y-100940000D02*
X179825000Y-100940000D01*
X181500000Y-104060000D02*
X180850000Y-104060000D01*
X181500000Y-100940000D02*
X182150000Y-100940000D01*
X181500000Y-104060000D02*
X182150000Y-104060000D01*
X139450000Y-137449999D02*
X140800000Y-137449999D01*
X145050000Y-137449999D02*
X143700000Y-137449999D01*
X145050000Y-131649999D02*
X143700000Y-131649999D01*
X139450000Y-131649999D02*
X140800000Y-131649999D01*
X139450000Y-137449999D02*
X139450000Y-131649999D01*
X145050000Y-137449999D02*
X145050000Y-131649999D01*
X194600000Y-91800000D02*
X196600000Y-91800000D01*
X194600000Y-101200000D02*
X196600000Y-101200000D01*
X198500000Y-91800000D02*
X200400000Y-91800000D01*
X200400000Y-101200000D02*
X200400000Y-91800000D01*
X198500000Y-101200000D02*
X200400000Y-101200000D01*
X160522500Y-126737257D02*
X160522500Y-126262741D01*
X159477500Y-126737257D02*
X159477500Y-126262741D01*
X123690000Y-131234420D02*
X123690000Y-131515580D01*
X124710000Y-131234420D02*
X124710000Y-131515580D01*
X136409999Y-128788747D02*
X136409999Y-130211251D01*
X134589999Y-128788747D02*
X134589999Y-130211251D01*
X186740580Y-110510000D02*
X186459420Y-110510000D01*
X186740580Y-109490000D02*
X186459420Y-109490000D01*
X144890579Y-129739999D02*
X144609419Y-129739999D01*
X144890579Y-130759999D02*
X144609419Y-130759999D01*
X138760000Y-129359419D02*
X138760000Y-129640579D01*
X137740000Y-129359419D02*
X137740000Y-129640579D01*
X183977500Y-102262742D02*
X183977500Y-102737258D01*
X185022500Y-102262742D02*
X185022500Y-102737258D01*
X155477500Y-126737257D02*
X155477500Y-126262741D01*
X156522500Y-126737257D02*
X156522500Y-126262741D01*
X141390580Y-125989999D02*
X141109420Y-125989999D01*
X141390580Y-127009999D02*
X141109420Y-127009999D01*
X186837742Y-124977500D02*
X187312258Y-124977500D01*
X186837742Y-126022500D02*
X187312258Y-126022500D01*
X182522500Y-90087742D02*
X182522500Y-90562258D01*
X181477500Y-90087742D02*
X181477500Y-90562258D01*
X192737258Y-102477500D02*
X192262742Y-102477500D01*
X192737258Y-103522500D02*
X192262742Y-103522500D01*
X154730000Y-86495000D02*
X154730000Y-89155000D01*
X157330000Y-87825000D02*
X157330000Y-89155000D01*
X147050000Y-86495000D02*
X147050000Y-89155000D01*
X154730000Y-89155000D02*
X147050000Y-89155000D01*
X157330000Y-89155000D02*
X156000000Y-89155000D01*
X154730000Y-86495000D02*
X147050000Y-86495000D01*
X102522500Y-110737258D02*
X102522500Y-110262742D01*
X101477500Y-110737258D02*
X101477500Y-110262742D01*
X119150000Y-124250000D02*
X119150000Y-123100000D01*
X111850000Y-124250000D02*
X119150000Y-124250000D01*
X111850000Y-118750000D02*
X119150000Y-118750000D01*
X144512742Y-126227499D02*
X144987258Y-126227499D01*
X144512742Y-127272499D02*
X144987258Y-127272499D01*
X195677500Y-125162742D02*
X195677500Y-125637258D01*
X196722500Y-125162742D02*
X196722500Y-125637258D01*
X145590000Y-135711251D02*
X145590000Y-134288747D01*
X147410000Y-135711251D02*
X147410000Y-134288747D01*
X125590000Y-131363748D02*
X125590000Y-132786252D01*
X127410000Y-131363748D02*
X127410000Y-132786252D01*
X178890000Y-92665000D02*
X178890000Y-93390000D01*
X178890000Y-97885000D02*
X178890000Y-97160000D01*
X184110000Y-92665000D02*
X184110000Y-93390000D01*
X179615000Y-97885000D02*
X178890000Y-97885000D01*
X179615000Y-92665000D02*
X178890000Y-92665000D01*
X183385000Y-97885000D02*
X184110000Y-97885000D01*
X183385000Y-92665000D02*
X184110000Y-92665000D01*
X141010000Y-73859420D02*
X141010000Y-74140580D01*
X139990000Y-73859420D02*
X139990000Y-74140580D01*
X153990000Y-135040580D02*
X153990000Y-134759420D01*
X155010000Y-135040580D02*
X155010000Y-134759420D01*
X188010000Y-92634420D02*
X188010000Y-92915580D01*
X186990000Y-92634420D02*
X186990000Y-92915580D01*
X119990000Y-73859420D02*
X119990000Y-74140580D01*
X121010000Y-73859420D02*
X121010000Y-74140580D01*
X172977500Y-133237257D02*
X172977500Y-132762741D01*
X174022500Y-133237257D02*
X174022500Y-132762741D01*
X166227500Y-130162258D02*
X166227500Y-129687742D01*
X167272500Y-130162258D02*
X167272500Y-129687742D01*
X187562499Y-100940000D02*
X188212499Y-100940000D01*
X187562499Y-104060000D02*
X188212499Y-104060000D01*
X187562499Y-100940000D02*
X185887499Y-100940000D01*
X187562499Y-104060000D02*
X186912499Y-104060000D01*
X187500000Y-98060000D02*
X189300000Y-98060000D01*
X187500000Y-94940000D02*
X186700000Y-94940000D01*
X187500000Y-94940000D02*
X188300000Y-94940000D01*
X187500000Y-98060000D02*
X186700000Y-98060000D01*
X192737258Y-90522500D02*
X192262742Y-90522500D01*
X192737258Y-89477500D02*
X192262742Y-89477500D01*
X112290000Y-133634420D02*
X112290000Y-133915580D01*
X113310000Y-133634420D02*
X113310000Y-133915580D01*
X198630000Y-115030000D02*
X198630000Y-115000000D01*
X198630000Y-110500000D02*
X198630000Y-113100000D01*
X192170000Y-115030000D02*
X192170000Y-115000000D01*
X192170000Y-108570000D02*
X198630000Y-108570000D01*
X192170000Y-110500000D02*
X192170000Y-113100000D01*
X198630000Y-108570000D02*
X198630000Y-108600000D01*
X192170000Y-115030000D02*
X198630000Y-115030000D01*
X192170000Y-108600000D02*
X192170000Y-108570000D01*
X146061252Y-93935000D02*
X145538748Y-93935000D01*
X146061252Y-92465000D02*
X145538748Y-92465000D01*
X139150000Y-74250000D02*
X131850000Y-74250000D01*
X131850000Y-68750000D02*
X131850000Y-69900000D01*
X139150000Y-68750000D02*
X131850000Y-68750000D01*
X136400000Y-92165000D02*
X138350000Y-92165000D01*
X136400000Y-101035000D02*
X139850000Y-101035000D01*
X136400000Y-101035000D02*
X134450000Y-101035000D01*
X136400000Y-92165000D02*
X134450000Y-92165000D01*
X167977500Y-101762742D02*
X167977500Y-102237258D01*
X169022500Y-101762742D02*
X169022500Y-102237258D01*
X183437742Y-124977500D02*
X183912258Y-124977500D01*
X183437742Y-126022500D02*
X183912258Y-126022500D01*
X184522500Y-90562258D02*
X184522500Y-90087742D01*
X183477500Y-90562258D02*
X183477500Y-90087742D01*
X155022500Y-131737257D02*
X155022500Y-131262741D01*
X153977500Y-131737257D02*
X153977500Y-131262741D01*
X151010000Y-119140580D02*
X151010000Y-118859420D01*
X149990000Y-119140580D02*
X149990000Y-118859420D01*
X109990000Y-119140580D02*
X109990000Y-118859420D01*
X111010000Y-119140580D02*
X111010000Y-118859420D01*
X99261252Y-109265000D02*
X98738748Y-109265000D01*
X99261252Y-110735000D02*
X98738748Y-110735000D01*
X159150000Y-74250000D02*
X151850000Y-74250000D01*
X159150000Y-68750000D02*
X151850000Y-68750000D01*
X151850000Y-68750000D02*
X151850000Y-69900000D01*
X179150000Y-68750000D02*
X171850000Y-68750000D01*
X171850000Y-68750000D02*
X171850000Y-69900000D01*
X179150000Y-74250000D02*
X171850000Y-74250000D01*
X180522500Y-90087742D02*
X180522500Y-90562258D01*
X179477500Y-90087742D02*
X179477500Y-90562258D01*
X133660000Y-128788747D02*
X133660000Y-130211251D01*
X131840000Y-128788747D02*
X131840000Y-130211251D01*
X162735000Y-127984999D02*
X162735000Y-125699999D01*
X161265000Y-127984999D02*
X162735000Y-127984999D01*
X161265000Y-125699999D02*
X161265000Y-127984999D01*
X145762742Y-96477500D02*
X146237258Y-96477500D01*
X145762742Y-97522500D02*
X146237258Y-97522500D01*
X172250000Y-138110000D02*
X170050000Y-138110000D01*
X172250000Y-138110000D02*
X175850000Y-138110000D01*
X172250000Y-134890000D02*
X170050000Y-134890000D01*
X172250000Y-134890000D02*
X174450000Y-134890000D01*
X197477500Y-125637258D02*
X197477500Y-125162742D01*
X198522500Y-125637258D02*
X198522500Y-125162742D01*
X108510000Y-133888748D02*
X108510000Y-135311252D01*
X106690000Y-133888748D02*
X106690000Y-135311252D01*
X167000000Y-94500000D02*
X162000000Y-94500000D01*
X162000000Y-94500000D02*
X162000000Y-98500000D01*
X162000000Y-98500000D02*
X167000000Y-98500000D01*
X167000000Y-98500000D02*
X167000000Y-94500000D01*
X167000000Y-96500000D02*
G75*
G03*
X167000000Y-96500000I-1500000J0D01*
G01*
X170090000Y-119140580D02*
X170090000Y-118859420D01*
X171110000Y-119140580D02*
X171110000Y-118859420D01*
X144987258Y-129022499D02*
X144512742Y-129022499D01*
X144987258Y-127977499D02*
X144512742Y-127977499D01*
X179990000Y-73859420D02*
X179990000Y-74140580D01*
X181010000Y-73859420D02*
X181010000Y-74140580D01*
X111310000Y-133888748D02*
X111310000Y-135311252D01*
X109490000Y-133888748D02*
X109490000Y-135311252D01*
D15*
X142600000Y-128749999D02*
G75*
G03*
X142600000Y-128749999I-100000J0D01*
G01*
D14*
X119150000Y-68750000D02*
X111850000Y-68750000D01*
X111850000Y-68750000D02*
X111850000Y-69900000D01*
X119150000Y-74250000D02*
X111850000Y-74250000D01*
X169235000Y-98238748D02*
X169235000Y-98761252D01*
X167765000Y-98238748D02*
X167765000Y-98761252D01*
X170300000Y-129439999D02*
X171100000Y-129439999D01*
X170300000Y-132559999D02*
X169500000Y-132559999D01*
X170300000Y-132559999D02*
X171100000Y-132559999D01*
X170300000Y-129439999D02*
X168500000Y-129439999D01*
X99140580Y-106990000D02*
X98859420Y-106990000D01*
X99140580Y-108010000D02*
X98859420Y-108010000D01*
%LPC*%
G36*
X141910000Y-129575999D02*
G01*
X141916000Y-129575999D01*
X141926000Y-129577999D01*
X141941000Y-129583999D01*
X141945000Y-129585999D01*
X141950000Y-129587999D01*
X141954000Y-129590999D01*
X141959000Y-129593999D01*
X141963000Y-129596999D01*
X141967000Y-129600999D01*
X141971000Y-129603999D01*
X141974000Y-129607999D01*
X141978000Y-129611999D01*
X141981000Y-129615999D01*
X141984000Y-129620999D01*
X141987000Y-129624999D01*
X141989000Y-129629999D01*
X141991000Y-129633999D01*
X141997000Y-129648999D01*
X141999000Y-129658999D01*
X141999000Y-129664999D01*
X142000000Y-129669999D01*
X142000000Y-129829999D01*
X141999000Y-129834999D01*
X141999000Y-129840999D01*
X141997000Y-129850999D01*
X141991000Y-129865999D01*
X141989000Y-129869999D01*
X141987000Y-129874999D01*
X141984000Y-129878999D01*
X141981000Y-129883999D01*
X141978000Y-129887999D01*
X141974000Y-129891999D01*
X141971000Y-129895999D01*
X141967000Y-129898999D01*
X141963000Y-129902999D01*
X141959000Y-129905999D01*
X141954000Y-129908999D01*
X141950000Y-129911999D01*
X141945000Y-129913999D01*
X141941000Y-129915999D01*
X141926000Y-129921999D01*
X141916000Y-129923999D01*
X141910000Y-129923999D01*
X141905000Y-129924999D01*
X141395000Y-129924999D01*
X141390000Y-129923999D01*
X141384000Y-129923999D01*
X141374000Y-129921999D01*
X141359000Y-129915999D01*
X141355000Y-129913999D01*
X141350000Y-129911999D01*
X141346000Y-129908999D01*
X141341000Y-129905999D01*
X141337000Y-129902999D01*
X141333000Y-129898999D01*
X141329000Y-129895999D01*
X141326000Y-129891999D01*
X141322000Y-129887999D01*
X141319000Y-129883999D01*
X141316000Y-129878999D01*
X141313000Y-129874999D01*
X141311000Y-129869999D01*
X141309000Y-129865999D01*
X141303000Y-129850999D01*
X141301000Y-129840999D01*
X141301000Y-129834999D01*
X141300000Y-129829999D01*
X141300000Y-129669999D01*
X141301000Y-129664999D01*
X141301000Y-129658999D01*
X141303000Y-129648999D01*
X141309000Y-129633999D01*
X141311000Y-129629999D01*
X141313000Y-129624999D01*
X141316000Y-129620999D01*
X141319000Y-129615999D01*
X141322000Y-129611999D01*
X141326000Y-129607999D01*
X141329000Y-129603999D01*
X141333000Y-129600999D01*
X141337000Y-129596999D01*
X141341000Y-129593999D01*
X141346000Y-129590999D01*
X141350000Y-129587999D01*
X141355000Y-129585999D01*
X141359000Y-129583999D01*
X141374000Y-129577999D01*
X141384000Y-129575999D01*
X141390000Y-129575999D01*
X141395000Y-129574999D01*
X141905000Y-129574999D01*
X141910000Y-129575999D01*
G37*
D16*
X141910000Y-129575999D02*
X141916000Y-129575999D01*
X141926000Y-129577999D01*
X141941000Y-129583999D01*
X141945000Y-129585999D01*
X141950000Y-129587999D01*
X141954000Y-129590999D01*
X141959000Y-129593999D01*
X141963000Y-129596999D01*
X141967000Y-129600999D01*
X141971000Y-129603999D01*
X141974000Y-129607999D01*
X141978000Y-129611999D01*
X141981000Y-129615999D01*
X141984000Y-129620999D01*
X141987000Y-129624999D01*
X141989000Y-129629999D01*
X141991000Y-129633999D01*
X141997000Y-129648999D01*
X141999000Y-129658999D01*
X141999000Y-129664999D01*
X142000000Y-129669999D01*
X142000000Y-129829999D01*
X141999000Y-129834999D01*
X141999000Y-129840999D01*
X141997000Y-129850999D01*
X141991000Y-129865999D01*
X141989000Y-129869999D01*
X141987000Y-129874999D01*
X141984000Y-129878999D01*
X141981000Y-129883999D01*
X141978000Y-129887999D01*
X141974000Y-129891999D01*
X141971000Y-129895999D01*
X141967000Y-129898999D01*
X141963000Y-129902999D01*
X141959000Y-129905999D01*
X141954000Y-129908999D01*
X141950000Y-129911999D01*
X141945000Y-129913999D01*
X141941000Y-129915999D01*
X141926000Y-129921999D01*
X141916000Y-129923999D01*
X141910000Y-129923999D01*
X141905000Y-129924999D01*
X141395000Y-129924999D01*
X141390000Y-129923999D01*
X141384000Y-129923999D01*
X141374000Y-129921999D01*
X141359000Y-129915999D01*
X141355000Y-129913999D01*
X141350000Y-129911999D01*
X141346000Y-129908999D01*
X141341000Y-129905999D01*
X141337000Y-129902999D01*
X141333000Y-129898999D01*
X141329000Y-129895999D01*
X141326000Y-129891999D01*
X141322000Y-129887999D01*
X141319000Y-129883999D01*
X141316000Y-129878999D01*
X141313000Y-129874999D01*
X141311000Y-129869999D01*
X141309000Y-129865999D01*
X141303000Y-129850999D01*
X141301000Y-129840999D01*
X141301000Y-129834999D01*
X141300000Y-129829999D01*
X141300000Y-129669999D01*
X141301000Y-129664999D01*
X141301000Y-129658999D01*
X141303000Y-129648999D01*
X141309000Y-129633999D01*
X141311000Y-129629999D01*
X141313000Y-129624999D01*
X141316000Y-129620999D01*
X141319000Y-129615999D01*
X141322000Y-129611999D01*
X141326000Y-129607999D01*
X141329000Y-129603999D01*
X141333000Y-129600999D01*
X141337000Y-129596999D01*
X141341000Y-129593999D01*
X141346000Y-129590999D01*
X141350000Y-129587999D01*
X141355000Y-129585999D01*
X141359000Y-129583999D01*
X141374000Y-129577999D01*
X141384000Y-129575999D01*
X141390000Y-129575999D01*
X141395000Y-129574999D01*
X141905000Y-129574999D01*
X141910000Y-129575999D01*
G36*
X141910000Y-130075999D02*
G01*
X141916000Y-130075999D01*
X141926000Y-130077999D01*
X141941000Y-130083999D01*
X141945000Y-130085999D01*
X141950000Y-130087999D01*
X141954000Y-130090999D01*
X141959000Y-130093999D01*
X141963000Y-130096999D01*
X141967000Y-130100999D01*
X141971000Y-130103999D01*
X141974000Y-130107999D01*
X141978000Y-130111999D01*
X141981000Y-130115999D01*
X141984000Y-130120999D01*
X141987000Y-130124999D01*
X141989000Y-130129999D01*
X141991000Y-130133999D01*
X141997000Y-130148999D01*
X141999000Y-130158999D01*
X141999000Y-130164999D01*
X142000000Y-130169999D01*
X142000000Y-130329999D01*
X141999000Y-130334999D01*
X141999000Y-130340999D01*
X141997000Y-130350999D01*
X141991000Y-130365999D01*
X141989000Y-130369999D01*
X141987000Y-130374999D01*
X141984000Y-130378999D01*
X141981000Y-130383999D01*
X141978000Y-130387999D01*
X141974000Y-130391999D01*
X141971000Y-130395999D01*
X141967000Y-130398999D01*
X141963000Y-130402999D01*
X141959000Y-130405999D01*
X141954000Y-130408999D01*
X141950000Y-130411999D01*
X141945000Y-130413999D01*
X141941000Y-130415999D01*
X141926000Y-130421999D01*
X141916000Y-130423999D01*
X141910000Y-130423999D01*
X141905000Y-130424999D01*
X141395000Y-130424999D01*
X141390000Y-130423999D01*
X141384000Y-130423999D01*
X141374000Y-130421999D01*
X141359000Y-130415999D01*
X141355000Y-130413999D01*
X141350000Y-130411999D01*
X141346000Y-130408999D01*
X141341000Y-130405999D01*
X141337000Y-130402999D01*
X141333000Y-130398999D01*
X141329000Y-130395999D01*
X141326000Y-130391999D01*
X141322000Y-130387999D01*
X141319000Y-130383999D01*
X141316000Y-130378999D01*
X141313000Y-130374999D01*
X141311000Y-130369999D01*
X141309000Y-130365999D01*
X141303000Y-130350999D01*
X141301000Y-130340999D01*
X141301000Y-130334999D01*
X141300000Y-130329999D01*
X141300000Y-130169999D01*
X141301000Y-130164999D01*
X141301000Y-130158999D01*
X141303000Y-130148999D01*
X141309000Y-130133999D01*
X141311000Y-130129999D01*
X141313000Y-130124999D01*
X141316000Y-130120999D01*
X141319000Y-130115999D01*
X141322000Y-130111999D01*
X141326000Y-130107999D01*
X141329000Y-130103999D01*
X141333000Y-130100999D01*
X141337000Y-130096999D01*
X141341000Y-130093999D01*
X141346000Y-130090999D01*
X141350000Y-130087999D01*
X141355000Y-130085999D01*
X141359000Y-130083999D01*
X141374000Y-130077999D01*
X141384000Y-130075999D01*
X141390000Y-130075999D01*
X141395000Y-130074999D01*
X141905000Y-130074999D01*
X141910000Y-130075999D01*
G37*
X141910000Y-130075999D02*
X141916000Y-130075999D01*
X141926000Y-130077999D01*
X141941000Y-130083999D01*
X141945000Y-130085999D01*
X141950000Y-130087999D01*
X141954000Y-130090999D01*
X141959000Y-130093999D01*
X141963000Y-130096999D01*
X141967000Y-130100999D01*
X141971000Y-130103999D01*
X141974000Y-130107999D01*
X141978000Y-130111999D01*
X141981000Y-130115999D01*
X141984000Y-130120999D01*
X141987000Y-130124999D01*
X141989000Y-130129999D01*
X141991000Y-130133999D01*
X141997000Y-130148999D01*
X141999000Y-130158999D01*
X141999000Y-130164999D01*
X142000000Y-130169999D01*
X142000000Y-130329999D01*
X141999000Y-130334999D01*
X141999000Y-130340999D01*
X141997000Y-130350999D01*
X141991000Y-130365999D01*
X141989000Y-130369999D01*
X141987000Y-130374999D01*
X141984000Y-130378999D01*
X141981000Y-130383999D01*
X141978000Y-130387999D01*
X141974000Y-130391999D01*
X141971000Y-130395999D01*
X141967000Y-130398999D01*
X141963000Y-130402999D01*
X141959000Y-130405999D01*
X141954000Y-130408999D01*
X141950000Y-130411999D01*
X141945000Y-130413999D01*
X141941000Y-130415999D01*
X141926000Y-130421999D01*
X141916000Y-130423999D01*
X141910000Y-130423999D01*
X141905000Y-130424999D01*
X141395000Y-130424999D01*
X141390000Y-130423999D01*
X141384000Y-130423999D01*
X141374000Y-130421999D01*
X141359000Y-130415999D01*
X141355000Y-130413999D01*
X141350000Y-130411999D01*
X141346000Y-130408999D01*
X141341000Y-130405999D01*
X141337000Y-130402999D01*
X141333000Y-130398999D01*
X141329000Y-130395999D01*
X141326000Y-130391999D01*
X141322000Y-130387999D01*
X141319000Y-130383999D01*
X141316000Y-130378999D01*
X141313000Y-130374999D01*
X141311000Y-130369999D01*
X141309000Y-130365999D01*
X141303000Y-130350999D01*
X141301000Y-130340999D01*
X141301000Y-130334999D01*
X141300000Y-130329999D01*
X141300000Y-130169999D01*
X141301000Y-130164999D01*
X141301000Y-130158999D01*
X141303000Y-130148999D01*
X141309000Y-130133999D01*
X141311000Y-130129999D01*
X141313000Y-130124999D01*
X141316000Y-130120999D01*
X141319000Y-130115999D01*
X141322000Y-130111999D01*
X141326000Y-130107999D01*
X141329000Y-130103999D01*
X141333000Y-130100999D01*
X141337000Y-130096999D01*
X141341000Y-130093999D01*
X141346000Y-130090999D01*
X141350000Y-130087999D01*
X141355000Y-130085999D01*
X141359000Y-130083999D01*
X141374000Y-130077999D01*
X141384000Y-130075999D01*
X141390000Y-130075999D01*
X141395000Y-130074999D01*
X141905000Y-130074999D01*
X141910000Y-130075999D01*
G36*
X140318000Y-129800999D02*
G01*
X140320000Y-129800999D01*
X140323000Y-129801999D01*
X140325000Y-129801999D01*
X140328000Y-129802999D01*
X140330000Y-129803999D01*
X140333000Y-129804999D01*
X140335000Y-129806999D01*
X140337000Y-129807999D01*
X140339000Y-129809999D01*
X140341000Y-129810999D01*
X140349000Y-129818999D01*
X140350000Y-129820999D01*
X140352000Y-129822999D01*
X140353000Y-129824999D01*
X140355000Y-129826999D01*
X140356000Y-129829999D01*
X140357000Y-129831999D01*
X140358000Y-129834999D01*
X140358000Y-129836999D01*
X140359000Y-129839999D01*
X140359000Y-129841999D01*
X140360000Y-129844999D01*
X140360000Y-130654999D01*
X140359000Y-130657999D01*
X140359000Y-130659999D01*
X140358000Y-130662999D01*
X140358000Y-130664999D01*
X140357000Y-130667999D01*
X140356000Y-130669999D01*
X140355000Y-130672999D01*
X140353000Y-130674999D01*
X140352000Y-130676999D01*
X140350000Y-130678999D01*
X140349000Y-130680999D01*
X140341000Y-130688999D01*
X140339000Y-130689999D01*
X140337000Y-130691999D01*
X140335000Y-130692999D01*
X140333000Y-130694999D01*
X140330000Y-130695999D01*
X140328000Y-130696999D01*
X140325000Y-130697999D01*
X140323000Y-130697999D01*
X140320000Y-130698999D01*
X140318000Y-130698999D01*
X140315000Y-130699999D01*
X140105000Y-130699999D01*
X140102000Y-130698999D01*
X140100000Y-130698999D01*
X140097000Y-130697999D01*
X140095000Y-130697999D01*
X140092000Y-130696999D01*
X140090000Y-130695999D01*
X140087000Y-130694999D01*
X140085000Y-130692999D01*
X140083000Y-130691999D01*
X140081000Y-130689999D01*
X140079000Y-130688999D01*
X140071000Y-130680999D01*
X140070000Y-130678999D01*
X140068000Y-130676999D01*
X140067000Y-130674999D01*
X140065000Y-130672999D01*
X140064000Y-130669999D01*
X140063000Y-130667999D01*
X140062000Y-130664999D01*
X140062000Y-130662999D01*
X140061000Y-130659999D01*
X140061000Y-130657999D01*
X140060000Y-130654999D01*
X140060000Y-129844999D01*
X140061000Y-129841999D01*
X140061000Y-129839999D01*
X140062000Y-129836999D01*
X140062000Y-129834999D01*
X140063000Y-129831999D01*
X140064000Y-129829999D01*
X140065000Y-129826999D01*
X140067000Y-129824999D01*
X140068000Y-129822999D01*
X140070000Y-129820999D01*
X140071000Y-129818999D01*
X140079000Y-129810999D01*
X140081000Y-129809999D01*
X140083000Y-129807999D01*
X140085000Y-129806999D01*
X140087000Y-129804999D01*
X140090000Y-129803999D01*
X140092000Y-129802999D01*
X140095000Y-129801999D01*
X140097000Y-129801999D01*
X140100000Y-129800999D01*
X140102000Y-129800999D01*
X140105000Y-129799999D01*
X140315000Y-129799999D01*
X140318000Y-129800999D01*
G37*
X140318000Y-129800999D02*
X140320000Y-129800999D01*
X140323000Y-129801999D01*
X140325000Y-129801999D01*
X140328000Y-129802999D01*
X140330000Y-129803999D01*
X140333000Y-129804999D01*
X140335000Y-129806999D01*
X140337000Y-129807999D01*
X140339000Y-129809999D01*
X140341000Y-129810999D01*
X140349000Y-129818999D01*
X140350000Y-129820999D01*
X140352000Y-129822999D01*
X140353000Y-129824999D01*
X140355000Y-129826999D01*
X140356000Y-129829999D01*
X140357000Y-129831999D01*
X140358000Y-129834999D01*
X140358000Y-129836999D01*
X140359000Y-129839999D01*
X140359000Y-129841999D01*
X140360000Y-129844999D01*
X140360000Y-130654999D01*
X140359000Y-130657999D01*
X140359000Y-130659999D01*
X140358000Y-130662999D01*
X140358000Y-130664999D01*
X140357000Y-130667999D01*
X140356000Y-130669999D01*
X140355000Y-130672999D01*
X140353000Y-130674999D01*
X140352000Y-130676999D01*
X140350000Y-130678999D01*
X140349000Y-130680999D01*
X140341000Y-130688999D01*
X140339000Y-130689999D01*
X140337000Y-130691999D01*
X140335000Y-130692999D01*
X140333000Y-130694999D01*
X140330000Y-130695999D01*
X140328000Y-130696999D01*
X140325000Y-130697999D01*
X140323000Y-130697999D01*
X140320000Y-130698999D01*
X140318000Y-130698999D01*
X140315000Y-130699999D01*
X140105000Y-130699999D01*
X140102000Y-130698999D01*
X140100000Y-130698999D01*
X140097000Y-130697999D01*
X140095000Y-130697999D01*
X140092000Y-130696999D01*
X140090000Y-130695999D01*
X140087000Y-130694999D01*
X140085000Y-130692999D01*
X140083000Y-130691999D01*
X140081000Y-130689999D01*
X140079000Y-130688999D01*
X140071000Y-130680999D01*
X140070000Y-130678999D01*
X140068000Y-130676999D01*
X140067000Y-130674999D01*
X140065000Y-130672999D01*
X140064000Y-130669999D01*
X140063000Y-130667999D01*
X140062000Y-130664999D01*
X140062000Y-130662999D01*
X140061000Y-130659999D01*
X140061000Y-130657999D01*
X140060000Y-130654999D01*
X140060000Y-129844999D01*
X140061000Y-129841999D01*
X140061000Y-129839999D01*
X140062000Y-129836999D01*
X140062000Y-129834999D01*
X140063000Y-129831999D01*
X140064000Y-129829999D01*
X140065000Y-129826999D01*
X140067000Y-129824999D01*
X140068000Y-129822999D01*
X140070000Y-129820999D01*
X140071000Y-129818999D01*
X140079000Y-129810999D01*
X140081000Y-129809999D01*
X140083000Y-129807999D01*
X140085000Y-129806999D01*
X140087000Y-129804999D01*
X140090000Y-129803999D01*
X140092000Y-129802999D01*
X140095000Y-129801999D01*
X140097000Y-129801999D01*
X140100000Y-129800999D01*
X140102000Y-129800999D01*
X140105000Y-129799999D01*
X140315000Y-129799999D01*
X140318000Y-129800999D01*
G36*
X140318000Y-128300999D02*
G01*
X140320000Y-128300999D01*
X140323000Y-128301999D01*
X140325000Y-128301999D01*
X140328000Y-128302999D01*
X140330000Y-128303999D01*
X140333000Y-128304999D01*
X140335000Y-128306999D01*
X140337000Y-128307999D01*
X140339000Y-128309999D01*
X140341000Y-128310999D01*
X140349000Y-128318999D01*
X140350000Y-128320999D01*
X140352000Y-128322999D01*
X140353000Y-128324999D01*
X140355000Y-128326999D01*
X140356000Y-128329999D01*
X140357000Y-128331999D01*
X140358000Y-128334999D01*
X140358000Y-128336999D01*
X140359000Y-128339999D01*
X140359000Y-128341999D01*
X140360000Y-128344999D01*
X140360000Y-129454999D01*
X140359000Y-129457999D01*
X140359000Y-129459999D01*
X140358000Y-129462999D01*
X140358000Y-129464999D01*
X140357000Y-129467999D01*
X140356000Y-129469999D01*
X140355000Y-129472999D01*
X140353000Y-129474999D01*
X140352000Y-129476999D01*
X140350000Y-129478999D01*
X140349000Y-129480999D01*
X140341000Y-129488999D01*
X140339000Y-129489999D01*
X140337000Y-129491999D01*
X140335000Y-129492999D01*
X140333000Y-129494999D01*
X140330000Y-129495999D01*
X140328000Y-129496999D01*
X140325000Y-129497999D01*
X140323000Y-129497999D01*
X140320000Y-129498999D01*
X140318000Y-129498999D01*
X140315000Y-129499999D01*
X140105000Y-129499999D01*
X140102000Y-129498999D01*
X140100000Y-129498999D01*
X140097000Y-129497999D01*
X140095000Y-129497999D01*
X140092000Y-129496999D01*
X140090000Y-129495999D01*
X140087000Y-129494999D01*
X140085000Y-129492999D01*
X140083000Y-129491999D01*
X140081000Y-129489999D01*
X140079000Y-129488999D01*
X140071000Y-129480999D01*
X140070000Y-129478999D01*
X140068000Y-129476999D01*
X140067000Y-129474999D01*
X140065000Y-129472999D01*
X140064000Y-129469999D01*
X140063000Y-129467999D01*
X140062000Y-129464999D01*
X140062000Y-129462999D01*
X140061000Y-129459999D01*
X140061000Y-129457999D01*
X140060000Y-129454999D01*
X140060000Y-128344999D01*
X140061000Y-128341999D01*
X140061000Y-128339999D01*
X140062000Y-128336999D01*
X140062000Y-128334999D01*
X140063000Y-128331999D01*
X140064000Y-128329999D01*
X140065000Y-128326999D01*
X140067000Y-128324999D01*
X140068000Y-128322999D01*
X140070000Y-128320999D01*
X140071000Y-128318999D01*
X140079000Y-128310999D01*
X140081000Y-128309999D01*
X140083000Y-128307999D01*
X140085000Y-128306999D01*
X140087000Y-128304999D01*
X140090000Y-128303999D01*
X140092000Y-128302999D01*
X140095000Y-128301999D01*
X140097000Y-128301999D01*
X140100000Y-128300999D01*
X140102000Y-128300999D01*
X140105000Y-128299999D01*
X140315000Y-128299999D01*
X140318000Y-128300999D01*
G37*
X140318000Y-128300999D02*
X140320000Y-128300999D01*
X140323000Y-128301999D01*
X140325000Y-128301999D01*
X140328000Y-128302999D01*
X140330000Y-128303999D01*
X140333000Y-128304999D01*
X140335000Y-128306999D01*
X140337000Y-128307999D01*
X140339000Y-128309999D01*
X140341000Y-128310999D01*
X140349000Y-128318999D01*
X140350000Y-128320999D01*
X140352000Y-128322999D01*
X140353000Y-128324999D01*
X140355000Y-128326999D01*
X140356000Y-128329999D01*
X140357000Y-128331999D01*
X140358000Y-128334999D01*
X140358000Y-128336999D01*
X140359000Y-128339999D01*
X140359000Y-128341999D01*
X140360000Y-128344999D01*
X140360000Y-129454999D01*
X140359000Y-129457999D01*
X140359000Y-129459999D01*
X140358000Y-129462999D01*
X140358000Y-129464999D01*
X140357000Y-129467999D01*
X140356000Y-129469999D01*
X140355000Y-129472999D01*
X140353000Y-129474999D01*
X140352000Y-129476999D01*
X140350000Y-129478999D01*
X140349000Y-129480999D01*
X140341000Y-129488999D01*
X140339000Y-129489999D01*
X140337000Y-129491999D01*
X140335000Y-129492999D01*
X140333000Y-129494999D01*
X140330000Y-129495999D01*
X140328000Y-129496999D01*
X140325000Y-129497999D01*
X140323000Y-129497999D01*
X140320000Y-129498999D01*
X140318000Y-129498999D01*
X140315000Y-129499999D01*
X140105000Y-129499999D01*
X140102000Y-129498999D01*
X140100000Y-129498999D01*
X140097000Y-129497999D01*
X140095000Y-129497999D01*
X140092000Y-129496999D01*
X140090000Y-129495999D01*
X140087000Y-129494999D01*
X140085000Y-129492999D01*
X140083000Y-129491999D01*
X140081000Y-129489999D01*
X140079000Y-129488999D01*
X140071000Y-129480999D01*
X140070000Y-129478999D01*
X140068000Y-129476999D01*
X140067000Y-129474999D01*
X140065000Y-129472999D01*
X140064000Y-129469999D01*
X140063000Y-129467999D01*
X140062000Y-129464999D01*
X140062000Y-129462999D01*
X140061000Y-129459999D01*
X140061000Y-129457999D01*
X140060000Y-129454999D01*
X140060000Y-128344999D01*
X140061000Y-128341999D01*
X140061000Y-128339999D01*
X140062000Y-128336999D01*
X140062000Y-128334999D01*
X140063000Y-128331999D01*
X140064000Y-128329999D01*
X140065000Y-128326999D01*
X140067000Y-128324999D01*
X140068000Y-128322999D01*
X140070000Y-128320999D01*
X140071000Y-128318999D01*
X140079000Y-128310999D01*
X140081000Y-128309999D01*
X140083000Y-128307999D01*
X140085000Y-128306999D01*
X140087000Y-128304999D01*
X140090000Y-128303999D01*
X140092000Y-128302999D01*
X140095000Y-128301999D01*
X140097000Y-128301999D01*
X140100000Y-128300999D01*
X140102000Y-128300999D01*
X140105000Y-128299999D01*
X140315000Y-128299999D01*
X140318000Y-128300999D01*
G36*
X141910000Y-128575999D02*
G01*
X141916000Y-128575999D01*
X141926000Y-128577999D01*
X141941000Y-128583999D01*
X141945000Y-128585999D01*
X141950000Y-128587999D01*
X141954000Y-128590999D01*
X141959000Y-128593999D01*
X141963000Y-128596999D01*
X141967000Y-128600999D01*
X141971000Y-128603999D01*
X141974000Y-128607999D01*
X141978000Y-128611999D01*
X141981000Y-128615999D01*
X141984000Y-128620999D01*
X141987000Y-128624999D01*
X141989000Y-128629999D01*
X141991000Y-128633999D01*
X141997000Y-128648999D01*
X141999000Y-128658999D01*
X141999000Y-128664999D01*
X142000000Y-128669999D01*
X142000000Y-128829999D01*
X141999000Y-128834999D01*
X141999000Y-128840999D01*
X141997000Y-128850999D01*
X141991000Y-128865999D01*
X141989000Y-128869999D01*
X141987000Y-128874999D01*
X141984000Y-128878999D01*
X141981000Y-128883999D01*
X141978000Y-128887999D01*
X141974000Y-128891999D01*
X141971000Y-128895999D01*
X141967000Y-128898999D01*
X141963000Y-128902999D01*
X141959000Y-128905999D01*
X141954000Y-128908999D01*
X141950000Y-128911999D01*
X141945000Y-128913999D01*
X141941000Y-128915999D01*
X141926000Y-128921999D01*
X141916000Y-128923999D01*
X141910000Y-128923999D01*
X141905000Y-128924999D01*
X141395000Y-128924999D01*
X141390000Y-128923999D01*
X141384000Y-128923999D01*
X141374000Y-128921999D01*
X141359000Y-128915999D01*
X141355000Y-128913999D01*
X141350000Y-128911999D01*
X141346000Y-128908999D01*
X141341000Y-128905999D01*
X141337000Y-128902999D01*
X141333000Y-128898999D01*
X141329000Y-128895999D01*
X141326000Y-128891999D01*
X141322000Y-128887999D01*
X141319000Y-128883999D01*
X141316000Y-128878999D01*
X141313000Y-128874999D01*
X141311000Y-128869999D01*
X141309000Y-128865999D01*
X141303000Y-128850999D01*
X141301000Y-128840999D01*
X141301000Y-128834999D01*
X141300000Y-128829999D01*
X141300000Y-128669999D01*
X141301000Y-128664999D01*
X141301000Y-128658999D01*
X141303000Y-128648999D01*
X141309000Y-128633999D01*
X141311000Y-128629999D01*
X141313000Y-128624999D01*
X141316000Y-128620999D01*
X141319000Y-128615999D01*
X141322000Y-128611999D01*
X141326000Y-128607999D01*
X141329000Y-128603999D01*
X141333000Y-128600999D01*
X141337000Y-128596999D01*
X141341000Y-128593999D01*
X141346000Y-128590999D01*
X141350000Y-128587999D01*
X141355000Y-128585999D01*
X141359000Y-128583999D01*
X141374000Y-128577999D01*
X141384000Y-128575999D01*
X141390000Y-128575999D01*
X141395000Y-128574999D01*
X141905000Y-128574999D01*
X141910000Y-128575999D01*
G37*
X141910000Y-128575999D02*
X141916000Y-128575999D01*
X141926000Y-128577999D01*
X141941000Y-128583999D01*
X141945000Y-128585999D01*
X141950000Y-128587999D01*
X141954000Y-128590999D01*
X141959000Y-128593999D01*
X141963000Y-128596999D01*
X141967000Y-128600999D01*
X141971000Y-128603999D01*
X141974000Y-128607999D01*
X141978000Y-128611999D01*
X141981000Y-128615999D01*
X141984000Y-128620999D01*
X141987000Y-128624999D01*
X141989000Y-128629999D01*
X141991000Y-128633999D01*
X141997000Y-128648999D01*
X141999000Y-128658999D01*
X141999000Y-128664999D01*
X142000000Y-128669999D01*
X142000000Y-128829999D01*
X141999000Y-128834999D01*
X141999000Y-128840999D01*
X141997000Y-128850999D01*
X141991000Y-128865999D01*
X141989000Y-128869999D01*
X141987000Y-128874999D01*
X141984000Y-128878999D01*
X141981000Y-128883999D01*
X141978000Y-128887999D01*
X141974000Y-128891999D01*
X141971000Y-128895999D01*
X141967000Y-128898999D01*
X141963000Y-128902999D01*
X141959000Y-128905999D01*
X141954000Y-128908999D01*
X141950000Y-128911999D01*
X141945000Y-128913999D01*
X141941000Y-128915999D01*
X141926000Y-128921999D01*
X141916000Y-128923999D01*
X141910000Y-128923999D01*
X141905000Y-128924999D01*
X141395000Y-128924999D01*
X141390000Y-128923999D01*
X141384000Y-128923999D01*
X141374000Y-128921999D01*
X141359000Y-128915999D01*
X141355000Y-128913999D01*
X141350000Y-128911999D01*
X141346000Y-128908999D01*
X141341000Y-128905999D01*
X141337000Y-128902999D01*
X141333000Y-128898999D01*
X141329000Y-128895999D01*
X141326000Y-128891999D01*
X141322000Y-128887999D01*
X141319000Y-128883999D01*
X141316000Y-128878999D01*
X141313000Y-128874999D01*
X141311000Y-128869999D01*
X141309000Y-128865999D01*
X141303000Y-128850999D01*
X141301000Y-128840999D01*
X141301000Y-128834999D01*
X141300000Y-128829999D01*
X141300000Y-128669999D01*
X141301000Y-128664999D01*
X141301000Y-128658999D01*
X141303000Y-128648999D01*
X141309000Y-128633999D01*
X141311000Y-128629999D01*
X141313000Y-128624999D01*
X141316000Y-128620999D01*
X141319000Y-128615999D01*
X141322000Y-128611999D01*
X141326000Y-128607999D01*
X141329000Y-128603999D01*
X141333000Y-128600999D01*
X141337000Y-128596999D01*
X141341000Y-128593999D01*
X141346000Y-128590999D01*
X141350000Y-128587999D01*
X141355000Y-128585999D01*
X141359000Y-128583999D01*
X141374000Y-128577999D01*
X141384000Y-128575999D01*
X141390000Y-128575999D01*
X141395000Y-128574999D01*
X141905000Y-128574999D01*
X141910000Y-128575999D01*
G36*
X140818000Y-128300999D02*
G01*
X140820000Y-128300999D01*
X140823000Y-128301999D01*
X140825000Y-128301999D01*
X140828000Y-128302999D01*
X140830000Y-128303999D01*
X140833000Y-128304999D01*
X140835000Y-128306999D01*
X140837000Y-128307999D01*
X140839000Y-128309999D01*
X140841000Y-128310999D01*
X140849000Y-128318999D01*
X140850000Y-128320999D01*
X140852000Y-128322999D01*
X140853000Y-128324999D01*
X140855000Y-128326999D01*
X140856000Y-128329999D01*
X140857000Y-128331999D01*
X140858000Y-128334999D01*
X140858000Y-128336999D01*
X140859000Y-128339999D01*
X140859000Y-128341999D01*
X140860000Y-128344999D01*
X140860000Y-130654999D01*
X140859000Y-130657999D01*
X140859000Y-130659999D01*
X140858000Y-130662999D01*
X140858000Y-130664999D01*
X140857000Y-130667999D01*
X140856000Y-130669999D01*
X140855000Y-130672999D01*
X140853000Y-130674999D01*
X140852000Y-130676999D01*
X140850000Y-130678999D01*
X140849000Y-130680999D01*
X140841000Y-130688999D01*
X140839000Y-130689999D01*
X140837000Y-130691999D01*
X140835000Y-130692999D01*
X140833000Y-130694999D01*
X140830000Y-130695999D01*
X140828000Y-130696999D01*
X140825000Y-130697999D01*
X140823000Y-130697999D01*
X140820000Y-130698999D01*
X140818000Y-130698999D01*
X140815000Y-130699999D01*
X140655000Y-130699999D01*
X140652000Y-130698999D01*
X140650000Y-130698999D01*
X140647000Y-130697999D01*
X140645000Y-130697999D01*
X140642000Y-130696999D01*
X140640000Y-130695999D01*
X140637000Y-130694999D01*
X140635000Y-130692999D01*
X140633000Y-130691999D01*
X140631000Y-130689999D01*
X140629000Y-130688999D01*
X140621000Y-130680999D01*
X140620000Y-130678999D01*
X140618000Y-130676999D01*
X140617000Y-130674999D01*
X140615000Y-130672999D01*
X140614000Y-130669999D01*
X140613000Y-130667999D01*
X140612000Y-130664999D01*
X140612000Y-130662999D01*
X140611000Y-130659999D01*
X140611000Y-130657999D01*
X140610000Y-130654999D01*
X140610000Y-128344999D01*
X140611000Y-128341999D01*
X140611000Y-128339999D01*
X140612000Y-128336999D01*
X140612000Y-128334999D01*
X140613000Y-128331999D01*
X140614000Y-128329999D01*
X140615000Y-128326999D01*
X140617000Y-128324999D01*
X140618000Y-128322999D01*
X140620000Y-128320999D01*
X140621000Y-128318999D01*
X140629000Y-128310999D01*
X140631000Y-128309999D01*
X140633000Y-128307999D01*
X140635000Y-128306999D01*
X140637000Y-128304999D01*
X140640000Y-128303999D01*
X140642000Y-128302999D01*
X140645000Y-128301999D01*
X140647000Y-128301999D01*
X140650000Y-128300999D01*
X140652000Y-128300999D01*
X140655000Y-128299999D01*
X140815000Y-128299999D01*
X140818000Y-128300999D01*
G37*
X140818000Y-128300999D02*
X140820000Y-128300999D01*
X140823000Y-128301999D01*
X140825000Y-128301999D01*
X140828000Y-128302999D01*
X140830000Y-128303999D01*
X140833000Y-128304999D01*
X140835000Y-128306999D01*
X140837000Y-128307999D01*
X140839000Y-128309999D01*
X140841000Y-128310999D01*
X140849000Y-128318999D01*
X140850000Y-128320999D01*
X140852000Y-128322999D01*
X140853000Y-128324999D01*
X140855000Y-128326999D01*
X140856000Y-128329999D01*
X140857000Y-128331999D01*
X140858000Y-128334999D01*
X140858000Y-128336999D01*
X140859000Y-128339999D01*
X140859000Y-128341999D01*
X140860000Y-128344999D01*
X140860000Y-130654999D01*
X140859000Y-130657999D01*
X140859000Y-130659999D01*
X140858000Y-130662999D01*
X140858000Y-130664999D01*
X140857000Y-130667999D01*
X140856000Y-130669999D01*
X140855000Y-130672999D01*
X140853000Y-130674999D01*
X140852000Y-130676999D01*
X140850000Y-130678999D01*
X140849000Y-130680999D01*
X140841000Y-130688999D01*
X140839000Y-130689999D01*
X140837000Y-130691999D01*
X140835000Y-130692999D01*
X140833000Y-130694999D01*
X140830000Y-130695999D01*
X140828000Y-130696999D01*
X140825000Y-130697999D01*
X140823000Y-130697999D01*
X140820000Y-130698999D01*
X140818000Y-130698999D01*
X140815000Y-130699999D01*
X140655000Y-130699999D01*
X140652000Y-130698999D01*
X140650000Y-130698999D01*
X140647000Y-130697999D01*
X140645000Y-130697999D01*
X140642000Y-130696999D01*
X140640000Y-130695999D01*
X140637000Y-130694999D01*
X140635000Y-130692999D01*
X140633000Y-130691999D01*
X140631000Y-130689999D01*
X140629000Y-130688999D01*
X140621000Y-130680999D01*
X140620000Y-130678999D01*
X140618000Y-130676999D01*
X140617000Y-130674999D01*
X140615000Y-130672999D01*
X140614000Y-130669999D01*
X140613000Y-130667999D01*
X140612000Y-130664999D01*
X140612000Y-130662999D01*
X140611000Y-130659999D01*
X140611000Y-130657999D01*
X140610000Y-130654999D01*
X140610000Y-128344999D01*
X140611000Y-128341999D01*
X140611000Y-128339999D01*
X140612000Y-128336999D01*
X140612000Y-128334999D01*
X140613000Y-128331999D01*
X140614000Y-128329999D01*
X140615000Y-128326999D01*
X140617000Y-128324999D01*
X140618000Y-128322999D01*
X140620000Y-128320999D01*
X140621000Y-128318999D01*
X140629000Y-128310999D01*
X140631000Y-128309999D01*
X140633000Y-128307999D01*
X140635000Y-128306999D01*
X140637000Y-128304999D01*
X140640000Y-128303999D01*
X140642000Y-128302999D01*
X140645000Y-128301999D01*
X140647000Y-128301999D01*
X140650000Y-128300999D01*
X140652000Y-128300999D01*
X140655000Y-128299999D01*
X140815000Y-128299999D01*
X140818000Y-128300999D01*
G36*
X141910000Y-129075999D02*
G01*
X141916000Y-129075999D01*
X141926000Y-129077999D01*
X141941000Y-129083999D01*
X141945000Y-129085999D01*
X141950000Y-129087999D01*
X141954000Y-129090999D01*
X141959000Y-129093999D01*
X141963000Y-129096999D01*
X141967000Y-129100999D01*
X141971000Y-129103999D01*
X141974000Y-129107999D01*
X141978000Y-129111999D01*
X141981000Y-129115999D01*
X141984000Y-129120999D01*
X141987000Y-129124999D01*
X141989000Y-129129999D01*
X141991000Y-129133999D01*
X141997000Y-129148999D01*
X141999000Y-129158999D01*
X141999000Y-129164999D01*
X142000000Y-129169999D01*
X142000000Y-129329999D01*
X141999000Y-129334999D01*
X141999000Y-129340999D01*
X141997000Y-129350999D01*
X141991000Y-129365999D01*
X141989000Y-129369999D01*
X141987000Y-129374999D01*
X141984000Y-129378999D01*
X141981000Y-129383999D01*
X141978000Y-129387999D01*
X141974000Y-129391999D01*
X141971000Y-129395999D01*
X141967000Y-129398999D01*
X141963000Y-129402999D01*
X141959000Y-129405999D01*
X141954000Y-129408999D01*
X141950000Y-129411999D01*
X141945000Y-129413999D01*
X141941000Y-129415999D01*
X141926000Y-129421999D01*
X141916000Y-129423999D01*
X141910000Y-129423999D01*
X141905000Y-129424999D01*
X141395000Y-129424999D01*
X141390000Y-129423999D01*
X141384000Y-129423999D01*
X141374000Y-129421999D01*
X141359000Y-129415999D01*
X141355000Y-129413999D01*
X141350000Y-129411999D01*
X141346000Y-129408999D01*
X141341000Y-129405999D01*
X141337000Y-129402999D01*
X141333000Y-129398999D01*
X141329000Y-129395999D01*
X141326000Y-129391999D01*
X141322000Y-129387999D01*
X141319000Y-129383999D01*
X141316000Y-129378999D01*
X141313000Y-129374999D01*
X141311000Y-129369999D01*
X141309000Y-129365999D01*
X141303000Y-129350999D01*
X141301000Y-129340999D01*
X141301000Y-129334999D01*
X141300000Y-129329999D01*
X141300000Y-129169999D01*
X141301000Y-129164999D01*
X141301000Y-129158999D01*
X141303000Y-129148999D01*
X141309000Y-129133999D01*
X141311000Y-129129999D01*
X141313000Y-129124999D01*
X141316000Y-129120999D01*
X141319000Y-129115999D01*
X141322000Y-129111999D01*
X141326000Y-129107999D01*
X141329000Y-129103999D01*
X141333000Y-129100999D01*
X141337000Y-129096999D01*
X141341000Y-129093999D01*
X141346000Y-129090999D01*
X141350000Y-129087999D01*
X141355000Y-129085999D01*
X141359000Y-129083999D01*
X141374000Y-129077999D01*
X141384000Y-129075999D01*
X141390000Y-129075999D01*
X141395000Y-129074999D01*
X141905000Y-129074999D01*
X141910000Y-129075999D01*
G37*
X141910000Y-129075999D02*
X141916000Y-129075999D01*
X141926000Y-129077999D01*
X141941000Y-129083999D01*
X141945000Y-129085999D01*
X141950000Y-129087999D01*
X141954000Y-129090999D01*
X141959000Y-129093999D01*
X141963000Y-129096999D01*
X141967000Y-129100999D01*
X141971000Y-129103999D01*
X141974000Y-129107999D01*
X141978000Y-129111999D01*
X141981000Y-129115999D01*
X141984000Y-129120999D01*
X141987000Y-129124999D01*
X141989000Y-129129999D01*
X141991000Y-129133999D01*
X141997000Y-129148999D01*
X141999000Y-129158999D01*
X141999000Y-129164999D01*
X142000000Y-129169999D01*
X142000000Y-129329999D01*
X141999000Y-129334999D01*
X141999000Y-129340999D01*
X141997000Y-129350999D01*
X141991000Y-129365999D01*
X141989000Y-129369999D01*
X141987000Y-129374999D01*
X141984000Y-129378999D01*
X141981000Y-129383999D01*
X141978000Y-129387999D01*
X141974000Y-129391999D01*
X141971000Y-129395999D01*
X141967000Y-129398999D01*
X141963000Y-129402999D01*
X141959000Y-129405999D01*
X141954000Y-129408999D01*
X141950000Y-129411999D01*
X141945000Y-129413999D01*
X141941000Y-129415999D01*
X141926000Y-129421999D01*
X141916000Y-129423999D01*
X141910000Y-129423999D01*
X141905000Y-129424999D01*
X141395000Y-129424999D01*
X141390000Y-129423999D01*
X141384000Y-129423999D01*
X141374000Y-129421999D01*
X141359000Y-129415999D01*
X141355000Y-129413999D01*
X141350000Y-129411999D01*
X141346000Y-129408999D01*
X141341000Y-129405999D01*
X141337000Y-129402999D01*
X141333000Y-129398999D01*
X141329000Y-129395999D01*
X141326000Y-129391999D01*
X141322000Y-129387999D01*
X141319000Y-129383999D01*
X141316000Y-129378999D01*
X141313000Y-129374999D01*
X141311000Y-129369999D01*
X141309000Y-129365999D01*
X141303000Y-129350999D01*
X141301000Y-129340999D01*
X141301000Y-129334999D01*
X141300000Y-129329999D01*
X141300000Y-129169999D01*
X141301000Y-129164999D01*
X141301000Y-129158999D01*
X141303000Y-129148999D01*
X141309000Y-129133999D01*
X141311000Y-129129999D01*
X141313000Y-129124999D01*
X141316000Y-129120999D01*
X141319000Y-129115999D01*
X141322000Y-129111999D01*
X141326000Y-129107999D01*
X141329000Y-129103999D01*
X141333000Y-129100999D01*
X141337000Y-129096999D01*
X141341000Y-129093999D01*
X141346000Y-129090999D01*
X141350000Y-129087999D01*
X141355000Y-129085999D01*
X141359000Y-129083999D01*
X141374000Y-129077999D01*
X141384000Y-129075999D01*
X141390000Y-129075999D01*
X141395000Y-129074999D01*
X141905000Y-129074999D01*
X141910000Y-129075999D01*
D17*
X130500000Y-119775000D03*
X130500000Y-118225000D03*
D18*
X160500000Y-73225000D03*
X160500000Y-74775000D03*
D19*
X149337500Y-93275000D03*
X149337500Y-93925000D03*
X149337500Y-94575000D03*
X149337500Y-95225000D03*
X149337500Y-95875000D03*
X149337500Y-96525000D03*
X149337500Y-97175000D03*
X149337500Y-97825000D03*
X149337500Y-98475000D03*
X149337500Y-99125000D03*
X155062500Y-99125000D03*
X155062500Y-98475000D03*
X155062500Y-97825000D03*
X155062500Y-97175000D03*
X155062500Y-96525000D03*
X155062500Y-95875000D03*
X155062500Y-95225000D03*
X155062500Y-94575000D03*
X155062500Y-93925000D03*
X155062500Y-93275000D03*
D20*
X155000000Y-101800000D03*
D21*
X155000000Y-103250000D03*
D22*
X113200000Y-54000000D03*
D23*
X110660000Y-54000000D03*
X108120000Y-54000000D03*
X105580000Y-54000000D03*
X103040000Y-54000000D03*
X100500000Y-54000000D03*
D24*
X158000000Y-127287499D03*
X158000000Y-125712499D03*
D25*
X103900000Y-107500000D03*
X102000000Y-107500000D03*
D22*
X190500000Y-54000000D03*
D23*
X187960000Y-54000000D03*
X185420000Y-54000000D03*
X182880000Y-54000000D03*
X180340000Y-54000000D03*
X177800000Y-54000000D03*
D26*
X133050000Y-119850000D03*
X133050000Y-123150000D03*
X137950000Y-123150000D03*
X137950000Y-119850000D03*
D18*
X185600000Y-92000000D03*
X185600000Y-93550000D03*
D27*
X181925000Y-111790000D03*
X181925000Y-113060000D03*
X181925000Y-114330000D03*
X181925000Y-115600000D03*
X181925000Y-116870000D03*
X181925000Y-118140000D03*
X181925000Y-119410000D03*
X186875000Y-119410000D03*
X186875000Y-118140000D03*
X186875000Y-116870000D03*
X186875000Y-115600000D03*
X186875000Y-114330000D03*
X186875000Y-113060000D03*
X186875000Y-111790000D03*
D26*
X173050000Y-119850000D03*
X173050000Y-123150000D03*
X177950000Y-123150000D03*
X177950000Y-119850000D03*
D28*
X164750000Y-135300000D03*
X164750000Y-137200000D03*
D29*
X191425000Y-117750000D03*
X199375000Y-117750000D03*
X191425000Y-122250000D03*
X199375000Y-122250000D03*
D30*
X104500000Y-83175000D03*
X104500000Y-84825000D03*
D31*
X121600000Y-135275000D03*
X121600000Y-132975000D03*
D32*
X115300000Y-132975000D03*
D31*
X121600000Y-130675000D03*
D18*
X173500000Y-128999999D03*
X173500000Y-130549999D03*
D30*
X100500000Y-83175000D03*
X100500000Y-84825000D03*
D28*
X128500000Y-97499999D03*
X128500000Y-99399999D03*
D33*
X98250000Y-105250000D03*
X99520000Y-105250000D03*
X100790000Y-105250000D03*
X102060000Y-105250000D03*
X103330000Y-105250000D03*
X104600000Y-105250000D03*
X105870000Y-105250000D03*
X107140000Y-105250000D03*
X108410000Y-105250000D03*
X109680000Y-105250000D03*
X110950000Y-105250000D03*
X112220000Y-105250000D03*
X113490000Y-105250000D03*
X114760000Y-105250000D03*
D26*
X116010000Y-102210000D03*
X116010000Y-100940000D03*
X116010000Y-99670000D03*
X116010000Y-98400000D03*
X116010000Y-97130000D03*
X116010000Y-95860000D03*
X116010000Y-94590000D03*
X116010000Y-93320000D03*
X116010000Y-92050000D03*
X116010000Y-90780000D03*
D33*
X114760000Y-87750000D03*
X113490000Y-87750000D03*
X112220000Y-87750000D03*
X110950000Y-87750000D03*
X109680000Y-87750000D03*
X108410000Y-87750000D03*
X107140000Y-87750000D03*
X105870000Y-87750000D03*
X104600000Y-87750000D03*
X103330000Y-87750000D03*
X102060000Y-87750000D03*
X100790000Y-87750000D03*
X99520000Y-87750000D03*
X98250000Y-87750000D03*
D34*
X107115000Y-97942500D03*
X105590000Y-97942500D03*
X104827500Y-95655000D03*
D35*
X105590000Y-97180000D03*
D34*
X106352500Y-95655000D03*
X104065000Y-97942500D03*
X104827500Y-98705000D03*
X106352500Y-98705000D03*
X104065000Y-96417500D03*
X105590000Y-96417500D03*
X104827500Y-97180000D03*
X106352500Y-97180000D03*
X107115000Y-96417500D03*
D36*
X133825000Y-102400000D03*
X135375000Y-102400000D03*
D30*
X128500000Y-101175000D03*
X128500000Y-102825000D03*
D20*
X152250000Y-101800000D03*
D21*
X152250000Y-103250000D03*
D20*
X149500000Y-101800000D03*
D21*
X149500000Y-103250000D03*
D37*
X194400000Y-126225000D03*
X194400000Y-124575000D03*
X178500000Y-103325000D03*
X178500000Y-101675000D03*
D26*
X153050000Y-119850000D03*
X153050000Y-123150000D03*
X157950000Y-123150000D03*
X157950000Y-119850000D03*
D27*
X157025000Y-131595000D03*
X157025000Y-132865000D03*
X157025000Y-134135000D03*
X157025000Y-135405000D03*
X161975000Y-135405000D03*
X161975000Y-134135000D03*
X161975000Y-132865000D03*
X161975000Y-131595000D03*
D38*
X159500000Y-133500000D03*
D39*
X125770000Y-93500000D03*
X123230000Y-93500000D03*
X123230000Y-99500000D03*
X125770000Y-99500000D03*
D36*
X107450000Y-107500000D03*
X109000000Y-107500000D03*
D30*
X192600000Y-124575000D03*
X192600000Y-126225000D03*
D40*
X146775000Y-95200000D03*
X145225000Y-95200000D03*
D41*
X180562500Y-101550000D03*
X180562500Y-103450000D03*
X182437500Y-102500000D03*
D42*
X142250000Y-136599999D03*
X142250000Y-132499999D03*
D43*
X193900000Y-93610000D03*
X193900000Y-99390000D03*
D44*
X192455000Y-99750000D03*
X192455000Y-98950000D03*
D45*
X192455000Y-97750000D03*
X192455000Y-96750000D03*
X192455000Y-96250000D03*
X192455000Y-95250000D03*
D44*
X192455000Y-94050000D03*
X192455000Y-93250000D03*
X192455000Y-93250000D03*
X192455000Y-94050000D03*
D45*
X192455000Y-94750000D03*
X192455000Y-95750000D03*
X192455000Y-97250000D03*
X192455000Y-98250000D03*
D44*
X192455000Y-98950000D03*
X192455000Y-99750000D03*
D46*
X193370000Y-100820000D03*
X193370000Y-92180000D03*
D47*
X197550000Y-100820000D03*
X197550000Y-92180000D03*
D37*
X160000000Y-127324999D03*
X160000000Y-125674999D03*
D18*
X124200000Y-130600000D03*
X124200000Y-132150000D03*
D48*
X135499999Y-128024999D03*
X135499999Y-130974999D03*
D40*
X187375000Y-110000000D03*
X185825000Y-110000000D03*
X145524999Y-130249999D03*
X143974999Y-130249999D03*
D18*
X138250000Y-128724999D03*
X138250000Y-130274999D03*
D30*
X184500000Y-101675000D03*
X184500000Y-103325000D03*
D37*
X156000000Y-127324999D03*
X156000000Y-125674999D03*
D40*
X142025000Y-126499999D03*
X140475000Y-126499999D03*
D49*
X186250000Y-125500000D03*
X187900000Y-125500000D03*
D30*
X182000000Y-89500000D03*
X182000000Y-91150000D03*
D50*
X193325000Y-103000000D03*
X191675000Y-103000000D03*
D22*
X156000000Y-87825000D03*
D23*
X153460000Y-87825000D03*
X150920000Y-87825000D03*
X148380000Y-87825000D03*
D37*
X102000000Y-111325000D03*
X102000000Y-109675000D03*
D26*
X113050000Y-119850000D03*
X113050000Y-123150000D03*
X117950000Y-123150000D03*
X117950000Y-119850000D03*
D49*
X143925000Y-126749999D03*
X145575000Y-126749999D03*
D30*
X196200000Y-124575000D03*
X196200000Y-126225000D03*
D51*
X146500000Y-136474999D03*
X146500000Y-133524999D03*
D48*
X126500000Y-130600000D03*
X126500000Y-133550000D03*
D52*
X183950000Y-96775000D03*
X183950000Y-96275000D03*
X183950000Y-95775000D03*
X183950000Y-95275000D03*
X183950000Y-94775000D03*
X183950000Y-94275000D03*
X183950000Y-93775000D03*
D53*
X183000000Y-92825000D03*
X182500000Y-92825000D03*
X182000000Y-92825000D03*
X181500000Y-92825000D03*
X181000000Y-92825000D03*
X180500000Y-92825000D03*
X180000000Y-92825000D03*
D52*
X179050000Y-93775000D03*
X179050000Y-94275000D03*
X179050000Y-94775000D03*
X179050000Y-95275000D03*
X179050000Y-95775000D03*
X179050000Y-96275000D03*
X179050000Y-96775000D03*
D53*
X180000000Y-97725000D03*
X180500000Y-97725000D03*
X181000000Y-97725000D03*
X181500000Y-97725000D03*
X182000000Y-97725000D03*
X182500000Y-97725000D03*
X183000000Y-97725000D03*
D54*
X181500000Y-95275000D03*
D18*
X140500000Y-73225000D03*
X140500000Y-74775000D03*
D17*
X154500000Y-135675000D03*
X154500000Y-134125000D03*
D18*
X187500000Y-92000000D03*
X187500000Y-93550000D03*
X120500000Y-73225000D03*
X120500000Y-74775000D03*
D37*
X173500000Y-133824999D03*
X173500000Y-132174999D03*
X166750000Y-130750000D03*
X166750000Y-129100000D03*
D41*
X186624999Y-101550000D03*
X186624999Y-103450000D03*
X188499999Y-102500000D03*
D55*
X188637500Y-97450000D03*
X188637500Y-96500000D03*
X188637500Y-95550000D03*
X186362500Y-95550000D03*
X186362500Y-96500000D03*
X186362500Y-97450000D03*
D50*
X193325000Y-90000000D03*
X191675000Y-90000000D03*
D18*
X112800000Y-133000000D03*
X112800000Y-134550000D03*
D29*
X191425000Y-109550000D03*
X199375000Y-109550000D03*
X191425000Y-114050000D03*
X199375000Y-114050000D03*
D25*
X146750000Y-93200000D03*
X144850000Y-93200000D03*
D26*
X137950000Y-73150000D03*
X137950000Y-69850000D03*
X133050000Y-69850000D03*
X133050000Y-73150000D03*
D56*
X138875000Y-100410000D03*
X138875000Y-99140000D03*
X138875000Y-97870000D03*
X138875000Y-96600000D03*
X138875000Y-95330000D03*
X138875000Y-94060000D03*
X138875000Y-92790000D03*
X133925000Y-92790000D03*
X133925000Y-94060000D03*
X133925000Y-95330000D03*
X133925000Y-96600000D03*
X133925000Y-97870000D03*
X133925000Y-99140000D03*
X133925000Y-100410000D03*
D30*
X168500000Y-101175000D03*
X168500000Y-102825000D03*
D49*
X182850000Y-125500000D03*
X184500000Y-125500000D03*
D37*
X184000000Y-91150000D03*
X184000000Y-89500000D03*
X154500000Y-132324999D03*
X154500000Y-130674999D03*
D17*
X150500000Y-119775000D03*
X150500000Y-118225000D03*
X110500000Y-119775000D03*
X110500000Y-118225000D03*
D25*
X99950000Y-110000000D03*
X98050000Y-110000000D03*
D26*
X157950000Y-73150000D03*
X157950000Y-69850000D03*
X153050000Y-69850000D03*
X153050000Y-73150000D03*
X177950000Y-73150000D03*
X177950000Y-69850000D03*
X173050000Y-69850000D03*
X173050000Y-73150000D03*
D30*
X180000000Y-89500000D03*
X180000000Y-91150000D03*
D48*
X132750000Y-128024999D03*
X132750000Y-130974999D03*
D24*
X162000000Y-127287499D03*
X162000000Y-125712499D03*
D49*
X145175000Y-97000000D03*
X146825000Y-97000000D03*
D57*
X175112500Y-137475000D03*
X175112500Y-136825000D03*
X175112500Y-136175000D03*
X175112500Y-135525000D03*
X169387500Y-135525000D03*
X169387500Y-136175000D03*
X169387500Y-136825000D03*
X169387500Y-137475000D03*
D37*
X198000000Y-126225000D03*
X198000000Y-124575000D03*
D48*
X107600000Y-133125000D03*
X107600000Y-136075000D03*
D39*
X165770000Y-93500000D03*
X163230000Y-93500000D03*
X163230000Y-99500000D03*
X165770000Y-99500000D03*
D17*
X170600000Y-119775000D03*
X170600000Y-118225000D03*
D50*
X145575000Y-128499999D03*
X143925000Y-128499999D03*
D18*
X180500000Y-73225000D03*
X180500000Y-74775000D03*
D48*
X110400000Y-133125000D03*
X110400000Y-136075000D03*
D26*
X117950000Y-73150000D03*
X117950000Y-69850000D03*
X113050000Y-69850000D03*
X113050000Y-73150000D03*
D28*
X168500000Y-97550000D03*
X168500000Y-99450000D03*
D58*
X169162500Y-130049999D03*
X169162500Y-130999999D03*
X169162500Y-131949999D03*
X171437500Y-131949999D03*
X171437500Y-130999999D03*
X171437500Y-130049999D03*
D40*
X99775000Y-107500000D03*
X98225000Y-107500000D03*
D59*
X181000000Y-129750000D03*
D60*
X181000000Y-132250000D03*
M02*
