M48
; DRILL file {KiCad (6.0.10-0)} date 2023 January 31, Tuesday 00:07:47
; FORMAT={-:-/ absolute / metric / decimal}
; #@! TF.CreationDate,2023-01-31T00:07:47+01:00
; #@! TF.GenerationSoftware,Kicad,Pcbnew,(6.0.10-0)
; #@! TF.FileFunction,Plated,1,2,PTH
FMAT,2
METRIC
; #@! TA.AperFunction,Plated,PTH,ComponentDrill
T1C0.200
; #@! TA.AperFunction,Plated,PTH,ViaDrill
T2C0.400
; #@! TA.AperFunction,Plated,PTH,ComponentDrill
T3C0.600
; #@! TA.AperFunction,Plated,PTH,ComponentDrill
T4C1.000
%
G90
G05
T1
X104.065Y-96.417
X104.065Y-97.942
X104.828Y-95.655
X104.828Y-97.18
X104.828Y-98.705
X105.59Y-96.417
X105.59Y-97.942
X106.352Y-95.655
X106.352Y-97.18
X106.352Y-98.705
X107.115Y-96.417
X107.115Y-97.942
T2
X97.5Y-89.5
X97.5Y-112.0
X97.5Y-113.0
X98.0Y-93.0
X98.0Y-96.0
X98.0Y-99.0
X98.0Y-120.0
X98.0Y-123.0
X98.0Y-126.0
X98.25Y-103.75
X98.5Y-112.0
X98.5Y-113.0
X98.75Y-82.75
X100.0Y-90.0
X100.375Y-111.875
X100.79Y-85.96
X102.0Y-120.0
X102.0Y-123.0
X102.0Y-126.0
X103.0Y-62.0
X103.5Y-89.25
X103.5Y-91.25
X104.25Y-109.0
X104.6Y-85.9
X105.0Y-133.0
X106.0Y-62.0
X106.0Y-112.0
X106.5Y-108.25
X107.0Y-138.0
X109.0Y-62.0
X109.0Y-112.0
X109.0Y-138.0
X109.25Y-120.0
X109.5Y-91.0
X111.0Y-138.0
X111.25Y-107.25
X111.75Y-93.25
X112.0Y-112.0
X113.0Y-68.0
X113.0Y-118.0
X113.0Y-136.0
X113.5Y-107.75
X114.25Y-97.75
X115.0Y-112.0
X116.0Y-89.0
X116.0Y-109.0
X117.0Y-107.75
X117.5Y-102.25
X118.0Y-109.0
X118.0Y-124.8
X118.014Y-106.43
X119.0Y-75.0
X119.5Y-104.0
X119.5Y-106.884
X120.75Y-103.75
X120.75Y-108.5
X121.75Y-73.25
X122.0Y-104.0
X122.0Y-108.0
X122.0Y-137.0
X123.0Y-68.0
X123.25Y-91.25
X124.0Y-108.0
X124.0Y-135.0
X124.0Y-137.0
X125.0Y-104.0
X125.75Y-91.25
X127.0Y-125.0
X128.0Y-104.0
X128.0Y-108.0
X128.5Y-95.75
X129.0Y-120.0
X130.0Y-108.0
X130.4Y-129.9
X131.0Y-132.0
X131.0Y-133.0
X131.375Y-102.875
X133.0Y-68.0
X133.0Y-104.0
X133.0Y-108.0
X133.0Y-118.0
X134.0Y-132.0
X134.0Y-133.0
X136.0Y-93.0
X136.0Y-95.0
X136.0Y-104.0
X136.0Y-108.0
X137.0Y-94.0
X137.0Y-132.0
X137.0Y-133.0
X138.0Y-124.8
X138.25Y-91.25
X139.0Y-75.0
X139.0Y-104.0
X139.0Y-108.0
X139.25Y-91.25
X140.0Y-134.0
X140.0Y-135.0
X140.0Y-136.0
X140.64Y-99.14
X140.75Y-96.0
X141.75Y-73.25
X142.0Y-99.0
X142.0Y-104.0
X142.0Y-108.0
X142.7Y-127.9
X142.7Y-130.476
X143.0Y-68.0
X143.0Y-91.25
X144.0Y-91.25
X144.1Y-136.6
X145.0Y-91.25
X145.0Y-104.0
X145.0Y-108.0
X146.0Y-125.0
X146.0Y-132.0
X146.75Y-91.25
X148.0Y-104.0
X148.0Y-108.0
X148.0Y-125.0
X148.0Y-132.0
X149.0Y-120.0
X150.1Y-137.0
X150.1Y-139.6
X151.0Y-93.75
X151.0Y-95.0
X151.0Y-104.0
X151.0Y-108.0
X151.1Y-137.0
X151.1Y-139.6
X152.0Y-98.25
X152.1Y-137.0
X152.1Y-139.6
X153.0Y-68.0
X153.0Y-118.0
X153.0Y-129.2
X153.0Y-133.2
X153.1Y-137.0
X153.1Y-139.6
X153.25Y-94.75
X153.5Y-97.25
X154.0Y-104.0
X154.0Y-108.0
X154.5Y-137.0
X155.1Y-127.4
X156.0Y-130.0
X157.0Y-99.75
X157.0Y-104.0
X157.0Y-108.0
X157.0Y-130.0
X157.0Y-137.0
X158.1Y-130.1
X159.0Y-75.0
X159.0Y-132.5
X159.0Y-133.5
X159.0Y-134.5
X159.3Y-127.4
X159.8Y-123.2
X160.0Y-104.0
X160.0Y-108.0
X160.0Y-132.5
X160.0Y-133.5
X160.0Y-134.5
X161.75Y-73.25
X163.0Y-104.0
X163.0Y-108.0
X163.2Y-130.0
X163.25Y-91.25
X163.6Y-132.8
X164.0Y-68.0
X165.75Y-91.25
X166.0Y-104.0
X166.0Y-108.0
X166.0Y-128.0
X167.0Y-102.25
X167.0Y-140.0
X167.75Y-136.25
X167.75Y-137.25
X168.0Y-125.0
X168.0Y-128.0
X168.0Y-132.0
X168.0Y-134.75
X169.0Y-104.0
X169.0Y-108.0
X169.0Y-120.0
X169.0Y-140.0
X170.25Y-132.75
X170.5Y-134.75
X171.0Y-136.25
X171.0Y-137.25
X171.0Y-140.0
X172.0Y-98.5
X172.0Y-108.0
X172.25Y-100.0
X173.0Y-68.0
X173.0Y-118.0
X173.0Y-140.0
X174.75Y-100.0
X174.75Y-104.5
X175.0Y-95.75
X176.25Y-131.0
X176.25Y-132.0
X177.0Y-76.25
X177.0Y-140.0
X177.2Y-59.8
X177.2Y-61.0
X177.2Y-62.2
X177.5Y-135.25
X178.0Y-124.8
X178.25Y-118.5
X178.418Y-98.403
X178.495Y-91.578
X178.75Y-89.5
X179.0Y-75.0
X179.5Y-113.25
X180.0Y-140.0
X180.226Y-103.0
X180.25Y-64.5
X180.34Y-58.34
X180.5Y-94.5
X180.5Y-96.5
X180.5Y-99.0
X180.5Y-115.0
X180.75Y-135.25
X181.0Y-88.25
X181.612Y-95.387
X181.75Y-73.25
X182.0Y-109.0
X182.5Y-94.5
X182.5Y-96.5
X182.75Y-60.75
X182.75Y-101.5
X182.75Y-104.5
X182.88Y-57.88
X183.0Y-88.25
X183.0Y-140.0
X183.5Y-102.5
X183.5Y-114.75
X183.75Y-113.25
X183.75Y-118.0
X183.75Y-128.5
X185.0Y-62.0
X185.0Y-65.0
X185.0Y-68.0
X185.0Y-99.0
X185.0Y-112.0
X185.0Y-119.25
X185.4Y-104.2
X186.0Y-100.0
X186.0Y-136.0
X186.0Y-140.0
X186.5Y-92.75
X188.75Y-110.0
X189.0Y-100.0
X189.0Y-101.5
X189.0Y-106.0
X189.0Y-108.0
X189.0Y-136.0
X189.0Y-140.0
X189.25Y-115.5
X189.25Y-117.5
X189.5Y-92.0
X189.5Y-93.0
X189.5Y-94.0
X190.0Y-62.0
X190.0Y-65.0
X190.0Y-68.0
X190.0Y-96.5
X190.0Y-125.0
X191.0Y-94.0
X191.0Y-99.0
X191.0Y-128.0
X191.0Y-130.0
X191.75Y-88.5
X192.0Y-104.75
X193.986Y-95.477
X194.5Y-130.5
X195.25Y-96.75
X196.9Y-128.2
X198.0Y-95.0
X198.0Y-97.0
X198.0Y-99.0
X199.0Y-94.0
X199.0Y-96.0
X199.0Y-98.0
X199.0Y-100.0
X199.5Y-111.75
X199.5Y-115.75
X199.5Y-120.25
T4
X100.5Y-54.0
X103.04Y-54.0
X105.58Y-54.0
X108.12Y-54.0
X110.66Y-54.0
X113.2Y-54.0
X148.38Y-87.825
X150.92Y-87.825
X153.46Y-87.825
X156.0Y-87.825
X177.8Y-54.0
X180.34Y-54.0
X181.0Y-129.75
X181.0Y-132.25
X182.88Y-54.0
X185.42Y-54.0
X187.96Y-54.0
X190.5Y-54.0
T3
X192.82Y-92.18G85X193.92Y-92.18
G05
X192.82Y-100.82G85X193.92Y-100.82
G05
X197.25Y-92.18G85X197.85Y-92.18
G05
X197.25Y-100.82G85X197.85Y-100.82
G05
T0
M30
