G04 #@! TF.GenerationSoftware,KiCad,Pcbnew,(6.0.10-0)*
G04 #@! TF.CreationDate,2023-01-31T00:07:50+01:00*
G04 #@! TF.ProjectId,breast-module-proto-v1,62726561-7374-42d6-9d6f-64756c652d70,Proto V1*
G04 #@! TF.SameCoordinates,Original*
G04 #@! TF.FileFunction,Legend,Bot*
G04 #@! TF.FilePolarity,Positive*
%FSLAX46Y46*%
G04 Gerber Fmt 4.6, Leading zero omitted, Abs format (unit mm)*
G04 Created by KiCad (PCBNEW (6.0.10-0)) date 2023-01-31 00:07:50*
%MOMM*%
%LPD*%
G01*
G04 APERTURE LIST*
G04 Aperture macros list*
%AMRoundRect*
0 Rectangle with rounded corners*
0 $1 Rounding radius*
0 $2 $3 $4 $5 $6 $7 $8 $9 X,Y pos of 4 corners*
0 Add a 4 corners polygon primitive as box body*
4,1,4,$2,$3,$4,$5,$6,$7,$8,$9,$2,$3,0*
0 Add four circle primitives for the rounded corners*
1,1,$1+$1,$2,$3*
1,1,$1+$1,$4,$5*
1,1,$1+$1,$6,$7*
1,1,$1+$1,$8,$9*
0 Add four rect primitives between the rounded corners*
20,1,$1+$1,$2,$3,$4,$5,0*
20,1,$1+$1,$4,$5,$6,$7,0*
20,1,$1+$1,$6,$7,$8,$9,0*
20,1,$1+$1,$8,$9,$2,$3,0*%
G04 Aperture macros list end*
%ADD10C,0.150000*%
%ADD11C,0.300000*%
%ADD12C,0.120000*%
%ADD13R,1.700000X1.700000*%
%ADD14O,1.700000X1.700000*%
%ADD15C,0.650000*%
%ADD16O,2.100000X1.000000*%
%ADD17O,1.600000X1.000000*%
%ADD18RoundRect,0.250000X-0.750000X0.600000X-0.750000X-0.600000X0.750000X-0.600000X0.750000X0.600000X0*%
%ADD19O,2.000000X1.700000*%
G04 APERTURE END LIST*
D10*
X100500000Y-66500000D02*
X190500000Y-66500000D01*
X190500000Y-66500000D02*
X190500000Y-126500000D01*
X190500000Y-126500000D02*
X100500000Y-126500000D01*
X100500000Y-126500000D02*
X100500000Y-66500000D01*
D11*
X180238095Y-136357142D02*
X181761904Y-136357142D01*
X181000000Y-135595238D02*
X181000000Y-137119047D01*
D10*
X177428571Y-130214285D02*
X177476190Y-130357142D01*
X177523809Y-130404761D01*
X177619047Y-130452380D01*
X177761904Y-130452380D01*
X177857142Y-130404761D01*
X177904761Y-130357142D01*
X177952380Y-130261904D01*
X177952380Y-129880952D01*
X176952380Y-129880952D01*
X176952380Y-130214285D01*
X177000000Y-130309523D01*
X177047619Y-130357142D01*
X177142857Y-130404761D01*
X177238095Y-130404761D01*
X177333333Y-130357142D01*
X177380952Y-130309523D01*
X177428571Y-130214285D01*
X177428571Y-129880952D01*
X176952380Y-130738095D02*
X176952380Y-131309523D01*
X177952380Y-131023809D02*
X176952380Y-131023809D01*
X177952380Y-132166666D02*
X177952380Y-131595238D01*
X177952380Y-131880952D02*
X176952380Y-131880952D01*
X177095238Y-131785714D01*
X177190476Y-131690476D01*
X177238095Y-131595238D01*
D12*
X179500000Y-129750000D02*
X178900000Y-129450000D01*
X178900000Y-129450000D02*
X178900000Y-130050000D01*
X178590000Y-133390000D02*
X183090000Y-133390000D01*
X184200000Y-129500000D02*
X189700000Y-129500000D01*
X178590000Y-127190000D02*
X178590000Y-128610000D01*
X190310000Y-131000000D02*
X190310000Y-127190000D01*
X189700000Y-130000000D02*
X184200000Y-130000000D01*
X178900000Y-130050000D02*
X179500000Y-129750000D01*
X178590000Y-134810000D02*
X178590000Y-133390000D01*
X184200000Y-132000000D02*
X189700000Y-132000000D01*
X189700000Y-132500000D02*
X184200000Y-132500000D01*
X190310000Y-131000000D02*
X190310000Y-134810000D01*
X189700000Y-129500000D02*
X189700000Y-130000000D01*
X183090000Y-128610000D02*
X183090000Y-131000000D01*
X190310000Y-134810000D02*
X178590000Y-134810000D01*
X178590000Y-128610000D02*
X183090000Y-128610000D01*
X183090000Y-133390000D02*
X183090000Y-131000000D01*
X189700000Y-132000000D02*
X189700000Y-132500000D01*
X184200000Y-130000000D02*
X184200000Y-129500000D01*
X190310000Y-127190000D02*
X178590000Y-127190000D01*
X184200000Y-132500000D02*
X184200000Y-132000000D01*
%LPC*%
D13*
X113200000Y-54000000D03*
D14*
X110660000Y-54000000D03*
X108120000Y-54000000D03*
X105580000Y-54000000D03*
X103040000Y-54000000D03*
X100500000Y-54000000D03*
D13*
X190500000Y-54000000D03*
D14*
X187960000Y-54000000D03*
X185420000Y-54000000D03*
X182880000Y-54000000D03*
X180340000Y-54000000D03*
X177800000Y-54000000D03*
D15*
X193900000Y-93610000D03*
X193900000Y-99390000D03*
D16*
X193370000Y-100820000D03*
X193370000Y-92180000D03*
D17*
X197550000Y-100820000D03*
X197550000Y-92180000D03*
D13*
X156000000Y-87825000D03*
D14*
X153460000Y-87825000D03*
X150920000Y-87825000D03*
X148380000Y-87825000D03*
D18*
X181000000Y-129750000D03*
D19*
X181000000Y-132250000D03*
M02*
