%TF.GenerationSoftware,KiCad,Pcbnew,(6.0.10-0)*%
%TF.CreationDate,2023-01-31T00:07:47+01:00*%
%TF.ProjectId,breast-module-proto-v1,62726561-7374-42d6-9d6f-64756c652d70,Proto V1*%
%TF.SameCoordinates,Original*%
%TF.FileFunction,Drillmap*%
%TF.FilePolarity,Positive*%
%FSLAX45Y45*%
G04 Gerber Fmt 4.5, Leading zero omitted, Abs format (unit mm)*
G04 Created by KiCad (PCBNEW (6.0.10-0)) date 2023-01-31 00:07:47*
%MOMM*%
%LPD*%
G01*
G04 APERTURE LIST*
%ADD10C,0.100000*%
%ADD11C,0.200000*%
%ADD12C,0.065000*%
G04 APERTURE END LIST*
D10*
X19750000Y-5650000D02*
G75*
G03*
X19750000Y-5650000I-200000J0D01*
G01*
X9050000Y-14150000D02*
X20050000Y-14150000D01*
X20050000Y-14150000D02*
X20050000Y-5150000D01*
X20050000Y-5150000D02*
X9050000Y-5150000D01*
X9050000Y-5150000D02*
X9050000Y-14150000D01*
X9750000Y-13650000D02*
G75*
G03*
X9750000Y-13650000I-200000J0D01*
G01*
X19750000Y-13650000D02*
G75*
G03*
X19750000Y-13650000I-200000J0D01*
G01*
X9750000Y-5650000D02*
G75*
G03*
X9750000Y-5650000I-200000J0D01*
G01*
D11*
D12*
X19357500Y-9328500D02*
X19422500Y-9393500D01*
X19422500Y-9328500D02*
X19357500Y-9393500D01*
X19357500Y-9906500D02*
X19422500Y-9971500D01*
X19422500Y-9906500D02*
X19357500Y-9971500D01*
D11*
X9302619Y-14465476D02*
X9302619Y-14265476D01*
X9350238Y-14265476D01*
X9378810Y-14275000D01*
X9397857Y-14294048D01*
X9407381Y-14313095D01*
X9416905Y-14351190D01*
X9416905Y-14379762D01*
X9407381Y-14417857D01*
X9397857Y-14436905D01*
X9378810Y-14455952D01*
X9350238Y-14465476D01*
X9302619Y-14465476D01*
X9502619Y-14465476D02*
X9502619Y-14332143D01*
X9502619Y-14370238D02*
X9512143Y-14351190D01*
X9521667Y-14341667D01*
X9540714Y-14332143D01*
X9559762Y-14332143D01*
X9626429Y-14465476D02*
X9626429Y-14332143D01*
X9626429Y-14265476D02*
X9616905Y-14275000D01*
X9626429Y-14284524D01*
X9635952Y-14275000D01*
X9626429Y-14265476D01*
X9626429Y-14284524D01*
X9750238Y-14465476D02*
X9731190Y-14455952D01*
X9721667Y-14436905D01*
X9721667Y-14265476D01*
X9855000Y-14465476D02*
X9835952Y-14455952D01*
X9826429Y-14436905D01*
X9826429Y-14265476D01*
X10083571Y-14465476D02*
X10083571Y-14265476D01*
X10150238Y-14408333D01*
X10216905Y-14265476D01*
X10216905Y-14465476D01*
X10397857Y-14465476D02*
X10397857Y-14360714D01*
X10388333Y-14341667D01*
X10369286Y-14332143D01*
X10331190Y-14332143D01*
X10312143Y-14341667D01*
X10397857Y-14455952D02*
X10378810Y-14465476D01*
X10331190Y-14465476D01*
X10312143Y-14455952D01*
X10302619Y-14436905D01*
X10302619Y-14417857D01*
X10312143Y-14398809D01*
X10331190Y-14389286D01*
X10378810Y-14389286D01*
X10397857Y-14379762D01*
X10493095Y-14332143D02*
X10493095Y-14532143D01*
X10493095Y-14341667D02*
X10512143Y-14332143D01*
X10550238Y-14332143D01*
X10569286Y-14341667D01*
X10578810Y-14351190D01*
X10588333Y-14370238D01*
X10588333Y-14427381D01*
X10578810Y-14446428D01*
X10569286Y-14455952D01*
X10550238Y-14465476D01*
X10512143Y-14465476D01*
X10493095Y-14455952D01*
X10674048Y-14446428D02*
X10683571Y-14455952D01*
X10674048Y-14465476D01*
X10664524Y-14455952D01*
X10674048Y-14446428D01*
X10674048Y-14465476D01*
X10674048Y-14341667D02*
X10683571Y-14351190D01*
X10674048Y-14360714D01*
X10664524Y-14351190D01*
X10674048Y-14341667D01*
X10674048Y-14360714D01*
D12*
X8980000Y-14762500D02*
X9045000Y-14827500D01*
X9045000Y-14762500D02*
X8980000Y-14827500D01*
D11*
X9340714Y-14685476D02*
X9359762Y-14685476D01*
X9378810Y-14695000D01*
X9388333Y-14704524D01*
X9397857Y-14723571D01*
X9407381Y-14761667D01*
X9407381Y-14809286D01*
X9397857Y-14847381D01*
X9388333Y-14866428D01*
X9378810Y-14875952D01*
X9359762Y-14885476D01*
X9340714Y-14885476D01*
X9321667Y-14875952D01*
X9312143Y-14866428D01*
X9302619Y-14847381D01*
X9293095Y-14809286D01*
X9293095Y-14761667D01*
X9302619Y-14723571D01*
X9312143Y-14704524D01*
X9321667Y-14695000D01*
X9340714Y-14685476D01*
X9493095Y-14866428D02*
X9502619Y-14875952D01*
X9493095Y-14885476D01*
X9483571Y-14875952D01*
X9493095Y-14866428D01*
X9493095Y-14885476D01*
X9674048Y-14685476D02*
X9635952Y-14685476D01*
X9616905Y-14695000D01*
X9607381Y-14704524D01*
X9588333Y-14733095D01*
X9578810Y-14771190D01*
X9578810Y-14847381D01*
X9588333Y-14866428D01*
X9597857Y-14875952D01*
X9616905Y-14885476D01*
X9655000Y-14885476D01*
X9674048Y-14875952D01*
X9683571Y-14866428D01*
X9693095Y-14847381D01*
X9693095Y-14799762D01*
X9683571Y-14780714D01*
X9674048Y-14771190D01*
X9655000Y-14761667D01*
X9616905Y-14761667D01*
X9597857Y-14771190D01*
X9588333Y-14780714D01*
X9578810Y-14799762D01*
X9874048Y-14685476D02*
X9778810Y-14685476D01*
X9769286Y-14780714D01*
X9778810Y-14771190D01*
X9797857Y-14761667D01*
X9845476Y-14761667D01*
X9864524Y-14771190D01*
X9874048Y-14780714D01*
X9883571Y-14799762D01*
X9883571Y-14847381D01*
X9874048Y-14866428D01*
X9864524Y-14875952D01*
X9845476Y-14885476D01*
X9797857Y-14885476D01*
X9778810Y-14875952D01*
X9769286Y-14866428D01*
X10007381Y-14685476D02*
X10026429Y-14685476D01*
X10045476Y-14695000D01*
X10055000Y-14704524D01*
X10064524Y-14723571D01*
X10074048Y-14761667D01*
X10074048Y-14809286D01*
X10064524Y-14847381D01*
X10055000Y-14866428D01*
X10045476Y-14875952D01*
X10026429Y-14885476D01*
X10007381Y-14885476D01*
X9988333Y-14875952D01*
X9978810Y-14866428D01*
X9969286Y-14847381D01*
X9959762Y-14809286D01*
X9959762Y-14761667D01*
X9969286Y-14723571D01*
X9978810Y-14704524D01*
X9988333Y-14695000D01*
X10007381Y-14685476D01*
X10159762Y-14885476D02*
X10159762Y-14752143D01*
X10159762Y-14771190D02*
X10169286Y-14761667D01*
X10188333Y-14752143D01*
X10216905Y-14752143D01*
X10235952Y-14761667D01*
X10245476Y-14780714D01*
X10245476Y-14885476D01*
X10245476Y-14780714D02*
X10255000Y-14761667D01*
X10274048Y-14752143D01*
X10302619Y-14752143D01*
X10321667Y-14761667D01*
X10331190Y-14780714D01*
X10331190Y-14885476D01*
X10426429Y-14885476D02*
X10426429Y-14752143D01*
X10426429Y-14771190D02*
X10435952Y-14761667D01*
X10455000Y-14752143D01*
X10483571Y-14752143D01*
X10502619Y-14761667D01*
X10512143Y-14780714D01*
X10512143Y-14885476D01*
X10512143Y-14780714D02*
X10521667Y-14761667D01*
X10540714Y-14752143D01*
X10569286Y-14752143D01*
X10588333Y-14761667D01*
X10597857Y-14780714D01*
X10597857Y-14885476D01*
X10988333Y-14675952D02*
X10816905Y-14933095D01*
X11245476Y-14685476D02*
X11264524Y-14685476D01*
X11283571Y-14695000D01*
X11293095Y-14704524D01*
X11302619Y-14723571D01*
X11312143Y-14761667D01*
X11312143Y-14809286D01*
X11302619Y-14847381D01*
X11293095Y-14866428D01*
X11283571Y-14875952D01*
X11264524Y-14885476D01*
X11245476Y-14885476D01*
X11226428Y-14875952D01*
X11216905Y-14866428D01*
X11207381Y-14847381D01*
X11197857Y-14809286D01*
X11197857Y-14761667D01*
X11207381Y-14723571D01*
X11216905Y-14704524D01*
X11226428Y-14695000D01*
X11245476Y-14685476D01*
X11397857Y-14866428D02*
X11407381Y-14875952D01*
X11397857Y-14885476D01*
X11388333Y-14875952D01*
X11397857Y-14866428D01*
X11397857Y-14885476D01*
X11531190Y-14685476D02*
X11550238Y-14685476D01*
X11569286Y-14695000D01*
X11578809Y-14704524D01*
X11588333Y-14723571D01*
X11597857Y-14761667D01*
X11597857Y-14809286D01*
X11588333Y-14847381D01*
X11578809Y-14866428D01*
X11569286Y-14875952D01*
X11550238Y-14885476D01*
X11531190Y-14885476D01*
X11512143Y-14875952D01*
X11502619Y-14866428D01*
X11493095Y-14847381D01*
X11483571Y-14809286D01*
X11483571Y-14761667D01*
X11493095Y-14723571D01*
X11502619Y-14704524D01*
X11512143Y-14695000D01*
X11531190Y-14685476D01*
X11674048Y-14704524D02*
X11683571Y-14695000D01*
X11702619Y-14685476D01*
X11750238Y-14685476D01*
X11769286Y-14695000D01*
X11778809Y-14704524D01*
X11788333Y-14723571D01*
X11788333Y-14742619D01*
X11778809Y-14771190D01*
X11664524Y-14885476D01*
X11788333Y-14885476D01*
X11969286Y-14685476D02*
X11874048Y-14685476D01*
X11864524Y-14780714D01*
X11874048Y-14771190D01*
X11893095Y-14761667D01*
X11940714Y-14761667D01*
X11959762Y-14771190D01*
X11969286Y-14780714D01*
X11978809Y-14799762D01*
X11978809Y-14847381D01*
X11969286Y-14866428D01*
X11959762Y-14875952D01*
X11940714Y-14885476D01*
X11893095Y-14885476D01*
X11874048Y-14875952D01*
X11864524Y-14866428D01*
X12150238Y-14685476D02*
X12112143Y-14685476D01*
X12093095Y-14695000D01*
X12083571Y-14704524D01*
X12064524Y-14733095D01*
X12055000Y-14771190D01*
X12055000Y-14847381D01*
X12064524Y-14866428D01*
X12074048Y-14875952D01*
X12093095Y-14885476D01*
X12131190Y-14885476D01*
X12150238Y-14875952D01*
X12159762Y-14866428D01*
X12169286Y-14847381D01*
X12169286Y-14799762D01*
X12159762Y-14780714D01*
X12150238Y-14771190D01*
X12131190Y-14761667D01*
X12093095Y-14761667D01*
X12074048Y-14771190D01*
X12064524Y-14780714D01*
X12055000Y-14799762D01*
X12245476Y-14685476D02*
X12245476Y-14723571D01*
X12321667Y-14685476D02*
X12321667Y-14723571D01*
X12616905Y-14961667D02*
X12607381Y-14952143D01*
X12588333Y-14923571D01*
X12578809Y-14904524D01*
X12569286Y-14875952D01*
X12559762Y-14828333D01*
X12559762Y-14790238D01*
X12569286Y-14742619D01*
X12578809Y-14714048D01*
X12588333Y-14695000D01*
X12607381Y-14666428D01*
X12616905Y-14656905D01*
X12683571Y-14704524D02*
X12693095Y-14695000D01*
X12712143Y-14685476D01*
X12759762Y-14685476D01*
X12778809Y-14695000D01*
X12788333Y-14704524D01*
X12797857Y-14723571D01*
X12797857Y-14742619D01*
X12788333Y-14771190D01*
X12674048Y-14885476D01*
X12797857Y-14885476D01*
X13035952Y-14885476D02*
X13035952Y-14685476D01*
X13121667Y-14885476D02*
X13121667Y-14780714D01*
X13112143Y-14761667D01*
X13093095Y-14752143D01*
X13064524Y-14752143D01*
X13045476Y-14761667D01*
X13035952Y-14771190D01*
X13245476Y-14885476D02*
X13226428Y-14875952D01*
X13216905Y-14866428D01*
X13207381Y-14847381D01*
X13207381Y-14790238D01*
X13216905Y-14771190D01*
X13226428Y-14761667D01*
X13245476Y-14752143D01*
X13274048Y-14752143D01*
X13293095Y-14761667D01*
X13302619Y-14771190D01*
X13312143Y-14790238D01*
X13312143Y-14847381D01*
X13302619Y-14866428D01*
X13293095Y-14875952D01*
X13274048Y-14885476D01*
X13245476Y-14885476D01*
X13426428Y-14885476D02*
X13407381Y-14875952D01*
X13397857Y-14856905D01*
X13397857Y-14685476D01*
X13578809Y-14875952D02*
X13559762Y-14885476D01*
X13521667Y-14885476D01*
X13502619Y-14875952D01*
X13493095Y-14856905D01*
X13493095Y-14780714D01*
X13502619Y-14761667D01*
X13521667Y-14752143D01*
X13559762Y-14752143D01*
X13578809Y-14761667D01*
X13588333Y-14780714D01*
X13588333Y-14799762D01*
X13493095Y-14818809D01*
X13664524Y-14875952D02*
X13683571Y-14885476D01*
X13721667Y-14885476D01*
X13740714Y-14875952D01*
X13750238Y-14856905D01*
X13750238Y-14847381D01*
X13740714Y-14828333D01*
X13721667Y-14818809D01*
X13693095Y-14818809D01*
X13674048Y-14809286D01*
X13664524Y-14790238D01*
X13664524Y-14780714D01*
X13674048Y-14761667D01*
X13693095Y-14752143D01*
X13721667Y-14752143D01*
X13740714Y-14761667D01*
X13816905Y-14961667D02*
X13826428Y-14952143D01*
X13845476Y-14923571D01*
X13855000Y-14904524D01*
X13864524Y-14875952D01*
X13874048Y-14828333D01*
X13874048Y-14790238D01*
X13864524Y-14742619D01*
X13855000Y-14714048D01*
X13845476Y-14695000D01*
X13826428Y-14666428D01*
X13816905Y-14656905D01*
X14178809Y-14961667D02*
X14169286Y-14952143D01*
X14150238Y-14923571D01*
X14140714Y-14904524D01*
X14131190Y-14875952D01*
X14121667Y-14828333D01*
X14121667Y-14790238D01*
X14131190Y-14742619D01*
X14140714Y-14714048D01*
X14150238Y-14695000D01*
X14169286Y-14666428D01*
X14178809Y-14656905D01*
X14255000Y-14752143D02*
X14255000Y-14885476D01*
X14255000Y-14771190D02*
X14264524Y-14761667D01*
X14283571Y-14752143D01*
X14312143Y-14752143D01*
X14331190Y-14761667D01*
X14340714Y-14780714D01*
X14340714Y-14885476D01*
X14464524Y-14885476D02*
X14445476Y-14875952D01*
X14435952Y-14866428D01*
X14426428Y-14847381D01*
X14426428Y-14790238D01*
X14435952Y-14771190D01*
X14445476Y-14761667D01*
X14464524Y-14752143D01*
X14493095Y-14752143D01*
X14512143Y-14761667D01*
X14521667Y-14771190D01*
X14531190Y-14790238D01*
X14531190Y-14847381D01*
X14521667Y-14866428D01*
X14512143Y-14875952D01*
X14493095Y-14885476D01*
X14464524Y-14885476D01*
X14588333Y-14752143D02*
X14664524Y-14752143D01*
X14616905Y-14685476D02*
X14616905Y-14856905D01*
X14626428Y-14875952D01*
X14645476Y-14885476D01*
X14664524Y-14885476D01*
X14883571Y-14752143D02*
X14883571Y-14952143D01*
X14883571Y-14761667D02*
X14902619Y-14752143D01*
X14940714Y-14752143D01*
X14959762Y-14761667D01*
X14969286Y-14771190D01*
X14978809Y-14790238D01*
X14978809Y-14847381D01*
X14969286Y-14866428D01*
X14959762Y-14875952D01*
X14940714Y-14885476D01*
X14902619Y-14885476D01*
X14883571Y-14875952D01*
X15093095Y-14885476D02*
X15074048Y-14875952D01*
X15064524Y-14856905D01*
X15064524Y-14685476D01*
X15255000Y-14885476D02*
X15255000Y-14780714D01*
X15245476Y-14761667D01*
X15226428Y-14752143D01*
X15188333Y-14752143D01*
X15169286Y-14761667D01*
X15255000Y-14875952D02*
X15235952Y-14885476D01*
X15188333Y-14885476D01*
X15169286Y-14875952D01*
X15159762Y-14856905D01*
X15159762Y-14837857D01*
X15169286Y-14818809D01*
X15188333Y-14809286D01*
X15235952Y-14809286D01*
X15255000Y-14799762D01*
X15321667Y-14752143D02*
X15397857Y-14752143D01*
X15350238Y-14685476D02*
X15350238Y-14856905D01*
X15359762Y-14875952D01*
X15378809Y-14885476D01*
X15397857Y-14885476D01*
X15540714Y-14875952D02*
X15521667Y-14885476D01*
X15483571Y-14885476D01*
X15464524Y-14875952D01*
X15455000Y-14856905D01*
X15455000Y-14780714D01*
X15464524Y-14761667D01*
X15483571Y-14752143D01*
X15521667Y-14752143D01*
X15540714Y-14761667D01*
X15550238Y-14780714D01*
X15550238Y-14799762D01*
X15455000Y-14818809D01*
X15721667Y-14885476D02*
X15721667Y-14685476D01*
X15721667Y-14875952D02*
X15702619Y-14885476D01*
X15664524Y-14885476D01*
X15645476Y-14875952D01*
X15635952Y-14866428D01*
X15626428Y-14847381D01*
X15626428Y-14790238D01*
X15635952Y-14771190D01*
X15645476Y-14761667D01*
X15664524Y-14752143D01*
X15702619Y-14752143D01*
X15721667Y-14761667D01*
X15797857Y-14961667D02*
X15807381Y-14952143D01*
X15826428Y-14923571D01*
X15835952Y-14904524D01*
X15845476Y-14875952D01*
X15855000Y-14828333D01*
X15855000Y-14790238D01*
X15845476Y-14742619D01*
X15835952Y-14714048D01*
X15826428Y-14695000D01*
X15807381Y-14666428D01*
X15797857Y-14656905D01*
M02*
