G04 #@! TF.GenerationSoftware,KiCad,Pcbnew,(6.0.10-0)*
G04 #@! TF.CreationDate,2023-01-28T23:12:22+01:00*
G04 #@! TF.ProjectId,hitpoint-proto-v1,68697470-6f69-46e7-942d-70726f746f2d,Proto V1*
G04 #@! TF.SameCoordinates,Original*
G04 #@! TF.FileFunction,Copper,L2,Bot*
G04 #@! TF.FilePolarity,Positive*
%FSLAX46Y46*%
G04 Gerber Fmt 4.6, Leading zero omitted, Abs format (unit mm)*
G04 Created by KiCad (PCBNEW (6.0.10-0)) date 2023-01-28 23:12:22*
%MOMM*%
%LPD*%
G01*
G04 APERTURE LIST*
G04 Aperture macros list*
%AMFreePoly0*
4,1,6,0.500000,-0.750000,-0.650000,-0.750000,-0.150000,0.000000,-0.650000,0.750000,0.500000,0.750000,0.500000,-0.750000,0.500000,-0.750000,$1*%
%AMFreePoly1*
4,1,6,1.000000,0.000000,0.500000,-0.750000,-0.500000,-0.750000,-0.500000,0.750000,0.500000,0.750000,1.000000,0.000000,1.000000,0.000000,$1*%
G04 Aperture macros list end*
G04 #@! TA.AperFunction,ComponentPad*
%ADD10O,1.700000X1.700000*%
G04 #@! TD*
G04 #@! TA.AperFunction,ComponentPad*
%ADD11R,1.700000X1.700000*%
G04 #@! TD*
G04 #@! TA.AperFunction,SMDPad,CuDef*
%ADD12FreePoly0,270.000000*%
G04 #@! TD*
G04 #@! TA.AperFunction,SMDPad,CuDef*
%ADD13FreePoly1,270.000000*%
G04 #@! TD*
G04 #@! TA.AperFunction,ViaPad*
%ADD14C,0.800000*%
G04 #@! TD*
G04 #@! TA.AperFunction,ViaPad*
%ADD15C,2.000000*%
G04 #@! TD*
G04 #@! TA.AperFunction,Conductor*
%ADD16C,0.508000*%
G04 #@! TD*
G04 #@! TA.AperFunction,Conductor*
%ADD17C,0.762000*%
G04 #@! TD*
G04 #@! TA.AperFunction,Conductor*
%ADD18C,0.254000*%
G04 #@! TD*
G04 #@! TA.AperFunction,Conductor*
%ADD19C,0.250000*%
G04 #@! TD*
G04 APERTURE END LIST*
D10*
X117000000Y-81150000D03*
X117000000Y-83690000D03*
X117000000Y-86230000D03*
X117000000Y-88770000D03*
X117000000Y-91310000D03*
D11*
X117000000Y-93850000D03*
D10*
X142585000Y-80000000D03*
X140045000Y-80000000D03*
X137505000Y-80000000D03*
X134965000Y-80000000D03*
D11*
X132425000Y-80000000D03*
D10*
X158000000Y-81150000D03*
X158000000Y-83690000D03*
X158000000Y-86230000D03*
X158000000Y-88770000D03*
X158000000Y-91310000D03*
D11*
X158000000Y-93850000D03*
D12*
X126950000Y-86725000D03*
D13*
X126950000Y-85275000D03*
D12*
X123950000Y-86725000D03*
D13*
X123950000Y-85275000D03*
D12*
X129949999Y-86725000D03*
D13*
X129949999Y-85275000D03*
D14*
X149000000Y-93500000D03*
X143000000Y-85250000D03*
X127000000Y-98000000D03*
X132750000Y-87250000D03*
X145000000Y-85250000D03*
X144000000Y-89750000D03*
X142000000Y-89000000D03*
D15*
X145000000Y-107500000D03*
X142500000Y-67500000D03*
X137500000Y-67500000D03*
X125000000Y-107500000D03*
D14*
X148000000Y-77000000D03*
D15*
X117500000Y-97500000D03*
X147500000Y-67500000D03*
D14*
X149000000Y-99000000D03*
D15*
X125000000Y-67500000D03*
D14*
X144000000Y-88000000D03*
X138000000Y-75000000D03*
D15*
X117500000Y-100000000D03*
X137500000Y-107500000D03*
D14*
X145000000Y-88000000D03*
X136500000Y-85000000D03*
D15*
X157500000Y-100000000D03*
D14*
X138250000Y-99000000D03*
X152750000Y-81000000D03*
X127000000Y-77000000D03*
D15*
X157500000Y-77500000D03*
X117500000Y-77500000D03*
X140000000Y-107500000D03*
X132500000Y-67500000D03*
D14*
X143000000Y-86250000D03*
D15*
X157500000Y-97500000D03*
D14*
X126750000Y-92250000D03*
D15*
X142500000Y-107500000D03*
D14*
X148000000Y-98000000D03*
X120500000Y-89000000D03*
X125000000Y-100000000D03*
X134500000Y-94000000D03*
X145500000Y-82000000D03*
D15*
X135000000Y-67500000D03*
X127500000Y-107500000D03*
X127500000Y-67500000D03*
D14*
X145500000Y-81000000D03*
X136750000Y-75000000D03*
X132750000Y-88500000D03*
D15*
X145000000Y-67500000D03*
D14*
X120500000Y-87750000D03*
D15*
X147500000Y-107500000D03*
D14*
X136500000Y-83500000D03*
D15*
X132500000Y-107500000D03*
D14*
X125000000Y-75000000D03*
D15*
X150000000Y-107500000D03*
X135000000Y-107500000D03*
D14*
X146000000Y-89000000D03*
D15*
X130000000Y-67500000D03*
D14*
X150000000Y-88750000D03*
X142000000Y-88000000D03*
D15*
X157500000Y-75000000D03*
D14*
X139250000Y-75000000D03*
X143000000Y-89750000D03*
X153250000Y-88750000D03*
X140500000Y-75000000D03*
D15*
X130000000Y-107500000D03*
D14*
X150000000Y-75000000D03*
X134500000Y-93000000D03*
X146000000Y-88000000D03*
D15*
X117500000Y-75000000D03*
X150000000Y-67500000D03*
D14*
X143000000Y-88000000D03*
X150000000Y-100000000D03*
X149000000Y-76000000D03*
X126750000Y-93250000D03*
X145000000Y-86250000D03*
D15*
X140000000Y-67500000D03*
D14*
X138250000Y-100250000D03*
X145000000Y-89750000D03*
X126000000Y-99000000D03*
X126000000Y-76000000D03*
X152750000Y-82000000D03*
X143000000Y-98500000D03*
X132000000Y-77000000D03*
X121250000Y-95250000D03*
X148000000Y-82000000D03*
X127000000Y-78250000D03*
X126500000Y-89750000D03*
X120500000Y-85250000D03*
X128450000Y-83500000D03*
X127450000Y-84000000D03*
X126419218Y-83969218D03*
X129500000Y-82500000D03*
X121500000Y-82500000D03*
D16*
X157650000Y-93500000D02*
X158000000Y-93850000D01*
X149000000Y-93500000D02*
X157650000Y-93500000D01*
D17*
X143000000Y-95500000D02*
X121500000Y-95500000D01*
X117000000Y-91310000D02*
X117310000Y-91310000D01*
X117310000Y-91310000D02*
X121250000Y-95250000D01*
X145500000Y-77000000D02*
X148000000Y-79500000D01*
X142500000Y-77000000D02*
X142585000Y-77085000D01*
X142585000Y-77085000D02*
X142585000Y-80000000D01*
X148000000Y-91500000D02*
X148190000Y-91310000D01*
X148190000Y-91310000D02*
X158000000Y-91310000D01*
X148000000Y-91500000D02*
X144000000Y-95500000D01*
X121500000Y-95500000D02*
X121250000Y-95250000D01*
X144000000Y-95500000D02*
X143000000Y-95500000D01*
X143000000Y-95500000D02*
X143000000Y-98500000D01*
X142500000Y-77000000D02*
X145500000Y-77000000D01*
X132000000Y-77000000D02*
X142500000Y-77000000D01*
X148000000Y-91500000D02*
X148000000Y-82000000D01*
X148000000Y-79500000D02*
X148000000Y-82000000D01*
D18*
X127250000Y-78250000D02*
X127000000Y-78250000D01*
X130250000Y-81250000D02*
X127250000Y-78250000D01*
X130500000Y-89750000D02*
X131500000Y-88750000D01*
X131500000Y-88750000D02*
X131500000Y-82500000D01*
X126500000Y-89750000D02*
X130500000Y-89750000D01*
X131500000Y-82500000D02*
X130250000Y-81250000D01*
X135000000Y-79965000D02*
X134965000Y-80000000D01*
D19*
X123272792Y-73500000D02*
X151500000Y-73500000D01*
X154000000Y-76000000D02*
X154000000Y-84750000D01*
X117000000Y-88750000D02*
X120500000Y-85250000D01*
X158000000Y-88750000D02*
X158000000Y-88770000D01*
X120500000Y-85250000D02*
X120500000Y-76272792D01*
X117000000Y-88770000D02*
X117000000Y-88750000D01*
X120500000Y-76272792D02*
X123272792Y-73500000D01*
X151500000Y-73500000D02*
X154000000Y-76000000D01*
X154000000Y-84750000D02*
X158000000Y-88750000D01*
X117020000Y-86230000D02*
X120000000Y-83250000D01*
X154500000Y-75863604D02*
X154500000Y-82750000D01*
X157980000Y-86230000D02*
X158000000Y-86230000D01*
X117000000Y-86230000D02*
X117020000Y-86230000D01*
X154500000Y-82750000D02*
X157980000Y-86230000D01*
X120000000Y-76136396D02*
X123086396Y-73050000D01*
X120000000Y-83250000D02*
X120000000Y-76136396D01*
X151686396Y-73050000D02*
X154500000Y-75863604D01*
X123086396Y-73050000D02*
X151686396Y-73050000D01*
X129949999Y-85000000D02*
X129950000Y-85275000D01*
X128450000Y-83500000D02*
X129949999Y-85000000D01*
X127450000Y-84775001D02*
X126950001Y-85275000D01*
X127450000Y-84000000D02*
X127450000Y-84775001D01*
X126419218Y-83969218D02*
X125255782Y-83969218D01*
X125255782Y-83969218D02*
X123950000Y-85275000D01*
D18*
X129500000Y-82500000D02*
X121500000Y-82500000D01*
D19*
X117060000Y-83690000D02*
X119500000Y-81250000D01*
X152100000Y-72600000D02*
X155000000Y-75500000D01*
X122900000Y-72600000D02*
X152100000Y-72600000D01*
X155000000Y-80750000D02*
X157940000Y-83690000D01*
X157940000Y-83690000D02*
X158000000Y-83690000D01*
X155000000Y-75500000D02*
X155000000Y-80750000D01*
X117000000Y-83690000D02*
X117060000Y-83690000D01*
X119500000Y-81250000D02*
X119500000Y-76000000D01*
X119500000Y-76000000D02*
X122900000Y-72600000D01*
G04 #@! TA.AperFunction,Conductor*
G36*
X154987103Y-65256921D02*
G01*
X155000000Y-65259486D01*
X155012170Y-65257065D01*
X155022599Y-65257065D01*
X155035735Y-65256060D01*
X155356412Y-65270061D01*
X155408103Y-65272318D01*
X155419051Y-65273276D01*
X155818604Y-65325878D01*
X155829413Y-65327785D01*
X156222854Y-65415008D01*
X156233471Y-65417853D01*
X156617813Y-65539036D01*
X156628128Y-65542789D01*
X157000468Y-65697017D01*
X157010412Y-65701655D01*
X157295219Y-65849916D01*
X157367867Y-65887734D01*
X157377387Y-65893230D01*
X157717262Y-66109755D01*
X157726266Y-66116059D01*
X158045993Y-66361393D01*
X158054397Y-66368445D01*
X158130501Y-66438182D01*
X158351519Y-66640709D01*
X158359291Y-66648481D01*
X158470515Y-66769860D01*
X158631555Y-66945603D01*
X158638607Y-66954007D01*
X158768743Y-67123604D01*
X158883941Y-67273734D01*
X158890245Y-67282738D01*
X159106770Y-67622613D01*
X159112265Y-67632132D01*
X159258292Y-67912645D01*
X159298341Y-67989579D01*
X159302983Y-67999532D01*
X159457208Y-68371865D01*
X159460964Y-68382187D01*
X159496858Y-68496026D01*
X159582147Y-68766528D01*
X159584992Y-68777145D01*
X159665279Y-69139295D01*
X159672214Y-69170579D01*
X159674122Y-69181396D01*
X159682962Y-69248543D01*
X159726724Y-69580948D01*
X159727682Y-69591898D01*
X159743940Y-69964265D01*
X159742935Y-69977401D01*
X159742935Y-69987830D01*
X159740514Y-70000000D01*
X159742935Y-70012170D01*
X159743079Y-70012894D01*
X159745500Y-70037476D01*
X159745500Y-104962524D01*
X159743079Y-104987103D01*
X159740514Y-105000000D01*
X159742935Y-105012170D01*
X159742935Y-105022599D01*
X159743940Y-105035735D01*
X159727682Y-105408102D01*
X159726724Y-105419052D01*
X159674123Y-105818596D01*
X159672215Y-105829413D01*
X159623209Y-106050468D01*
X159584992Y-106222854D01*
X159582147Y-106233471D01*
X159466352Y-106600728D01*
X159460967Y-106617806D01*
X159457211Y-106628128D01*
X159389146Y-106792453D01*
X159302987Y-107000459D01*
X159298345Y-107010412D01*
X159257601Y-107088681D01*
X159112266Y-107367867D01*
X159106770Y-107377387D01*
X158890245Y-107717262D01*
X158883941Y-107726266D01*
X158638607Y-108045993D01*
X158631555Y-108054397D01*
X158495419Y-108202962D01*
X158359291Y-108351519D01*
X158351519Y-108359291D01*
X158202962Y-108495420D01*
X158054397Y-108631555D01*
X158045993Y-108638607D01*
X157811664Y-108818413D01*
X157726266Y-108883941D01*
X157717262Y-108890245D01*
X157377387Y-109106770D01*
X157367868Y-109112265D01*
X157010412Y-109298345D01*
X157000468Y-109302983D01*
X156628128Y-109457211D01*
X156617813Y-109460964D01*
X156233472Y-109582147D01*
X156222855Y-109584992D01*
X155829413Y-109672215D01*
X155818604Y-109674122D01*
X155419052Y-109726724D01*
X155408103Y-109727682D01*
X155356412Y-109729939D01*
X155035735Y-109743940D01*
X155022599Y-109742935D01*
X155012170Y-109742935D01*
X155000000Y-109740514D01*
X154987103Y-109743079D01*
X154962524Y-109745500D01*
X120037476Y-109745500D01*
X120012897Y-109743079D01*
X120000000Y-109740514D01*
X119987830Y-109742935D01*
X119977401Y-109742935D01*
X119964265Y-109743940D01*
X119643588Y-109729939D01*
X119591897Y-109727682D01*
X119580948Y-109726724D01*
X119181396Y-109674122D01*
X119170587Y-109672215D01*
X118777145Y-109584992D01*
X118766528Y-109582147D01*
X118382187Y-109460964D01*
X118371872Y-109457211D01*
X117999532Y-109302983D01*
X117989588Y-109298345D01*
X117632132Y-109112265D01*
X117622613Y-109106770D01*
X117282738Y-108890245D01*
X117273734Y-108883941D01*
X117188336Y-108818413D01*
X116954007Y-108638607D01*
X116945603Y-108631555D01*
X116797038Y-108495420D01*
X116648481Y-108359291D01*
X116640709Y-108351519D01*
X116504581Y-108202962D01*
X116368445Y-108054397D01*
X116361393Y-108045993D01*
X116116059Y-107726266D01*
X116109755Y-107717262D01*
X115893230Y-107377387D01*
X115887734Y-107367867D01*
X115742399Y-107088681D01*
X115701655Y-107010412D01*
X115697013Y-107000459D01*
X115610855Y-106792453D01*
X115542789Y-106628128D01*
X115539033Y-106617806D01*
X115533649Y-106600728D01*
X115417853Y-106233471D01*
X115415008Y-106222854D01*
X115376791Y-106050468D01*
X115327785Y-105829413D01*
X115325877Y-105818596D01*
X115273276Y-105419052D01*
X115272318Y-105408102D01*
X115256060Y-105035735D01*
X115257065Y-105022599D01*
X115257065Y-105012170D01*
X115259486Y-105000000D01*
X117740663Y-105000000D01*
X117740933Y-105004119D01*
X117754606Y-105212723D01*
X117759992Y-105294903D01*
X117760796Y-105298943D01*
X117760796Y-105298946D01*
X117787717Y-105434284D01*
X117817648Y-105584759D01*
X117818973Y-105588663D01*
X117818974Y-105588666D01*
X117901874Y-105832881D01*
X117912645Y-105864611D01*
X118043357Y-106129668D01*
X118207547Y-106375397D01*
X118402407Y-106597593D01*
X118624603Y-106792453D01*
X118870331Y-106956643D01*
X118874030Y-106958467D01*
X118874035Y-106958470D01*
X118959181Y-107000459D01*
X119135389Y-107087355D01*
X119139294Y-107088680D01*
X119139295Y-107088681D01*
X119411334Y-107181026D01*
X119411337Y-107181027D01*
X119415241Y-107182352D01*
X119419280Y-107183155D01*
X119419286Y-107183157D01*
X119701054Y-107239204D01*
X119701057Y-107239204D01*
X119705097Y-107240008D01*
X119709208Y-107240277D01*
X119709212Y-107240278D01*
X119995881Y-107259067D01*
X120000000Y-107259337D01*
X120004119Y-107259067D01*
X120290788Y-107240278D01*
X120290792Y-107240277D01*
X120294903Y-107240008D01*
X120298943Y-107239204D01*
X120298946Y-107239204D01*
X120580714Y-107183157D01*
X120580720Y-107183155D01*
X120584759Y-107182352D01*
X120588663Y-107181027D01*
X120588666Y-107181026D01*
X120860705Y-107088681D01*
X120860706Y-107088680D01*
X120864611Y-107087355D01*
X121040819Y-107000459D01*
X121125965Y-106958470D01*
X121125970Y-106958467D01*
X121129669Y-106956643D01*
X121375397Y-106792453D01*
X121597593Y-106597593D01*
X121792453Y-106375397D01*
X121956643Y-106129668D01*
X122087355Y-105864611D01*
X122098126Y-105832881D01*
X122181026Y-105588666D01*
X122181027Y-105588663D01*
X122182352Y-105584759D01*
X122212284Y-105434284D01*
X122239204Y-105298946D01*
X122239204Y-105298943D01*
X122240008Y-105294903D01*
X122245395Y-105212723D01*
X122259067Y-105004119D01*
X122259337Y-105000000D01*
X152740663Y-105000000D01*
X152740933Y-105004119D01*
X152754606Y-105212723D01*
X152759992Y-105294903D01*
X152760796Y-105298943D01*
X152760796Y-105298946D01*
X152787717Y-105434284D01*
X152817648Y-105584759D01*
X152818973Y-105588663D01*
X152818974Y-105588666D01*
X152901874Y-105832881D01*
X152912645Y-105864611D01*
X153043357Y-106129668D01*
X153207547Y-106375397D01*
X153402407Y-106597593D01*
X153624603Y-106792453D01*
X153870331Y-106956643D01*
X153874030Y-106958467D01*
X153874035Y-106958470D01*
X153959181Y-107000459D01*
X154135389Y-107087355D01*
X154139294Y-107088680D01*
X154139295Y-107088681D01*
X154411334Y-107181026D01*
X154411337Y-107181027D01*
X154415241Y-107182352D01*
X154419280Y-107183155D01*
X154419286Y-107183157D01*
X154701054Y-107239204D01*
X154701057Y-107239204D01*
X154705097Y-107240008D01*
X154709208Y-107240277D01*
X154709212Y-107240278D01*
X154995881Y-107259067D01*
X155000000Y-107259337D01*
X155004119Y-107259067D01*
X155290788Y-107240278D01*
X155290792Y-107240277D01*
X155294903Y-107240008D01*
X155298943Y-107239204D01*
X155298946Y-107239204D01*
X155580714Y-107183157D01*
X155580720Y-107183155D01*
X155584759Y-107182352D01*
X155588663Y-107181027D01*
X155588666Y-107181026D01*
X155860705Y-107088681D01*
X155860706Y-107088680D01*
X155864611Y-107087355D01*
X156040819Y-107000459D01*
X156125965Y-106958470D01*
X156125970Y-106958467D01*
X156129669Y-106956643D01*
X156375397Y-106792453D01*
X156597593Y-106597593D01*
X156792453Y-106375397D01*
X156956643Y-106129668D01*
X157087355Y-105864611D01*
X157098126Y-105832881D01*
X157181026Y-105588666D01*
X157181027Y-105588663D01*
X157182352Y-105584759D01*
X157212284Y-105434284D01*
X157239204Y-105298946D01*
X157239204Y-105298943D01*
X157240008Y-105294903D01*
X157245395Y-105212723D01*
X157259067Y-105004119D01*
X157259337Y-105000000D01*
X157240008Y-104705097D01*
X157197156Y-104489665D01*
X157183157Y-104419286D01*
X157183155Y-104419280D01*
X157182352Y-104415241D01*
X157087355Y-104135389D01*
X156956643Y-103870332D01*
X156792453Y-103624603D01*
X156597593Y-103402407D01*
X156375397Y-103207547D01*
X156129669Y-103043357D01*
X156125970Y-103041533D01*
X156125965Y-103041530D01*
X155989991Y-102974475D01*
X155864611Y-102912645D01*
X155860705Y-102911319D01*
X155588666Y-102818974D01*
X155588663Y-102818973D01*
X155584759Y-102817648D01*
X155580720Y-102816845D01*
X155580714Y-102816843D01*
X155298946Y-102760796D01*
X155298943Y-102760796D01*
X155294903Y-102759992D01*
X155290792Y-102759723D01*
X155290788Y-102759722D01*
X155004119Y-102740933D01*
X155000000Y-102740663D01*
X154995881Y-102740933D01*
X154709212Y-102759722D01*
X154709208Y-102759723D01*
X154705097Y-102759992D01*
X154701057Y-102760796D01*
X154701054Y-102760796D01*
X154419286Y-102816843D01*
X154419280Y-102816845D01*
X154415241Y-102817648D01*
X154411337Y-102818973D01*
X154411334Y-102818974D01*
X154139295Y-102911319D01*
X154135389Y-102912645D01*
X154010143Y-102974410D01*
X153874036Y-103041530D01*
X153874031Y-103041533D01*
X153870332Y-103043357D01*
X153624603Y-103207547D01*
X153402407Y-103402407D01*
X153207547Y-103624603D01*
X153043357Y-103870332D01*
X152912645Y-104135389D01*
X152817648Y-104415241D01*
X152816845Y-104419280D01*
X152816843Y-104419286D01*
X152802844Y-104489665D01*
X152759992Y-104705097D01*
X152743658Y-104954308D01*
X152740663Y-105000000D01*
X122259337Y-105000000D01*
X122240008Y-104705097D01*
X122197156Y-104489665D01*
X122183157Y-104419286D01*
X122183155Y-104419280D01*
X122182352Y-104415241D01*
X122087355Y-104135389D01*
X121956643Y-103870332D01*
X121792453Y-103624603D01*
X121597593Y-103402407D01*
X121375397Y-103207547D01*
X121129669Y-103043357D01*
X121125970Y-103041533D01*
X121125965Y-103041530D01*
X120989991Y-102974475D01*
X120864611Y-102912645D01*
X120860705Y-102911319D01*
X120588666Y-102818974D01*
X120588663Y-102818973D01*
X120584759Y-102817648D01*
X120580720Y-102816845D01*
X120580714Y-102816843D01*
X120298946Y-102760796D01*
X120298943Y-102760796D01*
X120294903Y-102759992D01*
X120290792Y-102759723D01*
X120290788Y-102759722D01*
X120004119Y-102740933D01*
X120000000Y-102740663D01*
X119995881Y-102740933D01*
X119709212Y-102759722D01*
X119709208Y-102759723D01*
X119705097Y-102759992D01*
X119701057Y-102760796D01*
X119701054Y-102760796D01*
X119419286Y-102816843D01*
X119419280Y-102816845D01*
X119415241Y-102817648D01*
X119411337Y-102818973D01*
X119411334Y-102818974D01*
X119139295Y-102911319D01*
X119135389Y-102912645D01*
X119010143Y-102974410D01*
X118874036Y-103041530D01*
X118874031Y-103041533D01*
X118870332Y-103043357D01*
X118624603Y-103207547D01*
X118402407Y-103402407D01*
X118207547Y-103624603D01*
X118043357Y-103870332D01*
X117912645Y-104135389D01*
X117817648Y-104415241D01*
X117816845Y-104419280D01*
X117816843Y-104419286D01*
X117802844Y-104489665D01*
X117759992Y-104705097D01*
X117743658Y-104954308D01*
X117740663Y-105000000D01*
X115259486Y-105000000D01*
X115256921Y-104987103D01*
X115254500Y-104962524D01*
X115254500Y-91280964D01*
X115891148Y-91280964D01*
X115904424Y-91483522D01*
X115905845Y-91489118D01*
X115905846Y-91489123D01*
X115926119Y-91568945D01*
X115954392Y-91680269D01*
X115956809Y-91685512D01*
X115994010Y-91766208D01*
X116039377Y-91864616D01*
X116042710Y-91869332D01*
X116123653Y-91983864D01*
X116156533Y-92030389D01*
X116301938Y-92172035D01*
X116470720Y-92284812D01*
X116476023Y-92287090D01*
X116476026Y-92287092D01*
X116651921Y-92362662D01*
X116657228Y-92364942D01*
X116730244Y-92381464D01*
X116849579Y-92408467D01*
X116849584Y-92408468D01*
X116855216Y-92409742D01*
X116860987Y-92409969D01*
X116860989Y-92409969D01*
X116920756Y-92412317D01*
X117058053Y-92417712D01*
X117158499Y-92403148D01*
X117253231Y-92389413D01*
X117253236Y-92389412D01*
X117258945Y-92388584D01*
X117264409Y-92386729D01*
X117264414Y-92386728D01*
X117357141Y-92355251D01*
X117428076Y-92352295D01*
X117486737Y-92385469D01*
X117631673Y-92530405D01*
X117665699Y-92592717D01*
X117660634Y-92663532D01*
X117618087Y-92720368D01*
X117551567Y-92745179D01*
X117542578Y-92745500D01*
X116159268Y-92745501D01*
X116124934Y-92745501D01*
X116089182Y-92752612D01*
X116062874Y-92757844D01*
X116062872Y-92757845D01*
X116050699Y-92760266D01*
X116040379Y-92767161D01*
X116040378Y-92767162D01*
X115979985Y-92807516D01*
X115966516Y-92816516D01*
X115910266Y-92900699D01*
X115895500Y-92974933D01*
X115895501Y-94725066D01*
X115910266Y-94799301D01*
X115917161Y-94809620D01*
X115917162Y-94809622D01*
X115940466Y-94844498D01*
X115966516Y-94883484D01*
X116050699Y-94939734D01*
X116124933Y-94954500D01*
X116999858Y-94954500D01*
X117875066Y-94954499D01*
X117910818Y-94947388D01*
X117937126Y-94942156D01*
X117937128Y-94942155D01*
X117949301Y-94939734D01*
X117959621Y-94932839D01*
X117959622Y-94932838D01*
X118023168Y-94890377D01*
X118033484Y-94883484D01*
X118089734Y-94799301D01*
X118104500Y-94725067D01*
X118104499Y-93307420D01*
X118124501Y-93239300D01*
X118178157Y-93192807D01*
X118248431Y-93182703D01*
X118313011Y-93212196D01*
X118319594Y-93218326D01*
X120678405Y-95577137D01*
X120693891Y-95595955D01*
X120750908Y-95680805D01*
X120868076Y-95787419D01*
X120874752Y-95791044D01*
X120874755Y-95791046D01*
X120897122Y-95803191D01*
X120926094Y-95824826D01*
X120994745Y-95893477D01*
X121002322Y-95901803D01*
X121006447Y-95908303D01*
X121012225Y-95913729D01*
X121012226Y-95913730D01*
X121056281Y-95955100D01*
X121059123Y-95957855D01*
X121078906Y-95977638D01*
X121082114Y-95980126D01*
X121091143Y-95987837D01*
X121123494Y-96018217D01*
X121130443Y-96022037D01*
X121141329Y-96028022D01*
X121157853Y-96038876D01*
X121173933Y-96051349D01*
X121181210Y-96054498D01*
X121214650Y-96068969D01*
X121225311Y-96074192D01*
X121257247Y-96091749D01*
X121257252Y-96091751D01*
X121264197Y-96095569D01*
X121271871Y-96097539D01*
X121271878Y-96097542D01*
X121283913Y-96100632D01*
X121302618Y-96107036D01*
X121314013Y-96111967D01*
X121321292Y-96115117D01*
X121336401Y-96117510D01*
X121365127Y-96122060D01*
X121376740Y-96124465D01*
X121419718Y-96135500D01*
X121440065Y-96135500D01*
X121459777Y-96137051D01*
X121479879Y-96140235D01*
X121487771Y-96139489D01*
X121524056Y-96136059D01*
X121535914Y-96135500D01*
X142238500Y-96135500D01*
X142306621Y-96155502D01*
X142353114Y-96209158D01*
X142364500Y-96261500D01*
X142364500Y-98311739D01*
X142361443Y-98335943D01*
X142361406Y-98336037D01*
X142340729Y-98493096D01*
X142358113Y-98650553D01*
X142412553Y-98799319D01*
X142500908Y-98930805D01*
X142506527Y-98935918D01*
X142506528Y-98935919D01*
X142517903Y-98946269D01*
X142618076Y-99037419D01*
X142757293Y-99113008D01*
X142910522Y-99153207D01*
X142994477Y-99154526D01*
X143061319Y-99155576D01*
X143061322Y-99155576D01*
X143068916Y-99155695D01*
X143223332Y-99120329D01*
X143293742Y-99084917D01*
X143358072Y-99052563D01*
X143358075Y-99052561D01*
X143364855Y-99049151D01*
X143370626Y-99044222D01*
X143370629Y-99044220D01*
X143479536Y-98951204D01*
X143479536Y-98951203D01*
X143485314Y-98946269D01*
X143577755Y-98817624D01*
X143636842Y-98670641D01*
X143659162Y-98513807D01*
X143659307Y-98500000D01*
X143640276Y-98342733D01*
X143638744Y-98338679D01*
X143635500Y-98311867D01*
X143635500Y-96261500D01*
X143655502Y-96193379D01*
X143709158Y-96146886D01*
X143761500Y-96135500D01*
X143920980Y-96135500D01*
X143932214Y-96136030D01*
X143939719Y-96137708D01*
X144008012Y-96135562D01*
X144011969Y-96135500D01*
X144039983Y-96135500D01*
X144043908Y-96135004D01*
X144043909Y-96135004D01*
X144044004Y-96134992D01*
X144055849Y-96134059D01*
X144085670Y-96133122D01*
X144092282Y-96132914D01*
X144092283Y-96132914D01*
X144100205Y-96132665D01*
X144119749Y-96126987D01*
X144139112Y-96122977D01*
X144151440Y-96121420D01*
X144151442Y-96121420D01*
X144159299Y-96120427D01*
X144166663Y-96117511D01*
X144166668Y-96117510D01*
X144200556Y-96104093D01*
X144211785Y-96100248D01*
X144228465Y-96095402D01*
X144254393Y-96087869D01*
X144261220Y-96083831D01*
X144261223Y-96083830D01*
X144271906Y-96077512D01*
X144289664Y-96068812D01*
X144301215Y-96064239D01*
X144301221Y-96064235D01*
X144308588Y-96061319D01*
X144317977Y-96054498D01*
X144344488Y-96035236D01*
X144354410Y-96028719D01*
X144385768Y-96010174D01*
X144385772Y-96010171D01*
X144392598Y-96006134D01*
X144406982Y-95991750D01*
X144422016Y-95978909D01*
X144432073Y-95971602D01*
X144438487Y-95966942D01*
X144466778Y-95932744D01*
X144474767Y-95923965D01*
X146905636Y-93493096D01*
X148340729Y-93493096D01*
X148358113Y-93650553D01*
X148412553Y-93799319D01*
X148500908Y-93930805D01*
X148618076Y-94037419D01*
X148757293Y-94113008D01*
X148910522Y-94153207D01*
X148994477Y-94154526D01*
X149061319Y-94155576D01*
X149061322Y-94155576D01*
X149068916Y-94155695D01*
X149223332Y-94120329D01*
X149299227Y-94082158D01*
X149358072Y-94052563D01*
X149358075Y-94052561D01*
X149364855Y-94049151D01*
X149377103Y-94038690D01*
X149441892Y-94009658D01*
X149458935Y-94008500D01*
X156769501Y-94008500D01*
X156837622Y-94028502D01*
X156884115Y-94082158D01*
X156895501Y-94134500D01*
X156895501Y-94725066D01*
X156910266Y-94799301D01*
X156917161Y-94809620D01*
X156917162Y-94809622D01*
X156940466Y-94844498D01*
X156966516Y-94883484D01*
X157050699Y-94939734D01*
X157124933Y-94954500D01*
X157999858Y-94954500D01*
X158875066Y-94954499D01*
X158910818Y-94947388D01*
X158937126Y-94942156D01*
X158937128Y-94942155D01*
X158949301Y-94939734D01*
X158959621Y-94932839D01*
X158959622Y-94932838D01*
X159023168Y-94890377D01*
X159033484Y-94883484D01*
X159089734Y-94799301D01*
X159104500Y-94725067D01*
X159104499Y-92974934D01*
X159097388Y-92939182D01*
X159092156Y-92912874D01*
X159092155Y-92912872D01*
X159089734Y-92900699D01*
X159079595Y-92885524D01*
X159040377Y-92826832D01*
X159033484Y-92816516D01*
X158949301Y-92760266D01*
X158875067Y-92745500D01*
X158000142Y-92745500D01*
X157124934Y-92745501D01*
X157089182Y-92752612D01*
X157062874Y-92757844D01*
X157062872Y-92757845D01*
X157050699Y-92760266D01*
X157040379Y-92767161D01*
X157040378Y-92767162D01*
X156979985Y-92807516D01*
X156966516Y-92816516D01*
X156910266Y-92900699D01*
X156907845Y-92912871D01*
X156907494Y-92913718D01*
X156862945Y-92968999D01*
X156791085Y-92991500D01*
X149461178Y-92991500D01*
X149393057Y-92971498D01*
X149388279Y-92967869D01*
X149388187Y-92968001D01*
X149381946Y-92963664D01*
X149376275Y-92958611D01*
X149368889Y-92954700D01*
X149266899Y-92900699D01*
X149236274Y-92884484D01*
X149082633Y-92845892D01*
X149075034Y-92845852D01*
X149075033Y-92845852D01*
X149009181Y-92845507D01*
X148924221Y-92845062D01*
X148916841Y-92846834D01*
X148916839Y-92846834D01*
X148777563Y-92880271D01*
X148777560Y-92880272D01*
X148770184Y-92882043D01*
X148629414Y-92954700D01*
X148510039Y-93058838D01*
X148418950Y-93188444D01*
X148361406Y-93336037D01*
X148340729Y-93493096D01*
X146905636Y-93493096D01*
X148393477Y-92005255D01*
X148401803Y-91997678D01*
X148408303Y-91993553D01*
X148416104Y-91985246D01*
X148418457Y-91983864D01*
X148419838Y-91982721D01*
X148420022Y-91982944D01*
X148477317Y-91949281D01*
X148507953Y-91945500D01*
X157031297Y-91945500D01*
X157099418Y-91965502D01*
X157134194Y-91998780D01*
X157156533Y-92030389D01*
X157301938Y-92172035D01*
X157470720Y-92284812D01*
X157476023Y-92287090D01*
X157476026Y-92287092D01*
X157651921Y-92362662D01*
X157657228Y-92364942D01*
X157730244Y-92381464D01*
X157849579Y-92408467D01*
X157849584Y-92408468D01*
X157855216Y-92409742D01*
X157860987Y-92409969D01*
X157860989Y-92409969D01*
X157920756Y-92412317D01*
X158058053Y-92417712D01*
X158158499Y-92403148D01*
X158253231Y-92389413D01*
X158253236Y-92389412D01*
X158258945Y-92388584D01*
X158264409Y-92386729D01*
X158264414Y-92386728D01*
X158445693Y-92325192D01*
X158445698Y-92325190D01*
X158451165Y-92323334D01*
X158628276Y-92224147D01*
X158690934Y-92172035D01*
X158779913Y-92098031D01*
X158784345Y-92094345D01*
X158865086Y-91997265D01*
X158910453Y-91942718D01*
X158910455Y-91942715D01*
X158914147Y-91938276D01*
X159013334Y-91761165D01*
X159015190Y-91755698D01*
X159015192Y-91755693D01*
X159076728Y-91574414D01*
X159076729Y-91574409D01*
X159078584Y-91568945D01*
X159079412Y-91563236D01*
X159079413Y-91563231D01*
X159107179Y-91371727D01*
X159107712Y-91368053D01*
X159109232Y-91310000D01*
X159090658Y-91107859D01*
X159089090Y-91102299D01*
X159037125Y-90918046D01*
X159037124Y-90918044D01*
X159035557Y-90912487D01*
X159024978Y-90891033D01*
X158948331Y-90735609D01*
X158945776Y-90730428D01*
X158824320Y-90567779D01*
X158675258Y-90429987D01*
X158670375Y-90426906D01*
X158670371Y-90426903D01*
X158508464Y-90324748D01*
X158503581Y-90321667D01*
X158315039Y-90246446D01*
X158309379Y-90245320D01*
X158309375Y-90245319D01*
X158121613Y-90207971D01*
X158121610Y-90207971D01*
X158115946Y-90206844D01*
X158110171Y-90206768D01*
X158110167Y-90206768D01*
X158008793Y-90205441D01*
X157912971Y-90204187D01*
X157907274Y-90205166D01*
X157907273Y-90205166D01*
X157718607Y-90237585D01*
X157712910Y-90238564D01*
X157522463Y-90308824D01*
X157348010Y-90412612D01*
X157343670Y-90416418D01*
X157343666Y-90416421D01*
X157323723Y-90433911D01*
X157195392Y-90546455D01*
X157191817Y-90550990D01*
X157191816Y-90550991D01*
X157132285Y-90626506D01*
X157074404Y-90667619D01*
X157033335Y-90674500D01*
X148761500Y-90674500D01*
X148693379Y-90654498D01*
X148646886Y-90600842D01*
X148635500Y-90548500D01*
X148635500Y-82188711D01*
X148637861Y-82170786D01*
X148636842Y-82170641D01*
X148658581Y-82017891D01*
X148658581Y-82017888D01*
X148659162Y-82013807D01*
X148659307Y-82000000D01*
X148654959Y-81964065D01*
X148646586Y-81894875D01*
X148640276Y-81842733D01*
X148638744Y-81838679D01*
X148635500Y-81811867D01*
X148635500Y-79579032D01*
X148636030Y-79567793D01*
X148637709Y-79560281D01*
X148635562Y-79491969D01*
X148635500Y-79488012D01*
X148635500Y-79460017D01*
X148634992Y-79455994D01*
X148634059Y-79444152D01*
X148633314Y-79420428D01*
X148632665Y-79399795D01*
X148626987Y-79380251D01*
X148622977Y-79360888D01*
X148621420Y-79348560D01*
X148621420Y-79348558D01*
X148620427Y-79340701D01*
X148617511Y-79333337D01*
X148617510Y-79333332D01*
X148604093Y-79299444D01*
X148600248Y-79288215D01*
X148590081Y-79253222D01*
X148587869Y-79245607D01*
X148583830Y-79238777D01*
X148577512Y-79228094D01*
X148568812Y-79210336D01*
X148564239Y-79198785D01*
X148564235Y-79198779D01*
X148561319Y-79191412D01*
X148535234Y-79155509D01*
X148528719Y-79145590D01*
X148510174Y-79114232D01*
X148510171Y-79114228D01*
X148506134Y-79107402D01*
X148491750Y-79093018D01*
X148478909Y-79077984D01*
X148471602Y-79067927D01*
X148466942Y-79061513D01*
X148432744Y-79033222D01*
X148423965Y-79025233D01*
X146005250Y-76606517D01*
X145997674Y-76598191D01*
X145993553Y-76591697D01*
X145943734Y-76544914D01*
X145940893Y-76542160D01*
X145921094Y-76522361D01*
X145917969Y-76519937D01*
X145917960Y-76519929D01*
X145917874Y-76519863D01*
X145908849Y-76512155D01*
X145882285Y-76487210D01*
X145876506Y-76481783D01*
X145858669Y-76471977D01*
X145842153Y-76461127D01*
X145826067Y-76448650D01*
X145785334Y-76431024D01*
X145774686Y-76425807D01*
X145753309Y-76414055D01*
X145735803Y-76404431D01*
X145728128Y-76402460D01*
X145728122Y-76402458D01*
X145716089Y-76399369D01*
X145697387Y-76392966D01*
X145678708Y-76384883D01*
X145644872Y-76379524D01*
X145634873Y-76377940D01*
X145623260Y-76375535D01*
X145580282Y-76364500D01*
X145559935Y-76364500D01*
X145540224Y-76362949D01*
X145527950Y-76361005D01*
X145520121Y-76359765D01*
X145512229Y-76360511D01*
X145475944Y-76363941D01*
X145464086Y-76364500D01*
X142559935Y-76364500D01*
X142540224Y-76362949D01*
X142527950Y-76361005D01*
X142520121Y-76359765D01*
X142512229Y-76360511D01*
X142475944Y-76363941D01*
X142464086Y-76364500D01*
X132172298Y-76364500D01*
X132141602Y-76360704D01*
X132090002Y-76347743D01*
X132082633Y-76345892D01*
X132075034Y-76345852D01*
X132075033Y-76345852D01*
X132009181Y-76345507D01*
X131924221Y-76345062D01*
X131916841Y-76346834D01*
X131916839Y-76346834D01*
X131777563Y-76380271D01*
X131777560Y-76380272D01*
X131770184Y-76382043D01*
X131629414Y-76454700D01*
X131510039Y-76558838D01*
X131418950Y-76688444D01*
X131361406Y-76836037D01*
X131340729Y-76993096D01*
X131358113Y-77150553D01*
X131412553Y-77299319D01*
X131500908Y-77430805D01*
X131618076Y-77537419D01*
X131757293Y-77613008D01*
X131910522Y-77653207D01*
X131994477Y-77654526D01*
X132061319Y-77655576D01*
X132061322Y-77655576D01*
X132068916Y-77655695D01*
X132143208Y-77638680D01*
X132171337Y-77635500D01*
X141823500Y-77635500D01*
X141891621Y-77655502D01*
X141938114Y-77709158D01*
X141949500Y-77761500D01*
X141949500Y-79031060D01*
X141929498Y-79099181D01*
X141906578Y-79125792D01*
X141884003Y-79145590D01*
X141780392Y-79236455D01*
X141654720Y-79395869D01*
X141652031Y-79400980D01*
X141652029Y-79400983D01*
X141639073Y-79425609D01*
X141560203Y-79575515D01*
X141500007Y-79769378D01*
X141476148Y-79970964D01*
X141489424Y-80173522D01*
X141490845Y-80179118D01*
X141490846Y-80179123D01*
X141537971Y-80364674D01*
X141539392Y-80370269D01*
X141541809Y-80375512D01*
X141579010Y-80456208D01*
X141624377Y-80554616D01*
X141627710Y-80559332D01*
X141677449Y-80629711D01*
X141741533Y-80720389D01*
X141886938Y-80862035D01*
X141891742Y-80865245D01*
X141928831Y-80890027D01*
X142055720Y-80974812D01*
X142061023Y-80977090D01*
X142061026Y-80977092D01*
X142149707Y-81015192D01*
X142242228Y-81054942D01*
X142315244Y-81071464D01*
X142434579Y-81098467D01*
X142434584Y-81098468D01*
X142440216Y-81099742D01*
X142445987Y-81099969D01*
X142445989Y-81099969D01*
X142505756Y-81102317D01*
X142643053Y-81107712D01*
X142753596Y-81091684D01*
X142838231Y-81079413D01*
X142838236Y-81079412D01*
X142843945Y-81078584D01*
X142849409Y-81076729D01*
X142849414Y-81076728D01*
X143030693Y-81015192D01*
X143030698Y-81015190D01*
X143036165Y-81013334D01*
X143213276Y-80914147D01*
X143239510Y-80892329D01*
X143364913Y-80788031D01*
X143369345Y-80784345D01*
X143499147Y-80628276D01*
X143598334Y-80451165D01*
X143600190Y-80445698D01*
X143600192Y-80445693D01*
X143661728Y-80264414D01*
X143661729Y-80264409D01*
X143663584Y-80258945D01*
X143664412Y-80253236D01*
X143664413Y-80253231D01*
X143687347Y-80095053D01*
X143692712Y-80058053D01*
X143694232Y-80000000D01*
X143675658Y-79797859D01*
X143673058Y-79788640D01*
X143622125Y-79608046D01*
X143622124Y-79608044D01*
X143620557Y-79602487D01*
X143609978Y-79581033D01*
X143533331Y-79425609D01*
X143530776Y-79420428D01*
X143521287Y-79407720D01*
X143486315Y-79360888D01*
X143409320Y-79257779D01*
X143260971Y-79120646D01*
X143224526Y-79059718D01*
X143220500Y-79028122D01*
X143220500Y-77761500D01*
X143240502Y-77693379D01*
X143294158Y-77646886D01*
X143346500Y-77635500D01*
X145184578Y-77635500D01*
X145252699Y-77655502D01*
X145273673Y-77672405D01*
X147327595Y-79726328D01*
X147361621Y-79788640D01*
X147364500Y-79815423D01*
X147364500Y-81811739D01*
X147361443Y-81835943D01*
X147361406Y-81836037D01*
X147360414Y-81843570D01*
X147360414Y-81843571D01*
X147344604Y-81963664D01*
X147340729Y-81993096D01*
X147358113Y-82150553D01*
X147360722Y-82157682D01*
X147361171Y-82159597D01*
X147364500Y-82188368D01*
X147364500Y-91184577D01*
X147344498Y-91252698D01*
X147327595Y-91273672D01*
X143773672Y-94827595D01*
X143711360Y-94861621D01*
X143684577Y-94864500D01*
X143071983Y-94864500D01*
X143048374Y-94862268D01*
X143048009Y-94862198D01*
X143048004Y-94862198D01*
X143040221Y-94860713D01*
X142983987Y-94864251D01*
X142976075Y-94864500D01*
X121844756Y-94864500D01*
X121776635Y-94844498D01*
X121750240Y-94821823D01*
X121748856Y-94820253D01*
X121744553Y-94813992D01*
X121626275Y-94708611D01*
X121619563Y-94705057D01*
X121619557Y-94705053D01*
X121602781Y-94696171D01*
X121572645Y-94673912D01*
X118131372Y-91232639D01*
X118097346Y-91170327D01*
X118094998Y-91155091D01*
X118090658Y-91107859D01*
X118089090Y-91102299D01*
X118037125Y-90918046D01*
X118037124Y-90918044D01*
X118035557Y-90912487D01*
X118024978Y-90891033D01*
X117948331Y-90735609D01*
X117945776Y-90730428D01*
X117824320Y-90567779D01*
X117675258Y-90429987D01*
X117670375Y-90426906D01*
X117670371Y-90426903D01*
X117508464Y-90324748D01*
X117503581Y-90321667D01*
X117315039Y-90246446D01*
X117309379Y-90245320D01*
X117309375Y-90245319D01*
X117121613Y-90207971D01*
X117121610Y-90207971D01*
X117115946Y-90206844D01*
X117110171Y-90206768D01*
X117110167Y-90206768D01*
X117008793Y-90205441D01*
X116912971Y-90204187D01*
X116907274Y-90205166D01*
X116907273Y-90205166D01*
X116718607Y-90237585D01*
X116712910Y-90238564D01*
X116522463Y-90308824D01*
X116348010Y-90412612D01*
X116343670Y-90416418D01*
X116343666Y-90416421D01*
X116323723Y-90433911D01*
X116195392Y-90546455D01*
X116069720Y-90705869D01*
X116067031Y-90710980D01*
X116067029Y-90710983D01*
X116054073Y-90735609D01*
X115975203Y-90885515D01*
X115915007Y-91079378D01*
X115891148Y-91280964D01*
X115254500Y-91280964D01*
X115254500Y-88740964D01*
X115891148Y-88740964D01*
X115891526Y-88746730D01*
X115903901Y-88935535D01*
X115904424Y-88943522D01*
X115905845Y-88949118D01*
X115905846Y-88949123D01*
X115943361Y-89096834D01*
X115954392Y-89140269D01*
X115956809Y-89145512D01*
X115994010Y-89226208D01*
X116039377Y-89324616D01*
X116156533Y-89490389D01*
X116301938Y-89632035D01*
X116470720Y-89744812D01*
X116476023Y-89747090D01*
X116476026Y-89747092D01*
X116564707Y-89785192D01*
X116657228Y-89824942D01*
X116730244Y-89841464D01*
X116849579Y-89868467D01*
X116849584Y-89868468D01*
X116855216Y-89869742D01*
X116860987Y-89869969D01*
X116860989Y-89869969D01*
X116920756Y-89872317D01*
X117058053Y-89877712D01*
X117158499Y-89863148D01*
X117253231Y-89849413D01*
X117253236Y-89849412D01*
X117258945Y-89848584D01*
X117264409Y-89846729D01*
X117264414Y-89846728D01*
X117445693Y-89785192D01*
X117445698Y-89785190D01*
X117451165Y-89783334D01*
X117628276Y-89684147D01*
X117690934Y-89632035D01*
X117779913Y-89558031D01*
X117784345Y-89554345D01*
X117874851Y-89445524D01*
X117910453Y-89402718D01*
X117910455Y-89402715D01*
X117914147Y-89398276D01*
X118013334Y-89221165D01*
X118015190Y-89215698D01*
X118015192Y-89215693D01*
X118076728Y-89034414D01*
X118076729Y-89034409D01*
X118078584Y-89028945D01*
X118079412Y-89023236D01*
X118079413Y-89023231D01*
X118107179Y-88831727D01*
X118107712Y-88828053D01*
X118109232Y-88770000D01*
X118090658Y-88567859D01*
X118089090Y-88562299D01*
X118037125Y-88378046D01*
X118037124Y-88378044D01*
X118035557Y-88372487D01*
X118033003Y-88367307D01*
X118030932Y-88361913D01*
X118033422Y-88360957D01*
X118023243Y-88302083D01*
X118050890Y-88236691D01*
X118059324Y-88227371D01*
X120346179Y-85940516D01*
X120408491Y-85906490D01*
X120437253Y-85903627D01*
X120561318Y-85905576D01*
X120561321Y-85905576D01*
X120568916Y-85905695D01*
X120723332Y-85870329D01*
X120830108Y-85816627D01*
X120858072Y-85802563D01*
X120858075Y-85802561D01*
X120864855Y-85799151D01*
X120870626Y-85794222D01*
X120870629Y-85794220D01*
X120979536Y-85701204D01*
X120979536Y-85701203D01*
X120985314Y-85696269D01*
X121077755Y-85567624D01*
X121136842Y-85420641D01*
X121149370Y-85332612D01*
X121158581Y-85267891D01*
X121158581Y-85267888D01*
X121159162Y-85263807D01*
X121159307Y-85250000D01*
X121158672Y-85244748D01*
X121149060Y-85165319D01*
X121140276Y-85092733D01*
X121084280Y-84944546D01*
X121070864Y-84925025D01*
X120998855Y-84820251D01*
X120998854Y-84820249D01*
X120994553Y-84813992D01*
X120921681Y-84749065D01*
X120884126Y-84688816D01*
X120879500Y-84654989D01*
X120879500Y-83105338D01*
X120899502Y-83037217D01*
X120953158Y-82990724D01*
X121023432Y-82980620D01*
X121090299Y-83012144D01*
X121118076Y-83037419D01*
X121257293Y-83113008D01*
X121410522Y-83153207D01*
X121494477Y-83154526D01*
X121561319Y-83155576D01*
X121561322Y-83155576D01*
X121568916Y-83155695D01*
X121723332Y-83120329D01*
X121800870Y-83081332D01*
X121858072Y-83052563D01*
X121858075Y-83052561D01*
X121864855Y-83049151D01*
X121870626Y-83044222D01*
X121870629Y-83044220D01*
X121979542Y-82951199D01*
X121979543Y-82951198D01*
X121985314Y-82946269D01*
X121989745Y-82940103D01*
X121994150Y-82933973D01*
X122050145Y-82890326D01*
X122096472Y-82881500D01*
X127842113Y-82881500D01*
X127910234Y-82901502D01*
X127956727Y-82955158D01*
X127966831Y-83025432D01*
X127945200Y-83079951D01*
X127873319Y-83182227D01*
X127868950Y-83188444D01*
X127840927Y-83260319D01*
X127823392Y-83305294D01*
X127780011Y-83361495D01*
X127713132Y-83385322D01*
X127675304Y-83381728D01*
X127540004Y-83347743D01*
X127540000Y-83347743D01*
X127532633Y-83345892D01*
X127525034Y-83345852D01*
X127525033Y-83345852D01*
X127459181Y-83345507D01*
X127374221Y-83345062D01*
X127366841Y-83346834D01*
X127366839Y-83346834D01*
X127227563Y-83380271D01*
X127227560Y-83380272D01*
X127220184Y-83382043D01*
X127079414Y-83454700D01*
X127035904Y-83492657D01*
X127034904Y-83493529D01*
X126970422Y-83523237D01*
X126900115Y-83513368D01*
X126868255Y-83492657D01*
X126830903Y-83459378D01*
X126795493Y-83427829D01*
X126788107Y-83423918D01*
X126715593Y-83385524D01*
X126655492Y-83353702D01*
X126501851Y-83315110D01*
X126494252Y-83315070D01*
X126494251Y-83315070D01*
X126428399Y-83314725D01*
X126343439Y-83314280D01*
X126336059Y-83316052D01*
X126336057Y-83316052D01*
X126196781Y-83349489D01*
X126196778Y-83349490D01*
X126189402Y-83351261D01*
X126048632Y-83423918D01*
X125929257Y-83528056D01*
X125924890Y-83534269D01*
X125924885Y-83534275D01*
X125923554Y-83536169D01*
X125922231Y-83537223D01*
X125919807Y-83539915D01*
X125919358Y-83539511D01*
X125868020Y-83580401D01*
X125820468Y-83589718D01*
X125309707Y-83589718D01*
X125285749Y-83587168D01*
X125284090Y-83587090D01*
X125273906Y-83584897D01*
X125263564Y-83586121D01*
X125263561Y-83586121D01*
X125240561Y-83588844D01*
X125234630Y-83589194D01*
X125234638Y-83589290D01*
X125229462Y-83589718D01*
X125224258Y-83589718D01*
X125205194Y-83592891D01*
X125199348Y-83593722D01*
X125187899Y-83595077D01*
X125148441Y-83599748D01*
X125140189Y-83603711D01*
X125131156Y-83605214D01*
X125121987Y-83610161D01*
X125121985Y-83610162D01*
X125086050Y-83629552D01*
X125080758Y-83632249D01*
X125034550Y-83654437D01*
X125030275Y-83658031D01*
X125028350Y-83659956D01*
X125026420Y-83661727D01*
X125026335Y-83661773D01*
X125026223Y-83661650D01*
X125025688Y-83662122D01*
X125019968Y-83665208D01*
X125012901Y-83672853D01*
X124983366Y-83704804D01*
X124979936Y-83708370D01*
X124209697Y-84478609D01*
X124147385Y-84512635D01*
X124120602Y-84515514D01*
X123200000Y-84515514D01*
X123100699Y-84535266D01*
X123016516Y-84591516D01*
X122960266Y-84675699D01*
X122940514Y-84775000D01*
X122940514Y-85775000D01*
X122945553Y-85825889D01*
X122984396Y-85919388D01*
X123056063Y-85990905D01*
X123806063Y-86490905D01*
X123899111Y-86529447D01*
X123911487Y-86529460D01*
X123979684Y-86529531D01*
X124000357Y-86529553D01*
X124093937Y-86490905D01*
X124099090Y-86487470D01*
X124841352Y-85992629D01*
X124841361Y-85992622D01*
X124843937Y-85990905D01*
X124883484Y-85958484D01*
X124903593Y-85928390D01*
X124932839Y-85884620D01*
X124939734Y-85874301D01*
X124959486Y-85775000D01*
X124959486Y-84854398D01*
X124979488Y-84786277D01*
X124996391Y-84765303D01*
X125376071Y-84385623D01*
X125438383Y-84351597D01*
X125465166Y-84348718D01*
X125819359Y-84348718D01*
X125887480Y-84368720D01*
X125914740Y-84392387D01*
X125915890Y-84393719D01*
X125920126Y-84400023D01*
X125925743Y-84405134D01*
X125979412Y-84453969D01*
X126016335Y-84514610D01*
X126014612Y-84585585D01*
X125999377Y-84617166D01*
X125960266Y-84675699D01*
X125940514Y-84775000D01*
X125940514Y-85775000D01*
X125945553Y-85825889D01*
X125984396Y-85919388D01*
X126056063Y-85990905D01*
X126806063Y-86490905D01*
X126899111Y-86529447D01*
X126911487Y-86529460D01*
X126979684Y-86529531D01*
X127000357Y-86529553D01*
X127093937Y-86490905D01*
X127099090Y-86487470D01*
X127841352Y-85992629D01*
X127841361Y-85992622D01*
X127843937Y-85990905D01*
X127883484Y-85958484D01*
X127903593Y-85928390D01*
X127932839Y-85884620D01*
X127939734Y-85874301D01*
X127959486Y-85775000D01*
X127959486Y-84775000D01*
X127939734Y-84675699D01*
X127917545Y-84642491D01*
X127902732Y-84620322D01*
X127881517Y-84552569D01*
X127900300Y-84484102D01*
X127925668Y-84454508D01*
X127929533Y-84451207D01*
X127929535Y-84451204D01*
X127935314Y-84446269D01*
X128027755Y-84317624D01*
X128077858Y-84192989D01*
X128121825Y-84137245D01*
X128188949Y-84114120D01*
X128226738Y-84118110D01*
X128353171Y-84151279D01*
X128353175Y-84151280D01*
X128360522Y-84153207D01*
X128455006Y-84154691D01*
X128518771Y-84155693D01*
X128586569Y-84176762D01*
X128605887Y-84192582D01*
X128940293Y-84526988D01*
X128974319Y-84589300D01*
X128967607Y-84664301D01*
X128967160Y-84665380D01*
X128960265Y-84675699D01*
X128940513Y-84775000D01*
X128940513Y-85775000D01*
X128945552Y-85825889D01*
X128984395Y-85919388D01*
X129056062Y-85990905D01*
X129806062Y-86490905D01*
X129899110Y-86529447D01*
X129911486Y-86529460D01*
X129979683Y-86529531D01*
X130000356Y-86529553D01*
X130093936Y-86490905D01*
X130099089Y-86487470D01*
X130841351Y-85992629D01*
X130841360Y-85992622D01*
X130843936Y-85990905D01*
X130883483Y-85958484D01*
X130888655Y-85950744D01*
X130894910Y-85943846D01*
X130896217Y-85945031D01*
X130942217Y-85906591D01*
X131012660Y-85897746D01*
X131076703Y-85928390D01*
X131114012Y-85988793D01*
X131118500Y-86022123D01*
X131118500Y-88539787D01*
X131098498Y-88607908D01*
X131081595Y-88628882D01*
X130378882Y-89331595D01*
X130316570Y-89365621D01*
X130289787Y-89368500D01*
X127098283Y-89368500D01*
X127030162Y-89348498D01*
X127003768Y-89325824D01*
X126998854Y-89320250D01*
X126994553Y-89313992D01*
X126876275Y-89208611D01*
X126868889Y-89204700D01*
X126742988Y-89138039D01*
X126742989Y-89138039D01*
X126736274Y-89134484D01*
X126582633Y-89095892D01*
X126575034Y-89095852D01*
X126575033Y-89095852D01*
X126509181Y-89095507D01*
X126424221Y-89095062D01*
X126416841Y-89096834D01*
X126416839Y-89096834D01*
X126277563Y-89130271D01*
X126277560Y-89130272D01*
X126270184Y-89132043D01*
X126129414Y-89204700D01*
X126010039Y-89308838D01*
X125918950Y-89438444D01*
X125861406Y-89586037D01*
X125860414Y-89593570D01*
X125860414Y-89593571D01*
X125848118Y-89686972D01*
X125840729Y-89743096D01*
X125845377Y-89785192D01*
X125855500Y-89876883D01*
X125858113Y-89900553D01*
X125860723Y-89907684D01*
X125860723Y-89907686D01*
X125900284Y-90015791D01*
X125912553Y-90049319D01*
X125916789Y-90055622D01*
X125916789Y-90055623D01*
X125970210Y-90135121D01*
X126000908Y-90180805D01*
X126006527Y-90185918D01*
X126006528Y-90185919D01*
X126030763Y-90207971D01*
X126118076Y-90287419D01*
X126257293Y-90363008D01*
X126410522Y-90403207D01*
X126494477Y-90404526D01*
X126561319Y-90405576D01*
X126561322Y-90405576D01*
X126568916Y-90405695D01*
X126723332Y-90370329D01*
X126820087Y-90321667D01*
X126858072Y-90302563D01*
X126858075Y-90302561D01*
X126864855Y-90299151D01*
X126870626Y-90294222D01*
X126870629Y-90294220D01*
X126979542Y-90201199D01*
X126979543Y-90201198D01*
X126985314Y-90196269D01*
X126989745Y-90190103D01*
X126994150Y-90183973D01*
X127050145Y-90140326D01*
X127096472Y-90131500D01*
X130445865Y-90131500D01*
X130470164Y-90134086D01*
X130471602Y-90134154D01*
X130481780Y-90136345D01*
X130515341Y-90132373D01*
X130521320Y-90132021D01*
X130521312Y-90131928D01*
X130526490Y-90131500D01*
X130531692Y-90131500D01*
X130550846Y-90128312D01*
X130556704Y-90127478D01*
X130573318Y-90125512D01*
X130597567Y-90122642D01*
X130597568Y-90122642D01*
X130607907Y-90121418D01*
X130616206Y-90117433D01*
X130625283Y-90115922D01*
X130670651Y-90091442D01*
X130675914Y-90088761D01*
X130715250Y-90069873D01*
X130715254Y-90069870D01*
X130722398Y-90066440D01*
X130726692Y-90062830D01*
X130728624Y-90060898D01*
X130730573Y-90059111D01*
X130730626Y-90059082D01*
X130730745Y-90059212D01*
X130731313Y-90058711D01*
X130737057Y-90055612D01*
X130773868Y-90015790D01*
X130777297Y-90012225D01*
X131731476Y-89058046D01*
X131750499Y-89042682D01*
X131751558Y-89041718D01*
X131760304Y-89036071D01*
X131766752Y-89027892D01*
X131766754Y-89027890D01*
X131781234Y-89009523D01*
X131785209Y-89005050D01*
X131785137Y-89004989D01*
X131788490Y-89001032D01*
X131792171Y-88997351D01*
X131803455Y-88981560D01*
X131807019Y-88976814D01*
X131832487Y-88944508D01*
X131838934Y-88936330D01*
X131841984Y-88927645D01*
X131847335Y-88920157D01*
X131862110Y-88870750D01*
X131863926Y-88865163D01*
X131881016Y-88816498D01*
X131881500Y-88810909D01*
X131881500Y-88808198D01*
X131881615Y-88805529D01*
X131881634Y-88805468D01*
X131881808Y-88805475D01*
X131881855Y-88804728D01*
X131883725Y-88798475D01*
X131881597Y-88744311D01*
X131881500Y-88739365D01*
X131881500Y-82554140D01*
X131884087Y-82529824D01*
X131884154Y-82528401D01*
X131886346Y-82518220D01*
X131882373Y-82484652D01*
X131882021Y-82478678D01*
X131881928Y-82478686D01*
X131881500Y-82473508D01*
X131881500Y-82468308D01*
X131880646Y-82463176D01*
X131878314Y-82449165D01*
X131877477Y-82443286D01*
X131872642Y-82402433D01*
X131872642Y-82402432D01*
X131871418Y-82392093D01*
X131867433Y-82383794D01*
X131865922Y-82374717D01*
X131841442Y-82329349D01*
X131838761Y-82324086D01*
X131819873Y-82284750D01*
X131819870Y-82284746D01*
X131816440Y-82277602D01*
X131812830Y-82273308D01*
X131810898Y-82271376D01*
X131809111Y-82269427D01*
X131809082Y-82269374D01*
X131809212Y-82269255D01*
X131808711Y-82268687D01*
X131805612Y-82262943D01*
X131765791Y-82226133D01*
X131762226Y-82222704D01*
X130497352Y-80957829D01*
X130408351Y-80868828D01*
X131321001Y-80868828D01*
X131322209Y-80881088D01*
X131333315Y-80936931D01*
X131342633Y-80959427D01*
X131384983Y-81022808D01*
X131402192Y-81040017D01*
X131465575Y-81082368D01*
X131488066Y-81091684D01*
X131543915Y-81102793D01*
X131556170Y-81104000D01*
X132150885Y-81104000D01*
X132166124Y-81099525D01*
X132167329Y-81098135D01*
X132169000Y-81090452D01*
X132169000Y-81085884D01*
X132681000Y-81085884D01*
X132685475Y-81101123D01*
X132686865Y-81102328D01*
X132694548Y-81103999D01*
X133293828Y-81103999D01*
X133306088Y-81102791D01*
X133361931Y-81091685D01*
X133384427Y-81082367D01*
X133447808Y-81040017D01*
X133465017Y-81022808D01*
X133507368Y-80959425D01*
X133516684Y-80936934D01*
X133527793Y-80881085D01*
X133529000Y-80868830D01*
X133529000Y-80274115D01*
X133524525Y-80258876D01*
X133523135Y-80257671D01*
X133515452Y-80256000D01*
X132699115Y-80256000D01*
X132683876Y-80260475D01*
X132682671Y-80261865D01*
X132681000Y-80269548D01*
X132681000Y-81085884D01*
X132169000Y-81085884D01*
X132169000Y-80274115D01*
X132164525Y-80258876D01*
X132163135Y-80257671D01*
X132155452Y-80256000D01*
X131339116Y-80256000D01*
X131323877Y-80260475D01*
X131322672Y-80261865D01*
X131321001Y-80269548D01*
X131321001Y-80868828D01*
X130408351Y-80868828D01*
X129510487Y-79970964D01*
X133856148Y-79970964D01*
X133869424Y-80173522D01*
X133870845Y-80179118D01*
X133870846Y-80179123D01*
X133917971Y-80364674D01*
X133919392Y-80370269D01*
X133921809Y-80375512D01*
X133959010Y-80456208D01*
X134004377Y-80554616D01*
X134007710Y-80559332D01*
X134057449Y-80629711D01*
X134121533Y-80720389D01*
X134266938Y-80862035D01*
X134271742Y-80865245D01*
X134308831Y-80890027D01*
X134435720Y-80974812D01*
X134441023Y-80977090D01*
X134441026Y-80977092D01*
X134529707Y-81015192D01*
X134622228Y-81054942D01*
X134695244Y-81071464D01*
X134814579Y-81098467D01*
X134814584Y-81098468D01*
X134820216Y-81099742D01*
X134825987Y-81099969D01*
X134825989Y-81099969D01*
X134885756Y-81102317D01*
X135023053Y-81107712D01*
X135133596Y-81091684D01*
X135218231Y-81079413D01*
X135218236Y-81079412D01*
X135223945Y-81078584D01*
X135229409Y-81076729D01*
X135229414Y-81076728D01*
X135410693Y-81015192D01*
X135410698Y-81015190D01*
X135416165Y-81013334D01*
X135593276Y-80914147D01*
X135619510Y-80892329D01*
X135744913Y-80788031D01*
X135749345Y-80784345D01*
X135879147Y-80628276D01*
X135978334Y-80451165D01*
X135980190Y-80445698D01*
X135980192Y-80445693D01*
X136041728Y-80264414D01*
X136041729Y-80264409D01*
X136043584Y-80258945D01*
X136044412Y-80253236D01*
X136044413Y-80253231D01*
X136067347Y-80095053D01*
X136072712Y-80058053D01*
X136074232Y-80000000D01*
X136071564Y-79970964D01*
X136396148Y-79970964D01*
X136409424Y-80173522D01*
X136410845Y-80179118D01*
X136410846Y-80179123D01*
X136457971Y-80364674D01*
X136459392Y-80370269D01*
X136461809Y-80375512D01*
X136499010Y-80456208D01*
X136544377Y-80554616D01*
X136547710Y-80559332D01*
X136597449Y-80629711D01*
X136661533Y-80720389D01*
X136806938Y-80862035D01*
X136811742Y-80865245D01*
X136848831Y-80890027D01*
X136975720Y-80974812D01*
X136981023Y-80977090D01*
X136981026Y-80977092D01*
X137069707Y-81015192D01*
X137162228Y-81054942D01*
X137235244Y-81071464D01*
X137354579Y-81098467D01*
X137354584Y-81098468D01*
X137360216Y-81099742D01*
X137365987Y-81099969D01*
X137365989Y-81099969D01*
X137425756Y-81102317D01*
X137563053Y-81107712D01*
X137673596Y-81091684D01*
X137758231Y-81079413D01*
X137758236Y-81079412D01*
X137763945Y-81078584D01*
X137769409Y-81076729D01*
X137769414Y-81076728D01*
X137950693Y-81015192D01*
X137950698Y-81015190D01*
X137956165Y-81013334D01*
X138133276Y-80914147D01*
X138159510Y-80892329D01*
X138284913Y-80788031D01*
X138289345Y-80784345D01*
X138419147Y-80628276D01*
X138518334Y-80451165D01*
X138520190Y-80445698D01*
X138520192Y-80445693D01*
X138581728Y-80264414D01*
X138581729Y-80264409D01*
X138583584Y-80258945D01*
X138584412Y-80253236D01*
X138584413Y-80253231D01*
X138607347Y-80095053D01*
X138612712Y-80058053D01*
X138614232Y-80000000D01*
X138611564Y-79970964D01*
X138936148Y-79970964D01*
X138949424Y-80173522D01*
X138950845Y-80179118D01*
X138950846Y-80179123D01*
X138997971Y-80364674D01*
X138999392Y-80370269D01*
X139001809Y-80375512D01*
X139039010Y-80456208D01*
X139084377Y-80554616D01*
X139087710Y-80559332D01*
X139137449Y-80629711D01*
X139201533Y-80720389D01*
X139346938Y-80862035D01*
X139351742Y-80865245D01*
X139388831Y-80890027D01*
X139515720Y-80974812D01*
X139521023Y-80977090D01*
X139521026Y-80977092D01*
X139609707Y-81015192D01*
X139702228Y-81054942D01*
X139775244Y-81071464D01*
X139894579Y-81098467D01*
X139894584Y-81098468D01*
X139900216Y-81099742D01*
X139905987Y-81099969D01*
X139905989Y-81099969D01*
X139965756Y-81102317D01*
X140103053Y-81107712D01*
X140213596Y-81091684D01*
X140298231Y-81079413D01*
X140298236Y-81079412D01*
X140303945Y-81078584D01*
X140309409Y-81076729D01*
X140309414Y-81076728D01*
X140490693Y-81015192D01*
X140490698Y-81015190D01*
X140496165Y-81013334D01*
X140673276Y-80914147D01*
X140699510Y-80892329D01*
X140824913Y-80788031D01*
X140829345Y-80784345D01*
X140959147Y-80628276D01*
X141058334Y-80451165D01*
X141060190Y-80445698D01*
X141060192Y-80445693D01*
X141121728Y-80264414D01*
X141121729Y-80264409D01*
X141123584Y-80258945D01*
X141124412Y-80253236D01*
X141124413Y-80253231D01*
X141147347Y-80095053D01*
X141152712Y-80058053D01*
X141154232Y-80000000D01*
X141135658Y-79797859D01*
X141133058Y-79788640D01*
X141082125Y-79608046D01*
X141082124Y-79608044D01*
X141080557Y-79602487D01*
X141069978Y-79581033D01*
X140993331Y-79425609D01*
X140990776Y-79420428D01*
X140981287Y-79407720D01*
X140946315Y-79360888D01*
X140869320Y-79257779D01*
X140720258Y-79119987D01*
X140715375Y-79116906D01*
X140715371Y-79116903D01*
X140553464Y-79014748D01*
X140548581Y-79011667D01*
X140360039Y-78936446D01*
X140354379Y-78935320D01*
X140354375Y-78935319D01*
X140166613Y-78897971D01*
X140166610Y-78897971D01*
X140160946Y-78896844D01*
X140155171Y-78896768D01*
X140155167Y-78896768D01*
X140053793Y-78895441D01*
X139957971Y-78894187D01*
X139952274Y-78895166D01*
X139952273Y-78895166D01*
X139821530Y-78917632D01*
X139757910Y-78928564D01*
X139567463Y-78998824D01*
X139393010Y-79102612D01*
X139388670Y-79106418D01*
X139388666Y-79106421D01*
X139332689Y-79155512D01*
X139240392Y-79236455D01*
X139114720Y-79395869D01*
X139112031Y-79400980D01*
X139112029Y-79400983D01*
X139099073Y-79425609D01*
X139020203Y-79575515D01*
X138960007Y-79769378D01*
X138936148Y-79970964D01*
X138611564Y-79970964D01*
X138595658Y-79797859D01*
X138593058Y-79788640D01*
X138542125Y-79608046D01*
X138542124Y-79608044D01*
X138540557Y-79602487D01*
X138529978Y-79581033D01*
X138453331Y-79425609D01*
X138450776Y-79420428D01*
X138441287Y-79407720D01*
X138406315Y-79360888D01*
X138329320Y-79257779D01*
X138180258Y-79119987D01*
X138175375Y-79116906D01*
X138175371Y-79116903D01*
X138013464Y-79014748D01*
X138008581Y-79011667D01*
X137820039Y-78936446D01*
X137814379Y-78935320D01*
X137814375Y-78935319D01*
X137626613Y-78897971D01*
X137626610Y-78897971D01*
X137620946Y-78896844D01*
X137615171Y-78896768D01*
X137615167Y-78896768D01*
X137513793Y-78895441D01*
X137417971Y-78894187D01*
X137412274Y-78895166D01*
X137412273Y-78895166D01*
X137281530Y-78917632D01*
X137217910Y-78928564D01*
X137027463Y-78998824D01*
X136853010Y-79102612D01*
X136848670Y-79106418D01*
X136848666Y-79106421D01*
X136792689Y-79155512D01*
X136700392Y-79236455D01*
X136574720Y-79395869D01*
X136572031Y-79400980D01*
X136572029Y-79400983D01*
X136559073Y-79425609D01*
X136480203Y-79575515D01*
X136420007Y-79769378D01*
X136396148Y-79970964D01*
X136071564Y-79970964D01*
X136055658Y-79797859D01*
X136053058Y-79788640D01*
X136002125Y-79608046D01*
X136002124Y-79608044D01*
X136000557Y-79602487D01*
X135989978Y-79581033D01*
X135913331Y-79425609D01*
X135910776Y-79420428D01*
X135901287Y-79407720D01*
X135866315Y-79360888D01*
X135789320Y-79257779D01*
X135640258Y-79119987D01*
X135635375Y-79116906D01*
X135635371Y-79116903D01*
X135473464Y-79014748D01*
X135468581Y-79011667D01*
X135280039Y-78936446D01*
X135274379Y-78935320D01*
X135274375Y-78935319D01*
X135086613Y-78897971D01*
X135086610Y-78897971D01*
X135080946Y-78896844D01*
X135075171Y-78896768D01*
X135075167Y-78896768D01*
X134973793Y-78895441D01*
X134877971Y-78894187D01*
X134872274Y-78895166D01*
X134872273Y-78895166D01*
X134741530Y-78917632D01*
X134677910Y-78928564D01*
X134487463Y-78998824D01*
X134313010Y-79102612D01*
X134308670Y-79106418D01*
X134308666Y-79106421D01*
X134252689Y-79155512D01*
X134160392Y-79236455D01*
X134034720Y-79395869D01*
X134032031Y-79400980D01*
X134032029Y-79400983D01*
X134019073Y-79425609D01*
X133940203Y-79575515D01*
X133880007Y-79769378D01*
X133856148Y-79970964D01*
X129510487Y-79970964D01*
X129265408Y-79725885D01*
X131321000Y-79725885D01*
X131325475Y-79741124D01*
X131326865Y-79742329D01*
X131334548Y-79744000D01*
X132150885Y-79744000D01*
X132166124Y-79739525D01*
X132167329Y-79738135D01*
X132169000Y-79730452D01*
X132169000Y-79725885D01*
X132681000Y-79725885D01*
X132685475Y-79741124D01*
X132686865Y-79742329D01*
X132694548Y-79744000D01*
X133510884Y-79744000D01*
X133526123Y-79739525D01*
X133527328Y-79738135D01*
X133528999Y-79730452D01*
X133528999Y-79131172D01*
X133527791Y-79118912D01*
X133516685Y-79063069D01*
X133507367Y-79040573D01*
X133465017Y-78977192D01*
X133447808Y-78959983D01*
X133384425Y-78917632D01*
X133361934Y-78908316D01*
X133306085Y-78897207D01*
X133293830Y-78896000D01*
X132699115Y-78896000D01*
X132683876Y-78900475D01*
X132682671Y-78901865D01*
X132681000Y-78909548D01*
X132681000Y-79725885D01*
X132169000Y-79725885D01*
X132169000Y-78914116D01*
X132164525Y-78898877D01*
X132163135Y-78897672D01*
X132155452Y-78896001D01*
X131556172Y-78896001D01*
X131543912Y-78897209D01*
X131488069Y-78908315D01*
X131465573Y-78917633D01*
X131402192Y-78959983D01*
X131384983Y-78977192D01*
X131342632Y-79040575D01*
X131333316Y-79063066D01*
X131322207Y-79118915D01*
X131321000Y-79131170D01*
X131321000Y-79725885D01*
X129265408Y-79725885D01*
X127664330Y-78124807D01*
X127635559Y-78080250D01*
X127586964Y-77951649D01*
X127584280Y-77944546D01*
X127494553Y-77813992D01*
X127376275Y-77708611D01*
X127368889Y-77704700D01*
X127242988Y-77638039D01*
X127242989Y-77638039D01*
X127236274Y-77634484D01*
X127082633Y-77595892D01*
X127075034Y-77595852D01*
X127075033Y-77595852D01*
X127009181Y-77595507D01*
X126924221Y-77595062D01*
X126916841Y-77596834D01*
X126916839Y-77596834D01*
X126777563Y-77630271D01*
X126777560Y-77630272D01*
X126770184Y-77632043D01*
X126629414Y-77704700D01*
X126510039Y-77808838D01*
X126418950Y-77938444D01*
X126361406Y-78086037D01*
X126340729Y-78243096D01*
X126358113Y-78400553D01*
X126412553Y-78549319D01*
X126500908Y-78680805D01*
X126618076Y-78787419D01*
X126757293Y-78863008D01*
X126910522Y-78903207D01*
X126994477Y-78904526D01*
X127061319Y-78905576D01*
X127061322Y-78905576D01*
X127068916Y-78905695D01*
X127223332Y-78870329D01*
X127227605Y-78868180D01*
X127297275Y-78863995D01*
X127358185Y-78897707D01*
X129937170Y-81476692D01*
X131081595Y-82621118D01*
X131115621Y-82683430D01*
X131118500Y-82710213D01*
X131118500Y-84527877D01*
X131098498Y-84595998D01*
X131044842Y-84642491D01*
X130974568Y-84652595D01*
X130909988Y-84623101D01*
X130897566Y-84609022D01*
X130890376Y-84601832D01*
X130883483Y-84591516D01*
X130799300Y-84535266D01*
X130699999Y-84515514D01*
X130054397Y-84515514D01*
X129986276Y-84495512D01*
X129965302Y-84478609D01*
X129140143Y-83653450D01*
X129106117Y-83591138D01*
X129104495Y-83546603D01*
X129108581Y-83517894D01*
X129108582Y-83517884D01*
X129109162Y-83513807D01*
X129109307Y-83500000D01*
X129108419Y-83492657D01*
X129100704Y-83428907D01*
X129090276Y-83342733D01*
X129057710Y-83256550D01*
X129052342Y-83185760D01*
X129086099Y-83123302D01*
X129148264Y-83089010D01*
X129219101Y-83093770D01*
X129235697Y-83101283D01*
X129250617Y-83109384D01*
X129250620Y-83109385D01*
X129257293Y-83113008D01*
X129410522Y-83153207D01*
X129494477Y-83154526D01*
X129561319Y-83155576D01*
X129561322Y-83155576D01*
X129568916Y-83155695D01*
X129723332Y-83120329D01*
X129800870Y-83081332D01*
X129858072Y-83052563D01*
X129858075Y-83052561D01*
X129864855Y-83049151D01*
X129870626Y-83044222D01*
X129870629Y-83044220D01*
X129979536Y-82951204D01*
X129979536Y-82951203D01*
X129985314Y-82946269D01*
X130077755Y-82817624D01*
X130136842Y-82670641D01*
X130148768Y-82586844D01*
X130158581Y-82517891D01*
X130158581Y-82517888D01*
X130159162Y-82513807D01*
X130159307Y-82500000D01*
X130140276Y-82342733D01*
X130084280Y-82194546D01*
X129994553Y-82063992D01*
X129876275Y-81958611D01*
X129868889Y-81954700D01*
X129742988Y-81888039D01*
X129742989Y-81888039D01*
X129736274Y-81884484D01*
X129582633Y-81845892D01*
X129575034Y-81845852D01*
X129575033Y-81845852D01*
X129509181Y-81845507D01*
X129424221Y-81845062D01*
X129416841Y-81846834D01*
X129416839Y-81846834D01*
X129277563Y-81880271D01*
X129277560Y-81880272D01*
X129270184Y-81882043D01*
X129129414Y-81954700D01*
X129010039Y-82058838D01*
X129005668Y-82065057D01*
X129000591Y-82070696D01*
X128999624Y-82069826D01*
X128950203Y-82109185D01*
X128902656Y-82118500D01*
X122098283Y-82118500D01*
X122030162Y-82098498D01*
X122003768Y-82075824D01*
X121998854Y-82070250D01*
X121994553Y-82063992D01*
X121876275Y-81958611D01*
X121868889Y-81954700D01*
X121742988Y-81888039D01*
X121742989Y-81888039D01*
X121736274Y-81884484D01*
X121582633Y-81845892D01*
X121575034Y-81845852D01*
X121575033Y-81845852D01*
X121509181Y-81845507D01*
X121424221Y-81845062D01*
X121416841Y-81846834D01*
X121416839Y-81846834D01*
X121277563Y-81880271D01*
X121277560Y-81880272D01*
X121270184Y-81882043D01*
X121129414Y-81954700D01*
X121123697Y-81959687D01*
X121123690Y-81959692D01*
X121088329Y-81990540D01*
X121023847Y-82020248D01*
X120953540Y-82010379D01*
X120899730Y-81964065D01*
X120879500Y-81895591D01*
X120879500Y-76482176D01*
X120899502Y-76414055D01*
X120916405Y-76393081D01*
X123393081Y-73916405D01*
X123455393Y-73882379D01*
X123482176Y-73879500D01*
X151290616Y-73879500D01*
X151358737Y-73899502D01*
X151379711Y-73916405D01*
X153583595Y-76120289D01*
X153617621Y-76182601D01*
X153620500Y-76209384D01*
X153620500Y-84696080D01*
X153617951Y-84720028D01*
X153617872Y-84721693D01*
X153615680Y-84731876D01*
X153616904Y-84742217D01*
X153619627Y-84765223D01*
X153619977Y-84771154D01*
X153620072Y-84771146D01*
X153620500Y-84776324D01*
X153620500Y-84781524D01*
X153621354Y-84786653D01*
X153621354Y-84786656D01*
X153623669Y-84800565D01*
X153624506Y-84806443D01*
X153625400Y-84813992D01*
X153630530Y-84857341D01*
X153634493Y-84865593D01*
X153635996Y-84874626D01*
X153640943Y-84883795D01*
X153640944Y-84883797D01*
X153660334Y-84919732D01*
X153663031Y-84925025D01*
X153681785Y-84964082D01*
X153681788Y-84964086D01*
X153685219Y-84971232D01*
X153688814Y-84975508D01*
X153690737Y-84977431D01*
X153692509Y-84979363D01*
X153692552Y-84979442D01*
X153692428Y-84979555D01*
X153692904Y-84980095D01*
X153695990Y-84985814D01*
X153703635Y-84992881D01*
X153735586Y-85022416D01*
X153739152Y-85025846D01*
X156941216Y-88227910D01*
X156975242Y-88290222D01*
X156972453Y-88354369D01*
X156916722Y-88533851D01*
X156916720Y-88533861D01*
X156915007Y-88539378D01*
X156891148Y-88740964D01*
X156891526Y-88746730D01*
X156903901Y-88935535D01*
X156904424Y-88943522D01*
X156905845Y-88949118D01*
X156905846Y-88949123D01*
X156943361Y-89096834D01*
X156954392Y-89140269D01*
X156956809Y-89145512D01*
X156994010Y-89226208D01*
X157039377Y-89324616D01*
X157156533Y-89490389D01*
X157301938Y-89632035D01*
X157470720Y-89744812D01*
X157476023Y-89747090D01*
X157476026Y-89747092D01*
X157564707Y-89785192D01*
X157657228Y-89824942D01*
X157730244Y-89841464D01*
X157849579Y-89868467D01*
X157849584Y-89868468D01*
X157855216Y-89869742D01*
X157860987Y-89869969D01*
X157860989Y-89869969D01*
X157920756Y-89872317D01*
X158058053Y-89877712D01*
X158158499Y-89863148D01*
X158253231Y-89849413D01*
X158253236Y-89849412D01*
X158258945Y-89848584D01*
X158264409Y-89846729D01*
X158264414Y-89846728D01*
X158445693Y-89785192D01*
X158445698Y-89785190D01*
X158451165Y-89783334D01*
X158628276Y-89684147D01*
X158690934Y-89632035D01*
X158779913Y-89558031D01*
X158784345Y-89554345D01*
X158874851Y-89445524D01*
X158910453Y-89402718D01*
X158910455Y-89402715D01*
X158914147Y-89398276D01*
X159013334Y-89221165D01*
X159015190Y-89215698D01*
X159015192Y-89215693D01*
X159076728Y-89034414D01*
X159076729Y-89034409D01*
X159078584Y-89028945D01*
X159079412Y-89023236D01*
X159079413Y-89023231D01*
X159107179Y-88831727D01*
X159107712Y-88828053D01*
X159109232Y-88770000D01*
X159090658Y-88567859D01*
X159089090Y-88562299D01*
X159037125Y-88378046D01*
X159037124Y-88378044D01*
X159035557Y-88372487D01*
X159029872Y-88360957D01*
X158948331Y-88195609D01*
X158945776Y-88190428D01*
X158824320Y-88027779D01*
X158675258Y-87889987D01*
X158670375Y-87886906D01*
X158670371Y-87886903D01*
X158508464Y-87784748D01*
X158503581Y-87781667D01*
X158315039Y-87706446D01*
X158309379Y-87705320D01*
X158309375Y-87705319D01*
X158121613Y-87667971D01*
X158121610Y-87667971D01*
X158115946Y-87666844D01*
X158110171Y-87666768D01*
X158110167Y-87666768D01*
X158008793Y-87665441D01*
X157912971Y-87664187D01*
X157907274Y-87665166D01*
X157907273Y-87665166D01*
X157718607Y-87697585D01*
X157712910Y-87698564D01*
X157622281Y-87731999D01*
X157551449Y-87736811D01*
X157489576Y-87702882D01*
X154416405Y-84629711D01*
X154382379Y-84567399D01*
X154379500Y-84540616D01*
X154379500Y-83470384D01*
X154399502Y-83402263D01*
X154453158Y-83355770D01*
X154523432Y-83345666D01*
X154588012Y-83375160D01*
X154594595Y-83381289D01*
X156931738Y-85718432D01*
X156965764Y-85780744D01*
X156962976Y-85844891D01*
X156918995Y-85986533D01*
X156915007Y-85999378D01*
X156891148Y-86200964D01*
X156904424Y-86403522D01*
X156905845Y-86409118D01*
X156905846Y-86409123D01*
X156936429Y-86529540D01*
X156954392Y-86600269D01*
X156956809Y-86605512D01*
X156994010Y-86686208D01*
X157039377Y-86784616D01*
X157156533Y-86950389D01*
X157301938Y-87092035D01*
X157470720Y-87204812D01*
X157476023Y-87207090D01*
X157476026Y-87207092D01*
X157564707Y-87245192D01*
X157657228Y-87284942D01*
X157730244Y-87301464D01*
X157849579Y-87328467D01*
X157849584Y-87328468D01*
X157855216Y-87329742D01*
X157860987Y-87329969D01*
X157860989Y-87329969D01*
X157920756Y-87332317D01*
X158058053Y-87337712D01*
X158158499Y-87323148D01*
X158253231Y-87309413D01*
X158253236Y-87309412D01*
X158258945Y-87308584D01*
X158264409Y-87306729D01*
X158264414Y-87306728D01*
X158445693Y-87245192D01*
X158445698Y-87245190D01*
X158451165Y-87243334D01*
X158628276Y-87144147D01*
X158690934Y-87092035D01*
X158779913Y-87018031D01*
X158784345Y-87014345D01*
X158914147Y-86858276D01*
X159013334Y-86681165D01*
X159015190Y-86675698D01*
X159015192Y-86675693D01*
X159076728Y-86494414D01*
X159076729Y-86494409D01*
X159078584Y-86488945D01*
X159079412Y-86483236D01*
X159079413Y-86483231D01*
X159107179Y-86291727D01*
X159107712Y-86288053D01*
X159109232Y-86230000D01*
X159090658Y-86027859D01*
X159089040Y-86022123D01*
X159037125Y-85838046D01*
X159037124Y-85838044D01*
X159035557Y-85832487D01*
X159032304Y-85825889D01*
X158948331Y-85655609D01*
X158945776Y-85650428D01*
X158824320Y-85487779D01*
X158675258Y-85349987D01*
X158670375Y-85346906D01*
X158670371Y-85346903D01*
X158508464Y-85244748D01*
X158503581Y-85241667D01*
X158315039Y-85166446D01*
X158309379Y-85165320D01*
X158309375Y-85165319D01*
X158121613Y-85127971D01*
X158121610Y-85127971D01*
X158115946Y-85126844D01*
X158110171Y-85126768D01*
X158110167Y-85126768D01*
X158008793Y-85125441D01*
X157912971Y-85124187D01*
X157907274Y-85125166D01*
X157907273Y-85125166D01*
X157718607Y-85157585D01*
X157712910Y-85158564D01*
X157593060Y-85202779D01*
X157522229Y-85207591D01*
X157460356Y-85173662D01*
X154916405Y-82629711D01*
X154882379Y-82567399D01*
X154879500Y-82540616D01*
X154879500Y-81470384D01*
X154899502Y-81402263D01*
X154953158Y-81355770D01*
X155023432Y-81345666D01*
X155088012Y-81375160D01*
X155094595Y-81381289D01*
X156922261Y-83208955D01*
X156956287Y-83271267D01*
X156953498Y-83335414D01*
X156916722Y-83453851D01*
X156916720Y-83453861D01*
X156915007Y-83459378D01*
X156891148Y-83660964D01*
X156904424Y-83863522D01*
X156905845Y-83869118D01*
X156905846Y-83869123D01*
X156926119Y-83948945D01*
X156954392Y-84060269D01*
X156956809Y-84065512D01*
X156994010Y-84146208D01*
X157039377Y-84244616D01*
X157042710Y-84249332D01*
X157143811Y-84392387D01*
X157156533Y-84410389D01*
X157160675Y-84414424D01*
X157201823Y-84454508D01*
X157301938Y-84552035D01*
X157470720Y-84664812D01*
X157476023Y-84667090D01*
X157476026Y-84667092D01*
X157579352Y-84711484D01*
X157657228Y-84744942D01*
X157730244Y-84761464D01*
X157849579Y-84788467D01*
X157849584Y-84788468D01*
X157855216Y-84789742D01*
X157860987Y-84789969D01*
X157860989Y-84789969D01*
X157920756Y-84792317D01*
X158058053Y-84797712D01*
X158172024Y-84781187D01*
X158253231Y-84769413D01*
X158253236Y-84769412D01*
X158258945Y-84768584D01*
X158264409Y-84766729D01*
X158264414Y-84766728D01*
X158445693Y-84705192D01*
X158445698Y-84705190D01*
X158451165Y-84703334D01*
X158628276Y-84604147D01*
X158635035Y-84598526D01*
X158758895Y-84495512D01*
X158784345Y-84474345D01*
X158888829Y-84348718D01*
X158910453Y-84322718D01*
X158910455Y-84322715D01*
X158914147Y-84318276D01*
X159013334Y-84141165D01*
X159015190Y-84135698D01*
X159015192Y-84135693D01*
X159076728Y-83954414D01*
X159076729Y-83954409D01*
X159078584Y-83948945D01*
X159079412Y-83943236D01*
X159079413Y-83943231D01*
X159107179Y-83751727D01*
X159107712Y-83748053D01*
X159109232Y-83690000D01*
X159092663Y-83509682D01*
X159091187Y-83493613D01*
X159091186Y-83493610D01*
X159090658Y-83487859D01*
X159085730Y-83470384D01*
X159037125Y-83298046D01*
X159037124Y-83298044D01*
X159035557Y-83292487D01*
X159024978Y-83271033D01*
X158948331Y-83115609D01*
X158945776Y-83110428D01*
X158824320Y-82947779D01*
X158675258Y-82809987D01*
X158670375Y-82806906D01*
X158670371Y-82806903D01*
X158508464Y-82704748D01*
X158503581Y-82701667D01*
X158315039Y-82626446D01*
X158309379Y-82625320D01*
X158309375Y-82625319D01*
X158121613Y-82587971D01*
X158121610Y-82587971D01*
X158115946Y-82586844D01*
X158110171Y-82586768D01*
X158110167Y-82586768D01*
X158008793Y-82585441D01*
X157912971Y-82584187D01*
X157907274Y-82585166D01*
X157907273Y-82585166D01*
X157718607Y-82617585D01*
X157712910Y-82618564D01*
X157563840Y-82673559D01*
X157493009Y-82678371D01*
X157431136Y-82644442D01*
X156205656Y-81418962D01*
X156929179Y-81418962D01*
X156953443Y-81514502D01*
X156957284Y-81525348D01*
X157037394Y-81699120D01*
X157043145Y-81709081D01*
X157153579Y-81865343D01*
X157161057Y-81874098D01*
X157298114Y-82007612D01*
X157307058Y-82014855D01*
X157466156Y-82121161D01*
X157476266Y-82126651D01*
X157652077Y-82202185D01*
X157663020Y-82205740D01*
X157726331Y-82220066D01*
X157740405Y-82219177D01*
X157743766Y-82210391D01*
X158256000Y-82210391D01*
X158259966Y-82223897D01*
X158267866Y-82225028D01*
X158445497Y-82164730D01*
X158455994Y-82160056D01*
X158622958Y-82066552D01*
X158632430Y-82060042D01*
X158779553Y-81937682D01*
X158787682Y-81929553D01*
X158910042Y-81782430D01*
X158916552Y-81772958D01*
X159010056Y-81605994D01*
X159014730Y-81595497D01*
X159075038Y-81417838D01*
X159073919Y-81409992D01*
X159060353Y-81406000D01*
X158274115Y-81406000D01*
X158258876Y-81410475D01*
X158257671Y-81411865D01*
X158256000Y-81419548D01*
X158256000Y-82210391D01*
X157743766Y-82210391D01*
X157744000Y-82209778D01*
X157744000Y-81424115D01*
X157739525Y-81408876D01*
X157738135Y-81407671D01*
X157730452Y-81406000D01*
X156944002Y-81406000D01*
X156930471Y-81409973D01*
X156929179Y-81418962D01*
X156205656Y-81418962D01*
X155677493Y-80890799D01*
X156928564Y-80890799D01*
X156935296Y-80894000D01*
X157725885Y-80894000D01*
X157741124Y-80889525D01*
X157742329Y-80888135D01*
X157744000Y-80880452D01*
X157744000Y-80875885D01*
X158256000Y-80875885D01*
X158260475Y-80891124D01*
X158261865Y-80892329D01*
X158269548Y-80894000D01*
X159056834Y-80894000D01*
X159070365Y-80890027D01*
X159071534Y-80881892D01*
X159036658Y-80758231D01*
X159032533Y-80747484D01*
X158947903Y-80575871D01*
X158941893Y-80566063D01*
X158827400Y-80412739D01*
X158819710Y-80404199D01*
X158679192Y-80274304D01*
X158670067Y-80267303D01*
X158508236Y-80165195D01*
X158497989Y-80159974D01*
X158320260Y-80089068D01*
X158309233Y-80085801D01*
X158273770Y-80078748D01*
X158260894Y-80079900D01*
X158256000Y-80095053D01*
X158256000Y-80875885D01*
X157744000Y-80875885D01*
X157744000Y-80091844D01*
X157740194Y-80078882D01*
X157725279Y-80076946D01*
X157718737Y-80078070D01*
X157707617Y-80081050D01*
X157528095Y-80147279D01*
X157517717Y-80152229D01*
X157353273Y-80250063D01*
X157343961Y-80256829D01*
X157200097Y-80382994D01*
X157192180Y-80391337D01*
X157073718Y-80541605D01*
X157067450Y-80551256D01*
X156978358Y-80720592D01*
X156973953Y-80731227D01*
X156928783Y-80876698D01*
X156928564Y-80890799D01*
X155677493Y-80890799D01*
X155416405Y-80629711D01*
X155382379Y-80567399D01*
X155379500Y-80540616D01*
X155379500Y-75553920D01*
X155382049Y-75529973D01*
X155382128Y-75528307D01*
X155384320Y-75518124D01*
X155383096Y-75507782D01*
X155383096Y-75507779D01*
X155380374Y-75484787D01*
X155380023Y-75478846D01*
X155379928Y-75478854D01*
X155379500Y-75473674D01*
X155379500Y-75468476D01*
X155376329Y-75449424D01*
X155375492Y-75443547D01*
X155370693Y-75402997D01*
X155370692Y-75402995D01*
X155369469Y-75392659D01*
X155365508Y-75384410D01*
X155364004Y-75375374D01*
X155359056Y-75366203D01*
X155339652Y-75330240D01*
X155336957Y-75324951D01*
X155318212Y-75285915D01*
X155314780Y-75278768D01*
X155311186Y-75274492D01*
X155309246Y-75272552D01*
X155307493Y-75270641D01*
X155307444Y-75270551D01*
X155307567Y-75270439D01*
X155307095Y-75269904D01*
X155304010Y-75264186D01*
X155264413Y-75227583D01*
X155260848Y-75224154D01*
X152406478Y-72369784D01*
X152391336Y-72351036D01*
X152390221Y-72349811D01*
X152384571Y-72341060D01*
X152376393Y-72334613D01*
X152376391Y-72334611D01*
X152358200Y-72320271D01*
X152353759Y-72316325D01*
X152353697Y-72316398D01*
X152349733Y-72313039D01*
X152346056Y-72309362D01*
X152330308Y-72298108D01*
X152325638Y-72294602D01*
X152285353Y-72262844D01*
X152276719Y-72259812D01*
X152269266Y-72254486D01*
X152220150Y-72239797D01*
X152214508Y-72237964D01*
X152173633Y-72223610D01*
X152173632Y-72223610D01*
X152166149Y-72220982D01*
X152160584Y-72220500D01*
X152157876Y-72220500D01*
X152155242Y-72220386D01*
X152155144Y-72220357D01*
X152155151Y-72220193D01*
X152154447Y-72220149D01*
X152148222Y-72218287D01*
X152094365Y-72220403D01*
X152089418Y-72220500D01*
X122953920Y-72220500D01*
X122929972Y-72217951D01*
X122928307Y-72217872D01*
X122918124Y-72215680D01*
X122907783Y-72216904D01*
X122884777Y-72219627D01*
X122878846Y-72219977D01*
X122878854Y-72220072D01*
X122873676Y-72220500D01*
X122868476Y-72220500D01*
X122863347Y-72221354D01*
X122863344Y-72221354D01*
X122849435Y-72223669D01*
X122843557Y-72224506D01*
X122802999Y-72229306D01*
X122802998Y-72229306D01*
X122792659Y-72230530D01*
X122784407Y-72234493D01*
X122775374Y-72235996D01*
X122766205Y-72240943D01*
X122766203Y-72240944D01*
X122730268Y-72260334D01*
X122724975Y-72263031D01*
X122685918Y-72281785D01*
X122685914Y-72281788D01*
X122678768Y-72285219D01*
X122674492Y-72288814D01*
X122672569Y-72290737D01*
X122670637Y-72292509D01*
X122670558Y-72292552D01*
X122670445Y-72292428D01*
X122669905Y-72292904D01*
X122664186Y-72295990D01*
X122657119Y-72303635D01*
X122627584Y-72335586D01*
X122624154Y-72339152D01*
X119269784Y-75693522D01*
X119251036Y-75708664D01*
X119249811Y-75709779D01*
X119241060Y-75715429D01*
X119234613Y-75723607D01*
X119234611Y-75723609D01*
X119220271Y-75741800D01*
X119216325Y-75746241D01*
X119216398Y-75746303D01*
X119213039Y-75750267D01*
X119209362Y-75753944D01*
X119198108Y-75769692D01*
X119194602Y-75774362D01*
X119162844Y-75814647D01*
X119159812Y-75823281D01*
X119154486Y-75830734D01*
X119151501Y-75840715D01*
X119139799Y-75879844D01*
X119137964Y-75885492D01*
X119120982Y-75933851D01*
X119120500Y-75939416D01*
X119120500Y-75942124D01*
X119120386Y-75944758D01*
X119120357Y-75944856D01*
X119120193Y-75944849D01*
X119120149Y-75945553D01*
X119118287Y-75951778D01*
X119118696Y-75962183D01*
X119120403Y-76005635D01*
X119120500Y-76010582D01*
X119120500Y-81040616D01*
X119100498Y-81108737D01*
X119083595Y-81129711D01*
X117568033Y-82645273D01*
X117505721Y-82679299D01*
X117432249Y-82673208D01*
X117315039Y-82626446D01*
X117309379Y-82625320D01*
X117309375Y-82625319D01*
X117121613Y-82587971D01*
X117121610Y-82587971D01*
X117115946Y-82586844D01*
X117110171Y-82586768D01*
X117110167Y-82586768D01*
X117008793Y-82585441D01*
X116912971Y-82584187D01*
X116907274Y-82585166D01*
X116907273Y-82585166D01*
X116718607Y-82617585D01*
X116712910Y-82618564D01*
X116522463Y-82688824D01*
X116348010Y-82792612D01*
X116343670Y-82796418D01*
X116343666Y-82796421D01*
X116236589Y-82890326D01*
X116195392Y-82926455D01*
X116069720Y-83085869D01*
X116067031Y-83090980D01*
X116067029Y-83090983D01*
X116027459Y-83166194D01*
X115975203Y-83265515D01*
X115926018Y-83423918D01*
X115920011Y-83443264D01*
X115915007Y-83459378D01*
X115891148Y-83660964D01*
X115904424Y-83863522D01*
X115905845Y-83869118D01*
X115905846Y-83869123D01*
X115926119Y-83948945D01*
X115954392Y-84060269D01*
X115956809Y-84065512D01*
X115994010Y-84146208D01*
X116039377Y-84244616D01*
X116042710Y-84249332D01*
X116143811Y-84392387D01*
X116156533Y-84410389D01*
X116160675Y-84414424D01*
X116201823Y-84454508D01*
X116301938Y-84552035D01*
X116470720Y-84664812D01*
X116476023Y-84667090D01*
X116476026Y-84667092D01*
X116579352Y-84711484D01*
X116657228Y-84744942D01*
X116730244Y-84761464D01*
X116849579Y-84788467D01*
X116849584Y-84788468D01*
X116855216Y-84789742D01*
X116860987Y-84789969D01*
X116860989Y-84789969D01*
X116920756Y-84792317D01*
X117058053Y-84797712D01*
X117172024Y-84781187D01*
X117253231Y-84769413D01*
X117253236Y-84769412D01*
X117258945Y-84768584D01*
X117264409Y-84766729D01*
X117264414Y-84766728D01*
X117445693Y-84705192D01*
X117445698Y-84705190D01*
X117451165Y-84703334D01*
X117628276Y-84604147D01*
X117635035Y-84598526D01*
X117758895Y-84495512D01*
X117784345Y-84474345D01*
X117888829Y-84348718D01*
X117910453Y-84322718D01*
X117910455Y-84322715D01*
X117914147Y-84318276D01*
X118013334Y-84141165D01*
X118015190Y-84135698D01*
X118015192Y-84135693D01*
X118076728Y-83954414D01*
X118076729Y-83954409D01*
X118078584Y-83948945D01*
X118079412Y-83943236D01*
X118079413Y-83943231D01*
X118107179Y-83751727D01*
X118107712Y-83748053D01*
X118109232Y-83690000D01*
X118092663Y-83509682D01*
X118091187Y-83493613D01*
X118091186Y-83493610D01*
X118090658Y-83487859D01*
X118046506Y-83331309D01*
X118047266Y-83260319D01*
X118078680Y-83208014D01*
X119405405Y-81881289D01*
X119467717Y-81847263D01*
X119538532Y-81852328D01*
X119595368Y-81894875D01*
X119620179Y-81961395D01*
X119620500Y-81970384D01*
X119620500Y-83040616D01*
X119600498Y-83108737D01*
X119583595Y-83129711D01*
X117539441Y-85173865D01*
X117477129Y-85207891D01*
X117403656Y-85201800D01*
X117320411Y-85168589D01*
X117320409Y-85168588D01*
X117315039Y-85166446D01*
X117309371Y-85165319D01*
X117309369Y-85165318D01*
X117121613Y-85127971D01*
X117121610Y-85127971D01*
X117115946Y-85126844D01*
X117110171Y-85126768D01*
X117110167Y-85126768D01*
X117008793Y-85125441D01*
X116912971Y-85124187D01*
X116907274Y-85125166D01*
X116907273Y-85125166D01*
X116718607Y-85157585D01*
X116712910Y-85158564D01*
X116522463Y-85228824D01*
X116348010Y-85332612D01*
X116343670Y-85336418D01*
X116343666Y-85336421D01*
X116239589Y-85427695D01*
X116195392Y-85466455D01*
X116069720Y-85625869D01*
X116067031Y-85630980D01*
X116067029Y-85630983D01*
X116030084Y-85701204D01*
X115975203Y-85805515D01*
X115915007Y-85999378D01*
X115891148Y-86200964D01*
X115904424Y-86403522D01*
X115905845Y-86409118D01*
X115905846Y-86409123D01*
X115936429Y-86529540D01*
X115954392Y-86600269D01*
X115956809Y-86605512D01*
X115994010Y-86686208D01*
X116039377Y-86784616D01*
X116156533Y-86950389D01*
X116301938Y-87092035D01*
X116470720Y-87204812D01*
X116476023Y-87207090D01*
X116476026Y-87207092D01*
X116564707Y-87245192D01*
X116657228Y-87284942D01*
X116730244Y-87301464D01*
X116849579Y-87328467D01*
X116849584Y-87328468D01*
X116855216Y-87329742D01*
X116860987Y-87329969D01*
X116860989Y-87329969D01*
X116920756Y-87332317D01*
X117058053Y-87337712D01*
X117158499Y-87323148D01*
X117253231Y-87309413D01*
X117253236Y-87309412D01*
X117258945Y-87308584D01*
X117264409Y-87306729D01*
X117264414Y-87306728D01*
X117445693Y-87245192D01*
X117445698Y-87245190D01*
X117451165Y-87243334D01*
X117628276Y-87144147D01*
X117690934Y-87092035D01*
X117779913Y-87018031D01*
X117784345Y-87014345D01*
X117914147Y-86858276D01*
X118013334Y-86681165D01*
X118015190Y-86675698D01*
X118015192Y-86675693D01*
X118076728Y-86494414D01*
X118076729Y-86494409D01*
X118078584Y-86488945D01*
X118079412Y-86483236D01*
X118079413Y-86483231D01*
X118107179Y-86291727D01*
X118107712Y-86288053D01*
X118109232Y-86230000D01*
X118090658Y-86027859D01*
X118084244Y-86005115D01*
X118037707Y-85840110D01*
X118038467Y-85769117D01*
X118069881Y-85716813D01*
X119905405Y-83881289D01*
X119967717Y-83847263D01*
X120038532Y-83852328D01*
X120095368Y-83894875D01*
X120120179Y-83961395D01*
X120120500Y-83970384D01*
X120120500Y-84655187D01*
X120100498Y-84723308D01*
X120077330Y-84750135D01*
X120010039Y-84808838D01*
X119918950Y-84938444D01*
X119861406Y-85086037D01*
X119860414Y-85093570D01*
X119860414Y-85093571D01*
X119842267Y-85231415D01*
X119840729Y-85243096D01*
X119843544Y-85268591D01*
X119846963Y-85299566D01*
X119834557Y-85369470D01*
X119810819Y-85402487D01*
X117510848Y-87702458D01*
X117448536Y-87736484D01*
X117375063Y-87730393D01*
X117320403Y-87708586D01*
X117315039Y-87706446D01*
X117309379Y-87705320D01*
X117309375Y-87705319D01*
X117121613Y-87667971D01*
X117121610Y-87667971D01*
X117115946Y-87666844D01*
X117110171Y-87666768D01*
X117110167Y-87666768D01*
X117008793Y-87665441D01*
X116912971Y-87664187D01*
X116907274Y-87665166D01*
X116907273Y-87665166D01*
X116718607Y-87697585D01*
X116712910Y-87698564D01*
X116522463Y-87768824D01*
X116348010Y-87872612D01*
X116343670Y-87876418D01*
X116343666Y-87876421D01*
X116323723Y-87893911D01*
X116195392Y-88006455D01*
X116069720Y-88165869D01*
X116067031Y-88170980D01*
X116067029Y-88170983D01*
X116054073Y-88195609D01*
X115975203Y-88345515D01*
X115915007Y-88539378D01*
X115891148Y-88740964D01*
X115254500Y-88740964D01*
X115254500Y-81418962D01*
X115929179Y-81418962D01*
X115953443Y-81514502D01*
X115957284Y-81525348D01*
X116037394Y-81699120D01*
X116043145Y-81709081D01*
X116153579Y-81865343D01*
X116161057Y-81874098D01*
X116298114Y-82007612D01*
X116307058Y-82014855D01*
X116466156Y-82121161D01*
X116476266Y-82126651D01*
X116652077Y-82202185D01*
X116663020Y-82205740D01*
X116726331Y-82220066D01*
X116740405Y-82219177D01*
X116743766Y-82210391D01*
X117256000Y-82210391D01*
X117259966Y-82223897D01*
X117267866Y-82225028D01*
X117445497Y-82164730D01*
X117455994Y-82160056D01*
X117622958Y-82066552D01*
X117632430Y-82060042D01*
X117779553Y-81937682D01*
X117787682Y-81929553D01*
X117910042Y-81782430D01*
X117916552Y-81772958D01*
X118010056Y-81605994D01*
X118014730Y-81595497D01*
X118075038Y-81417838D01*
X118073919Y-81409992D01*
X118060353Y-81406000D01*
X117274115Y-81406000D01*
X117258876Y-81410475D01*
X117257671Y-81411865D01*
X117256000Y-81419548D01*
X117256000Y-82210391D01*
X116743766Y-82210391D01*
X116744000Y-82209778D01*
X116744000Y-81424115D01*
X116739525Y-81408876D01*
X116738135Y-81407671D01*
X116730452Y-81406000D01*
X115944002Y-81406000D01*
X115930471Y-81409973D01*
X115929179Y-81418962D01*
X115254500Y-81418962D01*
X115254500Y-80890799D01*
X115928564Y-80890799D01*
X115935296Y-80894000D01*
X116725885Y-80894000D01*
X116741124Y-80889525D01*
X116742329Y-80888135D01*
X116744000Y-80880452D01*
X116744000Y-80875885D01*
X117256000Y-80875885D01*
X117260475Y-80891124D01*
X117261865Y-80892329D01*
X117269548Y-80894000D01*
X118056834Y-80894000D01*
X118070365Y-80890027D01*
X118071534Y-80881892D01*
X118036658Y-80758231D01*
X118032533Y-80747484D01*
X117947903Y-80575871D01*
X117941893Y-80566063D01*
X117827400Y-80412739D01*
X117819710Y-80404199D01*
X117679192Y-80274304D01*
X117670067Y-80267303D01*
X117508236Y-80165195D01*
X117497989Y-80159974D01*
X117320260Y-80089068D01*
X117309233Y-80085801D01*
X117273770Y-80078748D01*
X117260894Y-80079900D01*
X117256000Y-80095053D01*
X117256000Y-80875885D01*
X116744000Y-80875885D01*
X116744000Y-80091844D01*
X116740194Y-80078882D01*
X116725279Y-80076946D01*
X116718737Y-80078070D01*
X116707617Y-80081050D01*
X116528095Y-80147279D01*
X116517717Y-80152229D01*
X116353273Y-80250063D01*
X116343961Y-80256829D01*
X116200097Y-80382994D01*
X116192180Y-80391337D01*
X116073718Y-80541605D01*
X116067450Y-80551256D01*
X115978358Y-80720592D01*
X115973953Y-80731227D01*
X115928783Y-80876698D01*
X115928564Y-80890799D01*
X115254500Y-80890799D01*
X115254500Y-70037476D01*
X115256921Y-70012894D01*
X115257065Y-70012170D01*
X115259486Y-70000000D01*
X117740663Y-70000000D01*
X117740933Y-70004119D01*
X117754606Y-70212723D01*
X117759992Y-70294903D01*
X117817648Y-70584759D01*
X117912645Y-70864611D01*
X118043357Y-71129668D01*
X118207547Y-71375397D01*
X118402407Y-71597593D01*
X118624603Y-71792453D01*
X118870331Y-71956643D01*
X118874030Y-71958467D01*
X118874035Y-71958470D01*
X119010009Y-72025525D01*
X119135389Y-72087355D01*
X119139294Y-72088680D01*
X119139295Y-72088681D01*
X119411334Y-72181026D01*
X119411337Y-72181027D01*
X119415241Y-72182352D01*
X119419280Y-72183155D01*
X119419286Y-72183157D01*
X119701054Y-72239204D01*
X119701057Y-72239204D01*
X119705097Y-72240008D01*
X119709208Y-72240277D01*
X119709212Y-72240278D01*
X119995881Y-72259067D01*
X120000000Y-72259337D01*
X120004119Y-72259067D01*
X120290788Y-72240278D01*
X120290792Y-72240277D01*
X120294903Y-72240008D01*
X120298943Y-72239204D01*
X120298946Y-72239204D01*
X120580714Y-72183157D01*
X120580720Y-72183155D01*
X120584759Y-72182352D01*
X120588663Y-72181027D01*
X120588666Y-72181026D01*
X120860705Y-72088681D01*
X120860706Y-72088680D01*
X120864611Y-72087355D01*
X120989991Y-72025525D01*
X121125965Y-71958470D01*
X121125970Y-71958467D01*
X121129669Y-71956643D01*
X121375397Y-71792453D01*
X121597593Y-71597593D01*
X121792453Y-71375397D01*
X121956643Y-71129668D01*
X122087355Y-70864611D01*
X122182352Y-70584759D01*
X122240008Y-70294903D01*
X122245395Y-70212723D01*
X122259067Y-70004119D01*
X122259337Y-70000000D01*
X152740663Y-70000000D01*
X152740933Y-70004119D01*
X152754606Y-70212723D01*
X152759992Y-70294903D01*
X152817648Y-70584759D01*
X152912645Y-70864611D01*
X153043357Y-71129668D01*
X153207547Y-71375397D01*
X153402407Y-71597593D01*
X153624603Y-71792453D01*
X153870331Y-71956643D01*
X153874030Y-71958467D01*
X153874035Y-71958470D01*
X154010009Y-72025525D01*
X154135389Y-72087355D01*
X154139294Y-72088680D01*
X154139295Y-72088681D01*
X154411334Y-72181026D01*
X154411337Y-72181027D01*
X154415241Y-72182352D01*
X154419280Y-72183155D01*
X154419286Y-72183157D01*
X154701054Y-72239204D01*
X154701057Y-72239204D01*
X154705097Y-72240008D01*
X154709208Y-72240277D01*
X154709212Y-72240278D01*
X154995881Y-72259067D01*
X155000000Y-72259337D01*
X155004119Y-72259067D01*
X155290788Y-72240278D01*
X155290792Y-72240277D01*
X155294903Y-72240008D01*
X155298943Y-72239204D01*
X155298946Y-72239204D01*
X155580714Y-72183157D01*
X155580720Y-72183155D01*
X155584759Y-72182352D01*
X155588663Y-72181027D01*
X155588666Y-72181026D01*
X155860705Y-72088681D01*
X155860706Y-72088680D01*
X155864611Y-72087355D01*
X155989991Y-72025525D01*
X156125965Y-71958470D01*
X156125970Y-71958467D01*
X156129669Y-71956643D01*
X156375397Y-71792453D01*
X156597593Y-71597593D01*
X156792453Y-71375397D01*
X156956643Y-71129668D01*
X157087355Y-70864611D01*
X157182352Y-70584759D01*
X157240008Y-70294903D01*
X157245395Y-70212723D01*
X157259067Y-70004119D01*
X157259337Y-70000000D01*
X157240008Y-69705097D01*
X157238377Y-69696897D01*
X157183157Y-69419286D01*
X157183155Y-69419280D01*
X157182352Y-69415241D01*
X157099301Y-69170579D01*
X157088681Y-69139295D01*
X157088680Y-69139294D01*
X157087355Y-69135389D01*
X156956643Y-68870332D01*
X156792453Y-68624603D01*
X156597593Y-68402407D01*
X156375397Y-68207547D01*
X156129669Y-68043357D01*
X156125970Y-68041533D01*
X156125965Y-68041530D01*
X155989991Y-67974475D01*
X155864611Y-67912645D01*
X155790498Y-67887487D01*
X155588666Y-67818974D01*
X155588663Y-67818973D01*
X155584759Y-67817648D01*
X155580720Y-67816845D01*
X155580714Y-67816843D01*
X155298946Y-67760796D01*
X155298943Y-67760796D01*
X155294903Y-67759992D01*
X155290792Y-67759723D01*
X155290788Y-67759722D01*
X155004119Y-67740933D01*
X155000000Y-67740663D01*
X154995881Y-67740933D01*
X154709212Y-67759722D01*
X154709208Y-67759723D01*
X154705097Y-67759992D01*
X154701057Y-67760796D01*
X154701054Y-67760796D01*
X154419286Y-67816843D01*
X154419280Y-67816845D01*
X154415241Y-67817648D01*
X154411337Y-67818973D01*
X154411334Y-67818974D01*
X154209502Y-67887487D01*
X154135389Y-67912645D01*
X154010143Y-67974410D01*
X153874036Y-68041530D01*
X153874031Y-68041533D01*
X153870332Y-68043357D01*
X153624603Y-68207547D01*
X153402407Y-68402407D01*
X153207547Y-68624603D01*
X153043357Y-68870332D01*
X152912645Y-69135389D01*
X152911320Y-69139294D01*
X152911319Y-69139295D01*
X152900700Y-69170579D01*
X152817648Y-69415241D01*
X152816845Y-69419280D01*
X152816843Y-69419286D01*
X152761623Y-69696897D01*
X152759992Y-69705097D01*
X152743658Y-69954308D01*
X152740663Y-70000000D01*
X122259337Y-70000000D01*
X122240008Y-69705097D01*
X122238377Y-69696897D01*
X122183157Y-69419286D01*
X122183155Y-69419280D01*
X122182352Y-69415241D01*
X122099301Y-69170579D01*
X122088681Y-69139295D01*
X122088680Y-69139294D01*
X122087355Y-69135389D01*
X121956643Y-68870332D01*
X121792453Y-68624603D01*
X121597593Y-68402407D01*
X121375397Y-68207547D01*
X121129669Y-68043357D01*
X121125970Y-68041533D01*
X121125965Y-68041530D01*
X120989991Y-67974475D01*
X120864611Y-67912645D01*
X120790498Y-67887487D01*
X120588666Y-67818974D01*
X120588663Y-67818973D01*
X120584759Y-67817648D01*
X120580720Y-67816845D01*
X120580714Y-67816843D01*
X120298946Y-67760796D01*
X120298943Y-67760796D01*
X120294903Y-67759992D01*
X120290792Y-67759723D01*
X120290788Y-67759722D01*
X120004119Y-67740933D01*
X120000000Y-67740663D01*
X119995881Y-67740933D01*
X119709212Y-67759722D01*
X119709208Y-67759723D01*
X119705097Y-67759992D01*
X119701057Y-67760796D01*
X119701054Y-67760796D01*
X119419286Y-67816843D01*
X119419280Y-67816845D01*
X119415241Y-67817648D01*
X119411337Y-67818973D01*
X119411334Y-67818974D01*
X119209502Y-67887487D01*
X119135389Y-67912645D01*
X119010143Y-67974410D01*
X118874036Y-68041530D01*
X118874031Y-68041533D01*
X118870332Y-68043357D01*
X118624603Y-68207547D01*
X118402407Y-68402407D01*
X118207547Y-68624603D01*
X118043357Y-68870332D01*
X117912645Y-69135389D01*
X117911320Y-69139294D01*
X117911319Y-69139295D01*
X117900700Y-69170579D01*
X117817648Y-69415241D01*
X117816845Y-69419280D01*
X117816843Y-69419286D01*
X117761623Y-69696897D01*
X117759992Y-69705097D01*
X117743658Y-69954308D01*
X117740663Y-70000000D01*
X115259486Y-70000000D01*
X115257065Y-69987830D01*
X115257065Y-69977401D01*
X115256060Y-69964265D01*
X115272318Y-69591898D01*
X115273276Y-69580948D01*
X115317038Y-69248543D01*
X115325878Y-69181396D01*
X115327786Y-69170579D01*
X115334722Y-69139295D01*
X115415008Y-68777145D01*
X115417853Y-68766528D01*
X115503142Y-68496026D01*
X115539036Y-68382187D01*
X115542792Y-68371865D01*
X115697017Y-67999532D01*
X115701659Y-67989579D01*
X115741709Y-67912645D01*
X115887735Y-67632132D01*
X115893230Y-67622613D01*
X116109755Y-67282738D01*
X116116059Y-67273734D01*
X116231257Y-67123604D01*
X116361393Y-66954007D01*
X116368445Y-66945603D01*
X116529485Y-66769860D01*
X116640709Y-66648481D01*
X116648481Y-66640709D01*
X116869499Y-66438182D01*
X116945603Y-66368445D01*
X116954007Y-66361393D01*
X117273734Y-66116059D01*
X117282738Y-66109755D01*
X117622613Y-65893230D01*
X117632133Y-65887734D01*
X117704781Y-65849916D01*
X117989588Y-65701655D01*
X117999532Y-65697017D01*
X118371872Y-65542789D01*
X118382187Y-65539036D01*
X118766529Y-65417853D01*
X118777146Y-65415008D01*
X119170587Y-65327785D01*
X119181396Y-65325878D01*
X119580949Y-65273276D01*
X119591897Y-65272318D01*
X119643588Y-65270061D01*
X119964265Y-65256060D01*
X119977401Y-65257065D01*
X119987830Y-65257065D01*
X120000000Y-65259486D01*
X120012897Y-65256921D01*
X120037476Y-65254500D01*
X154962524Y-65254500D01*
X154987103Y-65256921D01*
G37*
G04 #@! TD.AperFunction*
M02*
