G04 #@! TF.GenerationSoftware,KiCad,Pcbnew,(6.0.10-0)*
G04 #@! TF.CreationDate,2023-01-28T23:12:22+01:00*
G04 #@! TF.ProjectId,hitpoint-proto-v1,68697470-6f69-46e7-942d-70726f746f2d,Proto V1*
G04 #@! TF.SameCoordinates,Original*
G04 #@! TF.FileFunction,Paste,Top*
G04 #@! TF.FilePolarity,Positive*
%FSLAX46Y46*%
G04 Gerber Fmt 4.6, Leading zero omitted, Abs format (unit mm)*
G04 Created by KiCad (PCBNEW (6.0.10-0)) date 2023-01-28 23:12:22*
%MOMM*%
%LPD*%
G01*
G04 APERTURE LIST*
G04 Aperture macros list*
%AMRoundRect*
0 Rectangle with rounded corners*
0 $1 Rounding radius*
0 $2 $3 $4 $5 $6 $7 $8 $9 X,Y pos of 4 corners*
0 Add a 4 corners polygon primitive as box body*
4,1,4,$2,$3,$4,$5,$6,$7,$8,$9,$2,$3,0*
0 Add four circle primitives for the rounded corners*
1,1,$1+$1,$2,$3*
1,1,$1+$1,$4,$5*
1,1,$1+$1,$6,$7*
1,1,$1+$1,$8,$9*
0 Add four rect primitives between the rounded corners*
20,1,$1+$1,$2,$3,$4,$5,0*
20,1,$1+$1,$4,$5,$6,$7,0*
20,1,$1+$1,$6,$7,$8,$9,0*
20,1,$1+$1,$8,$9,$2,$3,0*%
%AMRotRect*
0 Rectangle, with rotation*
0 The origin of the aperture is its center*
0 $1 length*
0 $2 width*
0 $3 Rotation angle, in degrees counterclockwise*
0 Add horizontal line*
21,1,$1,$2,0,0,$3*%
G04 Aperture macros list end*
%ADD10RoundRect,0.200000X0.200000X0.275000X-0.200000X0.275000X-0.200000X-0.275000X0.200000X-0.275000X0*%
%ADD11RoundRect,0.200000X-0.275000X0.200000X-0.275000X-0.200000X0.275000X-0.200000X0.275000X0.200000X0*%
%ADD12RoundRect,0.225000X-0.225000X-0.250000X0.225000X-0.250000X0.225000X0.250000X-0.225000X0.250000X0*%
%ADD13RoundRect,0.225000X0.225000X0.250000X-0.225000X0.250000X-0.225000X-0.250000X0.225000X-0.250000X0*%
%ADD14RoundRect,0.225000X-0.017678X0.335876X-0.335876X0.017678X0.017678X-0.335876X0.335876X-0.017678X0*%
%ADD15RotRect,1.500000X0.900000X135.000000*%
%ADD16RoundRect,0.225000X-0.250000X0.225000X-0.250000X-0.225000X0.250000X-0.225000X0.250000X0.225000X0*%
%ADD17RoundRect,0.250000X-0.250000X-0.475000X0.250000X-0.475000X0.250000X0.475000X-0.250000X0.475000X0*%
%ADD18RoundRect,0.100000X0.100000X-0.637500X0.100000X0.637500X-0.100000X0.637500X-0.100000X-0.637500X0*%
%ADD19RotRect,1.500000X0.900000X45.000000*%
%ADD20RoundRect,0.187500X0.187500X-0.937500X0.187500X0.937500X-0.187500X0.937500X-0.187500X-0.937500X0*%
%ADD21RotRect,1.500000X0.900000X225.000000*%
%ADD22RotRect,1.500000X0.900000X315.000000*%
G04 APERTURE END LIST*
D10*
X126125000Y-91000000D03*
X127775000Y-91000000D03*
D11*
X138000000Y-97325000D03*
X138000000Y-95675000D03*
D12*
X133500000Y-75600000D03*
X131950000Y-75600000D03*
D13*
X141450000Y-99500000D03*
X143000000Y-99500000D03*
D14*
X122000000Y-96500000D03*
X123096016Y-95403984D03*
D15*
X145850862Y-75684315D03*
X148184315Y-73350862D03*
X151649138Y-76815685D03*
X149315685Y-79149138D03*
D16*
X149500000Y-83275000D03*
X149500000Y-81725000D03*
D17*
X125150000Y-92750000D03*
X123250000Y-92750000D03*
D12*
X124725000Y-91000000D03*
X123175000Y-91000000D03*
D18*
X122325000Y-82637500D03*
X122975000Y-82637500D03*
X123625000Y-82637500D03*
X124275000Y-82637500D03*
X124925000Y-82637500D03*
X125575000Y-82637500D03*
X126225000Y-82637500D03*
X126875000Y-82637500D03*
X127525000Y-82637500D03*
X128175000Y-82637500D03*
X128175000Y-88362500D03*
X127525000Y-88362500D03*
X126875000Y-88362500D03*
X126225000Y-88362500D03*
X125575000Y-88362500D03*
X124925000Y-88362500D03*
X124275000Y-88362500D03*
X123625000Y-88362500D03*
X122975000Y-88362500D03*
X122325000Y-88362500D03*
D19*
X149315685Y-95850862D03*
X151649138Y-98184315D03*
X148184315Y-101649138D03*
X145850862Y-99315685D03*
D20*
X137770000Y-90500000D03*
X135230000Y-90500000D03*
X135230000Y-84500000D03*
X137770000Y-84500000D03*
D17*
X137950000Y-93500000D03*
X136050000Y-93500000D03*
D21*
X125684315Y-79149138D03*
X123350862Y-76815685D03*
X126815685Y-73350862D03*
X129149138Y-75684315D03*
D22*
X129149138Y-99315685D03*
X126815685Y-101649138D03*
X123350862Y-98184315D03*
X125684315Y-95850862D03*
M02*
