%TF.GenerationSoftware,KiCad,Pcbnew,(6.0.10-0)*%
%TF.CreationDate,2023-01-28T23:12:18+01:00*%
%TF.ProjectId,hitpoint-proto-v1,68697470-6f69-46e7-942d-70726f746f2d,Proto V1*%
%TF.SameCoordinates,Original*%
%TF.FileFunction,Drillmap*%
%TF.FilePolarity,Positive*%
%FSLAX45Y45*%
G04 Gerber Fmt 4.5, Leading zero omitted, Abs format (unit mm)*
G04 Created by KiCad (PCBNEW (6.0.10-0)) date 2023-01-28 23:12:18*
%MOMM*%
%LPD*%
G01*
G04 APERTURE LIST*
%ADD10C,0.100000*%
%ADD11C,0.200000*%
%ADD12C,0.040000*%
%ADD13C,0.150000*%
G04 APERTURE END LIST*
D10*
X15700000Y-10500000D02*
G75*
G03*
X15700000Y-10500000I-200000J0D01*
G01*
X15700000Y-7000000D02*
G75*
G03*
X15700000Y-7000000I-200000J0D01*
G01*
X15500000Y-11000000D02*
X12000000Y-11000000D01*
X12200000Y-10500000D02*
G75*
G03*
X12200000Y-10500000I-200000J0D01*
G01*
X12200000Y-7000000D02*
G75*
G03*
X12200000Y-7000000I-200000J0D01*
G01*
X16000000Y-7000000D02*
X16000000Y-10500000D01*
X12000000Y-6500000D02*
X15500000Y-6500000D01*
X16000000Y-7000000D02*
G75*
G03*
X15500000Y-6500000I-500000J0D01*
G01*
X12000000Y-6500000D02*
G75*
G03*
X11500000Y-7000000I0J-500000D01*
G01*
X11500000Y-7000000D02*
X11500000Y-10500000D01*
X15500000Y-11000000D02*
G75*
G03*
X16000000Y-10500000I0J500000D01*
G01*
X11500000Y-10500000D02*
G75*
G03*
X12000000Y-11000000I500000J0D01*
G01*
D11*
D12*
X12030000Y-8505000D02*
X12070000Y-8545000D01*
X12070000Y-8505000D02*
X12030000Y-8545000D01*
X12030000Y-8755000D02*
X12070000Y-8795000D01*
X12070000Y-8755000D02*
X12030000Y-8795000D01*
X12030000Y-8880000D02*
X12070000Y-8920000D01*
X12070000Y-8880000D02*
X12030000Y-8920000D01*
X12105000Y-9505000D02*
X12145000Y-9545000D01*
X12145000Y-9505000D02*
X12105000Y-9545000D01*
X12130000Y-8230000D02*
X12170000Y-8270000D01*
X12170000Y-8230000D02*
X12130000Y-8270000D01*
X12480000Y-7480000D02*
X12520000Y-7520000D01*
X12520000Y-7480000D02*
X12480000Y-7520000D01*
X12480000Y-9980000D02*
X12520000Y-10020000D01*
X12520000Y-9980000D02*
X12480000Y-10020000D01*
X12580000Y-7580000D02*
X12620000Y-7620000D01*
X12620000Y-7580000D02*
X12580000Y-7620000D01*
X12580000Y-9880000D02*
X12620000Y-9920000D01*
X12620000Y-9880000D02*
X12580000Y-9920000D01*
X12621922Y-8376922D02*
X12661922Y-8416922D01*
X12661922Y-8376922D02*
X12621922Y-8416922D01*
X12630000Y-8955000D02*
X12670000Y-8995000D01*
X12670000Y-8955000D02*
X12630000Y-8995000D01*
X12655000Y-9205000D02*
X12695000Y-9245000D01*
X12695000Y-9205000D02*
X12655000Y-9245000D01*
X12655000Y-9305000D02*
X12695000Y-9345000D01*
X12695000Y-9305000D02*
X12655000Y-9345000D01*
X12680000Y-7680000D02*
X12720000Y-7720000D01*
X12720000Y-7680000D02*
X12680000Y-7720000D01*
X12680000Y-7805000D02*
X12720000Y-7845000D01*
X12720000Y-7805000D02*
X12680000Y-7845000D01*
X12680000Y-9780000D02*
X12720000Y-9820000D01*
X12720000Y-9780000D02*
X12680000Y-9820000D01*
X12725000Y-8380000D02*
X12765000Y-8420000D01*
X12765000Y-8380000D02*
X12725000Y-8420000D01*
X12825000Y-8330000D02*
X12865000Y-8370000D01*
X12865000Y-8330000D02*
X12825000Y-8370000D01*
X12930000Y-8230000D02*
X12970000Y-8270000D01*
X12970000Y-8230000D02*
X12930000Y-8270000D01*
X13180000Y-7680000D02*
X13220000Y-7720000D01*
X13220000Y-7680000D02*
X13180000Y-7720000D01*
X13255000Y-8705000D02*
X13295000Y-8745000D01*
X13295000Y-8705000D02*
X13255000Y-8745000D01*
X13255000Y-8830000D02*
X13295000Y-8870000D01*
X13295000Y-8830000D02*
X13255000Y-8870000D01*
X13430000Y-9280000D02*
X13470000Y-9320000D01*
X13470000Y-9280000D02*
X13430000Y-9320000D01*
X13430000Y-9380000D02*
X13470000Y-9420000D01*
X13470000Y-9380000D02*
X13430000Y-9420000D01*
X13630000Y-8330000D02*
X13670000Y-8370000D01*
X13670000Y-8330000D02*
X13630000Y-8370000D01*
X13630000Y-8480000D02*
X13670000Y-8520000D01*
X13670000Y-8480000D02*
X13630000Y-8520000D01*
X13655000Y-7480000D02*
X13695000Y-7520000D01*
X13695000Y-7480000D02*
X13655000Y-7520000D01*
X13780000Y-7480000D02*
X13820000Y-7520000D01*
X13820000Y-7480000D02*
X13780000Y-7520000D01*
X13805000Y-9880000D02*
X13845000Y-9920000D01*
X13845000Y-9880000D02*
X13805000Y-9920000D01*
X13805000Y-10005000D02*
X13845000Y-10045000D01*
X13845000Y-10005000D02*
X13805000Y-10045000D01*
X13905000Y-7480000D02*
X13945000Y-7520000D01*
X13945000Y-7480000D02*
X13905000Y-7520000D01*
X14030000Y-7480000D02*
X14070000Y-7520000D01*
X14070000Y-7480000D02*
X14030000Y-7520000D01*
X14180000Y-8780000D02*
X14220000Y-8820000D01*
X14220000Y-8780000D02*
X14180000Y-8820000D01*
X14180000Y-8880000D02*
X14220000Y-8920000D01*
X14220000Y-8880000D02*
X14180000Y-8920000D01*
X14280000Y-8505000D02*
X14320000Y-8545000D01*
X14320000Y-8505000D02*
X14280000Y-8545000D01*
X14280000Y-8605000D02*
X14320000Y-8645000D01*
X14320000Y-8605000D02*
X14280000Y-8645000D01*
X14280000Y-8780000D02*
X14320000Y-8820000D01*
X14320000Y-8780000D02*
X14280000Y-8820000D01*
X14280000Y-8955000D02*
X14320000Y-8995000D01*
X14320000Y-8955000D02*
X14280000Y-8995000D01*
X14280000Y-9830000D02*
X14320000Y-9870000D01*
X14320000Y-9830000D02*
X14280000Y-9870000D01*
X14380000Y-8780000D02*
X14420000Y-8820000D01*
X14420000Y-8780000D02*
X14380000Y-8820000D01*
X14380000Y-8955000D02*
X14420000Y-8995000D01*
X14420000Y-8955000D02*
X14380000Y-8995000D01*
X14480000Y-8505000D02*
X14520000Y-8545000D01*
X14520000Y-8505000D02*
X14480000Y-8545000D01*
X14480000Y-8605000D02*
X14520000Y-8645000D01*
X14520000Y-8605000D02*
X14480000Y-8645000D01*
X14480000Y-8780000D02*
X14520000Y-8820000D01*
X14520000Y-8780000D02*
X14480000Y-8820000D01*
X14480000Y-8955000D02*
X14520000Y-8995000D01*
X14520000Y-8955000D02*
X14480000Y-8995000D01*
X14530000Y-8080000D02*
X14570000Y-8120000D01*
X14570000Y-8080000D02*
X14530000Y-8120000D01*
X14530000Y-8180000D02*
X14570000Y-8220000D01*
X14570000Y-8180000D02*
X14530000Y-8220000D01*
X14580000Y-8780000D02*
X14620000Y-8820000D01*
X14620000Y-8780000D02*
X14580000Y-8820000D01*
X14580000Y-8880000D02*
X14620000Y-8920000D01*
X14620000Y-8880000D02*
X14580000Y-8920000D01*
X14780000Y-7680000D02*
X14820000Y-7720000D01*
X14820000Y-7680000D02*
X14780000Y-7720000D01*
X14780000Y-8180000D02*
X14820000Y-8220000D01*
X14820000Y-8180000D02*
X14780000Y-8220000D01*
X14780000Y-9780000D02*
X14820000Y-9820000D01*
X14820000Y-9780000D02*
X14780000Y-9820000D01*
X14880000Y-7580000D02*
X14920000Y-7620000D01*
X14920000Y-7580000D02*
X14880000Y-7620000D01*
X14880000Y-9330000D02*
X14920000Y-9370000D01*
X14920000Y-9330000D02*
X14880000Y-9370000D01*
X14880000Y-9880000D02*
X14920000Y-9920000D01*
X14920000Y-9880000D02*
X14880000Y-9920000D01*
X14980000Y-7480000D02*
X15020000Y-7520000D01*
X15020000Y-7480000D02*
X14980000Y-7520000D01*
X14980000Y-8855000D02*
X15020000Y-8895000D01*
X15020000Y-8855000D02*
X14980000Y-8895000D01*
X14980000Y-9980000D02*
X15020000Y-10020000D01*
X15020000Y-9980000D02*
X14980000Y-10020000D01*
X15255000Y-8080000D02*
X15295000Y-8120000D01*
X15295000Y-8080000D02*
X15255000Y-8120000D01*
X15255000Y-8180000D02*
X15295000Y-8220000D01*
X15295000Y-8180000D02*
X15255000Y-8220000D01*
X15305000Y-8855000D02*
X15345000Y-8895000D01*
X15345000Y-8855000D02*
X15305000Y-8895000D01*
D10*
X11750000Y-8115000D02*
G75*
G03*
X11750000Y-8115000I-50000J0D01*
G01*
X11750000Y-8369000D02*
G75*
G03*
X11750000Y-8369000I-50000J0D01*
G01*
X11750000Y-8623000D02*
G75*
G03*
X11750000Y-8623000I-50000J0D01*
G01*
X11750000Y-8877000D02*
G75*
G03*
X11750000Y-8877000I-50000J0D01*
G01*
X11750000Y-9131000D02*
G75*
G03*
X11750000Y-9131000I-50000J0D01*
G01*
X11750000Y-9385000D02*
G75*
G03*
X11750000Y-9385000I-50000J0D01*
G01*
X13292500Y-8000000D02*
G75*
G03*
X13292500Y-8000000I-50000J0D01*
G01*
X13546500Y-8000000D02*
G75*
G03*
X13546500Y-8000000I-50000J0D01*
G01*
X13800500Y-8000000D02*
G75*
G03*
X13800500Y-8000000I-50000J0D01*
G01*
X14054500Y-8000000D02*
G75*
G03*
X14054500Y-8000000I-50000J0D01*
G01*
X14308500Y-8000000D02*
G75*
G03*
X14308500Y-8000000I-50000J0D01*
G01*
X15850000Y-8115000D02*
G75*
G03*
X15850000Y-8115000I-50000J0D01*
G01*
X15850000Y-8369000D02*
G75*
G03*
X15850000Y-8369000I-50000J0D01*
G01*
X15850000Y-8623000D02*
G75*
G03*
X15850000Y-8623000I-50000J0D01*
G01*
X15850000Y-8877000D02*
G75*
G03*
X15850000Y-8877000I-50000J0D01*
G01*
X15850000Y-9131000D02*
G75*
G03*
X15850000Y-9131000I-50000J0D01*
G01*
X15850000Y-9385000D02*
G75*
G03*
X15850000Y-9385000I-50000J0D01*
G01*
D13*
X11750000Y-7425000D02*
X11750000Y-7575000D01*
X11675000Y-7500000D02*
X11825000Y-7500000D01*
X11750000Y-7675000D02*
X11750000Y-7825000D01*
X11675000Y-7750000D02*
X11825000Y-7750000D01*
X11750000Y-9675000D02*
X11750000Y-9825000D01*
X11675000Y-9750000D02*
X11825000Y-9750000D01*
X11750000Y-9925000D02*
X11750000Y-10075000D01*
X11675000Y-10000000D02*
X11825000Y-10000000D01*
X12500000Y-6675000D02*
X12500000Y-6825000D01*
X12425000Y-6750000D02*
X12575000Y-6750000D01*
X12500000Y-10675000D02*
X12500000Y-10825000D01*
X12425000Y-10750000D02*
X12575000Y-10750000D01*
X12750000Y-6675000D02*
X12750000Y-6825000D01*
X12675000Y-6750000D02*
X12825000Y-6750000D01*
X12750000Y-10675000D02*
X12750000Y-10825000D01*
X12675000Y-10750000D02*
X12825000Y-10750000D01*
X13000000Y-6675000D02*
X13000000Y-6825000D01*
X12925000Y-6750000D02*
X13075000Y-6750000D01*
X13000000Y-10675000D02*
X13000000Y-10825000D01*
X12925000Y-10750000D02*
X13075000Y-10750000D01*
X13250000Y-6675000D02*
X13250000Y-6825000D01*
X13175000Y-6750000D02*
X13325000Y-6750000D01*
X13250000Y-10675000D02*
X13250000Y-10825000D01*
X13175000Y-10750000D02*
X13325000Y-10750000D01*
X13500000Y-6675000D02*
X13500000Y-6825000D01*
X13425000Y-6750000D02*
X13575000Y-6750000D01*
X13500000Y-10675000D02*
X13500000Y-10825000D01*
X13425000Y-10750000D02*
X13575000Y-10750000D01*
X13750000Y-6675000D02*
X13750000Y-6825000D01*
X13675000Y-6750000D02*
X13825000Y-6750000D01*
X13750000Y-10675000D02*
X13750000Y-10825000D01*
X13675000Y-10750000D02*
X13825000Y-10750000D01*
X14000000Y-6675000D02*
X14000000Y-6825000D01*
X13925000Y-6750000D02*
X14075000Y-6750000D01*
X14000000Y-10675000D02*
X14000000Y-10825000D01*
X13925000Y-10750000D02*
X14075000Y-10750000D01*
X14250000Y-6675000D02*
X14250000Y-6825000D01*
X14175000Y-6750000D02*
X14325000Y-6750000D01*
X14250000Y-10675000D02*
X14250000Y-10825000D01*
X14175000Y-10750000D02*
X14325000Y-10750000D01*
X14500000Y-6675000D02*
X14500000Y-6825000D01*
X14425000Y-6750000D02*
X14575000Y-6750000D01*
X14500000Y-10675000D02*
X14500000Y-10825000D01*
X14425000Y-10750000D02*
X14575000Y-10750000D01*
X14750000Y-6675000D02*
X14750000Y-6825000D01*
X14675000Y-6750000D02*
X14825000Y-6750000D01*
X14750000Y-10675000D02*
X14750000Y-10825000D01*
X14675000Y-10750000D02*
X14825000Y-10750000D01*
X15000000Y-6675000D02*
X15000000Y-6825000D01*
X14925000Y-6750000D02*
X15075000Y-6750000D01*
X15000000Y-10675000D02*
X15000000Y-10825000D01*
X14925000Y-10750000D02*
X15075000Y-10750000D01*
X15750000Y-7425000D02*
X15750000Y-7575000D01*
X15675000Y-7500000D02*
X15825000Y-7500000D01*
X15750000Y-7675000D02*
X15750000Y-7825000D01*
X15675000Y-7750000D02*
X15825000Y-7750000D01*
X15750000Y-9675000D02*
X15750000Y-9825000D01*
X15675000Y-9750000D02*
X15825000Y-9750000D01*
X15750000Y-9925000D02*
X15750000Y-10075000D01*
X15675000Y-10000000D02*
X15825000Y-10000000D01*
D11*
X11752619Y-11315476D02*
X11752619Y-11115476D01*
X11800238Y-11115476D01*
X11828809Y-11125000D01*
X11847857Y-11144048D01*
X11857381Y-11163095D01*
X11866905Y-11201190D01*
X11866905Y-11229762D01*
X11857381Y-11267857D01*
X11847857Y-11286905D01*
X11828809Y-11305952D01*
X11800238Y-11315476D01*
X11752619Y-11315476D01*
X11952619Y-11315476D02*
X11952619Y-11182143D01*
X11952619Y-11220238D02*
X11962143Y-11201190D01*
X11971667Y-11191667D01*
X11990714Y-11182143D01*
X12009762Y-11182143D01*
X12076428Y-11315476D02*
X12076428Y-11182143D01*
X12076428Y-11115476D02*
X12066905Y-11125000D01*
X12076428Y-11134524D01*
X12085952Y-11125000D01*
X12076428Y-11115476D01*
X12076428Y-11134524D01*
X12200238Y-11315476D02*
X12181190Y-11305952D01*
X12171667Y-11286905D01*
X12171667Y-11115476D01*
X12305000Y-11315476D02*
X12285952Y-11305952D01*
X12276428Y-11286905D01*
X12276428Y-11115476D01*
X12533571Y-11315476D02*
X12533571Y-11115476D01*
X12600238Y-11258333D01*
X12666905Y-11115476D01*
X12666905Y-11315476D01*
X12847857Y-11315476D02*
X12847857Y-11210714D01*
X12838333Y-11191667D01*
X12819286Y-11182143D01*
X12781190Y-11182143D01*
X12762143Y-11191667D01*
X12847857Y-11305952D02*
X12828809Y-11315476D01*
X12781190Y-11315476D01*
X12762143Y-11305952D01*
X12752619Y-11286905D01*
X12752619Y-11267857D01*
X12762143Y-11248809D01*
X12781190Y-11239286D01*
X12828809Y-11239286D01*
X12847857Y-11229762D01*
X12943095Y-11182143D02*
X12943095Y-11382143D01*
X12943095Y-11191667D02*
X12962143Y-11182143D01*
X13000238Y-11182143D01*
X13019286Y-11191667D01*
X13028809Y-11201190D01*
X13038333Y-11220238D01*
X13038333Y-11277381D01*
X13028809Y-11296428D01*
X13019286Y-11305952D01*
X13000238Y-11315476D01*
X12962143Y-11315476D01*
X12943095Y-11305952D01*
X13124048Y-11296428D02*
X13133571Y-11305952D01*
X13124048Y-11315476D01*
X13114524Y-11305952D01*
X13124048Y-11296428D01*
X13124048Y-11315476D01*
X13124048Y-11191667D02*
X13133571Y-11201190D01*
X13124048Y-11210714D01*
X13114524Y-11201190D01*
X13124048Y-11191667D01*
X13124048Y-11210714D01*
D12*
X11455000Y-11625000D02*
X11495000Y-11665000D01*
X11495000Y-11625000D02*
X11455000Y-11665000D01*
D11*
X11790714Y-11535476D02*
X11809762Y-11535476D01*
X11828809Y-11545000D01*
X11838333Y-11554524D01*
X11847857Y-11573571D01*
X11857381Y-11611667D01*
X11857381Y-11659286D01*
X11847857Y-11697381D01*
X11838333Y-11716428D01*
X11828809Y-11725952D01*
X11809762Y-11735476D01*
X11790714Y-11735476D01*
X11771667Y-11725952D01*
X11762143Y-11716428D01*
X11752619Y-11697381D01*
X11743095Y-11659286D01*
X11743095Y-11611667D01*
X11752619Y-11573571D01*
X11762143Y-11554524D01*
X11771667Y-11545000D01*
X11790714Y-11535476D01*
X11943095Y-11716428D02*
X11952619Y-11725952D01*
X11943095Y-11735476D01*
X11933571Y-11725952D01*
X11943095Y-11716428D01*
X11943095Y-11735476D01*
X12124048Y-11602143D02*
X12124048Y-11735476D01*
X12076428Y-11525952D02*
X12028809Y-11668809D01*
X12152619Y-11668809D01*
X12266905Y-11535476D02*
X12285952Y-11535476D01*
X12305000Y-11545000D01*
X12314524Y-11554524D01*
X12324048Y-11573571D01*
X12333571Y-11611667D01*
X12333571Y-11659286D01*
X12324048Y-11697381D01*
X12314524Y-11716428D01*
X12305000Y-11725952D01*
X12285952Y-11735476D01*
X12266905Y-11735476D01*
X12247857Y-11725952D01*
X12238333Y-11716428D01*
X12228809Y-11697381D01*
X12219286Y-11659286D01*
X12219286Y-11611667D01*
X12228809Y-11573571D01*
X12238333Y-11554524D01*
X12247857Y-11545000D01*
X12266905Y-11535476D01*
X12457381Y-11535476D02*
X12476428Y-11535476D01*
X12495476Y-11545000D01*
X12505000Y-11554524D01*
X12514524Y-11573571D01*
X12524048Y-11611667D01*
X12524048Y-11659286D01*
X12514524Y-11697381D01*
X12505000Y-11716428D01*
X12495476Y-11725952D01*
X12476428Y-11735476D01*
X12457381Y-11735476D01*
X12438333Y-11725952D01*
X12428809Y-11716428D01*
X12419286Y-11697381D01*
X12409762Y-11659286D01*
X12409762Y-11611667D01*
X12419286Y-11573571D01*
X12428809Y-11554524D01*
X12438333Y-11545000D01*
X12457381Y-11535476D01*
X12609762Y-11735476D02*
X12609762Y-11602143D01*
X12609762Y-11621190D02*
X12619286Y-11611667D01*
X12638333Y-11602143D01*
X12666905Y-11602143D01*
X12685952Y-11611667D01*
X12695476Y-11630714D01*
X12695476Y-11735476D01*
X12695476Y-11630714D02*
X12705000Y-11611667D01*
X12724048Y-11602143D01*
X12752619Y-11602143D01*
X12771667Y-11611667D01*
X12781190Y-11630714D01*
X12781190Y-11735476D01*
X12876428Y-11735476D02*
X12876428Y-11602143D01*
X12876428Y-11621190D02*
X12885952Y-11611667D01*
X12905000Y-11602143D01*
X12933571Y-11602143D01*
X12952619Y-11611667D01*
X12962143Y-11630714D01*
X12962143Y-11735476D01*
X12962143Y-11630714D02*
X12971667Y-11611667D01*
X12990714Y-11602143D01*
X13019286Y-11602143D01*
X13038333Y-11611667D01*
X13047857Y-11630714D01*
X13047857Y-11735476D01*
X13438333Y-11525952D02*
X13266905Y-11783095D01*
X13695476Y-11535476D02*
X13714524Y-11535476D01*
X13733571Y-11545000D01*
X13743095Y-11554524D01*
X13752619Y-11573571D01*
X13762143Y-11611667D01*
X13762143Y-11659286D01*
X13752619Y-11697381D01*
X13743095Y-11716428D01*
X13733571Y-11725952D01*
X13714524Y-11735476D01*
X13695476Y-11735476D01*
X13676428Y-11725952D01*
X13666905Y-11716428D01*
X13657381Y-11697381D01*
X13647857Y-11659286D01*
X13647857Y-11611667D01*
X13657381Y-11573571D01*
X13666905Y-11554524D01*
X13676428Y-11545000D01*
X13695476Y-11535476D01*
X13847857Y-11716428D02*
X13857381Y-11725952D01*
X13847857Y-11735476D01*
X13838333Y-11725952D01*
X13847857Y-11716428D01*
X13847857Y-11735476D01*
X13981190Y-11535476D02*
X14000238Y-11535476D01*
X14019286Y-11545000D01*
X14028809Y-11554524D01*
X14038333Y-11573571D01*
X14047857Y-11611667D01*
X14047857Y-11659286D01*
X14038333Y-11697381D01*
X14028809Y-11716428D01*
X14019286Y-11725952D01*
X14000238Y-11735476D01*
X13981190Y-11735476D01*
X13962143Y-11725952D01*
X13952619Y-11716428D01*
X13943095Y-11697381D01*
X13933571Y-11659286D01*
X13933571Y-11611667D01*
X13943095Y-11573571D01*
X13952619Y-11554524D01*
X13962143Y-11545000D01*
X13981190Y-11535476D01*
X14238333Y-11735476D02*
X14124048Y-11735476D01*
X14181190Y-11735476D02*
X14181190Y-11535476D01*
X14162143Y-11564048D01*
X14143095Y-11583095D01*
X14124048Y-11592619D01*
X14419286Y-11535476D02*
X14324048Y-11535476D01*
X14314524Y-11630714D01*
X14324048Y-11621190D01*
X14343095Y-11611667D01*
X14390714Y-11611667D01*
X14409762Y-11621190D01*
X14419286Y-11630714D01*
X14428809Y-11649762D01*
X14428809Y-11697381D01*
X14419286Y-11716428D01*
X14409762Y-11725952D01*
X14390714Y-11735476D01*
X14343095Y-11735476D01*
X14324048Y-11725952D01*
X14314524Y-11716428D01*
X14495476Y-11535476D02*
X14628809Y-11535476D01*
X14543095Y-11735476D01*
X14695476Y-11535476D02*
X14695476Y-11573571D01*
X14771667Y-11535476D02*
X14771667Y-11573571D01*
X15066905Y-11811667D02*
X15057381Y-11802143D01*
X15038333Y-11773571D01*
X15028809Y-11754524D01*
X15019286Y-11725952D01*
X15009762Y-11678333D01*
X15009762Y-11640238D01*
X15019286Y-11592619D01*
X15028809Y-11564048D01*
X15038333Y-11545000D01*
X15057381Y-11516428D01*
X15066905Y-11506905D01*
X15228809Y-11535476D02*
X15190714Y-11535476D01*
X15171667Y-11545000D01*
X15162143Y-11554524D01*
X15143095Y-11583095D01*
X15133571Y-11621190D01*
X15133571Y-11697381D01*
X15143095Y-11716428D01*
X15152619Y-11725952D01*
X15171667Y-11735476D01*
X15209762Y-11735476D01*
X15228809Y-11725952D01*
X15238333Y-11716428D01*
X15247857Y-11697381D01*
X15247857Y-11649762D01*
X15238333Y-11630714D01*
X15228809Y-11621190D01*
X15209762Y-11611667D01*
X15171667Y-11611667D01*
X15152619Y-11621190D01*
X15143095Y-11630714D01*
X15133571Y-11649762D01*
X15438333Y-11735476D02*
X15324048Y-11735476D01*
X15381190Y-11735476D02*
X15381190Y-11535476D01*
X15362143Y-11564048D01*
X15343095Y-11583095D01*
X15324048Y-11592619D01*
X15676428Y-11735476D02*
X15676428Y-11535476D01*
X15762143Y-11735476D02*
X15762143Y-11630714D01*
X15752619Y-11611667D01*
X15733571Y-11602143D01*
X15705000Y-11602143D01*
X15685952Y-11611667D01*
X15676428Y-11621190D01*
X15885952Y-11735476D02*
X15866905Y-11725952D01*
X15857381Y-11716428D01*
X15847857Y-11697381D01*
X15847857Y-11640238D01*
X15857381Y-11621190D01*
X15866905Y-11611667D01*
X15885952Y-11602143D01*
X15914524Y-11602143D01*
X15933571Y-11611667D01*
X15943095Y-11621190D01*
X15952619Y-11640238D01*
X15952619Y-11697381D01*
X15943095Y-11716428D01*
X15933571Y-11725952D01*
X15914524Y-11735476D01*
X15885952Y-11735476D01*
X16066905Y-11735476D02*
X16047857Y-11725952D01*
X16038333Y-11706905D01*
X16038333Y-11535476D01*
X16219286Y-11725952D02*
X16200238Y-11735476D01*
X16162143Y-11735476D01*
X16143095Y-11725952D01*
X16133571Y-11706905D01*
X16133571Y-11630714D01*
X16143095Y-11611667D01*
X16162143Y-11602143D01*
X16200238Y-11602143D01*
X16219286Y-11611667D01*
X16228809Y-11630714D01*
X16228809Y-11649762D01*
X16133571Y-11668809D01*
X16305000Y-11725952D02*
X16324048Y-11735476D01*
X16362143Y-11735476D01*
X16381190Y-11725952D01*
X16390714Y-11706905D01*
X16390714Y-11697381D01*
X16381190Y-11678333D01*
X16362143Y-11668809D01*
X16333571Y-11668809D01*
X16314524Y-11659286D01*
X16305000Y-11640238D01*
X16305000Y-11630714D01*
X16314524Y-11611667D01*
X16333571Y-11602143D01*
X16362143Y-11602143D01*
X16381190Y-11611667D01*
X16457381Y-11811667D02*
X16466905Y-11802143D01*
X16485952Y-11773571D01*
X16495476Y-11754524D01*
X16505000Y-11725952D01*
X16514524Y-11678333D01*
X16514524Y-11640238D01*
X16505000Y-11592619D01*
X16495476Y-11564048D01*
X16485952Y-11545000D01*
X16466905Y-11516428D01*
X16457381Y-11506905D01*
D10*
X11495000Y-11909000D02*
G75*
G03*
X11495000Y-11909000I-50000J0D01*
G01*
D11*
X11857381Y-11999476D02*
X11743095Y-11999476D01*
X11800238Y-11999476D02*
X11800238Y-11799476D01*
X11781190Y-11828048D01*
X11762143Y-11847095D01*
X11743095Y-11856619D01*
X11943095Y-11980428D02*
X11952619Y-11989952D01*
X11943095Y-11999476D01*
X11933571Y-11989952D01*
X11943095Y-11980428D01*
X11943095Y-11999476D01*
X12076428Y-11799476D02*
X12095476Y-11799476D01*
X12114524Y-11809000D01*
X12124048Y-11818524D01*
X12133571Y-11837571D01*
X12143095Y-11875667D01*
X12143095Y-11923286D01*
X12133571Y-11961381D01*
X12124048Y-11980428D01*
X12114524Y-11989952D01*
X12095476Y-11999476D01*
X12076428Y-11999476D01*
X12057381Y-11989952D01*
X12047857Y-11980428D01*
X12038333Y-11961381D01*
X12028809Y-11923286D01*
X12028809Y-11875667D01*
X12038333Y-11837571D01*
X12047857Y-11818524D01*
X12057381Y-11809000D01*
X12076428Y-11799476D01*
X12266905Y-11799476D02*
X12285952Y-11799476D01*
X12305000Y-11809000D01*
X12314524Y-11818524D01*
X12324048Y-11837571D01*
X12333571Y-11875667D01*
X12333571Y-11923286D01*
X12324048Y-11961381D01*
X12314524Y-11980428D01*
X12305000Y-11989952D01*
X12285952Y-11999476D01*
X12266905Y-11999476D01*
X12247857Y-11989952D01*
X12238333Y-11980428D01*
X12228809Y-11961381D01*
X12219286Y-11923286D01*
X12219286Y-11875667D01*
X12228809Y-11837571D01*
X12238333Y-11818524D01*
X12247857Y-11809000D01*
X12266905Y-11799476D01*
X12457381Y-11799476D02*
X12476428Y-11799476D01*
X12495476Y-11809000D01*
X12505000Y-11818524D01*
X12514524Y-11837571D01*
X12524048Y-11875667D01*
X12524048Y-11923286D01*
X12514524Y-11961381D01*
X12505000Y-11980428D01*
X12495476Y-11989952D01*
X12476428Y-11999476D01*
X12457381Y-11999476D01*
X12438333Y-11989952D01*
X12428809Y-11980428D01*
X12419286Y-11961381D01*
X12409762Y-11923286D01*
X12409762Y-11875667D01*
X12419286Y-11837571D01*
X12428809Y-11818524D01*
X12438333Y-11809000D01*
X12457381Y-11799476D01*
X12609762Y-11999476D02*
X12609762Y-11866143D01*
X12609762Y-11885190D02*
X12619286Y-11875667D01*
X12638333Y-11866143D01*
X12666905Y-11866143D01*
X12685952Y-11875667D01*
X12695476Y-11894714D01*
X12695476Y-11999476D01*
X12695476Y-11894714D02*
X12705000Y-11875667D01*
X12724048Y-11866143D01*
X12752619Y-11866143D01*
X12771667Y-11875667D01*
X12781190Y-11894714D01*
X12781190Y-11999476D01*
X12876428Y-11999476D02*
X12876428Y-11866143D01*
X12876428Y-11885190D02*
X12885952Y-11875667D01*
X12905000Y-11866143D01*
X12933571Y-11866143D01*
X12952619Y-11875667D01*
X12962143Y-11894714D01*
X12962143Y-11999476D01*
X12962143Y-11894714D02*
X12971667Y-11875667D01*
X12990714Y-11866143D01*
X13019286Y-11866143D01*
X13038333Y-11875667D01*
X13047857Y-11894714D01*
X13047857Y-11999476D01*
X13438333Y-11789952D02*
X13266905Y-12047095D01*
X13695476Y-11799476D02*
X13714524Y-11799476D01*
X13733571Y-11809000D01*
X13743095Y-11818524D01*
X13752619Y-11837571D01*
X13762143Y-11875667D01*
X13762143Y-11923286D01*
X13752619Y-11961381D01*
X13743095Y-11980428D01*
X13733571Y-11989952D01*
X13714524Y-11999476D01*
X13695476Y-11999476D01*
X13676428Y-11989952D01*
X13666905Y-11980428D01*
X13657381Y-11961381D01*
X13647857Y-11923286D01*
X13647857Y-11875667D01*
X13657381Y-11837571D01*
X13666905Y-11818524D01*
X13676428Y-11809000D01*
X13695476Y-11799476D01*
X13847857Y-11980428D02*
X13857381Y-11989952D01*
X13847857Y-11999476D01*
X13838333Y-11989952D01*
X13847857Y-11980428D01*
X13847857Y-11999476D01*
X13981190Y-11799476D02*
X14000238Y-11799476D01*
X14019286Y-11809000D01*
X14028809Y-11818524D01*
X14038333Y-11837571D01*
X14047857Y-11875667D01*
X14047857Y-11923286D01*
X14038333Y-11961381D01*
X14028809Y-11980428D01*
X14019286Y-11989952D01*
X14000238Y-11999476D01*
X13981190Y-11999476D01*
X13962143Y-11989952D01*
X13952619Y-11980428D01*
X13943095Y-11961381D01*
X13933571Y-11923286D01*
X13933571Y-11875667D01*
X13943095Y-11837571D01*
X13952619Y-11818524D01*
X13962143Y-11809000D01*
X13981190Y-11799476D01*
X14114524Y-11799476D02*
X14238333Y-11799476D01*
X14171667Y-11875667D01*
X14200238Y-11875667D01*
X14219286Y-11885190D01*
X14228809Y-11894714D01*
X14238333Y-11913762D01*
X14238333Y-11961381D01*
X14228809Y-11980428D01*
X14219286Y-11989952D01*
X14200238Y-11999476D01*
X14143095Y-11999476D01*
X14124048Y-11989952D01*
X14114524Y-11980428D01*
X14333571Y-11999476D02*
X14371667Y-11999476D01*
X14390714Y-11989952D01*
X14400238Y-11980428D01*
X14419286Y-11951857D01*
X14428809Y-11913762D01*
X14428809Y-11837571D01*
X14419286Y-11818524D01*
X14409762Y-11809000D01*
X14390714Y-11799476D01*
X14352619Y-11799476D01*
X14333571Y-11809000D01*
X14324048Y-11818524D01*
X14314524Y-11837571D01*
X14314524Y-11885190D01*
X14324048Y-11904238D01*
X14333571Y-11913762D01*
X14352619Y-11923286D01*
X14390714Y-11923286D01*
X14409762Y-11913762D01*
X14419286Y-11904238D01*
X14428809Y-11885190D01*
X14600238Y-11866143D02*
X14600238Y-11999476D01*
X14552619Y-11789952D02*
X14505000Y-11932809D01*
X14628809Y-11932809D01*
X14695476Y-11799476D02*
X14695476Y-11837571D01*
X14771667Y-11799476D02*
X14771667Y-11837571D01*
X15066905Y-12075667D02*
X15057381Y-12066143D01*
X15038333Y-12037571D01*
X15028809Y-12018524D01*
X15019286Y-11989952D01*
X15009762Y-11942333D01*
X15009762Y-11904238D01*
X15019286Y-11856619D01*
X15028809Y-11828048D01*
X15038333Y-11809000D01*
X15057381Y-11780428D01*
X15066905Y-11770905D01*
X15247857Y-11999476D02*
X15133571Y-11999476D01*
X15190714Y-11999476D02*
X15190714Y-11799476D01*
X15171667Y-11828048D01*
X15152619Y-11847095D01*
X15133571Y-11856619D01*
X15314524Y-11799476D02*
X15447857Y-11799476D01*
X15362143Y-11999476D01*
X15676428Y-11999476D02*
X15676428Y-11799476D01*
X15762143Y-11999476D02*
X15762143Y-11894714D01*
X15752619Y-11875667D01*
X15733571Y-11866143D01*
X15705000Y-11866143D01*
X15685952Y-11875667D01*
X15676428Y-11885190D01*
X15885952Y-11999476D02*
X15866905Y-11989952D01*
X15857381Y-11980428D01*
X15847857Y-11961381D01*
X15847857Y-11904238D01*
X15857381Y-11885190D01*
X15866905Y-11875667D01*
X15885952Y-11866143D01*
X15914524Y-11866143D01*
X15933571Y-11875667D01*
X15943095Y-11885190D01*
X15952619Y-11904238D01*
X15952619Y-11961381D01*
X15943095Y-11980428D01*
X15933571Y-11989952D01*
X15914524Y-11999476D01*
X15885952Y-11999476D01*
X16066905Y-11999476D02*
X16047857Y-11989952D01*
X16038333Y-11970905D01*
X16038333Y-11799476D01*
X16219286Y-11989952D02*
X16200238Y-11999476D01*
X16162143Y-11999476D01*
X16143095Y-11989952D01*
X16133571Y-11970905D01*
X16133571Y-11894714D01*
X16143095Y-11875667D01*
X16162143Y-11866143D01*
X16200238Y-11866143D01*
X16219286Y-11875667D01*
X16228809Y-11894714D01*
X16228809Y-11913762D01*
X16133571Y-11932809D01*
X16305000Y-11989952D02*
X16324048Y-11999476D01*
X16362143Y-11999476D01*
X16381190Y-11989952D01*
X16390714Y-11970905D01*
X16390714Y-11961381D01*
X16381190Y-11942333D01*
X16362143Y-11932809D01*
X16333571Y-11932809D01*
X16314524Y-11923286D01*
X16305000Y-11904238D01*
X16305000Y-11894714D01*
X16314524Y-11875667D01*
X16333571Y-11866143D01*
X16362143Y-11866143D01*
X16381190Y-11875667D01*
X16457381Y-12075667D02*
X16466905Y-12066143D01*
X16485952Y-12037571D01*
X16495476Y-12018524D01*
X16505000Y-11989952D01*
X16514524Y-11942333D01*
X16514524Y-11904238D01*
X16505000Y-11856619D01*
X16495476Y-11828048D01*
X16485952Y-11809000D01*
X16466905Y-11780428D01*
X16457381Y-11770905D01*
D13*
X11420000Y-12098000D02*
X11420000Y-12248000D01*
X11345000Y-12173000D02*
X11495000Y-12173000D01*
D11*
X11857381Y-12263476D02*
X11743095Y-12263476D01*
X11800238Y-12263476D02*
X11800238Y-12063476D01*
X11781190Y-12092048D01*
X11762143Y-12111095D01*
X11743095Y-12120619D01*
X11943095Y-12244428D02*
X11952619Y-12253952D01*
X11943095Y-12263476D01*
X11933571Y-12253952D01*
X11943095Y-12244428D01*
X11943095Y-12263476D01*
X12133571Y-12063476D02*
X12038333Y-12063476D01*
X12028809Y-12158714D01*
X12038333Y-12149190D01*
X12057381Y-12139667D01*
X12105000Y-12139667D01*
X12124048Y-12149190D01*
X12133571Y-12158714D01*
X12143095Y-12177762D01*
X12143095Y-12225381D01*
X12133571Y-12244428D01*
X12124048Y-12253952D01*
X12105000Y-12263476D01*
X12057381Y-12263476D01*
X12038333Y-12253952D01*
X12028809Y-12244428D01*
X12266905Y-12063476D02*
X12285952Y-12063476D01*
X12305000Y-12073000D01*
X12314524Y-12082524D01*
X12324048Y-12101571D01*
X12333571Y-12139667D01*
X12333571Y-12187286D01*
X12324048Y-12225381D01*
X12314524Y-12244428D01*
X12305000Y-12253952D01*
X12285952Y-12263476D01*
X12266905Y-12263476D01*
X12247857Y-12253952D01*
X12238333Y-12244428D01*
X12228809Y-12225381D01*
X12219286Y-12187286D01*
X12219286Y-12139667D01*
X12228809Y-12101571D01*
X12238333Y-12082524D01*
X12247857Y-12073000D01*
X12266905Y-12063476D01*
X12457381Y-12063476D02*
X12476428Y-12063476D01*
X12495476Y-12073000D01*
X12505000Y-12082524D01*
X12514524Y-12101571D01*
X12524048Y-12139667D01*
X12524048Y-12187286D01*
X12514524Y-12225381D01*
X12505000Y-12244428D01*
X12495476Y-12253952D01*
X12476428Y-12263476D01*
X12457381Y-12263476D01*
X12438333Y-12253952D01*
X12428809Y-12244428D01*
X12419286Y-12225381D01*
X12409762Y-12187286D01*
X12409762Y-12139667D01*
X12419286Y-12101571D01*
X12428809Y-12082524D01*
X12438333Y-12073000D01*
X12457381Y-12063476D01*
X12609762Y-12263476D02*
X12609762Y-12130143D01*
X12609762Y-12149190D02*
X12619286Y-12139667D01*
X12638333Y-12130143D01*
X12666905Y-12130143D01*
X12685952Y-12139667D01*
X12695476Y-12158714D01*
X12695476Y-12263476D01*
X12695476Y-12158714D02*
X12705000Y-12139667D01*
X12724048Y-12130143D01*
X12752619Y-12130143D01*
X12771667Y-12139667D01*
X12781190Y-12158714D01*
X12781190Y-12263476D01*
X12876428Y-12263476D02*
X12876428Y-12130143D01*
X12876428Y-12149190D02*
X12885952Y-12139667D01*
X12905000Y-12130143D01*
X12933571Y-12130143D01*
X12952619Y-12139667D01*
X12962143Y-12158714D01*
X12962143Y-12263476D01*
X12962143Y-12158714D02*
X12971667Y-12139667D01*
X12990714Y-12130143D01*
X13019286Y-12130143D01*
X13038333Y-12139667D01*
X13047857Y-12158714D01*
X13047857Y-12263476D01*
X13438333Y-12053952D02*
X13266905Y-12311095D01*
X13695476Y-12063476D02*
X13714524Y-12063476D01*
X13733571Y-12073000D01*
X13743095Y-12082524D01*
X13752619Y-12101571D01*
X13762143Y-12139667D01*
X13762143Y-12187286D01*
X13752619Y-12225381D01*
X13743095Y-12244428D01*
X13733571Y-12253952D01*
X13714524Y-12263476D01*
X13695476Y-12263476D01*
X13676428Y-12253952D01*
X13666905Y-12244428D01*
X13657381Y-12225381D01*
X13647857Y-12187286D01*
X13647857Y-12139667D01*
X13657381Y-12101571D01*
X13666905Y-12082524D01*
X13676428Y-12073000D01*
X13695476Y-12063476D01*
X13847857Y-12244428D02*
X13857381Y-12253952D01*
X13847857Y-12263476D01*
X13838333Y-12253952D01*
X13847857Y-12244428D01*
X13847857Y-12263476D01*
X13981190Y-12063476D02*
X14000238Y-12063476D01*
X14019286Y-12073000D01*
X14028809Y-12082524D01*
X14038333Y-12101571D01*
X14047857Y-12139667D01*
X14047857Y-12187286D01*
X14038333Y-12225381D01*
X14028809Y-12244428D01*
X14019286Y-12253952D01*
X14000238Y-12263476D01*
X13981190Y-12263476D01*
X13962143Y-12253952D01*
X13952619Y-12244428D01*
X13943095Y-12225381D01*
X13933571Y-12187286D01*
X13933571Y-12139667D01*
X13943095Y-12101571D01*
X13952619Y-12082524D01*
X13962143Y-12073000D01*
X13981190Y-12063476D01*
X14228809Y-12063476D02*
X14133571Y-12063476D01*
X14124048Y-12158714D01*
X14133571Y-12149190D01*
X14152619Y-12139667D01*
X14200238Y-12139667D01*
X14219286Y-12149190D01*
X14228809Y-12158714D01*
X14238333Y-12177762D01*
X14238333Y-12225381D01*
X14228809Y-12244428D01*
X14219286Y-12253952D01*
X14200238Y-12263476D01*
X14152619Y-12263476D01*
X14133571Y-12253952D01*
X14124048Y-12244428D01*
X14333571Y-12263476D02*
X14371667Y-12263476D01*
X14390714Y-12253952D01*
X14400238Y-12244428D01*
X14419286Y-12215857D01*
X14428809Y-12177762D01*
X14428809Y-12101571D01*
X14419286Y-12082524D01*
X14409762Y-12073000D01*
X14390714Y-12063476D01*
X14352619Y-12063476D01*
X14333571Y-12073000D01*
X14324048Y-12082524D01*
X14314524Y-12101571D01*
X14314524Y-12149190D01*
X14324048Y-12168238D01*
X14333571Y-12177762D01*
X14352619Y-12187286D01*
X14390714Y-12187286D01*
X14409762Y-12177762D01*
X14419286Y-12168238D01*
X14428809Y-12149190D01*
X14619286Y-12263476D02*
X14505000Y-12263476D01*
X14562143Y-12263476D02*
X14562143Y-12063476D01*
X14543095Y-12092048D01*
X14524048Y-12111095D01*
X14505000Y-12120619D01*
X14695476Y-12063476D02*
X14695476Y-12101571D01*
X14771667Y-12063476D02*
X14771667Y-12101571D01*
X15066905Y-12339667D02*
X15057381Y-12330143D01*
X15038333Y-12301571D01*
X15028809Y-12282524D01*
X15019286Y-12253952D01*
X15009762Y-12206333D01*
X15009762Y-12168238D01*
X15019286Y-12120619D01*
X15028809Y-12092048D01*
X15038333Y-12073000D01*
X15057381Y-12044428D01*
X15066905Y-12034905D01*
X15124048Y-12063476D02*
X15247857Y-12063476D01*
X15181190Y-12139667D01*
X15209762Y-12139667D01*
X15228809Y-12149190D01*
X15238333Y-12158714D01*
X15247857Y-12177762D01*
X15247857Y-12225381D01*
X15238333Y-12244428D01*
X15228809Y-12253952D01*
X15209762Y-12263476D01*
X15152619Y-12263476D01*
X15133571Y-12253952D01*
X15124048Y-12244428D01*
X15371667Y-12063476D02*
X15390714Y-12063476D01*
X15409762Y-12073000D01*
X15419286Y-12082524D01*
X15428809Y-12101571D01*
X15438333Y-12139667D01*
X15438333Y-12187286D01*
X15428809Y-12225381D01*
X15419286Y-12244428D01*
X15409762Y-12253952D01*
X15390714Y-12263476D01*
X15371667Y-12263476D01*
X15352619Y-12253952D01*
X15343095Y-12244428D01*
X15333571Y-12225381D01*
X15324048Y-12187286D01*
X15324048Y-12139667D01*
X15333571Y-12101571D01*
X15343095Y-12082524D01*
X15352619Y-12073000D01*
X15371667Y-12063476D01*
X15676428Y-12263476D02*
X15676428Y-12063476D01*
X15762143Y-12263476D02*
X15762143Y-12158714D01*
X15752619Y-12139667D01*
X15733571Y-12130143D01*
X15705000Y-12130143D01*
X15685952Y-12139667D01*
X15676428Y-12149190D01*
X15885952Y-12263476D02*
X15866905Y-12253952D01*
X15857381Y-12244428D01*
X15847857Y-12225381D01*
X15847857Y-12168238D01*
X15857381Y-12149190D01*
X15866905Y-12139667D01*
X15885952Y-12130143D01*
X15914524Y-12130143D01*
X15933571Y-12139667D01*
X15943095Y-12149190D01*
X15952619Y-12168238D01*
X15952619Y-12225381D01*
X15943095Y-12244428D01*
X15933571Y-12253952D01*
X15914524Y-12263476D01*
X15885952Y-12263476D01*
X16066905Y-12263476D02*
X16047857Y-12253952D01*
X16038333Y-12234905D01*
X16038333Y-12063476D01*
X16219286Y-12253952D02*
X16200238Y-12263476D01*
X16162143Y-12263476D01*
X16143095Y-12253952D01*
X16133571Y-12234905D01*
X16133571Y-12158714D01*
X16143095Y-12139667D01*
X16162143Y-12130143D01*
X16200238Y-12130143D01*
X16219286Y-12139667D01*
X16228809Y-12158714D01*
X16228809Y-12177762D01*
X16133571Y-12196809D01*
X16305000Y-12253952D02*
X16324048Y-12263476D01*
X16362143Y-12263476D01*
X16381190Y-12253952D01*
X16390714Y-12234905D01*
X16390714Y-12225381D01*
X16381190Y-12206333D01*
X16362143Y-12196809D01*
X16333571Y-12196809D01*
X16314524Y-12187286D01*
X16305000Y-12168238D01*
X16305000Y-12158714D01*
X16314524Y-12139667D01*
X16333571Y-12130143D01*
X16362143Y-12130143D01*
X16381190Y-12139667D01*
X16457381Y-12339667D02*
X16466905Y-12330143D01*
X16485952Y-12301571D01*
X16495476Y-12282524D01*
X16505000Y-12253952D01*
X16514524Y-12206333D01*
X16514524Y-12168238D01*
X16505000Y-12120619D01*
X16495476Y-12092048D01*
X16485952Y-12073000D01*
X16466905Y-12044428D01*
X16457381Y-12034905D01*
M02*
