%TF.GenerationSoftware,KiCad,Pcbnew,(6.0.10-0)*%
%TF.CreationDate,2023-01-28T23:12:18+01:00*%
%TF.ProjectId,hitpoint-proto-v1,68697470-6f69-46e7-942d-70726f746f2d,Proto V1*%
%TF.SameCoordinates,Original*%
%TF.FileFunction,Drillmap*%
%TF.FilePolarity,Positive*%
%FSLAX45Y45*%
G04 Gerber Fmt 4.5, Leading zero omitted, Abs format (unit mm)*
G04 Created by KiCad (PCBNEW (6.0.10-0)) date 2023-01-28 23:12:18*
%MOMM*%
%LPD*%
G01*
G04 APERTURE LIST*
%ADD10C,0.100000*%
%ADD11C,0.200000*%
G04 APERTURE END LIST*
D10*
X15700000Y-10500000D02*
G75*
G03*
X15700000Y-10500000I-200000J0D01*
G01*
X15700000Y-7000000D02*
G75*
G03*
X15700000Y-7000000I-200000J0D01*
G01*
X15500000Y-11000000D02*
X12000000Y-11000000D01*
X12200000Y-10500000D02*
G75*
G03*
X12200000Y-10500000I-200000J0D01*
G01*
X12200000Y-7000000D02*
G75*
G03*
X12200000Y-7000000I-200000J0D01*
G01*
X16000000Y-7000000D02*
X16000000Y-10500000D01*
X12000000Y-6500000D02*
X15500000Y-6500000D01*
X16000000Y-7000000D02*
G75*
G03*
X15500000Y-6500000I-500000J0D01*
G01*
X12000000Y-6500000D02*
G75*
G03*
X11500000Y-7000000I0J-500000D01*
G01*
X11500000Y-7000000D02*
X11500000Y-10500000D01*
X15500000Y-11000000D02*
G75*
G03*
X16000000Y-10500000I0J500000D01*
G01*
X11500000Y-10500000D02*
G75*
G03*
X12000000Y-11000000I500000J0D01*
G01*
D11*
X11752619Y-11315476D02*
X11752619Y-11115476D01*
X11800238Y-11115476D01*
X11828809Y-11125000D01*
X11847857Y-11144048D01*
X11857381Y-11163095D01*
X11866905Y-11201190D01*
X11866905Y-11229762D01*
X11857381Y-11267857D01*
X11847857Y-11286905D01*
X11828809Y-11305952D01*
X11800238Y-11315476D01*
X11752619Y-11315476D01*
X11952619Y-11315476D02*
X11952619Y-11182143D01*
X11952619Y-11220238D02*
X11962143Y-11201190D01*
X11971667Y-11191667D01*
X11990714Y-11182143D01*
X12009762Y-11182143D01*
X12076428Y-11315476D02*
X12076428Y-11182143D01*
X12076428Y-11115476D02*
X12066905Y-11125000D01*
X12076428Y-11134524D01*
X12085952Y-11125000D01*
X12076428Y-11115476D01*
X12076428Y-11134524D01*
X12200238Y-11315476D02*
X12181190Y-11305952D01*
X12171667Y-11286905D01*
X12171667Y-11115476D01*
X12305000Y-11315476D02*
X12285952Y-11305952D01*
X12276428Y-11286905D01*
X12276428Y-11115476D01*
X12533571Y-11315476D02*
X12533571Y-11115476D01*
X12600238Y-11258333D01*
X12666905Y-11115476D01*
X12666905Y-11315476D01*
X12847857Y-11315476D02*
X12847857Y-11210714D01*
X12838333Y-11191667D01*
X12819286Y-11182143D01*
X12781190Y-11182143D01*
X12762143Y-11191667D01*
X12847857Y-11305952D02*
X12828809Y-11315476D01*
X12781190Y-11315476D01*
X12762143Y-11305952D01*
X12752619Y-11286905D01*
X12752619Y-11267857D01*
X12762143Y-11248809D01*
X12781190Y-11239286D01*
X12828809Y-11239286D01*
X12847857Y-11229762D01*
X12943095Y-11182143D02*
X12943095Y-11382143D01*
X12943095Y-11191667D02*
X12962143Y-11182143D01*
X13000238Y-11182143D01*
X13019286Y-11191667D01*
X13028809Y-11201190D01*
X13038333Y-11220238D01*
X13038333Y-11277381D01*
X13028809Y-11296428D01*
X13019286Y-11305952D01*
X13000238Y-11315476D01*
X12962143Y-11315476D01*
X12943095Y-11305952D01*
X13124048Y-11296428D02*
X13133571Y-11305952D01*
X13124048Y-11315476D01*
X13114524Y-11305952D01*
X13124048Y-11296428D01*
X13124048Y-11315476D01*
X13124048Y-11191667D02*
X13133571Y-11201190D01*
X13124048Y-11210714D01*
X13114524Y-11201190D01*
X13124048Y-11191667D01*
X13124048Y-11210714D01*
M02*
