G04 #@! TF.GenerationSoftware,KiCad,Pcbnew,(6.0.10-0)*
G04 #@! TF.CreationDate,2023-01-28T23:12:22+01:00*
G04 #@! TF.ProjectId,hitpoint-proto-v1,68697470-6f69-46e7-942d-70726f746f2d,Proto V1*
G04 #@! TF.SameCoordinates,Original*
G04 #@! TF.FileFunction,Legend,Top*
G04 #@! TF.FilePolarity,Positive*
%FSLAX46Y46*%
G04 Gerber Fmt 4.6, Leading zero omitted, Abs format (unit mm)*
G04 Created by KiCad (PCBNEW (6.0.10-0)) date 2023-01-28 23:12:22*
%MOMM*%
%LPD*%
G01*
G04 APERTURE LIST*
G04 Aperture macros list*
%AMRoundRect*
0 Rectangle with rounded corners*
0 $1 Rounding radius*
0 $2 $3 $4 $5 $6 $7 $8 $9 X,Y pos of 4 corners*
0 Add a 4 corners polygon primitive as box body*
4,1,4,$2,$3,$4,$5,$6,$7,$8,$9,$2,$3,0*
0 Add four circle primitives for the rounded corners*
1,1,$1+$1,$2,$3*
1,1,$1+$1,$4,$5*
1,1,$1+$1,$6,$7*
1,1,$1+$1,$8,$9*
0 Add four rect primitives between the rounded corners*
20,1,$1+$1,$2,$3,$4,$5,0*
20,1,$1+$1,$4,$5,$6,$7,0*
20,1,$1+$1,$6,$7,$8,$9,0*
20,1,$1+$1,$8,$9,$2,$3,0*%
%AMRotRect*
0 Rectangle, with rotation*
0 The origin of the aperture is its center*
0 $1 length*
0 $2 width*
0 $3 Rotation angle, in degrees counterclockwise*
0 Add horizontal line*
21,1,$1,$2,0,0,$3*%
G04 Aperture macros list end*
%ADD10C,0.150000*%
%ADD11C,0.120000*%
%ADD12RoundRect,0.200000X0.200000X0.275000X-0.200000X0.275000X-0.200000X-0.275000X0.200000X-0.275000X0*%
%ADD13RoundRect,0.200000X-0.275000X0.200000X-0.275000X-0.200000X0.275000X-0.200000X0.275000X0.200000X0*%
%ADD14RoundRect,0.225000X-0.225000X-0.250000X0.225000X-0.250000X0.225000X0.250000X-0.225000X0.250000X0*%
%ADD15O,1.700000X1.700000*%
%ADD16R,1.700000X1.700000*%
%ADD17RoundRect,0.225000X0.225000X0.250000X-0.225000X0.250000X-0.225000X-0.250000X0.225000X-0.250000X0*%
%ADD18RoundRect,0.225000X-0.017678X0.335876X-0.335876X0.017678X0.017678X-0.335876X0.335876X-0.017678X0*%
%ADD19RotRect,1.500000X0.900000X135.000000*%
%ADD20RoundRect,0.225000X-0.250000X0.225000X-0.250000X-0.225000X0.250000X-0.225000X0.250000X0.225000X0*%
%ADD21RoundRect,0.250000X-0.250000X-0.475000X0.250000X-0.475000X0.250000X0.475000X-0.250000X0.475000X0*%
%ADD22RoundRect,0.100000X0.100000X-0.637500X0.100000X0.637500X-0.100000X0.637500X-0.100000X-0.637500X0*%
%ADD23RotRect,1.500000X0.900000X45.000000*%
%ADD24RoundRect,0.187500X0.187500X-0.937500X0.187500X0.937500X-0.187500X0.937500X-0.187500X-0.937500X0*%
%ADD25RotRect,1.500000X0.900000X225.000000*%
%ADD26RotRect,1.500000X0.900000X315.000000*%
G04 APERTURE END LIST*
D10*
X131095000Y-81750000D02*
X133500000Y-81750000D01*
X156250000Y-79750000D02*
X156250000Y-82250000D01*
X118750000Y-79750000D02*
X118750000Y-82250000D01*
X129333333Y-91452380D02*
X129000000Y-90976190D01*
X128761904Y-91452380D02*
X128761904Y-90452380D01*
X129142857Y-90452380D01*
X129238095Y-90500000D01*
X129285714Y-90547619D01*
X129333333Y-90642857D01*
X129333333Y-90785714D01*
X129285714Y-90880952D01*
X129238095Y-90928571D01*
X129142857Y-90976190D01*
X128761904Y-90976190D01*
X130285714Y-91452380D02*
X129714285Y-91452380D01*
X130000000Y-91452380D02*
X130000000Y-90452380D01*
X129904761Y-90595238D01*
X129809523Y-90690476D01*
X129714285Y-90738095D01*
X139864880Y-96666666D02*
X139388690Y-97000000D01*
X139864880Y-97238095D02*
X138864880Y-97238095D01*
X138864880Y-96857142D01*
X138912500Y-96761904D01*
X138960119Y-96714285D01*
X139055357Y-96666666D01*
X139198214Y-96666666D01*
X139293452Y-96714285D01*
X139341071Y-96761904D01*
X139388690Y-96857142D01*
X139388690Y-97238095D01*
X138960119Y-96285714D02*
X138912500Y-96238095D01*
X138864880Y-96142857D01*
X138864880Y-95904761D01*
X138912500Y-95809523D01*
X138960119Y-95761904D01*
X139055357Y-95714285D01*
X139150595Y-95714285D01*
X139293452Y-95761904D01*
X139864880Y-96333333D01*
X139864880Y-95714285D01*
X132558333Y-74527142D02*
X132510714Y-74574761D01*
X132367857Y-74622380D01*
X132272619Y-74622380D01*
X132129761Y-74574761D01*
X132034523Y-74479523D01*
X131986904Y-74384285D01*
X131939285Y-74193809D01*
X131939285Y-74050952D01*
X131986904Y-73860476D01*
X132034523Y-73765238D01*
X132129761Y-73670000D01*
X132272619Y-73622380D01*
X132367857Y-73622380D01*
X132510714Y-73670000D01*
X132558333Y-73717619D01*
X132891666Y-73622380D02*
X133510714Y-73622380D01*
X133177380Y-74003333D01*
X133320238Y-74003333D01*
X133415476Y-74050952D01*
X133463095Y-74098571D01*
X133510714Y-74193809D01*
X133510714Y-74431904D01*
X133463095Y-74527142D01*
X133415476Y-74574761D01*
X133320238Y-74622380D01*
X133034523Y-74622380D01*
X132939285Y-74574761D01*
X132891666Y-74527142D01*
X116666666Y-95632380D02*
X116666666Y-96346666D01*
X116619047Y-96489523D01*
X116523809Y-96584761D01*
X116380952Y-96632380D01*
X116285714Y-96632380D01*
X117047619Y-95632380D02*
X117666666Y-95632380D01*
X117333333Y-96013333D01*
X117476190Y-96013333D01*
X117571428Y-96060952D01*
X117619047Y-96108571D01*
X117666666Y-96203809D01*
X117666666Y-96441904D01*
X117619047Y-96537142D01*
X117571428Y-96584761D01*
X117476190Y-96632380D01*
X117190476Y-96632380D01*
X117095238Y-96584761D01*
X117047619Y-96537142D01*
X142058333Y-101287142D02*
X142010714Y-101334761D01*
X141867857Y-101382380D01*
X141772619Y-101382380D01*
X141629761Y-101334761D01*
X141534523Y-101239523D01*
X141486904Y-101144285D01*
X141439285Y-100953809D01*
X141439285Y-100810952D01*
X141486904Y-100620476D01*
X141534523Y-100525238D01*
X141629761Y-100430000D01*
X141772619Y-100382380D01*
X141867857Y-100382380D01*
X142010714Y-100430000D01*
X142058333Y-100477619D01*
X142963095Y-100382380D02*
X142486904Y-100382380D01*
X142439285Y-100858571D01*
X142486904Y-100810952D01*
X142582142Y-100763333D01*
X142820238Y-100763333D01*
X142915476Y-100810952D01*
X142963095Y-100858571D01*
X143010714Y-100953809D01*
X143010714Y-101191904D01*
X142963095Y-101287142D01*
X142915476Y-101334761D01*
X142820238Y-101382380D01*
X142582142Y-101382380D01*
X142486904Y-101334761D01*
X142439285Y-101287142D01*
X120634687Y-98370389D02*
X120634687Y-98437732D01*
X120567343Y-98572419D01*
X120500000Y-98639763D01*
X120365312Y-98707106D01*
X120230625Y-98707106D01*
X120129610Y-98673435D01*
X119961251Y-98572419D01*
X119860236Y-98471404D01*
X119759221Y-98303045D01*
X119725549Y-98202030D01*
X119725549Y-98067343D01*
X119792893Y-97932656D01*
X119860236Y-97865312D01*
X119994923Y-97797969D01*
X120062267Y-97797969D01*
X120601015Y-97124534D02*
X120466328Y-97259221D01*
X120432656Y-97360236D01*
X120432656Y-97427580D01*
X120466328Y-97595938D01*
X120567343Y-97764297D01*
X120836717Y-98033671D01*
X120937732Y-98067343D01*
X121005076Y-98067343D01*
X121106091Y-98033671D01*
X121240778Y-97898984D01*
X121274450Y-97797969D01*
X121274450Y-97730625D01*
X121240778Y-97629610D01*
X121072419Y-97461251D01*
X120971404Y-97427580D01*
X120904061Y-97427580D01*
X120803045Y-97461251D01*
X120668358Y-97595938D01*
X120634687Y-97696954D01*
X120634687Y-97764297D01*
X120668358Y-97865312D01*
X147116919Y-78926904D02*
X146409813Y-79634011D01*
X146241454Y-79465652D01*
X146174110Y-79330965D01*
X146174110Y-79196278D01*
X146207782Y-79095263D01*
X146308797Y-78926904D01*
X146409813Y-78825889D01*
X146578171Y-78724873D01*
X146679187Y-78691202D01*
X146813874Y-78691202D01*
X146948561Y-78758545D01*
X147116919Y-78926904D01*
X145803721Y-78893232D02*
X145736377Y-78893232D01*
X145635362Y-78859561D01*
X145467003Y-78691202D01*
X145433332Y-78590186D01*
X145433332Y-78522843D01*
X145467003Y-78421828D01*
X145534347Y-78354484D01*
X145669034Y-78287141D01*
X146477156Y-78287141D01*
X146039423Y-77849408D01*
X150670973Y-79793951D02*
X151075034Y-80198012D01*
X150873003Y-79995982D02*
X150165896Y-80703089D01*
X150334255Y-80669417D01*
X150468942Y-80669417D01*
X150569957Y-80703089D01*
X151287142Y-82666666D02*
X151334761Y-82714285D01*
X151382380Y-82857142D01*
X151382380Y-82952380D01*
X151334761Y-83095238D01*
X151239523Y-83190476D01*
X151144285Y-83238095D01*
X150953809Y-83285714D01*
X150810952Y-83285714D01*
X150620476Y-83238095D01*
X150525238Y-83190476D01*
X150430000Y-83095238D01*
X150382380Y-82952380D01*
X150382380Y-82857142D01*
X150430000Y-82714285D01*
X150477619Y-82666666D01*
X150715714Y-81809523D02*
X151382380Y-81809523D01*
X150334761Y-82047619D02*
X151049047Y-82285714D01*
X151049047Y-81666666D01*
X120946937Y-93107142D02*
X120899318Y-93154761D01*
X120756461Y-93202380D01*
X120661223Y-93202380D01*
X120518365Y-93154761D01*
X120423127Y-93059523D01*
X120375508Y-92964285D01*
X120327889Y-92773809D01*
X120327889Y-92630952D01*
X120375508Y-92440476D01*
X120423127Y-92345238D01*
X120518365Y-92250000D01*
X120661223Y-92202380D01*
X120756461Y-92202380D01*
X120899318Y-92250000D01*
X120946937Y-92297619D01*
X121327889Y-92297619D02*
X121375508Y-92250000D01*
X121470746Y-92202380D01*
X121708842Y-92202380D01*
X121804080Y-92250000D01*
X121851699Y-92297619D01*
X121899318Y-92392857D01*
X121899318Y-92488095D01*
X121851699Y-92630952D01*
X121280270Y-93202380D01*
X121899318Y-93202380D01*
X121083333Y-91357142D02*
X121035714Y-91404761D01*
X120892857Y-91452380D01*
X120797619Y-91452380D01*
X120654761Y-91404761D01*
X120559523Y-91309523D01*
X120511904Y-91214285D01*
X120464285Y-91023809D01*
X120464285Y-90880952D01*
X120511904Y-90690476D01*
X120559523Y-90595238D01*
X120654761Y-90500000D01*
X120797619Y-90452380D01*
X120892857Y-90452380D01*
X121035714Y-90500000D01*
X121083333Y-90547619D01*
X122035714Y-91452380D02*
X121464285Y-91452380D01*
X121750000Y-91452380D02*
X121750000Y-90452380D01*
X121654761Y-90595238D01*
X121559523Y-90690476D01*
X121464285Y-90738095D01*
X129488095Y-84952380D02*
X129488095Y-85761904D01*
X129535714Y-85857142D01*
X129583333Y-85904761D01*
X129678571Y-85952380D01*
X129869047Y-85952380D01*
X129964285Y-85904761D01*
X130011904Y-85857142D01*
X130059523Y-85761904D01*
X130059523Y-84952380D01*
X131059523Y-85952380D02*
X130488095Y-85952380D01*
X130773809Y-85952380D02*
X130773809Y-84952380D01*
X130678571Y-85095238D01*
X130583333Y-85190476D01*
X130488095Y-85238095D01*
X146073095Y-97116919D02*
X145365988Y-96409813D01*
X145534347Y-96241454D01*
X145669034Y-96174110D01*
X145803721Y-96174110D01*
X145904736Y-96207782D01*
X146073095Y-96308797D01*
X146174110Y-96409813D01*
X146275126Y-96578171D01*
X146308797Y-96679187D01*
X146308797Y-96813874D01*
X146241454Y-96948561D01*
X146073095Y-97116919D01*
X146005751Y-95770049D02*
X146443484Y-95332316D01*
X146477156Y-95837393D01*
X146578171Y-95736377D01*
X146679187Y-95702706D01*
X146746530Y-95702706D01*
X146847545Y-95736377D01*
X147015904Y-95904736D01*
X147049576Y-96005751D01*
X147049576Y-96073095D01*
X147015904Y-96174110D01*
X146813874Y-96376141D01*
X146712858Y-96409813D01*
X146645515Y-96409813D01*
X145206048Y-100670973D02*
X144801987Y-101075034D01*
X145004017Y-100873003D02*
X144296910Y-100165896D01*
X144330582Y-100334255D01*
X144330582Y-100468942D01*
X144296910Y-100569957D01*
X139738095Y-86952380D02*
X139738095Y-87761904D01*
X139785714Y-87857142D01*
X139833333Y-87904761D01*
X139928571Y-87952380D01*
X140119047Y-87952380D01*
X140214285Y-87904761D01*
X140261904Y-87857142D01*
X140309523Y-87761904D01*
X140309523Y-86952380D01*
X140738095Y-87047619D02*
X140785714Y-87000000D01*
X140880952Y-86952380D01*
X141119047Y-86952380D01*
X141214285Y-87000000D01*
X141261904Y-87047619D01*
X141309523Y-87142857D01*
X141309523Y-87238095D01*
X141261904Y-87380952D01*
X140690476Y-87952380D01*
X141309523Y-87952380D01*
X129547380Y-80333333D02*
X130261666Y-80333333D01*
X130404523Y-80380952D01*
X130499761Y-80476190D01*
X130547380Y-80619047D01*
X130547380Y-80714285D01*
X130547380Y-79333333D02*
X130547380Y-79904761D01*
X130547380Y-79619047D02*
X129547380Y-79619047D01*
X129690238Y-79714285D01*
X129785476Y-79809523D01*
X129833095Y-79904761D01*
X136833333Y-92177142D02*
X136785714Y-92224761D01*
X136642857Y-92272380D01*
X136547619Y-92272380D01*
X136404761Y-92224761D01*
X136309523Y-92129523D01*
X136261904Y-92034285D01*
X136214285Y-91843809D01*
X136214285Y-91700952D01*
X136261904Y-91510476D01*
X136309523Y-91415238D01*
X136404761Y-91320000D01*
X136547619Y-91272380D01*
X136642857Y-91272380D01*
X136785714Y-91320000D01*
X136833333Y-91367619D01*
X137166666Y-91272380D02*
X137833333Y-91272380D01*
X137404761Y-92272380D01*
X128522843Y-79566667D02*
X127815736Y-78859561D01*
X127984095Y-78691202D01*
X128118782Y-78623858D01*
X128253469Y-78623858D01*
X128354484Y-78657530D01*
X128522843Y-78758545D01*
X128623858Y-78859561D01*
X128724874Y-79027919D01*
X128758545Y-79128935D01*
X128758545Y-79263622D01*
X128691202Y-79398309D01*
X128522843Y-79566667D01*
X129600339Y-78489171D02*
X129196278Y-78893232D01*
X129398309Y-78691202D02*
X128691202Y-77984095D01*
X128724874Y-78152454D01*
X128724874Y-78287141D01*
X128691202Y-78388156D01*
X130837776Y-74564729D02*
X130433715Y-74968790D01*
X130635745Y-74766759D02*
X129928638Y-74059652D01*
X129962310Y-74228011D01*
X129962310Y-74362698D01*
X129928638Y-74463713D01*
X157666666Y-95632380D02*
X157666666Y-96346666D01*
X157619047Y-96489523D01*
X157523809Y-96584761D01*
X157380952Y-96632380D01*
X157285714Y-96632380D01*
X158095238Y-95727619D02*
X158142857Y-95680000D01*
X158238095Y-95632380D01*
X158476190Y-95632380D01*
X158571428Y-95680000D01*
X158619047Y-95727619D01*
X158666666Y-95822857D01*
X158666666Y-95918095D01*
X158619047Y-96060952D01*
X158047619Y-96632380D01*
X158666666Y-96632380D01*
X129566667Y-96477156D02*
X128859561Y-97184263D01*
X128691202Y-97015904D01*
X128623858Y-96881217D01*
X128623858Y-96746530D01*
X128657530Y-96645515D01*
X128758545Y-96477156D01*
X128859561Y-96376141D01*
X129027919Y-96275126D01*
X129128935Y-96241454D01*
X129263622Y-96241454D01*
X129398309Y-96308797D01*
X129566667Y-96477156D01*
X128085110Y-95938408D02*
X128556515Y-95467003D01*
X127984095Y-96376141D02*
X128657530Y-96039423D01*
X128219797Y-95601690D01*
X124564729Y-94162223D02*
X124968790Y-94566284D01*
X124766759Y-94364254D02*
X124059652Y-95071361D01*
X124228011Y-95037689D01*
X124362698Y-95037689D01*
X124463713Y-95071361D01*
D11*
X127187258Y-90477500D02*
X126712742Y-90477500D01*
X127187258Y-91522500D02*
X126712742Y-91522500D01*
X138522500Y-96262742D02*
X138522500Y-96737258D01*
X137477500Y-96262742D02*
X137477500Y-96737258D01*
X132584420Y-75090000D02*
X132865580Y-75090000D01*
X132584420Y-76110000D02*
X132865580Y-76110000D01*
X118330000Y-92580000D02*
X115670000Y-92580000D01*
X118330000Y-93850000D02*
X118330000Y-95180000D01*
X118330000Y-92580000D02*
X118330000Y-79820000D01*
X118330000Y-95180000D02*
X117000000Y-95180000D01*
X118330000Y-79820000D02*
X115670000Y-79820000D01*
X115670000Y-92580000D02*
X115670000Y-79820000D01*
X142365580Y-98990000D02*
X142084420Y-98990000D01*
X142365580Y-100010000D02*
X142084420Y-100010000D01*
X123008038Y-96213211D02*
X122809227Y-96412022D01*
X122286789Y-95491962D02*
X122087978Y-95690773D01*
X148113604Y-71724517D02*
X147300431Y-72537689D01*
X149386396Y-80775483D02*
X144224517Y-75613604D01*
X153275483Y-76886396D02*
X148113604Y-71724517D01*
X148990000Y-82359420D02*
X148990000Y-82640580D01*
X150010000Y-82359420D02*
X150010000Y-82640580D01*
X123938748Y-93485000D02*
X124461252Y-93485000D01*
X123938748Y-92015000D02*
X124461252Y-92015000D01*
X123809420Y-90490000D02*
X124090580Y-90490000D01*
X123809420Y-91510000D02*
X124090580Y-91510000D01*
X128635000Y-85500000D02*
X128635000Y-87700000D01*
X121865000Y-85500000D02*
X121865000Y-89100000D01*
X121865000Y-85500000D02*
X121865000Y-83300000D01*
X128635000Y-85500000D02*
X128635000Y-83300000D01*
X153275483Y-98113604D02*
X152462311Y-97300431D01*
X148113604Y-103275483D02*
X153275483Y-98113604D01*
X144224517Y-99386396D02*
X149386396Y-94224517D01*
X139000000Y-87500000D02*
G75*
G03*
X139000000Y-87500000I-1500000J0D01*
G01*
X139000000Y-85500000D02*
X134000000Y-85500000D01*
X134000000Y-85500000D02*
X134000000Y-89500000D01*
X134000000Y-89500000D02*
X139000000Y-89500000D01*
X139000000Y-89500000D02*
X139000000Y-85500000D01*
X133695000Y-81330000D02*
X133695000Y-78670000D01*
X143915000Y-81330000D02*
X143915000Y-78670000D01*
X132425000Y-81330000D02*
X131095000Y-81330000D01*
X131095000Y-81330000D02*
X131095000Y-80000000D01*
X133695000Y-78670000D02*
X143915000Y-78670000D01*
X133695000Y-81330000D02*
X143915000Y-81330000D01*
X136738748Y-94235000D02*
X137261252Y-94235000D01*
X136738748Y-92765000D02*
X137261252Y-92765000D01*
X126886396Y-71724517D02*
X121724517Y-76886396D01*
X121724517Y-76886396D02*
X122537689Y-77699569D01*
X130775483Y-75613604D02*
X125613604Y-80775483D01*
X159330000Y-92580000D02*
X159330000Y-79820000D01*
X159330000Y-95180000D02*
X158000000Y-95180000D01*
X159330000Y-92580000D02*
X156670000Y-92580000D01*
X159330000Y-79820000D02*
X156670000Y-79820000D01*
X159330000Y-93850000D02*
X159330000Y-95180000D01*
X156670000Y-92580000D02*
X156670000Y-79820000D01*
X125613604Y-94224517D02*
X130775483Y-99386396D01*
X126886396Y-103275483D02*
X127699569Y-102462311D01*
X121724517Y-98113604D02*
X126886396Y-103275483D01*
%LPC*%
D12*
X126125000Y-91000000D03*
X127775000Y-91000000D03*
D13*
X138000000Y-97325000D03*
X138000000Y-95675000D03*
D14*
X133500000Y-75600000D03*
X131950000Y-75600000D03*
D15*
X117000000Y-81150000D03*
X117000000Y-83690000D03*
X117000000Y-86230000D03*
X117000000Y-88770000D03*
X117000000Y-91310000D03*
D16*
X117000000Y-93850000D03*
D17*
X141450000Y-99500000D03*
X143000000Y-99500000D03*
D18*
X122000000Y-96500000D03*
X123096016Y-95403984D03*
D19*
X145850862Y-75684315D03*
X148184315Y-73350862D03*
X151649138Y-76815685D03*
X149315685Y-79149138D03*
D20*
X149500000Y-83275000D03*
X149500000Y-81725000D03*
D21*
X125150000Y-92750000D03*
X123250000Y-92750000D03*
D14*
X124725000Y-91000000D03*
X123175000Y-91000000D03*
D22*
X122325000Y-82637500D03*
X122975000Y-82637500D03*
X123625000Y-82637500D03*
X124275000Y-82637500D03*
X124925000Y-82637500D03*
X125575000Y-82637500D03*
X126225000Y-82637500D03*
X126875000Y-82637500D03*
X127525000Y-82637500D03*
X128175000Y-82637500D03*
X128175000Y-88362500D03*
X127525000Y-88362500D03*
X126875000Y-88362500D03*
X126225000Y-88362500D03*
X125575000Y-88362500D03*
X124925000Y-88362500D03*
X124275000Y-88362500D03*
X123625000Y-88362500D03*
X122975000Y-88362500D03*
X122325000Y-88362500D03*
D23*
X149315685Y-95850862D03*
X151649138Y-98184315D03*
X148184315Y-101649138D03*
X145850862Y-99315685D03*
D24*
X137770000Y-90500000D03*
X135230000Y-90500000D03*
X135230000Y-84500000D03*
X137770000Y-84500000D03*
D15*
X142585000Y-80000000D03*
X140045000Y-80000000D03*
X137505000Y-80000000D03*
X134965000Y-80000000D03*
D16*
X132425000Y-80000000D03*
D21*
X137950000Y-93500000D03*
X136050000Y-93500000D03*
D25*
X125684315Y-79149138D03*
X123350862Y-76815685D03*
X126815685Y-73350862D03*
X129149138Y-75684315D03*
D15*
X158000000Y-81150000D03*
X158000000Y-83690000D03*
X158000000Y-86230000D03*
X158000000Y-88770000D03*
X158000000Y-91310000D03*
D16*
X158000000Y-93850000D03*
D26*
X129149138Y-99315685D03*
X126815685Y-101649138D03*
X123350862Y-98184315D03*
X125684315Y-95850862D03*
M02*
