M48
; DRILL file {KiCad (6.0.10-0)} date 2023 January 28, Saturday 23:12:19
; FORMAT={-:-/ absolute / metric / decimal}
; #@! TF.CreationDate,2023-01-28T23:12:19+01:00
; #@! TF.GenerationSoftware,Kicad,Pcbnew,(6.0.10-0)
; #@! TF.FileFunction,Plated,1,2,PTH
FMAT,2
METRIC
; #@! TA.AperFunction,Plated,PTH,ViaDrill
T1C0.400
; #@! TA.AperFunction,Plated,PTH,ComponentDrill
T2C1.000
; #@! TA.AperFunction,Plated,PTH,ViaDrill
T3C1.500
%
G90
G05
T1
X120.5Y-85.25
X120.5Y-87.75
X120.5Y-89.0
X121.25Y-95.25
X121.5Y-82.5
X125.0Y-75.0
X125.0Y-100.0
X126.0Y-76.0
X126.0Y-99.0
X126.419Y-83.969
X126.5Y-89.75
X126.75Y-92.25
X126.75Y-93.25
X127.0Y-77.0
X127.0Y-78.25
X127.0Y-98.0
X127.45Y-84.0
X128.45Y-83.5
X129.5Y-82.5
X132.0Y-77.0
X132.75Y-87.25
X132.75Y-88.5
X134.5Y-93.0
X134.5Y-94.0
X136.5Y-83.5
X136.5Y-85.0
X136.75Y-75.0
X138.0Y-75.0
X138.25Y-99.0
X138.25Y-100.25
X139.25Y-75.0
X140.5Y-75.0
X142.0Y-88.0
X142.0Y-89.0
X143.0Y-85.25
X143.0Y-86.25
X143.0Y-88.0
X143.0Y-89.75
X143.0Y-98.5
X144.0Y-88.0
X144.0Y-89.75
X145.0Y-85.25
X145.0Y-86.25
X145.0Y-88.0
X145.0Y-89.75
X145.5Y-81.0
X145.5Y-82.0
X146.0Y-88.0
X146.0Y-89.0
X148.0Y-77.0
X148.0Y-82.0
X148.0Y-98.0
X149.0Y-76.0
X149.0Y-93.5
X149.0Y-99.0
X150.0Y-75.0
X150.0Y-88.75
X150.0Y-100.0
X152.75Y-81.0
X152.75Y-82.0
X153.25Y-88.75
T2
X117.0Y-81.15
X117.0Y-83.69
X117.0Y-86.23
X117.0Y-88.77
X117.0Y-91.31
X117.0Y-93.85
X132.425Y-80.0
X134.965Y-80.0
X137.505Y-80.0
X140.045Y-80.0
X142.585Y-80.0
X158.0Y-81.15
X158.0Y-83.69
X158.0Y-86.23
X158.0Y-88.77
X158.0Y-91.31
X158.0Y-93.85
T3
X117.5Y-75.0
X117.5Y-77.5
X117.5Y-97.5
X117.5Y-100.0
X125.0Y-67.5
X125.0Y-107.5
X127.5Y-67.5
X127.5Y-107.5
X130.0Y-67.5
X130.0Y-107.5
X132.5Y-67.5
X132.5Y-107.5
X135.0Y-67.5
X135.0Y-107.5
X137.5Y-67.5
X137.5Y-107.5
X140.0Y-67.5
X140.0Y-107.5
X142.5Y-67.5
X142.5Y-107.5
X145.0Y-67.5
X145.0Y-107.5
X147.5Y-67.5
X147.5Y-107.5
X150.0Y-67.5
X150.0Y-107.5
X157.5Y-75.0
X157.5Y-77.5
X157.5Y-97.5
X157.5Y-100.0
T0
M30
