G04 #@! TF.GenerationSoftware,KiCad,Pcbnew,(6.0.10-0)*
G04 #@! TF.CreationDate,2023-01-28T23:12:22+01:00*
G04 #@! TF.ProjectId,hitpoint-proto-v1,68697470-6f69-46e7-942d-70726f746f2d,Proto V1*
G04 #@! TF.SameCoordinates,Original*
G04 #@! TF.FileFunction,Copper,L1,Top*
G04 #@! TF.FilePolarity,Positive*
%FSLAX46Y46*%
G04 Gerber Fmt 4.6, Leading zero omitted, Abs format (unit mm)*
G04 Created by KiCad (PCBNEW (6.0.10-0)) date 2023-01-28 23:12:22*
%MOMM*%
%LPD*%
G01*
G04 APERTURE LIST*
G04 Aperture macros list*
%AMRoundRect*
0 Rectangle with rounded corners*
0 $1 Rounding radius*
0 $2 $3 $4 $5 $6 $7 $8 $9 X,Y pos of 4 corners*
0 Add a 4 corners polygon primitive as box body*
4,1,4,$2,$3,$4,$5,$6,$7,$8,$9,$2,$3,0*
0 Add four circle primitives for the rounded corners*
1,1,$1+$1,$2,$3*
1,1,$1+$1,$4,$5*
1,1,$1+$1,$6,$7*
1,1,$1+$1,$8,$9*
0 Add four rect primitives between the rounded corners*
20,1,$1+$1,$2,$3,$4,$5,0*
20,1,$1+$1,$4,$5,$6,$7,0*
20,1,$1+$1,$6,$7,$8,$9,0*
20,1,$1+$1,$8,$9,$2,$3,0*%
%AMRotRect*
0 Rectangle, with rotation*
0 The origin of the aperture is its center*
0 $1 length*
0 $2 width*
0 $3 Rotation angle, in degrees counterclockwise*
0 Add horizontal line*
21,1,$1,$2,0,0,$3*%
G04 Aperture macros list end*
G04 #@! TA.AperFunction,SMDPad,CuDef*
%ADD10RoundRect,0.200000X0.200000X0.275000X-0.200000X0.275000X-0.200000X-0.275000X0.200000X-0.275000X0*%
G04 #@! TD*
G04 #@! TA.AperFunction,SMDPad,CuDef*
%ADD11RoundRect,0.200000X-0.275000X0.200000X-0.275000X-0.200000X0.275000X-0.200000X0.275000X0.200000X0*%
G04 #@! TD*
G04 #@! TA.AperFunction,SMDPad,CuDef*
%ADD12RoundRect,0.225000X-0.225000X-0.250000X0.225000X-0.250000X0.225000X0.250000X-0.225000X0.250000X0*%
G04 #@! TD*
G04 #@! TA.AperFunction,ComponentPad*
%ADD13O,1.700000X1.700000*%
G04 #@! TD*
G04 #@! TA.AperFunction,ComponentPad*
%ADD14R,1.700000X1.700000*%
G04 #@! TD*
G04 #@! TA.AperFunction,SMDPad,CuDef*
%ADD15RoundRect,0.225000X0.225000X0.250000X-0.225000X0.250000X-0.225000X-0.250000X0.225000X-0.250000X0*%
G04 #@! TD*
G04 #@! TA.AperFunction,SMDPad,CuDef*
%ADD16RoundRect,0.225000X-0.017678X0.335876X-0.335876X0.017678X0.017678X-0.335876X0.335876X-0.017678X0*%
G04 #@! TD*
G04 #@! TA.AperFunction,SMDPad,CuDef*
%ADD17RotRect,1.500000X0.900000X135.000000*%
G04 #@! TD*
G04 #@! TA.AperFunction,SMDPad,CuDef*
%ADD18RoundRect,0.225000X-0.250000X0.225000X-0.250000X-0.225000X0.250000X-0.225000X0.250000X0.225000X0*%
G04 #@! TD*
G04 #@! TA.AperFunction,SMDPad,CuDef*
%ADD19RoundRect,0.250000X-0.250000X-0.475000X0.250000X-0.475000X0.250000X0.475000X-0.250000X0.475000X0*%
G04 #@! TD*
G04 #@! TA.AperFunction,SMDPad,CuDef*
%ADD20RoundRect,0.100000X0.100000X-0.637500X0.100000X0.637500X-0.100000X0.637500X-0.100000X-0.637500X0*%
G04 #@! TD*
G04 #@! TA.AperFunction,SMDPad,CuDef*
%ADD21RotRect,1.500000X0.900000X45.000000*%
G04 #@! TD*
G04 #@! TA.AperFunction,SMDPad,CuDef*
%ADD22RoundRect,0.187500X0.187500X-0.937500X0.187500X0.937500X-0.187500X0.937500X-0.187500X-0.937500X0*%
G04 #@! TD*
G04 #@! TA.AperFunction,SMDPad,CuDef*
%ADD23RotRect,1.500000X0.900000X225.000000*%
G04 #@! TD*
G04 #@! TA.AperFunction,SMDPad,CuDef*
%ADD24RotRect,1.500000X0.900000X315.000000*%
G04 #@! TD*
G04 #@! TA.AperFunction,ViaPad*
%ADD25C,0.800000*%
G04 #@! TD*
G04 #@! TA.AperFunction,ViaPad*
%ADD26C,2.000000*%
G04 #@! TD*
G04 #@! TA.AperFunction,Conductor*
%ADD27C,0.508000*%
G04 #@! TD*
G04 #@! TA.AperFunction,Conductor*
%ADD28C,0.254000*%
G04 #@! TD*
G04 #@! TA.AperFunction,Conductor*
%ADD29C,0.762000*%
G04 #@! TD*
G04 #@! TA.AperFunction,Conductor*
%ADD30C,0.250000*%
G04 #@! TD*
G04 APERTURE END LIST*
D10*
X126125000Y-91000000D03*
X127775000Y-91000000D03*
D11*
X138000000Y-97325000D03*
X138000000Y-95675000D03*
D12*
X133500000Y-75600000D03*
X131950000Y-75600000D03*
D13*
X117000000Y-81150000D03*
X117000000Y-83690000D03*
X117000000Y-86230000D03*
X117000000Y-88770000D03*
X117000000Y-91310000D03*
D14*
X117000000Y-93850000D03*
D15*
X141450000Y-99500000D03*
X143000000Y-99500000D03*
D16*
X122000000Y-96500000D03*
X123096016Y-95403984D03*
D17*
X145850862Y-75684315D03*
X148184315Y-73350862D03*
X151649138Y-76815685D03*
X149315685Y-79149138D03*
D18*
X149500000Y-83275000D03*
X149500000Y-81725000D03*
D19*
X125150000Y-92750000D03*
X123250000Y-92750000D03*
D12*
X124725000Y-91000000D03*
X123175000Y-91000000D03*
D20*
X122325000Y-82637500D03*
X122975000Y-82637500D03*
X123625000Y-82637500D03*
X124275000Y-82637500D03*
X124925000Y-82637500D03*
X125575000Y-82637500D03*
X126225000Y-82637500D03*
X126875000Y-82637500D03*
X127525000Y-82637500D03*
X128175000Y-82637500D03*
X128175000Y-88362500D03*
X127525000Y-88362500D03*
X126875000Y-88362500D03*
X126225000Y-88362500D03*
X125575000Y-88362500D03*
X124925000Y-88362500D03*
X124275000Y-88362500D03*
X123625000Y-88362500D03*
X122975000Y-88362500D03*
X122325000Y-88362500D03*
D21*
X149315685Y-95850862D03*
X151649138Y-98184315D03*
X148184315Y-101649138D03*
X145850862Y-99315685D03*
D22*
X137770000Y-90500000D03*
X135230000Y-90500000D03*
X135230000Y-84500000D03*
X137770000Y-84500000D03*
D13*
X142585000Y-80000000D03*
X140045000Y-80000000D03*
X137505000Y-80000000D03*
X134965000Y-80000000D03*
D14*
X132425000Y-80000000D03*
D19*
X137950000Y-93500000D03*
X136050000Y-93500000D03*
D23*
X125684315Y-79149138D03*
X123350862Y-76815685D03*
X126815685Y-73350862D03*
X129149138Y-75684315D03*
D13*
X158000000Y-81150000D03*
X158000000Y-83690000D03*
X158000000Y-86230000D03*
X158000000Y-88770000D03*
X158000000Y-91310000D03*
D14*
X158000000Y-93850000D03*
D24*
X129149138Y-99315685D03*
X126815685Y-101649138D03*
X123350862Y-98184315D03*
X125684315Y-95850862D03*
D25*
X149000000Y-93500000D03*
X143000000Y-85250000D03*
X127000000Y-98000000D03*
X132750000Y-87250000D03*
X145000000Y-85250000D03*
X144000000Y-89750000D03*
X142000000Y-89000000D03*
D26*
X145000000Y-107500000D03*
X142500000Y-67500000D03*
X137500000Y-67500000D03*
X125000000Y-107500000D03*
D25*
X148000000Y-77000000D03*
D26*
X117500000Y-97500000D03*
X147500000Y-67500000D03*
D25*
X149000000Y-99000000D03*
D26*
X125000000Y-67500000D03*
D25*
X144000000Y-88000000D03*
X138000000Y-75000000D03*
D26*
X117500000Y-100000000D03*
X137500000Y-107500000D03*
D25*
X145000000Y-88000000D03*
X136500000Y-85000000D03*
D26*
X157500000Y-100000000D03*
D25*
X138250000Y-99000000D03*
X152750000Y-81000000D03*
X127000000Y-77000000D03*
D26*
X157500000Y-77500000D03*
X117500000Y-77500000D03*
X140000000Y-107500000D03*
X132500000Y-67500000D03*
D25*
X143000000Y-86250000D03*
D26*
X157500000Y-97500000D03*
D25*
X126750000Y-92250000D03*
D26*
X142500000Y-107500000D03*
D25*
X148000000Y-98000000D03*
X120500000Y-89000000D03*
X125000000Y-100000000D03*
X134500000Y-94000000D03*
X145500000Y-82000000D03*
D26*
X135000000Y-67500000D03*
X127500000Y-107500000D03*
X127500000Y-67500000D03*
D25*
X145500000Y-81000000D03*
X136750000Y-75000000D03*
X132750000Y-88500000D03*
D26*
X145000000Y-67500000D03*
D25*
X120500000Y-87750000D03*
D26*
X147500000Y-107500000D03*
D25*
X136500000Y-83500000D03*
D26*
X132500000Y-107500000D03*
D25*
X125000000Y-75000000D03*
D26*
X150000000Y-107500000D03*
X135000000Y-107500000D03*
D25*
X146000000Y-89000000D03*
D26*
X130000000Y-67500000D03*
D25*
X150000000Y-88750000D03*
X142000000Y-88000000D03*
D26*
X157500000Y-75000000D03*
D25*
X139250000Y-75000000D03*
X143000000Y-89750000D03*
X153250000Y-88750000D03*
X140500000Y-75000000D03*
D26*
X130000000Y-107500000D03*
D25*
X150000000Y-75000000D03*
X134500000Y-93000000D03*
X146000000Y-88000000D03*
D26*
X117500000Y-75000000D03*
X150000000Y-67500000D03*
D25*
X143000000Y-88000000D03*
X150000000Y-100000000D03*
X149000000Y-76000000D03*
X126750000Y-93250000D03*
X145000000Y-86250000D03*
D26*
X140000000Y-67500000D03*
D25*
X138250000Y-100250000D03*
X145000000Y-89750000D03*
X126000000Y-99000000D03*
X126000000Y-76000000D03*
X152750000Y-82000000D03*
X143000000Y-98500000D03*
X132000000Y-77000000D03*
X121250000Y-95250000D03*
X148000000Y-82000000D03*
X127000000Y-78250000D03*
X126500000Y-89750000D03*
X120500000Y-85250000D03*
X128450000Y-83500000D03*
X127450000Y-84000000D03*
X126419218Y-83969218D03*
X129500000Y-82500000D03*
X121500000Y-82500000D03*
D27*
X123250000Y-91075000D02*
X123175000Y-91000000D01*
X128000000Y-94250000D02*
X132250000Y-94250000D01*
X145175000Y-97325000D02*
X138000000Y-97325000D01*
X123250000Y-94250000D02*
X128000000Y-94250000D01*
D28*
X124275000Y-89900000D02*
X123175000Y-91000000D01*
D27*
X117400000Y-94250000D02*
X123250000Y-94250000D01*
X135325000Y-97325000D02*
X138000000Y-97325000D01*
X123250000Y-92750000D02*
X123250000Y-91075000D01*
X128000000Y-91225000D02*
X127775000Y-91000000D01*
D28*
X124275000Y-88362500D02*
X124275000Y-89900000D01*
D27*
X132250000Y-94250000D02*
X135325000Y-97325000D01*
X117000000Y-93850000D02*
X117400000Y-94250000D01*
X149000000Y-93500000D02*
X145175000Y-97325000D01*
X123250000Y-94250000D02*
X123250000Y-92750000D01*
X128000000Y-94250000D02*
X128000000Y-91225000D01*
X124725000Y-91475000D02*
X125150000Y-91900000D01*
X125150000Y-91900000D02*
X125150000Y-92750000D01*
X124725000Y-91000000D02*
X124725000Y-91475000D01*
D29*
X143000000Y-99500000D02*
X145666547Y-99500000D01*
X123050156Y-95358124D02*
X121358124Y-95358124D01*
X123096016Y-95403984D02*
X125237437Y-95403984D01*
X149500000Y-81725000D02*
X148275000Y-81725000D01*
X129233453Y-75600000D02*
X129149138Y-75684315D01*
X145666547Y-99500000D02*
X145850862Y-99315685D01*
X131950000Y-75600000D02*
X131950000Y-76950000D01*
X148275000Y-81725000D02*
X148000000Y-82000000D01*
X125725000Y-95810177D02*
X125684315Y-95850862D01*
X131950000Y-76950000D02*
X132000000Y-77000000D01*
X131950000Y-75600000D02*
X129233453Y-75600000D01*
X143000000Y-98500000D02*
X143000000Y-99500000D01*
X149500000Y-81725000D02*
X149500000Y-79333453D01*
X121358124Y-95358124D02*
X121250000Y-95250000D01*
X149500000Y-79333453D02*
X149315685Y-79149138D01*
X123096016Y-95403984D02*
X123050156Y-95358124D01*
X125237437Y-95403984D02*
X125684315Y-95850862D01*
D28*
X143517409Y-73350862D02*
X145850862Y-75684315D01*
X126815685Y-73350862D02*
X143517409Y-73350862D01*
X126225000Y-88362500D02*
X126225000Y-89475000D01*
X126583453Y-78250000D02*
X125684315Y-79149138D01*
X127000000Y-78250000D02*
X126583453Y-78250000D01*
X126225000Y-89475000D02*
X126500000Y-89750000D01*
X151649138Y-93517409D02*
X149315685Y-95850862D01*
X151649138Y-76815685D02*
X151649138Y-93517409D01*
X148184315Y-101649138D02*
X131482591Y-101649138D01*
X131482591Y-101649138D02*
X129149138Y-99315685D01*
X134965000Y-80035000D02*
X134965000Y-80000000D01*
X133158000Y-81842000D02*
X134965000Y-80035000D01*
X129500000Y-80500000D02*
X130842000Y-81842000D01*
X124421131Y-80500000D02*
X129500000Y-80500000D01*
X130842000Y-81842000D02*
X133158000Y-81842000D01*
X122975000Y-82637500D02*
X122975000Y-81946131D01*
X122975000Y-81946131D02*
X124421131Y-80500000D01*
X137500000Y-80000000D02*
X137505000Y-80000000D01*
X130653948Y-82296000D02*
X135204000Y-82296000D01*
X129357948Y-81000000D02*
X130653948Y-82296000D01*
X123625000Y-81946131D02*
X124571131Y-81000000D01*
X124571131Y-81000000D02*
X129357948Y-81000000D01*
X123625000Y-82637500D02*
X123625000Y-81946131D01*
X135204000Y-82296000D02*
X137500000Y-80000000D01*
X137295000Y-82750000D02*
X140045000Y-80000000D01*
X125575000Y-90450000D02*
X126125000Y-91000000D01*
X125575000Y-87671131D02*
X130496131Y-82750000D01*
X125575000Y-88362500D02*
X125575000Y-87671131D01*
X125575000Y-88362500D02*
X125575000Y-90450000D01*
X130496131Y-82750000D02*
X137295000Y-82750000D01*
X123000000Y-85250000D02*
X120500000Y-85250000D01*
X124275000Y-83975000D02*
X123000000Y-85250000D01*
X124275000Y-82637500D02*
X124275000Y-83975000D01*
X122770000Y-86230000D02*
X117000000Y-86230000D01*
X124925000Y-84075000D02*
X122770000Y-86230000D01*
X124925000Y-82637500D02*
X124925000Y-84075000D01*
D30*
X117000000Y-86500000D02*
X117000000Y-86230000D01*
X128175000Y-83225000D02*
X128450000Y-83500000D01*
X128175000Y-82637500D02*
X128175000Y-83225000D01*
X127525000Y-83925000D02*
X127450000Y-84000000D01*
X127525000Y-82637500D02*
X127525000Y-83925000D01*
X126419218Y-83969218D02*
X126875000Y-83513437D01*
X126875000Y-83513437D02*
X126875000Y-82637500D01*
D28*
X128175000Y-88362500D02*
X129862500Y-88362500D01*
X129862500Y-88362500D02*
X132000000Y-90500000D01*
X132000000Y-90500000D02*
X135230000Y-90500000D01*
X126225000Y-82637500D02*
X126225000Y-81946131D01*
X126225000Y-81946131D02*
X126671131Y-81500000D01*
D30*
X117000000Y-83690000D02*
X118190000Y-82500000D01*
D28*
X126671131Y-81500000D02*
X127250000Y-81500000D01*
X128500000Y-81500000D02*
X129500000Y-82500000D01*
D30*
X118190000Y-82500000D02*
X121500000Y-82500000D01*
D28*
X127250000Y-81500000D02*
X128500000Y-81500000D01*
D27*
X137770000Y-93320000D02*
X137950000Y-93500000D01*
X138000000Y-95675000D02*
X138000000Y-93550000D01*
X137770000Y-90500000D02*
X137770000Y-93320000D01*
X138000000Y-93550000D02*
X137950000Y-93500000D01*
G04 #@! TA.AperFunction,Conductor*
G36*
X154987103Y-65256921D02*
G01*
X155000000Y-65259486D01*
X155012170Y-65257065D01*
X155022599Y-65257065D01*
X155035735Y-65256060D01*
X155356412Y-65270061D01*
X155408103Y-65272318D01*
X155419051Y-65273276D01*
X155818604Y-65325878D01*
X155829413Y-65327785D01*
X156222854Y-65415008D01*
X156233471Y-65417853D01*
X156617813Y-65539036D01*
X156628128Y-65542789D01*
X157000468Y-65697017D01*
X157010412Y-65701655D01*
X157295219Y-65849916D01*
X157367867Y-65887734D01*
X157377387Y-65893230D01*
X157717262Y-66109755D01*
X157726266Y-66116059D01*
X158045993Y-66361393D01*
X158054397Y-66368445D01*
X158130501Y-66438182D01*
X158351519Y-66640709D01*
X158359291Y-66648481D01*
X158470515Y-66769860D01*
X158631555Y-66945603D01*
X158638607Y-66954007D01*
X158768743Y-67123604D01*
X158883941Y-67273734D01*
X158890245Y-67282738D01*
X159106770Y-67622613D01*
X159112265Y-67632132D01*
X159258292Y-67912645D01*
X159298341Y-67989579D01*
X159302983Y-67999532D01*
X159457208Y-68371865D01*
X159460964Y-68382187D01*
X159496858Y-68496026D01*
X159582147Y-68766528D01*
X159584992Y-68777145D01*
X159665279Y-69139295D01*
X159672214Y-69170579D01*
X159674122Y-69181396D01*
X159682962Y-69248543D01*
X159726724Y-69580948D01*
X159727682Y-69591898D01*
X159743940Y-69964265D01*
X159742935Y-69977401D01*
X159742935Y-69987830D01*
X159740514Y-70000000D01*
X159742935Y-70012170D01*
X159743079Y-70012894D01*
X159745500Y-70037476D01*
X159745500Y-104962524D01*
X159743079Y-104987103D01*
X159740514Y-105000000D01*
X159742935Y-105012170D01*
X159742935Y-105022599D01*
X159743940Y-105035735D01*
X159727682Y-105408102D01*
X159726724Y-105419052D01*
X159674123Y-105818596D01*
X159672215Y-105829413D01*
X159623209Y-106050468D01*
X159584992Y-106222854D01*
X159582147Y-106233471D01*
X159466352Y-106600728D01*
X159460967Y-106617806D01*
X159457211Y-106628128D01*
X159389146Y-106792453D01*
X159302987Y-107000459D01*
X159298345Y-107010412D01*
X159257601Y-107088681D01*
X159112266Y-107367867D01*
X159106770Y-107377387D01*
X158890245Y-107717262D01*
X158883941Y-107726266D01*
X158638607Y-108045993D01*
X158631555Y-108054397D01*
X158495419Y-108202962D01*
X158359291Y-108351519D01*
X158351519Y-108359291D01*
X158202962Y-108495420D01*
X158054397Y-108631555D01*
X158045993Y-108638607D01*
X157811664Y-108818413D01*
X157726266Y-108883941D01*
X157717262Y-108890245D01*
X157377387Y-109106770D01*
X157367868Y-109112265D01*
X157010412Y-109298345D01*
X157000468Y-109302983D01*
X156628128Y-109457211D01*
X156617813Y-109460964D01*
X156233472Y-109582147D01*
X156222855Y-109584992D01*
X155829413Y-109672215D01*
X155818604Y-109674122D01*
X155419052Y-109726724D01*
X155408103Y-109727682D01*
X155356412Y-109729939D01*
X155035735Y-109743940D01*
X155022599Y-109742935D01*
X155012170Y-109742935D01*
X155000000Y-109740514D01*
X154987103Y-109743079D01*
X154962524Y-109745500D01*
X120037476Y-109745500D01*
X120012897Y-109743079D01*
X120000000Y-109740514D01*
X119987830Y-109742935D01*
X119977401Y-109742935D01*
X119964265Y-109743940D01*
X119643588Y-109729939D01*
X119591897Y-109727682D01*
X119580948Y-109726724D01*
X119181396Y-109674122D01*
X119170587Y-109672215D01*
X118777145Y-109584992D01*
X118766528Y-109582147D01*
X118382187Y-109460964D01*
X118371872Y-109457211D01*
X117999532Y-109302983D01*
X117989588Y-109298345D01*
X117632132Y-109112265D01*
X117622613Y-109106770D01*
X117282738Y-108890245D01*
X117273734Y-108883941D01*
X117188336Y-108818413D01*
X116954007Y-108638607D01*
X116945603Y-108631555D01*
X116797038Y-108495420D01*
X116648481Y-108359291D01*
X116640709Y-108351519D01*
X116504581Y-108202962D01*
X116368445Y-108054397D01*
X116361393Y-108045993D01*
X116116059Y-107726266D01*
X116109755Y-107717262D01*
X115893230Y-107377387D01*
X115887734Y-107367867D01*
X115742399Y-107088681D01*
X115701655Y-107010412D01*
X115697013Y-107000459D01*
X115610855Y-106792453D01*
X115542789Y-106628128D01*
X115539033Y-106617806D01*
X115533649Y-106600728D01*
X115417853Y-106233471D01*
X115415008Y-106222854D01*
X115376791Y-106050468D01*
X115327785Y-105829413D01*
X115325877Y-105818596D01*
X115273276Y-105419052D01*
X115272318Y-105408102D01*
X115256060Y-105035735D01*
X115257065Y-105022599D01*
X115257065Y-105012170D01*
X115259486Y-105000000D01*
X117740663Y-105000000D01*
X117740933Y-105004119D01*
X117754606Y-105212723D01*
X117759992Y-105294903D01*
X117760796Y-105298943D01*
X117760796Y-105298946D01*
X117787717Y-105434284D01*
X117817648Y-105584759D01*
X117818973Y-105588663D01*
X117818974Y-105588666D01*
X117901874Y-105832881D01*
X117912645Y-105864611D01*
X118043357Y-106129668D01*
X118207547Y-106375397D01*
X118402407Y-106597593D01*
X118624603Y-106792453D01*
X118870331Y-106956643D01*
X118874030Y-106958467D01*
X118874035Y-106958470D01*
X118959181Y-107000459D01*
X119135389Y-107087355D01*
X119139294Y-107088680D01*
X119139295Y-107088681D01*
X119411334Y-107181026D01*
X119411337Y-107181027D01*
X119415241Y-107182352D01*
X119419280Y-107183155D01*
X119419286Y-107183157D01*
X119701054Y-107239204D01*
X119701057Y-107239204D01*
X119705097Y-107240008D01*
X119709208Y-107240277D01*
X119709212Y-107240278D01*
X119995881Y-107259067D01*
X120000000Y-107259337D01*
X120004119Y-107259067D01*
X120290788Y-107240278D01*
X120290792Y-107240277D01*
X120294903Y-107240008D01*
X120298943Y-107239204D01*
X120298946Y-107239204D01*
X120580714Y-107183157D01*
X120580720Y-107183155D01*
X120584759Y-107182352D01*
X120588663Y-107181027D01*
X120588666Y-107181026D01*
X120860705Y-107088681D01*
X120860706Y-107088680D01*
X120864611Y-107087355D01*
X121040819Y-107000459D01*
X121125965Y-106958470D01*
X121125970Y-106958467D01*
X121129669Y-106956643D01*
X121375397Y-106792453D01*
X121597593Y-106597593D01*
X121792453Y-106375397D01*
X121956643Y-106129668D01*
X122087355Y-105864611D01*
X122098126Y-105832881D01*
X122181026Y-105588666D01*
X122181027Y-105588663D01*
X122182352Y-105584759D01*
X122212284Y-105434284D01*
X122239204Y-105298946D01*
X122239204Y-105298943D01*
X122240008Y-105294903D01*
X122245395Y-105212723D01*
X122259067Y-105004119D01*
X122259337Y-105000000D01*
X152740663Y-105000000D01*
X152740933Y-105004119D01*
X152754606Y-105212723D01*
X152759992Y-105294903D01*
X152760796Y-105298943D01*
X152760796Y-105298946D01*
X152787717Y-105434284D01*
X152817648Y-105584759D01*
X152818973Y-105588663D01*
X152818974Y-105588666D01*
X152901874Y-105832881D01*
X152912645Y-105864611D01*
X153043357Y-106129668D01*
X153207547Y-106375397D01*
X153402407Y-106597593D01*
X153624603Y-106792453D01*
X153870331Y-106956643D01*
X153874030Y-106958467D01*
X153874035Y-106958470D01*
X153959181Y-107000459D01*
X154135389Y-107087355D01*
X154139294Y-107088680D01*
X154139295Y-107088681D01*
X154411334Y-107181026D01*
X154411337Y-107181027D01*
X154415241Y-107182352D01*
X154419280Y-107183155D01*
X154419286Y-107183157D01*
X154701054Y-107239204D01*
X154701057Y-107239204D01*
X154705097Y-107240008D01*
X154709208Y-107240277D01*
X154709212Y-107240278D01*
X154995881Y-107259067D01*
X155000000Y-107259337D01*
X155004119Y-107259067D01*
X155290788Y-107240278D01*
X155290792Y-107240277D01*
X155294903Y-107240008D01*
X155298943Y-107239204D01*
X155298946Y-107239204D01*
X155580714Y-107183157D01*
X155580720Y-107183155D01*
X155584759Y-107182352D01*
X155588663Y-107181027D01*
X155588666Y-107181026D01*
X155860705Y-107088681D01*
X155860706Y-107088680D01*
X155864611Y-107087355D01*
X156040819Y-107000459D01*
X156125965Y-106958470D01*
X156125970Y-106958467D01*
X156129669Y-106956643D01*
X156375397Y-106792453D01*
X156597593Y-106597593D01*
X156792453Y-106375397D01*
X156956643Y-106129668D01*
X157087355Y-105864611D01*
X157098126Y-105832881D01*
X157181026Y-105588666D01*
X157181027Y-105588663D01*
X157182352Y-105584759D01*
X157212284Y-105434284D01*
X157239204Y-105298946D01*
X157239204Y-105298943D01*
X157240008Y-105294903D01*
X157245395Y-105212723D01*
X157259067Y-105004119D01*
X157259337Y-105000000D01*
X157240008Y-104705097D01*
X157197156Y-104489665D01*
X157183157Y-104419286D01*
X157183155Y-104419280D01*
X157182352Y-104415241D01*
X157087355Y-104135389D01*
X156956643Y-103870332D01*
X156792453Y-103624603D01*
X156597593Y-103402407D01*
X156375397Y-103207547D01*
X156129669Y-103043357D01*
X156125970Y-103041533D01*
X156125965Y-103041530D01*
X155989991Y-102974475D01*
X155864611Y-102912645D01*
X155860705Y-102911319D01*
X155588666Y-102818974D01*
X155588663Y-102818973D01*
X155584759Y-102817648D01*
X155580720Y-102816845D01*
X155580714Y-102816843D01*
X155298946Y-102760796D01*
X155298943Y-102760796D01*
X155294903Y-102759992D01*
X155290792Y-102759723D01*
X155290788Y-102759722D01*
X155004119Y-102740933D01*
X155000000Y-102740663D01*
X154995881Y-102740933D01*
X154709212Y-102759722D01*
X154709208Y-102759723D01*
X154705097Y-102759992D01*
X154701057Y-102760796D01*
X154701054Y-102760796D01*
X154419286Y-102816843D01*
X154419280Y-102816845D01*
X154415241Y-102817648D01*
X154411337Y-102818973D01*
X154411334Y-102818974D01*
X154139295Y-102911319D01*
X154135389Y-102912645D01*
X154010143Y-102974410D01*
X153874036Y-103041530D01*
X153874031Y-103041533D01*
X153870332Y-103043357D01*
X153624603Y-103207547D01*
X153402407Y-103402407D01*
X153207547Y-103624603D01*
X153043357Y-103870332D01*
X152912645Y-104135389D01*
X152817648Y-104415241D01*
X152816845Y-104419280D01*
X152816843Y-104419286D01*
X152802844Y-104489665D01*
X152759992Y-104705097D01*
X152743658Y-104954308D01*
X152740663Y-105000000D01*
X122259337Y-105000000D01*
X122240008Y-104705097D01*
X122197156Y-104489665D01*
X122183157Y-104419286D01*
X122183155Y-104419280D01*
X122182352Y-104415241D01*
X122087355Y-104135389D01*
X121956643Y-103870332D01*
X121792453Y-103624603D01*
X121597593Y-103402407D01*
X121375397Y-103207547D01*
X121129669Y-103043357D01*
X121125970Y-103041533D01*
X121125965Y-103041530D01*
X120989991Y-102974475D01*
X120864611Y-102912645D01*
X120860705Y-102911319D01*
X120588666Y-102818974D01*
X120588663Y-102818973D01*
X120584759Y-102817648D01*
X120580720Y-102816845D01*
X120580714Y-102816843D01*
X120298946Y-102760796D01*
X120298943Y-102760796D01*
X120294903Y-102759992D01*
X120290792Y-102759723D01*
X120290788Y-102759722D01*
X120004119Y-102740933D01*
X120000000Y-102740663D01*
X119995881Y-102740933D01*
X119709212Y-102759722D01*
X119709208Y-102759723D01*
X119705097Y-102759992D01*
X119701057Y-102760796D01*
X119701054Y-102760796D01*
X119419286Y-102816843D01*
X119419280Y-102816845D01*
X119415241Y-102817648D01*
X119411337Y-102818973D01*
X119411334Y-102818974D01*
X119139295Y-102911319D01*
X119135389Y-102912645D01*
X119010143Y-102974410D01*
X118874036Y-103041530D01*
X118874031Y-103041533D01*
X118870332Y-103043357D01*
X118624603Y-103207547D01*
X118402407Y-103402407D01*
X118207547Y-103624603D01*
X118043357Y-103870332D01*
X117912645Y-104135389D01*
X117817648Y-104415241D01*
X117816845Y-104419280D01*
X117816843Y-104419286D01*
X117802844Y-104489665D01*
X117759992Y-104705097D01*
X117743658Y-104954308D01*
X117740663Y-105000000D01*
X115259486Y-105000000D01*
X115256921Y-104987103D01*
X115254500Y-104962524D01*
X115254500Y-102329092D01*
X126504100Y-102329092D01*
X126504231Y-102330925D01*
X126508482Y-102337540D01*
X126861522Y-102690580D01*
X126871051Y-102698401D01*
X126918392Y-102730034D01*
X126940882Y-102739350D01*
X127015646Y-102754222D01*
X127039988Y-102754222D01*
X127114754Y-102739350D01*
X127137239Y-102730036D01*
X127184590Y-102698397D01*
X127194105Y-102690588D01*
X127331792Y-102552900D01*
X127339403Y-102538962D01*
X127339271Y-102537126D01*
X127335022Y-102530514D01*
X126828497Y-102023989D01*
X126814553Y-102016375D01*
X126812720Y-102016506D01*
X126806105Y-102020757D01*
X126511714Y-102315148D01*
X126504100Y-102329092D01*
X115254500Y-102329092D01*
X115254500Y-101449177D01*
X125710601Y-101449177D01*
X125725473Y-101523943D01*
X125734787Y-101546428D01*
X125766426Y-101593779D01*
X125774235Y-101603294D01*
X126124055Y-101953113D01*
X126137993Y-101960724D01*
X126139829Y-101960592D01*
X126146441Y-101956343D01*
X126440834Y-101661950D01*
X126447212Y-101650270D01*
X127182922Y-101650270D01*
X127183053Y-101652103D01*
X127187304Y-101658718D01*
X127693827Y-102165241D01*
X127707771Y-102172855D01*
X127709604Y-102172724D01*
X127716219Y-102168473D01*
X127857127Y-102027565D01*
X127864948Y-102018036D01*
X127896581Y-101970695D01*
X127905897Y-101948205D01*
X127920769Y-101873441D01*
X127920769Y-101849099D01*
X127905897Y-101774333D01*
X127896583Y-101751848D01*
X127864944Y-101704497D01*
X127857135Y-101694982D01*
X127507315Y-101345163D01*
X127493377Y-101337552D01*
X127491541Y-101337684D01*
X127484929Y-101341933D01*
X127190536Y-101636326D01*
X127182922Y-101650270D01*
X126447212Y-101650270D01*
X126448448Y-101648006D01*
X126448317Y-101646173D01*
X126444066Y-101639558D01*
X125937543Y-101133035D01*
X125923599Y-101125421D01*
X125921766Y-101125552D01*
X125915151Y-101129803D01*
X125774243Y-101270711D01*
X125766422Y-101280240D01*
X125734789Y-101327581D01*
X125725473Y-101350071D01*
X125710601Y-101424835D01*
X125710601Y-101449177D01*
X115254500Y-101449177D01*
X115254500Y-100759314D01*
X126291967Y-100759314D01*
X126292099Y-100761150D01*
X126296348Y-100767762D01*
X126802873Y-101274287D01*
X126816817Y-101281901D01*
X126818650Y-101281770D01*
X126825265Y-101277519D01*
X127119656Y-100983128D01*
X127127270Y-100969184D01*
X127127139Y-100967351D01*
X127122888Y-100960736D01*
X126769848Y-100607696D01*
X126760319Y-100599875D01*
X126712978Y-100568242D01*
X126690488Y-100558926D01*
X126615724Y-100544054D01*
X126591382Y-100544054D01*
X126516616Y-100558926D01*
X126494131Y-100568240D01*
X126446780Y-100599879D01*
X126437265Y-100607688D01*
X126299578Y-100745376D01*
X126291967Y-100759314D01*
X115254500Y-100759314D01*
X115254500Y-97972183D01*
X122242848Y-97972183D01*
X122245269Y-97984354D01*
X122260085Y-98058838D01*
X122262600Y-98071484D01*
X122269493Y-98081800D01*
X122301211Y-98129271D01*
X122301214Y-98129275D01*
X122304650Y-98134417D01*
X122309027Y-98138794D01*
X122653618Y-98483384D01*
X123400760Y-99230525D01*
X123405904Y-99233962D01*
X123453372Y-99265681D01*
X123453374Y-99265682D01*
X123463693Y-99272577D01*
X123475867Y-99274998D01*
X123475868Y-99274999D01*
X123550823Y-99289908D01*
X123562994Y-99292329D01*
X123575165Y-99289908D01*
X123650125Y-99274998D01*
X123650126Y-99274997D01*
X123662295Y-99272577D01*
X123682144Y-99259315D01*
X123720082Y-99233966D01*
X123720087Y-99233962D01*
X123725228Y-99230527D01*
X123852202Y-99103553D01*
X128041124Y-99103553D01*
X128060876Y-99202854D01*
X128067769Y-99213170D01*
X128099487Y-99260641D01*
X128099489Y-99260643D01*
X128102926Y-99265787D01*
X128107303Y-99270164D01*
X128452083Y-99614943D01*
X129199036Y-100361895D01*
X129204180Y-100365332D01*
X129251648Y-100397051D01*
X129251650Y-100397052D01*
X129261969Y-100403947D01*
X129274143Y-100406368D01*
X129274144Y-100406369D01*
X129349099Y-100421278D01*
X129361270Y-100423699D01*
X129373441Y-100421278D01*
X129448401Y-100406368D01*
X129448402Y-100406367D01*
X129460571Y-100403947D01*
X129470886Y-100397055D01*
X129470888Y-100397054D01*
X129498483Y-100378615D01*
X129516849Y-100366344D01*
X129584601Y-100345129D01*
X129653068Y-100363912D01*
X129675945Y-100382014D01*
X130426965Y-101133035D01*
X131174547Y-101880617D01*
X131189906Y-101899633D01*
X131190872Y-101900694D01*
X131196520Y-101909442D01*
X131204697Y-101915888D01*
X131223063Y-101930367D01*
X131227538Y-101934344D01*
X131227599Y-101934273D01*
X131231556Y-101937626D01*
X131235239Y-101941309D01*
X131239474Y-101944335D01*
X131239476Y-101944337D01*
X131251027Y-101952591D01*
X131255773Y-101956154D01*
X131296261Y-101988072D01*
X131304948Y-101991123D01*
X131312434Y-101996472D01*
X131322410Y-101999455D01*
X131322411Y-101999456D01*
X131361802Y-102011236D01*
X131367434Y-102013066D01*
X131416093Y-102030154D01*
X131421682Y-102030638D01*
X131424393Y-102030638D01*
X131427060Y-102030753D01*
X131427123Y-102030772D01*
X131427116Y-102030946D01*
X131427862Y-102030993D01*
X131434115Y-102032863D01*
X131483974Y-102030904D01*
X131488269Y-102030735D01*
X131493216Y-102030638D01*
X147093046Y-102030638D01*
X147161167Y-102050640D01*
X147182141Y-102067542D01*
X147651727Y-102537126D01*
X147809949Y-102695348D01*
X147815093Y-102698785D01*
X147862561Y-102730504D01*
X147862563Y-102730505D01*
X147872882Y-102737400D01*
X147885056Y-102739821D01*
X147885057Y-102739822D01*
X147960012Y-102754731D01*
X147972183Y-102757152D01*
X147984354Y-102754731D01*
X148059314Y-102739821D01*
X148059315Y-102739820D01*
X148071484Y-102737400D01*
X148091333Y-102724138D01*
X148129271Y-102698789D01*
X148129276Y-102698785D01*
X148134417Y-102695350D01*
X149230525Y-101599240D01*
X149243825Y-101579336D01*
X149265681Y-101546628D01*
X149265682Y-101546626D01*
X149272577Y-101536307D01*
X149275037Y-101523943D01*
X149289908Y-101449177D01*
X149292329Y-101437006D01*
X149272577Y-101337705D01*
X149259315Y-101317856D01*
X149233966Y-101279918D01*
X149233963Y-101279914D01*
X149230527Y-101274772D01*
X148558681Y-100602928D01*
X148506769Y-100568240D01*
X148506069Y-100567772D01*
X148506067Y-100567771D01*
X148495748Y-100560876D01*
X148483574Y-100558455D01*
X148483573Y-100558454D01*
X148408618Y-100543545D01*
X148396447Y-100541124D01*
X148384276Y-100543545D01*
X148309316Y-100558455D01*
X148309315Y-100558456D01*
X148297146Y-100560876D01*
X148286125Y-100568240D01*
X148239359Y-100599487D01*
X148239355Y-100599490D01*
X148234213Y-100602926D01*
X148229836Y-100607303D01*
X147606407Y-101230733D01*
X147544094Y-101264758D01*
X147517311Y-101267638D01*
X131692803Y-101267638D01*
X131624682Y-101247636D01*
X131603708Y-101230733D01*
X130215466Y-99842491D01*
X130187855Y-99791927D01*
X140746000Y-99791927D01*
X140746369Y-99798741D01*
X140751510Y-99846066D01*
X140755135Y-99861311D01*
X140797375Y-99973988D01*
X140805908Y-99989575D01*
X140877434Y-100085010D01*
X140889990Y-100097566D01*
X140985425Y-100169092D01*
X141001012Y-100177625D01*
X141113689Y-100219865D01*
X141128934Y-100223490D01*
X141176259Y-100228631D01*
X141177004Y-100228671D01*
X141191124Y-100224525D01*
X141192329Y-100223135D01*
X141194000Y-100215452D01*
X141194000Y-99774115D01*
X141189525Y-99758876D01*
X141188135Y-99757671D01*
X141180452Y-99756000D01*
X140764115Y-99756000D01*
X140748876Y-99760475D01*
X140747671Y-99761865D01*
X140746000Y-99769548D01*
X140746000Y-99791927D01*
X130187855Y-99791927D01*
X130181440Y-99780179D01*
X130186505Y-99709364D01*
X130199795Y-99683396D01*
X130237400Y-99627118D01*
X130257152Y-99527817D01*
X130237400Y-99428516D01*
X130224138Y-99408667D01*
X130198789Y-99370729D01*
X130198786Y-99370725D01*
X130195350Y-99365583D01*
X130055652Y-99225885D01*
X140746000Y-99225885D01*
X140750475Y-99241124D01*
X140751865Y-99242329D01*
X140759548Y-99244000D01*
X141175885Y-99244000D01*
X141191124Y-99239525D01*
X141192329Y-99238135D01*
X141194000Y-99230452D01*
X141194000Y-98789115D01*
X141189525Y-98773876D01*
X141188135Y-98772671D01*
X141180974Y-98771114D01*
X141176259Y-98771369D01*
X141128934Y-98776510D01*
X141113689Y-98780135D01*
X141001012Y-98822375D01*
X140985425Y-98830908D01*
X140889990Y-98902434D01*
X140877434Y-98914990D01*
X140805908Y-99010425D01*
X140797375Y-99026012D01*
X140755135Y-99138689D01*
X140751510Y-99153934D01*
X140746369Y-99201259D01*
X140746000Y-99208073D01*
X140746000Y-99225885D01*
X130055652Y-99225885D01*
X129921149Y-99091382D01*
X129103615Y-98273850D01*
X129099240Y-98269475D01*
X129054170Y-98239359D01*
X129046628Y-98234319D01*
X129046626Y-98234318D01*
X129036307Y-98227423D01*
X129024133Y-98225002D01*
X129024132Y-98225001D01*
X128949177Y-98210092D01*
X128937006Y-98207671D01*
X128924835Y-98210092D01*
X128849875Y-98225002D01*
X128849874Y-98225003D01*
X128837705Y-98227423D01*
X128819841Y-98239359D01*
X128779918Y-98266034D01*
X128779914Y-98266037D01*
X128774772Y-98269473D01*
X128102928Y-98941319D01*
X128089628Y-98961223D01*
X128067772Y-98993931D01*
X128067771Y-98993933D01*
X128060876Y-99004252D01*
X128058455Y-99016426D01*
X128058454Y-99016427D01*
X128049298Y-99062457D01*
X128041124Y-99103553D01*
X123852202Y-99103553D01*
X123893298Y-99062457D01*
X124392697Y-98563056D01*
X124397072Y-98558681D01*
X124427057Y-98513807D01*
X124432228Y-98506069D01*
X124432229Y-98506067D01*
X124439124Y-98495748D01*
X124441584Y-98483384D01*
X124456455Y-98408618D01*
X124458876Y-98396447D01*
X124449692Y-98350273D01*
X124441545Y-98309316D01*
X124441544Y-98309315D01*
X124439124Y-98297146D01*
X124400728Y-98239681D01*
X124400513Y-98239359D01*
X124400510Y-98239355D01*
X124397074Y-98234213D01*
X124122873Y-97960012D01*
X123305339Y-97142480D01*
X123300964Y-97138105D01*
X123249052Y-97103417D01*
X123248352Y-97102949D01*
X123248350Y-97102948D01*
X123238031Y-97096053D01*
X123225857Y-97093632D01*
X123225856Y-97093631D01*
X123150901Y-97078722D01*
X123138730Y-97076301D01*
X123126559Y-97078722D01*
X123051599Y-97093632D01*
X123051598Y-97093633D01*
X123039429Y-97096053D01*
X123028408Y-97103417D01*
X122981642Y-97134664D01*
X122981638Y-97134667D01*
X122976496Y-97138103D01*
X122972119Y-97142480D01*
X122796071Y-97318529D01*
X122304652Y-97809949D01*
X122299219Y-97818080D01*
X122269496Y-97862561D01*
X122269495Y-97862563D01*
X122262600Y-97872882D01*
X122260179Y-97885056D01*
X122260178Y-97885057D01*
X122255782Y-97907158D01*
X122242848Y-97972183D01*
X115254500Y-97972183D01*
X115254500Y-97179953D01*
X121688414Y-97179953D01*
X121688546Y-97181789D01*
X121692795Y-97188401D01*
X121708619Y-97204225D01*
X121713696Y-97208781D01*
X121750798Y-97238611D01*
X121764145Y-97246830D01*
X121873682Y-97296635D01*
X121890742Y-97301624D01*
X122008795Y-97318529D01*
X122026560Y-97318529D01*
X122144613Y-97301624D01*
X122161673Y-97296634D01*
X122271211Y-97246830D01*
X122284558Y-97238611D01*
X122321660Y-97208781D01*
X122322209Y-97208288D01*
X122329264Y-97195368D01*
X122329133Y-97193535D01*
X122324882Y-97186921D01*
X122012808Y-96874847D01*
X121998870Y-96867236D01*
X121997034Y-96867368D01*
X121990422Y-96871617D01*
X121696025Y-97166015D01*
X121688414Y-97179953D01*
X115254500Y-97179953D01*
X115254500Y-91280964D01*
X115891148Y-91280964D01*
X115904424Y-91483522D01*
X115905845Y-91489118D01*
X115905846Y-91489123D01*
X115947781Y-91654238D01*
X115954392Y-91680269D01*
X115956809Y-91685512D01*
X116015716Y-91813292D01*
X116039377Y-91864616D01*
X116156533Y-92030389D01*
X116301938Y-92172035D01*
X116470720Y-92284812D01*
X116476023Y-92287090D01*
X116476026Y-92287092D01*
X116564707Y-92325192D01*
X116657228Y-92364942D01*
X116730244Y-92381464D01*
X116849579Y-92408467D01*
X116849584Y-92408468D01*
X116855216Y-92409742D01*
X116860987Y-92409969D01*
X116860989Y-92409969D01*
X116920756Y-92412317D01*
X117058053Y-92417712D01*
X117158499Y-92403148D01*
X117253231Y-92389413D01*
X117253236Y-92389412D01*
X117258945Y-92388584D01*
X117264409Y-92386729D01*
X117264414Y-92386728D01*
X117445693Y-92325192D01*
X117445698Y-92325190D01*
X117451165Y-92323334D01*
X117628276Y-92224147D01*
X117689151Y-92173518D01*
X117779913Y-92098031D01*
X117784345Y-92094345D01*
X117843436Y-92023296D01*
X117910453Y-91942718D01*
X117910455Y-91942715D01*
X117914147Y-91938276D01*
X117982227Y-91816710D01*
X118010510Y-91766208D01*
X118010511Y-91766206D01*
X118013334Y-91761165D01*
X118015190Y-91755698D01*
X118015192Y-91755693D01*
X118076728Y-91574414D01*
X118076729Y-91574409D01*
X118078584Y-91568945D01*
X118079412Y-91563236D01*
X118079413Y-91563231D01*
X118096991Y-91441996D01*
X118107712Y-91368053D01*
X118109232Y-91310000D01*
X118096191Y-91168072D01*
X118091187Y-91113613D01*
X118091186Y-91113610D01*
X118090658Y-91107859D01*
X118086332Y-91092520D01*
X118037125Y-90918046D01*
X118037124Y-90918044D01*
X118035557Y-90912487D01*
X118024978Y-90891033D01*
X117948331Y-90735609D01*
X117945776Y-90730428D01*
X117926498Y-90704611D01*
X117883117Y-90646518D01*
X117824320Y-90567779D01*
X117721484Y-90472718D01*
X117679503Y-90433911D01*
X117675258Y-90429987D01*
X117670375Y-90426906D01*
X117670371Y-90426903D01*
X117508464Y-90324748D01*
X117503581Y-90321667D01*
X117315039Y-90246446D01*
X117309379Y-90245320D01*
X117309375Y-90245319D01*
X117121613Y-90207971D01*
X117121610Y-90207971D01*
X117115946Y-90206844D01*
X117110171Y-90206768D01*
X117110167Y-90206768D01*
X117008793Y-90205441D01*
X116912971Y-90204187D01*
X116907274Y-90205166D01*
X116907273Y-90205166D01*
X116718607Y-90237585D01*
X116712910Y-90238564D01*
X116522463Y-90308824D01*
X116348010Y-90412612D01*
X116343670Y-90416418D01*
X116343666Y-90416421D01*
X116199733Y-90542648D01*
X116195392Y-90546455D01*
X116191817Y-90550990D01*
X116191816Y-90550991D01*
X116178581Y-90567779D01*
X116069720Y-90705869D01*
X116067031Y-90710980D01*
X116067029Y-90710983D01*
X116056246Y-90731479D01*
X115975203Y-90885515D01*
X115915007Y-91079378D01*
X115891148Y-91280964D01*
X115254500Y-91280964D01*
X115254500Y-88740964D01*
X115891148Y-88740964D01*
X115904424Y-88943522D01*
X115905845Y-88949118D01*
X115905846Y-88949123D01*
X115927508Y-89034414D01*
X115954392Y-89140269D01*
X115956809Y-89145512D01*
X115994010Y-89226208D01*
X116039377Y-89324616D01*
X116042710Y-89329332D01*
X116124135Y-89444546D01*
X116156533Y-89490389D01*
X116160675Y-89494424D01*
X116176332Y-89509676D01*
X116301938Y-89632035D01*
X116470720Y-89744812D01*
X116476023Y-89747090D01*
X116476026Y-89747092D01*
X116564707Y-89785192D01*
X116657228Y-89824942D01*
X116730244Y-89841464D01*
X116849579Y-89868467D01*
X116849584Y-89868468D01*
X116855216Y-89869742D01*
X116860987Y-89869969D01*
X116860989Y-89869969D01*
X116920756Y-89872317D01*
X117058053Y-89877712D01*
X117158499Y-89863148D01*
X117253231Y-89849413D01*
X117253236Y-89849412D01*
X117258945Y-89848584D01*
X117264409Y-89846729D01*
X117264414Y-89846728D01*
X117445693Y-89785192D01*
X117445698Y-89785190D01*
X117451165Y-89783334D01*
X117478741Y-89767891D01*
X117525683Y-89741602D01*
X117628276Y-89684147D01*
X117690934Y-89632035D01*
X117779913Y-89558031D01*
X117784345Y-89554345D01*
X117837537Y-89490389D01*
X117910453Y-89402718D01*
X117910455Y-89402715D01*
X117914147Y-89398276D01*
X117977663Y-89284860D01*
X118010510Y-89226208D01*
X118010511Y-89226206D01*
X118013334Y-89221165D01*
X118015190Y-89215698D01*
X118015192Y-89215693D01*
X118076728Y-89034414D01*
X118076729Y-89034409D01*
X118078584Y-89028945D01*
X118079412Y-89023236D01*
X118079413Y-89023231D01*
X118107179Y-88831727D01*
X118107712Y-88828053D01*
X118109232Y-88770000D01*
X118090658Y-88567859D01*
X118089090Y-88562299D01*
X118037125Y-88378046D01*
X118037124Y-88378044D01*
X118035557Y-88372487D01*
X118024978Y-88351033D01*
X117948331Y-88195609D01*
X117945776Y-88190428D01*
X117824320Y-88027779D01*
X117749789Y-87958883D01*
X117679503Y-87893911D01*
X117675258Y-87889987D01*
X117670375Y-87886906D01*
X117670371Y-87886903D01*
X117508464Y-87784748D01*
X117503581Y-87781667D01*
X117315039Y-87706446D01*
X117309379Y-87705320D01*
X117309375Y-87705319D01*
X117121613Y-87667971D01*
X117121610Y-87667971D01*
X117115946Y-87666844D01*
X117110171Y-87666768D01*
X117110167Y-87666768D01*
X117008793Y-87665441D01*
X116912971Y-87664187D01*
X116907274Y-87665166D01*
X116907273Y-87665166D01*
X116781110Y-87686845D01*
X116712910Y-87698564D01*
X116522463Y-87768824D01*
X116348010Y-87872612D01*
X116343670Y-87876418D01*
X116343666Y-87876421D01*
X116223866Y-87981484D01*
X116195392Y-88006455D01*
X116191817Y-88010990D01*
X116191816Y-88010991D01*
X116178581Y-88027779D01*
X116069720Y-88165869D01*
X116067031Y-88170980D01*
X116067029Y-88170983D01*
X116054073Y-88195609D01*
X115975203Y-88345515D01*
X115915007Y-88539378D01*
X115891148Y-88740964D01*
X115254500Y-88740964D01*
X115254500Y-86200964D01*
X115891148Y-86200964D01*
X115904424Y-86403522D01*
X115905845Y-86409118D01*
X115905846Y-86409123D01*
X115939603Y-86542039D01*
X115954392Y-86600269D01*
X115956809Y-86605512D01*
X115991944Y-86681726D01*
X116039377Y-86784616D01*
X116156533Y-86950389D01*
X116301938Y-87092035D01*
X116470720Y-87204812D01*
X116476023Y-87207090D01*
X116476026Y-87207092D01*
X116564707Y-87245192D01*
X116657228Y-87284942D01*
X116730244Y-87301464D01*
X116849579Y-87328467D01*
X116849584Y-87328468D01*
X116855216Y-87329742D01*
X116860987Y-87329969D01*
X116860989Y-87329969D01*
X116920756Y-87332317D01*
X117058053Y-87337712D01*
X117158499Y-87323148D01*
X117253231Y-87309413D01*
X117253236Y-87309412D01*
X117258945Y-87308584D01*
X117264409Y-87306729D01*
X117264414Y-87306728D01*
X117445693Y-87245192D01*
X117445698Y-87245190D01*
X117451165Y-87243334D01*
X117628276Y-87144147D01*
X117690934Y-87092035D01*
X117779913Y-87018031D01*
X117784345Y-87014345D01*
X117914147Y-86858276D01*
X118013334Y-86681165D01*
X118014336Y-86681726D01*
X118056470Y-86632155D01*
X118125597Y-86611500D01*
X122715865Y-86611500D01*
X122740164Y-86614086D01*
X122741602Y-86614154D01*
X122751780Y-86616345D01*
X122785341Y-86612373D01*
X122791320Y-86612021D01*
X122791312Y-86611928D01*
X122796490Y-86611500D01*
X122801692Y-86611500D01*
X122820846Y-86608312D01*
X122826704Y-86607478D01*
X122843318Y-86605512D01*
X122867567Y-86602642D01*
X122867568Y-86602642D01*
X122877907Y-86601418D01*
X122886206Y-86597433D01*
X122895283Y-86595922D01*
X122940651Y-86571442D01*
X122945914Y-86568761D01*
X122985250Y-86549873D01*
X122985254Y-86549870D01*
X122992398Y-86546440D01*
X122996692Y-86542830D01*
X122998624Y-86540898D01*
X123000573Y-86539111D01*
X123000626Y-86539082D01*
X123000745Y-86539212D01*
X123001313Y-86538711D01*
X123007057Y-86535612D01*
X123043867Y-86495791D01*
X123047296Y-86492226D01*
X125156479Y-84383044D01*
X125175495Y-84367685D01*
X125176556Y-84366719D01*
X125185304Y-84361071D01*
X125206229Y-84334528D01*
X125210208Y-84330050D01*
X125210137Y-84329990D01*
X125213490Y-84326033D01*
X125217171Y-84322352D01*
X125228469Y-84306543D01*
X125232032Y-84301798D01*
X125257485Y-84269510D01*
X125263934Y-84261330D01*
X125266984Y-84252645D01*
X125272334Y-84245158D01*
X125287109Y-84195753D01*
X125288930Y-84190150D01*
X125303388Y-84148981D01*
X125306016Y-84141498D01*
X125306500Y-84135909D01*
X125306500Y-84133196D01*
X125306615Y-84130531D01*
X125306634Y-84130468D01*
X125306808Y-84130475D01*
X125306855Y-84129729D01*
X125308725Y-84123476D01*
X125306597Y-84069322D01*
X125306500Y-84064375D01*
X125306500Y-83754854D01*
X125326502Y-83686733D01*
X125380158Y-83640240D01*
X125440556Y-83629377D01*
X125441398Y-83629500D01*
X125664785Y-83629500D01*
X125732906Y-83649502D01*
X125779399Y-83703158D01*
X125789503Y-83773432D01*
X125784949Y-83790736D01*
X125785273Y-83790819D01*
X125783384Y-83798176D01*
X125780624Y-83805255D01*
X125779632Y-83812788D01*
X125779632Y-83812789D01*
X125764514Y-83927625D01*
X125759947Y-83962314D01*
X125768639Y-84041042D01*
X125771341Y-84065512D01*
X125777331Y-84119771D01*
X125779941Y-84126902D01*
X125779941Y-84126904D01*
X125829134Y-84261330D01*
X125831771Y-84268537D01*
X125836007Y-84274840D01*
X125836007Y-84274841D01*
X125908717Y-84383044D01*
X125920126Y-84400023D01*
X125925745Y-84405136D01*
X125925746Y-84405137D01*
X126001805Y-84474345D01*
X126037294Y-84506637D01*
X126176511Y-84582226D01*
X126329740Y-84622425D01*
X126413695Y-84623744D01*
X126480537Y-84624794D01*
X126480540Y-84624794D01*
X126488134Y-84624913D01*
X126642550Y-84589547D01*
X126738607Y-84541236D01*
X126777290Y-84521781D01*
X126777293Y-84521779D01*
X126784073Y-84518369D01*
X126806107Y-84499550D01*
X126835303Y-84474615D01*
X126900093Y-84445585D01*
X126970293Y-84456190D01*
X127001932Y-84477233D01*
X127068076Y-84537419D01*
X127207293Y-84613008D01*
X127360522Y-84653207D01*
X127444477Y-84654526D01*
X127511319Y-84655576D01*
X127511322Y-84655576D01*
X127518916Y-84655695D01*
X127673332Y-84620329D01*
X127776821Y-84568280D01*
X127805266Y-84553974D01*
X127875111Y-84541236D01*
X127940755Y-84568280D01*
X127981356Y-84626521D01*
X127984025Y-84697468D01*
X127950975Y-84755634D01*
X126511379Y-86195229D01*
X125343521Y-87363087D01*
X125324505Y-87378446D01*
X125323443Y-87379412D01*
X125314696Y-87385060D01*
X125313028Y-87387176D01*
X125253226Y-87416260D01*
X125176941Y-87405214D01*
X125136322Y-87385359D01*
X125133847Y-87384594D01*
X125129005Y-87385281D01*
X125125000Y-87398872D01*
X125125000Y-87651411D01*
X125123680Y-87669600D01*
X125120500Y-87691398D01*
X125120500Y-89033602D01*
X125121170Y-89038151D01*
X125121170Y-89038156D01*
X125123657Y-89055048D01*
X125125000Y-89073398D01*
X125125000Y-89326104D01*
X125129475Y-89341343D01*
X125150013Y-89359140D01*
X125188396Y-89418866D01*
X125193500Y-89454364D01*
X125193500Y-90152097D01*
X125173498Y-90220218D01*
X125119842Y-90266711D01*
X125053893Y-90277360D01*
X124998743Y-90271369D01*
X124997996Y-90271329D01*
X124983876Y-90275475D01*
X124982671Y-90276865D01*
X124981000Y-90284548D01*
X124981000Y-91130000D01*
X124960998Y-91198121D01*
X124907342Y-91244614D01*
X124855000Y-91256000D01*
X124595000Y-91256000D01*
X124526879Y-91235998D01*
X124480386Y-91182342D01*
X124469000Y-91130000D01*
X124469000Y-90297712D01*
X124489002Y-90229591D01*
X124505905Y-90208617D01*
X124506480Y-90208042D01*
X124525489Y-90192689D01*
X124526552Y-90191722D01*
X124535304Y-90186071D01*
X124556229Y-90159528D01*
X124560206Y-90155053D01*
X124560135Y-90154992D01*
X124563488Y-90151035D01*
X124567171Y-90147352D01*
X124578455Y-90131561D01*
X124582018Y-90126815D01*
X124607488Y-90094507D01*
X124607489Y-90094506D01*
X124613934Y-90086330D01*
X124616985Y-90077643D01*
X124622334Y-90070157D01*
X124637099Y-90020786D01*
X124638933Y-90015141D01*
X124656016Y-89966498D01*
X124656500Y-89960909D01*
X124656500Y-89958198D01*
X124656615Y-89955531D01*
X124656634Y-89955468D01*
X124656808Y-89955475D01*
X124656855Y-89954729D01*
X124658725Y-89948476D01*
X124656597Y-89894322D01*
X124656500Y-89889375D01*
X124656500Y-89454379D01*
X124676502Y-89386258D01*
X124700169Y-89358997D01*
X124720481Y-89341464D01*
X124725000Y-89326128D01*
X124725000Y-89073589D01*
X124726320Y-89055400D01*
X124728840Y-89038128D01*
X124728840Y-89038124D01*
X124729500Y-89033602D01*
X124729500Y-87691398D01*
X124726343Y-87669952D01*
X124725000Y-87651602D01*
X124725000Y-87398896D01*
X124721047Y-87385434D01*
X124715852Y-87384696D01*
X124713076Y-87385559D01*
X124656130Y-87413518D01*
X124586167Y-87425586D01*
X124545266Y-87413615D01*
X124515154Y-87398896D01*
X124477677Y-87380577D01*
X124447355Y-87376153D01*
X124413128Y-87371160D01*
X124413124Y-87371160D01*
X124408602Y-87370500D01*
X124141398Y-87370500D01*
X124136848Y-87371170D01*
X124136845Y-87371170D01*
X124081408Y-87379331D01*
X124081407Y-87379331D01*
X124071722Y-87380757D01*
X124062930Y-87385074D01*
X124062929Y-87385074D01*
X124005560Y-87413240D01*
X123935597Y-87425308D01*
X123894697Y-87413337D01*
X123878079Y-87405214D01*
X123827677Y-87380577D01*
X123797355Y-87376153D01*
X123763128Y-87371160D01*
X123763124Y-87371160D01*
X123758602Y-87370500D01*
X123491398Y-87370500D01*
X123486848Y-87371170D01*
X123486845Y-87371170D01*
X123431408Y-87379331D01*
X123431407Y-87379331D01*
X123421722Y-87380757D01*
X123412930Y-87385074D01*
X123412929Y-87385074D01*
X123355560Y-87413240D01*
X123285597Y-87425308D01*
X123244697Y-87413337D01*
X123228079Y-87405214D01*
X123177677Y-87380577D01*
X123147355Y-87376153D01*
X123113128Y-87371160D01*
X123113124Y-87371160D01*
X123108602Y-87370500D01*
X122841398Y-87370500D01*
X122836848Y-87371170D01*
X122836845Y-87371170D01*
X122781408Y-87379331D01*
X122781407Y-87379331D01*
X122771722Y-87380757D01*
X122762930Y-87385074D01*
X122762929Y-87385074D01*
X122705560Y-87413240D01*
X122635597Y-87425308D01*
X122594697Y-87413337D01*
X122578079Y-87405214D01*
X122527677Y-87380577D01*
X122497355Y-87376153D01*
X122463128Y-87371160D01*
X122463124Y-87371160D01*
X122458602Y-87370500D01*
X122191398Y-87370500D01*
X122186848Y-87371170D01*
X122186845Y-87371170D01*
X122131408Y-87379331D01*
X122131407Y-87379331D01*
X122121722Y-87380757D01*
X122084826Y-87398872D01*
X122025132Y-87428180D01*
X122025130Y-87428181D01*
X122015784Y-87432770D01*
X121932405Y-87516294D01*
X121880577Y-87622323D01*
X121876306Y-87651602D01*
X121874459Y-87664263D01*
X121870500Y-87691398D01*
X121870500Y-89033602D01*
X121871170Y-89038152D01*
X121871170Y-89038155D01*
X121879331Y-89093592D01*
X121880757Y-89103278D01*
X121885073Y-89112068D01*
X121927926Y-89199349D01*
X121932770Y-89209216D01*
X122016294Y-89292595D01*
X122122323Y-89344423D01*
X122152645Y-89348847D01*
X122186872Y-89353840D01*
X122186876Y-89353840D01*
X122191398Y-89354500D01*
X122458602Y-89354500D01*
X122463152Y-89353830D01*
X122463155Y-89353830D01*
X122518592Y-89345669D01*
X122518593Y-89345669D01*
X122528278Y-89344243D01*
X122537071Y-89339926D01*
X122594440Y-89311760D01*
X122664403Y-89299692D01*
X122705303Y-89311663D01*
X122772323Y-89344423D01*
X122802645Y-89348847D01*
X122836872Y-89353840D01*
X122836876Y-89353840D01*
X122841398Y-89354500D01*
X123108602Y-89354500D01*
X123113152Y-89353830D01*
X123113155Y-89353830D01*
X123168592Y-89345669D01*
X123168593Y-89345669D01*
X123178278Y-89344243D01*
X123187071Y-89339926D01*
X123244440Y-89311760D01*
X123314403Y-89299692D01*
X123355303Y-89311663D01*
X123422323Y-89344423D01*
X123452645Y-89348847D01*
X123486872Y-89353840D01*
X123486876Y-89353840D01*
X123491398Y-89354500D01*
X123758602Y-89354500D01*
X123759294Y-89354398D01*
X123827705Y-89369163D01*
X123877989Y-89419283D01*
X123893500Y-89479849D01*
X123893500Y-89689787D01*
X123873498Y-89757908D01*
X123856595Y-89778883D01*
X123401881Y-90233596D01*
X123339569Y-90267621D01*
X123312786Y-90270500D01*
X122932908Y-90270501D01*
X122904612Y-90270501D01*
X122901218Y-90270870D01*
X122901212Y-90270870D01*
X122853834Y-90276016D01*
X122853830Y-90276017D01*
X122845976Y-90276870D01*
X122717365Y-90325083D01*
X122710186Y-90330463D01*
X122710183Y-90330465D01*
X122656994Y-90370329D01*
X122607456Y-90407456D01*
X122602077Y-90414633D01*
X122530465Y-90510183D01*
X122530463Y-90510186D01*
X122525083Y-90517365D01*
X122521933Y-90525769D01*
X122521932Y-90525770D01*
X122482251Y-90631623D01*
X122476870Y-90645976D01*
X122476017Y-90653826D01*
X122476017Y-90653827D01*
X122473864Y-90673649D01*
X122470500Y-90704611D01*
X122470501Y-91295388D01*
X122470870Y-91298782D01*
X122470870Y-91298788D01*
X122474507Y-91332265D01*
X122476870Y-91354024D01*
X122511599Y-91446665D01*
X122517716Y-91462982D01*
X122525083Y-91482635D01*
X122530463Y-91489814D01*
X122530465Y-91489817D01*
X122602077Y-91585367D01*
X122607456Y-91592544D01*
X122614633Y-91597923D01*
X122691066Y-91655207D01*
X122733580Y-91712067D01*
X122741500Y-91756033D01*
X122741500Y-91775196D01*
X122721498Y-91843317D01*
X122691064Y-91876023D01*
X122646780Y-91909211D01*
X122646776Y-91909215D01*
X122639596Y-91914596D01*
X122634215Y-91921776D01*
X122634212Y-91921779D01*
X122558311Y-92023054D01*
X122558309Y-92023057D01*
X122552929Y-92030236D01*
X122502202Y-92165552D01*
X122495500Y-92227244D01*
X122495500Y-93272756D01*
X122495869Y-93276152D01*
X122495869Y-93276153D01*
X122499242Y-93307197D01*
X122502202Y-93334448D01*
X122552929Y-93469764D01*
X122558309Y-93476943D01*
X122558311Y-93476946D01*
X122605519Y-93539935D01*
X122630367Y-93606442D01*
X122615314Y-93675824D01*
X122565140Y-93726054D01*
X122504693Y-93741500D01*
X118230499Y-93741500D01*
X118162378Y-93721498D01*
X118115885Y-93667842D01*
X118104499Y-93615500D01*
X118104499Y-92974934D01*
X118094250Y-92923403D01*
X118092156Y-92912874D01*
X118092155Y-92912872D01*
X118089734Y-92900699D01*
X118079595Y-92885524D01*
X118040377Y-92826832D01*
X118033484Y-92816516D01*
X117949301Y-92760266D01*
X117875067Y-92745500D01*
X117000142Y-92745500D01*
X116124934Y-92745501D01*
X116089182Y-92752612D01*
X116062874Y-92757844D01*
X116062872Y-92757845D01*
X116050699Y-92760266D01*
X116040379Y-92767161D01*
X116040378Y-92767162D01*
X115979985Y-92807516D01*
X115966516Y-92816516D01*
X115910266Y-92900699D01*
X115895500Y-92974933D01*
X115895501Y-94725066D01*
X115902151Y-94758500D01*
X115907150Y-94783632D01*
X115910266Y-94799301D01*
X115917161Y-94809620D01*
X115917162Y-94809622D01*
X115937773Y-94840468D01*
X115966516Y-94883484D01*
X116050699Y-94939734D01*
X116124933Y-94954500D01*
X116999858Y-94954500D01*
X117875066Y-94954499D01*
X117910818Y-94947388D01*
X117937126Y-94942156D01*
X117937128Y-94942155D01*
X117949301Y-94939734D01*
X117959621Y-94932839D01*
X117959622Y-94932838D01*
X118023168Y-94890377D01*
X118033484Y-94883484D01*
X118062227Y-94840468D01*
X118079581Y-94814497D01*
X118134058Y-94768970D01*
X118184345Y-94758500D01*
X120555940Y-94758500D01*
X120624061Y-94778502D01*
X120670554Y-94832158D01*
X120680658Y-94902432D01*
X120668837Y-94938400D01*
X120668950Y-94938444D01*
X120662690Y-94954500D01*
X120620150Y-95063611D01*
X120611406Y-95086037D01*
X120610414Y-95093570D01*
X120610414Y-95093571D01*
X120601990Y-95157561D01*
X120590729Y-95243096D01*
X120608113Y-95400553D01*
X120610723Y-95407684D01*
X120610723Y-95407686D01*
X120658934Y-95539429D01*
X120662553Y-95549319D01*
X120750908Y-95680805D01*
X120756527Y-95685918D01*
X120756528Y-95685919D01*
X120862460Y-95782309D01*
X120868076Y-95787419D01*
X120874749Y-95791042D01*
X120897119Y-95803188D01*
X120926092Y-95824824D01*
X120937030Y-95835762D01*
X120940238Y-95838250D01*
X120949267Y-95845961D01*
X120981618Y-95876341D01*
X120988567Y-95880161D01*
X120999453Y-95886146D01*
X121015977Y-95897000D01*
X121025794Y-95904615D01*
X121032057Y-95909473D01*
X121039334Y-95912622D01*
X121072774Y-95927093D01*
X121083435Y-95932316D01*
X121115371Y-95949873D01*
X121115376Y-95949875D01*
X121122321Y-95953693D01*
X121129995Y-95955663D01*
X121130002Y-95955666D01*
X121142037Y-95958756D01*
X121160742Y-95965160D01*
X121168169Y-95968374D01*
X121179416Y-95973241D01*
X121196002Y-95975868D01*
X121210182Y-95978114D01*
X121274335Y-96008527D01*
X121311861Y-96068796D01*
X121310847Y-96139785D01*
X121288666Y-96181515D01*
X121261392Y-96215437D01*
X121253170Y-96228789D01*
X121203366Y-96338327D01*
X121198376Y-96355387D01*
X121181471Y-96473440D01*
X121181471Y-96491205D01*
X121198376Y-96609258D01*
X121203365Y-96626318D01*
X121253170Y-96735855D01*
X121261389Y-96749202D01*
X121291219Y-96786304D01*
X121295775Y-96791381D01*
X121308366Y-96803972D01*
X121322310Y-96811586D01*
X121324143Y-96811455D01*
X121330758Y-96807204D01*
X121910904Y-96227057D01*
X121973217Y-96193032D01*
X122044032Y-96198096D01*
X122089096Y-96227057D01*
X122683689Y-96821651D01*
X122697632Y-96829264D01*
X122699466Y-96829133D01*
X122705630Y-96825171D01*
X122708781Y-96821660D01*
X122738611Y-96784558D01*
X122746830Y-96771211D01*
X122796634Y-96661673D01*
X122801624Y-96644613D01*
X122818529Y-96526560D01*
X122818529Y-96508795D01*
X122801624Y-96390742D01*
X122796636Y-96373686D01*
X122791770Y-96362985D01*
X122781782Y-96292695D01*
X122811382Y-96228163D01*
X122871171Y-96189878D01*
X122942167Y-96189995D01*
X122958622Y-96196132D01*
X122969552Y-96201102D01*
X122969560Y-96201104D01*
X122977730Y-96204819D01*
X122986613Y-96206091D01*
X122986616Y-96206092D01*
X123104812Y-96223018D01*
X123113694Y-96224290D01*
X123122576Y-96223018D01*
X123240771Y-96206092D01*
X123240773Y-96206091D01*
X123249658Y-96204819D01*
X123282261Y-96189995D01*
X123367497Y-96151240D01*
X123374691Y-96147969D01*
X123420657Y-96111012D01*
X123455280Y-96076389D01*
X123517592Y-96042363D01*
X123544375Y-96039484D01*
X124824432Y-96039484D01*
X124892553Y-96059486D01*
X124913527Y-96076388D01*
X125118349Y-96281209D01*
X125734213Y-96897072D01*
X125739357Y-96900509D01*
X125786825Y-96932228D01*
X125786827Y-96932229D01*
X125797146Y-96939124D01*
X125809320Y-96941545D01*
X125809321Y-96941546D01*
X125884276Y-96956455D01*
X125896447Y-96958876D01*
X125908618Y-96956455D01*
X125983578Y-96941545D01*
X125983579Y-96941544D01*
X125995748Y-96939124D01*
X126015597Y-96925862D01*
X126053535Y-96900513D01*
X126053540Y-96900509D01*
X126058681Y-96897074D01*
X126730525Y-96225228D01*
X126749967Y-96196132D01*
X126765681Y-96172616D01*
X126765682Y-96172614D01*
X126772577Y-96162295D01*
X126777055Y-96139785D01*
X126789908Y-96075165D01*
X126792329Y-96062994D01*
X126781495Y-96008527D01*
X126774998Y-95975863D01*
X126774997Y-95975862D01*
X126772577Y-95963693D01*
X126751578Y-95932265D01*
X126733966Y-95905906D01*
X126733963Y-95905902D01*
X126730527Y-95900760D01*
X125803361Y-94973595D01*
X125769336Y-94911283D01*
X125774400Y-94840468D01*
X125816947Y-94783632D01*
X125883467Y-94758821D01*
X125892456Y-94758500D01*
X127991377Y-94758500D01*
X127992147Y-94758502D01*
X128065785Y-94758952D01*
X128065786Y-94758952D01*
X128069721Y-94758976D01*
X128071065Y-94758592D01*
X128072410Y-94758500D01*
X131987183Y-94758500D01*
X132055304Y-94778502D01*
X132076278Y-94795405D01*
X133496309Y-96215437D01*
X134915180Y-97634308D01*
X134922800Y-97643845D01*
X134923169Y-97643531D01*
X134928984Y-97650364D01*
X134933776Y-97657958D01*
X134945799Y-97668576D01*
X134974116Y-97693585D01*
X134979803Y-97698931D01*
X134991255Y-97710383D01*
X134994846Y-97713074D01*
X134994848Y-97713076D01*
X134999630Y-97716660D01*
X135007473Y-97723045D01*
X135011821Y-97726885D01*
X135042951Y-97754378D01*
X135051078Y-97758194D01*
X135053534Y-97759807D01*
X135068547Y-97768829D01*
X135071118Y-97770237D01*
X135078296Y-97775616D01*
X135086696Y-97778765D01*
X135086698Y-97778766D01*
X135122640Y-97792239D01*
X135131943Y-97796159D01*
X135174800Y-97816281D01*
X135183669Y-97817662D01*
X135186495Y-97818526D01*
X135203399Y-97822960D01*
X135206275Y-97823592D01*
X135214684Y-97826745D01*
X135223634Y-97827410D01*
X135261906Y-97830254D01*
X135271952Y-97831408D01*
X135280575Y-97832751D01*
X135280578Y-97832751D01*
X135285386Y-97833500D01*
X135300906Y-97833500D01*
X135310243Y-97833846D01*
X135359941Y-97837539D01*
X135368720Y-97835665D01*
X135376978Y-97835102D01*
X135392161Y-97833500D01*
X137336149Y-97833500D01*
X137404270Y-97853502D01*
X137411008Y-97858149D01*
X137502345Y-97925612D01*
X137502350Y-97925614D01*
X137509924Y-97931209D01*
X137638873Y-97976493D01*
X137646515Y-97977215D01*
X137646518Y-97977216D01*
X137661421Y-97978624D01*
X137670685Y-97979500D01*
X137999777Y-97979500D01*
X138329314Y-97979499D01*
X138332262Y-97979220D01*
X138332271Y-97979220D01*
X138353478Y-97977216D01*
X138353480Y-97977216D01*
X138361127Y-97976493D01*
X138490076Y-97931209D01*
X138497650Y-97925614D01*
X138497655Y-97925612D01*
X138588992Y-97858149D01*
X138655670Y-97833766D01*
X138663851Y-97833500D01*
X142432240Y-97833500D01*
X142500361Y-97853502D01*
X142546854Y-97907158D01*
X142556958Y-97977432D01*
X142527464Y-98042012D01*
X142516618Y-98052895D01*
X142515763Y-98053845D01*
X142510039Y-98058838D01*
X142418950Y-98188444D01*
X142401065Y-98234316D01*
X142371748Y-98309512D01*
X142361406Y-98336037D01*
X142360414Y-98343570D01*
X142360414Y-98343571D01*
X142341983Y-98483573D01*
X142340729Y-98493096D01*
X142358113Y-98650553D01*
X142360722Y-98657682D01*
X142361171Y-98659597D01*
X142364500Y-98688368D01*
X142364500Y-98961448D01*
X142350252Y-99017139D01*
X142350083Y-99017365D01*
X142346841Y-99026014D01*
X142342715Y-99037020D01*
X142300073Y-99093784D01*
X142233512Y-99118484D01*
X142164163Y-99103276D01*
X142114045Y-99052990D01*
X142106751Y-99037018D01*
X142102626Y-99026014D01*
X142094092Y-99010425D01*
X142022566Y-98914990D01*
X142010010Y-98902434D01*
X141914575Y-98830908D01*
X141898988Y-98822375D01*
X141786311Y-98780135D01*
X141771066Y-98776510D01*
X141723741Y-98771369D01*
X141722996Y-98771329D01*
X141708876Y-98775475D01*
X141707671Y-98776865D01*
X141706000Y-98784548D01*
X141706000Y-100210885D01*
X141710475Y-100226124D01*
X141711865Y-100227329D01*
X141719026Y-100228886D01*
X141723741Y-100228631D01*
X141771066Y-100223490D01*
X141786311Y-100219865D01*
X141898988Y-100177625D01*
X141914575Y-100169092D01*
X142010010Y-100097566D01*
X142022566Y-100085010D01*
X142094092Y-99989575D01*
X142102626Y-99973986D01*
X142106751Y-99962982D01*
X142149391Y-99906217D01*
X142215953Y-99881516D01*
X142285302Y-99896723D01*
X142335421Y-99947008D01*
X142342714Y-99962978D01*
X142350083Y-99982635D01*
X142355463Y-99989814D01*
X142355465Y-99989817D01*
X142427077Y-100085367D01*
X142432456Y-100092544D01*
X142439633Y-100097923D01*
X142535183Y-100169535D01*
X142535186Y-100169537D01*
X142542365Y-100174917D01*
X142550769Y-100178067D01*
X142550770Y-100178068D01*
X142663581Y-100220358D01*
X142663582Y-100220358D01*
X142670976Y-100223130D01*
X142678826Y-100223983D01*
X142678827Y-100223983D01*
X142698535Y-100226124D01*
X142729611Y-100229500D01*
X142999920Y-100229500D01*
X143270388Y-100229499D01*
X143273782Y-100229130D01*
X143273788Y-100229130D01*
X143321166Y-100223984D01*
X143321170Y-100223983D01*
X143329024Y-100223130D01*
X143457635Y-100174917D01*
X143464817Y-100169534D01*
X143464821Y-100169532D01*
X143476639Y-100160675D01*
X143543145Y-100135826D01*
X143552205Y-100135500D01*
X145197909Y-100135500D01*
X145266030Y-100155502D01*
X145287004Y-100172404D01*
X145476496Y-100361895D01*
X145481640Y-100365332D01*
X145529108Y-100397051D01*
X145529110Y-100397052D01*
X145539429Y-100403947D01*
X145551603Y-100406368D01*
X145551604Y-100406369D01*
X145626559Y-100421278D01*
X145638730Y-100423699D01*
X145650901Y-100421278D01*
X145725861Y-100406368D01*
X145725862Y-100406367D01*
X145738031Y-100403947D01*
X145757880Y-100390685D01*
X145795818Y-100365336D01*
X145795823Y-100365332D01*
X145800964Y-100361897D01*
X146897072Y-99265787D01*
X146923820Y-99225757D01*
X146932228Y-99213175D01*
X146932229Y-99213173D01*
X146939124Y-99202854D01*
X146958876Y-99103553D01*
X146953475Y-99076401D01*
X151125421Y-99076401D01*
X151125552Y-99078234D01*
X151129803Y-99084849D01*
X151270711Y-99225757D01*
X151280240Y-99233578D01*
X151327581Y-99265211D01*
X151350071Y-99274527D01*
X151424835Y-99289399D01*
X151449177Y-99289399D01*
X151523943Y-99274527D01*
X151546428Y-99265213D01*
X151593779Y-99233574D01*
X151603294Y-99225765D01*
X151953113Y-98875945D01*
X151960724Y-98862007D01*
X151960592Y-98860171D01*
X151956343Y-98853559D01*
X151661950Y-98559166D01*
X151648006Y-98551552D01*
X151646173Y-98551683D01*
X151639558Y-98555934D01*
X151133035Y-99062457D01*
X151125421Y-99076401D01*
X146953475Y-99076401D01*
X146950702Y-99062457D01*
X146941545Y-99016422D01*
X146941544Y-99016421D01*
X146939124Y-99004252D01*
X146910524Y-98961448D01*
X146900513Y-98946465D01*
X146900510Y-98946461D01*
X146897074Y-98941319D01*
X146728426Y-98772671D01*
X146364372Y-98408618D01*
X150544054Y-98408618D01*
X150558926Y-98483384D01*
X150568240Y-98505869D01*
X150599879Y-98553220D01*
X150607688Y-98562735D01*
X150745376Y-98700422D01*
X150759314Y-98708033D01*
X150761150Y-98707901D01*
X150767762Y-98703652D01*
X151274287Y-98197127D01*
X151280665Y-98185447D01*
X152016375Y-98185447D01*
X152016506Y-98187280D01*
X152020757Y-98193895D01*
X152315148Y-98488286D01*
X152329092Y-98495900D01*
X152330925Y-98495769D01*
X152337540Y-98491518D01*
X152690580Y-98138478D01*
X152698401Y-98128949D01*
X152730034Y-98081608D01*
X152739350Y-98059118D01*
X152754222Y-97984354D01*
X152754222Y-97960012D01*
X152739350Y-97885246D01*
X152730036Y-97862761D01*
X152698397Y-97815410D01*
X152690588Y-97805895D01*
X152552900Y-97668208D01*
X152538962Y-97660597D01*
X152537126Y-97660729D01*
X152530514Y-97664978D01*
X152023989Y-98171503D01*
X152016375Y-98185447D01*
X151280665Y-98185447D01*
X151281901Y-98183183D01*
X151281770Y-98181350D01*
X151277519Y-98174735D01*
X150983128Y-97880344D01*
X150969184Y-97872730D01*
X150967351Y-97872861D01*
X150960736Y-97877112D01*
X150607696Y-98230152D01*
X150599875Y-98239681D01*
X150568242Y-98287022D01*
X150558926Y-98309512D01*
X150544054Y-98384276D01*
X150544054Y-98408618D01*
X146364372Y-98408618D01*
X146229603Y-98273850D01*
X146225228Y-98269475D01*
X146180158Y-98239359D01*
X146172616Y-98234319D01*
X146172614Y-98234318D01*
X146162295Y-98227423D01*
X146150121Y-98225002D01*
X146150120Y-98225001D01*
X146075165Y-98210092D01*
X146062994Y-98207671D01*
X146050823Y-98210092D01*
X145975863Y-98225002D01*
X145975862Y-98225003D01*
X145963693Y-98227423D01*
X145945829Y-98239359D01*
X145905906Y-98266034D01*
X145905902Y-98266037D01*
X145900760Y-98269473D01*
X145607178Y-98563056D01*
X145342639Y-98827595D01*
X145280326Y-98861620D01*
X145253543Y-98864500D01*
X143761500Y-98864500D01*
X143693379Y-98844498D01*
X143646886Y-98790842D01*
X143635500Y-98738500D01*
X143635500Y-98688711D01*
X143637861Y-98670786D01*
X143636842Y-98670641D01*
X143658581Y-98517891D01*
X143658581Y-98517888D01*
X143659162Y-98513807D01*
X143659243Y-98506069D01*
X143659264Y-98504134D01*
X143659264Y-98504128D01*
X143659307Y-98500000D01*
X143658793Y-98495748D01*
X143641188Y-98350273D01*
X143640276Y-98342733D01*
X143584280Y-98194546D01*
X143494553Y-98063992D01*
X143488883Y-98058940D01*
X143488881Y-98058938D01*
X143482865Y-98053578D01*
X143445308Y-97993329D01*
X143446287Y-97922339D01*
X143485490Y-97863147D01*
X143550471Y-97834547D01*
X143566682Y-97833500D01*
X145103928Y-97833500D01*
X145116058Y-97834855D01*
X145116097Y-97834373D01*
X145125044Y-97835093D01*
X145133800Y-97837074D01*
X145187508Y-97833742D01*
X145195310Y-97833500D01*
X145211513Y-97833500D01*
X145220429Y-97832223D01*
X145221878Y-97832016D01*
X145231928Y-97830987D01*
X145270216Y-97828611D01*
X145279177Y-97828055D01*
X145287623Y-97825006D01*
X145290514Y-97824407D01*
X145307480Y-97820178D01*
X145310305Y-97819352D01*
X145319187Y-97818080D01*
X145362298Y-97798478D01*
X145371649Y-97794672D01*
X145373475Y-97794013D01*
X145416181Y-97778596D01*
X145423429Y-97773301D01*
X145426027Y-97771920D01*
X145441145Y-97763085D01*
X145443614Y-97761506D01*
X145451782Y-97757792D01*
X145487653Y-97726884D01*
X145495569Y-97720599D01*
X145502615Y-97715452D01*
X145502620Y-97715447D01*
X145506552Y-97712575D01*
X145517527Y-97701600D01*
X145524375Y-97695242D01*
X145555323Y-97668576D01*
X145555324Y-97668575D01*
X145562127Y-97662713D01*
X145567011Y-97655178D01*
X145572458Y-97648934D01*
X145582058Y-97637069D01*
X145712504Y-97506623D01*
X151337552Y-97506623D01*
X151337684Y-97508459D01*
X151341933Y-97515071D01*
X151636326Y-97809464D01*
X151650270Y-97817078D01*
X151652103Y-97816947D01*
X151658718Y-97812696D01*
X152165241Y-97306173D01*
X152172855Y-97292229D01*
X152172724Y-97290396D01*
X152168473Y-97283781D01*
X152027565Y-97142873D01*
X152018036Y-97135052D01*
X151970695Y-97103419D01*
X151948205Y-97094103D01*
X151873441Y-97079231D01*
X151849099Y-97079231D01*
X151774333Y-97094103D01*
X151751848Y-97103417D01*
X151704497Y-97135056D01*
X151694982Y-97142865D01*
X151345163Y-97492685D01*
X151337552Y-97506623D01*
X145712504Y-97506623D01*
X147156133Y-96062994D01*
X148207671Y-96062994D01*
X148210092Y-96075165D01*
X148222946Y-96139785D01*
X148227423Y-96162295D01*
X148234316Y-96172611D01*
X148266034Y-96220082D01*
X148266036Y-96220084D01*
X148269473Y-96225228D01*
X148941319Y-96897072D01*
X148946463Y-96900509D01*
X148993931Y-96932228D01*
X148993933Y-96932229D01*
X149004252Y-96939124D01*
X149016426Y-96941545D01*
X149016427Y-96941546D01*
X149091382Y-96956455D01*
X149103553Y-96958876D01*
X149115724Y-96956455D01*
X149190684Y-96941545D01*
X149190685Y-96941544D01*
X149202854Y-96939124D01*
X149222703Y-96925862D01*
X149260641Y-96900513D01*
X149260646Y-96900509D01*
X149265787Y-96897074D01*
X150361895Y-95800964D01*
X150375195Y-95781060D01*
X150397051Y-95748352D01*
X150397052Y-95748350D01*
X150403947Y-95738031D01*
X150423699Y-95638730D01*
X150403947Y-95539429D01*
X150397055Y-95529114D01*
X150397054Y-95529112D01*
X150366344Y-95483152D01*
X150345129Y-95415399D01*
X150363912Y-95346932D01*
X150382014Y-95324055D01*
X151880617Y-93825453D01*
X151899633Y-93810094D01*
X151900694Y-93809128D01*
X151909442Y-93803480D01*
X151930367Y-93776937D01*
X151934344Y-93772462D01*
X151934273Y-93772401D01*
X151937626Y-93768444D01*
X151941309Y-93764761D01*
X151945515Y-93758876D01*
X151952591Y-93748973D01*
X151956156Y-93744224D01*
X151958304Y-93741500D01*
X151988072Y-93703739D01*
X151991123Y-93695052D01*
X151996472Y-93687566D01*
X152011237Y-93638195D01*
X152013071Y-93632550D01*
X152025356Y-93597568D01*
X152030154Y-93583907D01*
X152030638Y-93578318D01*
X152030638Y-93575607D01*
X152030753Y-93572940D01*
X152030772Y-93572877D01*
X152030946Y-93572884D01*
X152030993Y-93572138D01*
X152032863Y-93565885D01*
X152030735Y-93511731D01*
X152030638Y-93506784D01*
X152030638Y-92974933D01*
X156895500Y-92974933D01*
X156895501Y-94725066D01*
X156902151Y-94758500D01*
X156907150Y-94783632D01*
X156910266Y-94799301D01*
X156917161Y-94809620D01*
X156917162Y-94809622D01*
X156937773Y-94840468D01*
X156966516Y-94883484D01*
X157050699Y-94939734D01*
X157124933Y-94954500D01*
X157999858Y-94954500D01*
X158875066Y-94954499D01*
X158910818Y-94947388D01*
X158937126Y-94942156D01*
X158937128Y-94942155D01*
X158949301Y-94939734D01*
X158959621Y-94932839D01*
X158959622Y-94932838D01*
X159023168Y-94890377D01*
X159033484Y-94883484D01*
X159089734Y-94799301D01*
X159104500Y-94725067D01*
X159104499Y-92974934D01*
X159094250Y-92923403D01*
X159092156Y-92912874D01*
X159092155Y-92912872D01*
X159089734Y-92900699D01*
X159079595Y-92885524D01*
X159040377Y-92826832D01*
X159033484Y-92816516D01*
X158949301Y-92760266D01*
X158875067Y-92745500D01*
X158000142Y-92745500D01*
X157124934Y-92745501D01*
X157089182Y-92752612D01*
X157062874Y-92757844D01*
X157062872Y-92757845D01*
X157050699Y-92760266D01*
X157040379Y-92767161D01*
X157040378Y-92767162D01*
X156979985Y-92807516D01*
X156966516Y-92816516D01*
X156910266Y-92900699D01*
X156895500Y-92974933D01*
X152030638Y-92974933D01*
X152030638Y-91280964D01*
X156891148Y-91280964D01*
X156904424Y-91483522D01*
X156905845Y-91489118D01*
X156905846Y-91489123D01*
X156947781Y-91654238D01*
X156954392Y-91680269D01*
X156956809Y-91685512D01*
X157015716Y-91813292D01*
X157039377Y-91864616D01*
X157156533Y-92030389D01*
X157301938Y-92172035D01*
X157470720Y-92284812D01*
X157476023Y-92287090D01*
X157476026Y-92287092D01*
X157564707Y-92325192D01*
X157657228Y-92364942D01*
X157730244Y-92381464D01*
X157849579Y-92408467D01*
X157849584Y-92408468D01*
X157855216Y-92409742D01*
X157860987Y-92409969D01*
X157860989Y-92409969D01*
X157920756Y-92412317D01*
X158058053Y-92417712D01*
X158158499Y-92403148D01*
X158253231Y-92389413D01*
X158253236Y-92389412D01*
X158258945Y-92388584D01*
X158264409Y-92386729D01*
X158264414Y-92386728D01*
X158445693Y-92325192D01*
X158445698Y-92325190D01*
X158451165Y-92323334D01*
X158628276Y-92224147D01*
X158689151Y-92173518D01*
X158779913Y-92098031D01*
X158784345Y-92094345D01*
X158843436Y-92023296D01*
X158910453Y-91942718D01*
X158910455Y-91942715D01*
X158914147Y-91938276D01*
X158982227Y-91816710D01*
X159010510Y-91766208D01*
X159010511Y-91766206D01*
X159013334Y-91761165D01*
X159015190Y-91755698D01*
X159015192Y-91755693D01*
X159076728Y-91574414D01*
X159076729Y-91574409D01*
X159078584Y-91568945D01*
X159079412Y-91563236D01*
X159079413Y-91563231D01*
X159096991Y-91441996D01*
X159107712Y-91368053D01*
X159109232Y-91310000D01*
X159096191Y-91168072D01*
X159091187Y-91113613D01*
X159091186Y-91113610D01*
X159090658Y-91107859D01*
X159086332Y-91092520D01*
X159037125Y-90918046D01*
X159037124Y-90918044D01*
X159035557Y-90912487D01*
X159024978Y-90891033D01*
X158948331Y-90735609D01*
X158945776Y-90730428D01*
X158926498Y-90704611D01*
X158883117Y-90646518D01*
X158824320Y-90567779D01*
X158721484Y-90472718D01*
X158679503Y-90433911D01*
X158675258Y-90429987D01*
X158670375Y-90426906D01*
X158670371Y-90426903D01*
X158508464Y-90324748D01*
X158503581Y-90321667D01*
X158315039Y-90246446D01*
X158309379Y-90245320D01*
X158309375Y-90245319D01*
X158121613Y-90207971D01*
X158121610Y-90207971D01*
X158115946Y-90206844D01*
X158110171Y-90206768D01*
X158110167Y-90206768D01*
X158008793Y-90205441D01*
X157912971Y-90204187D01*
X157907274Y-90205166D01*
X157907273Y-90205166D01*
X157718607Y-90237585D01*
X157712910Y-90238564D01*
X157522463Y-90308824D01*
X157348010Y-90412612D01*
X157343670Y-90416418D01*
X157343666Y-90416421D01*
X157199733Y-90542648D01*
X157195392Y-90546455D01*
X157191817Y-90550990D01*
X157191816Y-90550991D01*
X157178581Y-90567779D01*
X157069720Y-90705869D01*
X157067031Y-90710980D01*
X157067029Y-90710983D01*
X157056246Y-90731479D01*
X156975203Y-90885515D01*
X156915007Y-91079378D01*
X156891148Y-91280964D01*
X152030638Y-91280964D01*
X152030638Y-88740964D01*
X156891148Y-88740964D01*
X156904424Y-88943522D01*
X156905845Y-88949118D01*
X156905846Y-88949123D01*
X156927508Y-89034414D01*
X156954392Y-89140269D01*
X156956809Y-89145512D01*
X156994010Y-89226208D01*
X157039377Y-89324616D01*
X157042710Y-89329332D01*
X157124135Y-89444546D01*
X157156533Y-89490389D01*
X157160675Y-89494424D01*
X157176332Y-89509676D01*
X157301938Y-89632035D01*
X157470720Y-89744812D01*
X157476023Y-89747090D01*
X157476026Y-89747092D01*
X157564707Y-89785192D01*
X157657228Y-89824942D01*
X157730244Y-89841464D01*
X157849579Y-89868467D01*
X157849584Y-89868468D01*
X157855216Y-89869742D01*
X157860987Y-89869969D01*
X157860989Y-89869969D01*
X157920756Y-89872317D01*
X158058053Y-89877712D01*
X158158499Y-89863148D01*
X158253231Y-89849413D01*
X158253236Y-89849412D01*
X158258945Y-89848584D01*
X158264409Y-89846729D01*
X158264414Y-89846728D01*
X158445693Y-89785192D01*
X158445698Y-89785190D01*
X158451165Y-89783334D01*
X158478741Y-89767891D01*
X158525683Y-89741602D01*
X158628276Y-89684147D01*
X158690934Y-89632035D01*
X158779913Y-89558031D01*
X158784345Y-89554345D01*
X158837537Y-89490389D01*
X158910453Y-89402718D01*
X158910455Y-89402715D01*
X158914147Y-89398276D01*
X158977663Y-89284860D01*
X159010510Y-89226208D01*
X159010511Y-89226206D01*
X159013334Y-89221165D01*
X159015190Y-89215698D01*
X159015192Y-89215693D01*
X159076728Y-89034414D01*
X159076729Y-89034409D01*
X159078584Y-89028945D01*
X159079412Y-89023236D01*
X159079413Y-89023231D01*
X159107179Y-88831727D01*
X159107712Y-88828053D01*
X159109232Y-88770000D01*
X159090658Y-88567859D01*
X159089090Y-88562299D01*
X159037125Y-88378046D01*
X159037124Y-88378044D01*
X159035557Y-88372487D01*
X159024978Y-88351033D01*
X158948331Y-88195609D01*
X158945776Y-88190428D01*
X158824320Y-88027779D01*
X158749789Y-87958883D01*
X158679503Y-87893911D01*
X158675258Y-87889987D01*
X158670375Y-87886906D01*
X158670371Y-87886903D01*
X158508464Y-87784748D01*
X158503581Y-87781667D01*
X158315039Y-87706446D01*
X158309379Y-87705320D01*
X158309375Y-87705319D01*
X158121613Y-87667971D01*
X158121610Y-87667971D01*
X158115946Y-87666844D01*
X158110171Y-87666768D01*
X158110167Y-87666768D01*
X158008793Y-87665441D01*
X157912971Y-87664187D01*
X157907274Y-87665166D01*
X157907273Y-87665166D01*
X157781110Y-87686845D01*
X157712910Y-87698564D01*
X157522463Y-87768824D01*
X157348010Y-87872612D01*
X157343670Y-87876418D01*
X157343666Y-87876421D01*
X157223866Y-87981484D01*
X157195392Y-88006455D01*
X157191817Y-88010990D01*
X157191816Y-88010991D01*
X157178581Y-88027779D01*
X157069720Y-88165869D01*
X157067031Y-88170980D01*
X157067029Y-88170983D01*
X157054073Y-88195609D01*
X156975203Y-88345515D01*
X156915007Y-88539378D01*
X156891148Y-88740964D01*
X152030638Y-88740964D01*
X152030638Y-86200964D01*
X156891148Y-86200964D01*
X156904424Y-86403522D01*
X156905845Y-86409118D01*
X156905846Y-86409123D01*
X156939603Y-86542039D01*
X156954392Y-86600269D01*
X156956809Y-86605512D01*
X156991944Y-86681726D01*
X157039377Y-86784616D01*
X157156533Y-86950389D01*
X157301938Y-87092035D01*
X157470720Y-87204812D01*
X157476023Y-87207090D01*
X157476026Y-87207092D01*
X157564707Y-87245192D01*
X157657228Y-87284942D01*
X157730244Y-87301464D01*
X157849579Y-87328467D01*
X157849584Y-87328468D01*
X157855216Y-87329742D01*
X157860987Y-87329969D01*
X157860989Y-87329969D01*
X157920756Y-87332317D01*
X158058053Y-87337712D01*
X158158499Y-87323148D01*
X158253231Y-87309413D01*
X158253236Y-87309412D01*
X158258945Y-87308584D01*
X158264409Y-87306729D01*
X158264414Y-87306728D01*
X158445693Y-87245192D01*
X158445698Y-87245190D01*
X158451165Y-87243334D01*
X158628276Y-87144147D01*
X158690934Y-87092035D01*
X158779913Y-87018031D01*
X158784345Y-87014345D01*
X158914147Y-86858276D01*
X159013334Y-86681165D01*
X159015190Y-86675698D01*
X159015192Y-86675693D01*
X159076728Y-86494414D01*
X159076729Y-86494409D01*
X159078584Y-86488945D01*
X159079412Y-86483236D01*
X159079413Y-86483231D01*
X159107179Y-86291727D01*
X159107712Y-86288053D01*
X159109232Y-86230000D01*
X159090658Y-86027859D01*
X159089090Y-86022299D01*
X159037125Y-85838046D01*
X159037124Y-85838044D01*
X159035557Y-85832487D01*
X159024978Y-85811033D01*
X158948331Y-85655609D01*
X158945776Y-85650428D01*
X158824320Y-85487779D01*
X158675258Y-85349987D01*
X158670375Y-85346906D01*
X158670371Y-85346903D01*
X158508464Y-85244748D01*
X158503581Y-85241667D01*
X158315039Y-85166446D01*
X158309379Y-85165320D01*
X158309375Y-85165319D01*
X158121613Y-85127971D01*
X158121610Y-85127971D01*
X158115946Y-85126844D01*
X158110171Y-85126768D01*
X158110167Y-85126768D01*
X158008793Y-85125441D01*
X157912971Y-85124187D01*
X157907274Y-85125166D01*
X157907273Y-85125166D01*
X157718607Y-85157585D01*
X157712910Y-85158564D01*
X157522463Y-85228824D01*
X157348010Y-85332612D01*
X157343670Y-85336418D01*
X157343666Y-85336421D01*
X157270538Y-85400553D01*
X157195392Y-85466455D01*
X157069720Y-85625869D01*
X157067031Y-85630980D01*
X157067029Y-85630983D01*
X157020236Y-85719921D01*
X156975203Y-85805515D01*
X156915007Y-85999378D01*
X156891148Y-86200964D01*
X152030638Y-86200964D01*
X152030638Y-83660964D01*
X156891148Y-83660964D01*
X156904424Y-83863522D01*
X156905845Y-83869118D01*
X156905846Y-83869123D01*
X156933658Y-83978631D01*
X156954392Y-84060269D01*
X156956809Y-84065512D01*
X156991839Y-84141498D01*
X157039377Y-84244616D01*
X157042710Y-84249332D01*
X157137208Y-84383044D01*
X157156533Y-84410389D01*
X157301938Y-84552035D01*
X157470720Y-84664812D01*
X157476023Y-84667090D01*
X157476026Y-84667092D01*
X157563562Y-84704700D01*
X157657228Y-84744942D01*
X157718808Y-84758876D01*
X157849579Y-84788467D01*
X157849584Y-84788468D01*
X157855216Y-84789742D01*
X157860987Y-84789969D01*
X157860989Y-84789969D01*
X157920756Y-84792317D01*
X158058053Y-84797712D01*
X158158499Y-84783148D01*
X158253231Y-84769413D01*
X158253236Y-84769412D01*
X158258945Y-84768584D01*
X158264409Y-84766729D01*
X158264414Y-84766728D01*
X158445693Y-84705192D01*
X158445698Y-84705190D01*
X158451165Y-84703334D01*
X158461640Y-84697468D01*
X158544116Y-84651279D01*
X158628276Y-84604147D01*
X158638202Y-84595892D01*
X158779913Y-84478031D01*
X158784345Y-84474345D01*
X158882506Y-84356320D01*
X158910453Y-84322718D01*
X158910455Y-84322715D01*
X158914147Y-84318276D01*
X158973845Y-84211677D01*
X159010510Y-84146208D01*
X159010511Y-84146206D01*
X159013334Y-84141165D01*
X159015190Y-84135698D01*
X159015192Y-84135693D01*
X159076728Y-83954414D01*
X159076729Y-83954409D01*
X159078584Y-83948945D01*
X159079412Y-83943236D01*
X159079413Y-83943231D01*
X159104032Y-83773432D01*
X159107712Y-83748053D01*
X159109232Y-83690000D01*
X159092942Y-83512714D01*
X159091187Y-83493613D01*
X159091186Y-83493610D01*
X159090658Y-83487859D01*
X159086070Y-83471590D01*
X159037125Y-83298046D01*
X159037124Y-83298044D01*
X159035557Y-83292487D01*
X159027147Y-83275432D01*
X158948331Y-83115609D01*
X158945776Y-83110428D01*
X158824320Y-82947779D01*
X158675258Y-82809987D01*
X158670375Y-82806906D01*
X158670371Y-82806903D01*
X158508464Y-82704748D01*
X158503581Y-82701667D01*
X158315039Y-82626446D01*
X158309379Y-82625320D01*
X158309375Y-82625319D01*
X158121613Y-82587971D01*
X158121610Y-82587971D01*
X158115946Y-82586844D01*
X158110171Y-82586768D01*
X158110167Y-82586768D01*
X158008793Y-82585441D01*
X157912971Y-82584187D01*
X157907274Y-82585166D01*
X157907273Y-82585166D01*
X157718607Y-82617585D01*
X157712910Y-82618564D01*
X157522463Y-82688824D01*
X157348010Y-82792612D01*
X157343670Y-82796418D01*
X157343666Y-82796421D01*
X157226126Y-82899502D01*
X157195392Y-82926455D01*
X157191817Y-82930990D01*
X157191816Y-82930991D01*
X157185747Y-82938689D01*
X157069720Y-83085869D01*
X157067031Y-83090980D01*
X157067029Y-83090983D01*
X157029770Y-83161800D01*
X156975203Y-83265515D01*
X156915007Y-83459378D01*
X156891148Y-83660964D01*
X152030638Y-83660964D01*
X152030638Y-81418962D01*
X156929179Y-81418962D01*
X156953443Y-81514502D01*
X156957284Y-81525348D01*
X157037394Y-81699120D01*
X157043145Y-81709081D01*
X157153579Y-81865343D01*
X157161057Y-81874098D01*
X157298114Y-82007612D01*
X157307058Y-82014855D01*
X157466156Y-82121161D01*
X157476266Y-82126651D01*
X157652077Y-82202185D01*
X157663020Y-82205740D01*
X157726331Y-82220066D01*
X157740405Y-82219177D01*
X157743766Y-82210391D01*
X158256000Y-82210391D01*
X158259966Y-82223897D01*
X158267866Y-82225028D01*
X158445497Y-82164730D01*
X158455994Y-82160056D01*
X158622958Y-82066552D01*
X158632430Y-82060042D01*
X158779553Y-81937682D01*
X158787682Y-81929553D01*
X158910042Y-81782430D01*
X158916552Y-81772958D01*
X159010056Y-81605994D01*
X159014730Y-81595497D01*
X159075038Y-81417838D01*
X159073919Y-81409992D01*
X159060353Y-81406000D01*
X158274115Y-81406000D01*
X158258876Y-81410475D01*
X158257671Y-81411865D01*
X158256000Y-81419548D01*
X158256000Y-82210391D01*
X157743766Y-82210391D01*
X157744000Y-82209778D01*
X157744000Y-81424115D01*
X157739525Y-81408876D01*
X157738135Y-81407671D01*
X157730452Y-81406000D01*
X156944002Y-81406000D01*
X156930471Y-81409973D01*
X156929179Y-81418962D01*
X152030638Y-81418962D01*
X152030638Y-80890799D01*
X156928564Y-80890799D01*
X156935296Y-80894000D01*
X157725885Y-80894000D01*
X157741124Y-80889525D01*
X157742329Y-80888135D01*
X157744000Y-80880452D01*
X157744000Y-80875885D01*
X158256000Y-80875885D01*
X158260475Y-80891124D01*
X158261865Y-80892329D01*
X158269548Y-80894000D01*
X159056834Y-80894000D01*
X159070365Y-80890027D01*
X159071534Y-80881892D01*
X159036658Y-80758231D01*
X159032533Y-80747484D01*
X158947903Y-80575871D01*
X158941893Y-80566063D01*
X158827400Y-80412739D01*
X158819710Y-80404199D01*
X158679192Y-80274304D01*
X158670067Y-80267303D01*
X158508236Y-80165195D01*
X158497989Y-80159974D01*
X158320260Y-80089068D01*
X158309233Y-80085801D01*
X158273770Y-80078748D01*
X158260894Y-80079900D01*
X158256000Y-80095053D01*
X158256000Y-80875885D01*
X157744000Y-80875885D01*
X157744000Y-80091844D01*
X157740194Y-80078882D01*
X157725279Y-80076946D01*
X157718737Y-80078070D01*
X157707617Y-80081050D01*
X157528095Y-80147279D01*
X157517717Y-80152229D01*
X157353273Y-80250063D01*
X157343961Y-80256829D01*
X157200097Y-80382994D01*
X157192180Y-80391337D01*
X157073718Y-80541605D01*
X157067450Y-80551256D01*
X156978358Y-80720592D01*
X156973953Y-80731227D01*
X156928783Y-80876698D01*
X156928564Y-80890799D01*
X152030638Y-80890799D01*
X152030638Y-77906954D01*
X152050640Y-77838833D01*
X152067542Y-77817859D01*
X152690973Y-77194426D01*
X152695348Y-77190051D01*
X152713347Y-77163115D01*
X152730504Y-77137439D01*
X152730505Y-77137437D01*
X152737400Y-77127118D01*
X152739860Y-77114754D01*
X152754731Y-77039988D01*
X152757152Y-77027817D01*
X152737400Y-76928516D01*
X152711477Y-76889719D01*
X152698789Y-76870729D01*
X152698786Y-76870725D01*
X152695350Y-76865583D01*
X152421149Y-76591382D01*
X151603615Y-75773850D01*
X151599240Y-75769475D01*
X151547328Y-75734787D01*
X151546628Y-75734319D01*
X151546626Y-75734318D01*
X151536307Y-75727423D01*
X151524133Y-75725002D01*
X151524132Y-75725001D01*
X151449177Y-75710092D01*
X151437006Y-75707671D01*
X151424835Y-75710092D01*
X151349875Y-75725002D01*
X151349874Y-75725003D01*
X151337705Y-75727423D01*
X151326684Y-75734787D01*
X151279918Y-75766034D01*
X151279914Y-75766037D01*
X151274772Y-75769473D01*
X151270395Y-75773850D01*
X151098180Y-75946066D01*
X150602928Y-76441319D01*
X150589628Y-76461223D01*
X150567772Y-76493931D01*
X150567771Y-76493933D01*
X150560876Y-76504252D01*
X150558455Y-76516426D01*
X150558454Y-76516427D01*
X150546352Y-76577269D01*
X150541124Y-76603553D01*
X150560876Y-76702854D01*
X150567769Y-76713170D01*
X150599487Y-76760641D01*
X150599490Y-76760645D01*
X150602926Y-76765787D01*
X150926252Y-77089112D01*
X151230733Y-77393593D01*
X151264758Y-77455906D01*
X151267638Y-77482689D01*
X151267638Y-93307197D01*
X151247636Y-93375318D01*
X151230733Y-93396292D01*
X149842491Y-94784534D01*
X149780179Y-94818560D01*
X149709364Y-94813495D01*
X149683396Y-94800205D01*
X149627118Y-94762600D01*
X149614944Y-94760179D01*
X149614943Y-94760178D01*
X149539988Y-94745269D01*
X149527817Y-94742848D01*
X149515646Y-94745269D01*
X149440686Y-94760179D01*
X149440685Y-94760180D01*
X149428516Y-94762600D01*
X149408667Y-94775862D01*
X149370729Y-94801211D01*
X149370725Y-94801214D01*
X149365583Y-94804650D01*
X149361206Y-94809027D01*
X149087835Y-95082399D01*
X148269475Y-95900760D01*
X148263653Y-95909473D01*
X148234319Y-95953372D01*
X148234318Y-95953374D01*
X148227423Y-95963693D01*
X148225002Y-95975867D01*
X148225001Y-95975868D01*
X148218505Y-96008527D01*
X148207671Y-96062994D01*
X147156133Y-96062994D01*
X149036170Y-94182957D01*
X149097135Y-94149232D01*
X149100827Y-94148386D01*
X149223332Y-94120329D01*
X149310513Y-94076482D01*
X149358072Y-94052563D01*
X149358075Y-94052561D01*
X149364855Y-94049151D01*
X149370626Y-94044222D01*
X149370629Y-94044220D01*
X149479536Y-93951204D01*
X149479536Y-93951203D01*
X149485314Y-93946269D01*
X149577755Y-93817624D01*
X149636842Y-93670641D01*
X149645979Y-93606441D01*
X149658581Y-93517891D01*
X149658581Y-93517888D01*
X149659162Y-93513807D01*
X149659307Y-93500000D01*
X149640276Y-93342733D01*
X149584280Y-93194546D01*
X149494553Y-93063992D01*
X149376275Y-92958611D01*
X149368889Y-92954700D01*
X149266899Y-92900699D01*
X149236274Y-92884484D01*
X149082633Y-92845892D01*
X149075034Y-92845852D01*
X149075033Y-92845852D01*
X149009181Y-92845507D01*
X148924221Y-92845062D01*
X148916841Y-92846834D01*
X148916839Y-92846834D01*
X148777563Y-92880271D01*
X148777560Y-92880272D01*
X148770184Y-92882043D01*
X148629414Y-92954700D01*
X148510039Y-93058838D01*
X148418950Y-93188444D01*
X148398411Y-93241124D01*
X148384771Y-93276110D01*
X148361406Y-93336037D01*
X148360414Y-93343570D01*
X148360414Y-93343571D01*
X148354340Y-93389711D01*
X148325618Y-93454638D01*
X148318513Y-93462360D01*
X145001278Y-96779595D01*
X144938966Y-96813621D01*
X144912183Y-96816500D01*
X138663851Y-96816500D01*
X138595730Y-96796498D01*
X138588992Y-96791851D01*
X138497655Y-96724388D01*
X138497650Y-96724386D01*
X138490076Y-96718791D01*
X138361127Y-96673507D01*
X138353485Y-96672785D01*
X138353482Y-96672784D01*
X138338579Y-96671376D01*
X138329315Y-96670500D01*
X138000223Y-96670500D01*
X137670686Y-96670501D01*
X137667738Y-96670780D01*
X137667729Y-96670780D01*
X137646522Y-96672784D01*
X137646520Y-96672784D01*
X137638873Y-96673507D01*
X137509924Y-96718791D01*
X137502350Y-96724386D01*
X137502345Y-96724388D01*
X137411008Y-96791851D01*
X137344330Y-96816234D01*
X137336149Y-96816500D01*
X135587817Y-96816500D01*
X135519696Y-96796498D01*
X135498722Y-96779595D01*
X132738419Y-94019292D01*
X135296001Y-94019292D01*
X135296370Y-94026110D01*
X135301841Y-94076482D01*
X135305470Y-94091741D01*
X135350222Y-94211118D01*
X135358754Y-94226704D01*
X135434572Y-94327867D01*
X135447133Y-94340428D01*
X135548296Y-94416246D01*
X135563882Y-94424778D01*
X135683265Y-94469533D01*
X135698510Y-94473158D01*
X135748892Y-94478631D01*
X135755706Y-94479000D01*
X135775885Y-94479000D01*
X135791124Y-94474525D01*
X135792329Y-94473135D01*
X135794000Y-94465452D01*
X135794000Y-94460884D01*
X136306000Y-94460884D01*
X136310475Y-94476123D01*
X136311865Y-94477328D01*
X136319548Y-94478999D01*
X136344292Y-94478999D01*
X136351110Y-94478630D01*
X136401482Y-94473159D01*
X136416741Y-94469530D01*
X136536118Y-94424778D01*
X136551704Y-94416246D01*
X136652867Y-94340428D01*
X136665428Y-94327867D01*
X136741246Y-94226704D01*
X136749778Y-94211118D01*
X136794533Y-94091735D01*
X136798158Y-94076490D01*
X136803631Y-94026108D01*
X136804000Y-94019294D01*
X136804000Y-93774115D01*
X136799525Y-93758876D01*
X136798135Y-93757671D01*
X136790452Y-93756000D01*
X136324115Y-93756000D01*
X136308876Y-93760475D01*
X136307671Y-93761865D01*
X136306000Y-93769548D01*
X136306000Y-94460884D01*
X135794000Y-94460884D01*
X135794000Y-93774115D01*
X135789525Y-93758876D01*
X135788135Y-93757671D01*
X135780452Y-93756000D01*
X135314116Y-93756000D01*
X135298877Y-93760475D01*
X135297672Y-93761865D01*
X135296001Y-93769548D01*
X135296001Y-94019292D01*
X132738419Y-94019292D01*
X132659823Y-93940696D01*
X132652200Y-93931156D01*
X132651832Y-93931470D01*
X132646014Y-93924634D01*
X132641224Y-93917042D01*
X132600875Y-93881407D01*
X132595188Y-93876061D01*
X132583745Y-93864618D01*
X132575370Y-93858341D01*
X132567541Y-93851967D01*
X132532049Y-93820622D01*
X132523926Y-93816808D01*
X132521438Y-93815174D01*
X132506477Y-93806186D01*
X132503892Y-93804771D01*
X132496705Y-93799384D01*
X132452357Y-93782759D01*
X132443040Y-93778832D01*
X132408326Y-93762534D01*
X132400200Y-93758719D01*
X132391331Y-93757338D01*
X132388498Y-93756472D01*
X132371611Y-93752042D01*
X132368726Y-93751408D01*
X132360316Y-93748255D01*
X132331158Y-93746088D01*
X132313094Y-93744746D01*
X132303048Y-93743592D01*
X132294425Y-93742249D01*
X132294422Y-93742249D01*
X132289614Y-93741500D01*
X132274094Y-93741500D01*
X132264757Y-93741154D01*
X132247854Y-93739898D01*
X132215059Y-93737461D01*
X132206280Y-93739335D01*
X132198022Y-93739898D01*
X132182839Y-93741500D01*
X128634500Y-93741500D01*
X128566379Y-93721498D01*
X128519886Y-93667842D01*
X128508500Y-93615500D01*
X128508500Y-93225885D01*
X135296000Y-93225885D01*
X135300475Y-93241124D01*
X135301865Y-93242329D01*
X135309548Y-93244000D01*
X135775885Y-93244000D01*
X135791124Y-93239525D01*
X135792329Y-93238135D01*
X135794000Y-93230452D01*
X135794000Y-93225885D01*
X136306000Y-93225885D01*
X136310475Y-93241124D01*
X136311865Y-93242329D01*
X136319548Y-93244000D01*
X136785884Y-93244000D01*
X136801123Y-93239525D01*
X136802328Y-93238135D01*
X136803999Y-93230452D01*
X136803999Y-92980708D01*
X136803630Y-92973890D01*
X136798159Y-92923518D01*
X136794530Y-92908259D01*
X136749778Y-92788882D01*
X136741246Y-92773296D01*
X136665428Y-92672133D01*
X136652867Y-92659572D01*
X136551704Y-92583754D01*
X136536118Y-92575222D01*
X136416735Y-92530467D01*
X136401490Y-92526842D01*
X136351108Y-92521369D01*
X136344294Y-92521000D01*
X136324115Y-92521000D01*
X136308876Y-92525475D01*
X136307671Y-92526865D01*
X136306000Y-92534548D01*
X136306000Y-93225885D01*
X135794000Y-93225885D01*
X135794000Y-92539116D01*
X135789525Y-92523877D01*
X135788135Y-92522672D01*
X135780452Y-92521001D01*
X135755708Y-92521001D01*
X135748890Y-92521370D01*
X135698518Y-92526841D01*
X135683259Y-92530470D01*
X135563882Y-92575222D01*
X135548296Y-92583754D01*
X135447133Y-92659572D01*
X135434572Y-92672133D01*
X135358754Y-92773296D01*
X135350222Y-92788882D01*
X135305467Y-92908265D01*
X135301842Y-92923510D01*
X135296369Y-92973892D01*
X135296000Y-92980706D01*
X135296000Y-93225885D01*
X128508500Y-93225885D01*
X128508500Y-91296073D01*
X128509855Y-91283944D01*
X128509373Y-91283905D01*
X128510093Y-91274954D01*
X128512074Y-91266200D01*
X128508742Y-91212492D01*
X128508500Y-91204690D01*
X128508500Y-91188487D01*
X128507016Y-91178122D01*
X128505987Y-91168072D01*
X128503611Y-91129784D01*
X128503055Y-91120823D01*
X128500006Y-91112377D01*
X128499407Y-91109486D01*
X128495178Y-91092520D01*
X128494352Y-91089695D01*
X128493080Y-91080813D01*
X128473478Y-91037702D01*
X128469672Y-91028351D01*
X128456645Y-90992264D01*
X128456644Y-90992262D01*
X128453596Y-90983819D01*
X128448299Y-90976569D01*
X128444249Y-90968952D01*
X128429499Y-90909796D01*
X128429499Y-90670686D01*
X128426493Y-90638873D01*
X128381209Y-90509924D01*
X128300010Y-90399990D01*
X128190076Y-90318791D01*
X128061127Y-90273507D01*
X128053485Y-90272785D01*
X128053482Y-90272784D01*
X128038085Y-90271329D01*
X128029315Y-90270500D01*
X127775172Y-90270500D01*
X127520686Y-90270501D01*
X127517738Y-90270780D01*
X127517729Y-90270780D01*
X127496522Y-90272784D01*
X127496520Y-90272784D01*
X127488873Y-90273507D01*
X127359924Y-90318791D01*
X127249990Y-90399990D01*
X127168791Y-90509924D01*
X127123507Y-90638873D01*
X127120500Y-90670685D01*
X127120501Y-91329314D01*
X127123507Y-91361127D01*
X127168791Y-91490076D01*
X127249990Y-91600010D01*
X127359924Y-91681209D01*
X127407251Y-91697829D01*
X127464893Y-91739270D01*
X127490982Y-91805299D01*
X127491500Y-91816710D01*
X127491500Y-93615500D01*
X127471498Y-93683621D01*
X127417842Y-93730114D01*
X127365500Y-93741500D01*
X125894682Y-93741500D01*
X125826561Y-93721498D01*
X125780068Y-93667842D01*
X125769964Y-93597568D01*
X125793856Y-93539935D01*
X125841246Y-93476704D01*
X125849778Y-93461118D01*
X125894533Y-93341735D01*
X125898158Y-93326490D01*
X125903631Y-93276108D01*
X125904000Y-93269294D01*
X125904000Y-93024115D01*
X125899525Y-93008876D01*
X125898135Y-93007671D01*
X125890452Y-93006000D01*
X124414116Y-93006000D01*
X124398877Y-93010475D01*
X124397672Y-93011865D01*
X124396001Y-93019548D01*
X124396001Y-93269292D01*
X124396370Y-93276110D01*
X124401841Y-93326482D01*
X124405470Y-93341741D01*
X124450222Y-93461118D01*
X124458754Y-93476704D01*
X124506144Y-93539935D01*
X124530992Y-93606441D01*
X124515939Y-93675823D01*
X124465765Y-93726054D01*
X124405318Y-93741500D01*
X123995307Y-93741500D01*
X123927186Y-93721498D01*
X123880693Y-93667842D01*
X123870589Y-93597568D01*
X123894481Y-93539935D01*
X123941689Y-93476946D01*
X123941691Y-93476943D01*
X123947071Y-93469764D01*
X123997798Y-93334448D01*
X124000759Y-93307197D01*
X124004131Y-93276153D01*
X124004131Y-93276152D01*
X124004500Y-93272756D01*
X124004500Y-92227244D01*
X123997798Y-92165552D01*
X123947071Y-92030236D01*
X123941691Y-92023057D01*
X123941689Y-92023054D01*
X123865788Y-91921779D01*
X123865785Y-91921776D01*
X123860404Y-91914596D01*
X123853224Y-91909215D01*
X123853220Y-91909211D01*
X123808936Y-91876023D01*
X123766420Y-91819164D01*
X123758500Y-91775196D01*
X123758500Y-91613231D01*
X123778502Y-91545110D01*
X123783674Y-91537666D01*
X123819533Y-91489820D01*
X123819535Y-91489815D01*
X123824917Y-91482635D01*
X123832285Y-91462980D01*
X123874927Y-91406216D01*
X123941488Y-91381516D01*
X124010837Y-91396724D01*
X124060955Y-91447010D01*
X124068249Y-91462982D01*
X124072374Y-91473986D01*
X124080908Y-91489575D01*
X124152434Y-91585010D01*
X124164990Y-91597566D01*
X124260425Y-91669092D01*
X124276012Y-91677625D01*
X124388689Y-91719865D01*
X124403934Y-91723490D01*
X124442571Y-91727687D01*
X124508133Y-91754929D01*
X124548559Y-91813292D01*
X124551014Y-91884246D01*
X124529789Y-91928515D01*
X124458754Y-92023296D01*
X124450222Y-92038882D01*
X124405467Y-92158265D01*
X124401842Y-92173510D01*
X124396369Y-92223892D01*
X124396000Y-92230706D01*
X124396000Y-92475885D01*
X124400475Y-92491124D01*
X124401865Y-92492329D01*
X124409548Y-92494000D01*
X125885884Y-92494000D01*
X125901123Y-92489525D01*
X125902328Y-92488135D01*
X125903999Y-92480452D01*
X125903999Y-92230708D01*
X125903630Y-92223890D01*
X125898159Y-92173518D01*
X125894530Y-92158259D01*
X125849778Y-92038882D01*
X125841246Y-92023296D01*
X125772122Y-91931065D01*
X125747274Y-91864559D01*
X125762327Y-91795176D01*
X125812501Y-91744946D01*
X125872948Y-91729500D01*
X126090725Y-91729500D01*
X126379314Y-91729499D01*
X126382262Y-91729220D01*
X126382271Y-91729220D01*
X126403478Y-91727216D01*
X126403480Y-91727216D01*
X126411127Y-91726493D01*
X126540076Y-91681209D01*
X126650010Y-91600010D01*
X126731209Y-91490076D01*
X126776493Y-91361127D01*
X126779500Y-91329315D01*
X126779499Y-90670686D01*
X126776493Y-90638873D01*
X126731209Y-90509924D01*
X126729457Y-90507553D01*
X126715941Y-90441339D01*
X126741603Y-90375142D01*
X126784880Y-90339374D01*
X126858071Y-90302563D01*
X126864855Y-90299151D01*
X126870626Y-90294222D01*
X126870629Y-90294220D01*
X126979536Y-90201204D01*
X126979536Y-90201203D01*
X126985314Y-90196269D01*
X127077755Y-90067624D01*
X127136842Y-89920641D01*
X127156785Y-89780510D01*
X127158581Y-89767891D01*
X127158581Y-89767888D01*
X127159162Y-89763807D01*
X127159307Y-89750000D01*
X127140276Y-89592733D01*
X127096293Y-89476337D01*
X127090925Y-89405544D01*
X127124682Y-89343086D01*
X127186848Y-89308794D01*
X127257685Y-89313556D01*
X127269492Y-89318599D01*
X127281802Y-89324616D01*
X127322323Y-89344423D01*
X127352645Y-89348847D01*
X127386872Y-89353840D01*
X127386876Y-89353840D01*
X127391398Y-89354500D01*
X127658602Y-89354500D01*
X127663152Y-89353830D01*
X127663155Y-89353830D01*
X127718592Y-89345669D01*
X127718593Y-89345669D01*
X127728278Y-89344243D01*
X127737071Y-89339926D01*
X127794440Y-89311760D01*
X127864403Y-89299692D01*
X127905303Y-89311663D01*
X127972323Y-89344423D01*
X128002645Y-89348847D01*
X128036872Y-89353840D01*
X128036876Y-89353840D01*
X128041398Y-89354500D01*
X128308602Y-89354500D01*
X128313152Y-89353830D01*
X128313155Y-89353830D01*
X128368592Y-89345669D01*
X128368593Y-89345669D01*
X128378278Y-89344243D01*
X128469018Y-89299692D01*
X128474868Y-89296820D01*
X128474870Y-89296819D01*
X128484216Y-89292230D01*
X128567595Y-89208706D01*
X128619423Y-89102677D01*
X128629500Y-89033602D01*
X128629500Y-88870000D01*
X128649502Y-88801879D01*
X128703158Y-88755386D01*
X128755500Y-88744000D01*
X129652288Y-88744000D01*
X129720409Y-88764002D01*
X129741383Y-88780905D01*
X130718385Y-89757908D01*
X131691956Y-90731479D01*
X131707315Y-90750495D01*
X131708281Y-90751556D01*
X131713929Y-90760304D01*
X131722106Y-90766750D01*
X131740472Y-90781229D01*
X131744950Y-90785208D01*
X131745010Y-90785137D01*
X131748967Y-90788490D01*
X131752648Y-90792171D01*
X131756880Y-90795195D01*
X131756882Y-90795197D01*
X131768457Y-90803469D01*
X131773202Y-90807032D01*
X131813670Y-90838934D01*
X131822355Y-90841984D01*
X131829842Y-90847334D01*
X131879247Y-90862109D01*
X131884842Y-90863927D01*
X131933502Y-90881016D01*
X131939091Y-90881500D01*
X131941804Y-90881500D01*
X131944469Y-90881615D01*
X131944532Y-90881634D01*
X131944525Y-90881808D01*
X131945271Y-90881855D01*
X131951524Y-90883725D01*
X132001383Y-90881766D01*
X132005678Y-90881597D01*
X132010625Y-90881500D01*
X134474500Y-90881500D01*
X134542621Y-90901502D01*
X134589114Y-90955158D01*
X134600500Y-91007500D01*
X134600500Y-91490324D01*
X134603424Y-91521258D01*
X134647463Y-91646661D01*
X134653058Y-91654236D01*
X134653059Y-91654238D01*
X134708648Y-91729500D01*
X134726428Y-91753572D01*
X134733999Y-91759164D01*
X134825762Y-91826941D01*
X134825764Y-91826942D01*
X134833339Y-91832537D01*
X134958742Y-91876576D01*
X134966384Y-91877298D01*
X134966387Y-91877299D01*
X134980675Y-91878649D01*
X134989676Y-91879500D01*
X135470324Y-91879500D01*
X135479325Y-91878649D01*
X135493613Y-91877299D01*
X135493616Y-91877298D01*
X135501258Y-91876576D01*
X135626661Y-91832537D01*
X135634236Y-91826942D01*
X135634238Y-91826941D01*
X135726001Y-91759164D01*
X135733572Y-91753572D01*
X135751352Y-91729500D01*
X135806941Y-91654238D01*
X135806942Y-91654236D01*
X135812537Y-91646661D01*
X135856576Y-91521258D01*
X135859500Y-91490324D01*
X137140500Y-91490324D01*
X137143424Y-91521258D01*
X137187463Y-91646661D01*
X137193058Y-91654236D01*
X137193059Y-91654238D01*
X137236852Y-91713529D01*
X137261234Y-91780208D01*
X137261500Y-91788388D01*
X137261500Y-92734997D01*
X137250189Y-92779209D01*
X137252929Y-92780236D01*
X137202202Y-92915552D01*
X137201349Y-92923402D01*
X137201349Y-92923403D01*
X137197524Y-92958611D01*
X137195500Y-92977244D01*
X137195500Y-94022756D01*
X137202202Y-94084448D01*
X137204974Y-94091841D01*
X137204974Y-94091843D01*
X137215653Y-94120329D01*
X137252929Y-94219764D01*
X137258309Y-94226943D01*
X137258311Y-94226946D01*
X137324287Y-94314977D01*
X137339596Y-94335404D01*
X137441068Y-94411452D01*
X137483580Y-94468309D01*
X137491500Y-94512276D01*
X137491500Y-95018821D01*
X137471498Y-95086942D01*
X137440360Y-95120172D01*
X137399990Y-95149990D01*
X137318791Y-95259924D01*
X137273507Y-95388873D01*
X137270500Y-95420685D01*
X137270501Y-95929314D01*
X137270780Y-95932262D01*
X137270780Y-95932271D01*
X137272784Y-95953478D01*
X137273507Y-95961127D01*
X137318791Y-96090076D01*
X137399990Y-96200010D01*
X137509924Y-96281209D01*
X137638873Y-96326493D01*
X137646515Y-96327215D01*
X137646518Y-96327216D01*
X137661421Y-96328624D01*
X137670685Y-96329500D01*
X137999777Y-96329500D01*
X138329314Y-96329499D01*
X138332262Y-96329220D01*
X138332271Y-96329220D01*
X138353478Y-96327216D01*
X138353480Y-96327216D01*
X138361127Y-96326493D01*
X138490076Y-96281209D01*
X138600010Y-96200010D01*
X138681209Y-96090076D01*
X138726493Y-95961127D01*
X138729500Y-95929315D01*
X138729499Y-95420686D01*
X138729000Y-95415399D01*
X138727216Y-95396522D01*
X138727215Y-95396518D01*
X138726493Y-95388873D01*
X138681209Y-95259924D01*
X138600010Y-95149990D01*
X138559640Y-95120172D01*
X138516730Y-95063611D01*
X138508500Y-95018821D01*
X138508500Y-94437331D01*
X138528502Y-94369210D01*
X138547997Y-94348258D01*
X138546874Y-94347135D01*
X138553223Y-94340786D01*
X138560404Y-94335404D01*
X138575713Y-94314977D01*
X138641689Y-94226946D01*
X138641691Y-94226943D01*
X138647071Y-94219764D01*
X138684347Y-94120329D01*
X138695026Y-94091843D01*
X138695026Y-94091841D01*
X138697798Y-94084448D01*
X138704500Y-94022756D01*
X138704500Y-92977244D01*
X138702476Y-92958611D01*
X138698651Y-92923403D01*
X138698651Y-92923402D01*
X138697798Y-92915552D01*
X138647071Y-92780236D01*
X138641691Y-92773057D01*
X138641689Y-92773054D01*
X138565785Y-92671776D01*
X138560404Y-92664596D01*
X138539977Y-92649287D01*
X138451946Y-92583311D01*
X138451943Y-92583309D01*
X138444764Y-92577929D01*
X138396317Y-92559767D01*
X138360271Y-92546254D01*
X138303506Y-92503613D01*
X138278806Y-92437051D01*
X138278500Y-92428272D01*
X138278500Y-91788388D01*
X138298502Y-91720267D01*
X138303148Y-91713529D01*
X138346941Y-91654238D01*
X138346942Y-91654236D01*
X138352537Y-91646661D01*
X138396576Y-91521258D01*
X138399500Y-91490324D01*
X138399500Y-89509676D01*
X138396576Y-89478742D01*
X138352537Y-89353339D01*
X138334806Y-89329332D01*
X138279164Y-89253999D01*
X138273572Y-89246428D01*
X138246196Y-89226208D01*
X138174238Y-89173059D01*
X138174236Y-89173058D01*
X138166661Y-89167463D01*
X138041258Y-89123424D01*
X138033616Y-89122702D01*
X138033613Y-89122701D01*
X138019325Y-89121351D01*
X138010324Y-89120500D01*
X137529676Y-89120500D01*
X137520675Y-89121351D01*
X137506387Y-89122701D01*
X137506384Y-89122702D01*
X137498742Y-89123424D01*
X137373339Y-89167463D01*
X137365764Y-89173058D01*
X137365762Y-89173059D01*
X137293804Y-89226208D01*
X137266428Y-89246428D01*
X137260836Y-89253999D01*
X137205195Y-89329332D01*
X137187463Y-89353339D01*
X137143424Y-89478742D01*
X137140500Y-89509676D01*
X137140500Y-91490324D01*
X135859500Y-91490324D01*
X135859500Y-89509676D01*
X135856576Y-89478742D01*
X135812537Y-89353339D01*
X135794806Y-89329332D01*
X135739164Y-89253999D01*
X135733572Y-89246428D01*
X135706196Y-89226208D01*
X135634238Y-89173059D01*
X135634236Y-89173058D01*
X135626661Y-89167463D01*
X135501258Y-89123424D01*
X135493616Y-89122702D01*
X135493613Y-89122701D01*
X135479325Y-89121351D01*
X135470324Y-89120500D01*
X134989676Y-89120500D01*
X134980675Y-89121351D01*
X134966387Y-89122701D01*
X134966384Y-89122702D01*
X134958742Y-89123424D01*
X134833339Y-89167463D01*
X134825764Y-89173058D01*
X134825762Y-89173059D01*
X134753804Y-89226208D01*
X134726428Y-89246428D01*
X134720836Y-89253999D01*
X134665195Y-89329332D01*
X134647463Y-89353339D01*
X134603424Y-89478742D01*
X134600500Y-89509676D01*
X134600500Y-89992500D01*
X134580498Y-90060621D01*
X134526842Y-90107114D01*
X134474500Y-90118500D01*
X132210212Y-90118500D01*
X132142091Y-90098498D01*
X132121117Y-90081595D01*
X131151591Y-89112068D01*
X130170544Y-88131021D01*
X130155185Y-88112005D01*
X130154219Y-88110944D01*
X130148571Y-88102196D01*
X130122028Y-88081271D01*
X130117553Y-88077294D01*
X130117492Y-88077365D01*
X130113535Y-88074012D01*
X130109852Y-88070329D01*
X130094061Y-88059045D01*
X130089315Y-88055482D01*
X130057007Y-88030012D01*
X130057006Y-88030011D01*
X130048830Y-88023566D01*
X130040143Y-88020515D01*
X130032657Y-88015166D01*
X130022681Y-88012183D01*
X130022680Y-88012182D01*
X129983289Y-88000402D01*
X129977657Y-87998572D01*
X129928998Y-87981484D01*
X129923409Y-87981000D01*
X129920698Y-87981000D01*
X129918031Y-87980885D01*
X129917968Y-87980866D01*
X129917975Y-87980692D01*
X129917229Y-87980645D01*
X129910976Y-87978775D01*
X129862192Y-87980692D01*
X129856822Y-87980903D01*
X129851875Y-87981000D01*
X128755500Y-87981000D01*
X128687379Y-87960998D01*
X128640886Y-87907342D01*
X128629500Y-87855000D01*
X128629500Y-87691398D01*
X128626052Y-87667971D01*
X128620669Y-87631408D01*
X128620669Y-87631407D01*
X128619243Y-87621722D01*
X128594498Y-87571322D01*
X128571820Y-87525132D01*
X128571819Y-87525130D01*
X128567230Y-87515784D01*
X128483706Y-87432405D01*
X128453077Y-87417433D01*
X128428079Y-87405214D01*
X128377677Y-87380577D01*
X128347355Y-87376153D01*
X128313128Y-87371160D01*
X128313124Y-87371160D01*
X128308602Y-87370500D01*
X128041398Y-87370500D01*
X128036848Y-87371170D01*
X128036845Y-87371170D01*
X127981408Y-87379331D01*
X127981407Y-87379331D01*
X127971722Y-87380757D01*
X127962930Y-87385074D01*
X127962929Y-87385074D01*
X127905560Y-87413240D01*
X127835597Y-87425308D01*
X127794697Y-87413337D01*
X127778079Y-87405214D01*
X127727677Y-87380577D01*
X127697355Y-87376153D01*
X127663128Y-87371160D01*
X127663124Y-87371160D01*
X127658602Y-87370500D01*
X127391398Y-87370500D01*
X127386848Y-87371170D01*
X127386845Y-87371170D01*
X127331408Y-87379331D01*
X127331407Y-87379331D01*
X127321722Y-87380757D01*
X127312930Y-87385074D01*
X127312929Y-87385074D01*
X127255560Y-87413240D01*
X127185597Y-87425308D01*
X127144697Y-87413337D01*
X127128079Y-87405214D01*
X127077677Y-87380577D01*
X127047355Y-87376153D01*
X127013128Y-87371160D01*
X127013124Y-87371160D01*
X127008602Y-87370500D01*
X126741398Y-87370500D01*
X126736845Y-87371170D01*
X126736835Y-87371171D01*
X126735476Y-87371371D01*
X126735005Y-87371305D01*
X126732244Y-87371507D01*
X126732200Y-87370911D01*
X126665169Y-87361501D01*
X126611358Y-87315187D01*
X126591130Y-87247133D01*
X126610905Y-87178947D01*
X126628034Y-87157619D01*
X128298368Y-85487286D01*
X134601001Y-85487286D01*
X134601280Y-85493207D01*
X134603200Y-85513520D01*
X134606465Y-85528405D01*
X134644791Y-85637543D01*
X134653504Y-85653998D01*
X134721194Y-85745643D01*
X134734357Y-85758806D01*
X134826002Y-85826496D01*
X134842457Y-85835209D01*
X134951594Y-85873534D01*
X134959143Y-85875190D01*
X134970797Y-85872933D01*
X134974000Y-85860954D01*
X134974000Y-85859396D01*
X135486000Y-85859396D01*
X135490256Y-85873892D01*
X135499597Y-85875467D01*
X135508406Y-85873534D01*
X135617543Y-85835209D01*
X135633998Y-85826496D01*
X135725643Y-85758806D01*
X135738806Y-85745643D01*
X135806496Y-85653998D01*
X135815209Y-85637543D01*
X135853533Y-85528410D01*
X135856801Y-85513516D01*
X135858721Y-85493201D01*
X135859000Y-85487290D01*
X135859000Y-85487286D01*
X137141001Y-85487286D01*
X137141280Y-85493207D01*
X137143200Y-85513520D01*
X137146465Y-85528405D01*
X137184791Y-85637543D01*
X137193504Y-85653998D01*
X137261194Y-85745643D01*
X137274357Y-85758806D01*
X137366002Y-85826496D01*
X137382457Y-85835209D01*
X137491594Y-85873534D01*
X137499143Y-85875190D01*
X137510797Y-85872933D01*
X137514000Y-85860954D01*
X137514000Y-85859396D01*
X138026000Y-85859396D01*
X138030256Y-85873892D01*
X138039597Y-85875467D01*
X138048406Y-85873534D01*
X138157543Y-85835209D01*
X138173998Y-85826496D01*
X138265643Y-85758806D01*
X138278806Y-85745643D01*
X138346496Y-85653998D01*
X138355209Y-85637543D01*
X138393533Y-85528410D01*
X138396801Y-85513516D01*
X138398721Y-85493201D01*
X138399000Y-85487290D01*
X138399000Y-84774115D01*
X138394525Y-84758876D01*
X138393135Y-84757671D01*
X138385452Y-84756000D01*
X138044115Y-84756000D01*
X138028876Y-84760475D01*
X138027671Y-84761865D01*
X138026000Y-84769548D01*
X138026000Y-85859396D01*
X137514000Y-85859396D01*
X137514000Y-84774115D01*
X137509525Y-84758876D01*
X137508135Y-84757671D01*
X137500452Y-84756000D01*
X137159116Y-84756000D01*
X137143877Y-84760475D01*
X137142672Y-84761865D01*
X137141001Y-84769548D01*
X137141001Y-85487286D01*
X135859000Y-85487286D01*
X135859000Y-84774115D01*
X135854525Y-84758876D01*
X135853135Y-84757671D01*
X135845452Y-84756000D01*
X135504115Y-84756000D01*
X135488876Y-84760475D01*
X135487671Y-84761865D01*
X135486000Y-84769548D01*
X135486000Y-85859396D01*
X134974000Y-85859396D01*
X134974000Y-84774115D01*
X134969525Y-84758876D01*
X134968135Y-84757671D01*
X134960452Y-84756000D01*
X134619116Y-84756000D01*
X134603877Y-84760475D01*
X134602672Y-84761865D01*
X134601001Y-84769548D01*
X134601001Y-85487286D01*
X128298368Y-85487286D01*
X128535008Y-85250646D01*
X130617249Y-83168405D01*
X130679561Y-83134379D01*
X130706344Y-83131500D01*
X134562229Y-83131500D01*
X134630350Y-83151502D01*
X134676843Y-83205158D01*
X134686947Y-83275432D01*
X134663580Y-83332360D01*
X134653503Y-83346003D01*
X134644791Y-83362457D01*
X134606467Y-83471590D01*
X134603199Y-83486484D01*
X134601279Y-83506799D01*
X134601000Y-83512710D01*
X134601000Y-84225885D01*
X134605475Y-84241124D01*
X134606865Y-84242329D01*
X134614548Y-84244000D01*
X135840884Y-84244000D01*
X135856123Y-84239525D01*
X135857328Y-84238135D01*
X135858999Y-84230452D01*
X135858999Y-83512714D01*
X135858720Y-83506793D01*
X135856800Y-83486480D01*
X135853535Y-83471595D01*
X135815209Y-83362457D01*
X135806497Y-83346003D01*
X135796420Y-83332360D01*
X135772037Y-83265682D01*
X135787573Y-83196406D01*
X135838096Y-83146527D01*
X135897771Y-83131500D01*
X137102229Y-83131500D01*
X137170350Y-83151502D01*
X137216843Y-83205158D01*
X137226947Y-83275432D01*
X137203580Y-83332360D01*
X137193503Y-83346003D01*
X137184791Y-83362457D01*
X137146467Y-83471590D01*
X137143199Y-83486484D01*
X137141279Y-83506799D01*
X137141000Y-83512710D01*
X137141000Y-84225885D01*
X137145475Y-84241124D01*
X137146865Y-84242329D01*
X137154548Y-84244000D01*
X137495885Y-84244000D01*
X137511124Y-84239525D01*
X137512329Y-84238135D01*
X137514000Y-84230452D01*
X137514000Y-84225885D01*
X138026000Y-84225885D01*
X138030475Y-84241124D01*
X138031865Y-84242329D01*
X138039548Y-84244000D01*
X138380884Y-84244000D01*
X138396123Y-84239525D01*
X138397328Y-84238135D01*
X138398999Y-84230452D01*
X138398999Y-83544026D01*
X148771114Y-83544026D01*
X148771369Y-83548741D01*
X148776510Y-83596066D01*
X148780135Y-83611311D01*
X148822375Y-83723988D01*
X148830908Y-83739575D01*
X148902434Y-83835010D01*
X148914990Y-83847566D01*
X149010425Y-83919092D01*
X149026012Y-83927625D01*
X149138689Y-83969865D01*
X149153934Y-83973490D01*
X149201259Y-83978631D01*
X149208073Y-83979000D01*
X149225885Y-83979000D01*
X149241124Y-83974525D01*
X149242329Y-83973135D01*
X149244000Y-83965452D01*
X149244000Y-83960885D01*
X149756000Y-83960885D01*
X149760475Y-83976124D01*
X149761865Y-83977329D01*
X149769548Y-83979000D01*
X149791927Y-83979000D01*
X149798741Y-83978631D01*
X149846066Y-83973490D01*
X149861311Y-83969865D01*
X149973988Y-83927625D01*
X149989575Y-83919092D01*
X150085010Y-83847566D01*
X150097566Y-83835010D01*
X150169092Y-83739575D01*
X150177625Y-83723988D01*
X150219865Y-83611311D01*
X150223490Y-83596066D01*
X150228631Y-83548741D01*
X150228671Y-83547996D01*
X150224525Y-83533876D01*
X150223135Y-83532671D01*
X150215452Y-83531000D01*
X149774115Y-83531000D01*
X149758876Y-83535475D01*
X149757671Y-83536865D01*
X149756000Y-83544548D01*
X149756000Y-83960885D01*
X149244000Y-83960885D01*
X149244000Y-83549115D01*
X149239525Y-83533876D01*
X149238135Y-83532671D01*
X149230452Y-83531000D01*
X148789115Y-83531000D01*
X148773876Y-83535475D01*
X148772671Y-83536865D01*
X148771114Y-83544026D01*
X138398999Y-83544026D01*
X138398999Y-83512714D01*
X138398720Y-83506793D01*
X138396800Y-83486480D01*
X138393535Y-83471595D01*
X138355209Y-83362457D01*
X138346496Y-83346002D01*
X138278806Y-83254357D01*
X138265643Y-83241194D01*
X138173998Y-83173504D01*
X138157543Y-83164791D01*
X138048406Y-83126466D01*
X138040857Y-83124810D01*
X138029203Y-83127067D01*
X138026000Y-83139046D01*
X138026000Y-84225885D01*
X137514000Y-84225885D01*
X137514000Y-83124462D01*
X137534002Y-83056341D01*
X137547475Y-83038934D01*
X137568866Y-83015793D01*
X137572296Y-83012226D01*
X138591427Y-81993096D01*
X147340729Y-81993096D01*
X147346589Y-82046173D01*
X147356519Y-82136114D01*
X147358113Y-82150553D01*
X147360723Y-82157684D01*
X147360723Y-82157686D01*
X147389889Y-82237385D01*
X147412553Y-82299319D01*
X147416789Y-82305622D01*
X147416789Y-82305623D01*
X147495751Y-82423130D01*
X147500908Y-82430805D01*
X147506527Y-82435918D01*
X147506528Y-82435919D01*
X147612460Y-82532309D01*
X147618076Y-82537419D01*
X147757293Y-82613008D01*
X147910522Y-82653207D01*
X147994477Y-82654526D01*
X148061319Y-82655576D01*
X148061322Y-82655576D01*
X148068916Y-82655695D01*
X148223332Y-82620329D01*
X148312249Y-82575609D01*
X148358072Y-82552563D01*
X148358075Y-82552561D01*
X148364855Y-82549151D01*
X148370626Y-82544222D01*
X148370629Y-82544220D01*
X148479542Y-82451199D01*
X148479543Y-82451198D01*
X148485314Y-82446269D01*
X148489743Y-82440106D01*
X148489748Y-82440100D01*
X148509240Y-82412974D01*
X148565234Y-82369326D01*
X148611562Y-82360500D01*
X148961448Y-82360500D01*
X149017139Y-82374748D01*
X149017365Y-82374917D01*
X149037020Y-82382285D01*
X149093784Y-82424927D01*
X149118484Y-82491488D01*
X149103276Y-82560837D01*
X149052990Y-82610955D01*
X149037018Y-82618249D01*
X149026014Y-82622374D01*
X149010425Y-82630908D01*
X148914990Y-82702434D01*
X148902434Y-82714990D01*
X148830908Y-82810425D01*
X148822375Y-82826012D01*
X148780135Y-82938689D01*
X148776510Y-82953934D01*
X148771369Y-83001259D01*
X148771329Y-83002004D01*
X148775475Y-83016124D01*
X148776865Y-83017329D01*
X148784548Y-83019000D01*
X150210885Y-83019000D01*
X150226124Y-83014525D01*
X150227329Y-83013135D01*
X150228886Y-83005974D01*
X150228631Y-83001259D01*
X150223490Y-82953934D01*
X150219865Y-82938689D01*
X150177625Y-82826012D01*
X150169092Y-82810425D01*
X150097566Y-82714990D01*
X150085010Y-82702434D01*
X149989575Y-82630908D01*
X149973986Y-82622374D01*
X149962982Y-82618249D01*
X149906217Y-82575609D01*
X149881516Y-82509047D01*
X149896723Y-82439698D01*
X149947008Y-82389579D01*
X149962980Y-82382285D01*
X149982635Y-82374917D01*
X149989814Y-82369537D01*
X149989817Y-82369535D01*
X150085367Y-82297923D01*
X150092544Y-82292544D01*
X150097923Y-82285367D01*
X150169535Y-82189817D01*
X150169537Y-82189814D01*
X150174917Y-82182635D01*
X150190546Y-82140944D01*
X150220358Y-82061419D01*
X150220358Y-82061418D01*
X150223130Y-82054024D01*
X150229500Y-81995389D01*
X150229499Y-81454612D01*
X150229130Y-81451212D01*
X150223984Y-81403834D01*
X150223983Y-81403830D01*
X150223130Y-81395976D01*
X150174917Y-81267365D01*
X150169534Y-81260183D01*
X150169532Y-81260179D01*
X150160675Y-81248361D01*
X150135826Y-81181855D01*
X150135500Y-81172795D01*
X150135500Y-79802091D01*
X150155502Y-79733970D01*
X150172404Y-79712996D01*
X150357520Y-79527879D01*
X150361895Y-79523504D01*
X150375195Y-79503600D01*
X150397051Y-79470892D01*
X150397052Y-79470890D01*
X150403947Y-79460571D01*
X150423699Y-79361270D01*
X150403947Y-79261969D01*
X150384356Y-79232648D01*
X150365336Y-79204182D01*
X150365333Y-79204178D01*
X150361897Y-79199036D01*
X150087696Y-78924835D01*
X149270162Y-78107303D01*
X149265787Y-78102928D01*
X149239901Y-78085631D01*
X149213175Y-78067772D01*
X149213173Y-78067771D01*
X149202854Y-78060876D01*
X149190680Y-78058455D01*
X149190679Y-78058454D01*
X149115724Y-78043545D01*
X149103553Y-78041124D01*
X149091382Y-78043545D01*
X149016422Y-78058455D01*
X149016421Y-78058456D01*
X149004252Y-78060876D01*
X148984403Y-78074138D01*
X148946465Y-78099487D01*
X148946461Y-78099490D01*
X148941319Y-78102926D01*
X148269475Y-78774772D01*
X148266038Y-78779916D01*
X148234319Y-78827384D01*
X148234318Y-78827386D01*
X148227423Y-78837705D01*
X148225002Y-78849879D01*
X148225001Y-78849880D01*
X148215827Y-78896001D01*
X148207671Y-78937006D01*
X148210092Y-78949177D01*
X148223135Y-79014748D01*
X148227423Y-79036307D01*
X148234316Y-79046623D01*
X148266034Y-79094094D01*
X148266036Y-79094096D01*
X148269473Y-79099240D01*
X148566103Y-79395869D01*
X148827595Y-79657361D01*
X148861620Y-79719674D01*
X148864500Y-79746457D01*
X148864500Y-80963500D01*
X148844498Y-81031621D01*
X148790842Y-81078114D01*
X148738500Y-81089500D01*
X148354032Y-81089500D01*
X148342793Y-81088970D01*
X148335281Y-81087291D01*
X148327356Y-81087540D01*
X148327355Y-81087540D01*
X148266970Y-81089438D01*
X148263012Y-81089500D01*
X148235017Y-81089500D01*
X148231083Y-81089997D01*
X148231081Y-81089997D01*
X148230994Y-81090008D01*
X148219160Y-81090940D01*
X148174795Y-81092335D01*
X148167182Y-81094547D01*
X148167181Y-81094547D01*
X148155252Y-81098013D01*
X148135888Y-81102023D01*
X148123560Y-81103580D01*
X148123558Y-81103580D01*
X148115701Y-81104573D01*
X148108337Y-81107489D01*
X148108332Y-81107490D01*
X148074444Y-81120907D01*
X148063215Y-81124752D01*
X148046535Y-81129598D01*
X148020607Y-81137131D01*
X148013780Y-81141169D01*
X148013777Y-81141170D01*
X148003094Y-81147488D01*
X147985336Y-81156188D01*
X147973785Y-81160761D01*
X147973779Y-81160765D01*
X147966412Y-81163681D01*
X147960001Y-81168339D01*
X147959999Y-81168340D01*
X147930512Y-81189764D01*
X147920590Y-81196281D01*
X147889232Y-81214826D01*
X147889228Y-81214829D01*
X147882402Y-81218866D01*
X147868018Y-81233250D01*
X147852984Y-81246091D01*
X147836513Y-81258058D01*
X147831460Y-81264166D01*
X147808228Y-81292249D01*
X147800238Y-81301030D01*
X147678736Y-81422531D01*
X147647432Y-81445400D01*
X147629414Y-81454700D01*
X147510039Y-81558838D01*
X147418950Y-81688444D01*
X147411415Y-81707770D01*
X147378851Y-81791294D01*
X147361406Y-81836037D01*
X147360414Y-81843570D01*
X147360414Y-81843571D01*
X147345784Y-81954700D01*
X147340729Y-81993096D01*
X138591427Y-81993096D01*
X139521086Y-81063437D01*
X139583398Y-81029411D01*
X139659920Y-81036765D01*
X139696917Y-81052661D01*
X139696925Y-81052663D01*
X139702228Y-81054942D01*
X139739771Y-81063437D01*
X139894579Y-81098467D01*
X139894584Y-81098468D01*
X139900216Y-81099742D01*
X139905987Y-81099969D01*
X139905989Y-81099969D01*
X139965756Y-81102317D01*
X140103053Y-81107712D01*
X140209106Y-81092335D01*
X140298231Y-81079413D01*
X140298236Y-81079412D01*
X140303945Y-81078584D01*
X140309409Y-81076729D01*
X140309414Y-81076728D01*
X140490693Y-81015192D01*
X140490698Y-81015190D01*
X140496165Y-81013334D01*
X140673276Y-80914147D01*
X140699510Y-80892329D01*
X140824913Y-80788031D01*
X140829345Y-80784345D01*
X140897169Y-80702796D01*
X140955453Y-80632718D01*
X140955455Y-80632715D01*
X140959147Y-80628276D01*
X141058334Y-80451165D01*
X141060190Y-80445698D01*
X141060192Y-80445693D01*
X141121728Y-80264414D01*
X141121729Y-80264409D01*
X141123584Y-80258945D01*
X141124412Y-80253236D01*
X141124413Y-80253231D01*
X141144270Y-80116275D01*
X141152712Y-80058053D01*
X141154232Y-80000000D01*
X141151564Y-79970964D01*
X141476148Y-79970964D01*
X141489424Y-80173522D01*
X141490845Y-80179118D01*
X141490846Y-80179123D01*
X141537971Y-80364674D01*
X141539392Y-80370269D01*
X141541809Y-80375512D01*
X141577864Y-80453721D01*
X141624377Y-80554616D01*
X141627710Y-80559332D01*
X141729100Y-80702796D01*
X141741533Y-80720389D01*
X141886938Y-80862035D01*
X141891742Y-80865245D01*
X141928831Y-80890027D01*
X142055720Y-80974812D01*
X142061023Y-80977090D01*
X142061026Y-80977092D01*
X142196421Y-81035262D01*
X142242228Y-81054942D01*
X142279771Y-81063437D01*
X142434579Y-81098467D01*
X142434584Y-81098468D01*
X142440216Y-81099742D01*
X142445987Y-81099969D01*
X142445989Y-81099969D01*
X142505756Y-81102317D01*
X142643053Y-81107712D01*
X142749106Y-81092335D01*
X142838231Y-81079413D01*
X142838236Y-81079412D01*
X142843945Y-81078584D01*
X142849409Y-81076729D01*
X142849414Y-81076728D01*
X143030693Y-81015192D01*
X143030698Y-81015190D01*
X143036165Y-81013334D01*
X143213276Y-80914147D01*
X143239510Y-80892329D01*
X143364913Y-80788031D01*
X143369345Y-80784345D01*
X143437169Y-80702796D01*
X143495453Y-80632718D01*
X143495455Y-80632715D01*
X143499147Y-80628276D01*
X143598334Y-80451165D01*
X143600190Y-80445698D01*
X143600192Y-80445693D01*
X143661728Y-80264414D01*
X143661729Y-80264409D01*
X143663584Y-80258945D01*
X143664412Y-80253236D01*
X143664413Y-80253231D01*
X143684270Y-80116275D01*
X143692712Y-80058053D01*
X143694232Y-80000000D01*
X143675658Y-79797859D01*
X143674090Y-79792299D01*
X143622125Y-79608046D01*
X143622124Y-79608044D01*
X143620557Y-79602487D01*
X143609978Y-79581033D01*
X143533331Y-79425609D01*
X143530776Y-79420428D01*
X143409320Y-79257779D01*
X143260258Y-79119987D01*
X143255375Y-79116906D01*
X143255371Y-79116903D01*
X143093464Y-79014748D01*
X143088581Y-79011667D01*
X142900039Y-78936446D01*
X142894379Y-78935320D01*
X142894375Y-78935319D01*
X142706613Y-78897971D01*
X142706610Y-78897971D01*
X142700946Y-78896844D01*
X142695171Y-78896768D01*
X142695167Y-78896768D01*
X142593793Y-78895441D01*
X142497971Y-78894187D01*
X142492274Y-78895166D01*
X142492273Y-78895166D01*
X142361530Y-78917632D01*
X142297910Y-78928564D01*
X142107463Y-78998824D01*
X141933010Y-79102612D01*
X141928670Y-79106418D01*
X141928666Y-79106421D01*
X141823060Y-79199036D01*
X141780392Y-79236455D01*
X141654720Y-79395869D01*
X141652031Y-79400980D01*
X141652029Y-79400983D01*
X141639073Y-79425609D01*
X141560203Y-79575515D01*
X141500007Y-79769378D01*
X141476148Y-79970964D01*
X141151564Y-79970964D01*
X141135658Y-79797859D01*
X141134090Y-79792299D01*
X141082125Y-79608046D01*
X141082124Y-79608044D01*
X141080557Y-79602487D01*
X141069978Y-79581033D01*
X140993331Y-79425609D01*
X140990776Y-79420428D01*
X140869320Y-79257779D01*
X140720258Y-79119987D01*
X140715375Y-79116906D01*
X140715371Y-79116903D01*
X140553464Y-79014748D01*
X140548581Y-79011667D01*
X140360039Y-78936446D01*
X140354379Y-78935320D01*
X140354375Y-78935319D01*
X140166613Y-78897971D01*
X140166610Y-78897971D01*
X140160946Y-78896844D01*
X140155171Y-78896768D01*
X140155167Y-78896768D01*
X140053793Y-78895441D01*
X139957971Y-78894187D01*
X139952274Y-78895166D01*
X139952273Y-78895166D01*
X139821530Y-78917632D01*
X139757910Y-78928564D01*
X139567463Y-78998824D01*
X139393010Y-79102612D01*
X139388670Y-79106418D01*
X139388666Y-79106421D01*
X139283060Y-79199036D01*
X139240392Y-79236455D01*
X139114720Y-79395869D01*
X139112031Y-79400980D01*
X139112029Y-79400983D01*
X139099073Y-79425609D01*
X139020203Y-79575515D01*
X138960007Y-79769378D01*
X138936148Y-79970964D01*
X138949424Y-80173522D01*
X138950845Y-80179118D01*
X138950846Y-80179123D01*
X138972508Y-80264414D01*
X138999392Y-80370269D01*
X139001809Y-80375512D01*
X139001811Y-80375517D01*
X139005483Y-80383483D01*
X139015836Y-80453721D01*
X138986573Y-80518406D01*
X138980151Y-80525327D01*
X138072858Y-81432619D01*
X137173882Y-82331595D01*
X137111570Y-82365621D01*
X137084787Y-82368500D01*
X135975212Y-82368500D01*
X135907091Y-82348498D01*
X135860598Y-82294842D01*
X135850494Y-82224568D01*
X135879988Y-82159988D01*
X135886117Y-82153405D01*
X136977588Y-81061934D01*
X137039900Y-81027908D01*
X137116422Y-81035262D01*
X137156917Y-81052661D01*
X137156925Y-81052663D01*
X137162228Y-81054942D01*
X137199771Y-81063437D01*
X137354579Y-81098467D01*
X137354584Y-81098468D01*
X137360216Y-81099742D01*
X137365987Y-81099969D01*
X137365989Y-81099969D01*
X137425756Y-81102317D01*
X137563053Y-81107712D01*
X137669106Y-81092335D01*
X137758231Y-81079413D01*
X137758236Y-81079412D01*
X137763945Y-81078584D01*
X137769409Y-81076729D01*
X137769414Y-81076728D01*
X137950693Y-81015192D01*
X137950698Y-81015190D01*
X137956165Y-81013334D01*
X138133276Y-80914147D01*
X138159510Y-80892329D01*
X138284913Y-80788031D01*
X138289345Y-80784345D01*
X138357169Y-80702796D01*
X138415453Y-80632718D01*
X138415455Y-80632715D01*
X138419147Y-80628276D01*
X138518334Y-80451165D01*
X138520190Y-80445698D01*
X138520192Y-80445693D01*
X138581728Y-80264414D01*
X138581729Y-80264409D01*
X138583584Y-80258945D01*
X138584412Y-80253236D01*
X138584413Y-80253231D01*
X138604270Y-80116275D01*
X138612712Y-80058053D01*
X138614232Y-80000000D01*
X138595658Y-79797859D01*
X138594090Y-79792299D01*
X138542125Y-79608046D01*
X138542124Y-79608044D01*
X138540557Y-79602487D01*
X138529978Y-79581033D01*
X138453331Y-79425609D01*
X138450776Y-79420428D01*
X138329320Y-79257779D01*
X138180258Y-79119987D01*
X138175375Y-79116906D01*
X138175371Y-79116903D01*
X138013464Y-79014748D01*
X138008581Y-79011667D01*
X137820039Y-78936446D01*
X137814379Y-78935320D01*
X137814375Y-78935319D01*
X137626613Y-78897971D01*
X137626610Y-78897971D01*
X137620946Y-78896844D01*
X137615171Y-78896768D01*
X137615167Y-78896768D01*
X137513793Y-78895441D01*
X137417971Y-78894187D01*
X137412274Y-78895166D01*
X137412273Y-78895166D01*
X137281530Y-78917632D01*
X137217910Y-78928564D01*
X137027463Y-78998824D01*
X136853010Y-79102612D01*
X136848670Y-79106418D01*
X136848666Y-79106421D01*
X136743060Y-79199036D01*
X136700392Y-79236455D01*
X136574720Y-79395869D01*
X136572031Y-79400980D01*
X136572029Y-79400983D01*
X136559073Y-79425609D01*
X136480203Y-79575515D01*
X136420007Y-79769378D01*
X136396148Y-79970964D01*
X136409424Y-80173522D01*
X136410845Y-80179118D01*
X136410846Y-80179123D01*
X136457971Y-80364674D01*
X136459392Y-80370269D01*
X136461809Y-80375511D01*
X136461809Y-80375512D01*
X136463904Y-80380056D01*
X136474260Y-80450293D01*
X136444999Y-80514979D01*
X136438575Y-80521903D01*
X135745705Y-81214772D01*
X135082882Y-81877595D01*
X135020570Y-81911621D01*
X134993787Y-81914500D01*
X133929212Y-81914500D01*
X133861091Y-81894498D01*
X133814598Y-81840842D01*
X133804494Y-81770568D01*
X133833988Y-81705988D01*
X133840117Y-81699405D01*
X134465567Y-81073955D01*
X134527879Y-81039929D01*
X134604401Y-81047283D01*
X134622228Y-81054942D01*
X134659771Y-81063437D01*
X134814579Y-81098467D01*
X134814584Y-81098468D01*
X134820216Y-81099742D01*
X134825987Y-81099969D01*
X134825989Y-81099969D01*
X134885756Y-81102317D01*
X135023053Y-81107712D01*
X135129106Y-81092335D01*
X135218231Y-81079413D01*
X135218236Y-81079412D01*
X135223945Y-81078584D01*
X135229409Y-81076729D01*
X135229414Y-81076728D01*
X135410693Y-81015192D01*
X135410698Y-81015190D01*
X135416165Y-81013334D01*
X135593276Y-80914147D01*
X135619510Y-80892329D01*
X135744913Y-80788031D01*
X135749345Y-80784345D01*
X135817169Y-80702796D01*
X135875453Y-80632718D01*
X135875455Y-80632715D01*
X135879147Y-80628276D01*
X135978334Y-80451165D01*
X135980190Y-80445698D01*
X135980192Y-80445693D01*
X136041728Y-80264414D01*
X136041729Y-80264409D01*
X136043584Y-80258945D01*
X136044412Y-80253236D01*
X136044413Y-80253231D01*
X136064270Y-80116275D01*
X136072712Y-80058053D01*
X136074232Y-80000000D01*
X136055658Y-79797859D01*
X136054090Y-79792299D01*
X136002125Y-79608046D01*
X136002124Y-79608044D01*
X136000557Y-79602487D01*
X135989978Y-79581033D01*
X135913331Y-79425609D01*
X135910776Y-79420428D01*
X135789320Y-79257779D01*
X135640258Y-79119987D01*
X135635375Y-79116906D01*
X135635371Y-79116903D01*
X135473464Y-79014748D01*
X135468581Y-79011667D01*
X135280039Y-78936446D01*
X135274379Y-78935320D01*
X135274375Y-78935319D01*
X135086613Y-78897971D01*
X135086610Y-78897971D01*
X135080946Y-78896844D01*
X135075171Y-78896768D01*
X135075167Y-78896768D01*
X134973793Y-78895441D01*
X134877971Y-78894187D01*
X134872274Y-78895166D01*
X134872273Y-78895166D01*
X134741530Y-78917632D01*
X134677910Y-78928564D01*
X134487463Y-78998824D01*
X134313010Y-79102612D01*
X134308670Y-79106418D01*
X134308666Y-79106421D01*
X134203060Y-79199036D01*
X134160392Y-79236455D01*
X134034720Y-79395869D01*
X134032031Y-79400980D01*
X134032029Y-79400983D01*
X134019073Y-79425609D01*
X133940203Y-79575515D01*
X133880007Y-79769378D01*
X133856148Y-79970964D01*
X133869424Y-80173522D01*
X133870845Y-80179118D01*
X133870846Y-80179123D01*
X133917971Y-80364674D01*
X133919392Y-80370269D01*
X133921809Y-80375512D01*
X133936526Y-80407436D01*
X133946881Y-80477674D01*
X133917618Y-80542359D01*
X133911195Y-80549282D01*
X133744095Y-80716382D01*
X133681783Y-80750408D01*
X133610968Y-80745343D01*
X133554132Y-80702796D01*
X133529321Y-80636276D01*
X133529000Y-80627287D01*
X133529000Y-80274115D01*
X133524525Y-80258876D01*
X133523135Y-80257671D01*
X133515452Y-80256000D01*
X132699115Y-80256000D01*
X132683876Y-80260475D01*
X132682671Y-80261865D01*
X132681000Y-80269548D01*
X132681000Y-81085884D01*
X132685475Y-81101123D01*
X132686865Y-81102328D01*
X132694548Y-81103999D01*
X133052288Y-81103999D01*
X133120409Y-81124001D01*
X133166902Y-81177657D01*
X133177006Y-81247931D01*
X133147512Y-81312511D01*
X133141383Y-81319094D01*
X133036882Y-81423595D01*
X132974570Y-81457621D01*
X132947787Y-81460500D01*
X131052213Y-81460500D01*
X130984092Y-81440498D01*
X130963118Y-81423595D01*
X130408351Y-80868828D01*
X131321001Y-80868828D01*
X131322209Y-80881088D01*
X131333315Y-80936931D01*
X131342633Y-80959427D01*
X131384983Y-81022808D01*
X131402192Y-81040017D01*
X131465575Y-81082368D01*
X131488066Y-81091684D01*
X131543915Y-81102793D01*
X131556170Y-81104000D01*
X132150885Y-81104000D01*
X132166124Y-81099525D01*
X132167329Y-81098135D01*
X132169000Y-81090452D01*
X132169000Y-80274115D01*
X132164525Y-80258876D01*
X132163135Y-80257671D01*
X132155452Y-80256000D01*
X131339116Y-80256000D01*
X131323877Y-80260475D01*
X131322672Y-80261865D01*
X131321001Y-80269548D01*
X131321001Y-80868828D01*
X130408351Y-80868828D01*
X129808044Y-80268521D01*
X129792685Y-80249505D01*
X129791719Y-80248444D01*
X129786071Y-80239696D01*
X129759528Y-80218771D01*
X129755053Y-80214794D01*
X129754992Y-80214865D01*
X129751035Y-80211512D01*
X129747352Y-80207829D01*
X129731561Y-80196545D01*
X129726815Y-80192982D01*
X129694507Y-80167512D01*
X129694506Y-80167511D01*
X129686330Y-80161066D01*
X129677643Y-80158015D01*
X129670157Y-80152666D01*
X129660181Y-80149683D01*
X129660180Y-80149682D01*
X129628798Y-80140297D01*
X129620786Y-80137901D01*
X129615157Y-80136072D01*
X129566498Y-80118984D01*
X129560909Y-80118500D01*
X129558198Y-80118500D01*
X129555531Y-80118385D01*
X129555468Y-80118366D01*
X129555475Y-80118192D01*
X129554729Y-80118145D01*
X129548476Y-80116275D01*
X129502746Y-80118072D01*
X129494322Y-80118403D01*
X129489375Y-80118500D01*
X126015458Y-80118500D01*
X125947337Y-80098498D01*
X125900844Y-80044842D01*
X125890740Y-79974568D01*
X125920234Y-79909988D01*
X125926362Y-79903405D01*
X126103882Y-79725885D01*
X131321000Y-79725885D01*
X131325475Y-79741124D01*
X131326865Y-79742329D01*
X131334548Y-79744000D01*
X132150885Y-79744000D01*
X132166124Y-79739525D01*
X132167329Y-79738135D01*
X132169000Y-79730452D01*
X132169000Y-79725885D01*
X132681000Y-79725885D01*
X132685475Y-79741124D01*
X132686865Y-79742329D01*
X132694548Y-79744000D01*
X133510884Y-79744000D01*
X133526123Y-79739525D01*
X133527328Y-79738135D01*
X133528999Y-79730452D01*
X133528999Y-79131172D01*
X133527791Y-79118912D01*
X133516685Y-79063069D01*
X133507367Y-79040573D01*
X133465017Y-78977192D01*
X133447808Y-78959983D01*
X133384425Y-78917632D01*
X133361934Y-78908316D01*
X133306085Y-78897207D01*
X133293830Y-78896000D01*
X132699115Y-78896000D01*
X132683876Y-78900475D01*
X132682671Y-78901865D01*
X132681000Y-78909548D01*
X132681000Y-79725885D01*
X132169000Y-79725885D01*
X132169000Y-78914116D01*
X132164525Y-78898877D01*
X132163135Y-78897672D01*
X132155452Y-78896001D01*
X131556172Y-78896001D01*
X131543912Y-78897209D01*
X131488069Y-78908315D01*
X131465573Y-78917633D01*
X131402192Y-78959983D01*
X131384983Y-78977192D01*
X131342632Y-79040575D01*
X131333316Y-79063066D01*
X131322207Y-79118915D01*
X131321000Y-79131170D01*
X131321000Y-79725885D01*
X126103882Y-79725885D01*
X126726150Y-79103615D01*
X126730525Y-79099240D01*
X126754697Y-79063066D01*
X126765681Y-79046628D01*
X126765682Y-79046626D01*
X126772577Y-79036307D01*
X126779043Y-79003800D01*
X126811950Y-78940890D01*
X126873645Y-78905757D01*
X126910510Y-78903988D01*
X126910522Y-78903207D01*
X127061319Y-78905576D01*
X127061322Y-78905576D01*
X127068916Y-78905695D01*
X127223332Y-78870329D01*
X127293742Y-78834917D01*
X127358072Y-78802563D01*
X127358075Y-78802561D01*
X127364855Y-78799151D01*
X127370626Y-78794222D01*
X127370629Y-78794220D01*
X127479536Y-78701204D01*
X127479536Y-78701203D01*
X127485314Y-78696269D01*
X127577755Y-78567624D01*
X127636842Y-78420641D01*
X127659162Y-78263807D01*
X127659307Y-78250000D01*
X127640276Y-78092733D01*
X127584280Y-77944546D01*
X127494553Y-77813992D01*
X127376275Y-77708611D01*
X127368889Y-77704700D01*
X127242988Y-77638039D01*
X127242989Y-77638039D01*
X127236274Y-77634484D01*
X127082633Y-77595892D01*
X127075034Y-77595852D01*
X127075033Y-77595852D01*
X127009181Y-77595507D01*
X126924221Y-77595062D01*
X126916841Y-77596834D01*
X126916839Y-77596834D01*
X126777563Y-77630271D01*
X126777560Y-77630272D01*
X126770184Y-77632043D01*
X126629414Y-77704700D01*
X126510039Y-77808838D01*
X126505669Y-77815056D01*
X126473636Y-77860635D01*
X126430382Y-77899072D01*
X126412824Y-77908546D01*
X126407532Y-77911243D01*
X126361055Y-77933560D01*
X126356761Y-77937170D01*
X126354829Y-77939102D01*
X126352880Y-77940889D01*
X126352827Y-77940918D01*
X126352708Y-77940788D01*
X126352140Y-77941289D01*
X126346396Y-77944388D01*
X126339329Y-77952033D01*
X126309587Y-77984208D01*
X126306157Y-77987774D01*
X126211121Y-78082810D01*
X126148809Y-78116836D01*
X126077994Y-78111771D01*
X126052026Y-78098481D01*
X125995748Y-78060876D01*
X125983574Y-78058455D01*
X125983573Y-78058454D01*
X125908618Y-78043545D01*
X125896447Y-78041124D01*
X125884276Y-78043545D01*
X125809316Y-78058455D01*
X125809315Y-78058456D01*
X125797146Y-78060876D01*
X125777297Y-78074138D01*
X125739359Y-78099487D01*
X125739355Y-78099490D01*
X125734213Y-78102926D01*
X124638105Y-79199036D01*
X124624805Y-79218940D01*
X124602949Y-79251648D01*
X124602948Y-79251650D01*
X124596053Y-79261969D01*
X124576301Y-79361270D01*
X124596053Y-79460571D01*
X124602946Y-79470887D01*
X124634664Y-79518358D01*
X124634666Y-79518360D01*
X124638103Y-79523504D01*
X124642480Y-79527881D01*
X125018004Y-79903404D01*
X125052029Y-79965717D01*
X125046965Y-80036532D01*
X125004418Y-80093368D01*
X124937898Y-80118179D01*
X124928909Y-80118500D01*
X124475266Y-80118500D01*
X124450967Y-80115914D01*
X124449529Y-80115846D01*
X124439351Y-80113655D01*
X124409647Y-80117170D01*
X124405789Y-80117627D01*
X124399811Y-80117979D01*
X124399819Y-80118072D01*
X124394641Y-80118500D01*
X124389439Y-80118500D01*
X124370285Y-80121688D01*
X124364427Y-80122522D01*
X124347813Y-80124488D01*
X124323564Y-80127358D01*
X124323563Y-80127358D01*
X124313224Y-80128582D01*
X124304925Y-80132567D01*
X124295848Y-80134078D01*
X124250480Y-80158558D01*
X124245217Y-80161239D01*
X124205881Y-80180127D01*
X124205877Y-80180130D01*
X124198733Y-80183560D01*
X124194439Y-80187170D01*
X124192507Y-80189102D01*
X124190558Y-80190889D01*
X124190505Y-80190918D01*
X124190386Y-80190788D01*
X124189818Y-80191289D01*
X124184074Y-80194388D01*
X124177007Y-80202033D01*
X124147265Y-80234208D01*
X124143835Y-80237774D01*
X122743520Y-81638089D01*
X122724513Y-81653441D01*
X122723451Y-81654407D01*
X122714696Y-81660060D01*
X122713242Y-81661904D01*
X122653627Y-81690899D01*
X122577341Y-81679853D01*
X122527677Y-81655577D01*
X122497355Y-81651153D01*
X122463128Y-81646160D01*
X122463124Y-81646160D01*
X122458602Y-81645500D01*
X122191398Y-81645500D01*
X122186848Y-81646170D01*
X122186845Y-81646170D01*
X122131408Y-81654331D01*
X122131407Y-81654331D01*
X122121722Y-81655757D01*
X122072646Y-81679852D01*
X122025132Y-81703180D01*
X122025130Y-81703181D01*
X122015784Y-81707770D01*
X121932405Y-81791294D01*
X121913995Y-81828957D01*
X121913043Y-81830905D01*
X121865157Y-81883321D01*
X121796534Y-81901528D01*
X121750572Y-81889467D01*
X121750076Y-81890760D01*
X121742989Y-81888039D01*
X121736274Y-81884484D01*
X121582633Y-81845892D01*
X121575034Y-81845852D01*
X121575033Y-81845852D01*
X121509181Y-81845507D01*
X121424221Y-81845062D01*
X121416841Y-81846834D01*
X121416839Y-81846834D01*
X121277563Y-81880271D01*
X121277560Y-81880272D01*
X121270184Y-81882043D01*
X121129414Y-81954700D01*
X121010039Y-82058838D01*
X121005672Y-82065051D01*
X121005667Y-82065057D01*
X121004336Y-82066951D01*
X121003013Y-82068005D01*
X121000589Y-82070697D01*
X121000140Y-82070293D01*
X120948802Y-82111183D01*
X120901250Y-82120500D01*
X118243920Y-82120500D01*
X118219972Y-82117951D01*
X118218307Y-82117872D01*
X118208124Y-82115680D01*
X118197783Y-82116904D01*
X118174777Y-82119627D01*
X118168846Y-82119977D01*
X118168854Y-82120072D01*
X118163676Y-82120500D01*
X118158476Y-82120500D01*
X118153347Y-82121354D01*
X118153344Y-82121354D01*
X118139435Y-82123669D01*
X118133557Y-82124506D01*
X118092999Y-82129306D01*
X118092998Y-82129306D01*
X118082659Y-82130530D01*
X118074407Y-82134493D01*
X118065374Y-82135996D01*
X118056205Y-82140943D01*
X118056203Y-82140944D01*
X118020268Y-82160334D01*
X118014975Y-82163031D01*
X117975918Y-82181785D01*
X117975914Y-82181788D01*
X117968768Y-82185219D01*
X117964492Y-82188814D01*
X117962569Y-82190737D01*
X117960637Y-82192509D01*
X117960558Y-82192552D01*
X117960445Y-82192428D01*
X117959905Y-82192904D01*
X117954186Y-82195990D01*
X117947119Y-82203635D01*
X117917584Y-82235586D01*
X117914154Y-82239152D01*
X117525144Y-82628162D01*
X117462832Y-82662188D01*
X117389360Y-82656097D01*
X117315039Y-82626446D01*
X117309379Y-82625320D01*
X117309375Y-82625319D01*
X117121613Y-82587971D01*
X117121610Y-82587971D01*
X117115946Y-82586844D01*
X117110171Y-82586768D01*
X117110167Y-82586768D01*
X117008793Y-82585441D01*
X116912971Y-82584187D01*
X116907274Y-82585166D01*
X116907273Y-82585166D01*
X116718607Y-82617585D01*
X116712910Y-82618564D01*
X116522463Y-82688824D01*
X116348010Y-82792612D01*
X116343670Y-82796418D01*
X116343666Y-82796421D01*
X116226126Y-82899502D01*
X116195392Y-82926455D01*
X116191817Y-82930990D01*
X116191816Y-82930991D01*
X116185747Y-82938689D01*
X116069720Y-83085869D01*
X116067031Y-83090980D01*
X116067029Y-83090983D01*
X116029770Y-83161800D01*
X115975203Y-83265515D01*
X115915007Y-83459378D01*
X115891148Y-83660964D01*
X115904424Y-83863522D01*
X115905845Y-83869118D01*
X115905846Y-83869123D01*
X115933658Y-83978631D01*
X115954392Y-84060269D01*
X115956809Y-84065512D01*
X115991839Y-84141498D01*
X116039377Y-84244616D01*
X116042710Y-84249332D01*
X116137208Y-84383044D01*
X116156533Y-84410389D01*
X116301938Y-84552035D01*
X116470720Y-84664812D01*
X116476023Y-84667090D01*
X116476026Y-84667092D01*
X116563562Y-84704700D01*
X116657228Y-84744942D01*
X116718808Y-84758876D01*
X116849579Y-84788467D01*
X116849584Y-84788468D01*
X116855216Y-84789742D01*
X116860987Y-84789969D01*
X116860989Y-84789969D01*
X116920756Y-84792317D01*
X117058053Y-84797712D01*
X117158499Y-84783148D01*
X117253231Y-84769413D01*
X117253236Y-84769412D01*
X117258945Y-84768584D01*
X117264409Y-84766729D01*
X117264414Y-84766728D01*
X117445693Y-84705192D01*
X117445698Y-84705190D01*
X117451165Y-84703334D01*
X117461640Y-84697468D01*
X117544116Y-84651279D01*
X117628276Y-84604147D01*
X117638202Y-84595892D01*
X117779913Y-84478031D01*
X117784345Y-84474345D01*
X117882506Y-84356320D01*
X117910453Y-84322718D01*
X117910455Y-84322715D01*
X117914147Y-84318276D01*
X117973845Y-84211677D01*
X118010510Y-84146208D01*
X118010511Y-84146206D01*
X118013334Y-84141165D01*
X118015190Y-84135698D01*
X118015192Y-84135693D01*
X118076728Y-83954414D01*
X118076729Y-83954409D01*
X118078584Y-83948945D01*
X118079412Y-83943236D01*
X118079413Y-83943231D01*
X118104032Y-83773432D01*
X118107712Y-83748053D01*
X118109232Y-83690000D01*
X118092942Y-83512714D01*
X118091187Y-83493613D01*
X118091186Y-83493610D01*
X118090658Y-83487859D01*
X118086070Y-83471590D01*
X118037127Y-83298053D01*
X118037126Y-83298051D01*
X118035557Y-83292487D01*
X118036058Y-83292346D01*
X118030618Y-83225289D01*
X118064894Y-83161800D01*
X118310289Y-82916405D01*
X118372601Y-82882379D01*
X118399384Y-82879500D01*
X120900141Y-82879500D01*
X120968262Y-82899502D01*
X120995522Y-82923169D01*
X120996672Y-82924501D01*
X121000908Y-82930805D01*
X121118076Y-83037419D01*
X121257293Y-83113008D01*
X121410522Y-83153207D01*
X121494477Y-83154526D01*
X121561319Y-83155576D01*
X121561322Y-83155576D01*
X121568916Y-83155695D01*
X121576320Y-83153999D01*
X121576322Y-83153999D01*
X121716371Y-83121924D01*
X121787238Y-83126213D01*
X121844536Y-83168136D01*
X121870073Y-83234380D01*
X121870500Y-83244744D01*
X121870500Y-83308602D01*
X121871170Y-83313152D01*
X121871170Y-83313155D01*
X121876006Y-83346003D01*
X121880757Y-83378278D01*
X121932770Y-83484216D01*
X122016294Y-83567595D01*
X122122323Y-83619423D01*
X122152645Y-83623847D01*
X122186872Y-83628840D01*
X122186876Y-83628840D01*
X122191398Y-83629500D01*
X122458602Y-83629500D01*
X122463152Y-83628830D01*
X122463155Y-83628830D01*
X122518592Y-83620669D01*
X122518593Y-83620669D01*
X122528278Y-83619243D01*
X122537071Y-83614926D01*
X122594440Y-83586760D01*
X122664403Y-83574692D01*
X122705303Y-83586663D01*
X122772323Y-83619423D01*
X122802645Y-83623847D01*
X122836872Y-83628840D01*
X122836876Y-83628840D01*
X122841398Y-83629500D01*
X123108602Y-83629500D01*
X123113152Y-83628830D01*
X123113155Y-83628830D01*
X123168592Y-83620669D01*
X123168593Y-83620669D01*
X123178278Y-83619243D01*
X123187071Y-83614926D01*
X123244440Y-83586760D01*
X123314403Y-83574692D01*
X123355303Y-83586663D01*
X123422323Y-83619423D01*
X123452645Y-83623847D01*
X123486872Y-83628840D01*
X123486876Y-83628840D01*
X123491398Y-83629500D01*
X123758602Y-83629500D01*
X123759294Y-83629398D01*
X123827705Y-83644163D01*
X123877989Y-83694283D01*
X123893500Y-83754849D01*
X123893500Y-83764788D01*
X123873498Y-83832909D01*
X123856595Y-83853883D01*
X122878882Y-84831595D01*
X122816570Y-84865621D01*
X122789787Y-84868500D01*
X121098283Y-84868500D01*
X121030162Y-84848498D01*
X121003768Y-84825824D01*
X120998854Y-84820250D01*
X120994553Y-84813992D01*
X120876275Y-84708611D01*
X120868889Y-84704700D01*
X120830565Y-84684409D01*
X120736274Y-84634484D01*
X120582633Y-84595892D01*
X120575034Y-84595852D01*
X120575033Y-84595852D01*
X120509181Y-84595507D01*
X120424221Y-84595062D01*
X120416841Y-84596834D01*
X120416839Y-84596834D01*
X120277563Y-84630271D01*
X120277560Y-84630272D01*
X120270184Y-84632043D01*
X120129414Y-84704700D01*
X120010039Y-84808838D01*
X119918950Y-84938444D01*
X119861406Y-85086037D01*
X119860414Y-85093570D01*
X119860414Y-85093571D01*
X119842608Y-85228824D01*
X119840729Y-85243096D01*
X119841563Y-85250646D01*
X119852964Y-85353911D01*
X119858113Y-85400553D01*
X119860723Y-85407684D01*
X119860723Y-85407686D01*
X119904900Y-85528405D01*
X119912553Y-85549319D01*
X119916789Y-85555622D01*
X119916789Y-85555623D01*
X119981702Y-85652224D01*
X120003094Y-85719921D01*
X119984490Y-85788437D01*
X119931797Y-85836018D01*
X119877120Y-85848500D01*
X118121806Y-85848500D01*
X118053685Y-85828498D01*
X118008800Y-85778228D01*
X117948331Y-85655609D01*
X117945776Y-85650428D01*
X117824320Y-85487779D01*
X117675258Y-85349987D01*
X117670375Y-85346906D01*
X117670371Y-85346903D01*
X117508464Y-85244748D01*
X117503581Y-85241667D01*
X117315039Y-85166446D01*
X117309379Y-85165320D01*
X117309375Y-85165319D01*
X117121613Y-85127971D01*
X117121610Y-85127971D01*
X117115946Y-85126844D01*
X117110171Y-85126768D01*
X117110167Y-85126768D01*
X117008793Y-85125441D01*
X116912971Y-85124187D01*
X116907274Y-85125166D01*
X116907273Y-85125166D01*
X116718607Y-85157585D01*
X116712910Y-85158564D01*
X116522463Y-85228824D01*
X116348010Y-85332612D01*
X116343670Y-85336418D01*
X116343666Y-85336421D01*
X116270538Y-85400553D01*
X116195392Y-85466455D01*
X116069720Y-85625869D01*
X116067031Y-85630980D01*
X116067029Y-85630983D01*
X116020236Y-85719921D01*
X115975203Y-85805515D01*
X115915007Y-85999378D01*
X115891148Y-86200964D01*
X115254500Y-86200964D01*
X115254500Y-81418962D01*
X115929179Y-81418962D01*
X115953443Y-81514502D01*
X115957284Y-81525348D01*
X116037394Y-81699120D01*
X116043145Y-81709081D01*
X116153579Y-81865343D01*
X116161057Y-81874098D01*
X116298114Y-82007612D01*
X116307058Y-82014855D01*
X116466156Y-82121161D01*
X116476266Y-82126651D01*
X116652077Y-82202185D01*
X116663020Y-82205740D01*
X116726331Y-82220066D01*
X116740405Y-82219177D01*
X116743766Y-82210391D01*
X117256000Y-82210391D01*
X117259966Y-82223897D01*
X117267866Y-82225028D01*
X117445497Y-82164730D01*
X117455994Y-82160056D01*
X117622958Y-82066552D01*
X117632430Y-82060042D01*
X117779553Y-81937682D01*
X117787682Y-81929553D01*
X117910042Y-81782430D01*
X117916552Y-81772958D01*
X118010056Y-81605994D01*
X118014730Y-81595497D01*
X118075038Y-81417838D01*
X118073919Y-81409992D01*
X118060353Y-81406000D01*
X117274115Y-81406000D01*
X117258876Y-81410475D01*
X117257671Y-81411865D01*
X117256000Y-81419548D01*
X117256000Y-82210391D01*
X116743766Y-82210391D01*
X116744000Y-82209778D01*
X116744000Y-81424115D01*
X116739525Y-81408876D01*
X116738135Y-81407671D01*
X116730452Y-81406000D01*
X115944002Y-81406000D01*
X115930471Y-81409973D01*
X115929179Y-81418962D01*
X115254500Y-81418962D01*
X115254500Y-80890799D01*
X115928564Y-80890799D01*
X115935296Y-80894000D01*
X116725885Y-80894000D01*
X116741124Y-80889525D01*
X116742329Y-80888135D01*
X116744000Y-80880452D01*
X116744000Y-80875885D01*
X117256000Y-80875885D01*
X117260475Y-80891124D01*
X117261865Y-80892329D01*
X117269548Y-80894000D01*
X118056834Y-80894000D01*
X118070365Y-80890027D01*
X118071534Y-80881892D01*
X118036658Y-80758231D01*
X118032533Y-80747484D01*
X117947903Y-80575871D01*
X117941893Y-80566063D01*
X117827400Y-80412739D01*
X117819710Y-80404199D01*
X117679192Y-80274304D01*
X117670067Y-80267303D01*
X117508236Y-80165195D01*
X117497989Y-80159974D01*
X117320260Y-80089068D01*
X117309233Y-80085801D01*
X117273770Y-80078748D01*
X117260894Y-80079900D01*
X117256000Y-80095053D01*
X117256000Y-80875885D01*
X116744000Y-80875885D01*
X116744000Y-80091844D01*
X116740194Y-80078882D01*
X116725279Y-80076946D01*
X116718737Y-80078070D01*
X116707617Y-80081050D01*
X116528095Y-80147279D01*
X116517717Y-80152229D01*
X116353273Y-80250063D01*
X116343961Y-80256829D01*
X116200097Y-80382994D01*
X116192180Y-80391337D01*
X116073718Y-80541605D01*
X116067450Y-80551256D01*
X115978358Y-80720592D01*
X115973953Y-80731227D01*
X115928783Y-80876698D01*
X115928564Y-80890799D01*
X115254500Y-80890799D01*
X115254500Y-77707771D01*
X122827145Y-77707771D01*
X122827276Y-77709604D01*
X122831527Y-77716219D01*
X122972435Y-77857127D01*
X122981964Y-77864948D01*
X123029305Y-77896581D01*
X123051795Y-77905897D01*
X123126559Y-77920769D01*
X123150901Y-77920769D01*
X123225667Y-77905897D01*
X123248152Y-77896583D01*
X123295503Y-77864944D01*
X123305018Y-77857135D01*
X123654837Y-77507315D01*
X123662448Y-77493377D01*
X123662316Y-77491541D01*
X123658067Y-77484929D01*
X123363674Y-77190536D01*
X123349730Y-77182922D01*
X123347897Y-77183053D01*
X123341282Y-77187304D01*
X122834759Y-77693827D01*
X122827145Y-77707771D01*
X115254500Y-77707771D01*
X115254500Y-77039988D01*
X122245778Y-77039988D01*
X122260650Y-77114754D01*
X122269964Y-77137239D01*
X122301603Y-77184590D01*
X122309412Y-77194105D01*
X122447100Y-77331792D01*
X122461038Y-77339403D01*
X122462874Y-77339271D01*
X122469486Y-77335022D01*
X122976011Y-76828497D01*
X122982389Y-76816817D01*
X123718099Y-76816817D01*
X123718230Y-76818650D01*
X123722481Y-76825265D01*
X124016872Y-77119656D01*
X124030816Y-77127270D01*
X124032649Y-77127139D01*
X124039264Y-77122888D01*
X124392304Y-76769848D01*
X124400125Y-76760319D01*
X124431758Y-76712978D01*
X124441074Y-76690488D01*
X124455946Y-76615724D01*
X124455946Y-76591382D01*
X124441074Y-76516616D01*
X124431760Y-76494131D01*
X124400121Y-76446780D01*
X124392312Y-76437265D01*
X124254624Y-76299578D01*
X124240686Y-76291967D01*
X124238850Y-76292099D01*
X124232238Y-76296348D01*
X123725713Y-76802873D01*
X123718099Y-76816817D01*
X122982389Y-76816817D01*
X122983625Y-76814553D01*
X122983494Y-76812720D01*
X122979243Y-76806105D01*
X122684852Y-76511714D01*
X122670908Y-76504100D01*
X122669075Y-76504231D01*
X122662460Y-76508482D01*
X122309420Y-76861522D01*
X122301599Y-76871051D01*
X122269966Y-76918392D01*
X122260650Y-76940882D01*
X122245778Y-77015646D01*
X122245778Y-77039988D01*
X115254500Y-77039988D01*
X115254500Y-76137993D01*
X123039276Y-76137993D01*
X123039408Y-76139829D01*
X123043657Y-76146441D01*
X123338050Y-76440834D01*
X123351994Y-76448448D01*
X123353827Y-76448317D01*
X123360442Y-76444066D01*
X123866965Y-75937543D01*
X123874579Y-75923599D01*
X123874448Y-75921766D01*
X123870197Y-75915151D01*
X123851493Y-75896447D01*
X128041124Y-75896447D01*
X128060876Y-75995748D01*
X128074138Y-76015597D01*
X128099487Y-76053535D01*
X128099489Y-76053537D01*
X128102926Y-76058681D01*
X128774772Y-76730525D01*
X128779916Y-76733962D01*
X128827384Y-76765681D01*
X128827386Y-76765682D01*
X128837705Y-76772577D01*
X128849879Y-76774998D01*
X128849880Y-76774999D01*
X128924835Y-76789908D01*
X128937006Y-76792329D01*
X128949177Y-76789908D01*
X129024137Y-76774998D01*
X129024138Y-76774997D01*
X129036307Y-76772577D01*
X129056156Y-76759315D01*
X129094094Y-76733966D01*
X129094099Y-76733962D01*
X129099240Y-76730527D01*
X129557361Y-76272405D01*
X129619674Y-76238380D01*
X129646457Y-76235500D01*
X131188500Y-76235500D01*
X131256621Y-76255502D01*
X131303114Y-76309158D01*
X131314500Y-76361500D01*
X131314500Y-76870980D01*
X131313970Y-76882214D01*
X131312292Y-76889719D01*
X131312541Y-76897638D01*
X131314438Y-76958012D01*
X131314500Y-76961969D01*
X131314500Y-76989983D01*
X131314996Y-76993908D01*
X131314996Y-76993909D01*
X131315008Y-76994004D01*
X131315941Y-77005849D01*
X131317335Y-77050205D01*
X131319547Y-77057817D01*
X131323013Y-77069748D01*
X131327023Y-77089112D01*
X131329573Y-77109299D01*
X131332489Y-77116663D01*
X131332490Y-77116668D01*
X131345907Y-77150556D01*
X131349752Y-77161785D01*
X131352325Y-77170641D01*
X131362131Y-77204393D01*
X131366169Y-77211220D01*
X131366170Y-77211223D01*
X131372488Y-77221906D01*
X131381188Y-77239664D01*
X131385761Y-77251213D01*
X131388681Y-77258588D01*
X131393341Y-77265002D01*
X131396723Y-77269657D01*
X131407054Y-77286516D01*
X131409942Y-77292184D01*
X131412553Y-77299319D01*
X131416789Y-77305622D01*
X131416789Y-77305623D01*
X131475903Y-77393593D01*
X131500908Y-77430805D01*
X131506527Y-77435918D01*
X131506528Y-77435919D01*
X131517903Y-77446269D01*
X131618076Y-77537419D01*
X131757293Y-77613008D01*
X131910522Y-77653207D01*
X131994477Y-77654526D01*
X132061319Y-77655576D01*
X132061322Y-77655576D01*
X132068916Y-77655695D01*
X132223332Y-77620329D01*
X132293742Y-77584917D01*
X132358072Y-77552563D01*
X132358075Y-77552561D01*
X132364855Y-77549151D01*
X132370626Y-77544222D01*
X132370629Y-77544220D01*
X132479536Y-77451204D01*
X132479536Y-77451203D01*
X132485314Y-77446269D01*
X132577755Y-77317624D01*
X132636842Y-77170641D01*
X132659162Y-77013807D01*
X132659307Y-77000000D01*
X132658582Y-76994004D01*
X132650657Y-76928516D01*
X132640276Y-76842733D01*
X132593634Y-76719299D01*
X132585500Y-76674763D01*
X132585500Y-76138552D01*
X132599748Y-76082861D01*
X132599917Y-76082635D01*
X132607285Y-76062980D01*
X132649927Y-76006216D01*
X132716488Y-75981516D01*
X132785837Y-75996724D01*
X132835955Y-76047010D01*
X132843249Y-76062982D01*
X132847374Y-76073986D01*
X132855908Y-76089575D01*
X132927434Y-76185010D01*
X132939990Y-76197566D01*
X133035425Y-76269092D01*
X133051012Y-76277625D01*
X133163689Y-76319865D01*
X133178934Y-76323490D01*
X133226259Y-76328631D01*
X133227004Y-76328671D01*
X133241124Y-76324525D01*
X133242329Y-76323135D01*
X133244000Y-76315452D01*
X133244000Y-76310885D01*
X133756000Y-76310885D01*
X133760475Y-76326124D01*
X133761865Y-76327329D01*
X133769026Y-76328886D01*
X133773741Y-76328631D01*
X133821066Y-76323490D01*
X133836311Y-76319865D01*
X133948988Y-76277625D01*
X133964575Y-76269092D01*
X134060010Y-76197566D01*
X134072566Y-76185010D01*
X134144092Y-76089575D01*
X134152625Y-76073988D01*
X134194865Y-75961311D01*
X134198490Y-75946066D01*
X134203631Y-75898741D01*
X134204000Y-75891927D01*
X134204000Y-75874115D01*
X134199525Y-75858876D01*
X134198135Y-75857671D01*
X134190452Y-75856000D01*
X133774115Y-75856000D01*
X133758876Y-75860475D01*
X133757671Y-75861865D01*
X133756000Y-75869548D01*
X133756000Y-76310885D01*
X133244000Y-76310885D01*
X133244000Y-75325885D01*
X133756000Y-75325885D01*
X133760475Y-75341124D01*
X133761865Y-75342329D01*
X133769548Y-75344000D01*
X134185885Y-75344000D01*
X134201124Y-75339525D01*
X134202329Y-75338135D01*
X134204000Y-75330452D01*
X134204000Y-75308073D01*
X134203631Y-75301259D01*
X134198490Y-75253934D01*
X134194865Y-75238689D01*
X134152625Y-75126012D01*
X134144092Y-75110425D01*
X134072566Y-75014990D01*
X134060010Y-75002434D01*
X133964575Y-74930908D01*
X133948988Y-74922375D01*
X133836311Y-74880135D01*
X133821066Y-74876510D01*
X133773741Y-74871369D01*
X133772996Y-74871329D01*
X133758876Y-74875475D01*
X133757671Y-74876865D01*
X133756000Y-74884548D01*
X133756000Y-75325885D01*
X133244000Y-75325885D01*
X133244000Y-74889115D01*
X133239525Y-74873876D01*
X133238135Y-74872671D01*
X133230974Y-74871114D01*
X133226259Y-74871369D01*
X133178934Y-74876510D01*
X133163689Y-74880135D01*
X133051012Y-74922375D01*
X133035425Y-74930908D01*
X132939990Y-75002434D01*
X132927434Y-75014990D01*
X132855908Y-75110425D01*
X132847374Y-75126014D01*
X132843249Y-75137018D01*
X132800609Y-75193783D01*
X132734047Y-75218484D01*
X132664698Y-75203277D01*
X132614579Y-75152992D01*
X132607285Y-75137020D01*
X132603159Y-75126014D01*
X132599917Y-75117365D01*
X132594537Y-75110186D01*
X132594535Y-75110183D01*
X132522923Y-75014633D01*
X132517544Y-75007456D01*
X132510367Y-75002077D01*
X132414817Y-74930465D01*
X132414814Y-74930463D01*
X132407635Y-74925083D01*
X132399230Y-74921932D01*
X132286419Y-74879642D01*
X132286418Y-74879642D01*
X132279024Y-74876870D01*
X132271174Y-74876017D01*
X132271173Y-74876017D01*
X132223786Y-74870869D01*
X132223785Y-74870869D01*
X132220389Y-74870500D01*
X131950080Y-74870500D01*
X131679612Y-74870501D01*
X131676218Y-74870870D01*
X131676212Y-74870870D01*
X131628834Y-74876016D01*
X131628830Y-74876017D01*
X131620976Y-74876870D01*
X131492365Y-74925083D01*
X131485184Y-74930465D01*
X131485179Y-74930468D01*
X131473361Y-74939325D01*
X131406855Y-74964174D01*
X131397795Y-74964500D01*
X129902091Y-74964500D01*
X129833970Y-74944498D01*
X129812996Y-74927596D01*
X129527879Y-74642480D01*
X129523504Y-74638105D01*
X129493395Y-74617986D01*
X129470892Y-74602949D01*
X129470890Y-74602948D01*
X129460571Y-74596053D01*
X129448397Y-74593632D01*
X129448396Y-74593631D01*
X129373441Y-74578722D01*
X129361270Y-74576301D01*
X129349099Y-74578722D01*
X129274139Y-74593632D01*
X129274138Y-74593633D01*
X129261969Y-74596053D01*
X129242120Y-74609315D01*
X129204182Y-74634664D01*
X129204178Y-74634667D01*
X129199036Y-74638103D01*
X128102928Y-75734213D01*
X128089628Y-75754117D01*
X128067772Y-75786825D01*
X128067771Y-75786827D01*
X128060876Y-75797146D01*
X128041124Y-75896447D01*
X123851493Y-75896447D01*
X123729289Y-75774243D01*
X123719760Y-75766422D01*
X123672419Y-75734789D01*
X123649929Y-75725473D01*
X123575165Y-75710601D01*
X123550823Y-75710601D01*
X123476057Y-75725473D01*
X123453572Y-75734787D01*
X123406221Y-75766426D01*
X123396706Y-75774235D01*
X123046887Y-76124055D01*
X123039276Y-76137993D01*
X115254500Y-76137993D01*
X115254500Y-73562994D01*
X125707671Y-73562994D01*
X125727423Y-73662295D01*
X125734316Y-73672611D01*
X125766034Y-73720082D01*
X125766037Y-73720086D01*
X125769473Y-73725228D01*
X126441319Y-74397072D01*
X126446463Y-74400509D01*
X126493931Y-74432228D01*
X126493933Y-74432229D01*
X126504252Y-74439124D01*
X126516426Y-74441545D01*
X126516427Y-74441546D01*
X126591382Y-74456455D01*
X126603553Y-74458876D01*
X126615724Y-74456455D01*
X126690684Y-74441545D01*
X126690685Y-74441544D01*
X126702854Y-74439124D01*
X126722703Y-74425862D01*
X126760641Y-74400513D01*
X126760646Y-74400509D01*
X126765787Y-74397074D01*
X127393593Y-73769267D01*
X127455906Y-73735242D01*
X127482689Y-73732362D01*
X143307197Y-73732362D01*
X143375318Y-73752364D01*
X143396292Y-73769267D01*
X144784534Y-75157509D01*
X144818560Y-75219821D01*
X144813495Y-75290636D01*
X144800205Y-75316604D01*
X144762600Y-75372882D01*
X144742848Y-75472183D01*
X144762600Y-75571484D01*
X144769493Y-75581800D01*
X144801211Y-75629271D01*
X144801214Y-75629275D01*
X144804650Y-75634417D01*
X144809027Y-75638794D01*
X145085385Y-75915151D01*
X145900760Y-76730525D01*
X145905904Y-76733962D01*
X145953372Y-76765681D01*
X145953374Y-76765682D01*
X145963693Y-76772577D01*
X145975867Y-76774998D01*
X145975868Y-76774999D01*
X146050823Y-76789908D01*
X146062994Y-76792329D01*
X146075165Y-76789908D01*
X146150125Y-76774998D01*
X146150126Y-76774997D01*
X146162295Y-76772577D01*
X146182144Y-76759315D01*
X146220082Y-76733966D01*
X146220087Y-76733962D01*
X146225228Y-76730527D01*
X146897072Y-76058681D01*
X146910372Y-76038777D01*
X146932228Y-76006069D01*
X146932229Y-76006067D01*
X146939124Y-75995748D01*
X146958876Y-75896447D01*
X146939124Y-75797146D01*
X146918336Y-75766034D01*
X146900513Y-75739359D01*
X146900510Y-75739355D01*
X146897074Y-75734213D01*
X146622873Y-75460012D01*
X145805339Y-74642480D01*
X145800964Y-74638105D01*
X145770855Y-74617986D01*
X145748352Y-74602949D01*
X145748350Y-74602948D01*
X145738031Y-74596053D01*
X145725857Y-74593632D01*
X145725856Y-74593631D01*
X145650901Y-74578722D01*
X145638730Y-74576301D01*
X145626559Y-74578722D01*
X145551599Y-74593632D01*
X145551598Y-74593633D01*
X145539429Y-74596053D01*
X145529114Y-74602945D01*
X145529112Y-74602946D01*
X145501517Y-74621385D01*
X145483151Y-74633656D01*
X145415399Y-74654871D01*
X145346932Y-74636088D01*
X145324055Y-74617986D01*
X144736886Y-74030816D01*
X147872730Y-74030816D01*
X147872861Y-74032649D01*
X147877112Y-74039264D01*
X148230152Y-74392304D01*
X148239681Y-74400125D01*
X148287022Y-74431758D01*
X148309512Y-74441074D01*
X148384276Y-74455946D01*
X148408618Y-74455946D01*
X148483384Y-74441074D01*
X148505869Y-74431760D01*
X148553220Y-74400121D01*
X148562735Y-74392312D01*
X148700422Y-74254624D01*
X148708033Y-74240686D01*
X148707901Y-74238850D01*
X148703652Y-74232238D01*
X148197127Y-73725713D01*
X148183183Y-73718099D01*
X148181350Y-73718230D01*
X148174735Y-73722481D01*
X147880344Y-74016872D01*
X147872730Y-74030816D01*
X144736886Y-74030816D01*
X144580649Y-73874579D01*
X143856971Y-73150901D01*
X147079231Y-73150901D01*
X147094103Y-73225667D01*
X147103417Y-73248152D01*
X147135056Y-73295503D01*
X147142865Y-73305018D01*
X147492685Y-73654837D01*
X147506623Y-73662448D01*
X147508459Y-73662316D01*
X147515071Y-73658067D01*
X147809464Y-73363674D01*
X147815842Y-73351994D01*
X148551552Y-73351994D01*
X148551683Y-73353827D01*
X148555934Y-73360442D01*
X149062457Y-73866965D01*
X149076401Y-73874579D01*
X149078234Y-73874448D01*
X149084849Y-73870197D01*
X149225757Y-73729289D01*
X149233578Y-73719760D01*
X149265211Y-73672419D01*
X149274527Y-73649929D01*
X149289399Y-73575165D01*
X149289399Y-73550823D01*
X149274527Y-73476057D01*
X149265213Y-73453572D01*
X149233574Y-73406221D01*
X149225765Y-73396706D01*
X148875945Y-73046887D01*
X148862007Y-73039276D01*
X148860171Y-73039408D01*
X148853559Y-73043657D01*
X148559166Y-73338050D01*
X148551552Y-73351994D01*
X147815842Y-73351994D01*
X147817078Y-73349730D01*
X147816947Y-73347897D01*
X147812696Y-73341282D01*
X147306173Y-72834759D01*
X147292229Y-72827145D01*
X147290396Y-72827276D01*
X147283781Y-72831527D01*
X147142873Y-72972435D01*
X147135052Y-72981964D01*
X147103419Y-73029305D01*
X147094103Y-73051795D01*
X147079231Y-73126559D01*
X147079231Y-73150901D01*
X143856971Y-73150901D01*
X143825453Y-73119383D01*
X143810094Y-73100367D01*
X143809128Y-73099306D01*
X143803480Y-73090558D01*
X143776937Y-73069633D01*
X143772462Y-73065656D01*
X143772401Y-73065727D01*
X143768444Y-73062374D01*
X143764761Y-73058691D01*
X143748970Y-73047407D01*
X143744224Y-73043844D01*
X143711916Y-73018374D01*
X143711915Y-73018373D01*
X143703739Y-73011928D01*
X143695052Y-73008877D01*
X143687566Y-73003528D01*
X143677590Y-73000545D01*
X143677589Y-73000544D01*
X143638198Y-72988764D01*
X143632566Y-72986934D01*
X143583907Y-72969846D01*
X143578318Y-72969362D01*
X143575607Y-72969362D01*
X143572940Y-72969247D01*
X143572877Y-72969228D01*
X143572884Y-72969054D01*
X143572138Y-72969007D01*
X143565885Y-72967137D01*
X143517101Y-72969054D01*
X143511731Y-72969265D01*
X143506784Y-72969362D01*
X127906954Y-72969362D01*
X127838833Y-72949360D01*
X127817859Y-72932458D01*
X127346437Y-72461038D01*
X147660597Y-72461038D01*
X147660729Y-72462874D01*
X147664978Y-72469486D01*
X148171503Y-72976011D01*
X148185447Y-72983625D01*
X148187280Y-72983494D01*
X148193895Y-72979243D01*
X148488286Y-72684852D01*
X148495900Y-72670908D01*
X148495769Y-72669075D01*
X148491518Y-72662460D01*
X148138478Y-72309420D01*
X148128949Y-72301599D01*
X148081608Y-72269966D01*
X148059118Y-72260650D01*
X147984354Y-72245778D01*
X147960012Y-72245778D01*
X147885246Y-72260650D01*
X147862761Y-72269964D01*
X147815410Y-72301603D01*
X147805895Y-72309412D01*
X147668208Y-72447100D01*
X147660597Y-72461038D01*
X127346437Y-72461038D01*
X127194426Y-72309027D01*
X127190051Y-72304652D01*
X127138139Y-72269964D01*
X127137439Y-72269496D01*
X127137437Y-72269495D01*
X127127118Y-72262600D01*
X127114944Y-72260179D01*
X127114943Y-72260178D01*
X127039988Y-72245269D01*
X127027817Y-72242848D01*
X127015646Y-72245269D01*
X126940686Y-72260179D01*
X126940685Y-72260180D01*
X126928516Y-72262600D01*
X126917495Y-72269964D01*
X126870729Y-72301211D01*
X126870725Y-72301214D01*
X126865583Y-72304650D01*
X125769475Y-73400760D01*
X125766038Y-73405904D01*
X125734319Y-73453372D01*
X125734318Y-73453374D01*
X125727423Y-73463693D01*
X125725002Y-73475867D01*
X125725001Y-73475868D01*
X125712899Y-73536710D01*
X125707671Y-73562994D01*
X115254500Y-73562994D01*
X115254500Y-70037476D01*
X115256921Y-70012894D01*
X115257065Y-70012170D01*
X115259486Y-70000000D01*
X117740663Y-70000000D01*
X117740933Y-70004119D01*
X117754606Y-70212723D01*
X117759992Y-70294903D01*
X117817648Y-70584759D01*
X117912645Y-70864611D01*
X118043357Y-71129668D01*
X118207547Y-71375397D01*
X118402407Y-71597593D01*
X118624603Y-71792453D01*
X118870331Y-71956643D01*
X118874030Y-71958467D01*
X118874035Y-71958470D01*
X119010009Y-72025525D01*
X119135389Y-72087355D01*
X119139294Y-72088680D01*
X119139295Y-72088681D01*
X119411334Y-72181026D01*
X119411337Y-72181027D01*
X119415241Y-72182352D01*
X119419280Y-72183155D01*
X119419286Y-72183157D01*
X119701054Y-72239204D01*
X119701057Y-72239204D01*
X119705097Y-72240008D01*
X119709208Y-72240277D01*
X119709212Y-72240278D01*
X119995881Y-72259067D01*
X120000000Y-72259337D01*
X120004119Y-72259067D01*
X120290788Y-72240278D01*
X120290792Y-72240277D01*
X120294903Y-72240008D01*
X120298943Y-72239204D01*
X120298946Y-72239204D01*
X120580714Y-72183157D01*
X120580720Y-72183155D01*
X120584759Y-72182352D01*
X120588663Y-72181027D01*
X120588666Y-72181026D01*
X120860705Y-72088681D01*
X120860706Y-72088680D01*
X120864611Y-72087355D01*
X120989991Y-72025525D01*
X121125965Y-71958470D01*
X121125970Y-71958467D01*
X121129669Y-71956643D01*
X121375397Y-71792453D01*
X121597593Y-71597593D01*
X121792453Y-71375397D01*
X121956643Y-71129668D01*
X122087355Y-70864611D01*
X122182352Y-70584759D01*
X122240008Y-70294903D01*
X122245395Y-70212723D01*
X122259067Y-70004119D01*
X122259337Y-70000000D01*
X152740663Y-70000000D01*
X152740933Y-70004119D01*
X152754606Y-70212723D01*
X152759992Y-70294903D01*
X152817648Y-70584759D01*
X152912645Y-70864611D01*
X153043357Y-71129668D01*
X153207547Y-71375397D01*
X153402407Y-71597593D01*
X153624603Y-71792453D01*
X153870331Y-71956643D01*
X153874030Y-71958467D01*
X153874035Y-71958470D01*
X154010009Y-72025525D01*
X154135389Y-72087355D01*
X154139294Y-72088680D01*
X154139295Y-72088681D01*
X154411334Y-72181026D01*
X154411337Y-72181027D01*
X154415241Y-72182352D01*
X154419280Y-72183155D01*
X154419286Y-72183157D01*
X154701054Y-72239204D01*
X154701057Y-72239204D01*
X154705097Y-72240008D01*
X154709208Y-72240277D01*
X154709212Y-72240278D01*
X154995881Y-72259067D01*
X155000000Y-72259337D01*
X155004119Y-72259067D01*
X155290788Y-72240278D01*
X155290792Y-72240277D01*
X155294903Y-72240008D01*
X155298943Y-72239204D01*
X155298946Y-72239204D01*
X155580714Y-72183157D01*
X155580720Y-72183155D01*
X155584759Y-72182352D01*
X155588663Y-72181027D01*
X155588666Y-72181026D01*
X155860705Y-72088681D01*
X155860706Y-72088680D01*
X155864611Y-72087355D01*
X155989991Y-72025525D01*
X156125965Y-71958470D01*
X156125970Y-71958467D01*
X156129669Y-71956643D01*
X156375397Y-71792453D01*
X156597593Y-71597593D01*
X156792453Y-71375397D01*
X156956643Y-71129668D01*
X157087355Y-70864611D01*
X157182352Y-70584759D01*
X157240008Y-70294903D01*
X157245395Y-70212723D01*
X157259067Y-70004119D01*
X157259337Y-70000000D01*
X157240008Y-69705097D01*
X157238377Y-69696897D01*
X157183157Y-69419286D01*
X157183155Y-69419280D01*
X157182352Y-69415241D01*
X157099301Y-69170579D01*
X157088681Y-69139295D01*
X157088680Y-69139294D01*
X157087355Y-69135389D01*
X156956643Y-68870332D01*
X156792453Y-68624603D01*
X156597593Y-68402407D01*
X156375397Y-68207547D01*
X156129669Y-68043357D01*
X156125970Y-68041533D01*
X156125965Y-68041530D01*
X155989991Y-67974475D01*
X155864611Y-67912645D01*
X155790498Y-67887487D01*
X155588666Y-67818974D01*
X155588663Y-67818973D01*
X155584759Y-67817648D01*
X155580720Y-67816845D01*
X155580714Y-67816843D01*
X155298946Y-67760796D01*
X155298943Y-67760796D01*
X155294903Y-67759992D01*
X155290792Y-67759723D01*
X155290788Y-67759722D01*
X155004119Y-67740933D01*
X155000000Y-67740663D01*
X154995881Y-67740933D01*
X154709212Y-67759722D01*
X154709208Y-67759723D01*
X154705097Y-67759992D01*
X154701057Y-67760796D01*
X154701054Y-67760796D01*
X154419286Y-67816843D01*
X154419280Y-67816845D01*
X154415241Y-67817648D01*
X154411337Y-67818973D01*
X154411334Y-67818974D01*
X154209502Y-67887487D01*
X154135389Y-67912645D01*
X154010143Y-67974410D01*
X153874036Y-68041530D01*
X153874031Y-68041533D01*
X153870332Y-68043357D01*
X153624603Y-68207547D01*
X153402407Y-68402407D01*
X153207547Y-68624603D01*
X153043357Y-68870332D01*
X152912645Y-69135389D01*
X152911320Y-69139294D01*
X152911319Y-69139295D01*
X152900700Y-69170579D01*
X152817648Y-69415241D01*
X152816845Y-69419280D01*
X152816843Y-69419286D01*
X152761623Y-69696897D01*
X152759992Y-69705097D01*
X152743658Y-69954308D01*
X152740663Y-70000000D01*
X122259337Y-70000000D01*
X122240008Y-69705097D01*
X122238377Y-69696897D01*
X122183157Y-69419286D01*
X122183155Y-69419280D01*
X122182352Y-69415241D01*
X122099301Y-69170579D01*
X122088681Y-69139295D01*
X122088680Y-69139294D01*
X122087355Y-69135389D01*
X121956643Y-68870332D01*
X121792453Y-68624603D01*
X121597593Y-68402407D01*
X121375397Y-68207547D01*
X121129669Y-68043357D01*
X121125970Y-68041533D01*
X121125965Y-68041530D01*
X120989991Y-67974475D01*
X120864611Y-67912645D01*
X120790498Y-67887487D01*
X120588666Y-67818974D01*
X120588663Y-67818973D01*
X120584759Y-67817648D01*
X120580720Y-67816845D01*
X120580714Y-67816843D01*
X120298946Y-67760796D01*
X120298943Y-67760796D01*
X120294903Y-67759992D01*
X120290792Y-67759723D01*
X120290788Y-67759722D01*
X120004119Y-67740933D01*
X120000000Y-67740663D01*
X119995881Y-67740933D01*
X119709212Y-67759722D01*
X119709208Y-67759723D01*
X119705097Y-67759992D01*
X119701057Y-67760796D01*
X119701054Y-67760796D01*
X119419286Y-67816843D01*
X119419280Y-67816845D01*
X119415241Y-67817648D01*
X119411337Y-67818973D01*
X119411334Y-67818974D01*
X119209502Y-67887487D01*
X119135389Y-67912645D01*
X119010143Y-67974410D01*
X118874036Y-68041530D01*
X118874031Y-68041533D01*
X118870332Y-68043357D01*
X118624603Y-68207547D01*
X118402407Y-68402407D01*
X118207547Y-68624603D01*
X118043357Y-68870332D01*
X117912645Y-69135389D01*
X117911320Y-69139294D01*
X117911319Y-69139295D01*
X117900700Y-69170579D01*
X117817648Y-69415241D01*
X117816845Y-69419280D01*
X117816843Y-69419286D01*
X117761623Y-69696897D01*
X117759992Y-69705097D01*
X117743658Y-69954308D01*
X117740663Y-70000000D01*
X115259486Y-70000000D01*
X115257065Y-69987830D01*
X115257065Y-69977401D01*
X115256060Y-69964265D01*
X115272318Y-69591898D01*
X115273276Y-69580948D01*
X115317038Y-69248543D01*
X115325878Y-69181396D01*
X115327786Y-69170579D01*
X115334722Y-69139295D01*
X115415008Y-68777145D01*
X115417853Y-68766528D01*
X115503142Y-68496026D01*
X115539036Y-68382187D01*
X115542792Y-68371865D01*
X115697017Y-67999532D01*
X115701659Y-67989579D01*
X115741709Y-67912645D01*
X115887735Y-67632132D01*
X115893230Y-67622613D01*
X116109755Y-67282738D01*
X116116059Y-67273734D01*
X116231257Y-67123604D01*
X116361393Y-66954007D01*
X116368445Y-66945603D01*
X116529485Y-66769860D01*
X116640709Y-66648481D01*
X116648481Y-66640709D01*
X116869499Y-66438182D01*
X116945603Y-66368445D01*
X116954007Y-66361393D01*
X117273734Y-66116059D01*
X117282738Y-66109755D01*
X117622613Y-65893230D01*
X117632133Y-65887734D01*
X117704781Y-65849916D01*
X117989588Y-65701655D01*
X117999532Y-65697017D01*
X118371872Y-65542789D01*
X118382187Y-65539036D01*
X118766529Y-65417853D01*
X118777146Y-65415008D01*
X119170587Y-65327785D01*
X119181396Y-65325878D01*
X119580949Y-65273276D01*
X119591897Y-65272318D01*
X119643588Y-65270061D01*
X119964265Y-65256060D01*
X119977401Y-65257065D01*
X119987830Y-65257065D01*
X120000000Y-65259486D01*
X120012897Y-65256921D01*
X120037476Y-65254500D01*
X154962524Y-65254500D01*
X154987103Y-65256921D01*
G37*
G04 #@! TD.AperFunction*
M02*
