G04 #@! TF.GenerationSoftware,KiCad,Pcbnew,(6.0.5-0)*
G04 #@! TF.CreationDate,2022-11-26T13:27:52+01:00*
G04 #@! TF.ProjectId,Phazor,5068617a-6f72-42e6-9b69-6361645f7063,rev?*
G04 #@! TF.SameCoordinates,Original*
G04 #@! TF.FileFunction,Paste,Bot*
G04 #@! TF.FilePolarity,Positive*
%FSLAX46Y46*%
G04 Gerber Fmt 4.6, Leading zero omitted, Abs format (unit mm)*
G04 Created by KiCad (PCBNEW (6.0.5-0)) date 2022-11-26 13:27:52*
%MOMM*%
%LPD*%
G01*
G04 APERTURE LIST*
G04 Aperture macros list*
%AMRoundRect*
0 Rectangle with rounded corners*
0 $1 Rounding radius*
0 $2 $3 $4 $5 $6 $7 $8 $9 X,Y pos of 4 corners*
0 Add a 4 corners polygon primitive as box body*
4,1,4,$2,$3,$4,$5,$6,$7,$8,$9,$2,$3,0*
0 Add four circle primitives for the rounded corners*
1,1,$1+$1,$2,$3*
1,1,$1+$1,$4,$5*
1,1,$1+$1,$6,$7*
1,1,$1+$1,$8,$9*
0 Add four rect primitives between the rounded corners*
20,1,$1+$1,$2,$3,$4,$5,0*
20,1,$1+$1,$4,$5,$6,$7,0*
20,1,$1+$1,$6,$7,$8,$9,0*
20,1,$1+$1,$8,$9,$2,$3,0*%
%AMRotRect*
0 Rectangle, with rotation*
0 The origin of the aperture is its center*
0 $1 length*
0 $2 width*
0 $3 Rotation angle, in degrees counterclockwise*
0 Add horizontal line*
21,1,$1,$2,0,0,$3*%
G04 Aperture macros list end*
%ADD10RoundRect,0.437500X-1.154544X0.762293X-1.381011X-0.082893X1.154544X-0.762293X1.381011X0.082893X0*%
%ADD11RoundRect,0.500000X1.250000X0.500000X-1.250000X0.500000X-1.250000X-0.500000X1.250000X-0.500000X0*%
%ADD12RoundRect,0.250000X0.475000X-0.250000X0.475000X0.250000X-0.475000X0.250000X-0.475000X-0.250000X0*%
%ADD13RoundRect,0.225000X-0.268659X0.202355X-0.229439X-0.245933X0.268659X-0.202355X0.229439X0.245933X0*%
%ADD14RotRect,1.500000X1.000000X185.000000*%
%ADD15RotRect,7.340000X6.350000X255.000000*%
%ADD16RoundRect,0.200000X0.275000X-0.200000X0.275000X0.200000X-0.275000X0.200000X-0.275000X-0.200000X0*%
%ADD17RoundRect,0.187500X0.937500X0.187500X-0.937500X0.187500X-0.937500X-0.187500X0.937500X-0.187500X0*%
%ADD18R,1.550000X1.300000*%
G04 APERTURE END LIST*
D10*
X186647048Y-78085185D03*
X186000000Y-80500000D03*
X185352952Y-82914815D03*
D11*
X225953520Y-43546480D03*
D12*
X188453520Y-44996480D03*
X188453520Y-43096480D03*
D13*
X157191093Y-34407565D03*
X157326185Y-35951667D03*
D14*
X185101531Y-32448465D03*
X185380429Y-35636288D03*
X180499075Y-36063351D03*
X180220177Y-32875528D03*
X170221227Y-33567905D03*
X170500125Y-36755728D03*
X165618771Y-37182791D03*
X165339873Y-33994968D03*
D13*
X187128477Y-32095462D03*
X187263569Y-33639564D03*
D15*
X174132873Y-73556617D03*
X153774167Y-149536343D03*
D14*
X199908608Y-31152248D03*
X200187506Y-34340071D03*
X195306152Y-34767134D03*
X195027254Y-31579311D03*
D16*
X188453521Y-41371480D03*
X188453521Y-39721480D03*
D17*
X179953520Y-43816480D03*
X179953520Y-41276480D03*
X185953520Y-41276480D03*
X185953520Y-43816480D03*
D18*
X137928520Y-51796480D03*
X129978520Y-51796480D03*
X129978520Y-56296480D03*
X137928520Y-56296480D03*
D14*
X155164147Y-34760569D03*
X155443045Y-37948392D03*
X150561691Y-38375455D03*
X150282793Y-35187632D03*
D13*
X172248173Y-33214902D03*
X172383265Y-34759004D03*
X201935556Y-30799244D03*
X202070648Y-32343346D03*
M02*
