M48
; DRILL file {KiCad (6.0.5-0)} date 2022 November 26, Saturday 13:28:33
; FORMAT={-:-/ absolute / metric / decimal}
; #@! TF.CreationDate,2022-11-26T13:28:33+01:00
; #@! TF.GenerationSoftware,Kicad,Pcbnew,(6.0.5-0)
; #@! TF.FileFunction,Plated,1,2,PTH
FMAT,2
METRIC
; #@! TA.AperFunction,Plated,PTH,ViaDrill
T1C0.400
; #@! TA.AperFunction,Plated,PTH,ViaDrill
T2C0.600
; #@! TA.AperFunction,Plated,PTH,ComponentDrill
T3C0.600
; #@! TA.AperFunction,Plated,PTH,ComponentDrill
T4C0.800
; #@! TA.AperFunction,Plated,PTH,ViaDrill
T5C1.000
; #@! TA.AperFunction,Plated,PTH,ComponentDrill
T6C1.000
%
G90
G05
T1
X72.0Y-55.0
X73.5Y-55.0
X74.454Y-46.046
X74.954Y-44.546
X75.0Y-55.0
X75.454Y-43.046
X75.954Y-41.546
X76.5Y-55.0
X77.5Y-34.0
X77.654Y-44.046
X77.654Y-45.546
X78.0Y-55.0
X79.0Y-34.0
X80.5Y-34.0
X80.854Y-47.746
X82.0Y-34.0
X82.154Y-43.046
X83.5Y-34.0
X83.854Y-43.546
X85.0Y-34.0
X87.404Y-47.631
X88.854Y-52.246
X89.954Y-37.796
X91.954Y-44.546
X91.954Y-45.746
X92.704Y-39.296
X92.954Y-37.796
X93.154Y-44.546
X93.154Y-45.746
X93.954Y-34.546
X93.954Y-39.296
X94.988Y-50.012
X95.454Y-42.046
X97.954Y-47.546
X97.967Y-43.533
X98.204Y-40.546
X98.204Y-41.796
X99.354Y-34.446
X100.554Y-34.446
X101.554Y-42.146
X105.454Y-34.946
X105.454Y-41.346
X105.454Y-43.846
X105.454Y-45.446
X106.254Y-48.346
X107.154Y-30.746
X108.954Y-45.046
X108.954Y-46.546
X110.454Y-46.546
X111.854Y-35.146
X111.854Y-38.446
X111.954Y-46.546
X113.054Y-35.146
X113.054Y-38.446
X113.454Y-46.546
X114.254Y-35.146
X114.254Y-38.446
X114.954Y-46.546
X115.454Y-35.146
X115.454Y-38.446
X116.454Y-45.046
X116.454Y-46.546
X116.854Y-31.346
X117.554Y-37.396
X118.754Y-37.046
X118.754Y-38.846
X120.08Y-32.21
X121.596Y-31.722
X122.0Y-46.0
X123.454Y-32.587
X123.754Y-36.146
X123.754Y-37.746
X124.753Y-37.746
X124.754Y-33.746
X124.754Y-35.346
X125.5Y-39.5
X126.0Y-37.0
X126.0Y-46.0
X126.054Y-33.746
X126.5Y-58.0
X126.654Y-41.546
X126.654Y-42.846
X126.654Y-44.046
X127.154Y-34.0
X127.154Y-38.5
X127.854Y-44.946
X128.254Y-32.746
X128.354Y-52.846
X128.354Y-54.846
X128.954Y-39.546
X129.454Y-45.546
X129.954Y-38.546
X129.954Y-39.546
X129.954Y-40.546
X130.354Y-34.646
X130.954Y-39.546
X131.454Y-48.546
X132.954Y-51.046
X132.954Y-56.546
X134.454Y-51.046
X134.454Y-56.546
X135.954Y-51.046
X135.954Y-56.546
X136.104Y-35.196
X138.0Y-32.5
X139.204Y-55.046
X139.454Y-51.046
X139.954Y-49.046
X141.454Y-49.046
X142.554Y-31.846
X142.954Y-35.046
X142.954Y-36.046
X142.954Y-37.046
X143.954Y-35.046
X143.954Y-36.046
X143.954Y-37.046
X144.054Y-47.546
X144.054Y-48.646
X144.218Y-135.172
X144.866Y-132.758
X145.154Y-27.346
X145.154Y-47.546
X145.154Y-48.646
X145.513Y-130.343
X146.16Y-127.928
X146.454Y-27.346
X146.807Y-125.513
X147.454Y-123.098
X147.954Y-38.546
X148.101Y-120.684
X148.254Y-33.946
X148.254Y-54.046
X148.454Y-57.046
X148.748Y-118.269
X149.395Y-115.854
X149.454Y-50.046
X149.454Y-57.046
X149.554Y-55.146
X149.954Y-48.546
X150.042Y-113.439
X150.454Y-36.796
X150.689Y-111.024
X150.954Y-50.046
X151.336Y-108.609
X151.454Y-27.346
X151.454Y-48.546
X151.954Y-53.946
X151.983Y-106.195
X152.63Y-103.78
X152.754Y-27.346
X152.954Y-48.546
X153.277Y-101.365
X153.854Y-50.546
X153.924Y-98.95
X154.454Y-48.546
X154.454Y-53.946
X154.571Y-96.535
X155.218Y-94.121
X155.704Y-50.546
X155.865Y-91.706
X156.512Y-89.291
X156.954Y-48.546
X157.154Y-59.246
X157.159Y-86.876
X157.806Y-84.461
X158.254Y-55.146
X158.454Y-48.546
X158.454Y-60.546
X158.454Y-82.046
X159.954Y-48.546
X159.954Y-62.046
X161.454Y-33.046
X161.454Y-48.546
X161.454Y-63.546
X161.954Y-27.546
X162.954Y-26.546
X163.454Y-30.48
X163.954Y-27.546
X164.954Y-59.546
X165.554Y-63.546
X165.954Y-58.046
X166.454Y-44.796
X166.454Y-46.546
X167.454Y-36.046
X167.454Y-37.546
X167.454Y-58.046
X167.477Y-62.275
X167.954Y-52.546
X168.954Y-58.046
X169.189Y-141.524
X169.704Y-64.796
X169.836Y-139.109
X169.954Y-48.046
X170.354Y-41.546
X170.454Y-58.046
X170.454Y-81.546
X170.483Y-136.695
X171.13Y-134.28
X171.454Y-27.546
X171.454Y-48.046
X171.454Y-82.296
X171.777Y-131.865
X171.954Y-61.546
X172.424Y-129.45
X172.454Y-26.546
X172.954Y-48.046
X172.954Y-60.546
X172.954Y-62.546
X173.071Y-127.035
X173.454Y-27.546
X173.718Y-124.621
X174.365Y-122.206
X174.704Y-58.546
X174.704Y-81.546
X175.012Y-119.791
X175.454Y-82.296
X175.659Y-117.376
X176.306Y-114.961
X176.554Y-31.646
X176.954Y-64.546
X176.954Y-66.046
X176.954Y-112.546
X177.454Y-41.046
X177.454Y-42.546
X177.454Y-44.046
X177.601Y-110.132
X177.854Y-26.346
X178.248Y-107.717
X178.454Y-55.046
X178.854Y-26.446
X178.895Y-105.302
X179.454Y-69.546
X179.454Y-71.046
X179.542Y-102.887
X179.954Y-55.046
X180.189Y-100.472
X180.836Y-98.058
X181.0Y-45.5
X181.0Y-47.671
X181.0Y-63.0
X181.154Y-24.146
X181.483Y-95.643
X182.13Y-93.228
X182.454Y-35.046
X182.454Y-36.546
X182.777Y-90.813
X183.0Y-56.0
X183.0Y-57.5
X183.0Y-59.0
X183.0Y-82.0
X183.424Y-88.398
X183.954Y-39.046
X186.954Y-27.046
X187.954Y-26.046
X188.5Y-68.5
X188.5Y-70.0
X188.5Y-71.5
X188.954Y-27.046
X190.0Y-68.5
X190.0Y-70.0
X190.0Y-71.5
X190.204Y-40.796
X191.5Y-68.5
X191.5Y-70.0
X191.5Y-71.5
X191.954Y-43.046
X191.954Y-45.046
X192.054Y-30.446
X192.954Y-43.046
X193.154Y-53.146
X194.554Y-49.946
X195.204Y-42.796
X197.454Y-34.046
X197.454Y-35.546
X197.654Y-47.246
X197.954Y-26.046
X198.954Y-25.046
X199.004Y-55.046
X199.954Y-26.046
X201.954Y-50.546
X201.954Y-52.046
X202.454Y-54.046
X202.454Y-55.546
X202.454Y-57.046
X207.454Y-41.046
X208.954Y-41.046
X210.954Y-48.046
X211.954Y-29.546
X211.954Y-31.046
X211.954Y-32.546
X212.454Y-48.046
X213.954Y-46.046
X213.954Y-48.046
X219.454Y-37.546
X219.454Y-39.046
X219.454Y-40.546
X219.954Y-30.046
X219.954Y-31.546
X219.954Y-33.046
X220.954Y-37.546
X220.954Y-39.046
X220.954Y-40.546
X220.954Y-45.546
X220.954Y-47.046
X220.954Y-48.546
X222.454Y-37.546
X222.454Y-39.046
X222.454Y-40.546
T2
X125.954Y-47.546
X131.454Y-46.046
X136.454Y-41.946
X149.454Y-145.046
X149.454Y-146.546
X151.029Y-151.151
X151.417Y-149.702
X151.805Y-148.253
X152.193Y-146.804
X152.478Y-151.539
X152.866Y-150.09
X153.254Y-148.641
X153.642Y-147.192
X153.952Y-151.965
X154.315Y-150.478
X154.703Y-149.03
X155.091Y-147.581
X155.375Y-152.316
X155.764Y-150.867
X156.152Y-149.418
X156.54Y-147.969
X171.361Y-75.069
X171.749Y-73.62
X172.137Y-72.171
X172.526Y-70.722
X172.81Y-75.457
X173.198Y-74.008
X173.586Y-72.559
X173.974Y-71.11
X174.259Y-75.845
X174.658Y-74.428
X175.035Y-72.947
X175.423Y-71.498
X175.708Y-76.233
X176.096Y-74.784
X176.484Y-73.335
X176.872Y-71.887
X214.854Y-35.146
T4
X210.029Y-27.166
X210.029Y-29.706
X210.029Y-32.246
X210.364Y-38.996
X212.904Y-38.996
X215.444Y-38.996
T5
X154.554Y-42.546
T6
X140.229Y-33.046
X140.229Y-35.586
X188.154Y-58.046
X190.694Y-58.046
X193.234Y-58.046
X195.774Y-58.046
X214.954Y-28.046
X214.954Y-30.586
T3
X74.611Y-48.025G85X74.031Y-47.87
G05
X76.847Y-39.68G85X76.268Y-39.524
G05
X78.89Y-49.172G85X77.828Y-48.887
G05
X81.126Y-40.826G85X80.064Y-40.541
G05
T0
M30
