G04 #@! TF.GenerationSoftware,KiCad,Pcbnew,(6.0.5-0)*
G04 #@! TF.CreationDate,2022-11-26T13:27:53+01:00*
G04 #@! TF.ProjectId,Phazor,5068617a-6f72-42e6-9b69-6361645f7063,rev?*
G04 #@! TF.SameCoordinates,Original*
G04 #@! TF.FileFunction,Profile,NP*
%FSLAX46Y46*%
G04 Gerber Fmt 4.6, Leading zero omitted, Abs format (unit mm)*
G04 Created by KiCad (PCBNEW (6.0.5-0)) date 2022-11-26 13:27:53*
%MOMM*%
%LPD*%
G01*
G04 APERTURE LIST*
G04 #@! TA.AperFunction,Profile*
%ADD10C,0.100000*%
G04 #@! TD*
G04 #@! TA.AperFunction,Profile*
%ADD11C,0.150000*%
G04 #@! TD*
G04 APERTURE END LIST*
D10*
X153163636Y-60338934D02*
X153163636Y-60338934D01*
X137271279Y-152822088D02*
X137271302Y-152822073D01*
X227966233Y-36764791D02*
X227966233Y-36764791D01*
X160190537Y-67365850D02*
X160190537Y-67365850D01*
X214419663Y-20007002D02*
X214419663Y-20007002D01*
X137271302Y-152822073D02*
X166704636Y-160085958D01*
X153163636Y-60338934D02*
X160190537Y-67365850D01*
X227883439Y-61511694D02*
X227966233Y-36764791D01*
X68940808Y-56617483D02*
X68940808Y-56617483D01*
X227966233Y-36764791D02*
X227914536Y-25273825D01*
X75414323Y-32457983D02*
X68940808Y-56617483D01*
X227914536Y-25273825D02*
X227914536Y-25273825D01*
X160190537Y-67365850D02*
X137271279Y-152822088D01*
X189176926Y-76218191D02*
X189176926Y-76218191D01*
X189176926Y-76218191D02*
X192831651Y-76218191D01*
X200091264Y-68958578D02*
X227883439Y-61511694D01*
X75414323Y-32457983D02*
X75414323Y-32457983D01*
X166704636Y-160085958D02*
X166704636Y-160085958D01*
D11*
X211453520Y-62546480D02*
G75*
G03*
X211453520Y-62546480I-2000000J0D01*
G01*
X165953520Y-155546480D02*
G75*
G03*
X165953520Y-155546480I-2000000J0D01*
G01*
D10*
X225953520Y-56546480D02*
G75*
G03*
X225953520Y-56546480I-2000000J0D01*
G01*
D11*
X84453520Y-53546480D02*
G75*
G03*
X84453520Y-53546480I-2000000J0D01*
G01*
D10*
X227883439Y-61511694D02*
X227883439Y-61511694D01*
X200091264Y-68958578D02*
X200091264Y-68958578D01*
X192831651Y-76218191D02*
X192831651Y-76218191D01*
X166704636Y-160085958D02*
X189176926Y-76218191D01*
X192831651Y-76218191D02*
X200091264Y-68958578D01*
X68940808Y-56617483D02*
X153163636Y-60338934D01*
X137271279Y-152822088D02*
X137271279Y-152822088D01*
X225953520Y-30546480D02*
G75*
G03*
X225953520Y-30546480I-2000000J0D01*
G01*
D11*
X206953520Y-24546480D02*
G75*
G03*
X206953520Y-24546480I-2000000J0D01*
G01*
D10*
X214419663Y-20007002D02*
X75414323Y-32457983D01*
X227914536Y-25273825D02*
X214419663Y-20007002D01*
M02*
