G04 #@! TF.GenerationSoftware,KiCad,Pcbnew,(6.0.5-0)*
G04 #@! TF.CreationDate,2022-11-26T13:27:52+01:00*
G04 #@! TF.ProjectId,Phazor,5068617a-6f72-42e6-9b69-6361645f7063,rev?*
G04 #@! TF.SameCoordinates,Original*
G04 #@! TF.FileFunction,Legend,Top*
G04 #@! TF.FilePolarity,Positive*
%FSLAX46Y46*%
G04 Gerber Fmt 4.6, Leading zero omitted, Abs format (unit mm)*
G04 Created by KiCad (PCBNEW (6.0.5-0)) date 2022-11-26 13:27:52*
%MOMM*%
%LPD*%
G01*
G04 APERTURE LIST*
G04 Aperture macros list*
%AMRoundRect*
0 Rectangle with rounded corners*
0 $1 Rounding radius*
0 $2 $3 $4 $5 $6 $7 $8 $9 X,Y pos of 4 corners*
0 Add a 4 corners polygon primitive as box body*
4,1,4,$2,$3,$4,$5,$6,$7,$8,$9,$2,$3,0*
0 Add four circle primitives for the rounded corners*
1,1,$1+$1,$2,$3*
1,1,$1+$1,$4,$5*
1,1,$1+$1,$6,$7*
1,1,$1+$1,$8,$9*
0 Add four rect primitives between the rounded corners*
20,1,$1+$1,$2,$3,$4,$5,0*
20,1,$1+$1,$4,$5,$6,$7,0*
20,1,$1+$1,$6,$7,$8,$9,0*
20,1,$1+$1,$8,$9,$2,$3,0*%
%AMHorizOval*
0 Thick line with rounded ends*
0 $1 width*
0 $2 $3 position (X,Y) of the first rounded end (center of the circle)*
0 $4 $5 position (X,Y) of the second rounded end (center of the circle)*
0 Add line between two ends*
20,1,$1,$2,$3,$4,$5,0*
0 Add two circle primitives to create the rounded ends*
1,1,$1,$2,$3*
1,1,$1,$4,$5*%
%AMRotRect*
0 Rectangle, with rotation*
0 The origin of the aperture is its center*
0 $1 length*
0 $2 width*
0 $3 Rotation angle, in degrees counterclockwise*
0 Add horizontal line*
21,1,$1,$2,0,0,$3*%
%AMFreePoly0*
4,1,6,1.000000,0.000000,0.500000,-0.750000,-0.500000,-0.750000,-0.500000,0.750000,0.500000,0.750000,1.000000,0.000000,1.000000,0.000000,$1*%
%AMFreePoly1*
4,1,6,0.500000,-0.750000,-0.650000,-0.750000,-0.150000,0.000000,-0.650000,0.750000,0.500000,0.750000,0.500000,-0.750000,0.500000,-0.750000,$1*%
G04 Aperture macros list end*
%ADD10C,0.700000*%
%ADD11C,0.150000*%
%ADD12C,0.300000*%
%ADD13C,0.120000*%
%ADD14C,0.200000*%
%ADD15C,0.010000*%
%ADD16FreePoly0,180.000000*%
%ADD17FreePoly1,180.000000*%
%ADD18C,3.450000*%
%ADD19C,2.390000*%
%ADD20RotRect,7.340000X6.350000X255.000000*%
%ADD21RoundRect,0.200000X-0.200000X-0.275000X0.200000X-0.275000X0.200000X0.275000X-0.200000X0.275000X0*%
%ADD22RoundRect,0.200000X-0.275000X0.200000X-0.275000X-0.200000X0.275000X-0.200000X0.275000X0.200000X0*%
%ADD23R,1.550000X1.300000*%
%ADD24RoundRect,0.250000X-0.650000X0.325000X-0.650000X-0.325000X0.650000X-0.325000X0.650000X0.325000X0*%
%ADD25RoundRect,0.437500X-1.154544X0.762293X-1.381011X-0.082893X1.154544X-0.762293X1.381011X0.082893X0*%
%ADD26R,2.000000X1.500000*%
%ADD27R,2.000000X3.800000*%
%ADD28RoundRect,0.218750X0.256250X-0.218750X0.256250X0.218750X-0.256250X0.218750X-0.256250X-0.218750X0*%
%ADD29RotRect,2.000000X2.000000X95.000000*%
%ADD30R,1.500000X1.500000*%
%ADD31C,1.500000*%
%ADD32RoundRect,0.225000X0.250000X-0.225000X0.250000X0.225000X-0.250000X0.225000X-0.250000X-0.225000X0*%
%ADD33RoundRect,0.225000X-0.250000X0.225000X-0.250000X-0.225000X0.250000X-0.225000X0.250000X0.225000X0*%
%ADD34RoundRect,0.200000X0.275000X-0.200000X0.275000X0.200000X-0.275000X0.200000X-0.275000X-0.200000X0*%
%ADD35R,0.900000X1.200000*%
%ADD36R,1.700000X1.700000*%
%ADD37O,1.700000X1.700000*%
%ADD38RotRect,1.500000X1.000000X5.000000*%
%ADD39RoundRect,0.200000X0.200000X0.275000X-0.200000X0.275000X-0.200000X-0.275000X0.200000X-0.275000X0*%
%ADD40RoundRect,0.150000X-0.150000X0.512500X-0.150000X-0.512500X0.150000X-0.512500X0.150000X0.512500X0*%
%ADD41RoundRect,0.250000X-0.475000X0.250000X-0.475000X-0.250000X0.475000X-0.250000X0.475000X0.250000X0*%
%ADD42C,0.650000*%
%ADD43RotRect,0.600000X1.450000X255.000000*%
%ADD44RotRect,0.300000X1.450000X255.000000*%
%ADD45HorizOval,1.000000X-0.531259X0.142350X0.531259X-0.142350X0*%
%ADD46HorizOval,1.000000X-0.289778X0.077646X0.289778X-0.077646X0*%
%ADD47RoundRect,0.225000X0.225000X0.250000X-0.225000X0.250000X-0.225000X-0.250000X0.225000X-0.250000X0*%
%ADD48RoundRect,0.225000X-0.268659X0.202355X-0.229439X-0.245933X0.268659X-0.202355X0.229439X0.245933X0*%
%ADD49RoundRect,0.150000X0.587500X0.150000X-0.587500X0.150000X-0.587500X-0.150000X0.587500X-0.150000X0*%
%ADD50RoundRect,0.250000X0.250000X0.475000X-0.250000X0.475000X-0.250000X-0.475000X0.250000X-0.475000X0*%
%ADD51RoundRect,0.200000X-0.264360X-0.213866X0.122010X-0.317393X0.264360X0.213866X-0.122010X0.317393X0*%
%ADD52RoundRect,0.500000X1.250000X0.500000X-1.250000X0.500000X-1.250000X-0.500000X1.250000X-0.500000X0*%
%ADD53RoundRect,0.150000X-0.825000X-0.150000X0.825000X-0.150000X0.825000X0.150000X-0.825000X0.150000X0*%
%ADD54R,2.290000X3.000000*%
%ADD55RoundRect,0.250000X0.650000X-0.325000X0.650000X0.325000X-0.650000X0.325000X-0.650000X-0.325000X0*%
%ADD56RoundRect,0.150000X-0.512500X-0.150000X0.512500X-0.150000X0.512500X0.150000X-0.512500X0.150000X0*%
%ADD57RoundRect,0.150000X0.150000X-0.825000X0.150000X0.825000X-0.150000X0.825000X-0.150000X-0.825000X0*%
%ADD58RotRect,2.000000X0.900000X177.500000*%
%ADD59RotRect,2.000000X0.900000X267.500000*%
%ADD60RotRect,5.000000X5.000000X177.500000*%
%ADD61R,2.500000X1.900000*%
%ADD62RoundRect,0.062500X-0.337500X-0.062500X0.337500X-0.062500X0.337500X0.062500X-0.337500X0.062500X0*%
%ADD63RoundRect,0.062500X-0.062500X-0.337500X0.062500X-0.337500X0.062500X0.337500X-0.062500X0.337500X0*%
%ADD64R,3.350000X3.350000*%
%ADD65RoundRect,0.100000X0.642756X-0.057196X-0.594371X0.251255X-0.642756X0.057196X0.594371X-0.251255X0*%
%ADD66RoundRect,0.250000X-0.250000X-0.475000X0.250000X-0.475000X0.250000X0.475000X-0.250000X0.475000X0*%
%ADD67RoundRect,0.062500X-0.350000X-0.062500X0.350000X-0.062500X0.350000X0.062500X-0.350000X0.062500X0*%
%ADD68RoundRect,0.062500X-0.062500X-0.350000X0.062500X-0.350000X0.062500X0.350000X-0.062500X0.350000X0*%
%ADD69R,1.230000X1.230000*%
%ADD70R,1.200000X0.900000*%
%ADD71RoundRect,0.100000X0.637500X0.100000X-0.637500X0.100000X-0.637500X-0.100000X0.637500X-0.100000X0*%
%ADD72RoundRect,0.187500X0.937500X0.187500X-0.937500X0.187500X-0.937500X-0.187500X0.937500X-0.187500X0*%
%ADD73RoundRect,0.150000X-0.150000X0.825000X-0.150000X-0.825000X0.150000X-0.825000X0.150000X0.825000X0*%
G04 APERTURE END LIST*
D10*
X206138333Y-54012666D02*
X206488333Y-51212666D01*
X207555000Y-51212666D01*
X207805000Y-51346000D01*
X207921666Y-51479333D01*
X208021666Y-51746000D01*
X207971666Y-52146000D01*
X207805000Y-52412666D01*
X207655000Y-52546000D01*
X207371666Y-52679333D01*
X206305000Y-52679333D01*
X209121666Y-52546000D02*
X210055000Y-52546000D01*
X210271666Y-54012666D02*
X208938333Y-54012666D01*
X209288333Y-51212666D01*
X210621666Y-51212666D01*
X211555000Y-51212666D02*
X211871666Y-54012666D01*
X212655000Y-52012666D01*
X212938333Y-54012666D01*
X213955000Y-51212666D01*
X210405000Y-58520666D02*
X210755000Y-55720666D01*
X211821666Y-55720666D01*
X212071666Y-55854000D01*
X212188333Y-55987333D01*
X212288333Y-56254000D01*
X212238333Y-56654000D01*
X212071666Y-56920666D01*
X211921666Y-57054000D01*
X211638333Y-57187333D01*
X210571666Y-57187333D01*
X213388333Y-57054000D02*
X214321666Y-57054000D01*
X214538333Y-58520666D02*
X213205000Y-58520666D01*
X213555000Y-55720666D01*
X214888333Y-55720666D01*
X215821666Y-55720666D02*
X216138333Y-58520666D01*
X216921666Y-56520666D01*
X217205000Y-58520666D01*
X218221666Y-55720666D01*
D11*
X129001139Y-49498860D02*
X129191615Y-49498860D01*
X129286853Y-49546480D01*
X129382091Y-49641718D01*
X129429710Y-49832194D01*
X129429710Y-50165527D01*
X129382091Y-50356003D01*
X129286853Y-50451241D01*
X129191615Y-50498860D01*
X129001139Y-50498860D01*
X128905900Y-50451241D01*
X128810662Y-50356003D01*
X128763043Y-50165527D01*
X128763043Y-49832194D01*
X128810662Y-49641718D01*
X128905900Y-49546480D01*
X129001139Y-49498860D01*
X130191615Y-49975051D02*
X129858281Y-49975051D01*
X129858281Y-50498860D02*
X129858281Y-49498860D01*
X130334472Y-49498860D01*
X131048758Y-49975051D02*
X130715424Y-49975051D01*
X130715424Y-50498860D02*
X130715424Y-49498860D01*
X131191615Y-49498860D01*
D12*
X182246377Y-47803622D02*
X182174948Y-48017908D01*
X182174948Y-48375051D01*
X182246377Y-48517908D01*
X182317805Y-48589337D01*
X182460662Y-48660765D01*
X182603520Y-48660765D01*
X182746377Y-48589337D01*
X182817805Y-48517908D01*
X182889234Y-48375051D01*
X182960662Y-48089337D01*
X183032091Y-47946480D01*
X183103520Y-47875051D01*
X183246377Y-47803622D01*
X183389234Y-47803622D01*
X183532091Y-47875051D01*
X183603520Y-47946480D01*
X183674948Y-48089337D01*
X183674948Y-48446480D01*
X183603520Y-48660765D01*
X183674948Y-49089337D02*
X183674948Y-49946480D01*
X182174948Y-49517908D02*
X183674948Y-49517908D01*
X182174948Y-50446480D02*
X183674948Y-50446480D01*
X183674948Y-50803622D01*
X183603520Y-51017908D01*
X183460662Y-51160765D01*
X183317805Y-51232194D01*
X183032091Y-51303622D01*
X182817805Y-51303622D01*
X182532091Y-51232194D01*
X182389234Y-51160765D01*
X182246377Y-51017908D01*
X182174948Y-50803622D01*
X182174948Y-50446480D01*
X182960662Y-52446480D02*
X182889234Y-52660765D01*
X182817805Y-52732194D01*
X182674948Y-52803622D01*
X182460662Y-52803622D01*
X182317805Y-52732194D01*
X182246377Y-52660765D01*
X182174948Y-52517908D01*
X182174948Y-51946480D01*
X183674948Y-51946480D01*
X183674948Y-52446480D01*
X183603520Y-52589337D01*
X183532091Y-52660765D01*
X183389234Y-52732194D01*
X183246377Y-52732194D01*
X183103520Y-52660765D01*
X183032091Y-52589337D01*
X182960662Y-52446480D01*
X182960662Y-51946480D01*
X182889234Y-53732194D02*
X182174948Y-53732194D01*
X183674948Y-53232194D02*
X182889234Y-53732194D01*
X183674948Y-54232194D01*
D11*
X185501139Y-49784575D02*
X185501139Y-49879813D01*
X185453520Y-49975051D01*
X185405900Y-50022670D01*
X185310662Y-50070289D01*
X185120186Y-50117908D01*
X184882091Y-50117908D01*
X184691615Y-50070289D01*
X184596377Y-50022670D01*
X184548758Y-49975051D01*
X184501139Y-49879813D01*
X184501139Y-49784575D01*
X184548758Y-49689337D01*
X184596377Y-49641718D01*
X184691615Y-49594099D01*
X184882091Y-49546480D01*
X185120186Y-49546480D01*
X185310662Y-49594099D01*
X185405900Y-49641718D01*
X185453520Y-49689337D01*
X185501139Y-49784575D01*
X184501139Y-51832194D02*
X184501139Y-51260765D01*
X184501139Y-51546480D02*
X185501139Y-51546480D01*
X185358281Y-51451241D01*
X185263043Y-51356003D01*
X185215424Y-51260765D01*
X185405900Y-52975051D02*
X185453520Y-53022670D01*
X185501139Y-53117908D01*
X185501139Y-53356003D01*
X185453520Y-53451241D01*
X185405900Y-53498860D01*
X185310662Y-53546480D01*
X185215424Y-53546480D01*
X185072567Y-53498860D01*
X184501139Y-52927432D01*
X184501139Y-53546480D01*
D12*
X173817805Y-47803622D02*
X173746377Y-47732194D01*
X173674948Y-47517908D01*
X173674948Y-47375051D01*
X173746377Y-47160765D01*
X173889234Y-47017908D01*
X174032091Y-46946480D01*
X174317805Y-46875051D01*
X174532091Y-46875051D01*
X174817805Y-46946480D01*
X174960662Y-47017908D01*
X175103520Y-47160765D01*
X175174948Y-47375051D01*
X175174948Y-47517908D01*
X175103520Y-47732194D01*
X175032091Y-47803622D01*
X173674948Y-48446480D02*
X175174948Y-48446480D01*
X174460662Y-48446480D02*
X174460662Y-49303622D01*
X173674948Y-49303622D02*
X175174948Y-49303622D01*
X174103520Y-49946480D02*
X174103520Y-50660765D01*
X173674948Y-49803622D02*
X175174948Y-50303622D01*
X173674948Y-50803622D01*
X173674948Y-52160765D02*
X174389234Y-51660765D01*
X173674948Y-51303622D02*
X175174948Y-51303622D01*
X175174948Y-51875051D01*
X175103520Y-52017908D01*
X175032091Y-52089337D01*
X174889234Y-52160765D01*
X174674948Y-52160765D01*
X174532091Y-52089337D01*
X174460662Y-52017908D01*
X174389234Y-51875051D01*
X174389234Y-51303622D01*
X175103520Y-53589337D02*
X175174948Y-53446480D01*
X175174948Y-53232194D01*
X175103520Y-53017908D01*
X174960662Y-52875051D01*
X174817805Y-52803622D01*
X174532091Y-52732194D01*
X174317805Y-52732194D01*
X174032091Y-52803622D01*
X173889234Y-52875051D01*
X173746377Y-53017908D01*
X173674948Y-53232194D01*
X173674948Y-53375051D01*
X173746377Y-53589337D01*
X173817805Y-53660765D01*
X174317805Y-53660765D01*
X174317805Y-53375051D01*
X174460662Y-54303622D02*
X174460662Y-54803622D01*
X173674948Y-55017908D02*
X173674948Y-54303622D01*
X175174948Y-54303622D01*
X175174948Y-55017908D01*
D11*
X186360543Y-61888860D02*
X186027210Y-61412670D01*
X185789115Y-61888860D02*
X185789115Y-60888860D01*
X186170067Y-60888860D01*
X186265305Y-60936480D01*
X186312924Y-60984099D01*
X186360543Y-61079337D01*
X186360543Y-61222194D01*
X186312924Y-61317432D01*
X186265305Y-61365051D01*
X186170067Y-61412670D01*
X185789115Y-61412670D01*
X187170067Y-61841241D02*
X187074829Y-61888860D01*
X186884353Y-61888860D01*
X186789115Y-61841241D01*
X186741496Y-61746003D01*
X186741496Y-61365051D01*
X186789115Y-61269813D01*
X186884353Y-61222194D01*
X187074829Y-61222194D01*
X187170067Y-61269813D01*
X187217686Y-61365051D01*
X187217686Y-61460289D01*
X186741496Y-61555527D01*
X188074829Y-61841241D02*
X187979591Y-61888860D01*
X187789115Y-61888860D01*
X187693877Y-61841241D01*
X187646258Y-61793622D01*
X187598639Y-61698384D01*
X187598639Y-61412670D01*
X187646258Y-61317432D01*
X187693877Y-61269813D01*
X187789115Y-61222194D01*
X187979591Y-61222194D01*
X188074829Y-61269813D01*
X188551020Y-60888860D02*
X188455781Y-61079337D01*
X189408162Y-61888860D02*
X189408162Y-60888860D01*
X189408162Y-61841241D02*
X189312924Y-61888860D01*
X189122448Y-61888860D01*
X189027210Y-61841241D01*
X188979591Y-61793622D01*
X188931972Y-61698384D01*
X188931972Y-61412670D01*
X188979591Y-61317432D01*
X189027210Y-61269813D01*
X189122448Y-61222194D01*
X189312924Y-61222194D01*
X189408162Y-61269813D01*
X190646258Y-61888860D02*
X190646258Y-60888860D01*
X190979591Y-61603146D01*
X191312924Y-60888860D01*
X191312924Y-61888860D01*
X192360543Y-61793622D02*
X192312924Y-61841241D01*
X192170067Y-61888860D01*
X192074829Y-61888860D01*
X191931972Y-61841241D01*
X191836734Y-61746003D01*
X191789115Y-61650765D01*
X191741496Y-61460289D01*
X191741496Y-61317432D01*
X191789115Y-61126956D01*
X191836734Y-61031718D01*
X191931972Y-60936480D01*
X192074829Y-60888860D01*
X192170067Y-60888860D01*
X192312924Y-60936480D01*
X192360543Y-60984099D01*
X193122448Y-61365051D02*
X192789115Y-61365051D01*
X192789115Y-61888860D02*
X192789115Y-60888860D01*
X193265305Y-60888860D01*
X194170067Y-60936480D02*
X194074829Y-60888860D01*
X193931972Y-60888860D01*
X193789115Y-60936480D01*
X193693877Y-61031718D01*
X193646258Y-61126956D01*
X193598639Y-61317432D01*
X193598639Y-61460289D01*
X193646258Y-61650765D01*
X193693877Y-61746003D01*
X193789115Y-61841241D01*
X193931972Y-61888860D01*
X194027210Y-61888860D01*
X194170067Y-61841241D01*
X194217686Y-61793622D01*
X194217686Y-61460289D01*
X194027210Y-61460289D01*
X185979591Y-62498860D02*
X186074829Y-62498860D01*
X186170067Y-62546480D01*
X186217686Y-62594099D01*
X186265305Y-62689337D01*
X186312924Y-62879813D01*
X186312924Y-63117908D01*
X186265305Y-63308384D01*
X186217686Y-63403622D01*
X186170067Y-63451241D01*
X186074829Y-63498860D01*
X185979591Y-63498860D01*
X185884353Y-63451241D01*
X185836734Y-63403622D01*
X185789115Y-63308384D01*
X185741496Y-63117908D01*
X185741496Y-62879813D01*
X185789115Y-62689337D01*
X185836734Y-62594099D01*
X185884353Y-62546480D01*
X185979591Y-62498860D01*
X186931972Y-62498860D02*
X187027210Y-62498860D01*
X187122448Y-62546480D01*
X187170067Y-62594099D01*
X187217686Y-62689337D01*
X187265305Y-62879813D01*
X187265305Y-63117908D01*
X187217686Y-63308384D01*
X187170067Y-63403622D01*
X187122448Y-63451241D01*
X187027210Y-63498860D01*
X186931972Y-63498860D01*
X186836734Y-63451241D01*
X186789115Y-63403622D01*
X186741496Y-63308384D01*
X186693877Y-63117908D01*
X186693877Y-62879813D01*
X186741496Y-62689337D01*
X186789115Y-62594099D01*
X186836734Y-62546480D01*
X186931972Y-62498860D01*
X187884353Y-62498860D02*
X187979591Y-62498860D01*
X188074829Y-62546480D01*
X188122448Y-62594099D01*
X188170067Y-62689337D01*
X188217686Y-62879813D01*
X188217686Y-63117908D01*
X188170067Y-63308384D01*
X188122448Y-63403622D01*
X188074829Y-63451241D01*
X187979591Y-63498860D01*
X187884353Y-63498860D01*
X187789115Y-63451241D01*
X187741496Y-63403622D01*
X187693877Y-63308384D01*
X187646258Y-63117908D01*
X187646258Y-62879813D01*
X187693877Y-62689337D01*
X187741496Y-62594099D01*
X187789115Y-62546480D01*
X187884353Y-62498860D01*
X189408162Y-63117908D02*
X190170067Y-63117908D01*
X190646258Y-62832194D02*
X191408162Y-63117908D01*
X190646258Y-63403622D01*
X192646258Y-63498860D02*
X192646258Y-62498860D01*
X193027210Y-62498860D01*
X193122448Y-62546480D01*
X193170067Y-62594099D01*
X193217686Y-62689337D01*
X193217686Y-62832194D01*
X193170067Y-62927432D01*
X193122448Y-62975051D01*
X193027210Y-63022670D01*
X192646258Y-63022670D01*
X193646258Y-63498860D02*
X193646258Y-62498860D01*
X194074829Y-63498860D02*
X194074829Y-62975051D01*
X194027210Y-62879813D01*
X193931972Y-62832194D01*
X193789115Y-62832194D01*
X193693877Y-62879813D01*
X193646258Y-62927432D01*
X194979591Y-63498860D02*
X194979591Y-62975051D01*
X194931972Y-62879813D01*
X194836734Y-62832194D01*
X194646258Y-62832194D01*
X194551020Y-62879813D01*
X194979591Y-63451241D02*
X194884353Y-63498860D01*
X194646258Y-63498860D01*
X194551020Y-63451241D01*
X194503400Y-63356003D01*
X194503400Y-63260765D01*
X194551020Y-63165527D01*
X194646258Y-63117908D01*
X194884353Y-63117908D01*
X194979591Y-63070289D01*
X195408162Y-63451241D02*
X195503400Y-63498860D01*
X195693877Y-63498860D01*
X195789115Y-63451241D01*
X195836734Y-63356003D01*
X195836734Y-63308384D01*
X195789115Y-63213146D01*
X195693877Y-63165527D01*
X195551020Y-63165527D01*
X195455781Y-63117908D01*
X195408162Y-63022670D01*
X195408162Y-62975051D01*
X195455781Y-62879813D01*
X195551020Y-62832194D01*
X195693877Y-62832194D01*
X195789115Y-62879813D01*
X196646258Y-63451241D02*
X196551020Y-63498860D01*
X196360543Y-63498860D01*
X196265305Y-63451241D01*
X196217686Y-63356003D01*
X196217686Y-62975051D01*
X196265305Y-62879813D01*
X196360543Y-62832194D01*
X196551020Y-62832194D01*
X196646258Y-62879813D01*
X196693877Y-62975051D01*
X196693877Y-63070289D01*
X196217686Y-63165527D01*
X197122448Y-63498860D02*
X197122448Y-62832194D01*
X197122448Y-63022670D02*
X197170067Y-62927432D01*
X197217686Y-62879813D01*
X197312924Y-62832194D01*
X197408162Y-62832194D01*
X186312924Y-65108860D02*
X185741496Y-65108860D01*
X186027210Y-65108860D02*
X186027210Y-64108860D01*
X185931972Y-64251718D01*
X185836734Y-64346956D01*
X185741496Y-64394575D01*
X187265305Y-65108860D02*
X186693877Y-65108860D01*
X186979591Y-65108860D02*
X186979591Y-64108860D01*
X186884353Y-64251718D01*
X186789115Y-64346956D01*
X186693877Y-64394575D01*
X188217686Y-65108860D02*
X187646258Y-65108860D01*
X187931972Y-65108860D02*
X187931972Y-64108860D01*
X187836734Y-64251718D01*
X187741496Y-64346956D01*
X187646258Y-64394575D01*
X189408162Y-64727908D02*
X190170067Y-64727908D01*
X190646258Y-64442194D02*
X191408162Y-64727908D01*
X190646258Y-65013622D01*
X192836734Y-64108860D02*
X193027210Y-64108860D01*
X193122448Y-64156480D01*
X193217686Y-64251718D01*
X193265305Y-64442194D01*
X193265305Y-64775527D01*
X193217686Y-64966003D01*
X193122448Y-65061241D01*
X193027210Y-65108860D01*
X192836734Y-65108860D01*
X192741496Y-65061241D01*
X192646258Y-64966003D01*
X192598639Y-64775527D01*
X192598639Y-64442194D01*
X192646258Y-64251718D01*
X192741496Y-64156480D01*
X192836734Y-64108860D01*
X193551020Y-64442194D02*
X193931972Y-64442194D01*
X193693877Y-64108860D02*
X193693877Y-64966003D01*
X193741496Y-65061241D01*
X193836734Y-65108860D01*
X193931972Y-65108860D01*
X194265305Y-65108860D02*
X194265305Y-64108860D01*
X194693877Y-65108860D02*
X194693877Y-64585051D01*
X194646258Y-64489813D01*
X194551020Y-64442194D01*
X194408162Y-64442194D01*
X194312924Y-64489813D01*
X194265305Y-64537432D01*
X195551020Y-65061241D02*
X195455781Y-65108860D01*
X195265305Y-65108860D01*
X195170067Y-65061241D01*
X195122448Y-64966003D01*
X195122448Y-64585051D01*
X195170067Y-64489813D01*
X195265305Y-64442194D01*
X195455781Y-64442194D01*
X195551020Y-64489813D01*
X195598639Y-64585051D01*
X195598639Y-64680289D01*
X195122448Y-64775527D01*
X196027210Y-65108860D02*
X196027210Y-64442194D01*
X196027210Y-64632670D02*
X196074829Y-64537432D01*
X196122448Y-64489813D01*
X196217686Y-64442194D01*
X196312924Y-64442194D01*
X174789314Y-115263353D02*
X174872285Y-115137688D01*
X174930606Y-115104017D01*
X175034923Y-115082670D01*
X175172913Y-115119644D01*
X175252581Y-115190290D01*
X175286253Y-115248611D01*
X175307600Y-115352929D01*
X175209002Y-115720900D01*
X174243076Y-115462081D01*
X174329349Y-115140106D01*
X174399995Y-115060438D01*
X174458316Y-115026766D01*
X174562634Y-115005419D01*
X174654627Y-115030068D01*
X174734295Y-115100714D01*
X174767967Y-115159035D01*
X174789314Y-115263353D01*
X174703041Y-115585328D01*
X174464921Y-114634145D02*
X174612818Y-114082187D01*
X175504795Y-114616985D02*
X174538869Y-114358166D01*
X174778759Y-113830858D02*
X174745087Y-113772537D01*
X174723740Y-113668219D01*
X174785364Y-113438237D01*
X174856010Y-113358568D01*
X174914331Y-113324897D01*
X175018649Y-113303550D01*
X175110641Y-113328199D01*
X175236306Y-113411170D01*
X175640367Y-114111024D01*
X175800588Y-113513070D01*
X170786853Y-43248859D02*
X170453520Y-42772669D01*
X170215424Y-43248859D02*
X170215424Y-42248859D01*
X170596377Y-42248859D01*
X170691615Y-42296479D01*
X170739234Y-42344098D01*
X170786853Y-42439336D01*
X170786853Y-42582193D01*
X170739234Y-42677431D01*
X170691615Y-42725050D01*
X170596377Y-42772669D01*
X170215424Y-42772669D01*
X171643996Y-42248859D02*
X171453520Y-42248859D01*
X171358281Y-42296479D01*
X171310662Y-42344098D01*
X171215424Y-42486955D01*
X171167805Y-42677431D01*
X171167805Y-43058383D01*
X171215424Y-43153621D01*
X171263043Y-43201240D01*
X171358281Y-43248859D01*
X171548758Y-43248859D01*
X171643996Y-43201240D01*
X171691615Y-43153621D01*
X171739234Y-43058383D01*
X171739234Y-42820288D01*
X171691615Y-42725050D01*
X171643996Y-42677431D01*
X171548758Y-42629812D01*
X171358281Y-42629812D01*
X171263043Y-42677431D01*
X171215424Y-42725050D01*
X171167805Y-42820288D01*
X148605900Y-55838146D02*
X148129710Y-56171480D01*
X148605900Y-56409575D02*
X147605900Y-56409575D01*
X147605900Y-56028622D01*
X147653520Y-55933384D01*
X147701139Y-55885765D01*
X147796377Y-55838146D01*
X147939234Y-55838146D01*
X148034472Y-55885765D01*
X148082091Y-55933384D01*
X148129710Y-56028622D01*
X148129710Y-56409575D01*
X148034472Y-55266718D02*
X147986853Y-55361956D01*
X147939234Y-55409575D01*
X147843996Y-55457194D01*
X147796377Y-55457194D01*
X147701139Y-55409575D01*
X147653520Y-55361956D01*
X147605900Y-55266718D01*
X147605900Y-55076241D01*
X147653520Y-54981003D01*
X147701139Y-54933384D01*
X147796377Y-54885765D01*
X147843996Y-54885765D01*
X147939234Y-54933384D01*
X147986853Y-54981003D01*
X148034472Y-55076241D01*
X148034472Y-55266718D01*
X148082091Y-55361956D01*
X148129710Y-55409575D01*
X148224948Y-55457194D01*
X148415424Y-55457194D01*
X148510662Y-55409575D01*
X148558281Y-55361956D01*
X148605900Y-55266718D01*
X148605900Y-55076241D01*
X148558281Y-54981003D01*
X148510662Y-54933384D01*
X148415424Y-54885765D01*
X148224948Y-54885765D01*
X148129710Y-54933384D01*
X148082091Y-54981003D01*
X148034472Y-55076241D01*
X152410662Y-42313145D02*
X152458281Y-42360764D01*
X152505900Y-42503621D01*
X152505900Y-42598859D01*
X152458281Y-42741717D01*
X152363043Y-42836955D01*
X152267805Y-42884574D01*
X152077329Y-42932193D01*
X151934472Y-42932193D01*
X151743996Y-42884574D01*
X151648758Y-42836955D01*
X151553520Y-42741717D01*
X151505900Y-42598859D01*
X151505900Y-42503621D01*
X151553520Y-42360764D01*
X151601139Y-42313145D01*
X151601139Y-41932193D02*
X151553520Y-41884574D01*
X151505900Y-41789336D01*
X151505900Y-41551240D01*
X151553520Y-41456002D01*
X151601139Y-41408383D01*
X151696377Y-41360764D01*
X151791615Y-41360764D01*
X151934472Y-41408383D01*
X152505900Y-41979812D01*
X152505900Y-41360764D01*
X185607338Y-75545877D02*
X185733003Y-75628848D01*
X185962985Y-75690472D01*
X186067303Y-75669125D01*
X186125624Y-75635453D01*
X186196270Y-75555785D01*
X186220920Y-75463792D01*
X186199572Y-75359474D01*
X186165901Y-75301153D01*
X186086232Y-75230507D01*
X185914571Y-75135212D01*
X185834903Y-75064566D01*
X185801231Y-75006245D01*
X185779884Y-74901927D01*
X185804534Y-74809934D01*
X185875180Y-74730266D01*
X185933501Y-74696594D01*
X186037819Y-74675247D01*
X186267801Y-74736871D01*
X186393466Y-74819841D01*
X186727766Y-74860118D02*
X186698929Y-75887667D01*
X187067785Y-75247019D01*
X187066901Y-75986265D01*
X187555702Y-75081963D01*
X188251369Y-75613458D02*
X188078823Y-76257409D01*
X188119984Y-75183863D02*
X187705131Y-75812186D01*
X188303085Y-75972407D01*
X206010662Y-46398860D02*
X205677329Y-45922670D01*
X205439234Y-46398860D02*
X205439234Y-45398860D01*
X205820186Y-45398860D01*
X205915424Y-45446480D01*
X205963043Y-45494099D01*
X206010662Y-45589337D01*
X206010662Y-45732194D01*
X205963043Y-45827432D01*
X205915424Y-45875051D01*
X205820186Y-45922670D01*
X205439234Y-45922670D01*
X206343996Y-45398860D02*
X206963043Y-45398860D01*
X206629710Y-45779813D01*
X206772567Y-45779813D01*
X206867805Y-45827432D01*
X206915424Y-45875051D01*
X206963043Y-45970289D01*
X206963043Y-46208384D01*
X206915424Y-46303622D01*
X206867805Y-46351241D01*
X206772567Y-46398860D01*
X206486853Y-46398860D01*
X206391615Y-46351241D01*
X206343996Y-46303622D01*
X207296377Y-45398860D02*
X207915424Y-45398860D01*
X207582091Y-45779813D01*
X207724948Y-45779813D01*
X207820186Y-45827432D01*
X207867805Y-45875051D01*
X207915424Y-45970289D01*
X207915424Y-46208384D01*
X207867805Y-46303622D01*
X207820186Y-46351241D01*
X207724948Y-46398860D01*
X207439234Y-46398860D01*
X207343996Y-46351241D01*
X207296377Y-46303622D01*
X143691615Y-40998860D02*
X143691615Y-41808384D01*
X143739234Y-41903622D01*
X143786853Y-41951241D01*
X143882091Y-41998860D01*
X144072567Y-41998860D01*
X144167805Y-41951241D01*
X144215424Y-41903622D01*
X144263043Y-41808384D01*
X144263043Y-40998860D01*
X145263043Y-41998860D02*
X144691615Y-41998860D01*
X144977329Y-41998860D02*
X144977329Y-40998860D01*
X144882091Y-41141718D01*
X144786853Y-41236956D01*
X144691615Y-41284575D01*
X178405900Y-53284575D02*
X177405900Y-53284575D01*
X177405900Y-53046480D01*
X177453520Y-52903622D01*
X177548758Y-52808384D01*
X177643996Y-52760765D01*
X177834472Y-52713146D01*
X177977329Y-52713146D01*
X178167805Y-52760765D01*
X178263043Y-52808384D01*
X178358281Y-52903622D01*
X178405900Y-53046480D01*
X178405900Y-53284575D01*
X178405900Y-51760765D02*
X178405900Y-52332194D01*
X178405900Y-52046480D02*
X177405900Y-52046480D01*
X177548758Y-52141718D01*
X177643996Y-52236956D01*
X177691615Y-52332194D01*
X209858281Y-25594099D02*
X209763043Y-25546480D01*
X209667805Y-25451241D01*
X209524948Y-25308384D01*
X209429710Y-25260765D01*
X209334472Y-25260765D01*
X209382091Y-25498860D02*
X209286853Y-25451241D01*
X209191615Y-25356003D01*
X209143996Y-25165527D01*
X209143996Y-24832194D01*
X209191615Y-24641718D01*
X209286853Y-24546480D01*
X209382091Y-24498860D01*
X209572567Y-24498860D01*
X209667805Y-24546480D01*
X209763043Y-24641718D01*
X209810662Y-24832194D01*
X209810662Y-25165527D01*
X209763043Y-25356003D01*
X209667805Y-25451241D01*
X209572567Y-25498860D01*
X209382091Y-25498860D01*
X210715424Y-24498860D02*
X210239234Y-24498860D01*
X210191615Y-24975051D01*
X210239234Y-24927432D01*
X210334472Y-24879813D01*
X210572567Y-24879813D01*
X210667805Y-24927432D01*
X210715424Y-24975051D01*
X210763043Y-25070289D01*
X210763043Y-25308384D01*
X210715424Y-25403622D01*
X210667805Y-25451241D01*
X210572567Y-25498860D01*
X210334472Y-25498860D01*
X210239234Y-25451241D01*
X210191615Y-25403622D01*
X99310662Y-45498860D02*
X98977329Y-45022670D01*
X98739234Y-45498860D02*
X98739234Y-44498860D01*
X99120186Y-44498860D01*
X99215424Y-44546480D01*
X99263043Y-44594099D01*
X99310662Y-44689337D01*
X99310662Y-44832194D01*
X99263043Y-44927432D01*
X99215424Y-44975051D01*
X99120186Y-45022670D01*
X98739234Y-45022670D01*
X100263043Y-45498860D02*
X99691615Y-45498860D01*
X99977329Y-45498860D02*
X99977329Y-44498860D01*
X99882091Y-44641718D01*
X99786853Y-44736956D01*
X99691615Y-44784575D01*
X100834472Y-44927432D02*
X100739234Y-44879813D01*
X100691615Y-44832194D01*
X100643996Y-44736956D01*
X100643996Y-44689337D01*
X100691615Y-44594099D01*
X100739234Y-44546480D01*
X100834472Y-44498860D01*
X101024948Y-44498860D01*
X101120186Y-44546480D01*
X101167805Y-44594099D01*
X101215424Y-44689337D01*
X101215424Y-44736956D01*
X101167805Y-44832194D01*
X101120186Y-44879813D01*
X101024948Y-44927432D01*
X100834472Y-44927432D01*
X100739234Y-44975051D01*
X100691615Y-45022670D01*
X100643996Y-45117908D01*
X100643996Y-45308384D01*
X100691615Y-45403622D01*
X100739234Y-45451241D01*
X100834472Y-45498860D01*
X101024948Y-45498860D01*
X101120186Y-45451241D01*
X101167805Y-45403622D01*
X101215424Y-45308384D01*
X101215424Y-45117908D01*
X101167805Y-45022670D01*
X101120186Y-44975051D01*
X101024948Y-44927432D01*
X200810662Y-52689337D02*
X200858281Y-52736956D01*
X200905900Y-52879813D01*
X200905900Y-52975051D01*
X200858281Y-53117908D01*
X200763043Y-53213146D01*
X200667805Y-53260765D01*
X200477329Y-53308384D01*
X200334472Y-53308384D01*
X200143996Y-53260765D01*
X200048758Y-53213146D01*
X199953520Y-53117908D01*
X199905900Y-52975051D01*
X199905900Y-52879813D01*
X199953520Y-52736956D01*
X200001139Y-52689337D01*
X200001139Y-52308384D02*
X199953520Y-52260765D01*
X199905900Y-52165527D01*
X199905900Y-51927432D01*
X199953520Y-51832194D01*
X200001139Y-51784575D01*
X200096377Y-51736956D01*
X200191615Y-51736956D01*
X200334472Y-51784575D01*
X200905900Y-52356003D01*
X200905900Y-51736956D01*
X199905900Y-50879813D02*
X199905900Y-51070289D01*
X199953520Y-51165527D01*
X200001139Y-51213146D01*
X200143996Y-51308384D01*
X200334472Y-51356003D01*
X200715424Y-51356003D01*
X200810662Y-51308384D01*
X200858281Y-51260765D01*
X200905900Y-51165527D01*
X200905900Y-50975051D01*
X200858281Y-50879813D01*
X200810662Y-50832194D01*
X200715424Y-50784575D01*
X200477329Y-50784575D01*
X200382091Y-50832194D01*
X200334472Y-50879813D01*
X200286853Y-50975051D01*
X200286853Y-51165527D01*
X200334472Y-51260765D01*
X200382091Y-51308384D01*
X200477329Y-51356003D01*
X167088016Y-67199597D02*
X167040397Y-67247216D01*
X166897540Y-67294835D01*
X166802302Y-67294835D01*
X166659444Y-67247216D01*
X166564206Y-67151978D01*
X166516587Y-67056740D01*
X166468968Y-66866264D01*
X166468968Y-66723407D01*
X166516587Y-66532931D01*
X166564206Y-66437693D01*
X166659444Y-66342455D01*
X166802302Y-66294835D01*
X166897540Y-66294835D01*
X167040397Y-66342455D01*
X167088016Y-66390074D01*
X168040397Y-67294835D02*
X167468968Y-67294835D01*
X167754683Y-67294835D02*
X167754683Y-66294835D01*
X167659444Y-66437693D01*
X167564206Y-66532931D01*
X167468968Y-66580550D01*
X205975900Y-31189337D02*
X205499710Y-31522670D01*
X205975900Y-31760765D02*
X204975900Y-31760765D01*
X204975900Y-31379813D01*
X205023520Y-31284575D01*
X205071139Y-31236956D01*
X205166377Y-31189337D01*
X205309234Y-31189337D01*
X205404472Y-31236956D01*
X205452091Y-31284575D01*
X205499710Y-31379813D01*
X205499710Y-31760765D01*
X204975900Y-30856003D02*
X204975900Y-30236956D01*
X205356853Y-30570289D01*
X205356853Y-30427432D01*
X205404472Y-30332194D01*
X205452091Y-30284575D01*
X205547329Y-30236956D01*
X205785424Y-30236956D01*
X205880662Y-30284575D01*
X205928281Y-30332194D01*
X205975900Y-30427432D01*
X205975900Y-30713146D01*
X205928281Y-30808384D01*
X205880662Y-30856003D01*
X205071139Y-29856003D02*
X205023520Y-29808384D01*
X204975900Y-29713146D01*
X204975900Y-29475051D01*
X205023520Y-29379813D01*
X205071139Y-29332194D01*
X205166377Y-29284575D01*
X205261615Y-29284575D01*
X205404472Y-29332194D01*
X205975900Y-29903622D01*
X205975900Y-29284575D01*
X216539234Y-46398860D02*
X216539234Y-45398860D01*
X216777329Y-45398860D01*
X216920186Y-45446480D01*
X217015424Y-45541718D01*
X217063043Y-45636956D01*
X217110662Y-45827432D01*
X217110662Y-45970289D01*
X217063043Y-46160765D01*
X217015424Y-46256003D01*
X216920186Y-46351241D01*
X216777329Y-46398860D01*
X216539234Y-46398860D01*
X218063043Y-46398860D02*
X217491615Y-46398860D01*
X217777329Y-46398860D02*
X217777329Y-45398860D01*
X217682091Y-45541718D01*
X217586853Y-45636956D01*
X217491615Y-45684575D01*
X218443996Y-45494099D02*
X218491615Y-45446480D01*
X218586853Y-45398860D01*
X218824948Y-45398860D01*
X218920186Y-45446480D01*
X218967805Y-45494099D01*
X219015424Y-45589337D01*
X219015424Y-45684575D01*
X218967805Y-45827432D01*
X218396377Y-46398860D01*
X219015424Y-46398860D01*
X131610662Y-38298860D02*
X131277329Y-37822670D01*
X131039234Y-38298860D02*
X131039234Y-37298860D01*
X131420186Y-37298860D01*
X131515424Y-37346480D01*
X131563043Y-37394099D01*
X131610662Y-37489337D01*
X131610662Y-37632194D01*
X131563043Y-37727432D01*
X131515424Y-37775051D01*
X131420186Y-37822670D01*
X131039234Y-37822670D01*
X131991615Y-37394099D02*
X132039234Y-37346480D01*
X132134472Y-37298860D01*
X132372567Y-37298860D01*
X132467805Y-37346480D01*
X132515424Y-37394099D01*
X132563043Y-37489337D01*
X132563043Y-37584575D01*
X132515424Y-37727432D01*
X131943996Y-38298860D01*
X132563043Y-38298860D01*
X133420186Y-37298860D02*
X133229710Y-37298860D01*
X133134472Y-37346480D01*
X133086853Y-37394099D01*
X132991615Y-37536956D01*
X132943996Y-37727432D01*
X132943996Y-38108384D01*
X132991615Y-38203622D01*
X133039234Y-38251241D01*
X133134472Y-38298860D01*
X133324948Y-38298860D01*
X133420186Y-38251241D01*
X133467805Y-38203622D01*
X133515424Y-38108384D01*
X133515424Y-37870289D01*
X133467805Y-37775051D01*
X133420186Y-37727432D01*
X133324948Y-37679813D01*
X133134472Y-37679813D01*
X133039234Y-37727432D01*
X132991615Y-37775051D01*
X132943996Y-37870289D01*
X184835900Y-58856003D02*
X185550186Y-58856003D01*
X185693043Y-58903622D01*
X185788281Y-58998860D01*
X185835900Y-59141718D01*
X185835900Y-59236956D01*
X185835900Y-57856003D02*
X185835900Y-58427432D01*
X185835900Y-58141718D02*
X184835900Y-58141718D01*
X184978758Y-58236956D01*
X185073996Y-58332194D01*
X185121615Y-58427432D01*
X184835900Y-56951241D02*
X184835900Y-57427432D01*
X185312091Y-57475051D01*
X185264472Y-57427432D01*
X185216853Y-57332194D01*
X185216853Y-57094099D01*
X185264472Y-56998860D01*
X185312091Y-56951241D01*
X185407329Y-56903622D01*
X185645424Y-56903622D01*
X185740662Y-56951241D01*
X185788281Y-56998860D01*
X185835900Y-57094099D01*
X185835900Y-57332194D01*
X185788281Y-57427432D01*
X185740662Y-57475051D01*
X151862015Y-33596319D02*
X151774859Y-32600125D01*
X152012048Y-32579373D01*
X152158512Y-32614360D01*
X152261688Y-32700935D01*
X152317426Y-32791661D01*
X152381465Y-32977262D01*
X152393916Y-33119575D01*
X152363079Y-33313477D01*
X152323942Y-33412503D01*
X152237367Y-33515679D01*
X152099204Y-33575568D01*
X151862015Y-33596319D01*
X153197994Y-32475616D02*
X153008243Y-32492217D01*
X152917517Y-32547956D01*
X152874230Y-32599544D01*
X152791805Y-32750158D01*
X152760968Y-32944060D01*
X152794170Y-33323562D01*
X152849909Y-33414288D01*
X152901497Y-33457575D01*
X153000523Y-33496713D01*
X153190274Y-33480112D01*
X153281000Y-33424373D01*
X153324287Y-33372785D01*
X153363424Y-33273759D01*
X153342673Y-33036570D01*
X153286935Y-32945844D01*
X153235347Y-32902557D01*
X153136321Y-32863420D01*
X152946569Y-32880021D01*
X152855844Y-32935759D01*
X152812556Y-32987347D01*
X152773419Y-33086373D01*
X152051329Y-35487013D02*
X151482075Y-35536817D01*
X151766702Y-35511915D02*
X151679546Y-34515720D01*
X151597121Y-34666334D01*
X151510546Y-34769511D01*
X151419821Y-34825249D01*
X206010662Y-43398860D02*
X205677329Y-42922670D01*
X205439234Y-43398860D02*
X205439234Y-42398860D01*
X205820186Y-42398860D01*
X205915424Y-42446480D01*
X205963043Y-42494099D01*
X206010662Y-42589337D01*
X206010662Y-42732194D01*
X205963043Y-42827432D01*
X205915424Y-42875051D01*
X205820186Y-42922670D01*
X205439234Y-42922670D01*
X206343996Y-42398860D02*
X206963043Y-42398860D01*
X206629710Y-42779813D01*
X206772567Y-42779813D01*
X206867805Y-42827432D01*
X206915424Y-42875051D01*
X206963043Y-42970289D01*
X206963043Y-43208384D01*
X206915424Y-43303622D01*
X206867805Y-43351241D01*
X206772567Y-43398860D01*
X206486853Y-43398860D01*
X206391615Y-43351241D01*
X206343996Y-43303622D01*
X207820186Y-42732194D02*
X207820186Y-43398860D01*
X207582091Y-42351241D02*
X207343996Y-43065527D01*
X207963043Y-43065527D01*
X181799399Y-31284215D02*
X181712243Y-30288021D01*
X181949432Y-30267269D01*
X182095896Y-30302256D01*
X182199072Y-30388831D01*
X182254810Y-30479557D01*
X182318849Y-30665158D01*
X182331300Y-30807471D01*
X182300463Y-31001373D01*
X182261326Y-31100399D01*
X182174751Y-31203575D01*
X182036588Y-31263464D01*
X181799399Y-31284215D01*
X183164430Y-30495577D02*
X183222534Y-31159707D01*
X182894039Y-30136826D02*
X182719103Y-30869145D01*
X183335795Y-30815191D01*
X181988713Y-33174909D02*
X181419459Y-33224713D01*
X181704086Y-33199811D02*
X181616930Y-32203616D01*
X181534505Y-32354230D01*
X181447930Y-32457407D01*
X181357205Y-32513145D01*
X181005900Y-62308384D02*
X181815424Y-62308384D01*
X181910662Y-62260765D01*
X181958281Y-62213146D01*
X182005900Y-62117908D01*
X182005900Y-61927432D01*
X181958281Y-61832194D01*
X181910662Y-61784575D01*
X181815424Y-61736956D01*
X181005900Y-61736956D01*
X181339234Y-60832194D02*
X182005900Y-60832194D01*
X180958281Y-61070289D02*
X181672567Y-61308384D01*
X181672567Y-60689337D01*
X91905900Y-39189337D02*
X91429710Y-39522670D01*
X91905900Y-39760765D02*
X90905900Y-39760765D01*
X90905900Y-39379813D01*
X90953520Y-39284575D01*
X91001139Y-39236956D01*
X91096377Y-39189337D01*
X91239234Y-39189337D01*
X91334472Y-39236956D01*
X91382091Y-39284575D01*
X91429710Y-39379813D01*
X91429710Y-39760765D01*
X91001139Y-38808384D02*
X90953520Y-38760765D01*
X90905900Y-38665527D01*
X90905900Y-38427432D01*
X90953520Y-38332194D01*
X91001139Y-38284575D01*
X91096377Y-38236956D01*
X91191615Y-38236956D01*
X91334472Y-38284575D01*
X91905900Y-38856003D01*
X91905900Y-38236956D01*
X90905900Y-37903622D02*
X90905900Y-37236956D01*
X91905900Y-37665527D01*
X157310662Y-42189337D02*
X157358281Y-42236956D01*
X157405900Y-42379813D01*
X157405900Y-42475051D01*
X157358281Y-42617908D01*
X157263043Y-42713146D01*
X157167805Y-42760765D01*
X156977329Y-42808384D01*
X156834472Y-42808384D01*
X156643996Y-42760765D01*
X156548758Y-42713146D01*
X156453520Y-42617908D01*
X156405900Y-42475051D01*
X156405900Y-42379813D01*
X156453520Y-42236956D01*
X156501139Y-42189337D01*
X157405900Y-41236956D02*
X157405900Y-41808384D01*
X157405900Y-41522670D02*
X156405900Y-41522670D01*
X156548758Y-41617908D01*
X156643996Y-41713146D01*
X156691615Y-41808384D01*
X156501139Y-40856003D02*
X156453520Y-40808384D01*
X156405900Y-40713146D01*
X156405900Y-40475051D01*
X156453520Y-40379813D01*
X156501139Y-40332194D01*
X156596377Y-40284575D01*
X156691615Y-40284575D01*
X156834472Y-40332194D01*
X157405900Y-40903622D01*
X157405900Y-40284575D01*
X125310662Y-54689337D02*
X125358281Y-54736956D01*
X125405900Y-54879813D01*
X125405900Y-54975051D01*
X125358281Y-55117908D01*
X125263043Y-55213146D01*
X125167805Y-55260765D01*
X124977329Y-55308384D01*
X124834472Y-55308384D01*
X124643996Y-55260765D01*
X124548758Y-55213146D01*
X124453520Y-55117908D01*
X124405900Y-54975051D01*
X124405900Y-54879813D01*
X124453520Y-54736956D01*
X124501139Y-54689337D01*
X125405900Y-53736956D02*
X125405900Y-54308384D01*
X125405900Y-54022670D02*
X124405900Y-54022670D01*
X124548758Y-54117908D01*
X124643996Y-54213146D01*
X124691615Y-54308384D01*
X124834472Y-53165527D02*
X124786853Y-53260765D01*
X124739234Y-53308384D01*
X124643996Y-53356003D01*
X124596377Y-53356003D01*
X124501139Y-53308384D01*
X124453520Y-53260765D01*
X124405900Y-53165527D01*
X124405900Y-52975051D01*
X124453520Y-52879813D01*
X124501139Y-52832194D01*
X124596377Y-52784575D01*
X124643996Y-52784575D01*
X124739234Y-52832194D01*
X124786853Y-52879813D01*
X124834472Y-52975051D01*
X124834472Y-53165527D01*
X124882091Y-53260765D01*
X124929710Y-53308384D01*
X125024948Y-53356003D01*
X125215424Y-53356003D01*
X125310662Y-53308384D01*
X125358281Y-53260765D01*
X125405900Y-53165527D01*
X125405900Y-52975051D01*
X125358281Y-52879813D01*
X125310662Y-52832194D01*
X125215424Y-52784575D01*
X125024948Y-52784575D01*
X124929710Y-52832194D01*
X124882091Y-52879813D01*
X124834472Y-52975051D01*
X159810662Y-42189337D02*
X159858281Y-42236956D01*
X159905900Y-42379813D01*
X159905900Y-42475051D01*
X159858281Y-42617908D01*
X159763043Y-42713146D01*
X159667805Y-42760765D01*
X159477329Y-42808384D01*
X159334472Y-42808384D01*
X159143996Y-42760765D01*
X159048758Y-42713146D01*
X158953520Y-42617908D01*
X158905900Y-42475051D01*
X158905900Y-42379813D01*
X158953520Y-42236956D01*
X159001139Y-42189337D01*
X159905900Y-41236956D02*
X159905900Y-41808384D01*
X159905900Y-41522670D02*
X158905900Y-41522670D01*
X159048758Y-41617908D01*
X159143996Y-41713146D01*
X159191615Y-41808384D01*
X159905900Y-40284575D02*
X159905900Y-40856003D01*
X159905900Y-40570289D02*
X158905900Y-40570289D01*
X159048758Y-40665527D01*
X159143996Y-40760765D01*
X159191615Y-40856003D01*
X143385662Y-53648860D02*
X143052329Y-53172670D01*
X142814234Y-53648860D02*
X142814234Y-52648860D01*
X143195186Y-52648860D01*
X143290424Y-52696480D01*
X143338043Y-52744099D01*
X143385662Y-52839337D01*
X143385662Y-52982194D01*
X143338043Y-53077432D01*
X143290424Y-53125051D01*
X143195186Y-53172670D01*
X142814234Y-53172670D01*
X144338043Y-53648860D02*
X143766615Y-53648860D01*
X144052329Y-53648860D02*
X144052329Y-52648860D01*
X143957091Y-52791718D01*
X143861853Y-52886956D01*
X143766615Y-52934575D01*
X145290424Y-53648860D02*
X144718996Y-53648860D01*
X145004710Y-53648860D02*
X145004710Y-52648860D01*
X144909472Y-52791718D01*
X144814234Y-52886956D01*
X144718996Y-52934575D01*
X81290938Y-45687755D02*
X81980885Y-45872625D01*
X82106550Y-45955596D01*
X82173893Y-46072238D01*
X82182916Y-46222552D01*
X82158266Y-46314545D01*
X82515683Y-44980648D02*
X82367786Y-45532605D01*
X82441735Y-45256627D02*
X81475809Y-44997808D01*
X81589149Y-45126775D01*
X81656492Y-45243417D01*
X81677839Y-45347735D01*
X138010662Y-38703623D02*
X137963043Y-38751242D01*
X137820186Y-38798861D01*
X137724948Y-38798861D01*
X137582091Y-38751242D01*
X137486853Y-38656004D01*
X137439234Y-38560766D01*
X137391615Y-38370290D01*
X137391615Y-38227433D01*
X137439234Y-38036957D01*
X137486853Y-37941719D01*
X137582091Y-37846481D01*
X137724948Y-37798861D01*
X137820186Y-37798861D01*
X137963043Y-37846481D01*
X138010662Y-37894100D01*
X138391615Y-37894100D02*
X138439234Y-37846481D01*
X138534472Y-37798861D01*
X138772567Y-37798861D01*
X138867805Y-37846481D01*
X138915424Y-37894100D01*
X138963043Y-37989338D01*
X138963043Y-38084576D01*
X138915424Y-38227433D01*
X138343996Y-38798861D01*
X138963043Y-38798861D01*
X139915424Y-38798861D02*
X139343996Y-38798861D01*
X139629710Y-38798861D02*
X139629710Y-37798861D01*
X139534472Y-37941719D01*
X139439234Y-38036957D01*
X139343996Y-38084576D01*
X178405900Y-49513146D02*
X177929710Y-49846480D01*
X178405900Y-50084575D02*
X177405900Y-50084575D01*
X177405900Y-49703622D01*
X177453520Y-49608384D01*
X177501139Y-49560765D01*
X177596377Y-49513146D01*
X177739234Y-49513146D01*
X177834472Y-49560765D01*
X177882091Y-49608384D01*
X177929710Y-49703622D01*
X177929710Y-50084575D01*
X177405900Y-49179813D02*
X177405900Y-48560765D01*
X177786853Y-48894099D01*
X177786853Y-48751241D01*
X177834472Y-48656003D01*
X177882091Y-48608384D01*
X177977329Y-48560765D01*
X178215424Y-48560765D01*
X178310662Y-48608384D01*
X178358281Y-48656003D01*
X178405900Y-48751241D01*
X178405900Y-49036956D01*
X178358281Y-49132194D01*
X178310662Y-49179813D01*
X99310662Y-49498860D02*
X98977329Y-49022670D01*
X98739234Y-49498860D02*
X98739234Y-48498860D01*
X99120186Y-48498860D01*
X99215424Y-48546480D01*
X99263043Y-48594099D01*
X99310662Y-48689337D01*
X99310662Y-48832194D01*
X99263043Y-48927432D01*
X99215424Y-48975051D01*
X99120186Y-49022670D01*
X98739234Y-49022670D01*
X100263043Y-49498860D02*
X99691615Y-49498860D01*
X99977329Y-49498860D02*
X99977329Y-48498860D01*
X99882091Y-48641718D01*
X99786853Y-48736956D01*
X99691615Y-48784575D01*
X100596377Y-48498860D02*
X101263043Y-48498860D01*
X100834472Y-49498860D01*
X147210406Y-36704035D02*
X147261994Y-36747323D01*
X147321883Y-36885486D01*
X147330183Y-36980362D01*
X147295196Y-37126826D01*
X147208621Y-37230002D01*
X147117896Y-37285740D01*
X146932295Y-37349779D01*
X146789981Y-37362230D01*
X146596079Y-37331393D01*
X146497054Y-37292256D01*
X146393877Y-37205681D01*
X146333989Y-37067518D01*
X146325688Y-36972642D01*
X146360675Y-36826178D01*
X146403963Y-36774590D01*
X146280035Y-36450826D02*
X146226082Y-35834134D01*
X146634636Y-36132996D01*
X146622185Y-35990683D01*
X146661323Y-35891657D01*
X146704610Y-35840069D01*
X146795336Y-35784330D01*
X147032525Y-35763579D01*
X147131551Y-35802716D01*
X147183139Y-35846004D01*
X147238877Y-35936729D01*
X147263779Y-36221356D01*
X147224642Y-36320382D01*
X147181354Y-36371970D01*
X147139271Y-34798221D02*
X147189074Y-35367475D01*
X147164172Y-35082848D02*
X146167978Y-35170004D01*
X146318592Y-35252429D01*
X146421768Y-35339004D01*
X146477506Y-35429729D01*
X166586853Y-59898860D02*
X166253520Y-59422670D01*
X166015424Y-59898860D02*
X166015424Y-58898860D01*
X166396377Y-58898860D01*
X166491615Y-58946480D01*
X166539234Y-58994099D01*
X166586853Y-59089337D01*
X166586853Y-59232194D01*
X166539234Y-59327432D01*
X166491615Y-59375051D01*
X166396377Y-59422670D01*
X166015424Y-59422670D01*
X167539234Y-59898860D02*
X166967805Y-59898860D01*
X167253520Y-59898860D02*
X167253520Y-58898860D01*
X167158281Y-59041718D01*
X167063043Y-59136956D01*
X166967805Y-59184575D01*
X94358281Y-38494099D02*
X94263043Y-38446480D01*
X94167805Y-38351241D01*
X94024948Y-38208384D01*
X93929710Y-38160765D01*
X93834472Y-38160765D01*
X93882091Y-38398860D02*
X93786853Y-38351241D01*
X93691615Y-38256003D01*
X93643996Y-38065527D01*
X93643996Y-37732194D01*
X93691615Y-37541718D01*
X93786853Y-37446480D01*
X93882091Y-37398860D01*
X94072567Y-37398860D01*
X94167805Y-37446480D01*
X94263043Y-37541718D01*
X94310662Y-37732194D01*
X94310662Y-38065527D01*
X94263043Y-38256003D01*
X94167805Y-38351241D01*
X94072567Y-38398860D01*
X93882091Y-38398860D01*
X94691615Y-37494099D02*
X94739234Y-37446480D01*
X94834472Y-37398860D01*
X95072567Y-37398860D01*
X95167805Y-37446480D01*
X95215424Y-37494099D01*
X95263043Y-37589337D01*
X95263043Y-37684575D01*
X95215424Y-37827432D01*
X94643996Y-38398860D01*
X95263043Y-38398860D01*
X143385662Y-57048860D02*
X143052329Y-56572670D01*
X142814234Y-57048860D02*
X142814234Y-56048860D01*
X143195186Y-56048860D01*
X143290424Y-56096480D01*
X143338043Y-56144099D01*
X143385662Y-56239337D01*
X143385662Y-56382194D01*
X143338043Y-56477432D01*
X143290424Y-56525051D01*
X143195186Y-56572670D01*
X142814234Y-56572670D01*
X144338043Y-57048860D02*
X143766615Y-57048860D01*
X144052329Y-57048860D02*
X144052329Y-56048860D01*
X143957091Y-56191718D01*
X143861853Y-56286956D01*
X143766615Y-56334575D01*
X144671377Y-56048860D02*
X145290424Y-56048860D01*
X144957091Y-56429813D01*
X145099948Y-56429813D01*
X145195186Y-56477432D01*
X145242805Y-56525051D01*
X145290424Y-56620289D01*
X145290424Y-56858384D01*
X145242805Y-56953622D01*
X145195186Y-57001241D01*
X145099948Y-57048860D01*
X144814234Y-57048860D01*
X144718996Y-57001241D01*
X144671377Y-56953622D01*
X138010662Y-40603622D02*
X137963043Y-40651241D01*
X137820186Y-40698860D01*
X137724948Y-40698860D01*
X137582091Y-40651241D01*
X137486853Y-40556003D01*
X137439234Y-40460765D01*
X137391615Y-40270289D01*
X137391615Y-40127432D01*
X137439234Y-39936956D01*
X137486853Y-39841718D01*
X137582091Y-39746480D01*
X137724948Y-39698860D01*
X137820186Y-39698860D01*
X137963043Y-39746480D01*
X138010662Y-39794099D01*
X138391615Y-39794099D02*
X138439234Y-39746480D01*
X138534472Y-39698860D01*
X138772567Y-39698860D01*
X138867805Y-39746480D01*
X138915424Y-39794099D01*
X138963043Y-39889337D01*
X138963043Y-39984575D01*
X138915424Y-40127432D01*
X138343996Y-40698860D01*
X138963043Y-40698860D01*
X139343996Y-39794099D02*
X139391615Y-39746480D01*
X139486853Y-39698860D01*
X139724948Y-39698860D01*
X139820186Y-39746480D01*
X139867805Y-39794099D01*
X139915424Y-39889337D01*
X139915424Y-39984575D01*
X139867805Y-40127432D01*
X139296377Y-40698860D01*
X139915424Y-40698860D01*
X161191615Y-47198859D02*
X161191615Y-48008383D01*
X161239234Y-48103621D01*
X161286853Y-48151240D01*
X161382091Y-48198859D01*
X161572567Y-48198859D01*
X161667805Y-48151240D01*
X161715424Y-48103621D01*
X161763043Y-48008383D01*
X161763043Y-47198859D01*
X162143996Y-47198859D02*
X162763043Y-47198859D01*
X162429710Y-47579812D01*
X162572567Y-47579812D01*
X162667805Y-47627431D01*
X162715424Y-47675050D01*
X162763043Y-47770288D01*
X162763043Y-48008383D01*
X162715424Y-48103621D01*
X162667805Y-48151240D01*
X162572567Y-48198859D01*
X162286853Y-48198859D01*
X162191615Y-48151240D01*
X162143996Y-48103621D01*
X81403711Y-37768173D02*
X81204983Y-37221936D01*
X80851754Y-37620277D02*
X81110573Y-36654351D01*
X81478545Y-36752949D01*
X81558213Y-36823594D01*
X81591885Y-36881916D01*
X81613232Y-36986233D01*
X81576257Y-37124223D01*
X81505612Y-37203891D01*
X81447290Y-37237563D01*
X81342973Y-37258910D01*
X80975001Y-37160312D01*
X82323641Y-38014668D02*
X81771683Y-37866771D01*
X82047662Y-37940719D02*
X82306481Y-36974793D01*
X82177514Y-37088133D01*
X82060872Y-37155477D01*
X81956554Y-37176824D01*
X83456393Y-37282911D02*
X82996428Y-37159664D01*
X82827184Y-37607304D01*
X82885506Y-37573632D01*
X82989823Y-37552285D01*
X83219806Y-37613909D01*
X83299474Y-37684555D01*
X83333146Y-37742876D01*
X83354493Y-37847194D01*
X83292869Y-38077176D01*
X83222223Y-38156844D01*
X83163902Y-38190516D01*
X83059584Y-38211863D01*
X82829602Y-38150239D01*
X82749934Y-38079594D01*
X82716262Y-38021272D01*
X162310662Y-43089336D02*
X162358281Y-43136955D01*
X162405900Y-43279812D01*
X162405900Y-43375050D01*
X162358281Y-43517907D01*
X162263043Y-43613145D01*
X162167805Y-43660764D01*
X161977329Y-43708383D01*
X161834472Y-43708383D01*
X161643996Y-43660764D01*
X161548758Y-43613145D01*
X161453520Y-43517907D01*
X161405900Y-43375050D01*
X161405900Y-43279812D01*
X161453520Y-43136955D01*
X161501139Y-43089336D01*
X162405900Y-42136955D02*
X162405900Y-42708383D01*
X162405900Y-42422669D02*
X161405900Y-42422669D01*
X161548758Y-42517907D01*
X161643996Y-42613145D01*
X161691615Y-42708383D01*
X161405900Y-41232193D02*
X161405900Y-41708383D01*
X161882091Y-41756002D01*
X161834472Y-41708383D01*
X161786853Y-41613145D01*
X161786853Y-41375050D01*
X161834472Y-41279812D01*
X161882091Y-41232193D01*
X161977329Y-41184574D01*
X162215424Y-41184574D01*
X162310662Y-41232193D01*
X162358281Y-41279812D01*
X162405900Y-41375050D01*
X162405900Y-41613145D01*
X162358281Y-41708383D01*
X162310662Y-41756002D01*
X224739234Y-46298860D02*
X224739234Y-45298860D01*
X224977329Y-45298860D01*
X225120186Y-45346480D01*
X225215424Y-45441718D01*
X225263043Y-45536956D01*
X225310662Y-45727432D01*
X225310662Y-45870289D01*
X225263043Y-46060765D01*
X225215424Y-46156003D01*
X225120186Y-46251241D01*
X224977329Y-46298860D01*
X224739234Y-46298860D01*
X226263043Y-46298860D02*
X225691615Y-46298860D01*
X225977329Y-46298860D02*
X225977329Y-45298860D01*
X225882091Y-45441718D01*
X225786853Y-45536956D01*
X225691615Y-45584575D01*
X226596377Y-45298860D02*
X227215424Y-45298860D01*
X226882091Y-45679813D01*
X227024948Y-45679813D01*
X227120186Y-45727432D01*
X227167805Y-45775051D01*
X227215424Y-45870289D01*
X227215424Y-46108384D01*
X227167805Y-46203622D01*
X227120186Y-46251241D01*
X227024948Y-46298860D01*
X226739234Y-46298860D01*
X226643996Y-46251241D01*
X226596377Y-46203622D01*
D12*
X225418653Y-41725051D02*
X225606153Y-40225051D01*
X226275796Y-41725051D02*
X225740082Y-40867908D01*
X226463296Y-40225051D02*
X225499011Y-41082194D01*
D11*
X170786853Y-46653621D02*
X170739234Y-46701240D01*
X170596377Y-46748859D01*
X170501139Y-46748859D01*
X170358281Y-46701240D01*
X170263043Y-46606002D01*
X170215424Y-46510764D01*
X170167805Y-46320288D01*
X170167805Y-46177431D01*
X170215424Y-45986955D01*
X170263043Y-45891717D01*
X170358281Y-45796479D01*
X170501139Y-45748859D01*
X170596377Y-45748859D01*
X170739234Y-45796479D01*
X170786853Y-45844098D01*
X171263043Y-46748859D02*
X171453520Y-46748859D01*
X171548758Y-46701240D01*
X171596377Y-46653621D01*
X171691615Y-46510764D01*
X171739234Y-46320288D01*
X171739234Y-45939336D01*
X171691615Y-45844098D01*
X171643996Y-45796479D01*
X171548758Y-45748859D01*
X171358281Y-45748859D01*
X171263043Y-45796479D01*
X171215424Y-45844098D01*
X171167805Y-45939336D01*
X171167805Y-46177431D01*
X171215424Y-46272669D01*
X171263043Y-46320288D01*
X171358281Y-46367907D01*
X171548758Y-46367907D01*
X171643996Y-46320288D01*
X171691615Y-46272669D01*
X171739234Y-46177431D01*
X139585662Y-30728860D02*
X139109472Y-30728860D01*
X139109472Y-29728860D01*
X139871377Y-30681241D02*
X140014234Y-30728860D01*
X140252329Y-30728860D01*
X140347567Y-30681241D01*
X140395186Y-30633622D01*
X140442805Y-30538384D01*
X140442805Y-30443146D01*
X140395186Y-30347908D01*
X140347567Y-30300289D01*
X140252329Y-30252670D01*
X140061853Y-30205051D01*
X139966615Y-30157432D01*
X139918996Y-30109813D01*
X139871377Y-30014575D01*
X139871377Y-29919337D01*
X139918996Y-29824099D01*
X139966615Y-29776480D01*
X140061853Y-29728860D01*
X140299948Y-29728860D01*
X140442805Y-29776480D01*
X141395186Y-30728860D02*
X140823758Y-30728860D01*
X141109472Y-30728860D02*
X141109472Y-29728860D01*
X141014234Y-29871718D01*
X140918996Y-29966956D01*
X140823758Y-30014575D01*
X90405900Y-53689337D02*
X89929710Y-54022670D01*
X90405900Y-54260765D02*
X89405900Y-54260765D01*
X89405900Y-53879813D01*
X89453520Y-53784575D01*
X89501139Y-53736956D01*
X89596377Y-53689337D01*
X89739234Y-53689337D01*
X89834472Y-53736956D01*
X89882091Y-53784575D01*
X89929710Y-53879813D01*
X89929710Y-54260765D01*
X89501139Y-53308384D02*
X89453520Y-53260765D01*
X89405900Y-53165527D01*
X89405900Y-52927432D01*
X89453520Y-52832194D01*
X89501139Y-52784575D01*
X89596377Y-52736956D01*
X89691615Y-52736956D01*
X89834472Y-52784575D01*
X90405900Y-53356003D01*
X90405900Y-52736956D01*
X89405900Y-52403622D02*
X89405900Y-51784575D01*
X89786853Y-52117908D01*
X89786853Y-51975051D01*
X89834472Y-51879813D01*
X89882091Y-51832194D01*
X89977329Y-51784575D01*
X90215424Y-51784575D01*
X90310662Y-51832194D01*
X90358281Y-51879813D01*
X90405900Y-51975051D01*
X90405900Y-52260765D01*
X90358281Y-52356003D01*
X90310662Y-52403622D01*
X171516615Y-57593861D02*
X171516615Y-58403385D01*
X171564234Y-58498623D01*
X171611853Y-58546242D01*
X171707091Y-58593861D01*
X171897567Y-58593861D01*
X171992805Y-58546242D01*
X172040424Y-58498623D01*
X172088043Y-58403385D01*
X172088043Y-57593861D01*
X172516615Y-57689100D02*
X172564234Y-57641481D01*
X172659472Y-57593861D01*
X172897567Y-57593861D01*
X172992805Y-57641481D01*
X173040424Y-57689100D01*
X173088043Y-57784338D01*
X173088043Y-57879576D01*
X173040424Y-58022433D01*
X172468996Y-58593861D01*
X173088043Y-58593861D01*
X177147791Y-34391932D02*
X177199379Y-34435220D01*
X177259268Y-34573383D01*
X177267568Y-34668259D01*
X177232581Y-34814723D01*
X177146006Y-34917899D01*
X177055281Y-34973637D01*
X176869680Y-35037676D01*
X176727366Y-35050127D01*
X176533464Y-35019290D01*
X176434439Y-34980153D01*
X176331262Y-34893578D01*
X176271374Y-34755415D01*
X176263073Y-34660539D01*
X176298060Y-34514075D01*
X176341348Y-34462487D01*
X176308145Y-34082984D02*
X176256557Y-34039697D01*
X176200819Y-33948971D01*
X176180068Y-33711782D01*
X176219205Y-33612756D01*
X176262492Y-33561168D01*
X176353218Y-33505430D01*
X176448094Y-33497129D01*
X176594557Y-33532116D01*
X177213615Y-34051567D01*
X177159661Y-33434875D01*
X177118158Y-32960496D02*
X177101557Y-32770745D01*
X177045819Y-32680020D01*
X176994231Y-32636732D01*
X176843617Y-32554307D01*
X176649715Y-32523471D01*
X176270212Y-32556673D01*
X176179487Y-32612411D01*
X176136199Y-32663999D01*
X176097062Y-32763025D01*
X176113663Y-32952777D01*
X176169402Y-33043502D01*
X176220990Y-33086790D01*
X176320016Y-33125927D01*
X176557205Y-33105175D01*
X176647930Y-33049437D01*
X176691218Y-32997849D01*
X176730355Y-32898823D01*
X176713754Y-32709072D01*
X176658016Y-32618346D01*
X176606428Y-32575059D01*
X176507402Y-32535921D01*
X200905900Y-58439337D02*
X200429710Y-58772670D01*
X200905900Y-59010765D02*
X199905900Y-59010765D01*
X199905900Y-58629813D01*
X199953520Y-58534575D01*
X200001139Y-58486956D01*
X200096377Y-58439337D01*
X200239234Y-58439337D01*
X200334472Y-58486956D01*
X200382091Y-58534575D01*
X200429710Y-58629813D01*
X200429710Y-59010765D01*
X199905900Y-58106003D02*
X199905900Y-57486956D01*
X200286853Y-57820289D01*
X200286853Y-57677432D01*
X200334472Y-57582194D01*
X200382091Y-57534575D01*
X200477329Y-57486956D01*
X200715424Y-57486956D01*
X200810662Y-57534575D01*
X200858281Y-57582194D01*
X200905900Y-57677432D01*
X200905900Y-57963146D01*
X200858281Y-58058384D01*
X200810662Y-58106003D01*
X200905900Y-56534575D02*
X200905900Y-57106003D01*
X200905900Y-56820289D02*
X199905900Y-56820289D01*
X200048758Y-56915527D01*
X200143996Y-57010765D01*
X200191615Y-57106003D01*
X191954869Y-33095714D02*
X192006457Y-33139002D01*
X192066346Y-33277165D01*
X192074646Y-33372041D01*
X192039659Y-33518505D01*
X191953084Y-33621681D01*
X191862359Y-33677419D01*
X191676758Y-33741458D01*
X191534444Y-33753909D01*
X191340542Y-33723072D01*
X191241517Y-33683935D01*
X191138340Y-33597360D01*
X191078452Y-33459197D01*
X191070151Y-33364321D01*
X191105138Y-33217857D01*
X191148426Y-33166269D01*
X191115223Y-32786766D02*
X191063635Y-32743479D01*
X191007897Y-32652753D01*
X190987146Y-32415564D01*
X191026283Y-32316538D01*
X191069570Y-32264950D01*
X191160296Y-32209212D01*
X191255172Y-32200911D01*
X191401635Y-32235898D01*
X192020693Y-32755349D01*
X191966739Y-32138657D01*
X191347682Y-31619206D02*
X191308545Y-31718232D01*
X191265257Y-31769820D01*
X191174532Y-31825559D01*
X191127094Y-31829709D01*
X191028068Y-31790572D01*
X190976480Y-31747284D01*
X190920741Y-31656559D01*
X190904140Y-31466807D01*
X190943277Y-31367781D01*
X190986565Y-31316193D01*
X191077290Y-31260455D01*
X191124728Y-31256304D01*
X191223754Y-31295442D01*
X191275342Y-31338729D01*
X191331081Y-31429455D01*
X191347682Y-31619206D01*
X191403420Y-31709932D01*
X191455008Y-31753219D01*
X191554034Y-31792356D01*
X191743786Y-31775755D01*
X191834511Y-31720017D01*
X191877799Y-31668429D01*
X191916936Y-31569403D01*
X191900335Y-31379651D01*
X191844596Y-31288926D01*
X191793008Y-31245638D01*
X191693982Y-31206501D01*
X191504231Y-31223102D01*
X191413506Y-31278841D01*
X191370218Y-31330429D01*
X191331081Y-31429455D01*
X181005900Y-67213146D02*
X180529710Y-67546480D01*
X181005900Y-67784575D02*
X180005900Y-67784575D01*
X180005900Y-67403622D01*
X180053520Y-67308384D01*
X180101139Y-67260765D01*
X180196377Y-67213146D01*
X180339234Y-67213146D01*
X180434472Y-67260765D01*
X180482091Y-67308384D01*
X180529710Y-67403622D01*
X180529710Y-67784575D01*
X181005900Y-66736956D02*
X181005900Y-66546480D01*
X180958281Y-66451241D01*
X180910662Y-66403622D01*
X180767805Y-66308384D01*
X180577329Y-66260765D01*
X180196377Y-66260765D01*
X180101139Y-66308384D01*
X180053520Y-66356003D01*
X180005900Y-66451241D01*
X180005900Y-66641718D01*
X180053520Y-66736956D01*
X180101139Y-66784575D01*
X180196377Y-66832194D01*
X180434472Y-66832194D01*
X180529710Y-66784575D01*
X180577329Y-66736956D01*
X180624948Y-66641718D01*
X180624948Y-66451241D01*
X180577329Y-66356003D01*
X180529710Y-66308384D01*
X180434472Y-66260765D01*
X136386853Y-44703622D02*
X136339234Y-44751241D01*
X136196377Y-44798860D01*
X136101139Y-44798860D01*
X135958281Y-44751241D01*
X135863043Y-44656003D01*
X135815424Y-44560765D01*
X135767805Y-44370289D01*
X135767805Y-44227432D01*
X135815424Y-44036956D01*
X135863043Y-43941718D01*
X135958281Y-43846480D01*
X136101139Y-43798860D01*
X136196377Y-43798860D01*
X136339234Y-43846480D01*
X136386853Y-43894099D01*
X136720186Y-43798860D02*
X137386853Y-43798860D01*
X136958281Y-44798860D01*
X170510662Y-54713145D02*
X170558281Y-54760764D01*
X170605900Y-54903621D01*
X170605900Y-54998859D01*
X170558281Y-55141717D01*
X170463043Y-55236955D01*
X170367805Y-55284574D01*
X170177329Y-55332193D01*
X170034472Y-55332193D01*
X169843996Y-55284574D01*
X169748758Y-55236955D01*
X169653520Y-55141717D01*
X169605900Y-54998859D01*
X169605900Y-54903621D01*
X169653520Y-54760764D01*
X169701139Y-54713145D01*
X169605900Y-54379812D02*
X169605900Y-53760764D01*
X169986853Y-54094098D01*
X169986853Y-53951240D01*
X170034472Y-53856002D01*
X170082091Y-53808383D01*
X170177329Y-53760764D01*
X170415424Y-53760764D01*
X170510662Y-53808383D01*
X170558281Y-53856002D01*
X170605900Y-53951240D01*
X170605900Y-54236955D01*
X170558281Y-54332193D01*
X170510662Y-54379812D01*
X170786853Y-44998859D02*
X170453520Y-44522669D01*
X170215424Y-44998859D02*
X170215424Y-43998859D01*
X170596377Y-43998859D01*
X170691615Y-44046479D01*
X170739234Y-44094098D01*
X170786853Y-44189336D01*
X170786853Y-44332193D01*
X170739234Y-44427431D01*
X170691615Y-44475050D01*
X170596377Y-44522669D01*
X170215424Y-44522669D01*
X171691615Y-43998859D02*
X171215424Y-43998859D01*
X171167805Y-44475050D01*
X171215424Y-44427431D01*
X171310662Y-44379812D01*
X171548758Y-44379812D01*
X171643996Y-44427431D01*
X171691615Y-44475050D01*
X171739234Y-44570288D01*
X171739234Y-44808383D01*
X171691615Y-44903621D01*
X171643996Y-44951240D01*
X171548758Y-44998859D01*
X171310662Y-44998859D01*
X171215424Y-44951240D01*
X171167805Y-44903621D01*
X148605900Y-52513146D02*
X148129710Y-52846480D01*
X148605900Y-53084575D02*
X147605900Y-53084575D01*
X147605900Y-52703622D01*
X147653520Y-52608384D01*
X147701139Y-52560765D01*
X147796377Y-52513146D01*
X147939234Y-52513146D01*
X148034472Y-52560765D01*
X148082091Y-52608384D01*
X148129710Y-52703622D01*
X148129710Y-53084575D01*
X147605900Y-52179813D02*
X147605900Y-51513146D01*
X148605900Y-51941718D01*
X190905900Y-44689337D02*
X190429710Y-45022670D01*
X190905900Y-45260765D02*
X189905900Y-45260765D01*
X189905900Y-44879813D01*
X189953520Y-44784575D01*
X190001139Y-44736956D01*
X190096377Y-44689337D01*
X190239234Y-44689337D01*
X190334472Y-44736956D01*
X190382091Y-44784575D01*
X190429710Y-44879813D01*
X190429710Y-45260765D01*
X190001139Y-44308384D02*
X189953520Y-44260765D01*
X189905900Y-44165527D01*
X189905900Y-43927432D01*
X189953520Y-43832194D01*
X190001139Y-43784575D01*
X190096377Y-43736956D01*
X190191615Y-43736956D01*
X190334472Y-43784575D01*
X190905900Y-44356003D01*
X190905900Y-43736956D01*
X190905900Y-43260765D02*
X190905900Y-43070289D01*
X190858281Y-42975051D01*
X190810662Y-42927432D01*
X190667805Y-42832194D01*
X190477329Y-42784575D01*
X190096377Y-42784575D01*
X190001139Y-42832194D01*
X189953520Y-42879813D01*
X189905900Y-42975051D01*
X189905900Y-43165527D01*
X189953520Y-43260765D01*
X190001139Y-43308384D01*
X190096377Y-43356003D01*
X190334472Y-43356003D01*
X190429710Y-43308384D01*
X190477329Y-43260765D01*
X190524948Y-43165527D01*
X190524948Y-42975051D01*
X190477329Y-42879813D01*
X190429710Y-42832194D01*
X190334472Y-42784575D01*
X85691615Y-40598860D02*
X85691615Y-41408384D01*
X85739234Y-41503622D01*
X85786853Y-41551241D01*
X85882091Y-41598860D01*
X86072567Y-41598860D01*
X86167805Y-41551241D01*
X86215424Y-41503622D01*
X86263043Y-41408384D01*
X86263043Y-40598860D01*
X86882091Y-41027432D02*
X86786853Y-40979813D01*
X86739234Y-40932194D01*
X86691615Y-40836956D01*
X86691615Y-40789337D01*
X86739234Y-40694099D01*
X86786853Y-40646480D01*
X86882091Y-40598860D01*
X87072567Y-40598860D01*
X87167805Y-40646480D01*
X87215424Y-40694099D01*
X87263043Y-40789337D01*
X87263043Y-40836956D01*
X87215424Y-40932194D01*
X87167805Y-40979813D01*
X87072567Y-41027432D01*
X86882091Y-41027432D01*
X86786853Y-41075051D01*
X86739234Y-41122670D01*
X86691615Y-41217908D01*
X86691615Y-41408384D01*
X86739234Y-41503622D01*
X86786853Y-41551241D01*
X86882091Y-41598860D01*
X87072567Y-41598860D01*
X87167805Y-41551241D01*
X87215424Y-41503622D01*
X87263043Y-41408384D01*
X87263043Y-41217908D01*
X87215424Y-41122670D01*
X87167805Y-41075051D01*
X87072567Y-41027432D01*
X196715424Y-36998860D02*
X196715424Y-37808384D01*
X196763043Y-37903622D01*
X196810662Y-37951241D01*
X196905900Y-37998860D01*
X197096377Y-37998860D01*
X197191615Y-37951241D01*
X197239234Y-37903622D01*
X197286853Y-37808384D01*
X197286853Y-36998860D01*
X198286853Y-37998860D02*
X197715424Y-37998860D01*
X198001139Y-37998860D02*
X198001139Y-36998860D01*
X197905900Y-37141718D01*
X197810662Y-37236956D01*
X197715424Y-37284575D01*
X199239234Y-37998860D02*
X198667805Y-37998860D01*
X198953520Y-37998860D02*
X198953520Y-36998860D01*
X198858281Y-37141718D01*
X198763043Y-37236956D01*
X198667805Y-37284575D01*
X162267486Y-35511371D02*
X162319074Y-35554659D01*
X162378963Y-35692822D01*
X162387263Y-35787698D01*
X162352276Y-35934162D01*
X162265701Y-36037338D01*
X162174976Y-36093076D01*
X161989375Y-36157115D01*
X161847061Y-36169566D01*
X161653159Y-36138729D01*
X161554134Y-36099592D01*
X161450957Y-36013017D01*
X161391069Y-35874854D01*
X161382768Y-35779978D01*
X161417755Y-35633514D01*
X161461043Y-35581926D01*
X161337115Y-35258162D02*
X161283162Y-34641470D01*
X161691716Y-34940332D01*
X161679265Y-34798019D01*
X161718403Y-34698993D01*
X161761690Y-34647405D01*
X161852416Y-34591666D01*
X162089605Y-34570915D01*
X162188631Y-34610052D01*
X162240219Y-34653340D01*
X162295957Y-34744065D01*
X162320859Y-35028692D01*
X162281722Y-35127718D01*
X162238434Y-35179306D01*
X161229208Y-34024778D02*
X161220907Y-33929902D01*
X161260045Y-33830876D01*
X161303332Y-33779288D01*
X161394058Y-33723550D01*
X161579659Y-33659511D01*
X161816848Y-33638759D01*
X162010750Y-33669596D01*
X162109776Y-33708733D01*
X162161364Y-33752021D01*
X162217102Y-33842746D01*
X162225403Y-33937622D01*
X162186265Y-34036648D01*
X162142978Y-34088236D01*
X162052252Y-34143974D01*
X161866651Y-34208013D01*
X161629462Y-34228765D01*
X161435560Y-34197928D01*
X161336534Y-34158791D01*
X161284946Y-34115503D01*
X161229208Y-34024778D01*
X122376858Y-35074597D02*
X123185611Y-35109908D01*
X123282836Y-35066489D01*
X123332487Y-35020992D01*
X123384215Y-34927922D01*
X123392523Y-34737627D01*
X123349103Y-34640402D01*
X123303607Y-34590751D01*
X123210537Y-34539024D01*
X122401783Y-34503713D01*
X122418400Y-34123123D02*
X122447480Y-33457091D01*
X123427834Y-33928874D01*
X166919095Y-32403655D02*
X166831939Y-31407461D01*
X167069128Y-31386709D01*
X167215592Y-31421696D01*
X167318768Y-31508271D01*
X167374506Y-31598997D01*
X167438545Y-31784598D01*
X167450996Y-31926911D01*
X167420159Y-32120813D01*
X167381022Y-32219839D01*
X167294447Y-32323015D01*
X167156284Y-32382904D01*
X166919095Y-32403655D01*
X168302512Y-31278802D02*
X167828133Y-31320305D01*
X167822198Y-31798834D01*
X167865486Y-31747245D01*
X167956211Y-31691507D01*
X168193401Y-31670756D01*
X168292427Y-31709893D01*
X168344015Y-31753180D01*
X168399753Y-31843906D01*
X168420504Y-32081095D01*
X168381367Y-32180121D01*
X168338080Y-32231709D01*
X168247354Y-32287448D01*
X168010165Y-32308199D01*
X167911139Y-32269062D01*
X167859551Y-32225774D01*
X167108409Y-34294349D02*
X166539155Y-34344153D01*
X166823782Y-34319251D02*
X166736626Y-33323056D01*
X166654201Y-33473670D01*
X166567626Y-33576847D01*
X166476901Y-33632585D01*
X133586855Y-44703622D02*
X133539236Y-44751241D01*
X133396379Y-44798860D01*
X133301141Y-44798860D01*
X133158283Y-44751241D01*
X133063045Y-44656003D01*
X133015426Y-44560765D01*
X132967807Y-44370289D01*
X132967807Y-44227432D01*
X133015426Y-44036956D01*
X133063045Y-43941718D01*
X133158283Y-43846480D01*
X133301141Y-43798860D01*
X133396379Y-43798860D01*
X133539236Y-43846480D01*
X133586855Y-43894099D01*
X134443998Y-43798860D02*
X134253522Y-43798860D01*
X134158283Y-43846480D01*
X134110664Y-43894099D01*
X134015426Y-44036956D01*
X133967807Y-44227432D01*
X133967807Y-44608384D01*
X134015426Y-44703622D01*
X134063045Y-44751241D01*
X134158283Y-44798860D01*
X134348760Y-44798860D01*
X134443998Y-44751241D01*
X134491617Y-44703622D01*
X134539236Y-44608384D01*
X134539236Y-44370289D01*
X134491617Y-44275051D01*
X134443998Y-44227432D01*
X134348760Y-44179813D01*
X134158283Y-44179813D01*
X134063045Y-44227432D01*
X134015426Y-44275051D01*
X133967807Y-44370289D01*
X209858281Y-37094099D02*
X209763043Y-37046480D01*
X209667805Y-36951241D01*
X209524948Y-36808384D01*
X209429710Y-36760765D01*
X209334472Y-36760765D01*
X209382091Y-36998860D02*
X209286853Y-36951241D01*
X209191615Y-36856003D01*
X209143996Y-36665527D01*
X209143996Y-36332194D01*
X209191615Y-36141718D01*
X209286853Y-36046480D01*
X209382091Y-35998860D01*
X209572567Y-35998860D01*
X209667805Y-36046480D01*
X209763043Y-36141718D01*
X209810662Y-36332194D01*
X209810662Y-36665527D01*
X209763043Y-36856003D01*
X209667805Y-36951241D01*
X209572567Y-36998860D01*
X209382091Y-36998860D01*
X210667805Y-36332194D02*
X210667805Y-36998860D01*
X210429710Y-35951241D02*
X210191615Y-36665527D01*
X210810662Y-36665527D01*
X165786853Y-54998860D02*
X165310662Y-54998860D01*
X165310662Y-53998860D01*
X166643996Y-54998860D02*
X166072567Y-54998860D01*
X166358281Y-54998860D02*
X166358281Y-53998860D01*
X166263043Y-54141718D01*
X166167805Y-54236956D01*
X166072567Y-54284575D01*
X91691615Y-40698860D02*
X91691615Y-41508384D01*
X91739234Y-41603622D01*
X91786853Y-41651241D01*
X91882091Y-41698860D01*
X92072567Y-41698860D01*
X92167805Y-41651241D01*
X92215424Y-41603622D01*
X92263043Y-41508384D01*
X92263043Y-40698860D01*
X92786853Y-41698860D02*
X92977329Y-41698860D01*
X93072567Y-41651241D01*
X93120186Y-41603622D01*
X93215424Y-41460765D01*
X93263043Y-41270289D01*
X93263043Y-40889337D01*
X93215424Y-40794099D01*
X93167805Y-40746480D01*
X93072567Y-40698860D01*
X92882091Y-40698860D01*
X92786853Y-40746480D01*
X92739234Y-40794099D01*
X92691615Y-40889337D01*
X92691615Y-41127432D01*
X92739234Y-41222670D01*
X92786853Y-41270289D01*
X92882091Y-41317908D01*
X93072567Y-41317908D01*
X93167805Y-41270289D01*
X93215424Y-41222670D01*
X93263043Y-41127432D01*
X162310662Y-56689337D02*
X162358281Y-56736956D01*
X162405900Y-56879813D01*
X162405900Y-56975051D01*
X162358281Y-57117908D01*
X162263043Y-57213146D01*
X162167805Y-57260765D01*
X161977329Y-57308384D01*
X161834472Y-57308384D01*
X161643996Y-57260765D01*
X161548758Y-57213146D01*
X161453520Y-57117908D01*
X161405900Y-56975051D01*
X161405900Y-56879813D01*
X161453520Y-56736956D01*
X161501139Y-56689337D01*
X162405900Y-55736956D02*
X162405900Y-56308384D01*
X162405900Y-56022670D02*
X161405900Y-56022670D01*
X161548758Y-56117908D01*
X161643996Y-56213146D01*
X161691615Y-56308384D01*
X161405900Y-54879813D02*
X161405900Y-55070289D01*
X161453520Y-55165527D01*
X161501139Y-55213146D01*
X161643996Y-55308384D01*
X161834472Y-55356003D01*
X162215424Y-55356003D01*
X162310662Y-55308384D01*
X162358281Y-55260765D01*
X162405900Y-55165527D01*
X162405900Y-54975051D01*
X162358281Y-54879813D01*
X162310662Y-54832194D01*
X162215424Y-54784575D01*
X161977329Y-54784575D01*
X161882091Y-54832194D01*
X161834472Y-54879813D01*
X161786853Y-54975051D01*
X161786853Y-55165527D01*
X161834472Y-55260765D01*
X161882091Y-55308384D01*
X161977329Y-55356003D01*
X180905900Y-57713146D02*
X180429710Y-58046480D01*
X180905900Y-58284575D02*
X179905900Y-58284575D01*
X179905900Y-57903622D01*
X179953520Y-57808384D01*
X180001139Y-57760765D01*
X180096377Y-57713146D01*
X180239234Y-57713146D01*
X180334472Y-57760765D01*
X180382091Y-57808384D01*
X180429710Y-57903622D01*
X180429710Y-58284575D01*
X180001139Y-57332194D02*
X179953520Y-57284575D01*
X179905900Y-57189337D01*
X179905900Y-56951241D01*
X179953520Y-56856003D01*
X180001139Y-56808384D01*
X180096377Y-56760765D01*
X180191615Y-56760765D01*
X180334472Y-56808384D01*
X180905900Y-57379813D01*
X180905900Y-56760765D01*
X191310662Y-37903622D02*
X191263043Y-37951241D01*
X191120186Y-37998860D01*
X191024948Y-37998860D01*
X190882091Y-37951241D01*
X190786853Y-37856003D01*
X190739234Y-37760765D01*
X190691615Y-37570289D01*
X190691615Y-37427432D01*
X190739234Y-37236956D01*
X190786853Y-37141718D01*
X190882091Y-37046480D01*
X191024948Y-36998860D01*
X191120186Y-36998860D01*
X191263043Y-37046480D01*
X191310662Y-37094099D01*
X191691615Y-37094099D02*
X191739234Y-37046480D01*
X191834472Y-36998860D01*
X192072567Y-36998860D01*
X192167805Y-37046480D01*
X192215424Y-37094099D01*
X192263043Y-37189337D01*
X192263043Y-37284575D01*
X192215424Y-37427432D01*
X191643996Y-37998860D01*
X192263043Y-37998860D01*
X193167805Y-36998860D02*
X192691615Y-36998860D01*
X192643996Y-37475051D01*
X192691615Y-37427432D01*
X192786853Y-37379813D01*
X193024948Y-37379813D01*
X193120186Y-37427432D01*
X193167805Y-37475051D01*
X193215424Y-37570289D01*
X193215424Y-37808384D01*
X193167805Y-37903622D01*
X193120186Y-37951241D01*
X193024948Y-37998860D01*
X192786853Y-37998860D01*
X192691615Y-37951241D01*
X192643996Y-37903622D01*
X164786853Y-41653621D02*
X164739234Y-41701240D01*
X164596377Y-41748859D01*
X164501139Y-41748859D01*
X164358281Y-41701240D01*
X164263043Y-41606002D01*
X164215424Y-41510764D01*
X164167805Y-41320288D01*
X164167805Y-41177431D01*
X164215424Y-40986955D01*
X164263043Y-40891717D01*
X164358281Y-40796479D01*
X164501139Y-40748859D01*
X164596377Y-40748859D01*
X164739234Y-40796479D01*
X164786853Y-40844098D01*
X165358281Y-41177431D02*
X165263043Y-41129812D01*
X165215424Y-41082193D01*
X165167805Y-40986955D01*
X165167805Y-40939336D01*
X165215424Y-40844098D01*
X165263043Y-40796479D01*
X165358281Y-40748859D01*
X165548758Y-40748859D01*
X165643996Y-40796479D01*
X165691615Y-40844098D01*
X165739234Y-40939336D01*
X165739234Y-40986955D01*
X165691615Y-41082193D01*
X165643996Y-41129812D01*
X165548758Y-41177431D01*
X165358281Y-41177431D01*
X165263043Y-41225050D01*
X165215424Y-41272669D01*
X165167805Y-41367907D01*
X165167805Y-41558383D01*
X165215424Y-41653621D01*
X165263043Y-41701240D01*
X165358281Y-41748859D01*
X165548758Y-41748859D01*
X165643996Y-41701240D01*
X165691615Y-41653621D01*
X165739234Y-41558383D01*
X165739234Y-41367907D01*
X165691615Y-41272669D01*
X165643996Y-41225050D01*
X165548758Y-41177431D01*
X143346728Y-152330806D02*
X143150886Y-153116283D01*
X143174050Y-153220212D01*
X143208735Y-153277937D01*
X143289624Y-153347182D01*
X143474442Y-153393262D01*
X143578371Y-153370098D01*
X143636096Y-153335413D01*
X143705341Y-153254524D01*
X143901182Y-152469047D01*
X144825273Y-152699449D02*
X144363228Y-152584248D01*
X144201822Y-153034773D01*
X144259547Y-153000089D01*
X144363476Y-152976924D01*
X144594499Y-153034525D01*
X144675388Y-153103769D01*
X144710073Y-153161494D01*
X144733237Y-153265423D01*
X144675636Y-153496446D01*
X144606392Y-153577335D01*
X144548667Y-153612020D01*
X144444738Y-153635184D01*
X144213715Y-153577584D01*
X144132826Y-153508339D01*
X144098142Y-153450614D01*
X150210663Y-42313145D02*
X150258282Y-42360764D01*
X150305901Y-42503621D01*
X150305901Y-42598859D01*
X150258282Y-42741717D01*
X150163044Y-42836955D01*
X150067806Y-42884574D01*
X149877330Y-42932193D01*
X149734473Y-42932193D01*
X149543997Y-42884574D01*
X149448759Y-42836955D01*
X149353521Y-42741717D01*
X149305901Y-42598859D01*
X149305901Y-42503621D01*
X149353521Y-42360764D01*
X149401140Y-42313145D01*
X149639235Y-41456002D02*
X150305901Y-41456002D01*
X149258282Y-41694098D02*
X149972568Y-41932193D01*
X149972568Y-41313145D01*
X125010662Y-43689337D02*
X125058281Y-43736956D01*
X125105900Y-43879813D01*
X125105900Y-43975051D01*
X125058281Y-44117908D01*
X124963043Y-44213146D01*
X124867805Y-44260765D01*
X124677329Y-44308384D01*
X124534472Y-44308384D01*
X124343996Y-44260765D01*
X124248758Y-44213146D01*
X124153520Y-44117908D01*
X124105900Y-43975051D01*
X124105900Y-43879813D01*
X124153520Y-43736956D01*
X124201139Y-43689337D01*
X125105900Y-42736956D02*
X125105900Y-43308384D01*
X125105900Y-43022670D02*
X124105900Y-43022670D01*
X124248758Y-43117908D01*
X124343996Y-43213146D01*
X124391615Y-43308384D01*
X124105900Y-42403622D02*
X124105900Y-41784575D01*
X124486853Y-42117908D01*
X124486853Y-41975051D01*
X124534472Y-41879813D01*
X124582091Y-41832194D01*
X124677329Y-41784575D01*
X124915424Y-41784575D01*
X125010662Y-41832194D01*
X125058281Y-41879813D01*
X125105900Y-41975051D01*
X125105900Y-42260765D01*
X125058281Y-42356003D01*
X125010662Y-42403622D01*
X123310662Y-54689337D02*
X123358281Y-54736956D01*
X123405900Y-54879813D01*
X123405900Y-54975051D01*
X123358281Y-55117908D01*
X123263043Y-55213146D01*
X123167805Y-55260765D01*
X122977329Y-55308384D01*
X122834472Y-55308384D01*
X122643996Y-55260765D01*
X122548758Y-55213146D01*
X122453520Y-55117908D01*
X122405900Y-54975051D01*
X122405900Y-54879813D01*
X122453520Y-54736956D01*
X122501139Y-54689337D01*
X123405900Y-53736956D02*
X123405900Y-54308384D01*
X123405900Y-54022670D02*
X122405900Y-54022670D01*
X122548758Y-54117908D01*
X122643996Y-54213146D01*
X122691615Y-54308384D01*
X122405900Y-53403622D02*
X122405900Y-52736956D01*
X123405900Y-53165527D01*
X196112093Y-56239675D02*
X196064474Y-56287294D01*
X195921617Y-56334913D01*
X195826379Y-56334913D01*
X195683522Y-56287294D01*
X195588284Y-56192056D01*
X195540665Y-56096818D01*
X195493046Y-55906342D01*
X195493046Y-55763485D01*
X195540665Y-55573009D01*
X195588284Y-55477771D01*
X195683522Y-55382533D01*
X195826379Y-55334913D01*
X195921617Y-55334913D01*
X196064474Y-55382533D01*
X196112093Y-55430152D01*
X196493046Y-55430152D02*
X196540665Y-55382533D01*
X196635903Y-55334913D01*
X196873998Y-55334913D01*
X196969236Y-55382533D01*
X197016855Y-55430152D01*
X197064474Y-55525390D01*
X197064474Y-55620628D01*
X197016855Y-55763485D01*
X196445427Y-56334913D01*
X197064474Y-56334913D01*
X197397808Y-55334913D02*
X198064474Y-55334913D01*
X197635903Y-56334913D01*
X77315482Y-52817062D02*
X77116754Y-52270825D01*
X76763525Y-52669166D02*
X77022344Y-51703240D01*
X77390316Y-51801838D01*
X77469984Y-51872483D01*
X77503656Y-51930805D01*
X77525003Y-52035122D01*
X77488028Y-52173112D01*
X77417383Y-52252780D01*
X77359061Y-52286452D01*
X77254744Y-52307799D01*
X76886772Y-52209201D01*
X78235412Y-53063557D02*
X77683454Y-52915660D01*
X77959433Y-52989608D02*
X78218252Y-52023682D01*
X78089285Y-52137022D01*
X77972643Y-52204366D01*
X77868325Y-52225713D01*
X79322167Y-52319476D02*
X79138181Y-52270177D01*
X79033864Y-52291524D01*
X78975542Y-52325196D01*
X78846575Y-52438536D01*
X78751280Y-52610197D01*
X78652682Y-52978168D01*
X78674029Y-53082486D01*
X78707701Y-53140807D01*
X78787369Y-53211453D01*
X78971355Y-53260752D01*
X79075673Y-53239405D01*
X79133994Y-53205733D01*
X79204640Y-53126065D01*
X79266264Y-52896083D01*
X79244917Y-52791765D01*
X79211245Y-52733444D01*
X79131577Y-52662798D01*
X78947591Y-52613499D01*
X78843273Y-52634846D01*
X78784952Y-52668518D01*
X78714306Y-52748186D01*
X181405900Y-53284575D02*
X180405900Y-53284575D01*
X180405900Y-53046480D01*
X180453520Y-52903622D01*
X180548758Y-52808384D01*
X180643996Y-52760765D01*
X180834472Y-52713146D01*
X180977329Y-52713146D01*
X181167805Y-52760765D01*
X181263043Y-52808384D01*
X181358281Y-52903622D01*
X181405900Y-53046480D01*
X181405900Y-53284575D01*
X180501139Y-52332194D02*
X180453520Y-52284575D01*
X180405900Y-52189337D01*
X180405900Y-51951241D01*
X180453520Y-51856003D01*
X180501139Y-51808384D01*
X180596377Y-51760765D01*
X180691615Y-51760765D01*
X180834472Y-51808384D01*
X181405900Y-52379813D01*
X181405900Y-51760765D01*
X88358281Y-38494099D02*
X88263043Y-38446480D01*
X88167805Y-38351241D01*
X88024948Y-38208384D01*
X87929710Y-38160765D01*
X87834472Y-38160765D01*
X87882091Y-38398860D02*
X87786853Y-38351241D01*
X87691615Y-38256003D01*
X87643996Y-38065527D01*
X87643996Y-37732194D01*
X87691615Y-37541718D01*
X87786853Y-37446480D01*
X87882091Y-37398860D01*
X88072567Y-37398860D01*
X88167805Y-37446480D01*
X88263043Y-37541718D01*
X88310662Y-37732194D01*
X88310662Y-38065527D01*
X88263043Y-38256003D01*
X88167805Y-38351241D01*
X88072567Y-38398860D01*
X87882091Y-38398860D01*
X88643996Y-37398860D02*
X89263043Y-37398860D01*
X88929710Y-37779813D01*
X89072567Y-37779813D01*
X89167805Y-37827432D01*
X89215424Y-37875051D01*
X89263043Y-37970289D01*
X89263043Y-38208384D01*
X89215424Y-38303622D01*
X89167805Y-38351241D01*
X89072567Y-38398860D01*
X88786853Y-38398860D01*
X88691615Y-38351241D01*
X88643996Y-38303622D01*
X134815424Y-31898860D02*
X134815424Y-32708384D01*
X134863043Y-32803622D01*
X134910662Y-32851241D01*
X135005900Y-32898860D01*
X135196377Y-32898860D01*
X135291615Y-32851241D01*
X135339234Y-32803622D01*
X135386853Y-32708384D01*
X135386853Y-31898860D01*
X136386853Y-32898860D02*
X135815424Y-32898860D01*
X136101139Y-32898860D02*
X136101139Y-31898860D01*
X136005900Y-32041718D01*
X135910662Y-32136956D01*
X135815424Y-32184575D01*
X137005900Y-31898860D02*
X137101139Y-31898860D01*
X137196377Y-31946480D01*
X137243996Y-31994099D01*
X137291615Y-32089337D01*
X137339234Y-32279813D01*
X137339234Y-32517908D01*
X137291615Y-32708384D01*
X137243996Y-32803622D01*
X137196377Y-32851241D01*
X137101139Y-32898860D01*
X137005900Y-32898860D01*
X136910662Y-32851241D01*
X136863043Y-32803622D01*
X136815424Y-32708384D01*
X136767805Y-32517908D01*
X136767805Y-32279813D01*
X136815424Y-32089337D01*
X136863043Y-31994099D01*
X136910662Y-31946480D01*
X137005900Y-31898860D01*
X131610662Y-33668859D02*
X131277329Y-33192669D01*
X131039234Y-33668859D02*
X131039234Y-32668859D01*
X131420186Y-32668859D01*
X131515424Y-32716479D01*
X131563043Y-32764098D01*
X131610662Y-32859336D01*
X131610662Y-33002193D01*
X131563043Y-33097431D01*
X131515424Y-33145050D01*
X131420186Y-33192669D01*
X131039234Y-33192669D01*
X131991615Y-32764098D02*
X132039234Y-32716479D01*
X132134472Y-32668859D01*
X132372567Y-32668859D01*
X132467805Y-32716479D01*
X132515424Y-32764098D01*
X132563043Y-32859336D01*
X132563043Y-32954574D01*
X132515424Y-33097431D01*
X131943996Y-33668859D01*
X132563043Y-33668859D01*
X133467805Y-32668859D02*
X132991615Y-32668859D01*
X132943996Y-33145050D01*
X132991615Y-33097431D01*
X133086853Y-33049812D01*
X133324948Y-33049812D01*
X133420186Y-33097431D01*
X133467805Y-33145050D01*
X133515424Y-33240288D01*
X133515424Y-33478383D01*
X133467805Y-33573621D01*
X133420186Y-33621240D01*
X133324948Y-33668859D01*
X133086853Y-33668859D01*
X132991615Y-33621240D01*
X132943996Y-33573621D01*
X218405900Y-26760765D02*
X217405900Y-26760765D01*
X217405900Y-26522670D01*
X217453520Y-26379813D01*
X217548758Y-26284575D01*
X217643996Y-26236956D01*
X217834472Y-26189337D01*
X217977329Y-26189337D01*
X218167805Y-26236956D01*
X218263043Y-26284575D01*
X218358281Y-26379813D01*
X218405900Y-26522670D01*
X218405900Y-26760765D01*
X218405900Y-25236956D02*
X218405900Y-25808384D01*
X218405900Y-25522670D02*
X217405900Y-25522670D01*
X217548758Y-25617908D01*
X217643996Y-25713146D01*
X217691615Y-25808384D01*
X217739234Y-24379813D02*
X218405900Y-24379813D01*
X217358281Y-24617908D02*
X218072567Y-24856003D01*
X218072567Y-24236956D01*
X173610661Y-67483622D02*
X173563042Y-67531241D01*
X173420185Y-67578860D01*
X173324947Y-67578860D01*
X173182090Y-67531241D01*
X173086852Y-67436003D01*
X173039233Y-67340765D01*
X172991614Y-67150289D01*
X172991614Y-67007432D01*
X173039233Y-66816956D01*
X173086852Y-66721718D01*
X173182090Y-66626480D01*
X173324947Y-66578860D01*
X173420185Y-66578860D01*
X173563042Y-66626480D01*
X173610661Y-66674099D01*
X174563042Y-67578860D02*
X173991614Y-67578860D01*
X174277328Y-67578860D02*
X174277328Y-66578860D01*
X174182090Y-66721718D01*
X174086852Y-66816956D01*
X173991614Y-66864575D01*
X175420185Y-66912194D02*
X175420185Y-67578860D01*
X175182090Y-66531241D02*
X174943995Y-67245527D01*
X175563042Y-67245527D01*
X143385662Y-55398860D02*
X143052329Y-54922670D01*
X142814234Y-55398860D02*
X142814234Y-54398860D01*
X143195186Y-54398860D01*
X143290424Y-54446480D01*
X143338043Y-54494099D01*
X143385662Y-54589337D01*
X143385662Y-54732194D01*
X143338043Y-54827432D01*
X143290424Y-54875051D01*
X143195186Y-54922670D01*
X142814234Y-54922670D01*
X144338043Y-55398860D02*
X143766615Y-55398860D01*
X144052329Y-55398860D02*
X144052329Y-54398860D01*
X143957091Y-54541718D01*
X143861853Y-54636956D01*
X143766615Y-54684575D01*
X144718996Y-54494099D02*
X144766615Y-54446480D01*
X144861853Y-54398860D01*
X145099948Y-54398860D01*
X145195186Y-54446480D01*
X145242805Y-54494099D01*
X145290424Y-54589337D01*
X145290424Y-54684575D01*
X145242805Y-54827432D01*
X144671377Y-55398860D01*
X145290424Y-55398860D01*
X92405899Y-53689337D02*
X91929709Y-54022670D01*
X92405899Y-54260765D02*
X91405899Y-54260765D01*
X91405899Y-53879813D01*
X91453519Y-53784575D01*
X91501138Y-53736956D01*
X91596376Y-53689337D01*
X91739233Y-53689337D01*
X91834471Y-53736956D01*
X91882090Y-53784575D01*
X91929709Y-53879813D01*
X91929709Y-54260765D01*
X91501138Y-53308384D02*
X91453519Y-53260765D01*
X91405899Y-53165527D01*
X91405899Y-52927432D01*
X91453519Y-52832194D01*
X91501138Y-52784575D01*
X91596376Y-52736956D01*
X91691614Y-52736956D01*
X91834471Y-52784575D01*
X92405899Y-53356003D01*
X92405899Y-52736956D01*
X91501138Y-52356003D02*
X91453519Y-52308384D01*
X91405899Y-52213146D01*
X91405899Y-51975051D01*
X91453519Y-51879813D01*
X91501138Y-51832194D01*
X91596376Y-51784575D01*
X91691614Y-51784575D01*
X91834471Y-51832194D01*
X92405899Y-52403622D01*
X92405899Y-51784575D01*
X181405900Y-49513146D02*
X180929710Y-49846480D01*
X181405900Y-50084575D02*
X180405900Y-50084575D01*
X180405900Y-49703622D01*
X180453520Y-49608384D01*
X180501139Y-49560765D01*
X180596377Y-49513146D01*
X180739234Y-49513146D01*
X180834472Y-49560765D01*
X180882091Y-49608384D01*
X180929710Y-49703622D01*
X180929710Y-50084575D01*
X180739234Y-48656003D02*
X181405900Y-48656003D01*
X180358281Y-48894099D02*
X181072567Y-49132194D01*
X181072567Y-48513146D01*
X192215424Y-46498860D02*
X192215424Y-47308384D01*
X192263043Y-47403622D01*
X192310662Y-47451241D01*
X192405900Y-47498860D01*
X192596377Y-47498860D01*
X192691615Y-47451241D01*
X192739234Y-47403622D01*
X192786853Y-47308384D01*
X192786853Y-46498860D01*
X193786853Y-47498860D02*
X193215424Y-47498860D01*
X193501139Y-47498860D02*
X193501139Y-46498860D01*
X193405900Y-46641718D01*
X193310662Y-46736956D01*
X193215424Y-46784575D01*
X194643996Y-46832194D02*
X194643996Y-47498860D01*
X194405900Y-46451241D02*
X194167805Y-47165527D01*
X194786853Y-47165527D01*
X216539234Y-43898860D02*
X216539234Y-42898860D01*
X216777329Y-42898860D01*
X216920186Y-42946480D01*
X217015424Y-43041718D01*
X217063043Y-43136956D01*
X217110662Y-43327432D01*
X217110662Y-43470289D01*
X217063043Y-43660765D01*
X217015424Y-43756003D01*
X216920186Y-43851241D01*
X216777329Y-43898860D01*
X216539234Y-43898860D01*
X218063043Y-43898860D02*
X217491615Y-43898860D01*
X217777329Y-43898860D02*
X217777329Y-42898860D01*
X217682091Y-43041718D01*
X217586853Y-43136956D01*
X217491615Y-43184575D01*
X219015424Y-43898860D02*
X218443996Y-43898860D01*
X218729710Y-43898860D02*
X218729710Y-42898860D01*
X218634472Y-43041718D01*
X218539234Y-43136956D01*
X218443996Y-43184575D01*
X139210662Y-49513146D02*
X139258281Y-49560765D01*
X139305900Y-49703622D01*
X139305900Y-49798860D01*
X139258281Y-49941718D01*
X139163043Y-50036956D01*
X139067805Y-50084575D01*
X138877329Y-50132194D01*
X138734472Y-50132194D01*
X138543996Y-50084575D01*
X138448758Y-50036956D01*
X138353520Y-49941718D01*
X138305900Y-49798860D01*
X138305900Y-49703622D01*
X138353520Y-49560765D01*
X138401139Y-49513146D01*
X138305900Y-48608384D02*
X138305900Y-49084575D01*
X138782091Y-49132194D01*
X138734472Y-49084575D01*
X138686853Y-48989337D01*
X138686853Y-48751241D01*
X138734472Y-48656003D01*
X138782091Y-48608384D01*
X138877329Y-48560765D01*
X139115424Y-48560765D01*
X139210662Y-48608384D01*
X139258281Y-48656003D01*
X139305900Y-48751241D01*
X139305900Y-48989337D01*
X139258281Y-49084575D01*
X139210662Y-49132194D01*
X123485662Y-46498860D02*
X123152329Y-46022670D01*
X122914234Y-46498860D02*
X122914234Y-45498860D01*
X123295186Y-45498860D01*
X123390424Y-45546480D01*
X123438043Y-45594099D01*
X123485662Y-45689337D01*
X123485662Y-45832194D01*
X123438043Y-45927432D01*
X123390424Y-45975051D01*
X123295186Y-46022670D01*
X122914234Y-46022670D01*
X124438043Y-46498860D02*
X123866615Y-46498860D01*
X124152329Y-46498860D02*
X124152329Y-45498860D01*
X124057091Y-45641718D01*
X123961853Y-45736956D01*
X123866615Y-45784575D01*
X125295186Y-45832194D02*
X125295186Y-46498860D01*
X125057091Y-45451241D02*
X124818996Y-46165527D01*
X125438043Y-46165527D01*
X88610662Y-51289337D02*
X88658281Y-51336956D01*
X88705900Y-51479813D01*
X88705900Y-51575051D01*
X88658281Y-51717908D01*
X88563043Y-51813146D01*
X88467805Y-51860765D01*
X88277329Y-51908384D01*
X88134472Y-51908384D01*
X87943996Y-51860765D01*
X87848758Y-51813146D01*
X87753520Y-51717908D01*
X87705900Y-51575051D01*
X87705900Y-51479813D01*
X87753520Y-51336956D01*
X87801139Y-51289337D01*
X88705900Y-50336956D02*
X88705900Y-50908384D01*
X88705900Y-50622670D02*
X87705900Y-50622670D01*
X87848758Y-50717908D01*
X87943996Y-50813146D01*
X87991615Y-50908384D01*
X88705900Y-49860765D02*
X88705900Y-49670289D01*
X88658281Y-49575051D01*
X88610662Y-49527432D01*
X88467805Y-49432194D01*
X88277329Y-49384575D01*
X87896377Y-49384575D01*
X87801139Y-49432194D01*
X87753520Y-49479813D01*
X87705900Y-49575051D01*
X87705900Y-49765527D01*
X87753520Y-49860765D01*
X87801139Y-49908384D01*
X87896377Y-49956003D01*
X88134472Y-49956003D01*
X88229710Y-49908384D01*
X88277329Y-49860765D01*
X88324948Y-49765527D01*
X88324948Y-49575051D01*
X88277329Y-49479813D01*
X88229710Y-49432194D01*
X88134472Y-49384575D01*
X180715424Y-38498860D02*
X180715424Y-39308384D01*
X180763043Y-39403622D01*
X180810662Y-39451241D01*
X180905900Y-39498860D01*
X181096377Y-39498860D01*
X181191615Y-39451241D01*
X181239234Y-39403622D01*
X181286853Y-39308384D01*
X181286853Y-38498860D01*
X182286853Y-39498860D02*
X181715424Y-39498860D01*
X182001139Y-39498860D02*
X182001139Y-38498860D01*
X181905900Y-38641718D01*
X181810662Y-38736956D01*
X181715424Y-38784575D01*
X182667805Y-38594099D02*
X182715424Y-38546480D01*
X182810662Y-38498860D01*
X183048758Y-38498860D01*
X183143996Y-38546480D01*
X183191615Y-38594099D01*
X183239234Y-38689337D01*
X183239234Y-38784575D01*
X183191615Y-38927432D01*
X182620186Y-39498860D01*
X183239234Y-39498860D01*
X182110662Y-64903622D02*
X182063043Y-64951241D01*
X181920186Y-64998860D01*
X181824948Y-64998860D01*
X181682091Y-64951241D01*
X181586853Y-64856003D01*
X181539234Y-64760765D01*
X181491615Y-64570289D01*
X181491615Y-64427432D01*
X181539234Y-64236956D01*
X181586853Y-64141718D01*
X181682091Y-64046480D01*
X181824948Y-63998860D01*
X181920186Y-63998860D01*
X182063043Y-64046480D01*
X182110662Y-64094099D01*
X183063043Y-64998860D02*
X182491615Y-64998860D01*
X182777329Y-64998860D02*
X182777329Y-63998860D01*
X182682091Y-64141718D01*
X182586853Y-64236956D01*
X182491615Y-64284575D01*
X183682091Y-63998860D02*
X183777329Y-63998860D01*
X183872567Y-64046480D01*
X183920186Y-64094099D01*
X183967805Y-64189337D01*
X184015424Y-64379813D01*
X184015424Y-64617908D01*
X183967805Y-64808384D01*
X183920186Y-64903622D01*
X183872567Y-64951241D01*
X183777329Y-64998860D01*
X183682091Y-64998860D01*
X183586853Y-64951241D01*
X183539234Y-64903622D01*
X183491615Y-64808384D01*
X183443996Y-64617908D01*
X183443996Y-64379813D01*
X183491615Y-64189337D01*
X183539234Y-64094099D01*
X183586853Y-64046480D01*
X183682091Y-63998860D01*
X85480662Y-48289337D02*
X85528281Y-48336956D01*
X85575900Y-48479813D01*
X85575900Y-48575051D01*
X85528281Y-48717908D01*
X85433043Y-48813146D01*
X85337805Y-48860765D01*
X85147329Y-48908384D01*
X85004472Y-48908384D01*
X84813996Y-48860765D01*
X84718758Y-48813146D01*
X84623520Y-48717908D01*
X84575900Y-48575051D01*
X84575900Y-48479813D01*
X84623520Y-48336956D01*
X84671139Y-48289337D01*
X84671139Y-47908384D02*
X84623520Y-47860765D01*
X84575900Y-47765527D01*
X84575900Y-47527432D01*
X84623520Y-47432194D01*
X84671139Y-47384575D01*
X84766377Y-47336956D01*
X84861615Y-47336956D01*
X85004472Y-47384575D01*
X85575900Y-47956003D01*
X85575900Y-47336956D01*
X84575900Y-46717908D02*
X84575900Y-46622670D01*
X84623520Y-46527432D01*
X84671139Y-46479813D01*
X84766377Y-46432194D01*
X84956853Y-46384575D01*
X85194948Y-46384575D01*
X85385424Y-46432194D01*
X85480662Y-46479813D01*
X85528281Y-46527432D01*
X85575900Y-46622670D01*
X85575900Y-46717908D01*
X85528281Y-46813146D01*
X85480662Y-46860765D01*
X85385424Y-46908384D01*
X85194948Y-46956003D01*
X84956853Y-46956003D01*
X84766377Y-46908384D01*
X84671139Y-46860765D01*
X84623520Y-46813146D01*
X84575900Y-46717908D01*
X97905900Y-39189337D02*
X97429710Y-39522670D01*
X97905900Y-39760765D02*
X96905900Y-39760765D01*
X96905900Y-39379813D01*
X96953520Y-39284575D01*
X97001139Y-39236956D01*
X97096377Y-39189337D01*
X97239234Y-39189337D01*
X97334472Y-39236956D01*
X97382091Y-39284575D01*
X97429710Y-39379813D01*
X97429710Y-39760765D01*
X97001139Y-38808384D02*
X96953520Y-38760765D01*
X96905900Y-38665527D01*
X96905900Y-38427432D01*
X96953520Y-38332194D01*
X97001139Y-38284575D01*
X97096377Y-38236956D01*
X97191615Y-38236956D01*
X97334472Y-38284575D01*
X97905900Y-38856003D01*
X97905900Y-38236956D01*
X97334472Y-37665527D02*
X97286853Y-37760765D01*
X97239234Y-37808384D01*
X97143996Y-37856003D01*
X97096377Y-37856003D01*
X97001139Y-37808384D01*
X96953520Y-37760765D01*
X96905900Y-37665527D01*
X96905900Y-37475051D01*
X96953520Y-37379813D01*
X97001139Y-37332194D01*
X97096377Y-37284575D01*
X97143996Y-37284575D01*
X97239234Y-37332194D01*
X97286853Y-37379813D01*
X97334472Y-37475051D01*
X97334472Y-37665527D01*
X97382091Y-37760765D01*
X97429710Y-37808384D01*
X97524948Y-37856003D01*
X97715424Y-37856003D01*
X97810662Y-37808384D01*
X97858281Y-37760765D01*
X97905900Y-37665527D01*
X97905900Y-37475051D01*
X97858281Y-37379813D01*
X97810662Y-37332194D01*
X97715424Y-37284575D01*
X97524948Y-37284575D01*
X97429710Y-37332194D01*
X97382091Y-37379813D01*
X97334472Y-37475051D01*
X159405900Y-52808384D02*
X160215424Y-52808384D01*
X160310662Y-52760765D01*
X160358281Y-52713146D01*
X160405900Y-52617908D01*
X160405900Y-52427432D01*
X160358281Y-52332194D01*
X160310662Y-52284575D01*
X160215424Y-52236956D01*
X159405900Y-52236956D01*
X159405900Y-51332194D02*
X159405900Y-51522670D01*
X159453520Y-51617908D01*
X159501139Y-51665527D01*
X159643996Y-51760765D01*
X159834472Y-51808384D01*
X160215424Y-51808384D01*
X160310662Y-51760765D01*
X160358281Y-51713146D01*
X160405900Y-51617908D01*
X160405900Y-51427432D01*
X160358281Y-51332194D01*
X160310662Y-51284575D01*
X160215424Y-51236956D01*
X159977329Y-51236956D01*
X159882091Y-51284575D01*
X159834472Y-51332194D01*
X159786853Y-51427432D01*
X159786853Y-51617908D01*
X159834472Y-51713146D01*
X159882091Y-51760765D01*
X159977329Y-51808384D01*
X94405900Y-53689337D02*
X93929710Y-54022670D01*
X94405900Y-54260765D02*
X93405900Y-54260765D01*
X93405900Y-53879813D01*
X93453520Y-53784575D01*
X93501139Y-53736956D01*
X93596377Y-53689337D01*
X93739234Y-53689337D01*
X93834472Y-53736956D01*
X93882091Y-53784575D01*
X93929710Y-53879813D01*
X93929710Y-54260765D01*
X93501139Y-53308384D02*
X93453520Y-53260765D01*
X93405900Y-53165527D01*
X93405900Y-52927432D01*
X93453520Y-52832194D01*
X93501139Y-52784575D01*
X93596377Y-52736956D01*
X93691615Y-52736956D01*
X93834472Y-52784575D01*
X94405900Y-53356003D01*
X94405900Y-52736956D01*
X93739234Y-51879813D02*
X94405900Y-51879813D01*
X93358281Y-52117908D02*
X94072567Y-52356003D01*
X94072567Y-51736956D01*
X143385662Y-51948860D02*
X143052329Y-51472670D01*
X142814234Y-51948860D02*
X142814234Y-50948860D01*
X143195186Y-50948860D01*
X143290424Y-50996480D01*
X143338043Y-51044099D01*
X143385662Y-51139337D01*
X143385662Y-51282194D01*
X143338043Y-51377432D01*
X143290424Y-51425051D01*
X143195186Y-51472670D01*
X142814234Y-51472670D01*
X144338043Y-51948860D02*
X143766615Y-51948860D01*
X144052329Y-51948860D02*
X144052329Y-50948860D01*
X143957091Y-51091718D01*
X143861853Y-51186956D01*
X143766615Y-51234575D01*
X144957091Y-50948860D02*
X145052329Y-50948860D01*
X145147567Y-50996480D01*
X145195186Y-51044099D01*
X145242805Y-51139337D01*
X145290424Y-51329813D01*
X145290424Y-51567908D01*
X145242805Y-51758384D01*
X145195186Y-51853622D01*
X145147567Y-51901241D01*
X145052329Y-51948860D01*
X144957091Y-51948860D01*
X144861853Y-51901241D01*
X144814234Y-51853622D01*
X144766615Y-51758384D01*
X144718996Y-51567908D01*
X144718996Y-51329813D01*
X144766615Y-51139337D01*
X144814234Y-51044099D01*
X144861853Y-50996480D01*
X144957091Y-50948860D01*
X196606476Y-29987998D02*
X196519320Y-28991804D01*
X196756509Y-28971052D01*
X196902973Y-29006039D01*
X197006149Y-29092614D01*
X197061887Y-29183340D01*
X197125926Y-29368941D01*
X197138377Y-29511254D01*
X197107540Y-29705156D01*
X197068403Y-29804182D01*
X196981828Y-29907358D01*
X196843665Y-29967247D01*
X196606476Y-29987998D01*
X197420639Y-28912948D02*
X198037331Y-28858995D01*
X197738468Y-29267549D01*
X197880782Y-29255099D01*
X197979808Y-29294236D01*
X198031396Y-29337523D01*
X198087134Y-29428249D01*
X198107885Y-29665438D01*
X198068748Y-29764464D01*
X198025461Y-29816052D01*
X197934735Y-29871791D01*
X197650108Y-29896692D01*
X197551082Y-29857555D01*
X197499494Y-29814267D01*
X196795790Y-31878692D02*
X196226536Y-31928496D01*
X196511163Y-31903594D02*
X196424007Y-30907399D01*
X196341582Y-31058013D01*
X196255007Y-31161190D01*
X196164282Y-31216928D01*
X188810662Y-37689337D02*
X188858281Y-37736956D01*
X188905900Y-37879813D01*
X188905900Y-37975051D01*
X188858281Y-38117908D01*
X188763043Y-38213146D01*
X188667805Y-38260765D01*
X188477329Y-38308384D01*
X188334472Y-38308384D01*
X188143996Y-38260765D01*
X188048758Y-38213146D01*
X187953520Y-38117908D01*
X187905900Y-37975051D01*
X187905900Y-37879813D01*
X187953520Y-37736956D01*
X188001139Y-37689337D01*
X188001139Y-37308384D02*
X187953520Y-37260765D01*
X187905900Y-37165527D01*
X187905900Y-36927432D01*
X187953520Y-36832194D01*
X188001139Y-36784575D01*
X188096377Y-36736956D01*
X188191615Y-36736956D01*
X188334472Y-36784575D01*
X188905900Y-37356003D01*
X188905900Y-36736956D01*
X187905900Y-36403622D02*
X187905900Y-35784575D01*
X188286853Y-36117908D01*
X188286853Y-35975051D01*
X188334472Y-35879813D01*
X188382091Y-35832194D01*
X188477329Y-35784575D01*
X188715424Y-35784575D01*
X188810662Y-35832194D01*
X188858281Y-35879813D01*
X188905900Y-35975051D01*
X188905900Y-36260765D01*
X188858281Y-36356003D01*
X188810662Y-36403622D01*
D13*
X188853520Y-49546480D02*
X186053520Y-49546480D01*
X188853520Y-47546480D02*
X188853520Y-49546480D01*
X186053520Y-49546480D02*
X186053520Y-47546480D01*
X186053520Y-47546480D02*
X188853520Y-47546480D01*
X177277073Y-75113444D02*
X178405524Y-70902007D01*
X164037018Y-151571925D02*
X184038554Y-76925177D01*
X157275537Y-149760191D02*
X164017699Y-151566748D01*
X163870022Y-71521035D02*
X170631503Y-73332769D01*
X143868486Y-146167783D02*
X163870022Y-71521035D01*
X150629967Y-147979516D02*
X143868486Y-146167783D01*
X158425742Y-155358649D02*
X159072789Y-152943835D01*
X184038554Y-76925177D02*
X177277073Y-75113444D01*
X181072408Y-70840139D02*
X180425361Y-73254954D01*
X179541477Y-71724023D02*
X181956292Y-72371070D01*
X168216262Y-43318979D02*
X168690778Y-43318979D01*
X168216262Y-42273979D02*
X168690778Y-42273979D01*
X147176020Y-55509222D02*
X147176020Y-55983738D01*
X146131020Y-55509222D02*
X146131020Y-55983738D01*
X137183520Y-52746480D02*
X137183520Y-55346480D01*
X130723520Y-57276480D02*
X137183520Y-57276480D01*
X130723520Y-52746480D02*
X130723520Y-55346480D01*
X130723520Y-50816480D02*
X137183520Y-50816480D01*
X137183520Y-57276480D02*
X137183520Y-57246480D01*
X130723520Y-57276480D02*
X130723520Y-57246480D01*
X137183520Y-50816480D02*
X137183520Y-50846480D01*
X130723520Y-50846480D02*
X130723520Y-50816480D01*
X152963520Y-44735227D02*
X152963520Y-46157731D01*
X151143520Y-44735227D02*
X151143520Y-46157731D01*
X182066946Y-83587246D02*
X184137499Y-75859840D01*
X186413613Y-84751932D02*
X182066946Y-83587246D01*
X182679319Y-83233693D02*
X183196957Y-81301841D01*
X184137499Y-75859840D02*
X188484165Y-77024525D01*
X209491262Y-45423980D02*
X209965778Y-45423980D01*
X209491262Y-46468980D02*
X209965778Y-46468980D01*
X142543520Y-49456480D02*
X142543520Y-48196480D01*
X148553520Y-49456480D02*
X142543520Y-49456480D01*
X146303520Y-42636480D02*
X142543520Y-42636480D01*
X142543520Y-42636480D02*
X142543520Y-43896480D01*
X175718520Y-54031480D02*
X177188520Y-54031480D01*
X175718520Y-51746480D02*
X175718520Y-54031480D01*
X177188520Y-54031480D02*
X177188520Y-51746480D01*
X189868260Y-22103344D02*
X190077434Y-24494212D01*
X187477392Y-22312518D02*
X189868260Y-22103344D01*
X190077434Y-24494212D02*
X187686566Y-24703386D01*
X187686566Y-24703386D02*
X187477392Y-22312518D01*
X208328520Y-27766480D02*
X208328520Y-31616480D01*
X212628520Y-29706480D02*
G75*
G03*
X211127327Y-27350080I-2600000J0D01*
G01*
X208906475Y-27383849D02*
G75*
G03*
X208328520Y-27766480I1122045J-2322631D01*
G01*
X208328520Y-31616480D02*
G75*
G03*
X208916256Y-32008863I1700000J1910000D01*
G01*
X211127327Y-32062880D02*
G75*
G03*
X212628520Y-29706480I-1098807J2356400D01*
G01*
X99716262Y-44068980D02*
X100190778Y-44068980D01*
X99716262Y-43023980D02*
X100190778Y-43023980D01*
X198443520Y-52187060D02*
X198443520Y-51905900D01*
X199463520Y-52187060D02*
X199463520Y-51905900D01*
X166743520Y-64305900D02*
X166743520Y-64587060D01*
X167763520Y-64305900D02*
X167763520Y-64587060D01*
X206431020Y-30783738D02*
X206431020Y-30309222D01*
X207476020Y-30783738D02*
X207476020Y-30309222D01*
X211653520Y-44946480D02*
X215553520Y-44946480D01*
X211653520Y-46946480D02*
X215553520Y-46946480D01*
X211653520Y-44946480D02*
X211653520Y-46946480D01*
X132016262Y-35823980D02*
X132490778Y-35823980D01*
X132016262Y-36868980D02*
X132490778Y-36868980D01*
X189423520Y-59376480D02*
X189423520Y-56716480D01*
X189423520Y-56716480D02*
X197103520Y-56716480D01*
X197103520Y-59376480D02*
X197103520Y-56716480D01*
X189423520Y-59376480D02*
X197103520Y-59376480D01*
X186823520Y-56716480D02*
X188153520Y-56716480D01*
X186823520Y-58046480D02*
X186823520Y-56716480D01*
X156738708Y-38989429D02*
X156638479Y-37843805D01*
X148987130Y-34146595D02*
X156259351Y-33510358D01*
X149466487Y-39625666D02*
X156738708Y-38989429D01*
X209965778Y-43468980D02*
X209491262Y-43468980D01*
X209965778Y-42423980D02*
X209491262Y-42423980D01*
X179403871Y-37313562D02*
X186676092Y-36677325D01*
X178924514Y-31834491D02*
X186196735Y-31198254D01*
X186676092Y-36677325D02*
X186575863Y-35531701D01*
X180513520Y-61546480D02*
X180513520Y-62346480D01*
X180513520Y-61546480D02*
X180513520Y-59746480D01*
X177393520Y-61546480D02*
X177393520Y-60746480D01*
X177393520Y-61546480D02*
X177393520Y-62346480D01*
X91976020Y-35783738D02*
X91976020Y-35309222D01*
X90931020Y-35783738D02*
X90931020Y-35309222D01*
X156043520Y-44835227D02*
X156043520Y-46257731D01*
X157863520Y-44835227D02*
X157863520Y-46257731D01*
X188853520Y-50546480D02*
X188853520Y-52546480D01*
X186053520Y-52546480D02*
X186053520Y-50546480D01*
X186053520Y-50546480D02*
X188853520Y-50546480D01*
X188853520Y-52546480D02*
X186053520Y-52546480D01*
X125688520Y-50285228D02*
X125688520Y-50807732D01*
X124218520Y-50285228D02*
X124218520Y-50807732D01*
X158543520Y-44835227D02*
X158543520Y-46257731D01*
X160363520Y-44835227D02*
X160363520Y-46257731D01*
X141265778Y-53718980D02*
X140791262Y-53718980D01*
X141265778Y-52673980D02*
X140791262Y-52673980D01*
X157591552Y-24927190D02*
X159982420Y-24718016D01*
X160191594Y-27108884D02*
X157800726Y-27318058D01*
X159982420Y-24718016D02*
X160191594Y-27108884D01*
X157800726Y-27318058D02*
X157591552Y-24927190D01*
X147838779Y-28189616D02*
X147629605Y-25798748D01*
X150229647Y-27980442D02*
X147838779Y-28189616D01*
X147629605Y-25798748D02*
X150020473Y-25589574D01*
X150020473Y-25589574D02*
X150229647Y-27980442D01*
X77072330Y-49078088D02*
X75140478Y-48560449D01*
X79505229Y-39998385D02*
X77573377Y-39480747D01*
X75738118Y-38988991D02*
X73902859Y-38497234D01*
X73902859Y-38497234D02*
X71469960Y-47576937D01*
X73305219Y-48068693D02*
X71469960Y-47576937D01*
X177515445Y-23184075D02*
X179906313Y-22974901D01*
X177724619Y-25574943D02*
X177515445Y-23184075D01*
X180115487Y-25365769D02*
X177724619Y-25574943D01*
X179906313Y-22974901D02*
X180115487Y-25365769D01*
X135794100Y-37836481D02*
X135512940Y-37836481D01*
X135794100Y-38856481D02*
X135512940Y-38856481D01*
X176976020Y-49109222D02*
X176976020Y-49583738D01*
X175931020Y-49109222D02*
X175931020Y-49583738D01*
X99716262Y-48068980D02*
X100190778Y-48068980D01*
X99716262Y-47023980D02*
X100190778Y-47023980D01*
X147772574Y-35868422D02*
X147797079Y-36148512D01*
X148788693Y-35779524D02*
X148813198Y-36059614D01*
X166990778Y-60423980D02*
X166516262Y-60423980D01*
X166990778Y-61468980D02*
X166516262Y-61468980D01*
X94453520Y-37106480D02*
X96128520Y-37106480D01*
X94453520Y-33986480D02*
X95103520Y-33986480D01*
X94453520Y-33986480D02*
X93803520Y-33986480D01*
X94453520Y-37106480D02*
X93803520Y-37106480D01*
X140791263Y-56073980D02*
X141265779Y-56073980D01*
X140791263Y-57118980D02*
X141265779Y-57118980D01*
X135714772Y-39511480D02*
X135192268Y-39511480D01*
X135714772Y-40981480D02*
X135192268Y-40981480D01*
D14*
X166318520Y-44796479D02*
G75*
G03*
X166318520Y-44796479I-100000J0D01*
G01*
D13*
X81659579Y-38380377D02*
X82117927Y-38503191D01*
X81389113Y-39389769D02*
X81847461Y-39512583D01*
X162463520Y-45405899D02*
X162463520Y-45687059D01*
X161443520Y-45405899D02*
X161443520Y-45687059D01*
X168594100Y-46806479D02*
X168312940Y-46806479D01*
X168594100Y-45786479D02*
X168312940Y-45786479D01*
X140228520Y-31716480D02*
X141558520Y-31716480D01*
X138898520Y-36916480D02*
X141558520Y-36916480D01*
X141558520Y-31716480D02*
X141558520Y-33046480D01*
X141558520Y-34316480D02*
X141558520Y-36916480D01*
X138898520Y-34316480D02*
X141558520Y-34316480D01*
X138898520Y-34316480D02*
X138898520Y-36916480D01*
X90476020Y-49809222D02*
X90476020Y-50283738D01*
X89431020Y-49809222D02*
X89431020Y-50283738D01*
X172278520Y-58981481D02*
X168828520Y-58981481D01*
X172278520Y-58981481D02*
X174228520Y-58981481D01*
X172278520Y-64101481D02*
X170328520Y-64101481D01*
X172278520Y-64101481D02*
X174228520Y-64101481D01*
X177709959Y-33556319D02*
X177734464Y-33836409D01*
X178726078Y-33467421D02*
X178750583Y-33747511D01*
X198431020Y-57559222D02*
X198431020Y-58033738D01*
X199476020Y-57559222D02*
X199476020Y-58033738D01*
X192517037Y-32260101D02*
X192541542Y-32540191D01*
X193533156Y-32171203D02*
X193557661Y-32451293D01*
X178431020Y-67283738D02*
X178431020Y-66809222D01*
X179476020Y-67283738D02*
X179476020Y-66809222D01*
X135643520Y-46635228D02*
X135643520Y-48057732D01*
X137463520Y-46635228D02*
X137463520Y-48057732D01*
X169243520Y-51657731D02*
X169243520Y-50235227D01*
X171063520Y-51657731D02*
X171063520Y-50235227D01*
X168690778Y-44023979D02*
X168216262Y-44023979D01*
X168690778Y-45068979D02*
X168216262Y-45068979D01*
X146131020Y-52109222D02*
X146131020Y-52583738D01*
X147176020Y-52109222D02*
X147176020Y-52583738D01*
X187931020Y-43809222D02*
X187931020Y-44283738D01*
X188976020Y-43809222D02*
X188976020Y-44283738D01*
X86453520Y-45106480D02*
X85653520Y-45106480D01*
X86453520Y-41986480D02*
X84653520Y-41986480D01*
X86453520Y-45106480D02*
X87253520Y-45106480D01*
X86453520Y-41986480D02*
X87253520Y-41986480D01*
X202388520Y-42046480D02*
X202388520Y-40096480D01*
X202388520Y-42046480D02*
X202388520Y-43996480D01*
X193518520Y-42046480D02*
X193518520Y-45496480D01*
X193518520Y-42046480D02*
X193518520Y-40096480D01*
X163845773Y-34586860D02*
X163870278Y-34866950D01*
X162829654Y-34675758D02*
X162854159Y-34955848D01*
X120688912Y-52130299D02*
X121068550Y-52146875D01*
X121497833Y-33602950D02*
X121531856Y-32823692D01*
X102186236Y-57748571D02*
X102466272Y-51334682D01*
X120408875Y-58544189D02*
X102186236Y-57748571D01*
X121531856Y-32823692D02*
X120532808Y-32780073D01*
X103309217Y-32028075D02*
X104308265Y-32071694D01*
X103275194Y-32807332D02*
X103309217Y-32028075D01*
X120408875Y-58544189D02*
X120688912Y-52130299D01*
X171795788Y-37796765D02*
X171695559Y-36651141D01*
X164523567Y-38433002D02*
X171795788Y-37796765D01*
X164044210Y-32953931D02*
X171316431Y-32317694D01*
X186053520Y-55546480D02*
X186053520Y-53546480D01*
X186053520Y-53546480D02*
X188853520Y-53546480D01*
X188853520Y-53546480D02*
X188853520Y-55546480D01*
X188853520Y-55546480D02*
X186053520Y-55546480D01*
X134763522Y-46635228D02*
X134763522Y-48057732D01*
X132943522Y-46635228D02*
X132943522Y-48057732D01*
X214843520Y-37296480D02*
X210993520Y-37296480D01*
X212903520Y-41596480D02*
G75*
G03*
X215259920Y-40095287I0J2600000D01*
G01*
X215226151Y-37874435D02*
G75*
G03*
X214843520Y-37296480I-2322631J-1122045D01*
G01*
X210993520Y-37296480D02*
G75*
G03*
X210601137Y-37884216I1910000J-1700000D01*
G01*
X210547120Y-40095287D02*
G75*
G03*
X212903520Y-41596480I2356400J1098807D01*
G01*
X163253520Y-53346480D02*
X163253520Y-47746480D01*
X168653520Y-53346480D02*
X167503520Y-53346480D01*
X163253520Y-47746480D02*
X164403520Y-47746480D01*
X168653520Y-53346480D02*
X168653520Y-47746480D01*
X163253520Y-53346480D02*
X164403520Y-53346480D01*
X168653520Y-47746480D02*
X167503520Y-47746480D01*
X89843520Y-47656480D02*
X89843520Y-46931480D01*
X94338520Y-47656480D02*
X95063520Y-47656480D01*
X95063520Y-47656480D02*
X95063520Y-46931480D01*
X95063520Y-42436480D02*
X95063520Y-43161480D01*
X90568520Y-47656480D02*
X89843520Y-47656480D01*
X94338520Y-42436480D02*
X95063520Y-42436480D01*
X90568520Y-42436480D02*
X89843520Y-42436480D01*
X167762673Y-26446501D02*
X167553499Y-24055633D01*
X167553499Y-24055633D02*
X169944367Y-23846459D01*
X170153541Y-26237327D02*
X167762673Y-26446501D01*
X169944367Y-23846459D02*
X170153541Y-26237327D01*
X159600374Y-56187060D02*
X159600374Y-55905900D01*
X160620374Y-56187060D02*
X160620374Y-55905900D01*
X179476020Y-57783738D02*
X179476020Y-57309222D01*
X178431020Y-57783738D02*
X178431020Y-57309222D01*
X191443520Y-39905900D02*
X191443520Y-40187060D01*
X192463520Y-39905900D02*
X192463520Y-40187060D01*
X165094100Y-43306479D02*
X164812940Y-43306479D01*
X165094100Y-42286479D02*
X164812940Y-42286479D01*
X145343014Y-148984304D02*
X147477665Y-149516532D01*
X144564026Y-152108656D02*
X148057090Y-152979575D01*
X144564026Y-152108656D02*
X142429375Y-151576428D01*
X145343014Y-148984304D02*
X143208364Y-148452076D01*
X149343521Y-44505899D02*
X149343521Y-44787059D01*
X150363521Y-44505899D02*
X150363521Y-44787059D01*
X123563520Y-42880900D02*
X123563520Y-43162060D01*
X122543520Y-42880900D02*
X122543520Y-43162060D01*
X122443520Y-50180900D02*
X122443520Y-50462060D01*
X123463520Y-50180900D02*
X123463520Y-50462060D01*
X199692268Y-54311480D02*
X200214772Y-54311480D01*
X199692268Y-55781480D02*
X200214772Y-55781480D01*
X78089113Y-51589769D02*
X78547461Y-51712583D01*
X78359579Y-50580377D02*
X78817927Y-50703191D01*
X178718520Y-51746480D02*
X178718520Y-54031480D01*
X178718520Y-54031480D02*
X180188520Y-54031480D01*
X180188520Y-54031480D02*
X180188520Y-51746480D01*
X88453520Y-37106480D02*
X87803520Y-37106480D01*
X88453520Y-37106480D02*
X90128520Y-37106480D01*
X88453520Y-33986480D02*
X89103520Y-33986480D01*
X88453520Y-33986480D02*
X87803520Y-33986480D01*
X137663520Y-36856480D02*
X137663520Y-36381480D01*
X134918520Y-36856480D02*
X134443520Y-36856480D01*
X134918520Y-33636480D02*
X134443520Y-33636480D01*
X134443520Y-36856480D02*
X134443520Y-36381480D01*
X137663520Y-33636480D02*
X137663520Y-34111480D01*
X137188520Y-36856480D02*
X137663520Y-36856480D01*
X137188520Y-33636480D02*
X137663520Y-33636480D01*
X132016262Y-34123979D02*
X132490778Y-34123979D01*
X132016262Y-35168979D02*
X132490778Y-35168979D01*
X216953520Y-31796480D02*
X216953520Y-27896480D01*
X216953520Y-31796480D02*
X218953520Y-31796480D01*
X218953520Y-31796480D02*
X218953520Y-27896480D01*
X174514771Y-66181480D02*
X173992267Y-66181480D01*
X174514771Y-64711480D02*
X173992267Y-64711480D01*
X200039381Y-23622654D02*
X197648513Y-23831828D01*
X197439339Y-21440960D02*
X199830207Y-21231786D01*
X197648513Y-23831828D02*
X197439339Y-21440960D01*
X199830207Y-21231786D02*
X200039381Y-23622654D01*
X140791262Y-54373980D02*
X141265778Y-54373980D01*
X140791262Y-55418980D02*
X141265778Y-55418980D01*
X91431019Y-50283738D02*
X91431019Y-49809222D01*
X92476019Y-50283738D02*
X92476019Y-49809222D01*
X178931020Y-49109222D02*
X178931020Y-49583738D01*
X179976020Y-49109222D02*
X179976020Y-49583738D01*
X193453520Y-48161480D02*
X191253520Y-48161480D01*
X193453520Y-48161480D02*
X195653520Y-48161480D01*
X193453520Y-54931480D02*
X197053520Y-54931480D01*
X193453520Y-54931480D02*
X191253520Y-54931480D01*
X216153520Y-44446480D02*
X212253520Y-44446480D01*
X216153520Y-44446480D02*
X216153520Y-42446480D01*
X216153520Y-42446480D02*
X212253520Y-42446480D01*
X139363520Y-46605900D02*
X139363520Y-46887060D01*
X138343520Y-46605900D02*
X138343520Y-46887060D01*
X124190778Y-48068980D02*
X123716262Y-48068980D01*
X124190778Y-47023980D02*
X123716262Y-47023980D01*
X88763520Y-47787060D02*
X88763520Y-47505900D01*
X87743520Y-47787060D02*
X87743520Y-47505900D01*
X180953520Y-40046480D02*
X184953520Y-40046480D01*
X184953520Y-40046480D02*
X184953520Y-45046480D01*
X184953520Y-45046480D02*
X180953520Y-45046480D01*
X180953520Y-45046480D02*
X180953520Y-40046480D01*
X184453520Y-41546480D02*
G75*
G03*
X184453520Y-41546480I-1500000J0D01*
G01*
X179869100Y-65056480D02*
X179587940Y-65056480D01*
X179869100Y-64036480D02*
X179587940Y-64036480D01*
X86043520Y-47787060D02*
X86043520Y-47505900D01*
X87063520Y-47787060D02*
X87063520Y-47505900D01*
X96931020Y-35309222D02*
X96931020Y-35783738D01*
X97976020Y-35309222D02*
X97976020Y-35783738D01*
X158888520Y-54546480D02*
X158888520Y-56496480D01*
X150018520Y-54546480D02*
X150018520Y-52596480D01*
X150018520Y-54546480D02*
X150018520Y-56496480D01*
X158888520Y-54546480D02*
X158888520Y-51096480D01*
X93431020Y-50283738D02*
X93431020Y-49809222D01*
X94476020Y-50283738D02*
X94476020Y-49809222D01*
X141265778Y-52018980D02*
X140791262Y-52018980D01*
X141265778Y-50973980D02*
X140791262Y-50973980D01*
X194210948Y-36017345D02*
X201483169Y-35381108D01*
X193731591Y-30538274D02*
X201003812Y-29902037D01*
X201483169Y-35381108D02*
X201382940Y-34235484D01*
X187718521Y-40285228D02*
X187718521Y-40807732D01*
X189188521Y-40285228D02*
X189188521Y-40807732D01*
%LPC*%
G36*
X165628520Y-44622479D02*
G01*
X165634520Y-44622479D01*
X165644520Y-44624479D01*
X165659520Y-44630479D01*
X165663520Y-44632479D01*
X165668520Y-44634479D01*
X165672520Y-44637479D01*
X165677520Y-44640479D01*
X165681520Y-44643479D01*
X165685520Y-44647479D01*
X165689520Y-44650479D01*
X165692520Y-44654479D01*
X165696520Y-44658479D01*
X165699520Y-44662479D01*
X165702520Y-44667479D01*
X165705520Y-44671479D01*
X165707520Y-44676479D01*
X165709520Y-44680479D01*
X165715520Y-44695479D01*
X165717520Y-44705479D01*
X165717520Y-44711479D01*
X165718520Y-44716479D01*
X165718520Y-44876479D01*
X165717520Y-44881479D01*
X165717520Y-44887479D01*
X165715520Y-44897479D01*
X165709520Y-44912479D01*
X165707520Y-44916479D01*
X165705520Y-44921479D01*
X165702520Y-44925479D01*
X165699520Y-44930479D01*
X165696520Y-44934479D01*
X165692520Y-44938479D01*
X165689520Y-44942479D01*
X165685520Y-44945479D01*
X165681520Y-44949479D01*
X165677520Y-44952479D01*
X165672520Y-44955479D01*
X165668520Y-44958479D01*
X165663520Y-44960479D01*
X165659520Y-44962479D01*
X165644520Y-44968479D01*
X165634520Y-44970479D01*
X165628520Y-44970479D01*
X165623520Y-44971479D01*
X165113520Y-44971479D01*
X165108520Y-44970479D01*
X165102520Y-44970479D01*
X165092520Y-44968479D01*
X165077520Y-44962479D01*
X165073520Y-44960479D01*
X165068520Y-44958479D01*
X165064520Y-44955479D01*
X165059520Y-44952479D01*
X165055520Y-44949479D01*
X165051520Y-44945479D01*
X165047520Y-44942479D01*
X165044520Y-44938479D01*
X165040520Y-44934479D01*
X165037520Y-44930479D01*
X165034520Y-44925479D01*
X165031520Y-44921479D01*
X165029520Y-44916479D01*
X165027520Y-44912479D01*
X165021520Y-44897479D01*
X165019520Y-44887479D01*
X165019520Y-44881479D01*
X165018520Y-44876479D01*
X165018520Y-44716479D01*
X165019520Y-44711479D01*
X165019520Y-44705479D01*
X165021520Y-44695479D01*
X165027520Y-44680479D01*
X165029520Y-44676479D01*
X165031520Y-44671479D01*
X165034520Y-44667479D01*
X165037520Y-44662479D01*
X165040520Y-44658479D01*
X165044520Y-44654479D01*
X165047520Y-44650479D01*
X165051520Y-44647479D01*
X165055520Y-44643479D01*
X165059520Y-44640479D01*
X165064520Y-44637479D01*
X165068520Y-44634479D01*
X165073520Y-44632479D01*
X165077520Y-44630479D01*
X165092520Y-44624479D01*
X165102520Y-44622479D01*
X165108520Y-44622479D01*
X165113520Y-44621479D01*
X165623520Y-44621479D01*
X165628520Y-44622479D01*
G37*
D15*
X165628520Y-44622479D02*
X165634520Y-44622479D01*
X165644520Y-44624479D01*
X165659520Y-44630479D01*
X165663520Y-44632479D01*
X165668520Y-44634479D01*
X165672520Y-44637479D01*
X165677520Y-44640479D01*
X165681520Y-44643479D01*
X165685520Y-44647479D01*
X165689520Y-44650479D01*
X165692520Y-44654479D01*
X165696520Y-44658479D01*
X165699520Y-44662479D01*
X165702520Y-44667479D01*
X165705520Y-44671479D01*
X165707520Y-44676479D01*
X165709520Y-44680479D01*
X165715520Y-44695479D01*
X165717520Y-44705479D01*
X165717520Y-44711479D01*
X165718520Y-44716479D01*
X165718520Y-44876479D01*
X165717520Y-44881479D01*
X165717520Y-44887479D01*
X165715520Y-44897479D01*
X165709520Y-44912479D01*
X165707520Y-44916479D01*
X165705520Y-44921479D01*
X165702520Y-44925479D01*
X165699520Y-44930479D01*
X165696520Y-44934479D01*
X165692520Y-44938479D01*
X165689520Y-44942479D01*
X165685520Y-44945479D01*
X165681520Y-44949479D01*
X165677520Y-44952479D01*
X165672520Y-44955479D01*
X165668520Y-44958479D01*
X165663520Y-44960479D01*
X165659520Y-44962479D01*
X165644520Y-44968479D01*
X165634520Y-44970479D01*
X165628520Y-44970479D01*
X165623520Y-44971479D01*
X165113520Y-44971479D01*
X165108520Y-44970479D01*
X165102520Y-44970479D01*
X165092520Y-44968479D01*
X165077520Y-44962479D01*
X165073520Y-44960479D01*
X165068520Y-44958479D01*
X165064520Y-44955479D01*
X165059520Y-44952479D01*
X165055520Y-44949479D01*
X165051520Y-44945479D01*
X165047520Y-44942479D01*
X165044520Y-44938479D01*
X165040520Y-44934479D01*
X165037520Y-44930479D01*
X165034520Y-44925479D01*
X165031520Y-44921479D01*
X165029520Y-44916479D01*
X165027520Y-44912479D01*
X165021520Y-44897479D01*
X165019520Y-44887479D01*
X165019520Y-44881479D01*
X165018520Y-44876479D01*
X165018520Y-44716479D01*
X165019520Y-44711479D01*
X165019520Y-44705479D01*
X165021520Y-44695479D01*
X165027520Y-44680479D01*
X165029520Y-44676479D01*
X165031520Y-44671479D01*
X165034520Y-44667479D01*
X165037520Y-44662479D01*
X165040520Y-44658479D01*
X165044520Y-44654479D01*
X165047520Y-44650479D01*
X165051520Y-44647479D01*
X165055520Y-44643479D01*
X165059520Y-44640479D01*
X165064520Y-44637479D01*
X165068520Y-44634479D01*
X165073520Y-44632479D01*
X165077520Y-44630479D01*
X165092520Y-44624479D01*
X165102520Y-44622479D01*
X165108520Y-44622479D01*
X165113520Y-44621479D01*
X165623520Y-44621479D01*
X165628520Y-44622479D01*
G36*
X164536520Y-44347479D02*
G01*
X164538520Y-44347479D01*
X164541520Y-44348479D01*
X164543520Y-44348479D01*
X164546520Y-44349479D01*
X164548520Y-44350479D01*
X164551520Y-44351479D01*
X164553520Y-44353479D01*
X164555520Y-44354479D01*
X164557520Y-44356479D01*
X164559520Y-44357479D01*
X164567520Y-44365479D01*
X164568520Y-44367479D01*
X164570520Y-44369479D01*
X164571520Y-44371479D01*
X164573520Y-44373479D01*
X164574520Y-44376479D01*
X164575520Y-44378479D01*
X164576520Y-44381479D01*
X164576520Y-44383479D01*
X164577520Y-44386479D01*
X164577520Y-44388479D01*
X164578520Y-44391479D01*
X164578520Y-46701479D01*
X164577520Y-46704479D01*
X164577520Y-46706479D01*
X164576520Y-46709479D01*
X164576520Y-46711479D01*
X164575520Y-46714479D01*
X164574520Y-46716479D01*
X164573520Y-46719479D01*
X164571520Y-46721479D01*
X164570520Y-46723479D01*
X164568520Y-46725479D01*
X164567520Y-46727479D01*
X164559520Y-46735479D01*
X164557520Y-46736479D01*
X164555520Y-46738479D01*
X164553520Y-46739479D01*
X164551520Y-46741479D01*
X164548520Y-46742479D01*
X164546520Y-46743479D01*
X164543520Y-46744479D01*
X164541520Y-46744479D01*
X164538520Y-46745479D01*
X164536520Y-46745479D01*
X164533520Y-46746479D01*
X164373520Y-46746479D01*
X164370520Y-46745479D01*
X164368520Y-46745479D01*
X164365520Y-46744479D01*
X164363520Y-46744479D01*
X164360520Y-46743479D01*
X164358520Y-46742479D01*
X164355520Y-46741479D01*
X164353520Y-46739479D01*
X164351520Y-46738479D01*
X164349520Y-46736479D01*
X164347520Y-46735479D01*
X164339520Y-46727479D01*
X164338520Y-46725479D01*
X164336520Y-46723479D01*
X164335520Y-46721479D01*
X164333520Y-46719479D01*
X164332520Y-46716479D01*
X164331520Y-46714479D01*
X164330520Y-46711479D01*
X164330520Y-46709479D01*
X164329520Y-46706479D01*
X164329520Y-46704479D01*
X164328520Y-46701479D01*
X164328520Y-44391479D01*
X164329520Y-44388479D01*
X164329520Y-44386479D01*
X164330520Y-44383479D01*
X164330520Y-44381479D01*
X164331520Y-44378479D01*
X164332520Y-44376479D01*
X164333520Y-44373479D01*
X164335520Y-44371479D01*
X164336520Y-44369479D01*
X164338520Y-44367479D01*
X164339520Y-44365479D01*
X164347520Y-44357479D01*
X164349520Y-44356479D01*
X164351520Y-44354479D01*
X164353520Y-44353479D01*
X164355520Y-44351479D01*
X164358520Y-44350479D01*
X164360520Y-44349479D01*
X164363520Y-44348479D01*
X164365520Y-44348479D01*
X164368520Y-44347479D01*
X164370520Y-44347479D01*
X164373520Y-44346479D01*
X164533520Y-44346479D01*
X164536520Y-44347479D01*
G37*
X164536520Y-44347479D02*
X164538520Y-44347479D01*
X164541520Y-44348479D01*
X164543520Y-44348479D01*
X164546520Y-44349479D01*
X164548520Y-44350479D01*
X164551520Y-44351479D01*
X164553520Y-44353479D01*
X164555520Y-44354479D01*
X164557520Y-44356479D01*
X164559520Y-44357479D01*
X164567520Y-44365479D01*
X164568520Y-44367479D01*
X164570520Y-44369479D01*
X164571520Y-44371479D01*
X164573520Y-44373479D01*
X164574520Y-44376479D01*
X164575520Y-44378479D01*
X164576520Y-44381479D01*
X164576520Y-44383479D01*
X164577520Y-44386479D01*
X164577520Y-44388479D01*
X164578520Y-44391479D01*
X164578520Y-46701479D01*
X164577520Y-46704479D01*
X164577520Y-46706479D01*
X164576520Y-46709479D01*
X164576520Y-46711479D01*
X164575520Y-46714479D01*
X164574520Y-46716479D01*
X164573520Y-46719479D01*
X164571520Y-46721479D01*
X164570520Y-46723479D01*
X164568520Y-46725479D01*
X164567520Y-46727479D01*
X164559520Y-46735479D01*
X164557520Y-46736479D01*
X164555520Y-46738479D01*
X164553520Y-46739479D01*
X164551520Y-46741479D01*
X164548520Y-46742479D01*
X164546520Y-46743479D01*
X164543520Y-46744479D01*
X164541520Y-46744479D01*
X164538520Y-46745479D01*
X164536520Y-46745479D01*
X164533520Y-46746479D01*
X164373520Y-46746479D01*
X164370520Y-46745479D01*
X164368520Y-46745479D01*
X164365520Y-46744479D01*
X164363520Y-46744479D01*
X164360520Y-46743479D01*
X164358520Y-46742479D01*
X164355520Y-46741479D01*
X164353520Y-46739479D01*
X164351520Y-46738479D01*
X164349520Y-46736479D01*
X164347520Y-46735479D01*
X164339520Y-46727479D01*
X164338520Y-46725479D01*
X164336520Y-46723479D01*
X164335520Y-46721479D01*
X164333520Y-46719479D01*
X164332520Y-46716479D01*
X164331520Y-46714479D01*
X164330520Y-46711479D01*
X164330520Y-46709479D01*
X164329520Y-46706479D01*
X164329520Y-46704479D01*
X164328520Y-46701479D01*
X164328520Y-44391479D01*
X164329520Y-44388479D01*
X164329520Y-44386479D01*
X164330520Y-44383479D01*
X164330520Y-44381479D01*
X164331520Y-44378479D01*
X164332520Y-44376479D01*
X164333520Y-44373479D01*
X164335520Y-44371479D01*
X164336520Y-44369479D01*
X164338520Y-44367479D01*
X164339520Y-44365479D01*
X164347520Y-44357479D01*
X164349520Y-44356479D01*
X164351520Y-44354479D01*
X164353520Y-44353479D01*
X164355520Y-44351479D01*
X164358520Y-44350479D01*
X164360520Y-44349479D01*
X164363520Y-44348479D01*
X164365520Y-44348479D01*
X164368520Y-44347479D01*
X164370520Y-44347479D01*
X164373520Y-44346479D01*
X164533520Y-44346479D01*
X164536520Y-44347479D01*
G36*
X165628520Y-46122479D02*
G01*
X165634520Y-46122479D01*
X165644520Y-46124479D01*
X165659520Y-46130479D01*
X165663520Y-46132479D01*
X165668520Y-46134479D01*
X165672520Y-46137479D01*
X165677520Y-46140479D01*
X165681520Y-46143479D01*
X165685520Y-46147479D01*
X165689520Y-46150479D01*
X165692520Y-46154479D01*
X165696520Y-46158479D01*
X165699520Y-46162479D01*
X165702520Y-46167479D01*
X165705520Y-46171479D01*
X165707520Y-46176479D01*
X165709520Y-46180479D01*
X165715520Y-46195479D01*
X165717520Y-46205479D01*
X165717520Y-46211479D01*
X165718520Y-46216479D01*
X165718520Y-46376479D01*
X165717520Y-46381479D01*
X165717520Y-46387479D01*
X165715520Y-46397479D01*
X165709520Y-46412479D01*
X165707520Y-46416479D01*
X165705520Y-46421479D01*
X165702520Y-46425479D01*
X165699520Y-46430479D01*
X165696520Y-46434479D01*
X165692520Y-46438479D01*
X165689520Y-46442479D01*
X165685520Y-46445479D01*
X165681520Y-46449479D01*
X165677520Y-46452479D01*
X165672520Y-46455479D01*
X165668520Y-46458479D01*
X165663520Y-46460479D01*
X165659520Y-46462479D01*
X165644520Y-46468479D01*
X165634520Y-46470479D01*
X165628520Y-46470479D01*
X165623520Y-46471479D01*
X165113520Y-46471479D01*
X165108520Y-46470479D01*
X165102520Y-46470479D01*
X165092520Y-46468479D01*
X165077520Y-46462479D01*
X165073520Y-46460479D01*
X165068520Y-46458479D01*
X165064520Y-46455479D01*
X165059520Y-46452479D01*
X165055520Y-46449479D01*
X165051520Y-46445479D01*
X165047520Y-46442479D01*
X165044520Y-46438479D01*
X165040520Y-46434479D01*
X165037520Y-46430479D01*
X165034520Y-46425479D01*
X165031520Y-46421479D01*
X165029520Y-46416479D01*
X165027520Y-46412479D01*
X165021520Y-46397479D01*
X165019520Y-46387479D01*
X165019520Y-46381479D01*
X165018520Y-46376479D01*
X165018520Y-46216479D01*
X165019520Y-46211479D01*
X165019520Y-46205479D01*
X165021520Y-46195479D01*
X165027520Y-46180479D01*
X165029520Y-46176479D01*
X165031520Y-46171479D01*
X165034520Y-46167479D01*
X165037520Y-46162479D01*
X165040520Y-46158479D01*
X165044520Y-46154479D01*
X165047520Y-46150479D01*
X165051520Y-46147479D01*
X165055520Y-46143479D01*
X165059520Y-46140479D01*
X165064520Y-46137479D01*
X165068520Y-46134479D01*
X165073520Y-46132479D01*
X165077520Y-46130479D01*
X165092520Y-46124479D01*
X165102520Y-46122479D01*
X165108520Y-46122479D01*
X165113520Y-46121479D01*
X165623520Y-46121479D01*
X165628520Y-46122479D01*
G37*
X165628520Y-46122479D02*
X165634520Y-46122479D01*
X165644520Y-46124479D01*
X165659520Y-46130479D01*
X165663520Y-46132479D01*
X165668520Y-46134479D01*
X165672520Y-46137479D01*
X165677520Y-46140479D01*
X165681520Y-46143479D01*
X165685520Y-46147479D01*
X165689520Y-46150479D01*
X165692520Y-46154479D01*
X165696520Y-46158479D01*
X165699520Y-46162479D01*
X165702520Y-46167479D01*
X165705520Y-46171479D01*
X165707520Y-46176479D01*
X165709520Y-46180479D01*
X165715520Y-46195479D01*
X165717520Y-46205479D01*
X165717520Y-46211479D01*
X165718520Y-46216479D01*
X165718520Y-46376479D01*
X165717520Y-46381479D01*
X165717520Y-46387479D01*
X165715520Y-46397479D01*
X165709520Y-46412479D01*
X165707520Y-46416479D01*
X165705520Y-46421479D01*
X165702520Y-46425479D01*
X165699520Y-46430479D01*
X165696520Y-46434479D01*
X165692520Y-46438479D01*
X165689520Y-46442479D01*
X165685520Y-46445479D01*
X165681520Y-46449479D01*
X165677520Y-46452479D01*
X165672520Y-46455479D01*
X165668520Y-46458479D01*
X165663520Y-46460479D01*
X165659520Y-46462479D01*
X165644520Y-46468479D01*
X165634520Y-46470479D01*
X165628520Y-46470479D01*
X165623520Y-46471479D01*
X165113520Y-46471479D01*
X165108520Y-46470479D01*
X165102520Y-46470479D01*
X165092520Y-46468479D01*
X165077520Y-46462479D01*
X165073520Y-46460479D01*
X165068520Y-46458479D01*
X165064520Y-46455479D01*
X165059520Y-46452479D01*
X165055520Y-46449479D01*
X165051520Y-46445479D01*
X165047520Y-46442479D01*
X165044520Y-46438479D01*
X165040520Y-46434479D01*
X165037520Y-46430479D01*
X165034520Y-46425479D01*
X165031520Y-46421479D01*
X165029520Y-46416479D01*
X165027520Y-46412479D01*
X165021520Y-46397479D01*
X165019520Y-46387479D01*
X165019520Y-46381479D01*
X165018520Y-46376479D01*
X165018520Y-46216479D01*
X165019520Y-46211479D01*
X165019520Y-46205479D01*
X165021520Y-46195479D01*
X165027520Y-46180479D01*
X165029520Y-46176479D01*
X165031520Y-46171479D01*
X165034520Y-46167479D01*
X165037520Y-46162479D01*
X165040520Y-46158479D01*
X165044520Y-46154479D01*
X165047520Y-46150479D01*
X165051520Y-46147479D01*
X165055520Y-46143479D01*
X165059520Y-46140479D01*
X165064520Y-46137479D01*
X165068520Y-46134479D01*
X165073520Y-46132479D01*
X165077520Y-46130479D01*
X165092520Y-46124479D01*
X165102520Y-46122479D01*
X165108520Y-46122479D01*
X165113520Y-46121479D01*
X165623520Y-46121479D01*
X165628520Y-46122479D01*
G36*
X165628520Y-45622479D02*
G01*
X165634520Y-45622479D01*
X165644520Y-45624479D01*
X165659520Y-45630479D01*
X165663520Y-45632479D01*
X165668520Y-45634479D01*
X165672520Y-45637479D01*
X165677520Y-45640479D01*
X165681520Y-45643479D01*
X165685520Y-45647479D01*
X165689520Y-45650479D01*
X165692520Y-45654479D01*
X165696520Y-45658479D01*
X165699520Y-45662479D01*
X165702520Y-45667479D01*
X165705520Y-45671479D01*
X165707520Y-45676479D01*
X165709520Y-45680479D01*
X165715520Y-45695479D01*
X165717520Y-45705479D01*
X165717520Y-45711479D01*
X165718520Y-45716479D01*
X165718520Y-45876479D01*
X165717520Y-45881479D01*
X165717520Y-45887479D01*
X165715520Y-45897479D01*
X165709520Y-45912479D01*
X165707520Y-45916479D01*
X165705520Y-45921479D01*
X165702520Y-45925479D01*
X165699520Y-45930479D01*
X165696520Y-45934479D01*
X165692520Y-45938479D01*
X165689520Y-45942479D01*
X165685520Y-45945479D01*
X165681520Y-45949479D01*
X165677520Y-45952479D01*
X165672520Y-45955479D01*
X165668520Y-45958479D01*
X165663520Y-45960479D01*
X165659520Y-45962479D01*
X165644520Y-45968479D01*
X165634520Y-45970479D01*
X165628520Y-45970479D01*
X165623520Y-45971479D01*
X165113520Y-45971479D01*
X165108520Y-45970479D01*
X165102520Y-45970479D01*
X165092520Y-45968479D01*
X165077520Y-45962479D01*
X165073520Y-45960479D01*
X165068520Y-45958479D01*
X165064520Y-45955479D01*
X165059520Y-45952479D01*
X165055520Y-45949479D01*
X165051520Y-45945479D01*
X165047520Y-45942479D01*
X165044520Y-45938479D01*
X165040520Y-45934479D01*
X165037520Y-45930479D01*
X165034520Y-45925479D01*
X165031520Y-45921479D01*
X165029520Y-45916479D01*
X165027520Y-45912479D01*
X165021520Y-45897479D01*
X165019520Y-45887479D01*
X165019520Y-45881479D01*
X165018520Y-45876479D01*
X165018520Y-45716479D01*
X165019520Y-45711479D01*
X165019520Y-45705479D01*
X165021520Y-45695479D01*
X165027520Y-45680479D01*
X165029520Y-45676479D01*
X165031520Y-45671479D01*
X165034520Y-45667479D01*
X165037520Y-45662479D01*
X165040520Y-45658479D01*
X165044520Y-45654479D01*
X165047520Y-45650479D01*
X165051520Y-45647479D01*
X165055520Y-45643479D01*
X165059520Y-45640479D01*
X165064520Y-45637479D01*
X165068520Y-45634479D01*
X165073520Y-45632479D01*
X165077520Y-45630479D01*
X165092520Y-45624479D01*
X165102520Y-45622479D01*
X165108520Y-45622479D01*
X165113520Y-45621479D01*
X165623520Y-45621479D01*
X165628520Y-45622479D01*
G37*
X165628520Y-45622479D02*
X165634520Y-45622479D01*
X165644520Y-45624479D01*
X165659520Y-45630479D01*
X165663520Y-45632479D01*
X165668520Y-45634479D01*
X165672520Y-45637479D01*
X165677520Y-45640479D01*
X165681520Y-45643479D01*
X165685520Y-45647479D01*
X165689520Y-45650479D01*
X165692520Y-45654479D01*
X165696520Y-45658479D01*
X165699520Y-45662479D01*
X165702520Y-45667479D01*
X165705520Y-45671479D01*
X165707520Y-45676479D01*
X165709520Y-45680479D01*
X165715520Y-45695479D01*
X165717520Y-45705479D01*
X165717520Y-45711479D01*
X165718520Y-45716479D01*
X165718520Y-45876479D01*
X165717520Y-45881479D01*
X165717520Y-45887479D01*
X165715520Y-45897479D01*
X165709520Y-45912479D01*
X165707520Y-45916479D01*
X165705520Y-45921479D01*
X165702520Y-45925479D01*
X165699520Y-45930479D01*
X165696520Y-45934479D01*
X165692520Y-45938479D01*
X165689520Y-45942479D01*
X165685520Y-45945479D01*
X165681520Y-45949479D01*
X165677520Y-45952479D01*
X165672520Y-45955479D01*
X165668520Y-45958479D01*
X165663520Y-45960479D01*
X165659520Y-45962479D01*
X165644520Y-45968479D01*
X165634520Y-45970479D01*
X165628520Y-45970479D01*
X165623520Y-45971479D01*
X165113520Y-45971479D01*
X165108520Y-45970479D01*
X165102520Y-45970479D01*
X165092520Y-45968479D01*
X165077520Y-45962479D01*
X165073520Y-45960479D01*
X165068520Y-45958479D01*
X165064520Y-45955479D01*
X165059520Y-45952479D01*
X165055520Y-45949479D01*
X165051520Y-45945479D01*
X165047520Y-45942479D01*
X165044520Y-45938479D01*
X165040520Y-45934479D01*
X165037520Y-45930479D01*
X165034520Y-45925479D01*
X165031520Y-45921479D01*
X165029520Y-45916479D01*
X165027520Y-45912479D01*
X165021520Y-45897479D01*
X165019520Y-45887479D01*
X165019520Y-45881479D01*
X165018520Y-45876479D01*
X165018520Y-45716479D01*
X165019520Y-45711479D01*
X165019520Y-45705479D01*
X165021520Y-45695479D01*
X165027520Y-45680479D01*
X165029520Y-45676479D01*
X165031520Y-45671479D01*
X165034520Y-45667479D01*
X165037520Y-45662479D01*
X165040520Y-45658479D01*
X165044520Y-45654479D01*
X165047520Y-45650479D01*
X165051520Y-45647479D01*
X165055520Y-45643479D01*
X165059520Y-45640479D01*
X165064520Y-45637479D01*
X165068520Y-45634479D01*
X165073520Y-45632479D01*
X165077520Y-45630479D01*
X165092520Y-45624479D01*
X165102520Y-45622479D01*
X165108520Y-45622479D01*
X165113520Y-45621479D01*
X165623520Y-45621479D01*
X165628520Y-45622479D01*
G36*
X164036520Y-44347479D02*
G01*
X164038520Y-44347479D01*
X164041520Y-44348479D01*
X164043520Y-44348479D01*
X164046520Y-44349479D01*
X164048520Y-44350479D01*
X164051520Y-44351479D01*
X164053520Y-44353479D01*
X164055520Y-44354479D01*
X164057520Y-44356479D01*
X164059520Y-44357479D01*
X164067520Y-44365479D01*
X164068520Y-44367479D01*
X164070520Y-44369479D01*
X164071520Y-44371479D01*
X164073520Y-44373479D01*
X164074520Y-44376479D01*
X164075520Y-44378479D01*
X164076520Y-44381479D01*
X164076520Y-44383479D01*
X164077520Y-44386479D01*
X164077520Y-44388479D01*
X164078520Y-44391479D01*
X164078520Y-45501479D01*
X164077520Y-45504479D01*
X164077520Y-45506479D01*
X164076520Y-45509479D01*
X164076520Y-45511479D01*
X164075520Y-45514479D01*
X164074520Y-45516479D01*
X164073520Y-45519479D01*
X164071520Y-45521479D01*
X164070520Y-45523479D01*
X164068520Y-45525479D01*
X164067520Y-45527479D01*
X164059520Y-45535479D01*
X164057520Y-45536479D01*
X164055520Y-45538479D01*
X164053520Y-45539479D01*
X164051520Y-45541479D01*
X164048520Y-45542479D01*
X164046520Y-45543479D01*
X164043520Y-45544479D01*
X164041520Y-45544479D01*
X164038520Y-45545479D01*
X164036520Y-45545479D01*
X164033520Y-45546479D01*
X163823520Y-45546479D01*
X163820520Y-45545479D01*
X163818520Y-45545479D01*
X163815520Y-45544479D01*
X163813520Y-45544479D01*
X163810520Y-45543479D01*
X163808520Y-45542479D01*
X163805520Y-45541479D01*
X163803520Y-45539479D01*
X163801520Y-45538479D01*
X163799520Y-45536479D01*
X163797520Y-45535479D01*
X163789520Y-45527479D01*
X163788520Y-45525479D01*
X163786520Y-45523479D01*
X163785520Y-45521479D01*
X163783520Y-45519479D01*
X163782520Y-45516479D01*
X163781520Y-45514479D01*
X163780520Y-45511479D01*
X163780520Y-45509479D01*
X163779520Y-45506479D01*
X163779520Y-45504479D01*
X163778520Y-45501479D01*
X163778520Y-44391479D01*
X163779520Y-44388479D01*
X163779520Y-44386479D01*
X163780520Y-44383479D01*
X163780520Y-44381479D01*
X163781520Y-44378479D01*
X163782520Y-44376479D01*
X163783520Y-44373479D01*
X163785520Y-44371479D01*
X163786520Y-44369479D01*
X163788520Y-44367479D01*
X163789520Y-44365479D01*
X163797520Y-44357479D01*
X163799520Y-44356479D01*
X163801520Y-44354479D01*
X163803520Y-44353479D01*
X163805520Y-44351479D01*
X163808520Y-44350479D01*
X163810520Y-44349479D01*
X163813520Y-44348479D01*
X163815520Y-44348479D01*
X163818520Y-44347479D01*
X163820520Y-44347479D01*
X163823520Y-44346479D01*
X164033520Y-44346479D01*
X164036520Y-44347479D01*
G37*
X164036520Y-44347479D02*
X164038520Y-44347479D01*
X164041520Y-44348479D01*
X164043520Y-44348479D01*
X164046520Y-44349479D01*
X164048520Y-44350479D01*
X164051520Y-44351479D01*
X164053520Y-44353479D01*
X164055520Y-44354479D01*
X164057520Y-44356479D01*
X164059520Y-44357479D01*
X164067520Y-44365479D01*
X164068520Y-44367479D01*
X164070520Y-44369479D01*
X164071520Y-44371479D01*
X164073520Y-44373479D01*
X164074520Y-44376479D01*
X164075520Y-44378479D01*
X164076520Y-44381479D01*
X164076520Y-44383479D01*
X164077520Y-44386479D01*
X164077520Y-44388479D01*
X164078520Y-44391479D01*
X164078520Y-45501479D01*
X164077520Y-45504479D01*
X164077520Y-45506479D01*
X164076520Y-45509479D01*
X164076520Y-45511479D01*
X164075520Y-45514479D01*
X164074520Y-45516479D01*
X164073520Y-45519479D01*
X164071520Y-45521479D01*
X164070520Y-45523479D01*
X164068520Y-45525479D01*
X164067520Y-45527479D01*
X164059520Y-45535479D01*
X164057520Y-45536479D01*
X164055520Y-45538479D01*
X164053520Y-45539479D01*
X164051520Y-45541479D01*
X164048520Y-45542479D01*
X164046520Y-45543479D01*
X164043520Y-45544479D01*
X164041520Y-45544479D01*
X164038520Y-45545479D01*
X164036520Y-45545479D01*
X164033520Y-45546479D01*
X163823520Y-45546479D01*
X163820520Y-45545479D01*
X163818520Y-45545479D01*
X163815520Y-45544479D01*
X163813520Y-45544479D01*
X163810520Y-45543479D01*
X163808520Y-45542479D01*
X163805520Y-45541479D01*
X163803520Y-45539479D01*
X163801520Y-45538479D01*
X163799520Y-45536479D01*
X163797520Y-45535479D01*
X163789520Y-45527479D01*
X163788520Y-45525479D01*
X163786520Y-45523479D01*
X163785520Y-45521479D01*
X163783520Y-45519479D01*
X163782520Y-45516479D01*
X163781520Y-45514479D01*
X163780520Y-45511479D01*
X163780520Y-45509479D01*
X163779520Y-45506479D01*
X163779520Y-45504479D01*
X163778520Y-45501479D01*
X163778520Y-44391479D01*
X163779520Y-44388479D01*
X163779520Y-44386479D01*
X163780520Y-44383479D01*
X163780520Y-44381479D01*
X163781520Y-44378479D01*
X163782520Y-44376479D01*
X163783520Y-44373479D01*
X163785520Y-44371479D01*
X163786520Y-44369479D01*
X163788520Y-44367479D01*
X163789520Y-44365479D01*
X163797520Y-44357479D01*
X163799520Y-44356479D01*
X163801520Y-44354479D01*
X163803520Y-44353479D01*
X163805520Y-44351479D01*
X163808520Y-44350479D01*
X163810520Y-44349479D01*
X163813520Y-44348479D01*
X163815520Y-44348479D01*
X163818520Y-44347479D01*
X163820520Y-44347479D01*
X163823520Y-44346479D01*
X164033520Y-44346479D01*
X164036520Y-44347479D01*
G36*
X164036520Y-45847479D02*
G01*
X164038520Y-45847479D01*
X164041520Y-45848479D01*
X164043520Y-45848479D01*
X164046520Y-45849479D01*
X164048520Y-45850479D01*
X164051520Y-45851479D01*
X164053520Y-45853479D01*
X164055520Y-45854479D01*
X164057520Y-45856479D01*
X164059520Y-45857479D01*
X164067520Y-45865479D01*
X164068520Y-45867479D01*
X164070520Y-45869479D01*
X164071520Y-45871479D01*
X164073520Y-45873479D01*
X164074520Y-45876479D01*
X164075520Y-45878479D01*
X164076520Y-45881479D01*
X164076520Y-45883479D01*
X164077520Y-45886479D01*
X164077520Y-45888479D01*
X164078520Y-45891479D01*
X164078520Y-46701479D01*
X164077520Y-46704479D01*
X164077520Y-46706479D01*
X164076520Y-46709479D01*
X164076520Y-46711479D01*
X164075520Y-46714479D01*
X164074520Y-46716479D01*
X164073520Y-46719479D01*
X164071520Y-46721479D01*
X164070520Y-46723479D01*
X164068520Y-46725479D01*
X164067520Y-46727479D01*
X164059520Y-46735479D01*
X164057520Y-46736479D01*
X164055520Y-46738479D01*
X164053520Y-46739479D01*
X164051520Y-46741479D01*
X164048520Y-46742479D01*
X164046520Y-46743479D01*
X164043520Y-46744479D01*
X164041520Y-46744479D01*
X164038520Y-46745479D01*
X164036520Y-46745479D01*
X164033520Y-46746479D01*
X163823520Y-46746479D01*
X163820520Y-46745479D01*
X163818520Y-46745479D01*
X163815520Y-46744479D01*
X163813520Y-46744479D01*
X163810520Y-46743479D01*
X163808520Y-46742479D01*
X163805520Y-46741479D01*
X163803520Y-46739479D01*
X163801520Y-46738479D01*
X163799520Y-46736479D01*
X163797520Y-46735479D01*
X163789520Y-46727479D01*
X163788520Y-46725479D01*
X163786520Y-46723479D01*
X163785520Y-46721479D01*
X163783520Y-46719479D01*
X163782520Y-46716479D01*
X163781520Y-46714479D01*
X163780520Y-46711479D01*
X163780520Y-46709479D01*
X163779520Y-46706479D01*
X163779520Y-46704479D01*
X163778520Y-46701479D01*
X163778520Y-45891479D01*
X163779520Y-45888479D01*
X163779520Y-45886479D01*
X163780520Y-45883479D01*
X163780520Y-45881479D01*
X163781520Y-45878479D01*
X163782520Y-45876479D01*
X163783520Y-45873479D01*
X163785520Y-45871479D01*
X163786520Y-45869479D01*
X163788520Y-45867479D01*
X163789520Y-45865479D01*
X163797520Y-45857479D01*
X163799520Y-45856479D01*
X163801520Y-45854479D01*
X163803520Y-45853479D01*
X163805520Y-45851479D01*
X163808520Y-45850479D01*
X163810520Y-45849479D01*
X163813520Y-45848479D01*
X163815520Y-45848479D01*
X163818520Y-45847479D01*
X163820520Y-45847479D01*
X163823520Y-45846479D01*
X164033520Y-45846479D01*
X164036520Y-45847479D01*
G37*
X164036520Y-45847479D02*
X164038520Y-45847479D01*
X164041520Y-45848479D01*
X164043520Y-45848479D01*
X164046520Y-45849479D01*
X164048520Y-45850479D01*
X164051520Y-45851479D01*
X164053520Y-45853479D01*
X164055520Y-45854479D01*
X164057520Y-45856479D01*
X164059520Y-45857479D01*
X164067520Y-45865479D01*
X164068520Y-45867479D01*
X164070520Y-45869479D01*
X164071520Y-45871479D01*
X164073520Y-45873479D01*
X164074520Y-45876479D01*
X164075520Y-45878479D01*
X164076520Y-45881479D01*
X164076520Y-45883479D01*
X164077520Y-45886479D01*
X164077520Y-45888479D01*
X164078520Y-45891479D01*
X164078520Y-46701479D01*
X164077520Y-46704479D01*
X164077520Y-46706479D01*
X164076520Y-46709479D01*
X164076520Y-46711479D01*
X164075520Y-46714479D01*
X164074520Y-46716479D01*
X164073520Y-46719479D01*
X164071520Y-46721479D01*
X164070520Y-46723479D01*
X164068520Y-46725479D01*
X164067520Y-46727479D01*
X164059520Y-46735479D01*
X164057520Y-46736479D01*
X164055520Y-46738479D01*
X164053520Y-46739479D01*
X164051520Y-46741479D01*
X164048520Y-46742479D01*
X164046520Y-46743479D01*
X164043520Y-46744479D01*
X164041520Y-46744479D01*
X164038520Y-46745479D01*
X164036520Y-46745479D01*
X164033520Y-46746479D01*
X163823520Y-46746479D01*
X163820520Y-46745479D01*
X163818520Y-46745479D01*
X163815520Y-46744479D01*
X163813520Y-46744479D01*
X163810520Y-46743479D01*
X163808520Y-46742479D01*
X163805520Y-46741479D01*
X163803520Y-46739479D01*
X163801520Y-46738479D01*
X163799520Y-46736479D01*
X163797520Y-46735479D01*
X163789520Y-46727479D01*
X163788520Y-46725479D01*
X163786520Y-46723479D01*
X163785520Y-46721479D01*
X163783520Y-46719479D01*
X163782520Y-46716479D01*
X163781520Y-46714479D01*
X163780520Y-46711479D01*
X163780520Y-46709479D01*
X163779520Y-46706479D01*
X163779520Y-46704479D01*
X163778520Y-46701479D01*
X163778520Y-45891479D01*
X163779520Y-45888479D01*
X163779520Y-45886479D01*
X163780520Y-45883479D01*
X163780520Y-45881479D01*
X163781520Y-45878479D01*
X163782520Y-45876479D01*
X163783520Y-45873479D01*
X163785520Y-45871479D01*
X163786520Y-45869479D01*
X163788520Y-45867479D01*
X163789520Y-45865479D01*
X163797520Y-45857479D01*
X163799520Y-45856479D01*
X163801520Y-45854479D01*
X163803520Y-45853479D01*
X163805520Y-45851479D01*
X163808520Y-45850479D01*
X163810520Y-45849479D01*
X163813520Y-45848479D01*
X163815520Y-45848479D01*
X163818520Y-45847479D01*
X163820520Y-45847479D01*
X163823520Y-45846479D01*
X164033520Y-45846479D01*
X164036520Y-45847479D01*
G36*
X165628520Y-45122479D02*
G01*
X165634520Y-45122479D01*
X165644520Y-45124479D01*
X165659520Y-45130479D01*
X165663520Y-45132479D01*
X165668520Y-45134479D01*
X165672520Y-45137479D01*
X165677520Y-45140479D01*
X165681520Y-45143479D01*
X165685520Y-45147479D01*
X165689520Y-45150479D01*
X165692520Y-45154479D01*
X165696520Y-45158479D01*
X165699520Y-45162479D01*
X165702520Y-45167479D01*
X165705520Y-45171479D01*
X165707520Y-45176479D01*
X165709520Y-45180479D01*
X165715520Y-45195479D01*
X165717520Y-45205479D01*
X165717520Y-45211479D01*
X165718520Y-45216479D01*
X165718520Y-45376479D01*
X165717520Y-45381479D01*
X165717520Y-45387479D01*
X165715520Y-45397479D01*
X165709520Y-45412479D01*
X165707520Y-45416479D01*
X165705520Y-45421479D01*
X165702520Y-45425479D01*
X165699520Y-45430479D01*
X165696520Y-45434479D01*
X165692520Y-45438479D01*
X165689520Y-45442479D01*
X165685520Y-45445479D01*
X165681520Y-45449479D01*
X165677520Y-45452479D01*
X165672520Y-45455479D01*
X165668520Y-45458479D01*
X165663520Y-45460479D01*
X165659520Y-45462479D01*
X165644520Y-45468479D01*
X165634520Y-45470479D01*
X165628520Y-45470479D01*
X165623520Y-45471479D01*
X165113520Y-45471479D01*
X165108520Y-45470479D01*
X165102520Y-45470479D01*
X165092520Y-45468479D01*
X165077520Y-45462479D01*
X165073520Y-45460479D01*
X165068520Y-45458479D01*
X165064520Y-45455479D01*
X165059520Y-45452479D01*
X165055520Y-45449479D01*
X165051520Y-45445479D01*
X165047520Y-45442479D01*
X165044520Y-45438479D01*
X165040520Y-45434479D01*
X165037520Y-45430479D01*
X165034520Y-45425479D01*
X165031520Y-45421479D01*
X165029520Y-45416479D01*
X165027520Y-45412479D01*
X165021520Y-45397479D01*
X165019520Y-45387479D01*
X165019520Y-45381479D01*
X165018520Y-45376479D01*
X165018520Y-45216479D01*
X165019520Y-45211479D01*
X165019520Y-45205479D01*
X165021520Y-45195479D01*
X165027520Y-45180479D01*
X165029520Y-45176479D01*
X165031520Y-45171479D01*
X165034520Y-45167479D01*
X165037520Y-45162479D01*
X165040520Y-45158479D01*
X165044520Y-45154479D01*
X165047520Y-45150479D01*
X165051520Y-45147479D01*
X165055520Y-45143479D01*
X165059520Y-45140479D01*
X165064520Y-45137479D01*
X165068520Y-45134479D01*
X165073520Y-45132479D01*
X165077520Y-45130479D01*
X165092520Y-45124479D01*
X165102520Y-45122479D01*
X165108520Y-45122479D01*
X165113520Y-45121479D01*
X165623520Y-45121479D01*
X165628520Y-45122479D01*
G37*
X165628520Y-45122479D02*
X165634520Y-45122479D01*
X165644520Y-45124479D01*
X165659520Y-45130479D01*
X165663520Y-45132479D01*
X165668520Y-45134479D01*
X165672520Y-45137479D01*
X165677520Y-45140479D01*
X165681520Y-45143479D01*
X165685520Y-45147479D01*
X165689520Y-45150479D01*
X165692520Y-45154479D01*
X165696520Y-45158479D01*
X165699520Y-45162479D01*
X165702520Y-45167479D01*
X165705520Y-45171479D01*
X165707520Y-45176479D01*
X165709520Y-45180479D01*
X165715520Y-45195479D01*
X165717520Y-45205479D01*
X165717520Y-45211479D01*
X165718520Y-45216479D01*
X165718520Y-45376479D01*
X165717520Y-45381479D01*
X165717520Y-45387479D01*
X165715520Y-45397479D01*
X165709520Y-45412479D01*
X165707520Y-45416479D01*
X165705520Y-45421479D01*
X165702520Y-45425479D01*
X165699520Y-45430479D01*
X165696520Y-45434479D01*
X165692520Y-45438479D01*
X165689520Y-45442479D01*
X165685520Y-45445479D01*
X165681520Y-45449479D01*
X165677520Y-45452479D01*
X165672520Y-45455479D01*
X165668520Y-45458479D01*
X165663520Y-45460479D01*
X165659520Y-45462479D01*
X165644520Y-45468479D01*
X165634520Y-45470479D01*
X165628520Y-45470479D01*
X165623520Y-45471479D01*
X165113520Y-45471479D01*
X165108520Y-45470479D01*
X165102520Y-45470479D01*
X165092520Y-45468479D01*
X165077520Y-45462479D01*
X165073520Y-45460479D01*
X165068520Y-45458479D01*
X165064520Y-45455479D01*
X165059520Y-45452479D01*
X165055520Y-45449479D01*
X165051520Y-45445479D01*
X165047520Y-45442479D01*
X165044520Y-45438479D01*
X165040520Y-45434479D01*
X165037520Y-45430479D01*
X165034520Y-45425479D01*
X165031520Y-45421479D01*
X165029520Y-45416479D01*
X165027520Y-45412479D01*
X165021520Y-45397479D01*
X165019520Y-45387479D01*
X165019520Y-45381479D01*
X165018520Y-45376479D01*
X165018520Y-45216479D01*
X165019520Y-45211479D01*
X165019520Y-45205479D01*
X165021520Y-45195479D01*
X165027520Y-45180479D01*
X165029520Y-45176479D01*
X165031520Y-45171479D01*
X165034520Y-45167479D01*
X165037520Y-45162479D01*
X165040520Y-45158479D01*
X165044520Y-45154479D01*
X165047520Y-45150479D01*
X165051520Y-45147479D01*
X165055520Y-45143479D01*
X165059520Y-45140479D01*
X165064520Y-45137479D01*
X165068520Y-45134479D01*
X165073520Y-45132479D01*
X165077520Y-45130479D01*
X165092520Y-45124479D01*
X165102520Y-45122479D01*
X165108520Y-45122479D01*
X165113520Y-45121479D01*
X165623520Y-45121479D01*
X165628520Y-45122479D01*
D16*
X188178520Y-48546480D03*
D17*
X186728520Y-48546480D03*
D18*
X164537521Y-140276585D03*
X163369519Y-82816375D03*
D19*
X180980295Y-78911317D03*
D20*
X174132873Y-73556617D03*
X153774167Y-149536343D03*
D21*
X167628520Y-42796479D03*
X169278520Y-42796479D03*
D22*
X146653520Y-54921480D03*
X146653520Y-56571480D03*
D23*
X137928520Y-51796480D03*
X129978520Y-51796480D03*
X129978520Y-56296480D03*
X137928520Y-56296480D03*
D24*
X152053520Y-43971479D03*
X152053520Y-46921479D03*
D25*
X185352952Y-82914815D03*
X186000000Y-80500000D03*
X186647048Y-78085185D03*
D21*
X208903520Y-45946480D03*
X210553520Y-45946480D03*
D26*
X147603520Y-48346480D03*
D27*
X141303520Y-46046480D03*
D26*
X147603520Y-46046480D03*
X147603520Y-43746480D03*
D28*
X176453520Y-53333980D03*
X176453520Y-51758980D03*
D29*
X188777413Y-23403365D03*
D30*
X210028520Y-27166480D03*
D31*
X210028520Y-29706480D03*
X210028520Y-32246480D03*
D21*
X99128520Y-43546480D03*
X100778520Y-43546480D03*
D32*
X198953520Y-52821480D03*
X198953520Y-51271480D03*
D33*
X167253520Y-63671480D03*
X167253520Y-65221480D03*
D34*
X206953520Y-31371480D03*
X206953520Y-29721480D03*
D35*
X212253520Y-45946480D03*
X215553520Y-45946480D03*
D21*
X131428520Y-36346480D03*
X133078520Y-36346480D03*
D36*
X188153520Y-58046480D03*
D37*
X190693520Y-58046480D03*
X193233520Y-58046480D03*
X195773520Y-58046480D03*
D38*
X150282793Y-35187632D03*
X150561691Y-38375455D03*
X155443045Y-37948392D03*
X155164147Y-34760569D03*
D39*
X210553520Y-42946480D03*
X208903520Y-42946480D03*
D38*
X180220177Y-32875528D03*
X180499075Y-36063351D03*
X185380429Y-35636288D03*
X185101531Y-32448465D03*
D40*
X179903520Y-60408980D03*
X178953520Y-60408980D03*
X178003520Y-60408980D03*
X178003520Y-62683980D03*
X178953520Y-62683980D03*
X179903520Y-62683980D03*
D34*
X91453520Y-36371480D03*
X91453520Y-34721480D03*
D24*
X156953520Y-44071479D03*
X156953520Y-47021479D03*
D16*
X188178520Y-51546480D03*
D17*
X186728520Y-51546480D03*
D41*
X124953520Y-49596480D03*
X124953520Y-51496480D03*
D24*
X159453520Y-44071479D03*
X159453520Y-47021479D03*
D39*
X141853520Y-53196480D03*
X140203520Y-53196480D03*
D29*
X158891573Y-26018037D03*
X148929626Y-26889595D03*
D42*
X79712914Y-41927884D03*
X78216940Y-47510935D03*
D43*
X81201852Y-41954144D03*
X80994797Y-42726885D03*
D44*
X80684214Y-43885996D03*
X80425395Y-44851922D03*
X80295985Y-45334884D03*
X80037166Y-46300810D03*
D43*
X79726583Y-47459921D03*
X79519528Y-48232662D03*
X79519528Y-48232662D03*
X79726583Y-47459921D03*
D44*
X79907757Y-46783773D03*
X80166576Y-45817847D03*
X80554804Y-44368959D03*
X80813623Y-43403033D03*
D43*
X80994797Y-42726885D03*
X81201852Y-41954144D03*
D45*
X78358770Y-49029383D03*
D46*
X76557396Y-39601920D03*
D45*
X80594966Y-40683784D03*
D46*
X74321200Y-47947520D03*
D29*
X178815466Y-24274922D03*
D47*
X136428520Y-38346481D03*
X134878520Y-38346481D03*
D22*
X176453520Y-48521480D03*
X176453520Y-50171480D03*
D21*
X99128520Y-47546480D03*
X100778520Y-47546480D03*
D48*
X148225340Y-35191967D03*
X148360432Y-36736069D03*
D39*
X167578520Y-60946480D03*
X165928520Y-60946480D03*
D49*
X95391020Y-36496480D03*
X95391020Y-34596480D03*
X93516020Y-35546480D03*
D21*
X140203521Y-56596480D03*
X141853521Y-56596480D03*
D50*
X136403520Y-40246480D03*
X134503520Y-40246480D03*
D51*
X80956631Y-38732954D03*
X82550409Y-39160006D03*
D33*
X161953520Y-44771479D03*
X161953520Y-46321479D03*
D52*
X225953520Y-43546480D03*
D47*
X169228520Y-46296479D03*
X167678520Y-46296479D03*
D36*
X140228520Y-33046480D03*
D37*
X140228520Y-35586480D03*
D22*
X89953520Y-49221480D03*
X89953520Y-50871480D03*
D53*
X169803520Y-59636481D03*
X169803520Y-60906481D03*
X169803520Y-62176481D03*
X169803520Y-63446481D03*
X174753520Y-63446481D03*
X174753520Y-62176481D03*
X174753520Y-60906481D03*
X174753520Y-59636481D03*
D54*
X172278520Y-61541481D03*
D48*
X178162725Y-32879864D03*
X178297817Y-34423966D03*
D22*
X198953520Y-56971480D03*
X198953520Y-58621480D03*
D48*
X192969803Y-31583646D03*
X193104895Y-33127748D03*
D34*
X178953520Y-67871480D03*
X178953520Y-66221480D03*
D24*
X136553520Y-45871480D03*
X136553520Y-48821480D03*
D55*
X170153520Y-52421479D03*
X170153520Y-49471479D03*
D39*
X169278520Y-44546479D03*
X167628520Y-44546479D03*
D22*
X146653520Y-51521480D03*
X146653520Y-53171480D03*
X188453520Y-43221480D03*
X188453520Y-44871480D03*
D56*
X85316020Y-42596480D03*
X85316020Y-43546480D03*
X85316020Y-44496480D03*
X87591020Y-44496480D03*
X87591020Y-43546480D03*
X87591020Y-42596480D03*
D57*
X194143520Y-44521480D03*
X195413520Y-44521480D03*
X196683520Y-44521480D03*
X197953520Y-44521480D03*
X199223520Y-44521480D03*
X200493520Y-44521480D03*
X201763520Y-44521480D03*
X201763520Y-39571480D03*
X200493520Y-39571480D03*
X199223520Y-39571480D03*
X197953520Y-39571480D03*
X196683520Y-39571480D03*
X195413520Y-39571480D03*
X194143520Y-39571480D03*
D48*
X163282420Y-33999303D03*
X163417512Y-35543405D03*
D58*
X120121409Y-50914388D03*
X120176805Y-49645597D03*
X120232202Y-48376805D03*
X120287599Y-47108014D03*
X120342995Y-45839223D03*
X120398392Y-44570432D03*
X120453789Y-43301640D03*
X120509185Y-42032849D03*
X120564582Y-40764058D03*
X120619978Y-39495267D03*
X120675375Y-38226475D03*
X120730772Y-36957684D03*
X120786168Y-35688893D03*
X120841565Y-34420102D03*
D59*
X118102835Y-33299574D03*
X116834044Y-33244177D03*
X115565253Y-33188780D03*
X114296461Y-33133384D03*
X113027670Y-33077987D03*
X111758879Y-33022590D03*
X110490088Y-32967194D03*
X109221296Y-32911797D03*
X107952505Y-32856401D03*
X106683714Y-32801004D03*
D58*
X103857745Y-33678572D03*
X103802349Y-34947363D03*
X103746952Y-36216155D03*
X103691555Y-37484946D03*
X103636159Y-38753737D03*
X103580762Y-40022528D03*
X103525365Y-41291320D03*
X103469969Y-42560111D03*
X103414572Y-43828902D03*
X103359176Y-45097693D03*
X103303779Y-46366485D03*
X103248382Y-47635276D03*
X103192986Y-48904067D03*
X103137589Y-50172858D03*
D60*
X112955693Y-43094381D03*
D38*
X165339873Y-33994968D03*
X165618771Y-37182791D03*
X170500125Y-36755728D03*
X170221227Y-33567905D03*
D16*
X188178520Y-54546480D03*
D17*
X186728520Y-54546480D03*
D24*
X133853522Y-45871480D03*
X133853522Y-48821480D03*
D30*
X215443520Y-38996480D03*
D31*
X212903520Y-38996480D03*
X210363520Y-38996480D03*
D61*
X165953520Y-52596480D03*
X165953520Y-48496480D03*
D62*
X90003520Y-43546480D03*
X90003520Y-44046480D03*
X90003520Y-44546480D03*
X90003520Y-45046480D03*
X90003520Y-45546480D03*
X90003520Y-46046480D03*
X90003520Y-46546480D03*
D63*
X90953520Y-47496480D03*
X91453520Y-47496480D03*
X91953520Y-47496480D03*
X92453520Y-47496480D03*
X92953520Y-47496480D03*
X93453520Y-47496480D03*
X93953520Y-47496480D03*
D62*
X94903520Y-46546480D03*
X94903520Y-46046480D03*
X94903520Y-45546480D03*
X94903520Y-45046480D03*
X94903520Y-44546480D03*
X94903520Y-44046480D03*
X94903520Y-43546480D03*
D63*
X93953520Y-42596480D03*
X93453520Y-42596480D03*
X92953520Y-42596480D03*
X92453520Y-42596480D03*
X91953520Y-42596480D03*
X91453520Y-42596480D03*
X90953520Y-42596480D03*
D64*
X92453520Y-45046480D03*
D29*
X168853520Y-25146480D03*
D32*
X160110374Y-56821480D03*
X160110374Y-55271480D03*
D34*
X178953520Y-58371480D03*
X178953520Y-56721480D03*
D33*
X191953520Y-39271480D03*
X191953520Y-40821480D03*
D47*
X165728520Y-42796479D03*
X164178520Y-42796479D03*
D65*
X147495118Y-152185020D03*
X147652367Y-151554328D03*
X147809616Y-150923635D03*
X147966865Y-150292943D03*
X142411922Y-148907940D03*
X142254673Y-149538632D03*
X142097424Y-150169325D03*
X141940175Y-150800017D03*
D33*
X149853521Y-43871479D03*
X149853521Y-45421479D03*
X123053520Y-42246480D03*
X123053520Y-43796480D03*
X122953520Y-49546480D03*
X122953520Y-51096480D03*
D66*
X199003520Y-55046480D03*
X200903520Y-55046480D03*
D51*
X77656631Y-50932954D03*
X79250409Y-51360006D03*
D28*
X179453520Y-53333980D03*
X179453520Y-51758980D03*
D49*
X89391020Y-36496480D03*
X89391020Y-34596480D03*
X87516020Y-35546480D03*
D67*
X134616020Y-34496480D03*
X134616020Y-34996480D03*
X134616020Y-35496480D03*
X134616020Y-35996480D03*
D68*
X135303520Y-36683980D03*
X135803520Y-36683980D03*
X136303520Y-36683980D03*
X136803520Y-36683980D03*
D67*
X137491020Y-35996480D03*
X137491020Y-35496480D03*
X137491020Y-34996480D03*
X137491020Y-34496480D03*
D68*
X136803520Y-33808980D03*
X136303520Y-33808980D03*
X135803520Y-33808980D03*
X135303520Y-33808980D03*
D69*
X136053520Y-35246480D03*
D21*
X131428520Y-34646479D03*
X133078520Y-34646479D03*
D70*
X217953520Y-31196480D03*
X217953520Y-27896480D03*
D50*
X175203519Y-65446480D03*
X173303519Y-65446480D03*
D29*
X198739360Y-22531807D03*
D21*
X140203520Y-54896480D03*
X141853520Y-54896480D03*
D34*
X91953519Y-50871480D03*
X91953519Y-49221480D03*
D22*
X179453520Y-48521480D03*
X179453520Y-50171480D03*
D71*
X196316020Y-54471480D03*
X196316020Y-53821480D03*
X196316020Y-53171480D03*
X196316020Y-52521480D03*
X196316020Y-51871480D03*
X196316020Y-51221480D03*
X196316020Y-50571480D03*
X196316020Y-49921480D03*
X196316020Y-49271480D03*
X196316020Y-48621480D03*
X190591020Y-48621480D03*
X190591020Y-49271480D03*
X190591020Y-49921480D03*
X190591020Y-50571480D03*
X190591020Y-51221480D03*
X190591020Y-51871480D03*
X190591020Y-52521480D03*
X190591020Y-53171480D03*
X190591020Y-53821480D03*
X190591020Y-54471480D03*
D35*
X215553520Y-43446480D03*
X212253520Y-43446480D03*
D33*
X138853520Y-45971480D03*
X138853520Y-47521480D03*
D39*
X124778520Y-47546480D03*
X123128520Y-47546480D03*
D32*
X88253520Y-48421480D03*
X88253520Y-46871480D03*
D72*
X179953520Y-41276480D03*
X179953520Y-43816480D03*
X185953520Y-43816480D03*
X185953520Y-41276480D03*
D47*
X180503520Y-64546480D03*
X178953520Y-64546480D03*
D32*
X86553520Y-48421480D03*
X86553520Y-46871480D03*
D22*
X97453520Y-34721480D03*
X97453520Y-36371480D03*
D73*
X158263520Y-52071480D03*
X156993520Y-52071480D03*
X155723520Y-52071480D03*
X154453520Y-52071480D03*
X153183520Y-52071480D03*
X151913520Y-52071480D03*
X150643520Y-52071480D03*
X150643520Y-57021480D03*
X151913520Y-57021480D03*
X153183520Y-57021480D03*
X154453520Y-57021480D03*
X155723520Y-57021480D03*
X156993520Y-57021480D03*
X158263520Y-57021480D03*
D34*
X93953520Y-50871480D03*
X93953520Y-49221480D03*
D39*
X141853520Y-51496480D03*
X140203520Y-51496480D03*
D38*
X195027254Y-31579311D03*
X195306152Y-34767134D03*
X200187506Y-34340071D03*
X199908608Y-31152248D03*
D41*
X188453521Y-39596480D03*
X188453521Y-41496480D03*
D36*
X214953520Y-30586480D03*
D37*
X214953520Y-28046480D03*
D18*
X178824332Y-86957480D03*
D19*
X165525482Y-74770213D03*
D18*
X149082708Y-136135480D03*
M02*
