%FSLAX45Y45*%
G04 Gerber Fmt 4.5, Leading zero omitted, Abs format (unit mm)*
G04 Created by KiCad (PCBNEW (6.0.5-0)) date 2022-11-26 13:28:32*
%MOMM*%
%LPD*%
G01*
G04 APERTURE LIST*
%TA.AperFunction,Profile*%
%ADD10C,0.100000*%
%TD*%
%TA.AperFunction,Profile*%
%ADD11C,0.150000*%
%TD*%
%ADD12C,0.200000*%
%ADD13C,0.065000*%
%ADD14C,0.239000*%
%ADD15C,0.345000*%
G04 APERTURE END LIST*
D10*
X15316364Y-6033893D02*
X15316364Y-6033893D01*
X13727128Y-15282209D02*
X13727130Y-15282207D01*
X22796623Y-3676479D02*
X22796623Y-3676479D01*
X16019054Y-6736585D02*
X16019054Y-6736585D01*
X21441966Y-2000700D02*
X21441966Y-2000700D01*
X13727130Y-15282207D02*
X16670464Y-16008596D01*
X15316364Y-6033893D02*
X16019054Y-6736585D01*
X22788344Y-6151169D02*
X22796623Y-3676479D01*
X6894081Y-5661748D02*
X6894081Y-5661748D01*
X22796623Y-3676479D02*
X22791454Y-2527383D01*
X7541432Y-3245798D02*
X6894081Y-5661748D01*
X22791454Y-2527383D02*
X22791454Y-2527383D01*
X16019054Y-6736585D02*
X13727128Y-15282209D01*
X18917693Y-7621819D02*
X18917693Y-7621819D01*
X18917693Y-7621819D02*
X19283165Y-7621819D01*
X20009126Y-6895858D02*
X22788344Y-6151169D01*
X7541432Y-3245798D02*
X7541432Y-3245798D01*
X16670464Y-16008596D02*
X16670464Y-16008596D01*
D11*
X21145352Y-6254648D02*
G75*
G03*
X21145352Y-6254648I-200000J0D01*
G01*
X16595352Y-15554648D02*
G75*
G03*
X16595352Y-15554648I-200000J0D01*
G01*
D10*
X22595352Y-5654648D02*
G75*
G03*
X22595352Y-5654648I-200000J0D01*
G01*
D11*
X8445352Y-5354648D02*
G75*
G03*
X8445352Y-5354648I-200000J0D01*
G01*
D10*
X22788344Y-6151169D02*
X22788344Y-6151169D01*
X20009126Y-6895858D02*
X20009126Y-6895858D01*
X19283165Y-7621819D02*
X19283165Y-7621819D01*
X16670464Y-16008596D02*
X18917693Y-7621819D01*
X19283165Y-7621819D02*
X20009126Y-6895858D01*
X6894081Y-5661748D02*
X15316364Y-6033893D01*
X13727128Y-15282209D02*
X13727128Y-15282209D01*
X22595352Y-3054648D02*
G75*
G03*
X22595352Y-3054648I-200000J0D01*
G01*
D11*
X20695352Y-2454648D02*
G75*
G03*
X20695352Y-2454648I-200000J0D01*
G01*
D10*
X21441966Y-2000700D02*
X7541432Y-3245798D01*
X22791454Y-2527383D02*
X21441966Y-2000700D01*
D12*
D13*
X7789194Y-4718594D02*
X7854194Y-4783594D01*
X7854194Y-4718594D02*
X7789194Y-4783594D01*
X7938791Y-4160288D02*
X8003791Y-4225288D01*
X8003791Y-4160288D02*
X7938791Y-4225288D01*
D14*
X16672048Y-7477021D02*
G75*
G03*
X16672048Y-7477021I-119500J0D01*
G01*
X18217530Y-7891132D02*
G75*
G03*
X18217530Y-7891132I-119500J0D01*
G01*
D15*
X14908271Y-13441048D02*
X14908271Y-13786048D01*
X14735771Y-13613548D02*
X15080771Y-13613548D01*
X16336952Y-8109137D02*
X16336952Y-8454138D01*
X16164452Y-8281637D02*
X16509452Y-8281637D01*
X16453752Y-13855158D02*
X16453752Y-14200158D01*
X16281252Y-14027658D02*
X16626252Y-14027658D01*
X17882433Y-8523248D02*
X17882433Y-8868248D01*
X17709933Y-8695748D02*
X18054933Y-8695748D01*
D12*
X7146700Y-16324072D02*
X7146700Y-16124072D01*
X7194319Y-16124072D01*
X7222890Y-16133596D01*
X7241938Y-16152643D01*
X7251462Y-16171691D01*
X7260985Y-16209786D01*
X7260985Y-16238358D01*
X7251462Y-16276453D01*
X7241938Y-16295500D01*
X7222890Y-16314548D01*
X7194319Y-16324072D01*
X7146700Y-16324072D01*
X7346700Y-16324072D02*
X7346700Y-16190739D01*
X7346700Y-16228834D02*
X7356224Y-16209786D01*
X7365747Y-16200262D01*
X7384795Y-16190739D01*
X7403843Y-16190739D01*
X7470509Y-16324072D02*
X7470509Y-16190739D01*
X7470509Y-16124072D02*
X7460985Y-16133596D01*
X7470509Y-16143120D01*
X7480033Y-16133596D01*
X7470509Y-16124072D01*
X7470509Y-16143120D01*
X7594319Y-16324072D02*
X7575271Y-16314548D01*
X7565747Y-16295500D01*
X7565747Y-16124072D01*
X7699081Y-16324072D02*
X7680033Y-16314548D01*
X7670509Y-16295500D01*
X7670509Y-16124072D01*
X7927652Y-16324072D02*
X7927652Y-16124072D01*
X7994319Y-16266929D01*
X8060985Y-16124072D01*
X8060985Y-16324072D01*
X8241938Y-16324072D02*
X8241938Y-16219310D01*
X8232414Y-16200262D01*
X8213366Y-16190739D01*
X8175271Y-16190739D01*
X8156224Y-16200262D01*
X8241938Y-16314548D02*
X8222890Y-16324072D01*
X8175271Y-16324072D01*
X8156224Y-16314548D01*
X8146700Y-16295500D01*
X8146700Y-16276453D01*
X8156224Y-16257405D01*
X8175271Y-16247881D01*
X8222890Y-16247881D01*
X8241938Y-16238358D01*
X8337176Y-16190739D02*
X8337176Y-16390739D01*
X8337176Y-16200262D02*
X8356224Y-16190739D01*
X8394319Y-16190739D01*
X8413367Y-16200262D01*
X8422890Y-16209786D01*
X8432414Y-16228834D01*
X8432414Y-16285977D01*
X8422890Y-16305024D01*
X8413367Y-16314548D01*
X8394319Y-16324072D01*
X8356224Y-16324072D01*
X8337176Y-16314548D01*
X8518128Y-16305024D02*
X8527652Y-16314548D01*
X8518128Y-16324072D01*
X8508605Y-16314548D01*
X8518128Y-16305024D01*
X8518128Y-16324072D01*
X8518128Y-16200262D02*
X8527652Y-16209786D01*
X8518128Y-16219310D01*
X8508605Y-16209786D01*
X8518128Y-16200262D01*
X8518128Y-16219310D01*
D13*
X6824081Y-16621096D02*
X6889081Y-16686096D01*
X6889081Y-16621096D02*
X6824081Y-16686096D01*
D12*
X7184795Y-16544072D02*
X7203843Y-16544072D01*
X7222890Y-16553596D01*
X7232414Y-16563120D01*
X7241938Y-16582167D01*
X7251462Y-16620262D01*
X7251462Y-16667881D01*
X7241938Y-16705977D01*
X7232414Y-16725024D01*
X7222890Y-16734548D01*
X7203843Y-16744072D01*
X7184795Y-16744072D01*
X7165747Y-16734548D01*
X7156224Y-16725024D01*
X7146700Y-16705977D01*
X7137176Y-16667881D01*
X7137176Y-16620262D01*
X7146700Y-16582167D01*
X7156224Y-16563120D01*
X7165747Y-16553596D01*
X7184795Y-16544072D01*
X7337176Y-16725024D02*
X7346700Y-16734548D01*
X7337176Y-16744072D01*
X7327652Y-16734548D01*
X7337176Y-16725024D01*
X7337176Y-16744072D01*
X7518128Y-16544072D02*
X7480033Y-16544072D01*
X7460985Y-16553596D01*
X7451462Y-16563120D01*
X7432414Y-16591691D01*
X7422890Y-16629786D01*
X7422890Y-16705977D01*
X7432414Y-16725024D01*
X7441938Y-16734548D01*
X7460985Y-16744072D01*
X7499081Y-16744072D01*
X7518128Y-16734548D01*
X7527652Y-16725024D01*
X7537176Y-16705977D01*
X7537176Y-16658358D01*
X7527652Y-16639310D01*
X7518128Y-16629786D01*
X7499081Y-16620262D01*
X7460985Y-16620262D01*
X7441938Y-16629786D01*
X7432414Y-16639310D01*
X7422890Y-16658358D01*
X7718128Y-16544072D02*
X7622890Y-16544072D01*
X7613366Y-16639310D01*
X7622890Y-16629786D01*
X7641938Y-16620262D01*
X7689557Y-16620262D01*
X7708605Y-16629786D01*
X7718128Y-16639310D01*
X7727652Y-16658358D01*
X7727652Y-16705977D01*
X7718128Y-16725024D01*
X7708605Y-16734548D01*
X7689557Y-16744072D01*
X7641938Y-16744072D01*
X7622890Y-16734548D01*
X7613366Y-16725024D01*
X7851462Y-16544072D02*
X7870509Y-16544072D01*
X7889557Y-16553596D01*
X7899081Y-16563120D01*
X7908605Y-16582167D01*
X7918128Y-16620262D01*
X7918128Y-16667881D01*
X7908605Y-16705977D01*
X7899081Y-16725024D01*
X7889557Y-16734548D01*
X7870509Y-16744072D01*
X7851462Y-16744072D01*
X7832414Y-16734548D01*
X7822890Y-16725024D01*
X7813366Y-16705977D01*
X7803843Y-16667881D01*
X7803843Y-16620262D01*
X7813366Y-16582167D01*
X7822890Y-16563120D01*
X7832414Y-16553596D01*
X7851462Y-16544072D01*
X8003843Y-16744072D02*
X8003843Y-16610739D01*
X8003843Y-16629786D02*
X8013366Y-16620262D01*
X8032414Y-16610739D01*
X8060985Y-16610739D01*
X8080033Y-16620262D01*
X8089557Y-16639310D01*
X8089557Y-16744072D01*
X8089557Y-16639310D02*
X8099081Y-16620262D01*
X8118128Y-16610739D01*
X8146700Y-16610739D01*
X8165747Y-16620262D01*
X8175271Y-16639310D01*
X8175271Y-16744072D01*
X8270509Y-16744072D02*
X8270509Y-16610739D01*
X8270509Y-16629786D02*
X8280033Y-16620262D01*
X8299081Y-16610739D01*
X8327652Y-16610739D01*
X8346700Y-16620262D01*
X8356224Y-16639310D01*
X8356224Y-16744072D01*
X8356224Y-16639310D02*
X8365747Y-16620262D01*
X8384795Y-16610739D01*
X8413367Y-16610739D01*
X8432414Y-16620262D01*
X8441938Y-16639310D01*
X8441938Y-16744072D01*
X8832414Y-16534548D02*
X8660986Y-16791691D01*
X9089557Y-16544072D02*
X9108605Y-16544072D01*
X9127652Y-16553596D01*
X9137176Y-16563120D01*
X9146700Y-16582167D01*
X9156224Y-16620262D01*
X9156224Y-16667881D01*
X9146700Y-16705977D01*
X9137176Y-16725024D01*
X9127652Y-16734548D01*
X9108605Y-16744072D01*
X9089557Y-16744072D01*
X9070509Y-16734548D01*
X9060986Y-16725024D01*
X9051462Y-16705977D01*
X9041938Y-16667881D01*
X9041938Y-16620262D01*
X9051462Y-16582167D01*
X9060986Y-16563120D01*
X9070509Y-16553596D01*
X9089557Y-16544072D01*
X9241938Y-16725024D02*
X9251462Y-16734548D01*
X9241938Y-16744072D01*
X9232414Y-16734548D01*
X9241938Y-16725024D01*
X9241938Y-16744072D01*
X9375271Y-16544072D02*
X9394319Y-16544072D01*
X9413367Y-16553596D01*
X9422890Y-16563120D01*
X9432414Y-16582167D01*
X9441938Y-16620262D01*
X9441938Y-16667881D01*
X9432414Y-16705977D01*
X9422890Y-16725024D01*
X9413367Y-16734548D01*
X9394319Y-16744072D01*
X9375271Y-16744072D01*
X9356224Y-16734548D01*
X9346700Y-16725024D01*
X9337176Y-16705977D01*
X9327652Y-16667881D01*
X9327652Y-16620262D01*
X9337176Y-16582167D01*
X9346700Y-16563120D01*
X9356224Y-16553596D01*
X9375271Y-16544072D01*
X9518128Y-16563120D02*
X9527652Y-16553596D01*
X9546700Y-16544072D01*
X9594319Y-16544072D01*
X9613367Y-16553596D01*
X9622890Y-16563120D01*
X9632414Y-16582167D01*
X9632414Y-16601215D01*
X9622890Y-16629786D01*
X9508605Y-16744072D01*
X9632414Y-16744072D01*
X9813367Y-16544072D02*
X9718128Y-16544072D01*
X9708605Y-16639310D01*
X9718128Y-16629786D01*
X9737176Y-16620262D01*
X9784795Y-16620262D01*
X9803843Y-16629786D01*
X9813367Y-16639310D01*
X9822890Y-16658358D01*
X9822890Y-16705977D01*
X9813367Y-16725024D01*
X9803843Y-16734548D01*
X9784795Y-16744072D01*
X9737176Y-16744072D01*
X9718128Y-16734548D01*
X9708605Y-16725024D01*
X9994319Y-16544072D02*
X9956224Y-16544072D01*
X9937176Y-16553596D01*
X9927652Y-16563120D01*
X9908605Y-16591691D01*
X9899081Y-16629786D01*
X9899081Y-16705977D01*
X9908605Y-16725024D01*
X9918128Y-16734548D01*
X9937176Y-16744072D01*
X9975271Y-16744072D01*
X9994319Y-16734548D01*
X10003843Y-16725024D01*
X10013367Y-16705977D01*
X10013367Y-16658358D01*
X10003843Y-16639310D01*
X9994319Y-16629786D01*
X9975271Y-16620262D01*
X9937176Y-16620262D01*
X9918128Y-16629786D01*
X9908605Y-16639310D01*
X9899081Y-16658358D01*
X10089557Y-16544072D02*
X10089557Y-16582167D01*
X10165747Y-16544072D02*
X10165747Y-16582167D01*
X10460986Y-16820262D02*
X10451462Y-16810739D01*
X10432414Y-16782167D01*
X10422890Y-16763120D01*
X10413367Y-16734548D01*
X10403843Y-16686929D01*
X10403843Y-16648834D01*
X10413367Y-16601215D01*
X10422890Y-16572643D01*
X10432414Y-16553596D01*
X10451462Y-16525024D01*
X10460986Y-16515500D01*
X10527652Y-16563120D02*
X10537176Y-16553596D01*
X10556224Y-16544072D01*
X10603843Y-16544072D01*
X10622890Y-16553596D01*
X10632414Y-16563120D01*
X10641938Y-16582167D01*
X10641938Y-16601215D01*
X10632414Y-16629786D01*
X10518128Y-16744072D01*
X10641938Y-16744072D01*
X10880033Y-16744072D02*
X10880033Y-16544072D01*
X10965747Y-16744072D02*
X10965747Y-16639310D01*
X10956224Y-16620262D01*
X10937176Y-16610739D01*
X10908605Y-16610739D01*
X10889557Y-16620262D01*
X10880033Y-16629786D01*
X11089557Y-16744072D02*
X11070509Y-16734548D01*
X11060986Y-16725024D01*
X11051462Y-16705977D01*
X11051462Y-16648834D01*
X11060986Y-16629786D01*
X11070509Y-16620262D01*
X11089557Y-16610739D01*
X11118128Y-16610739D01*
X11137176Y-16620262D01*
X11146700Y-16629786D01*
X11156224Y-16648834D01*
X11156224Y-16705977D01*
X11146700Y-16725024D01*
X11137176Y-16734548D01*
X11118128Y-16744072D01*
X11089557Y-16744072D01*
X11270509Y-16744072D02*
X11251462Y-16734548D01*
X11241938Y-16715500D01*
X11241938Y-16544072D01*
X11422890Y-16734548D02*
X11403843Y-16744072D01*
X11365747Y-16744072D01*
X11346700Y-16734548D01*
X11337176Y-16715500D01*
X11337176Y-16639310D01*
X11346700Y-16620262D01*
X11365747Y-16610739D01*
X11403843Y-16610739D01*
X11422890Y-16620262D01*
X11432414Y-16639310D01*
X11432414Y-16658358D01*
X11337176Y-16677405D01*
X11508605Y-16734548D02*
X11527652Y-16744072D01*
X11565747Y-16744072D01*
X11584795Y-16734548D01*
X11594319Y-16715500D01*
X11594319Y-16705977D01*
X11584795Y-16686929D01*
X11565747Y-16677405D01*
X11537176Y-16677405D01*
X11518128Y-16667881D01*
X11508605Y-16648834D01*
X11508605Y-16639310D01*
X11518128Y-16620262D01*
X11537176Y-16610739D01*
X11565747Y-16610739D01*
X11584795Y-16620262D01*
X11660985Y-16820262D02*
X11670509Y-16810739D01*
X11689557Y-16782167D01*
X11699081Y-16763120D01*
X11708605Y-16734548D01*
X11718128Y-16686929D01*
X11718128Y-16648834D01*
X11708605Y-16601215D01*
X11699081Y-16572643D01*
X11689557Y-16553596D01*
X11670509Y-16525024D01*
X11660985Y-16515500D01*
X12022890Y-16820262D02*
X12013366Y-16810739D01*
X11994319Y-16782167D01*
X11984795Y-16763120D01*
X11975271Y-16734548D01*
X11965747Y-16686929D01*
X11965747Y-16648834D01*
X11975271Y-16601215D01*
X11984795Y-16572643D01*
X11994319Y-16553596D01*
X12013366Y-16525024D01*
X12022890Y-16515500D01*
X12099081Y-16610739D02*
X12099081Y-16744072D01*
X12099081Y-16629786D02*
X12108605Y-16620262D01*
X12127652Y-16610739D01*
X12156224Y-16610739D01*
X12175271Y-16620262D01*
X12184795Y-16639310D01*
X12184795Y-16744072D01*
X12308605Y-16744072D02*
X12289557Y-16734548D01*
X12280033Y-16725024D01*
X12270509Y-16705977D01*
X12270509Y-16648834D01*
X12280033Y-16629786D01*
X12289557Y-16620262D01*
X12308605Y-16610739D01*
X12337176Y-16610739D01*
X12356224Y-16620262D01*
X12365747Y-16629786D01*
X12375271Y-16648834D01*
X12375271Y-16705977D01*
X12365747Y-16725024D01*
X12356224Y-16734548D01*
X12337176Y-16744072D01*
X12308605Y-16744072D01*
X12432414Y-16610739D02*
X12508605Y-16610739D01*
X12460985Y-16544072D02*
X12460985Y-16715500D01*
X12470509Y-16734548D01*
X12489557Y-16744072D01*
X12508605Y-16744072D01*
X12727652Y-16610739D02*
X12727652Y-16810739D01*
X12727652Y-16620262D02*
X12746700Y-16610739D01*
X12784795Y-16610739D01*
X12803843Y-16620262D01*
X12813366Y-16629786D01*
X12822890Y-16648834D01*
X12822890Y-16705977D01*
X12813366Y-16725024D01*
X12803843Y-16734548D01*
X12784795Y-16744072D01*
X12746700Y-16744072D01*
X12727652Y-16734548D01*
X12937176Y-16744072D02*
X12918128Y-16734548D01*
X12908605Y-16715500D01*
X12908605Y-16544072D01*
X13099081Y-16744072D02*
X13099081Y-16639310D01*
X13089557Y-16620262D01*
X13070509Y-16610739D01*
X13032414Y-16610739D01*
X13013366Y-16620262D01*
X13099081Y-16734548D02*
X13080033Y-16744072D01*
X13032414Y-16744072D01*
X13013366Y-16734548D01*
X13003843Y-16715500D01*
X13003843Y-16696453D01*
X13013366Y-16677405D01*
X13032414Y-16667881D01*
X13080033Y-16667881D01*
X13099081Y-16658358D01*
X13165747Y-16610739D02*
X13241938Y-16610739D01*
X13194319Y-16544072D02*
X13194319Y-16715500D01*
X13203843Y-16734548D01*
X13222890Y-16744072D01*
X13241938Y-16744072D01*
X13384795Y-16734548D02*
X13365747Y-16744072D01*
X13327652Y-16744072D01*
X13308605Y-16734548D01*
X13299081Y-16715500D01*
X13299081Y-16639310D01*
X13308605Y-16620262D01*
X13327652Y-16610739D01*
X13365747Y-16610739D01*
X13384795Y-16620262D01*
X13394319Y-16639310D01*
X13394319Y-16658358D01*
X13299081Y-16677405D01*
X13565747Y-16744072D02*
X13565747Y-16544072D01*
X13565747Y-16734548D02*
X13546700Y-16744072D01*
X13508605Y-16744072D01*
X13489557Y-16734548D01*
X13480033Y-16725024D01*
X13470509Y-16705977D01*
X13470509Y-16648834D01*
X13480033Y-16629786D01*
X13489557Y-16620262D01*
X13508605Y-16610739D01*
X13546700Y-16610739D01*
X13565747Y-16620262D01*
X13641938Y-16820262D02*
X13651462Y-16810739D01*
X13670509Y-16782167D01*
X13680033Y-16763120D01*
X13689557Y-16734548D01*
X13699081Y-16686929D01*
X13699081Y-16648834D01*
X13689557Y-16601215D01*
X13680033Y-16572643D01*
X13670509Y-16553596D01*
X13651462Y-16525024D01*
X13641938Y-16515500D01*
X6889081Y-16917596D02*
G75*
G03*
X6889081Y-16917596I-100000J0D01*
G01*
X7137176Y-16827120D02*
X7146700Y-16817596D01*
X7165747Y-16808072D01*
X7213366Y-16808072D01*
X7232414Y-16817596D01*
X7241938Y-16827120D01*
X7251462Y-16846167D01*
X7251462Y-16865215D01*
X7241938Y-16893786D01*
X7127652Y-17008072D01*
X7251462Y-17008072D01*
X7337176Y-16989024D02*
X7346700Y-16998548D01*
X7337176Y-17008072D01*
X7327652Y-16998548D01*
X7337176Y-16989024D01*
X7337176Y-17008072D01*
X7413366Y-16808072D02*
X7537176Y-16808072D01*
X7470509Y-16884262D01*
X7499081Y-16884262D01*
X7518128Y-16893786D01*
X7527652Y-16903310D01*
X7537176Y-16922358D01*
X7537176Y-16969977D01*
X7527652Y-16989024D01*
X7518128Y-16998548D01*
X7499081Y-17008072D01*
X7441938Y-17008072D01*
X7422890Y-16998548D01*
X7413366Y-16989024D01*
X7632414Y-17008072D02*
X7670509Y-17008072D01*
X7689557Y-16998548D01*
X7699081Y-16989024D01*
X7718128Y-16960453D01*
X7727652Y-16922358D01*
X7727652Y-16846167D01*
X7718128Y-16827120D01*
X7708605Y-16817596D01*
X7689557Y-16808072D01*
X7651462Y-16808072D01*
X7632414Y-16817596D01*
X7622890Y-16827120D01*
X7613366Y-16846167D01*
X7613366Y-16893786D01*
X7622890Y-16912834D01*
X7632414Y-16922358D01*
X7651462Y-16931882D01*
X7689557Y-16931882D01*
X7708605Y-16922358D01*
X7718128Y-16912834D01*
X7727652Y-16893786D01*
X7851462Y-16808072D02*
X7870509Y-16808072D01*
X7889557Y-16817596D01*
X7899081Y-16827120D01*
X7908605Y-16846167D01*
X7918128Y-16884262D01*
X7918128Y-16931882D01*
X7908605Y-16969977D01*
X7899081Y-16989024D01*
X7889557Y-16998548D01*
X7870509Y-17008072D01*
X7851462Y-17008072D01*
X7832414Y-16998548D01*
X7822890Y-16989024D01*
X7813366Y-16969977D01*
X7803843Y-16931882D01*
X7803843Y-16884262D01*
X7813366Y-16846167D01*
X7822890Y-16827120D01*
X7832414Y-16817596D01*
X7851462Y-16808072D01*
X8003843Y-17008072D02*
X8003843Y-16874739D01*
X8003843Y-16893786D02*
X8013366Y-16884262D01*
X8032414Y-16874739D01*
X8060985Y-16874739D01*
X8080033Y-16884262D01*
X8089557Y-16903310D01*
X8089557Y-17008072D01*
X8089557Y-16903310D02*
X8099081Y-16884262D01*
X8118128Y-16874739D01*
X8146700Y-16874739D01*
X8165747Y-16884262D01*
X8175271Y-16903310D01*
X8175271Y-17008072D01*
X8270509Y-17008072D02*
X8270509Y-16874739D01*
X8270509Y-16893786D02*
X8280033Y-16884262D01*
X8299081Y-16874739D01*
X8327652Y-16874739D01*
X8346700Y-16884262D01*
X8356224Y-16903310D01*
X8356224Y-17008072D01*
X8356224Y-16903310D02*
X8365747Y-16884262D01*
X8384795Y-16874739D01*
X8413367Y-16874739D01*
X8432414Y-16884262D01*
X8441938Y-16903310D01*
X8441938Y-17008072D01*
X8832414Y-16798548D02*
X8660986Y-17055691D01*
X9089557Y-16808072D02*
X9108605Y-16808072D01*
X9127652Y-16817596D01*
X9137176Y-16827120D01*
X9146700Y-16846167D01*
X9156224Y-16884262D01*
X9156224Y-16931882D01*
X9146700Y-16969977D01*
X9137176Y-16989024D01*
X9127652Y-16998548D01*
X9108605Y-17008072D01*
X9089557Y-17008072D01*
X9070509Y-16998548D01*
X9060986Y-16989024D01*
X9051462Y-16969977D01*
X9041938Y-16931882D01*
X9041938Y-16884262D01*
X9051462Y-16846167D01*
X9060986Y-16827120D01*
X9070509Y-16817596D01*
X9089557Y-16808072D01*
X9241938Y-16989024D02*
X9251462Y-16998548D01*
X9241938Y-17008072D01*
X9232414Y-16998548D01*
X9241938Y-16989024D01*
X9241938Y-17008072D01*
X9375271Y-16808072D02*
X9394319Y-16808072D01*
X9413367Y-16817596D01*
X9422890Y-16827120D01*
X9432414Y-16846167D01*
X9441938Y-16884262D01*
X9441938Y-16931882D01*
X9432414Y-16969977D01*
X9422890Y-16989024D01*
X9413367Y-16998548D01*
X9394319Y-17008072D01*
X9375271Y-17008072D01*
X9356224Y-16998548D01*
X9346700Y-16989024D01*
X9337176Y-16969977D01*
X9327652Y-16931882D01*
X9327652Y-16884262D01*
X9337176Y-16846167D01*
X9346700Y-16827120D01*
X9356224Y-16817596D01*
X9375271Y-16808072D01*
X9537176Y-17008072D02*
X9575271Y-17008072D01*
X9594319Y-16998548D01*
X9603843Y-16989024D01*
X9622890Y-16960453D01*
X9632414Y-16922358D01*
X9632414Y-16846167D01*
X9622890Y-16827120D01*
X9613367Y-16817596D01*
X9594319Y-16808072D01*
X9556224Y-16808072D01*
X9537176Y-16817596D01*
X9527652Y-16827120D01*
X9518128Y-16846167D01*
X9518128Y-16893786D01*
X9527652Y-16912834D01*
X9537176Y-16922358D01*
X9556224Y-16931882D01*
X9594319Y-16931882D01*
X9613367Y-16922358D01*
X9622890Y-16912834D01*
X9632414Y-16893786D01*
X9803843Y-16874739D02*
X9803843Y-17008072D01*
X9756224Y-16798548D02*
X9708605Y-16941405D01*
X9832414Y-16941405D01*
X10013367Y-17008072D02*
X9899081Y-17008072D01*
X9956224Y-17008072D02*
X9956224Y-16808072D01*
X9937176Y-16836643D01*
X9918128Y-16855691D01*
X9899081Y-16865215D01*
X10089557Y-16808072D02*
X10089557Y-16846167D01*
X10165747Y-16808072D02*
X10165747Y-16846167D01*
X10460986Y-17084262D02*
X10451462Y-17074739D01*
X10432414Y-17046167D01*
X10422890Y-17027120D01*
X10413367Y-16998548D01*
X10403843Y-16950929D01*
X10403843Y-16912834D01*
X10413367Y-16865215D01*
X10422890Y-16836643D01*
X10432414Y-16817596D01*
X10451462Y-16789024D01*
X10460986Y-16779501D01*
X10527652Y-16827120D02*
X10537176Y-16817596D01*
X10556224Y-16808072D01*
X10603843Y-16808072D01*
X10622890Y-16817596D01*
X10632414Y-16827120D01*
X10641938Y-16846167D01*
X10641938Y-16865215D01*
X10632414Y-16893786D01*
X10518128Y-17008072D01*
X10641938Y-17008072D01*
X10880033Y-17008072D02*
X10880033Y-16808072D01*
X10965747Y-17008072D02*
X10965747Y-16903310D01*
X10956224Y-16884262D01*
X10937176Y-16874739D01*
X10908605Y-16874739D01*
X10889557Y-16884262D01*
X10880033Y-16893786D01*
X11089557Y-17008072D02*
X11070509Y-16998548D01*
X11060986Y-16989024D01*
X11051462Y-16969977D01*
X11051462Y-16912834D01*
X11060986Y-16893786D01*
X11070509Y-16884262D01*
X11089557Y-16874739D01*
X11118128Y-16874739D01*
X11137176Y-16884262D01*
X11146700Y-16893786D01*
X11156224Y-16912834D01*
X11156224Y-16969977D01*
X11146700Y-16989024D01*
X11137176Y-16998548D01*
X11118128Y-17008072D01*
X11089557Y-17008072D01*
X11270509Y-17008072D02*
X11251462Y-16998548D01*
X11241938Y-16979501D01*
X11241938Y-16808072D01*
X11422890Y-16998548D02*
X11403843Y-17008072D01*
X11365747Y-17008072D01*
X11346700Y-16998548D01*
X11337176Y-16979501D01*
X11337176Y-16903310D01*
X11346700Y-16884262D01*
X11365747Y-16874739D01*
X11403843Y-16874739D01*
X11422890Y-16884262D01*
X11432414Y-16903310D01*
X11432414Y-16922358D01*
X11337176Y-16941405D01*
X11508605Y-16998548D02*
X11527652Y-17008072D01*
X11565747Y-17008072D01*
X11584795Y-16998548D01*
X11594319Y-16979501D01*
X11594319Y-16969977D01*
X11584795Y-16950929D01*
X11565747Y-16941405D01*
X11537176Y-16941405D01*
X11518128Y-16931882D01*
X11508605Y-16912834D01*
X11508605Y-16903310D01*
X11518128Y-16884262D01*
X11537176Y-16874739D01*
X11565747Y-16874739D01*
X11584795Y-16884262D01*
X11660985Y-17084262D02*
X11670509Y-17074739D01*
X11689557Y-17046167D01*
X11699081Y-17027120D01*
X11708605Y-16998548D01*
X11718128Y-16950929D01*
X11718128Y-16912834D01*
X11708605Y-16865215D01*
X11699081Y-16836643D01*
X11689557Y-16817596D01*
X11670509Y-16789024D01*
X11660985Y-16779501D01*
X12022890Y-17084262D02*
X12013366Y-17074739D01*
X11994319Y-17046167D01*
X11984795Y-17027120D01*
X11975271Y-16998548D01*
X11965747Y-16950929D01*
X11965747Y-16912834D01*
X11975271Y-16865215D01*
X11984795Y-16836643D01*
X11994319Y-16817596D01*
X12013366Y-16789024D01*
X12022890Y-16779501D01*
X12099081Y-16874739D02*
X12099081Y-17008072D01*
X12099081Y-16893786D02*
X12108605Y-16884262D01*
X12127652Y-16874739D01*
X12156224Y-16874739D01*
X12175271Y-16884262D01*
X12184795Y-16903310D01*
X12184795Y-17008072D01*
X12308605Y-17008072D02*
X12289557Y-16998548D01*
X12280033Y-16989024D01*
X12270509Y-16969977D01*
X12270509Y-16912834D01*
X12280033Y-16893786D01*
X12289557Y-16884262D01*
X12308605Y-16874739D01*
X12337176Y-16874739D01*
X12356224Y-16884262D01*
X12365747Y-16893786D01*
X12375271Y-16912834D01*
X12375271Y-16969977D01*
X12365747Y-16989024D01*
X12356224Y-16998548D01*
X12337176Y-17008072D01*
X12308605Y-17008072D01*
X12432414Y-16874739D02*
X12508605Y-16874739D01*
X12460985Y-16808072D02*
X12460985Y-16979501D01*
X12470509Y-16998548D01*
X12489557Y-17008072D01*
X12508605Y-17008072D01*
X12727652Y-16874739D02*
X12727652Y-17074739D01*
X12727652Y-16884262D02*
X12746700Y-16874739D01*
X12784795Y-16874739D01*
X12803843Y-16884262D01*
X12813366Y-16893786D01*
X12822890Y-16912834D01*
X12822890Y-16969977D01*
X12813366Y-16989024D01*
X12803843Y-16998548D01*
X12784795Y-17008072D01*
X12746700Y-17008072D01*
X12727652Y-16998548D01*
X12937176Y-17008072D02*
X12918128Y-16998548D01*
X12908605Y-16979501D01*
X12908605Y-16808072D01*
X13099081Y-17008072D02*
X13099081Y-16903310D01*
X13089557Y-16884262D01*
X13070509Y-16874739D01*
X13032414Y-16874739D01*
X13013366Y-16884262D01*
X13099081Y-16998548D02*
X13080033Y-17008072D01*
X13032414Y-17008072D01*
X13013366Y-16998548D01*
X13003843Y-16979501D01*
X13003843Y-16960453D01*
X13013366Y-16941405D01*
X13032414Y-16931882D01*
X13080033Y-16931882D01*
X13099081Y-16922358D01*
X13165747Y-16874739D02*
X13241938Y-16874739D01*
X13194319Y-16808072D02*
X13194319Y-16979501D01*
X13203843Y-16998548D01*
X13222890Y-17008072D01*
X13241938Y-17008072D01*
X13384795Y-16998548D02*
X13365747Y-17008072D01*
X13327652Y-17008072D01*
X13308605Y-16998548D01*
X13299081Y-16979501D01*
X13299081Y-16903310D01*
X13308605Y-16884262D01*
X13327652Y-16874739D01*
X13365747Y-16874739D01*
X13384795Y-16884262D01*
X13394319Y-16903310D01*
X13394319Y-16922358D01*
X13299081Y-16941405D01*
X13565747Y-17008072D02*
X13565747Y-16808072D01*
X13565747Y-16998548D02*
X13546700Y-17008072D01*
X13508605Y-17008072D01*
X13489557Y-16998548D01*
X13480033Y-16989024D01*
X13470509Y-16969977D01*
X13470509Y-16912834D01*
X13480033Y-16893786D01*
X13489557Y-16884262D01*
X13508605Y-16874739D01*
X13546700Y-16874739D01*
X13565747Y-16884262D01*
X13641938Y-17084262D02*
X13651462Y-17074739D01*
X13670509Y-17046167D01*
X13680033Y-17027120D01*
X13689557Y-16998548D01*
X13699081Y-16950929D01*
X13699081Y-16912834D01*
X13689557Y-16865215D01*
X13680033Y-16836643D01*
X13670509Y-16817596D01*
X13651462Y-16789024D01*
X13641938Y-16779501D01*
X6789081Y-17137596D02*
X6789081Y-17337596D01*
X6689081Y-17237596D02*
X6889081Y-17237596D01*
X7127652Y-17128072D02*
X7251462Y-17128072D01*
X7184795Y-17204262D01*
X7213366Y-17204262D01*
X7232414Y-17213786D01*
X7241938Y-17223310D01*
X7251462Y-17242358D01*
X7251462Y-17289977D01*
X7241938Y-17309024D01*
X7232414Y-17318548D01*
X7213366Y-17328072D01*
X7156224Y-17328072D01*
X7137176Y-17318548D01*
X7127652Y-17309024D01*
X7337176Y-17309024D02*
X7346700Y-17318548D01*
X7337176Y-17328072D01*
X7327652Y-17318548D01*
X7337176Y-17309024D01*
X7337176Y-17328072D01*
X7518128Y-17194739D02*
X7518128Y-17328072D01*
X7470509Y-17118548D02*
X7422890Y-17261405D01*
X7546700Y-17261405D01*
X7718128Y-17128072D02*
X7622890Y-17128072D01*
X7613366Y-17223310D01*
X7622890Y-17213786D01*
X7641938Y-17204262D01*
X7689557Y-17204262D01*
X7708605Y-17213786D01*
X7718128Y-17223310D01*
X7727652Y-17242358D01*
X7727652Y-17289977D01*
X7718128Y-17309024D01*
X7708605Y-17318548D01*
X7689557Y-17328072D01*
X7641938Y-17328072D01*
X7622890Y-17318548D01*
X7613366Y-17309024D01*
X7851462Y-17128072D02*
X7870509Y-17128072D01*
X7889557Y-17137596D01*
X7899081Y-17147120D01*
X7908605Y-17166167D01*
X7918128Y-17204262D01*
X7918128Y-17251882D01*
X7908605Y-17289977D01*
X7899081Y-17309024D01*
X7889557Y-17318548D01*
X7870509Y-17328072D01*
X7851462Y-17328072D01*
X7832414Y-17318548D01*
X7822890Y-17309024D01*
X7813366Y-17289977D01*
X7803843Y-17251882D01*
X7803843Y-17204262D01*
X7813366Y-17166167D01*
X7822890Y-17147120D01*
X7832414Y-17137596D01*
X7851462Y-17128072D01*
X8003843Y-17328072D02*
X8003843Y-17194739D01*
X8003843Y-17213786D02*
X8013366Y-17204262D01*
X8032414Y-17194739D01*
X8060985Y-17194739D01*
X8080033Y-17204262D01*
X8089557Y-17223310D01*
X8089557Y-17328072D01*
X8089557Y-17223310D02*
X8099081Y-17204262D01*
X8118128Y-17194739D01*
X8146700Y-17194739D01*
X8165747Y-17204262D01*
X8175271Y-17223310D01*
X8175271Y-17328072D01*
X8270509Y-17328072D02*
X8270509Y-17194739D01*
X8270509Y-17213786D02*
X8280033Y-17204262D01*
X8299081Y-17194739D01*
X8327652Y-17194739D01*
X8346700Y-17204262D01*
X8356224Y-17223310D01*
X8356224Y-17328072D01*
X8356224Y-17223310D02*
X8365747Y-17204262D01*
X8384795Y-17194739D01*
X8413367Y-17194739D01*
X8432414Y-17204262D01*
X8441938Y-17223310D01*
X8441938Y-17328072D01*
X8832414Y-17118548D02*
X8660986Y-17375691D01*
X9089557Y-17128072D02*
X9108605Y-17128072D01*
X9127652Y-17137596D01*
X9137176Y-17147120D01*
X9146700Y-17166167D01*
X9156224Y-17204262D01*
X9156224Y-17251882D01*
X9146700Y-17289977D01*
X9137176Y-17309024D01*
X9127652Y-17318548D01*
X9108605Y-17328072D01*
X9089557Y-17328072D01*
X9070509Y-17318548D01*
X9060986Y-17309024D01*
X9051462Y-17289977D01*
X9041938Y-17251882D01*
X9041938Y-17204262D01*
X9051462Y-17166167D01*
X9060986Y-17147120D01*
X9070509Y-17137596D01*
X9089557Y-17128072D01*
X9241938Y-17309024D02*
X9251462Y-17318548D01*
X9241938Y-17328072D01*
X9232414Y-17318548D01*
X9241938Y-17309024D01*
X9241938Y-17328072D01*
X9441938Y-17328072D02*
X9327652Y-17328072D01*
X9384795Y-17328072D02*
X9384795Y-17128072D01*
X9365747Y-17156643D01*
X9346700Y-17175691D01*
X9327652Y-17185215D01*
X9508605Y-17128072D02*
X9632414Y-17128072D01*
X9565747Y-17204262D01*
X9594319Y-17204262D01*
X9613367Y-17213786D01*
X9622890Y-17223310D01*
X9632414Y-17242358D01*
X9632414Y-17289977D01*
X9622890Y-17309024D01*
X9613367Y-17318548D01*
X9594319Y-17328072D01*
X9537176Y-17328072D01*
X9518128Y-17318548D01*
X9508605Y-17309024D01*
X9813367Y-17128072D02*
X9718128Y-17128072D01*
X9708605Y-17223310D01*
X9718128Y-17213786D01*
X9737176Y-17204262D01*
X9784795Y-17204262D01*
X9803843Y-17213786D01*
X9813367Y-17223310D01*
X9822890Y-17242358D01*
X9822890Y-17289977D01*
X9813367Y-17309024D01*
X9803843Y-17318548D01*
X9784795Y-17328072D01*
X9737176Y-17328072D01*
X9718128Y-17318548D01*
X9708605Y-17309024D01*
X9937176Y-17213786D02*
X9918128Y-17204262D01*
X9908605Y-17194739D01*
X9899081Y-17175691D01*
X9899081Y-17166167D01*
X9908605Y-17147120D01*
X9918128Y-17137596D01*
X9937176Y-17128072D01*
X9975271Y-17128072D01*
X9994319Y-17137596D01*
X10003843Y-17147120D01*
X10013367Y-17166167D01*
X10013367Y-17175691D01*
X10003843Y-17194739D01*
X9994319Y-17204262D01*
X9975271Y-17213786D01*
X9937176Y-17213786D01*
X9918128Y-17223310D01*
X9908605Y-17232834D01*
X9899081Y-17251882D01*
X9899081Y-17289977D01*
X9908605Y-17309024D01*
X9918128Y-17318548D01*
X9937176Y-17328072D01*
X9975271Y-17328072D01*
X9994319Y-17318548D01*
X10003843Y-17309024D01*
X10013367Y-17289977D01*
X10013367Y-17251882D01*
X10003843Y-17232834D01*
X9994319Y-17223310D01*
X9975271Y-17213786D01*
X10089557Y-17128072D02*
X10089557Y-17166167D01*
X10165747Y-17128072D02*
X10165747Y-17166167D01*
X10460986Y-17404262D02*
X10451462Y-17394739D01*
X10432414Y-17366167D01*
X10422890Y-17347120D01*
X10413367Y-17318548D01*
X10403843Y-17270929D01*
X10403843Y-17232834D01*
X10413367Y-17185215D01*
X10422890Y-17156643D01*
X10432414Y-17137596D01*
X10451462Y-17109024D01*
X10460986Y-17099501D01*
X10622890Y-17194739D02*
X10622890Y-17328072D01*
X10575271Y-17118548D02*
X10527652Y-17261405D01*
X10651462Y-17261405D01*
X10880033Y-17328072D02*
X10880033Y-17128072D01*
X10965747Y-17328072D02*
X10965747Y-17223310D01*
X10956224Y-17204262D01*
X10937176Y-17194739D01*
X10908605Y-17194739D01*
X10889557Y-17204262D01*
X10880033Y-17213786D01*
X11089557Y-17328072D02*
X11070509Y-17318548D01*
X11060986Y-17309024D01*
X11051462Y-17289977D01*
X11051462Y-17232834D01*
X11060986Y-17213786D01*
X11070509Y-17204262D01*
X11089557Y-17194739D01*
X11118128Y-17194739D01*
X11137176Y-17204262D01*
X11146700Y-17213786D01*
X11156224Y-17232834D01*
X11156224Y-17289977D01*
X11146700Y-17309024D01*
X11137176Y-17318548D01*
X11118128Y-17328072D01*
X11089557Y-17328072D01*
X11270509Y-17328072D02*
X11251462Y-17318548D01*
X11241938Y-17299501D01*
X11241938Y-17128072D01*
X11422890Y-17318548D02*
X11403843Y-17328072D01*
X11365747Y-17328072D01*
X11346700Y-17318548D01*
X11337176Y-17299501D01*
X11337176Y-17223310D01*
X11346700Y-17204262D01*
X11365747Y-17194739D01*
X11403843Y-17194739D01*
X11422890Y-17204262D01*
X11432414Y-17223310D01*
X11432414Y-17242358D01*
X11337176Y-17261405D01*
X11508605Y-17318548D02*
X11527652Y-17328072D01*
X11565747Y-17328072D01*
X11584795Y-17318548D01*
X11594319Y-17299501D01*
X11594319Y-17289977D01*
X11584795Y-17270929D01*
X11565747Y-17261405D01*
X11537176Y-17261405D01*
X11518128Y-17251882D01*
X11508605Y-17232834D01*
X11508605Y-17223310D01*
X11518128Y-17204262D01*
X11537176Y-17194739D01*
X11565747Y-17194739D01*
X11584795Y-17204262D01*
X11660985Y-17404262D02*
X11670509Y-17394739D01*
X11689557Y-17366167D01*
X11699081Y-17347120D01*
X11708605Y-17318548D01*
X11718128Y-17270929D01*
X11718128Y-17232834D01*
X11708605Y-17185215D01*
X11699081Y-17156643D01*
X11689557Y-17137596D01*
X11670509Y-17109024D01*
X11660985Y-17099501D01*
X12022890Y-17404262D02*
X12013366Y-17394739D01*
X11994319Y-17366167D01*
X11984795Y-17347120D01*
X11975271Y-17318548D01*
X11965747Y-17270929D01*
X11965747Y-17232834D01*
X11975271Y-17185215D01*
X11984795Y-17156643D01*
X11994319Y-17137596D01*
X12013366Y-17109024D01*
X12022890Y-17099501D01*
X12099081Y-17194739D02*
X12099081Y-17328072D01*
X12099081Y-17213786D02*
X12108605Y-17204262D01*
X12127652Y-17194739D01*
X12156224Y-17194739D01*
X12175271Y-17204262D01*
X12184795Y-17223310D01*
X12184795Y-17328072D01*
X12308605Y-17328072D02*
X12289557Y-17318548D01*
X12280033Y-17309024D01*
X12270509Y-17289977D01*
X12270509Y-17232834D01*
X12280033Y-17213786D01*
X12289557Y-17204262D01*
X12308605Y-17194739D01*
X12337176Y-17194739D01*
X12356224Y-17204262D01*
X12365747Y-17213786D01*
X12375271Y-17232834D01*
X12375271Y-17289977D01*
X12365747Y-17309024D01*
X12356224Y-17318548D01*
X12337176Y-17328072D01*
X12308605Y-17328072D01*
X12432414Y-17194739D02*
X12508605Y-17194739D01*
X12460985Y-17128072D02*
X12460985Y-17299501D01*
X12470509Y-17318548D01*
X12489557Y-17328072D01*
X12508605Y-17328072D01*
X12727652Y-17194739D02*
X12727652Y-17394739D01*
X12727652Y-17204262D02*
X12746700Y-17194739D01*
X12784795Y-17194739D01*
X12803843Y-17204262D01*
X12813366Y-17213786D01*
X12822890Y-17232834D01*
X12822890Y-17289977D01*
X12813366Y-17309024D01*
X12803843Y-17318548D01*
X12784795Y-17328072D01*
X12746700Y-17328072D01*
X12727652Y-17318548D01*
X12937176Y-17328072D02*
X12918128Y-17318548D01*
X12908605Y-17299501D01*
X12908605Y-17128072D01*
X13099081Y-17328072D02*
X13099081Y-17223310D01*
X13089557Y-17204262D01*
X13070509Y-17194739D01*
X13032414Y-17194739D01*
X13013366Y-17204262D01*
X13099081Y-17318548D02*
X13080033Y-17328072D01*
X13032414Y-17328072D01*
X13013366Y-17318548D01*
X13003843Y-17299501D01*
X13003843Y-17280453D01*
X13013366Y-17261405D01*
X13032414Y-17251882D01*
X13080033Y-17251882D01*
X13099081Y-17242358D01*
X13165747Y-17194739D02*
X13241938Y-17194739D01*
X13194319Y-17128072D02*
X13194319Y-17299501D01*
X13203843Y-17318548D01*
X13222890Y-17328072D01*
X13241938Y-17328072D01*
X13384795Y-17318548D02*
X13365747Y-17328072D01*
X13327652Y-17328072D01*
X13308605Y-17318548D01*
X13299081Y-17299501D01*
X13299081Y-17223310D01*
X13308605Y-17204262D01*
X13327652Y-17194739D01*
X13365747Y-17194739D01*
X13384795Y-17204262D01*
X13394319Y-17223310D01*
X13394319Y-17242358D01*
X13299081Y-17261405D01*
X13565747Y-17328072D02*
X13565747Y-17128072D01*
X13565747Y-17318548D02*
X13546700Y-17328072D01*
X13508605Y-17328072D01*
X13489557Y-17318548D01*
X13480033Y-17309024D01*
X13470509Y-17289977D01*
X13470509Y-17232834D01*
X13480033Y-17213786D01*
X13489557Y-17204262D01*
X13508605Y-17194739D01*
X13546700Y-17194739D01*
X13565747Y-17204262D01*
X13641938Y-17404262D02*
X13651462Y-17394739D01*
X13670509Y-17366167D01*
X13680033Y-17347120D01*
X13689557Y-17318548D01*
X13699081Y-17270929D01*
X13699081Y-17232834D01*
X13689557Y-17185215D01*
X13680033Y-17156643D01*
X13670509Y-17137596D01*
X13651462Y-17109024D01*
X13641938Y-17099501D01*
M02*
