G04 #@! TF.GenerationSoftware,KiCad,Pcbnew,(6.0.5-0)*
G04 #@! TF.CreationDate,2022-11-26T13:27:52+01:00*
G04 #@! TF.ProjectId,Phazor,5068617a-6f72-42e6-9b69-6361645f7063,rev?*
G04 #@! TF.SameCoordinates,Original*
G04 #@! TF.FileFunction,Legend,Bot*
G04 #@! TF.FilePolarity,Positive*
%FSLAX46Y46*%
G04 Gerber Fmt 4.6, Leading zero omitted, Abs format (unit mm)*
G04 Created by KiCad (PCBNEW (6.0.5-0)) date 2022-11-26 13:27:52*
%MOMM*%
%LPD*%
G01*
G04 APERTURE LIST*
G04 Aperture macros list*
%AMRoundRect*
0 Rectangle with rounded corners*
0 $1 Rounding radius*
0 $2 $3 $4 $5 $6 $7 $8 $9 X,Y pos of 4 corners*
0 Add a 4 corners polygon primitive as box body*
4,1,4,$2,$3,$4,$5,$6,$7,$8,$9,$2,$3,0*
0 Add four circle primitives for the rounded corners*
1,1,$1+$1,$2,$3*
1,1,$1+$1,$4,$5*
1,1,$1+$1,$6,$7*
1,1,$1+$1,$8,$9*
0 Add four rect primitives between the rounded corners*
20,1,$1+$1,$2,$3,$4,$5,0*
20,1,$1+$1,$4,$5,$6,$7,0*
20,1,$1+$1,$6,$7,$8,$9,0*
20,1,$1+$1,$8,$9,$2,$3,0*%
%AMHorizOval*
0 Thick line with rounded ends*
0 $1 width*
0 $2 $3 position (X,Y) of the first rounded end (center of the circle)*
0 $4 $5 position (X,Y) of the second rounded end (center of the circle)*
0 Add line between two ends*
20,1,$1,$2,$3,$4,$5,0*
0 Add two circle primitives to create the rounded ends*
1,1,$1,$2,$3*
1,1,$1,$4,$5*%
%AMRotRect*
0 Rectangle, with rotation*
0 The origin of the aperture is its center*
0 $1 length*
0 $2 width*
0 $3 Rotation angle, in degrees counterclockwise*
0 Add horizontal line*
21,1,$1,$2,0,0,$3*%
G04 Aperture macros list end*
%ADD10C,0.500000*%
%ADD11C,0.150000*%
%ADD12C,0.300000*%
%ADD13C,0.120000*%
%ADD14C,3.450000*%
%ADD15C,2.390000*%
%ADD16RoundRect,0.437500X-1.154544X0.762293X-1.381011X-0.082893X1.154544X-0.762293X1.381011X0.082893X0*%
%ADD17R,1.500000X1.500000*%
%ADD18C,1.500000*%
%ADD19R,1.700000X1.700000*%
%ADD20O,1.700000X1.700000*%
%ADD21C,0.650000*%
%ADD22HorizOval,1.000000X-0.531259X0.142350X0.531259X-0.142350X0*%
%ADD23HorizOval,1.000000X-0.289778X0.077646X0.289778X-0.077646X0*%
%ADD24RoundRect,0.500000X1.250000X0.500000X-1.250000X0.500000X-1.250000X-0.500000X1.250000X-0.500000X0*%
%ADD25RoundRect,0.250000X0.475000X-0.250000X0.475000X0.250000X-0.475000X0.250000X-0.475000X-0.250000X0*%
%ADD26RoundRect,0.225000X-0.268659X0.202355X-0.229439X-0.245933X0.268659X-0.202355X0.229439X0.245933X0*%
%ADD27RotRect,1.500000X1.000000X185.000000*%
%ADD28RotRect,2.000000X2.000000X95.000000*%
%ADD29RotRect,7.340000X6.350000X255.000000*%
%ADD30RoundRect,0.200000X0.275000X-0.200000X0.275000X0.200000X-0.275000X0.200000X-0.275000X-0.200000X0*%
%ADD31RoundRect,0.187500X0.937500X0.187500X-0.937500X0.187500X-0.937500X-0.187500X0.937500X-0.187500X0*%
%ADD32R,1.550000X1.300000*%
G04 APERTURE END LIST*
D10*
X123777386Y-33206017D02*
X123362896Y-33385683D01*
X122651328Y-33447937D01*
X122354250Y-33330526D01*
X122199486Y-33200663D01*
X122032271Y-32928487D01*
X122007369Y-32643860D01*
X122124781Y-32346782D01*
X122254644Y-32192017D01*
X122526820Y-32024802D01*
X123083623Y-31832685D01*
X123355800Y-31665470D01*
X123485662Y-31510706D01*
X123603074Y-31213628D01*
X123578173Y-30929001D01*
X123410957Y-30656825D01*
X123256193Y-30526962D01*
X122959115Y-30409550D01*
X122247548Y-30471804D01*
X121833058Y-30651470D01*
X120801252Y-33609798D02*
X120539785Y-30621214D01*
X120417019Y-32496192D02*
X119662744Y-33709405D01*
X119488433Y-31717015D02*
X120726548Y-32755917D01*
X118381922Y-33821462D02*
X118207611Y-31829073D01*
X118120455Y-30832878D02*
X118275220Y-30962741D01*
X118145357Y-31117505D01*
X117990593Y-30987642D01*
X118120455Y-30832878D01*
X118145357Y-31117505D01*
X116958787Y-33945970D02*
X116784476Y-31953581D01*
X116834279Y-32522835D02*
X116667064Y-32250659D01*
X116512299Y-32120796D01*
X116215222Y-32003384D01*
X115930595Y-32028286D01*
X115108711Y-34107831D02*
X114934400Y-32115442D01*
X114959301Y-32400069D02*
X114804537Y-32270206D01*
X114507459Y-32152794D01*
X114080519Y-32190146D01*
X113808342Y-32357362D01*
X113690931Y-32654439D01*
X113827890Y-34219888D01*
X113690931Y-32654439D02*
X113523715Y-32382263D01*
X113226638Y-32264851D01*
X112799697Y-32302204D01*
X112527521Y-32469419D01*
X112410109Y-32766497D01*
X112547068Y-34331946D01*
X111123933Y-34456454D02*
X110949621Y-32464064D01*
X110862465Y-31467870D02*
X111017230Y-31597733D01*
X110887367Y-31752497D01*
X110732603Y-31622634D01*
X110862465Y-31467870D01*
X110887367Y-31752497D01*
X109830660Y-34426198D02*
X109558484Y-34593413D01*
X108989230Y-34643216D01*
X108692152Y-34525804D01*
X108524937Y-34253628D01*
X108512486Y-34111315D01*
X108629898Y-33814237D01*
X108902074Y-33647022D01*
X109329014Y-33609669D01*
X109601191Y-33442454D01*
X109718603Y-33145376D01*
X109706152Y-33003062D01*
X109538937Y-32730886D01*
X109241859Y-32613474D01*
X108814918Y-32650827D01*
X108542742Y-32818042D01*
X107281467Y-34792626D02*
X107020000Y-31804042D01*
X106000646Y-34904683D02*
X105863687Y-33339235D01*
X105981098Y-33042157D01*
X106253275Y-32874942D01*
X106680215Y-32837589D01*
X106977293Y-32955001D01*
X107132057Y-33084864D01*
X102300494Y-35228405D02*
X102039027Y-32239821D01*
X100900518Y-32339427D01*
X100628342Y-32506642D01*
X100498479Y-32661407D01*
X100381068Y-32958485D01*
X100418420Y-33385425D01*
X100585635Y-33657601D01*
X100740399Y-33787464D01*
X101037477Y-33904876D01*
X102175986Y-33805269D01*
X99311910Y-35489872D02*
X99050442Y-32501288D01*
X98031088Y-35601929D02*
X97894129Y-34036481D01*
X98011541Y-33739403D01*
X98283717Y-33572188D01*
X98710658Y-33534835D01*
X99007736Y-33652247D01*
X99162500Y-33782110D01*
X95327131Y-35838495D02*
X95190172Y-34273046D01*
X95307584Y-33975968D01*
X95579760Y-33808753D01*
X96149014Y-33758950D01*
X96446092Y-33876362D01*
X95314680Y-35696181D02*
X95611758Y-35813593D01*
X96323326Y-35751339D01*
X96595502Y-35584124D01*
X96712914Y-35287046D01*
X96688012Y-35002419D01*
X96520797Y-34730243D01*
X96223719Y-34612831D01*
X95512151Y-34675085D01*
X95215074Y-34557673D01*
X94033858Y-35808239D02*
X93761682Y-35975454D01*
X93192428Y-36025257D01*
X92895350Y-35907845D01*
X92728135Y-35635669D01*
X92715684Y-35493356D01*
X92833096Y-35196278D01*
X93105272Y-35029063D01*
X93532213Y-34991710D01*
X93804389Y-34824495D01*
X93921801Y-34527417D01*
X93909350Y-34385104D01*
X93742135Y-34112927D01*
X93445057Y-33995515D01*
X93018116Y-34032868D01*
X92745940Y-34200083D01*
X90333707Y-36131960D02*
X90630784Y-36249372D01*
X91200039Y-36199569D01*
X91472215Y-36032354D01*
X91589627Y-35735276D01*
X91490020Y-34596767D01*
X91322805Y-34324591D01*
X91025727Y-34207179D01*
X90456473Y-34256983D01*
X90184297Y-34424198D01*
X90066885Y-34721276D01*
X90091787Y-35005903D01*
X91539823Y-35166022D01*
X88923022Y-36398782D02*
X88748711Y-34406392D01*
X88798514Y-34975647D02*
X88631299Y-34703470D01*
X88476534Y-34573608D01*
X88179457Y-34456196D01*
X87894829Y-34481097D01*
D11*
X130572567Y-49498860D02*
X130382091Y-49498860D01*
X130286853Y-49546480D01*
X130191615Y-49641718D01*
X130143996Y-49832194D01*
X130143996Y-50165527D01*
X130191615Y-50356003D01*
X130286853Y-50451241D01*
X130382091Y-50498860D01*
X130572567Y-50498860D01*
X130667805Y-50451241D01*
X130763043Y-50356003D01*
X130810662Y-50165527D01*
X130810662Y-49832194D01*
X130763043Y-49641718D01*
X130667805Y-49546480D01*
X130572567Y-49498860D01*
X129715424Y-50498860D02*
X129715424Y-49498860D01*
X129143996Y-50498860D01*
X129143996Y-49498860D01*
D12*
X123463054Y-42103917D02*
X123332320Y-40609625D01*
X122763066Y-40659428D01*
X122626978Y-40743036D01*
X122562047Y-40820418D01*
X122503341Y-40968957D01*
X122522017Y-41182427D01*
X122605625Y-41318515D01*
X122683007Y-41383447D01*
X122831546Y-41442153D01*
X123400800Y-41392349D01*
X121968762Y-42234651D02*
X121838028Y-40740359D01*
X121328351Y-42290679D02*
X121259872Y-41507955D01*
X121318578Y-41359416D01*
X121454666Y-41275808D01*
X121668136Y-41257132D01*
X121816675Y-41315838D01*
X121894057Y-41380769D01*
X119976373Y-42408962D02*
X119907893Y-41626238D01*
X119966599Y-41477699D01*
X120102687Y-41394091D01*
X120387314Y-41369190D01*
X120535853Y-41427896D01*
X119970147Y-42337805D02*
X120118686Y-42396511D01*
X120474470Y-42365384D01*
X120610558Y-42281777D01*
X120669264Y-42133238D01*
X120656813Y-41990924D01*
X120573206Y-41854836D01*
X120424667Y-41796130D01*
X120068883Y-41827257D01*
X119920344Y-41768551D01*
X119329736Y-42393834D02*
X119193648Y-42477442D01*
X118909021Y-42502343D01*
X118760482Y-42443637D01*
X118676875Y-42307549D01*
X118670649Y-42236392D01*
X118729355Y-42087854D01*
X118865443Y-42004246D01*
X119078914Y-41985570D01*
X119215002Y-41901962D01*
X119273708Y-41753423D01*
X119267482Y-41682266D01*
X119183875Y-41546178D01*
X119035336Y-41487472D01*
X118821865Y-41506149D01*
X118685777Y-41589756D01*
X117479661Y-42555695D02*
X117628199Y-42614401D01*
X117912826Y-42589499D01*
X118048915Y-42505891D01*
X118107621Y-42357353D01*
X118057817Y-41788098D01*
X117974210Y-41652010D01*
X117825671Y-41593304D01*
X117541044Y-41618206D01*
X117404956Y-41701814D01*
X117346250Y-41850353D01*
X117358700Y-41992666D01*
X118082719Y-42072725D01*
X116774318Y-42689106D02*
X116687163Y-41692911D01*
X116712064Y-41977538D02*
X116628457Y-41841450D01*
X116551074Y-41776518D01*
X116402535Y-41717813D01*
X116260222Y-41730263D01*
X114710772Y-42869642D02*
X114580038Y-41375350D01*
X114175322Y-42486280D01*
X113583844Y-41462506D01*
X113714577Y-42956798D01*
X112789539Y-43037729D02*
X112925628Y-42954121D01*
X112990559Y-42876739D01*
X113049265Y-42728200D01*
X113011912Y-42301259D01*
X112928305Y-42165171D01*
X112850923Y-42100240D01*
X112702384Y-42041534D01*
X112488913Y-42060210D01*
X112352825Y-42143818D01*
X112287894Y-42221200D01*
X112229188Y-42369739D01*
X112266540Y-42796679D01*
X112350148Y-42932768D01*
X112427530Y-42997699D01*
X112576069Y-43056405D01*
X112789539Y-43037729D01*
X111010620Y-43193364D02*
X110879887Y-41699072D01*
X111004395Y-43122207D02*
X111152934Y-43180913D01*
X111437561Y-43156011D01*
X111573649Y-43072404D01*
X111638580Y-42995022D01*
X111697286Y-42846483D01*
X111659934Y-42419542D01*
X111576326Y-42283454D01*
X111498944Y-42218523D01*
X111350405Y-42159817D01*
X111065778Y-42184718D01*
X110929690Y-42268326D01*
X109571486Y-42315452D02*
X109658642Y-43311647D01*
X110211897Y-42259423D02*
X110280377Y-43042148D01*
X110221671Y-43190687D01*
X110085582Y-43274294D01*
X109872112Y-43292970D01*
X109723573Y-43234264D01*
X109646191Y-43169333D01*
X108733604Y-43392577D02*
X108869692Y-43308969D01*
X108928398Y-43160430D01*
X108816341Y-41879609D01*
X107588870Y-43421027D02*
X107737409Y-43479733D01*
X108022036Y-43454831D01*
X108158124Y-43371223D01*
X108216830Y-43222685D01*
X108167027Y-42653430D01*
X108083419Y-42517342D01*
X107934881Y-42458636D01*
X107650253Y-42483538D01*
X107514165Y-42567146D01*
X107455459Y-42715685D01*
X107467910Y-42857998D01*
X108191929Y-42938057D01*
X105827757Y-42141076D02*
X105460393Y-43678946D01*
X104831562Y-42228232D01*
X103681474Y-43834581D02*
X104535355Y-43759876D01*
X104108414Y-43797229D02*
X103977681Y-42302937D01*
X104138670Y-42503956D01*
X104293435Y-42633819D01*
X104441974Y-42692525D01*
X103028612Y-43748296D02*
X102963681Y-43825678D01*
X103041063Y-43890610D01*
X103105994Y-43813228D01*
X103028612Y-43748296D01*
X103041063Y-43890610D01*
X101914134Y-42483473D02*
X101771821Y-42495924D01*
X101635733Y-42579532D01*
X101570801Y-42656914D01*
X101512096Y-42805453D01*
X101465840Y-43096305D01*
X101496967Y-43452089D01*
X101593026Y-43730491D01*
X101676633Y-43866579D01*
X101754016Y-43931510D01*
X101902555Y-43990216D01*
X102044868Y-43977766D01*
X102180956Y-43894158D01*
X102245888Y-43816776D01*
X102304594Y-43668237D01*
X102350849Y-43377384D01*
X102319722Y-43021601D01*
X102223663Y-42743199D01*
X102140056Y-42607111D01*
X102062673Y-42542179D01*
X101914134Y-42483473D01*
X99390714Y-44783585D02*
X99455646Y-44706203D01*
X99579283Y-44480282D01*
X99637989Y-44331743D01*
X99690469Y-44112047D01*
X99730499Y-43750038D01*
X99705598Y-43465411D01*
X99603314Y-43115853D01*
X99513481Y-42908608D01*
X99429873Y-42772520D01*
X99268883Y-42571500D01*
X99191501Y-42506569D01*
X98771657Y-44264134D02*
X98640923Y-42769842D01*
X98071669Y-42819646D01*
X97935581Y-42903253D01*
X97870650Y-42980635D01*
X97811944Y-43129174D01*
X97830620Y-43342645D01*
X97914228Y-43478733D01*
X97991610Y-43543664D01*
X98140149Y-43602370D01*
X98709403Y-43552567D01*
X97277365Y-44394868D02*
X97190209Y-43398673D01*
X97215111Y-43683300D02*
X97131503Y-43547212D01*
X97054121Y-43482281D01*
X96905582Y-43423575D01*
X96763269Y-43436026D01*
X96138857Y-44494475D02*
X96274945Y-44410867D01*
X96339876Y-44333485D01*
X96398582Y-44184946D01*
X96361230Y-43758005D01*
X96277622Y-43621917D01*
X96200240Y-43556986D01*
X96051701Y-43498280D01*
X95838231Y-43516956D01*
X95702143Y-43600564D01*
X95637211Y-43677946D01*
X95578505Y-43826485D01*
X95615858Y-44253425D01*
X95699465Y-44389513D01*
X95776847Y-44454445D01*
X95925386Y-44513151D01*
X96138857Y-44494475D01*
X95126663Y-43579210D02*
X94557409Y-43629013D01*
X94869615Y-43099789D02*
X94981672Y-44380611D01*
X94922966Y-44529150D01*
X94786878Y-44612757D01*
X94644565Y-44625208D01*
X93932997Y-44687462D02*
X94069085Y-44603855D01*
X94134016Y-44526473D01*
X94192722Y-44377934D01*
X94155370Y-43950993D01*
X94071762Y-43814905D01*
X93994380Y-43749974D01*
X93845841Y-43691268D01*
X93632371Y-43709944D01*
X93496283Y-43793551D01*
X93431351Y-43870934D01*
X93372646Y-44019473D01*
X93409998Y-44446413D01*
X93493606Y-44582501D01*
X93570988Y-44647433D01*
X93719527Y-44706139D01*
X93932997Y-44687462D01*
X92986606Y-45343872D02*
X92909223Y-45278941D01*
X92748234Y-45077921D01*
X92664626Y-44941833D01*
X92574793Y-44734588D01*
X92472509Y-44385030D01*
X92447608Y-44100403D01*
X92487637Y-43738394D01*
X92540118Y-43518698D01*
X92598824Y-43370159D01*
X92722461Y-43144238D01*
X92787392Y-43066856D01*
X114802970Y-43923474D02*
X114725588Y-43858543D01*
X114577049Y-43799837D01*
X114221265Y-43830964D01*
X114085177Y-43914571D01*
X114020246Y-43991953D01*
X113961540Y-44140492D01*
X113973991Y-44282806D01*
X114063824Y-44490051D01*
X114992410Y-45269227D01*
X114067372Y-45350157D01*
X113011600Y-43936796D02*
X112869287Y-43949247D01*
X112733199Y-44032854D01*
X112668267Y-44110236D01*
X112609561Y-44258775D01*
X112563306Y-44549628D01*
X112594433Y-44905412D01*
X112690492Y-45183813D01*
X112774099Y-45319901D01*
X112851482Y-45384833D01*
X113000020Y-45443539D01*
X113142334Y-45431088D01*
X113278422Y-45347480D01*
X113343353Y-45270098D01*
X113402059Y-45121559D01*
X113448315Y-44830707D01*
X113417187Y-44474923D01*
X113321129Y-44196521D01*
X113237522Y-44060433D01*
X113160139Y-43995502D01*
X113011600Y-43936796D01*
X111956700Y-44172490D02*
X111879318Y-44107559D01*
X111730779Y-44048853D01*
X111374995Y-44079980D01*
X111238907Y-44163588D01*
X111173975Y-44240970D01*
X111115269Y-44389509D01*
X111127720Y-44531822D01*
X111217553Y-44739067D01*
X112146139Y-45518243D01*
X111221101Y-45599174D01*
X110533564Y-44296999D02*
X110456182Y-44232067D01*
X110307643Y-44173361D01*
X109951860Y-44204488D01*
X109815771Y-44288096D01*
X109750840Y-44365478D01*
X109692134Y-44514017D01*
X109704585Y-44656331D01*
X109794418Y-44863575D01*
X110723004Y-45642752D01*
X109797966Y-45723682D01*
X107969244Y-45310063D02*
X106830735Y-45409670D01*
X104816993Y-46159461D02*
X104953081Y-46075853D01*
X105018012Y-45998471D01*
X105076718Y-45849932D01*
X105039366Y-45422991D01*
X104955758Y-45286903D01*
X104878376Y-45221972D01*
X104729837Y-45163266D01*
X104516367Y-45181942D01*
X104380278Y-45265550D01*
X104315347Y-45342932D01*
X104256641Y-45491471D01*
X104293994Y-45918412D01*
X104377601Y-46054500D01*
X104454983Y-46119431D01*
X104603522Y-46178137D01*
X104816993Y-46159461D01*
X103465014Y-46277744D02*
X103601102Y-46194136D01*
X103659808Y-46045597D01*
X103547751Y-44764775D01*
X102320280Y-46306193D02*
X102468819Y-46364899D01*
X102753446Y-46339998D01*
X102889535Y-46256390D01*
X102948241Y-46107851D01*
X102898437Y-45538597D01*
X102814830Y-45402509D01*
X102666291Y-45343803D01*
X102381664Y-45368705D01*
X102245576Y-45452312D01*
X102186870Y-45600851D01*
X102199320Y-45743165D01*
X102923339Y-45823224D01*
X101401468Y-46458280D02*
X101537556Y-46374673D01*
X101596262Y-46226134D01*
X101484205Y-44945312D01*
X124710910Y-47761688D02*
X123857028Y-47836393D01*
X124414703Y-49293333D02*
X124283969Y-47799041D01*
X123489665Y-49374263D02*
X123358931Y-47879971D01*
X123421185Y-48591539D02*
X122567304Y-48666244D01*
X122635783Y-49448968D02*
X122505050Y-47954676D01*
X121924216Y-49511222D02*
X121793482Y-48016930D01*
X121277580Y-49496094D02*
X121070335Y-49585927D01*
X120714551Y-49617054D01*
X120566012Y-49558348D01*
X120488630Y-49493417D01*
X120405022Y-49357329D01*
X120392571Y-49215015D01*
X120451277Y-49066476D01*
X120516209Y-48989094D01*
X120652297Y-48905486D01*
X120930698Y-48809428D01*
X121066786Y-48725820D01*
X121131718Y-48648438D01*
X121190424Y-48499899D01*
X121177973Y-48357586D01*
X121094365Y-48221498D01*
X121016983Y-48156566D01*
X120868444Y-48097860D01*
X120512660Y-48128987D01*
X120305416Y-48218820D01*
X118651005Y-49797591D02*
X118520271Y-48303299D01*
X118004368Y-49782463D02*
X117797123Y-49872296D01*
X117441340Y-49903423D01*
X117292801Y-49844717D01*
X117215419Y-49779786D01*
X117131811Y-49643697D01*
X117119360Y-49501384D01*
X117178066Y-49352845D01*
X117242997Y-49275463D01*
X117379086Y-49191855D01*
X117657487Y-49095797D01*
X117793575Y-49012189D01*
X117858507Y-48934807D01*
X117917213Y-48786268D01*
X117904762Y-48643955D01*
X117821154Y-48507867D01*
X117743772Y-48442935D01*
X117595233Y-48384229D01*
X117239449Y-48415356D01*
X117032204Y-48505189D01*
X115377793Y-50083960D02*
X115247060Y-48589668D01*
X114523912Y-50158665D01*
X114393179Y-48664373D01*
X113396984Y-48751528D02*
X113112357Y-48776430D01*
X112976269Y-48860038D01*
X112846406Y-49014802D01*
X112800151Y-49305654D01*
X112843729Y-49803752D01*
X112939787Y-50082153D01*
X113094552Y-50212016D01*
X113243091Y-50270722D01*
X113527718Y-50245820D01*
X113663806Y-50162213D01*
X113793668Y-50007449D01*
X113839924Y-49716596D01*
X113796346Y-49218499D01*
X113700287Y-48940097D01*
X113545523Y-48810234D01*
X113396984Y-48751528D01*
X112329633Y-48844910D02*
X111475751Y-48919614D01*
X112033426Y-50376554D02*
X111902692Y-48882262D01*
X110003684Y-50123925D02*
X109292116Y-50186179D01*
X110183350Y-50538415D02*
X109554519Y-49087701D01*
X109187155Y-50625570D01*
X107562129Y-49262012D02*
X107337079Y-50787431D01*
X106959071Y-49744981D01*
X106767825Y-50837234D01*
X106281308Y-49374069D01*
X105774308Y-50135440D02*
X105276210Y-50179018D01*
X105131219Y-50980419D02*
X105842787Y-50918165D01*
X105712053Y-49423873D01*
X105000486Y-49486127D01*
X104524613Y-50603282D02*
X103813045Y-50665536D01*
X104704279Y-51017771D02*
X104075448Y-49567057D01*
X103708084Y-51104927D01*
X103209987Y-51148505D02*
X103079253Y-49654213D01*
X102509999Y-49704016D01*
X102373911Y-49787624D01*
X102308980Y-49865006D01*
X102250274Y-50013545D01*
X102268950Y-50227015D01*
X102352557Y-50363103D01*
X102429940Y-50428035D01*
X102578479Y-50486741D01*
X103147733Y-50436937D01*
X101300334Y-49809848D02*
X101015707Y-49834750D01*
X100879619Y-49918357D01*
X100749756Y-50073122D01*
X100703501Y-50363974D01*
X100747079Y-50862072D01*
X100843137Y-51140473D01*
X100997902Y-51270336D01*
X101146441Y-51329042D01*
X101431068Y-51304140D01*
X101567156Y-51220533D01*
X101697019Y-51065768D01*
X101743274Y-50774916D01*
X101699696Y-50276818D01*
X101603637Y-49998417D01*
X101448873Y-49868554D01*
X101300334Y-49809848D01*
X100150246Y-51416198D02*
X100019512Y-49921906D01*
X99296365Y-51490902D01*
X99165631Y-49996610D01*
X98572346Y-51410843D02*
X98507415Y-51488225D01*
X98584797Y-51553157D01*
X98649729Y-51475774D01*
X98572346Y-51410843D01*
X98584797Y-51553157D01*
X96817458Y-50202049D02*
X95963577Y-50276754D01*
X96521251Y-51733693D02*
X96390517Y-50239401D01*
X95596213Y-51814624D02*
X95465479Y-50320332D01*
X95527734Y-51031899D02*
X94673852Y-51106604D01*
X94742332Y-51889329D02*
X94611598Y-50395037D01*
X94030764Y-51951583D02*
X93900031Y-50457291D01*
X93384128Y-51936455D02*
X93176883Y-52026288D01*
X92821099Y-52057415D01*
X92672560Y-51998709D01*
X92595178Y-51933778D01*
X92511571Y-51797689D01*
X92499120Y-51655376D01*
X92557826Y-51506837D01*
X92622757Y-51429455D01*
X92758845Y-51345847D01*
X93037247Y-51249789D01*
X93173335Y-51166181D01*
X93238266Y-51088799D01*
X93296972Y-50940260D01*
X93284521Y-50797947D01*
X93200914Y-50661858D01*
X93123532Y-50596927D01*
X92974993Y-50538221D01*
X92619209Y-50569348D01*
X92411964Y-50659181D01*
X125301173Y-51640001D02*
X125170439Y-50145709D01*
X124814655Y-50176836D01*
X124607410Y-50266669D01*
X124477548Y-50421434D01*
X124418842Y-50569973D01*
X124372587Y-50860825D01*
X124391263Y-51074295D01*
X124487321Y-51352697D01*
X124570929Y-51488785D01*
X124725693Y-51618648D01*
X124945389Y-51671128D01*
X125301173Y-51640001D01*
X123738401Y-50988011D02*
X123240304Y-51031588D01*
X123095313Y-51832989D02*
X123806881Y-51770735D01*
X123676147Y-50276443D01*
X122964579Y-50338697D01*
X122537639Y-50376049D02*
X122170275Y-51913919D01*
X121541444Y-50463205D01*
X121174080Y-52001075D02*
X121043347Y-50506783D01*
X119596181Y-51995721D02*
X119673563Y-52060652D01*
X119893259Y-52113132D01*
X120035572Y-52100682D01*
X120242817Y-52010849D01*
X120372680Y-51856084D01*
X120431386Y-51707545D01*
X120477641Y-51416693D01*
X120458965Y-51203223D01*
X120362906Y-50924821D01*
X120279299Y-50788733D01*
X120124534Y-50658870D01*
X119904839Y-50606390D01*
X119762525Y-50618840D01*
X119555280Y-50708673D01*
X119490349Y-50786056D01*
X118899741Y-51411338D02*
X118401644Y-51454916D01*
X118256653Y-52256317D02*
X118968221Y-52194063D01*
X118837487Y-50699771D01*
X118125920Y-50762025D01*
X116477734Y-52411952D02*
X116347000Y-50917660D01*
X115831098Y-52396824D02*
X115623853Y-52486657D01*
X115268069Y-52517784D01*
X115119530Y-52459078D01*
X115042148Y-52394147D01*
X114958540Y-52258059D01*
X114946090Y-52115745D01*
X115004795Y-51967206D01*
X115069727Y-51889824D01*
X115205815Y-51806216D01*
X115484217Y-51710158D01*
X115620305Y-51626551D01*
X115685236Y-51549168D01*
X115743942Y-51400629D01*
X115731491Y-51258316D01*
X115647884Y-51122228D01*
X115570501Y-51057296D01*
X115421962Y-50998590D01*
X115066179Y-51029717D01*
X114858934Y-51119550D01*
X113204523Y-52698321D02*
X113073789Y-51204029D01*
X112504535Y-51253832D01*
X112368447Y-51337440D01*
X112303516Y-51414822D01*
X112244810Y-51563361D01*
X112263486Y-51776831D01*
X112347094Y-51912919D01*
X112424476Y-51977851D01*
X112573015Y-52036557D01*
X113142269Y-51986753D01*
X111744035Y-52395889D02*
X111032468Y-52458143D01*
X111923701Y-52810378D02*
X111294870Y-51359664D01*
X110927506Y-52897534D01*
X109575528Y-53015817D02*
X110011371Y-52260671D01*
X110429409Y-52941112D02*
X110298675Y-51446820D01*
X109729421Y-51496623D01*
X109593333Y-51580231D01*
X109528402Y-51657613D01*
X109469696Y-51806152D01*
X109488372Y-52019622D01*
X109571980Y-52155710D01*
X109649362Y-52220642D01*
X109797901Y-52279348D01*
X110367155Y-52229544D01*
X109017854Y-51558877D02*
X108163973Y-51633582D01*
X108721647Y-53090522D02*
X108590913Y-51596230D01*
X106242740Y-51801668D02*
X105958113Y-51826570D01*
X105822025Y-51910178D01*
X105692162Y-52064942D01*
X105645907Y-52355794D01*
X105689485Y-52853892D01*
X105785543Y-53132293D01*
X105940308Y-53262156D01*
X106088846Y-53320862D01*
X106373474Y-53295960D01*
X106509562Y-53212353D01*
X106639424Y-53057588D01*
X106685679Y-52766736D01*
X106642102Y-52268639D01*
X106546043Y-51990237D01*
X106391279Y-51860374D01*
X106242740Y-51801668D01*
X104526075Y-52668871D02*
X105024172Y-52625293D01*
X105092652Y-53408018D02*
X104961918Y-51913726D01*
X104250351Y-51975980D01*
X102707126Y-53186516D02*
X101995558Y-53248770D01*
X102886792Y-53601006D02*
X102257961Y-52150291D01*
X101890597Y-53688161D01*
X99542424Y-53893600D02*
X100253992Y-53831346D01*
X100123258Y-52337054D01*
X99078131Y-53504012D02*
X98366563Y-53566266D01*
X99257797Y-53918501D02*
X98628966Y-52467787D01*
X98261602Y-54005657D01*
X97828436Y-53971853D02*
X97621192Y-54061686D01*
X97265408Y-54092813D01*
X97116869Y-54034107D01*
X97039487Y-53969176D01*
X96955879Y-53833088D01*
X96943428Y-53690774D01*
X97002134Y-53542235D01*
X97067066Y-53464853D01*
X97203154Y-53381245D01*
X97481555Y-53285187D01*
X97617643Y-53201579D01*
X97682575Y-53124197D01*
X97741281Y-52975658D01*
X97728830Y-52833345D01*
X97645222Y-52697257D01*
X97567840Y-52632325D01*
X97419301Y-52573619D01*
X97063517Y-52604746D01*
X96856272Y-52694579D01*
X96271890Y-53391019D02*
X95773793Y-53434597D01*
X95628802Y-54235997D02*
X96340370Y-54173743D01*
X96209636Y-52679451D01*
X95498069Y-52741705D01*
X94134510Y-54366731D02*
X94570353Y-53611585D01*
X94988391Y-54292026D02*
X94857658Y-52797734D01*
X94288404Y-52847537D01*
X94152315Y-52931145D01*
X94087384Y-53008527D01*
X94028678Y-53157066D01*
X94047354Y-53370536D01*
X94130962Y-53506624D01*
X94208344Y-53571556D01*
X94356883Y-53630262D01*
X94926137Y-53580458D01*
X93444296Y-53853506D02*
X92305788Y-53953112D01*
X114209308Y-53528909D02*
X113355427Y-53603614D01*
X113913101Y-55060553D02*
X113782368Y-53566261D01*
X113021868Y-54708317D02*
X112310300Y-54770572D01*
X113201534Y-55122807D02*
X112572703Y-53672093D01*
X112205339Y-55209963D01*
X110800009Y-53898885D02*
X110936097Y-53815278D01*
X111149567Y-53796601D01*
X111369263Y-53849082D01*
X111524027Y-53978945D01*
X111607635Y-54115033D01*
X111703693Y-54393434D01*
X111722370Y-54606905D01*
X111676115Y-54897757D01*
X111617409Y-55046296D01*
X111487546Y-55201060D01*
X111280301Y-55290893D01*
X111137987Y-55303344D01*
X110918292Y-55250864D01*
X110840910Y-55185932D01*
X110797332Y-54687835D01*
X111081959Y-54662933D01*
X108167209Y-54129225D02*
X108303297Y-54045618D01*
X108516767Y-54026941D01*
X108736463Y-54079422D01*
X108891227Y-54209285D01*
X108974835Y-54345373D01*
X109070893Y-54623774D01*
X109089569Y-54837245D01*
X109043314Y-55128097D01*
X108984608Y-55276636D01*
X108854746Y-55431401D01*
X108647501Y-55521234D01*
X108505187Y-55533684D01*
X108285491Y-55481204D01*
X108208109Y-55416272D01*
X108164531Y-54918175D01*
X108449158Y-54893273D01*
X107613954Y-55181449D02*
X106902386Y-55243703D01*
X107793620Y-55595938D02*
X107164789Y-54145224D01*
X106797425Y-55683094D01*
X106299327Y-55726672D02*
X106168594Y-54232380D01*
X105763878Y-55343309D01*
X105172399Y-54319536D01*
X105303133Y-55813828D01*
X104523086Y-55093357D02*
X104024988Y-55136935D01*
X103879997Y-55938336D02*
X104591565Y-55876082D01*
X104460832Y-54381790D01*
X103749264Y-54444044D01*
D11*
X190810662Y-43403622D02*
X190858281Y-43356003D01*
X190905900Y-43213146D01*
X190905900Y-43117908D01*
X190858281Y-42975051D01*
X190763043Y-42879813D01*
X190667805Y-42832194D01*
X190477329Y-42784575D01*
X190334472Y-42784575D01*
X190143996Y-42832194D01*
X190048758Y-42879813D01*
X189953520Y-42975051D01*
X189905900Y-43117908D01*
X189905900Y-43213146D01*
X189953520Y-43356003D01*
X190001139Y-43403622D01*
X190001139Y-43784575D02*
X189953520Y-43832194D01*
X189905900Y-43927432D01*
X189905900Y-44165527D01*
X189953520Y-44260765D01*
X190001139Y-44308384D01*
X190096377Y-44356003D01*
X190191615Y-44356003D01*
X190334472Y-44308384D01*
X190905900Y-43736956D01*
X190905900Y-44356003D01*
X190239234Y-45213146D02*
X190905900Y-45213146D01*
X189858281Y-44975051D02*
X190572567Y-44736956D01*
X190572567Y-45356003D01*
X159052686Y-34377344D02*
X159095973Y-34325755D01*
X159130960Y-34179292D01*
X159122660Y-34084416D01*
X159062771Y-33946253D01*
X158959595Y-33859678D01*
X158860569Y-33820540D01*
X158666667Y-33789704D01*
X158524354Y-33802154D01*
X158338753Y-33866193D01*
X158248027Y-33921932D01*
X158161452Y-34025108D01*
X158126465Y-34171572D01*
X158134766Y-34266447D01*
X158194654Y-34404611D01*
X158246242Y-34447898D01*
X158180419Y-34788264D02*
X158234372Y-35404956D01*
X158584823Y-35039689D01*
X158597274Y-35182002D01*
X158653012Y-35272727D01*
X158704600Y-35316015D01*
X158803626Y-35355152D01*
X159040815Y-35334401D01*
X159131541Y-35278663D01*
X159174828Y-35227074D01*
X159213966Y-35128049D01*
X159189064Y-34843421D01*
X159133326Y-34752696D01*
X159081738Y-34709408D01*
X158362450Y-35776158D02*
X158319162Y-35827746D01*
X158280025Y-35926772D01*
X158300776Y-36163961D01*
X158356515Y-36254687D01*
X158408103Y-36297974D01*
X158507129Y-36337111D01*
X158602005Y-36328811D01*
X158740168Y-36268922D01*
X159259619Y-35649865D01*
X159313572Y-36266557D01*
X183269972Y-31155557D02*
X183182816Y-30159362D01*
X182945627Y-30180113D01*
X182807463Y-30240002D01*
X182720888Y-30343178D01*
X182681751Y-30442204D01*
X182650914Y-30636106D01*
X182663365Y-30778419D01*
X182727404Y-30964021D01*
X182783142Y-31054746D01*
X182886319Y-31141321D01*
X183032782Y-31176308D01*
X183269972Y-31155557D01*
X182226339Y-31246863D02*
X182036588Y-31263464D01*
X181937562Y-31224327D01*
X181885974Y-31181039D01*
X181778647Y-31047026D01*
X181714608Y-30861425D01*
X181681406Y-30481922D01*
X181720543Y-30382896D01*
X181763831Y-30331308D01*
X181854556Y-30275570D01*
X182044308Y-30258969D01*
X182143334Y-30298106D01*
X182194922Y-30341393D01*
X182250660Y-30432119D01*
X182271412Y-30669308D01*
X182232274Y-30768334D01*
X182188987Y-30819922D01*
X182098261Y-30875661D01*
X181908510Y-30892262D01*
X181809484Y-30853124D01*
X181757896Y-30809837D01*
X181702157Y-30719111D01*
X183411849Y-33050402D02*
X183981103Y-33000598D01*
X183696476Y-33025500D02*
X183609320Y-32029305D01*
X183716647Y-32163318D01*
X183819823Y-32249893D01*
X183918849Y-32289031D01*
X215763043Y-25998860D02*
X215763043Y-24998860D01*
X215429710Y-25713146D01*
X215096377Y-24998860D01*
X215096377Y-25998860D01*
X214096377Y-25998860D02*
X214667805Y-25998860D01*
X214382091Y-25998860D02*
X214382091Y-24998860D01*
X214477329Y-25141718D01*
X214572567Y-25236956D01*
X214667805Y-25284575D01*
X168389668Y-32274997D02*
X168302512Y-31278802D01*
X168065323Y-31299553D01*
X167927159Y-31359442D01*
X167840584Y-31462618D01*
X167801447Y-31561644D01*
X167770610Y-31755546D01*
X167783061Y-31897859D01*
X167847100Y-32083461D01*
X167902838Y-32174186D01*
X168006015Y-32260761D01*
X168152478Y-32295748D01*
X168389668Y-32274997D01*
X167201356Y-31805349D02*
X167292082Y-31749611D01*
X167335369Y-31698023D01*
X167374506Y-31598997D01*
X167370356Y-31551559D01*
X167314618Y-31460833D01*
X167263030Y-31417546D01*
X167164004Y-31378409D01*
X166974252Y-31395010D01*
X166883527Y-31450748D01*
X166840239Y-31502336D01*
X166801102Y-31601362D01*
X166805252Y-31648800D01*
X166860991Y-31739525D01*
X166912579Y-31782813D01*
X167011605Y-31821950D01*
X167201356Y-31805349D01*
X167300382Y-31844487D01*
X167351970Y-31887774D01*
X167407709Y-31978499D01*
X167424310Y-32168251D01*
X167385172Y-32267277D01*
X167341885Y-32318865D01*
X167251159Y-32374603D01*
X167061408Y-32391204D01*
X166962382Y-32352067D01*
X166910794Y-32308780D01*
X166855056Y-32218054D01*
X166838455Y-32028303D01*
X166877592Y-31929277D01*
X166920879Y-31877689D01*
X167011605Y-31821950D01*
X168531545Y-34169842D02*
X169100799Y-34120038D01*
X168816172Y-34144940D02*
X168729016Y-33148745D01*
X168836343Y-33282758D01*
X168939519Y-33369333D01*
X169038545Y-33408471D01*
X188990070Y-32065241D02*
X189033357Y-32013652D01*
X189068344Y-31867189D01*
X189060044Y-31772313D01*
X189000155Y-31634150D01*
X188896979Y-31547575D01*
X188797953Y-31508437D01*
X188604051Y-31477601D01*
X188461738Y-31490051D01*
X188276137Y-31554090D01*
X188185411Y-31609829D01*
X188098836Y-31713005D01*
X188063849Y-31859469D01*
X188072150Y-31954344D01*
X188132038Y-32092508D01*
X188183626Y-32135795D01*
X188117803Y-32476161D02*
X188171756Y-33092853D01*
X188522207Y-32727586D01*
X188534658Y-32869899D01*
X188590396Y-32960624D01*
X188641984Y-33003912D01*
X188741010Y-33043049D01*
X188978199Y-33022298D01*
X189068925Y-32966560D01*
X189112212Y-32914971D01*
X189151350Y-32815946D01*
X189126448Y-32531318D01*
X189070710Y-32440593D01*
X189019122Y-32397305D01*
X188578526Y-33917682D02*
X189242656Y-33859578D01*
X188178272Y-33713695D02*
X188869088Y-33414252D01*
X188923042Y-34030943D01*
X152979736Y-107792632D02*
X152988758Y-107942946D01*
X153022430Y-108001267D01*
X153102098Y-108071913D01*
X153240087Y-108108887D01*
X153344405Y-108087540D01*
X153402726Y-108053868D01*
X153473372Y-107974200D01*
X153571970Y-107606228D01*
X152606044Y-107347409D01*
X152519771Y-107669385D01*
X152541118Y-107773702D01*
X152574790Y-107832023D01*
X152654458Y-107902669D01*
X152746451Y-107927319D01*
X152850769Y-107905972D01*
X152909090Y-107872300D01*
X152979736Y-107792632D01*
X153066009Y-107470656D01*
X152384199Y-108175346D02*
X152236302Y-108727303D01*
X153276177Y-108710144D02*
X152310251Y-108451324D01*
X152980383Y-109814059D02*
X153128280Y-109262101D01*
X153054332Y-109538080D02*
X152088406Y-109279261D01*
X152251045Y-109224242D01*
X152367687Y-109156899D01*
X152438333Y-109077230D01*
X198551427Y-29817837D02*
X198464271Y-28821642D01*
X198227082Y-28842394D01*
X198088919Y-28902282D01*
X198002344Y-29005459D01*
X197963206Y-29104485D01*
X197932370Y-29298386D01*
X197944821Y-29440700D01*
X198008859Y-29626301D01*
X198064598Y-29717026D01*
X198167774Y-29803601D01*
X198314238Y-29838588D01*
X198551427Y-29817837D01*
X197033416Y-29950646D02*
X197602670Y-29900843D01*
X197318043Y-29925744D02*
X197230887Y-28929549D01*
X197338214Y-29063562D01*
X197441390Y-29150138D01*
X197540416Y-29189275D01*
X196329568Y-29008405D02*
X196234693Y-29016705D01*
X196143967Y-29072444D01*
X196100680Y-29124032D01*
X196061542Y-29223058D01*
X196030706Y-29416959D01*
X196051457Y-29654149D01*
X196115496Y-29839750D01*
X196171234Y-29930475D01*
X196222823Y-29973763D01*
X196321848Y-30012900D01*
X196416724Y-30004599D01*
X196507450Y-29948861D01*
X196550737Y-29897273D01*
X196589874Y-29798247D01*
X196620711Y-29604345D01*
X196599960Y-29367156D01*
X196535921Y-29181555D01*
X196480182Y-29090830D01*
X196428594Y-29047542D01*
X196329568Y-29008405D01*
X198218926Y-31754185D02*
X198788180Y-31704381D01*
X198503553Y-31729283D02*
X198416397Y-30733088D01*
X198523724Y-30867101D01*
X198626900Y-30953676D01*
X198725926Y-30992814D01*
X188905900Y-36403622D02*
X188429710Y-36070289D01*
X188905900Y-35832194D02*
X187905900Y-35832194D01*
X187905900Y-36213146D01*
X187953520Y-36308384D01*
X188001139Y-36356003D01*
X188096377Y-36403622D01*
X188239234Y-36403622D01*
X188334472Y-36356003D01*
X188382091Y-36308384D01*
X188429710Y-36213146D01*
X188429710Y-35832194D01*
X187905900Y-36736956D02*
X187905900Y-37356003D01*
X188286853Y-37022670D01*
X188286853Y-37165527D01*
X188334472Y-37260765D01*
X188382091Y-37308384D01*
X188477329Y-37356003D01*
X188715424Y-37356003D01*
X188810662Y-37308384D01*
X188858281Y-37260765D01*
X188905900Y-37165527D01*
X188905900Y-36879813D01*
X188858281Y-36784575D01*
X188810662Y-36736956D01*
X187905900Y-37975051D02*
X187905900Y-38070289D01*
X187953520Y-38165527D01*
X188001139Y-38213146D01*
X188096377Y-38260765D01*
X188286853Y-38308384D01*
X188524948Y-38308384D01*
X188715424Y-38260765D01*
X188810662Y-38213146D01*
X188858281Y-38165527D01*
X188905900Y-38070289D01*
X188905900Y-37975051D01*
X188858281Y-37879813D01*
X188810662Y-37832194D01*
X188715424Y-37784575D01*
X188524948Y-37736956D01*
X188286853Y-37736956D01*
X188096377Y-37784575D01*
X188001139Y-37832194D01*
X187953520Y-37879813D01*
X187905900Y-37975051D01*
X181715424Y-46594099D02*
X181715424Y-45784575D01*
X181763043Y-45689337D01*
X181810662Y-45641718D01*
X181905900Y-45594099D01*
X182096377Y-45594099D01*
X182191615Y-45641718D01*
X182239234Y-45689337D01*
X182286853Y-45784575D01*
X182286853Y-46594099D01*
X183286853Y-45594099D02*
X182715424Y-45594099D01*
X183001139Y-45594099D02*
X183001139Y-46594099D01*
X182905900Y-46451241D01*
X182810662Y-46356003D01*
X182715424Y-46308384D01*
X183620186Y-46594099D02*
X184239234Y-46594099D01*
X183905900Y-46213146D01*
X184048758Y-46213146D01*
X184143996Y-46165527D01*
X184191615Y-46117908D01*
X184239234Y-46022670D01*
X184239234Y-45784575D01*
X184191615Y-45689337D01*
X184143996Y-45641718D01*
X184048758Y-45594099D01*
X183763043Y-45594099D01*
X183667805Y-45641718D01*
X183620186Y-45689337D01*
X153332588Y-33467661D02*
X153245432Y-32471466D01*
X153008243Y-32492217D01*
X152870079Y-32552106D01*
X152783504Y-32655282D01*
X152744367Y-32754308D01*
X152713530Y-32948210D01*
X152725981Y-33090523D01*
X152790020Y-33276125D01*
X152845758Y-33366850D01*
X152948935Y-33453425D01*
X153095398Y-33488412D01*
X153332588Y-33467661D01*
X152344113Y-32550321D02*
X151679983Y-32608425D01*
X152194079Y-33567267D01*
X153474465Y-35362506D02*
X154043719Y-35312702D01*
X153759092Y-35337604D02*
X153671936Y-34341409D01*
X153779263Y-34475422D01*
X153882439Y-34561997D01*
X153981465Y-34601135D01*
X174109766Y-33184681D02*
X174153053Y-33133092D01*
X174188040Y-32986629D01*
X174179740Y-32891753D01*
X174119851Y-32753590D01*
X174016675Y-32667015D01*
X173917649Y-32627877D01*
X173723747Y-32597041D01*
X173581434Y-32609491D01*
X173395833Y-32673530D01*
X173305107Y-32729269D01*
X173218532Y-32832445D01*
X173183545Y-32978909D01*
X173191846Y-33073784D01*
X173251734Y-33211948D01*
X173303322Y-33255235D01*
X173237499Y-33595601D02*
X173291452Y-34212293D01*
X173641903Y-33847026D01*
X173654354Y-33989339D01*
X173710092Y-34080064D01*
X173761680Y-34123352D01*
X173860706Y-34162489D01*
X174097895Y-34141738D01*
X174188621Y-34086000D01*
X174231908Y-34034411D01*
X174271046Y-33935386D01*
X174246144Y-33650758D01*
X174190406Y-33560033D01*
X174138818Y-33516745D01*
X173370307Y-35113612D02*
X173328805Y-34639233D01*
X173799033Y-34550293D01*
X173755745Y-34601881D01*
X173716608Y-34700907D01*
X173737359Y-34938096D01*
X173793098Y-35028821D01*
X173844686Y-35072109D01*
X173943712Y-35111246D01*
X174180901Y-35090495D01*
X174271626Y-35034756D01*
X174314914Y-34983168D01*
X174354051Y-34884142D01*
X174333300Y-34646953D01*
X174277561Y-34556228D01*
X174225973Y-34512940D01*
X203784897Y-30628978D02*
X203828184Y-30577389D01*
X203863171Y-30430926D01*
X203854871Y-30336050D01*
X203794982Y-30197887D01*
X203691806Y-30111312D01*
X203592780Y-30072174D01*
X203398878Y-30041338D01*
X203256565Y-30053788D01*
X203070964Y-30117827D01*
X202980238Y-30173566D01*
X202893663Y-30276742D01*
X202858676Y-30423206D01*
X202866977Y-30518081D01*
X202926865Y-30656245D01*
X202978453Y-30699532D01*
X202912630Y-31039898D02*
X202966583Y-31656590D01*
X203317034Y-31291323D01*
X203329485Y-31433636D01*
X203385223Y-31524361D01*
X203436811Y-31567649D01*
X203535837Y-31606786D01*
X203773026Y-31586035D01*
X203863752Y-31530297D01*
X203907039Y-31478708D01*
X203946177Y-31379683D01*
X203921275Y-31095055D01*
X203865537Y-31004330D01*
X203813949Y-30961042D01*
X202995635Y-31988655D02*
X203049589Y-32605346D01*
X203400039Y-32240079D01*
X203412490Y-32382393D01*
X203468229Y-32473118D01*
X203519817Y-32516406D01*
X203618843Y-32555543D01*
X203856032Y-32534792D01*
X203946757Y-32479053D01*
X203990045Y-32427465D01*
X204029182Y-32328439D01*
X204004281Y-32043812D01*
X203948542Y-31953087D01*
X203896954Y-31909799D01*
D13*
X182066946Y-83587246D02*
X184137499Y-75859840D01*
X186413613Y-84751932D02*
X182066946Y-83587246D01*
X184137499Y-75859840D02*
X188484165Y-77024525D01*
X189188520Y-44307732D02*
X189188520Y-43785228D01*
X187718520Y-44307732D02*
X187718520Y-43785228D01*
X156738327Y-35084020D02*
X156762832Y-35364110D01*
X157754446Y-34995122D02*
X157778951Y-35275212D01*
X186676092Y-36677325D02*
X179403871Y-37313562D01*
X179403871Y-37313562D02*
X179303642Y-36167938D01*
X186196735Y-31198254D02*
X178924514Y-31834491D01*
X213623520Y-31916480D02*
X213623520Y-26716480D01*
X213683520Y-29316480D02*
X216283520Y-29316480D01*
X216283520Y-31916480D02*
X216283520Y-30586480D01*
X216283520Y-26716480D02*
X213623520Y-26716480D01*
X216283520Y-29316480D02*
X216283520Y-26716480D01*
X213683520Y-31916480D02*
X213683520Y-29316480D01*
X213683520Y-31916480D02*
X213623520Y-31916480D01*
X214953520Y-31916480D02*
X216283520Y-31916480D01*
X170153541Y-26237327D02*
X169944367Y-23846459D01*
X167553499Y-24055633D02*
X167762673Y-26446501D01*
X169944367Y-23846459D02*
X167553499Y-24055633D01*
X167762673Y-26446501D02*
X170153541Y-26237327D01*
X197648513Y-23831828D02*
X200039381Y-23622654D01*
X197439339Y-21440960D02*
X197648513Y-23831828D01*
X199830207Y-21231786D02*
X197439339Y-21440960D01*
X200039381Y-23622654D02*
X199830207Y-21231786D01*
X171795788Y-37796765D02*
X164523567Y-38433002D01*
X164523567Y-38433002D02*
X164423338Y-37287378D01*
X171316431Y-32317694D02*
X164044210Y-32953931D01*
X147629605Y-25798748D02*
X147838779Y-28189616D01*
X150020473Y-25589574D02*
X147629605Y-25798748D01*
X147838779Y-28189616D02*
X150229647Y-27980442D01*
X150229647Y-27980442D02*
X150020473Y-25589574D01*
X186675711Y-32771917D02*
X186700216Y-33052007D01*
X187691830Y-32683019D02*
X187716335Y-32963109D01*
X189868260Y-22103344D02*
X187477392Y-22312518D01*
X190077434Y-24494212D02*
X189868260Y-22103344D01*
X187686566Y-24703386D02*
X190077434Y-24494212D01*
X187477392Y-22312518D02*
X187686566Y-24703386D01*
X157275537Y-149760191D02*
X164037018Y-151571925D01*
X163870022Y-71521035D02*
X170631503Y-73332769D01*
X150629967Y-147979516D02*
X143887805Y-146172959D01*
X170365182Y-69265242D02*
X167950367Y-68618194D01*
X143868486Y-146167783D02*
X163870022Y-71521035D01*
X170631503Y-73332769D02*
X171759954Y-69121332D01*
X169481298Y-67734311D02*
X168834251Y-70149125D01*
X184038554Y-76925177D02*
X177277073Y-75113444D01*
X146834632Y-152252821D02*
X147481679Y-149838006D01*
X164037018Y-151571925D02*
X184038554Y-76925177D01*
X194210948Y-36017345D02*
X194110719Y-34871721D01*
X201003812Y-29902037D02*
X193731591Y-30538274D01*
X201483169Y-35381108D02*
X194210948Y-36017345D01*
X177515445Y-23184075D02*
X177724619Y-25574943D01*
X179906313Y-22974901D02*
X177515445Y-23184075D01*
X177724619Y-25574943D02*
X180115487Y-25365769D01*
X180115487Y-25365769D02*
X179906313Y-22974901D01*
X188976021Y-40783738D02*
X188976021Y-40309222D01*
X187931021Y-40783738D02*
X187931021Y-40309222D01*
X180953520Y-45046480D02*
X184953520Y-45046480D01*
X184953520Y-45046480D02*
X184953520Y-40046480D01*
X184953520Y-40046480D02*
X180953520Y-40046480D01*
X180953520Y-40046480D02*
X180953520Y-45046480D01*
X184453520Y-43546480D02*
G75*
G03*
X184453520Y-43546480I-1500000J0D01*
G01*
X130723520Y-57276480D02*
X130723520Y-57246480D01*
X137183520Y-57276480D02*
X137183520Y-57246480D01*
X137183520Y-52746480D02*
X137183520Y-55346480D01*
X130723520Y-50816480D02*
X130723520Y-50846480D01*
X137183520Y-57276480D02*
X130723520Y-57276480D01*
X130723520Y-52746480D02*
X130723520Y-55346480D01*
X137183520Y-50816480D02*
X130723520Y-50816480D01*
X137183520Y-50846480D02*
X137183520Y-50816480D01*
X156738708Y-38989429D02*
X149466487Y-39625666D01*
X149466487Y-39625666D02*
X149366258Y-38480042D01*
X156259351Y-33510358D02*
X148987130Y-34146595D01*
X171795407Y-33891357D02*
X171819912Y-34171447D01*
X172811526Y-33802459D02*
X172836031Y-34082549D01*
X202498909Y-31386801D02*
X202523414Y-31666891D01*
X201482790Y-31475699D02*
X201507295Y-31755789D01*
X159982420Y-24718016D02*
X157591552Y-24927190D01*
X157591552Y-24927190D02*
X157800726Y-27318058D01*
X157800726Y-27318058D02*
X160191594Y-27108884D01*
X160191594Y-27108884D02*
X159982420Y-24718016D01*
%LPC*%
D14*
X164537521Y-140276585D03*
X163369519Y-82816375D03*
D15*
X180980295Y-78911317D03*
D16*
X186647048Y-78085185D03*
X186000000Y-80500000D03*
X185352952Y-82914815D03*
D17*
X210028520Y-27166480D03*
D18*
X210028520Y-29706480D03*
X210028520Y-32246480D03*
D19*
X188153520Y-58046480D03*
D20*
X190693520Y-58046480D03*
X193233520Y-58046480D03*
X195773520Y-58046480D03*
D21*
X79712914Y-41927884D03*
X78216940Y-47510935D03*
D22*
X78358770Y-49029383D03*
D23*
X76557396Y-39601920D03*
D22*
X80594966Y-40683784D03*
D23*
X74321200Y-47947520D03*
D24*
X225953520Y-43546480D03*
D19*
X140228520Y-33046480D03*
D20*
X140228520Y-35586480D03*
D17*
X215443520Y-38996480D03*
D18*
X212903520Y-38996480D03*
X210363520Y-38996480D03*
D25*
X188453520Y-44996480D03*
X188453520Y-43096480D03*
D26*
X157191093Y-34407565D03*
X157326185Y-35951667D03*
D27*
X185101531Y-32448465D03*
X185380429Y-35636288D03*
X180499075Y-36063351D03*
X180220177Y-32875528D03*
D19*
X214953520Y-30586480D03*
D20*
X214953520Y-28046480D03*
D28*
X168853520Y-25146480D03*
X198739360Y-22531807D03*
D27*
X170221227Y-33567905D03*
X170500125Y-36755728D03*
X165618771Y-37182791D03*
X165339873Y-33994968D03*
D28*
X148929626Y-26889595D03*
D26*
X187128477Y-32095462D03*
X187263569Y-33639564D03*
D28*
X188777413Y-23403365D03*
D14*
X178824332Y-86957480D03*
D15*
X165525482Y-74770213D03*
D14*
X149082708Y-136135480D03*
D29*
X174132873Y-73556617D03*
X153774167Y-149536343D03*
D27*
X199908608Y-31152248D03*
X200187506Y-34340071D03*
X195306152Y-34767134D03*
X195027254Y-31579311D03*
D28*
X178815466Y-24274922D03*
D30*
X188453521Y-41371480D03*
X188453521Y-39721480D03*
D31*
X179953520Y-43816480D03*
X179953520Y-41276480D03*
X185953520Y-41276480D03*
X185953520Y-43816480D03*
D32*
X137928520Y-51796480D03*
X129978520Y-51796480D03*
X129978520Y-56296480D03*
X137928520Y-56296480D03*
D27*
X155164147Y-34760569D03*
X155443045Y-37948392D03*
X150561691Y-38375455D03*
X150282793Y-35187632D03*
D26*
X172248173Y-33214902D03*
X172383265Y-34759004D03*
X201935556Y-30799244D03*
X202070648Y-32343346D03*
D28*
X158891573Y-26018037D03*
M02*
